<?xml version="1.0" encoding="UTF-8"?>
<svg id="OUTLINED_FINAL" data-name="OUTLINED FINAL" xmlns="http://www.w3.org/2000/svg" width="80" height="80" viewBox="0 0 80 80">
  <rect x="9" y="69.2" width="62.01" height="1.55"/>
  <path d="M9.29,56.85l-.58,1.44c10.35,4.17,20.78,6.26,31.24,6.26s20.93-2.09,31.35-6.26l-.58-1.44c-20.46,8.19-41.12,8.19-61.43,0Z"/>
  <path d="M71.49,45.78l-.97-1.21c-20.27,16.2-40.81,16.2-61.04,0l-.97,1.21c10.44,8.36,20.95,12.54,31.47,12.54s21.05-4.18,31.51-12.54Z"/>
  <path d="M34.35,40.49l-1.1,1.1,6.2,6.2c.15.15.35.23.55.23s.4-.08.55-.23l6.2-6.2-1.1-1.1-4.88,4.88V11.91l4.88,4.88,1.1-1.1-6.2-6.2c-.3-.3-.79-.3-1.1,0l-6.2,6.2,1.1,1.1,4.88-4.88v33.46l-4.88-4.88Z"/>
</svg>