<?xml version="1.0" encoding="UTF-8"?>
<svg id="art" xmlns="http://www.w3.org/2000/svg" viewBox="0 0 80 80">
  <defs>
    <style>
      .cls-1 {
        fill: #fff;
      }
    </style>
  </defs>
  <path class="cls-1" d="M20.75,24.75h4.96v-1.5h-5.71c-.41,0-.75.34-.75.75v5.71h1.5v-4.96Z"/>
  <path class="cls-1" d="M60,23.25h-5.71v1.5h4.96v4.96h1.5v-5.71c0-.41-.34-.75-.75-.75Z"/>
  <path class="cls-1" d="M58.96,63.25h-4.96v1.5h5.71c.41,0,.75-.34.75-.75v-5.71h-1.5v4.96Z"/>
  <path class="cls-1" d="M20.75,58.29h-1.5v5.71c0,.41.34.75.75.75h5.71v-1.5h-4.96v-4.96Z"/>
  <path class="cls-1" d="M59.25,16h1.5c0-1.79,1.46-3.25,3.25-3.25v-1.5c-1.79,0-3.25-1.46-3.25-3.25h-1.5c0,1.79-1.46,3.25-3.25,3.25v1.5c1.79,0,3.25,1.46,3.25,3.25ZM60,10.54c.38.59.87,1.09,1.46,1.46-.59.38-1.09.87-1.46,1.46-.38-.59-.87-1.09-1.46-1.46.59-.38,1.09-.87,1.46-1.46Z"/>
  <path class="cls-1" d="M66.97,12.44h-1.5c0,2.77-2.26,5.03-5.03,5.03v1.5c2.77,0,5.03,2.26,5.03,5.03h1.5c0-2.77,2.25-5.03,5.03-5.03v-1.5c-2.77,0-5.03-2.26-5.03-5.03ZM66.22,20.97c-.62-1.17-1.58-2.13-2.75-2.75,1.17-.62,2.13-1.58,2.75-2.75.62,1.17,1.58,2.13,2.75,2.75-1.17.62-2.13,1.58-2.75,2.75Z"/>
  <path class="cls-1" d="M55.57,31.52h-31.57c-.41,0-.75.34-.75.75v20.98h-3.25v1.5h40v-1.5h-3.68v-20.98c0-.41-.34-.75-.75-.75ZM43.23,53.25h-17.42l8.71-8.71,8.71,8.71ZM37.58,45.48l4.42-4.42,12.19,12.19h-8.83l-7.77-7.77ZM54.82,33.02v18.73l-12.29-12.29c-.29-.29-.77-.29-1.06,0l-4.95,4.95-1.47-1.47c-.28-.28-.78-.28-1.06,0l-9.24,9.24v-19.17h30.07Z"/>
  <path class="cls-1" d="M36,40.28c1.52,0,2.75-1.23,2.75-2.75s-1.23-2.75-2.75-2.75-2.75,1.23-2.75,2.75,1.23,2.75,2.75,2.75ZM36,36.28c.69,0,1.25.56,1.25,1.25s-.56,1.25-1.25,1.25-1.25-.56-1.25-1.25.56-1.25,1.25-1.25Z"/>
</svg>