<?xml version="1.0" encoding="utf-8"?>
<!-- Generator: Adobe Illustrator 27.2.0, SVG Export Plug-In . SVG Version: 6.00 Build 0)  -->
<svg version="1.1" id="Layer_1" xmlns="http://www.w3.org/2000/svg" xmlns:xlink="http://www.w3.org/1999/xlink" x="0px" y="0px"
	 viewBox="0 0 80 80" style="enable-background:new 0 0 80 80;" xml:space="preserve">
<g id="DO_NOT_TOUCH_Outlines_">
	<g>
		<path d="M70.8,50v-4c0-0.2,0-0.3-0.1-0.4l-12-18c-0.1-0.2-0.4-0.3-0.6-0.3H8v1.5h49.6l1.7,2.5H50c-0.2,0-0.5,0.1-0.6,0.3
			s-0.2,0.4-0.1,0.6l2,8c0.1,0.3,0.4,0.6,0.7,0.6h13.6l3.7,5.5v3H8v1.5h62C70.4,50.8,70.8,50.4,70.8,50z M52.6,39.2L51,32.8h9.3
			l4.3,6.5C64.6,39.2,52.6,39.2,52.6,39.2z"/>
		<rect x="8" y="53.2" width="64" height="1.5"/>
		<path d="M30.6,40.5c0.1-0.2,0.2-0.4,0.1-0.6l-2-8c-0.1-0.3-0.4-0.6-0.7-0.6H8v1.5h19.4l1.6,6.5H8v1.5h22
			C30.2,40.8,30.5,40.6,30.6,40.5z"/>
		<path d="M36,40.8h8c0.2,0,0.5-0.1,0.6-0.3s0.2-0.4,0.1-0.6l-2-8c-0.1-0.3-0.4-0.6-0.7-0.6h-8c-0.2,0-0.5,0.1-0.6,0.3
			s-0.2,0.4-0.1,0.6l2,8C35.4,40.5,35.7,40.8,36,40.8z M41.4,32.8l1.6,6.5h-6.5L35,32.8H41.4z"/>
	</g>
</g>
</svg>
