<svg id="DO_NOT_TOUCH_Outlines_" data-name="DO NOT TOUCH (Outlines)" xmlns="http://www.w3.org/2000/svg" viewBox="0 0 80 80"><path d="M50,57.25H30a.76.76,0,0,0-.75.75v4A2.75,2.75,0,0,0,32,64.75h1.29a6.75,6.75,0,0,0,13.42,0H48A2.75,2.75,0,0,0,50.75,62V58A.76.76,0,0,0,50,57.25Zm-10,12a5.23,5.23,0,0,1-5.17-4.5H45.17A5.23,5.23,0,0,1,40,69.25ZM49.25,62A1.25,1.25,0,0,1,48,63.25H32A1.25,1.25,0,0,1,30.75,62V58.75h18.5Z"/><path d="M70,39.25H58a.76.76,0,0,0-.75.75V52a.76.76,0,0,0,.75.75H70a.76.76,0,0,0,.75-.75V40A.76.76,0,0,0,70,39.25Zm-.75,12H58.75V40.75h10.5Z"/><path d="M62,48.75h4a.76.76,0,0,0,.75-.75V44a.76.76,0,0,0-.75-.75H62a.76.76,0,0,0-.75.75v4A.76.76,0,0,0,62,48.75Zm.75-4h2.5v2.5h-2.5Z"/><path d="M17.45,44.83a.56.56,0,0,0,.17.09.6.6,0,0,0,.19.06L18,45a1,1,0,0,0,.38-.08.93.93,0,0,0,.33-.21,1,1,0,0,0,.21-.33.94.94,0,0,0,0-.76,1,1,0,0,0-.21-.33,1.05,1.05,0,0,0-.9-.27.6.6,0,0,0-.19.06.56.56,0,0,0-.17.09,1,1,0,0,0-.16.12,1,1,0,0,0,0,1.42Z"/><path d="M22,39.25H10a.76.76,0,0,0-.75.75V52a.76.76,0,0,0,.75.75h1.25V56h1.5V52.75h2.5V56h1.5V52.75h2.5V56h1.5V52.75H22a.76.76,0,0,0,.75-.75V40A.76.76,0,0,0,22,39.25Zm-.75,12H10.75V40.75h10.5Z"/><path d="M48.53,24.83a12.19,12.19,0,0,0-17.26,0l1.06,1.06a10.69,10.69,0,0,1,15.14,0Z"/><path d="M45.83,27.53a8.38,8.38,0,0,0-11.86,0L35,28.59a6.88,6.88,0,0,1,9.74,0Z"/><path d="M43.13,30.23a4.56,4.56,0,0,0-6.46,0l1.06,1.06a3.14,3.14,0,0,1,4.34,0Z"/><path d="M39.9,35a1,1,0,0,0,1-1,1,1,0,0,0-.08-.38,1.15,1.15,0,0,0-.21-.33,1,1,0,0,0-1.42,1.42A1,1,0,0,0,39.9,35Z"/><path d="M60.75,24.44a6.31,6.31,0,0,0-6.31-6.3,6.06,6.06,0,0,0-2.8.68,11.85,11.85,0,0,0-22.49-2.47,7.23,7.23,0,0,0-2.48-.43A7.42,7.42,0,0,0,26,30.72H26c.21,0,.42,0,.64,0v0l3.32,0,0-1.5-3.93,0A5.91,5.91,0,1,1,29.24,18a.74.74,0,0,0,.6,0,.78.78,0,0,0,.43-.44,10.35,10.35,0,0,1,20,2.55.77.77,0,0,0,.45.62.75.75,0,0,0,.76-.1,4.72,4.72,0,0,1,2.92-1,4.81,4.81,0,1,1,0,9.61H50v1.5h4.44A6.32,6.32,0,0,0,60.75,24.44Z"/><path d="M40.71,39.29a1,1,0,0,0-.33-.21,1,1,0,0,0-1.09.21A1,1,0,0,0,40,41a1,1,0,0,0,.38-.08,1,1,0,0,0,.33-.21,1,1,0,0,0,0-1.42Z"/><path d="M40.71,45.29l-.15-.12-.18-.09a1,1,0,0,0-.76,0,1.15,1.15,0,0,0-.33.21A1.05,1.05,0,0,0,39,46a.68.68,0,0,0,0,.2.64.64,0,0,0,.06.18.76.76,0,0,0,.09.18,1.58,1.58,0,0,0,.12.15A1.05,1.05,0,0,0,40,47a1,1,0,0,0,.38-.08l.18-.09.15-.12.12-.15a.76.76,0,0,0,.09-.18A.64.64,0,0,0,41,46.2a.68.68,0,0,0,0-.2A1.05,1.05,0,0,0,40.71,45.29Z"/><path d="M33.29,45.29a1,1,0,0,0,0,1.42,1,1,0,0,0,.16.12.56.56,0,0,0,.17.09.64.64,0,0,0,.18.06l.2,0a1.05,1.05,0,0,0,.71-.29.93.93,0,0,0,.21-.33.94.94,0,0,0,0-.76.93.93,0,0,0-.21-.33A1,1,0,0,0,33.29,45.29Z"/><path d="M27.62,45.08a1.15,1.15,0,0,0-.33.21,1,1,0,0,0-.21.33.94.94,0,0,0,0,.76.93.93,0,0,0,.21.33,1,1,0,0,0,1.42,0A1,1,0,0,0,29,46a1.05,1.05,0,0,0-.29-.71A1,1,0,0,0,27.62,45.08Z"/><path d="M45.29,46.71A1.05,1.05,0,0,0,46,47l.2,0a.64.64,0,0,0,.18-.06.56.56,0,0,0,.17-.09,1,1,0,0,0,.16-.12.93.93,0,0,0,.21-.33A1,1,0,0,0,47,46a1,1,0,0,0-.29-.71l-.16-.12a.56.56,0,0,0-.17-.09A.64.64,0,0,0,46.2,45a1,1,0,0,0-.91.27A1,1,0,0,0,45,46a1,1,0,0,0,.08.38A.93.93,0,0,0,45.29,46.71Z"/><path d="M52.71,45.29l-.15-.12-.18-.09A.64.64,0,0,0,52.2,45a1,1,0,0,0-.91.27A1.05,1.05,0,0,0,51,46a1,1,0,0,0,.08.38,1.15,1.15,0,0,0,.21.33A1.05,1.05,0,0,0,52,47l.2,0a.64.64,0,0,0,.18-.06l.18-.09.15-.12a1.15,1.15,0,0,0,.21-.33.94.94,0,0,0,0-.76A1,1,0,0,0,52.71,45.29Z"/><path d="M40.38,51.08a1,1,0,0,0-1.09.21A1,1,0,0,0,40,53a.84.84,0,0,0,.38-.08l.18-.09.15-.12A1.05,1.05,0,0,0,41,52a1,1,0,0,0-.62-.92Z"/></svg>