<?xml version="1.0" encoding="UTF-8"?><svg id="a" xmlns="http://www.w3.org/2000/svg" viewBox="0 0 80 80"><path d="M12.09277,27.62207c-1.88672,3.23438-2.84277,6.72607-2.84277,10.37793v.75h12.03516v-.75c0-3.44287,.49414-6.82227,1.42969-9.77344l.30957-.97656H12.30957l-.2168,.37207Zm8.90137,1.12793c-.74121,2.65186-1.14453,5.50293-1.20215,8.5H10.76465c.11621-2.97314,.92578-5.82715,2.41113-8.5h7.81836Z"/><path d="M18.1875,24.75H61.23633l-.57129-1.09668c-3.85303-7.39844-11.58325-12.12695-20.20312-12.38135v-.02197h-1.5v.02197c-8.61987,.25439-16.3501,4.98291-20.20312,12.38135l-.57129,1.09668Zm40.5332-1.5h-6.11426c-.03833-.12549-.08325-.2417-.12305-.36548-.09131-.28467-.18481-.56567-.28271-.84106-.07129-.2002-.14453-.39746-.21948-.59277-.10181-.26538-.20679-.52563-.31494-.78174-.07959-.18872-.15991-.37646-.24292-.56006-.11377-.25122-.23193-.49536-.35205-.73682-.08594-.17334-.17139-.34741-.2605-.51562-.12817-.24146-.26172-.47339-.39624-.7041-.08936-.15356-.17676-.31006-.26904-.45898-.14941-.24121-.30566-.4707-.46216-.69922-.08472-.12378-.16675-.25293-.25366-.37305-.20288-.28052-.41357-.54663-.62744-.80664-.04639-.05615-.08984-.11816-.13672-.17334-.26709-.31519-.54199-.61401-.82471-.89697-.05054-.05029-.104-.09399-.15479-.14355-.23242-.22534-.46777-.44385-.71021-.64771-.01685-.01392-.03223-.03076-.04907-.04468,4.92773,1.62988,9.13574,4.91162,11.79395,9.3418Zm-18.25879-10.4646c.1377,.01074,.27441,.02539,.41064,.04199,.12305,.01489,.24731,.02612,.36914,.0459,.18311,.02954,.36279,.07056,.54297,.1106,.11353,.02539,.22827,.04565,.34058,.0752,.19385,.05078,.38379,.1145,.57373,.17773,.09424,.03149,.19067,.05664,.28394,.09106,.26733,.09839,.53052,.20996,.78955,.33276,.01367,.00635,.02759,.01099,.04102,.01758,.27148,.13037,.53809,.27515,.80005,.43188,.09009,.05396,.17676,.11694,.26562,.17407,.16968,.10889,.34009,.2168,.50537,.33667,.10327,.07495,.20288,.15845,.3042,.23755,.14697,.11475,.29443,.22803,.43774,.35156,.10376,.0896,.20435,.18701,.30615,.28125,.1355,.12549,.27148,.25024,.40332,.38379,.10181,.10303,.2002,.2124,.2998,.32007,.12695,.13745,.25342,.27515,.37695,.42017,.09741,.11475,.19214,.23486,.28735,.35449,.11987,.15039,.23853,.302,.35474,.45996,.09204,.12549,.18213,.25513,.27197,.38525,.11328,.16431,.2251,.33105,.33447,.50269,.08618,.13501,.17041,.27295,.25415,.41235,.10718,.17896,.21216,.36133,.31519,.54761,.07935,.14331,.15747,.28833,.23413,.43579,.10181,.19531,.20044,.39526,.29761,.59814,.07178,.14941,.14307,.29956,.2124,.45312,.0957,.21289,.18823,.4314,.2793,.6521,.06372,.15405,.12793,.30737,.18896,.46533,.09082,.2334,.17725,.47339,.26245,.7146,.05493,.15576,.11108,.30981,.16406,.46875,.02002,.0603,.03784,.12378,.05737,.18457h-10.56494V12.7854Zm-7.51025,2.74292c.11816-.11035,.23511-.22314,.35596-.32715,.11792-.10156,.23975-.19385,.36035-.28931,.1272-.10059,.25269-.20508,.38232-.29883,.11816-.08521,.23999-.1604,.36011-.23999,.13721-.09082,.27271-.18652,.4126-.27002,.10181-.06079,.20728-.11084,.3103-.16772,.30957-.16992,.62549-.32178,.94727-.45581,.1145-.04761,.22705-.10156,.34302-.14453,.14624-.0542,.29639-.09595,.44482-.14282,.13794-.04321,.27417-.09106,.41382-.12817,.1416-.03735,.28638-.06396,.42993-.09497,.1521-.03247,.30298-.06787,.45703-.09302,.13721-.02246,.27686-.03564,.41577-.052,.125-.01489,.25049-.02881,.37695-.03857v10.4646h-10.56519c.01929-.05957,.03662-.12207,.0564-.18115,.0542-.16309,.11182-.32104,.16846-.48096,.08374-.23657,.16821-.47192,.25684-.70093,.06323-.16235,.12915-.32056,.19458-.47876,.08911-.21558,.17944-.4292,.27319-.63721,.07129-.15845,.14453-.31299,.21851-.46704,.09473-.198,.19141-.39307,.29028-.58374,.0791-.15186,.15942-.30103,.24097-.44824,.10034-.1814,.20264-.35889,.30688-.5332,.08667-.14478,.17407-.28784,.26343-.42773,.10522-.16504,.21289-.32544,.32178-.4834,.09424-.13696,.18872-.27344,.28589-.40503,.10962-.14917,.22241-.29272,.33569-.4353,.10181-.12842,.20337-.25732,.30811-.37988,.11353-.1333,.23022-.26001,.34668-.38672,.10986-.11938,.21899-.24048,.33154-.354,.11646-.11768,.23657-.22729,.35571-.33838Zm-.45557-1.61963c-.01855,.01538-.03564,.03369-.05396,.04932-.22925,.19263-.45142,.40039-.67163,.61255-.06299,.06055-.12891,.11499-.19116,.177-.28101,.28125-.55444,.57861-.81958,.8916-.05371,.06323-.10376,.13379-.15674,.19849-.20776,.25317-.41284,.51147-.61011,.78394-.08594,.1189-.16675,.24658-.25073,.36914-.15771,.23022-.31519,.46143-.46582,.70459-.09082,.14624-.17676,.30029-.26465,.45093-.13623,.23364-.27148,.46851-.40088,.71313-.08789,.16553-.17188,.33691-.25659,.50732-.12134,.24438-.24097,.49146-.35596,.74585-.08179,.18066-.16064,.36523-.23901,.55078-.10962,.25952-.21606,.52344-.31909,.79272-.07349,.19214-.14575,.38623-.21582,.58325-.09912,.27832-.1936,.5625-.28589,.85034-.03906,.12207-.08325,.23657-.12109,.36035h-6.11426c2.65723-4.42969,6.86523-7.71143,11.79297-9.34131Z"/><path d="M9.25,42c0,3.66895,.95898,7.16113,2.85156,10.37988l.21777,.37012h10.69238l-.31348-.979c-.95508-2.98193-1.43945-6.26953-1.43945-9.771v-.75H9.25v.75Zm10.51562,.75c.05859,3.00391,.46387,5.85498,1.20996,8.5h-7.79297c-1.49023-2.66016-2.30176-5.51416-2.41797-8.5h9.00098Z"/><path d="M24.77637,52.75h13.97363v-11.5h-15.46289v.75c0,3.65039,.44922,7.08398,1.33398,10.20459l.15527,.54541Zm12.47363-10v8.5h-11.33496c-.69141-2.62549-1.06836-5.47852-1.12109-8.5h12.45605Z"/><path d="M38.74805,27.25h-14.02051l-.1543,.54785c-.87793,3.13428-1.32324,6.56689-1.32324,10.20215v.75h15.49805v-11.5Zm-1.5,10h-12.49121c.05469-2.97852,.43652-5.8916,1.11328-8.5h11.37793v8.5Z"/><path d="M67.90723,52.37793c1.88672-3.23486,2.84277-6.72656,2.84277-10.37793v-.75h-12.03516v.75c0,3.44287-.49414,6.82227-1.42969,9.77344l-.30957,.97656h10.71484l.2168-.37207Zm-8.90137-1.12793c.74121-2.65186,1.14453-5.50293,1.20215-8.5h9.02734c-.11621,2.97266-.92578,5.82666-2.41113,8.5h-7.81836Z"/><path d="M70.75,38c0-3.66895-.95898-7.16113-2.85156-10.37988l-.21777-.37012h-10.69336l.31445,.979c.95605,2.98145,1.44043,6.26855,1.44043,9.771v.75h12.00781v-.75Zm-10.51465-.75c-.05859-3.00439-.46387-5.85547-1.21094-8.5h7.79297c1.49023,2.66016,2.30176,5.51416,2.41797,8.5h-9Z"/><path d="M56.71289,38c0-3.65039-.44922-7.08398-1.33398-10.20459l-.15527-.54541h-13.97363v11.5h15.46289v-.75Zm-13.96289-.75v-8.5h11.33496c.69141,2.62549,1.06836,5.47852,1.12109,8.5h-12.45605Z"/><path d="M55.42676,52.20215c.87793-3.13428,1.32324-6.56689,1.32324-10.20215v-.75h-15.49805v11.5h14.02051l.1543-.54785Zm-1.29688-.95215h-11.37793v-8.5h12.49121c-.05469,2.97852-.43652,5.8916-1.11328,8.5Z"/><path d="M39.71191,68.75h.75v-.02197c8.6189-.25488,16.34912-4.98291,20.20312-12.38135l.57129-1.09668H18.1875l.57129,1.09668c3.854,7.39893,11.58496,12.12695,20.20312,12.38135v.02197h.75Zm11.70508-8.85547c.08398-.18555,.16504-.37524,.24561-.56616,.10742-.25464,.21191-.51343,.31323-.77759,.0752-.19604,.14868-.39404,.22021-.59521,.0979-.2749,.19116-.55518,.28247-.83936,.03955-.12402,.08472-.24048,.12305-.36621h6.11914c-2.65918,4.43164-6.86914,7.71387-11.7998,9.34326,.01953-.01611,.0376-.03564,.05713-.052,.22046-.18555,.43408-.38599,.64648-.5896,.07129-.06836,.14551-.12988,.21582-.2002,.27979-.28027,.552-.57593,.81616-.8877,.05908-.06958,.11401-.14722,.17261-.21875,.2019-.24683,.40161-.4978,.59375-.76318,.08984-.12402,.17432-.25708,.26172-.38525,.15405-.22485,.30762-.4502,.45459-.6875,.09351-.15063,.18237-.30957,.27295-.46533,.1333-.22876,.26587-.45874,.39282-.69824,.09009-.16992,.17651-.3457,.26343-.521,.11865-.23926,.23584-.48096,.34863-.72998Zm-10.95508-3.14453h10.56006c-.01953,.06079-.03735,.12427-.05737,.18457-.05298,.15967-.10962,.31421-.16479,.4707-.08496,.23975-.17065,.47852-.26074,.71045-.06201,.15942-.12646,.31445-.19092,.46997-.09033,.21899-.18213,.43604-.27734,.64746-.07007,.15552-.14209,.30737-.21484,.45874-.0957,.2002-.19336,.39746-.29346,.59033-.07812,.1499-.15771,.29761-.23828,.44336-.10132,.18335-.20508,.36279-.3103,.53906-.08545,.14258-.17163,.28369-.25952,.42139-.10669,.16748-.21582,.33008-.32617,.49023-.09277,.13477-.18579,.2688-.28125,.39844-.11182,.15234-.22656,.29858-.34204,.44385-.09937,.125-.19873,.25098-.30078,.37085-.11646,.13721-.23657,.26733-.3562,.39746-.10693,.11597-.21289,.23364-.32202,.34399-.12036,.12158-.2439,.23486-.36719,.34961-.11426,.1062-.22705,.21558-.34399,.31592-.12329,.10645-.25049,.20312-.37646,.30273-.12183,.09595-.24194,.19629-.36621,.28613-.12573,.09106-.25562,.17139-.38379,.2561-.12939,.08521-.25684,.17578-.38867,.25439-.12451,.07422-.25293,.13672-.37939,.20508-.27515,.14868-.55518,.28296-.84033,.40308-.12769,.05371-.25342,.11353-.38306,.16162-.14209,.05273-.28809,.09326-.43262,.13892-.14136,.04468-.28149,.09399-.42529,.13184-.13965,.03687-.28271,.06323-.42432,.09375-.15332,.03296-.30591,.06885-.46143,.09399-.13647,.02246-.27539,.03564-.41333,.05176-.12549,.01489-.25122,.02881-.37793,.03882v-10.4646Zm-19.75879,0h6.11914c.03833,.12573,.0835,.24219,.12305,.36621,.09131,.28418,.18457,.56445,.28247,.83936,.07153,.20117,.14502,.39917,.22021,.59521,.10132,.26465,.20605,.52368,.31372,.77881,.08008,.18994,.16064,.37842,.24414,.56299,.11377,.25122,.23193,.49512,.35181,.73657,.08569,.17261,.17065,.34619,.25952,.51392,.12939,.2439,.2644,.47827,.40039,.71143,.08765,.15039,.17358,.3042,.26416,.45044,.15186,.24536,.31079,.47876,.47021,.71118,.08228,.12012,.16162,.24561,.24585,.36206,.20776,.28711,.42285,.55981,.64209,.82544,.0415,.05029,.08032,.10547,.12231,.15527,.26709,.31519,.54248,.6145,.82544,.89746,.05249,.05249,.10791,.09814,.16089,.14941,.22974,.2229,.4624,.43921,.70215,.64087,.01758,.01465,.03369,.03198,.05127,.04663-4.92969-1.62939-9.13965-4.91162-11.79883-9.34326Zm17.85059,10.42285c-.12402-.01514-.24927-.02637-.37207-.04639-.18262-.0293-.3623-.07031-.54199-.11035-.11328-.02539-.22803-.04541-.34009-.07495-.19556-.05151-.38721-.11572-.5791-.17969-.09229-.03076-.18652-.05542-.27783-.08911-.27271-.10059-.5415-.21387-.80566-.33984l-.02466-.01025c-.27173-.13062-.53833-.27588-.80054-.43286-.08618-.05151-.1687-.11157-.25366-.16602-.17407-.11133-.34839-.22241-.51782-.34546-.1001-.07251-.19678-.15381-.29517-.23071-.14966-.11646-.2998-.23193-.44531-.35767-.10254-.08838-.20142-.18457-.302-.27734-.13696-.12695-.27441-.25342-.40796-.38843-.1001-.10132-.19702-.20947-.29517-.31543-.12817-.13867-.2561-.27808-.38062-.42456-.09668-.11377-.19067-.23291-.28491-.35156-.12036-.15112-.23999-.30396-.35669-.46265-.09155-.12476-.18115-.25366-.27051-.3833-.11353-.16479-.22583-.33228-.33569-.50439-.08569-.13452-.16943-.27173-.25269-.41064-.10742-.17944-.21289-.36279-.31641-.5498-.0791-.14282-.15698-.28735-.2334-.43457-.10156-.19482-.2002-.39429-.29688-.59668-.07227-.15039-.14404-.30151-.21338-.45605-.09546-.21167-.18726-.4292-.27808-.64844-.06421-.15527-.12866-.30981-.19019-.46875-.09058-.23291-.17676-.47241-.26172-.71313-.05518-.15576-.11133-.31006-.16431-.46899-.02002-.0603-.03784-.12402-.05737-.18481h10.56006v10.4646c-.13696-.0105-.27295-.02539-.4082-.04175Z"/></svg>