<?xml version="1.0" encoding="UTF-8"?><svg id="a" xmlns="http://www.w3.org/2000/svg" viewBox="0 0 80 80"><path d="M25.95703,30.71631c.2334,.02246,.46973,.03369,.70996,.03369v-1.5c-.19141,0-.38086-.00928-.56738-.02686-3.0498-.28955-5.34961-2.82178-5.34961-5.88965,0-3.2627,2.6543-5.91699,5.91699-5.91699,.88867,0,1.75293,.19971,2.56836,.59375,.19043,.09277,.41211,.09912,.60938,.01953,.19629-.08008,.34961-.23975,.42188-.43945,1.48047-4.09131,5.39258-6.84033,9.7334-6.84033,5.37988,0,9.8125,4.03613,10.31152,9.38818,.02539,.27246,.19727,.50928,.44824,.61816,.25293,.1084,.54297,.07178,.75879-.09521,.8623-.66895,1.87402-1.02246,2.92578-1.02246,2.64941,0,4.80566,2.15576,4.80566,4.80566s-2.15625,4.80566-4.80566,4.80566h-.58105v1.5h.58105c3.47656,0,6.30566-2.82861,6.30566-6.30566s-2.8291-6.30566-6.30566-6.30566c-.98242,0-1.93555,.23145-2.80762,.67676-1.07227-5.5293-5.88086-9.56543-11.63672-9.56543-4.70703,0-8.97266,2.82227-10.85156,7.09863-.79883-.28711-1.63086-.43213-2.48145-.43213-4.08984,0-7.41699,3.32715-7.41699,7.41699,0,3.8457,2.88379,7.01953,6.70703,7.38281Z"/><rect x="38" y="35.25" width="8" height="1.5"/><rect x="38" y="27.25" width="8" height="1.5"/><path d="M70,55.25h-16c-.41406,0-.75,.33594-.75,.75v3.25h-7.25c-1.79199,0-3.25-1.45801-3.25-3.25v-15.25h7.25c.41406,0,.75-.33594,.75-.75V24c0-.41406-.33594-.75-.75-.75H30c-.41406,0-.75,.33594-.75,.75v16c0,.41406,.33594,.75,.75,.75h7.25v15.25c0,1.79199-1.45801,3.25-3.25,3.25h-5.25v-6.5h1.25v-1.5H10v1.5h1.25v16.5h-3.25v1.5h24v-1.5h-3.25v-8.5h5.25c2.61914,0,4.75-2.13086,4.75-4.75v-15.25h2.5v15.25c0,2.61914,2.13086,4.75,4.75,4.75h7.25v7.25c0,.41406,.33594,.75,.75,.75h16c.41406,0,.75-.33594,.75-.75v-12c0-.41406-.33594-.75-.75-.75Zm-48.75,14h-2.5v-4.5h2.5v4.5Zm1.5,0v-5.25c0-.41406-.33594-.75-.75-.75h-4c-.41406,0-.75,.33594-.75,.75v5.25h-4.5v-16.5h14.5v16.5h-4.5ZM30.75,24.75h18.5v6.5H30.75v-6.5Zm0,8h18.5v6.5H30.75v-6.5Zm24,28h14.5v2.5h-14.5v-2.5Zm0-4h14.5v2.5h-14.5v-2.5Zm14.5,10.5h-14.5v-2.5h14.5v2.5Z"/><circle cx="34" cy="28" r="1"/><circle cx="34" cy="36" r="1"/></svg>