<?xml version="1.0" encoding="UTF-8"?><svg id="a" xmlns="http://www.w3.org/2000/svg" viewBox="0 0 80 80"><path d="M70.75,58.07275V15.67725c0-1.47607-1.2334-2.67725-2.75-2.67725H12c-1.5166,0-2.75,1.20117-2.75,2.67725v52.32275c0,.41406,.33594,.75,.75,.75h8c.32227,0,.60938-.20654,.71094-.5127l2.49976-7.4873H58.78931l2.49976,7.4873c.10156,.30615,.38867,.5127,.71094,.5127h8c.41406,0,.75-.33594,.75-.75v-9.92725Zm-53.29004,9.17725h-6.70996v-6.80621c.37671,.18921,.79761,.30621,1.25,.30621h7.62939l-2.16943,6.5Zm51.79004,0h-6.70996l-2.16943-6.5h7.62939c.45239,0,.87329-.117,1.25-.30621v6.80621Zm0-11.25v2.07275c0,.64893-.56055,1.17725-1.25,1.17725H12c-.68945,0-1.25-.52832-1.25-1.17725v-5.36621h58.5v3.29346Zm0-4.79346H10.75V15.67725c0-.64893,.56055-1.17725,1.25-1.17725h56c.68945,0,1.25,.52832,1.25,1.17725V51.20654Z"/><path d="M24,36.32715c-.41406,0-.75,.33594-.75,.75v1.4917c0,.41406,.33594,.75,.75,.75s.75-.33594,.75-.75v-1.4917c0-.41406-.33594-.75-.75-.75Z"/><path d="M28,34.34863c-.41406,0-.75,.33594-.75,.75v3.47021c0,.41406,.33594,.75,.75,.75s.75-.33594,.75-.75v-3.47021c0-.41406-.33594-.75-.75-.75Z"/><path d="M32,31.59473c-.41406,0-.75,.33594-.75,.75v7.65527c0,.41406,.33594,.75,.75,.75s.75-.33594,.75-.75v-7.65527c0-.41406-.33594-.75-.75-.75Z"/><path d="M36,34.34863c-.41406,0-.75,.33594-.75,.75v3.47021c0,.41406,.33594,.75,.75,.75s.75-.33594,.75-.75v-3.47021c0-.41406-.33594-.75-.75-.75Z"/><path d="M40,36.33154c-.41406,0-.75,.33594-.75,.75v1.4873c0,.41406,.33594,.75,.75,.75s.75-.33594,.75-.75v-1.4873c0-.41406-.33594-.75-.75-.75Z"/><path d="M44,34.34863c-.41406,0-.75,.33594-.75,.75v3.47021c0,.41406,.33594,.75,.75,.75s.75-.33594,.75-.75v-3.47021c0-.41406-.33594-.75-.75-.75Z"/><path d="M48,31.59473c-.41406,0-.75,.33594-.75,.75v7.65527c0,.41406,.33594,.75,.75,.75s.75-.33594,.75-.75v-7.65527c0-.41406-.33594-.75-.75-.75Z"/><path d="M52,34.34863c-.41406,0-.75,.33594-.75,.75v3.47021c0,.41406,.33594,.75,.75,.75s.75-.33594,.75-.75v-3.47021c0-.41406-.33594-.75-.75-.75Z"/><path d="M56,36.32715c-.41406,0-.75,.33594-.75,.75v1.4917c0,.41406,.33594,.75,.75,.75s.75-.33594,.75-.75v-1.4917c0-.41406-.33594-.75-.75-.75Z"/></svg>