<svg xmlns="http://www.w3.org/2000/svg" viewBox="0 0 80 80"><path d="M40,10.75A29.28292,29.28292,0,0,1,69.25,40h1.5a30.75,30.75,0,0,0-61.5,0h1.5A29.28292,29.28292,0,0,1,40,10.75Z"/><path d="M22,39.25A4.75,4.75,0,1,0,26.75,44a4.70187,4.70187,0,0,0-.44141-1.97119l8.30957-5.53955,2.33667,3.896a4.7501,4.7501,0,1,0,6.09034,0l2.33667-3.896,8.30957,5.53955A4.70187,4.70187,0,0,0,53.25,44,4.75,4.75,0,1,0,58,39.25a4.67707,4.67707,0,0,0-.624.06311L54.06226,28.25916a4.75649,4.75649,0,1,0-6.37085-2.288L40,31.09863l-7.69141-5.12744A4.70187,4.70187,0,0,0,32.75,24a4.75,4.75,0,1,0-6.81226,4.25916L22.624,39.31311A4.67707,4.67707,0,0,0,22,39.25Zm0,8A3.25,3.25,0,1,1,25.25,44,3.25377,3.25377,0,0,1,22,47.25ZM43.25,44A3.25,3.25,0,1,1,40,40.75,3.25377,3.25377,0,0,1,43.25,44ZM58,40.75A3.25,3.25,0,1,1,54.75,44,3.25377,3.25377,0,0,1,58,40.75Zm-2.06226-1.00928a4.75507,4.75507,0,0,0-1.41088,1.04248L46.1543,35.20142l4.07861-6.8003a4.13163,4.13163,0,0,0,2.39111.28577ZM52,20.75A3.25,3.25,0,1,1,48.75,24,3.25377,3.25377,0,0,1,52,20.75Zm-3.47314,6.4668a4.74884,4.74884,0,0,0,.428.398L44.9043,34.36816,41.35205,32Zm-4.395,8.43921-2.36475,3.94287a4.64963,4.64963,0,0,0-3.53418,0L35.86816,35.656,40,32.90137ZM31.47314,27.2168,38.648,32,35.0957,34.36816l-4.05053-6.75341A4.74884,4.74884,0,0,0,31.47314,27.2168ZM24.75,24A3.25,3.25,0,1,1,28,27.25,3.25377,3.25377,0,0,1,24.75,24Zm2.626,4.68689a4.13163,4.13163,0,0,0,2.39111-.28577l4.07861,6.8003L25.47314,40.7832a4.75507,4.75507,0,0,0-1.41088-1.04248Z"/><path d="M32,66.75a2.74452,2.74452,0,0,0,2.63281-2H60v-1.5H34.63281a2.73292,2.73292,0,0,0-5.26562,0H20v1.5h9.36719A2.74452,2.74452,0,0,0,32,66.75Zm0-4A1.25,1.25,0,1,1,30.75,64,1.25116,1.25116,0,0,1,32,62.75Z"/><path d="M48,53.25a2.74452,2.74452,0,0,0-2.63281,2H20v1.5H45.36719a2.73292,2.73292,0,0,0,5.26562,0H60v-1.5H50.63281A2.74452,2.74452,0,0,0,48,53.25Zm0,4A1.25,1.25,0,1,1,49.25,56,1.25116,1.25116,0,0,1,48,57.25Z"/></svg>