<?xml version="1.0" encoding="UTF-8"?><svg id="a" xmlns="http://www.w3.org/2000/svg" viewBox="0 0 80 80"><rect x="19.25" y="34" width="1.5" height="30"/><path d="M30,9.25H10c-.41406,0-.75,.33594-.75,.75v60c0,.41406,.33594,.75,.75,.75H30c.41406,0,.75-.33594,.75-.75V10c0-.41406-.33594-.75-.75-.75Zm-.75,60H10.75V10.75H29.25v58.5Z"/><rect x="44" y="9.25" width="4" height="1.5"/><rect x="50" y="9.25" width="4" height="1.5"/><rect x="56" y="9.25" width="4" height="1.5"/><rect x="38" y="9.25" width="4" height="1.5"/><rect x="62" y="9.25" width="4" height="1.5"/><path d="M70,9.25h-2v1.5h1.25v1.25h1.5v-2c0-.41406-.33594-.75-.75-.75Z"/><rect x="69.25" y="32" width="1.5" height="4"/><rect x="69.25" y="38" width="1.5" height="4"/><rect x="69.25" y="44" width="1.5" height="4"/><rect x="69.25" y="26" width="1.5" height="4"/><rect x="69.25" y="14" width="1.5" height="4"/><rect x="69.25" y="50" width="1.5" height="4"/><rect x="69.25" y="20" width="1.5" height="4"/><rect x="69.25" y="56" width="1.5" height="4"/><rect x="69.25" y="62" width="1.5" height="4"/><path d="M69.25,69.25h-1.25v1.5h2c.41406,0,.75-.33594,.75-.75v-2h-1.5v1.25Z"/><rect x="56" y="69.25" width="4" height="1.5"/><rect x="62" y="69.25" width="4" height="1.5"/><rect x="44" y="69.25" width="4" height="1.5"/><rect x="50" y="69.25" width="4" height="1.5"/><rect x="38" y="69.25" width="4" height="1.5"/><rect x="49.29492" y="44" width="1.5" height="4"/><rect x="49.29492" y="14" width="1.5" height="4"/><rect x="49.29492" y="38" width="1.5" height="4"/><rect x="49.29492" y="26" width="1.5" height="4"/><rect x="49.29492" y="20" width="1.5" height="4"/><rect x="49.29492" y="50" width="1.5" height="4"/><rect x="49.29492" y="32" width="1.5" height="4"/><rect x="49.29492" y="56" width="1.5" height="4"/><rect x="49.29492" y="62" width="1.5" height="4"/><polygon points="32 9.25 32 10.75 34 10.75 36 10.75 36 9.25 34 9.25 32 9.25"/><polygon points="32 69.25 32 70.75 34 70.75 36 70.75 36 69.25 34 69.25 32 69.25"/><circle cx="20" cy="16" r="1"/><circle cx="20" cy="22" r="1"/><circle cx="20" cy="28" r="1"/></svg>