<svg xmlns="http://www.w3.org/2000/svg" viewBox="0 0 80 80"><path d="M25.25,34V46a.7502.7502,0,0,0,.75.75H54a.7502.7502,0,0,0,.75-.75V34a.7502.7502,0,0,0-.75-.75H26A.7502.7502,0,0,0,25.25,34Zm1.5.75h26.5v10.5H26.75Z"/><rect x="38" y="39.25" width="12" height="1.5"/><path d="M58.68262,32.43408c4.05371-6.05273,4.64062-10.17187,1.84765-12.96435-2.76367-2.76368-7.0332-2.13965-13.05468,1.90771l.83789,1.24512c7.09961-4.77393,9.76757-3.48047,11.15625-2.09229,1.38281,1.3833,2.67773,4.03516-2.03321,11.06885Z"/><path d="M21.30078,47.58252c-4.042,6.041-4.624,10.15527-1.83105,12.94775a5.65345,5.65345,0,0,0,4.16308,1.72754c2.34375,0,5.23047-1.18066,8.78418-3.5581l-.834-1.24707c-7.01758,4.69629-9.669,3.40039-11.05274,2.01709S17.85059,55.436,22.54688,48.4165Z"/><path d="M19.46973,19.46973c-2.79785,2.79687-2.19141,6.94043,1.9082,13.04l1.24414-.83692c-4.76855-7.09473-3.47754-9.75732-2.0918-11.14258,1.38672-1.38623,4.04395-2.68506,11.06934,2.01856l.834-1.2461C26.4707,17.31055,22.22852,16.709,19.46973,19.46973Z"/><path d="M58.69922,47.56787l-1.2461.834c4.70313,7.02587,3.40333,9.68164,2.01661,11.06787-1.38086,1.37939-4.0293,2.67041-11.05274-2.03125l-.834,1.24609c3.56054,2.38428,6.45117,3.56738,8.7959,3.56689a5.63687,5.63687,0,0,0,4.15136-1.72119C63.29,57.771,62.69141,53.53125,58.69922,47.56787Z"/><path d="M69.85718,8.969A.14288.14288,0,0,0,70,8.82581V8.14319A.14289.14289,0,0,0,69.85718,8h-3.563a.14289.14289,0,0,0-.14282.14319v5.71362A.14289.14289,0,0,0,66.29419,14h3.563A.14289.14289,0,0,0,70,13.85681v-.68262a.14288.14288,0,0,0-.14282-.14318h-2.6106v-1.6023h2.38037a.1429.1429,0,0,0,.14283-.14319v-.66681a.1429.1429,0,0,0-.14283-.14319H67.24658V8.969Z"/><path d="M40.75,24V11.81055l2.71973,2.71972,1.06054-1.06054-4-4a.74972.74972,0,0,0-1.06054,0l-4,4,1.06054,1.06054L39.25,11.81055V24Z"/><path d="M39.25,56V68.18945l-2.71973-2.71972-1.06054,1.06054,4,4a.74971.74971,0,0,0,1.06054,0l4-4-1.06054-1.06054L40.75,68.18945V56Z"/><path d="M9.46973,40.53027l4,4,1.06054-1.06054L11.81055,40.75H22v-1.5H11.81055l2.71972-2.71973-1.06054-1.06054-4,4A.74972.74972,0,0,0,9.46973,40.53027Z"/><path d="M66.53027,44.53027l4-4a.74972.74972,0,0,0,0-1.06054l-4-4-1.06054,1.06054L68.18945,39.25H58v1.5H68.18945l-2.71972,2.71973Z"/><circle cx="30" cy="40" r="1"/><circle cx="34" cy="40" r="1"/></svg>