<?xml version="1.0" encoding="UTF-8"?><svg id="a" xmlns="http://www.w3.org/2000/svg" viewBox="0 0 80 80"><path d="M62,70.75c.41406,0,.75-.33594,.75-.75V24c0-.19873-.0791-.38965-.21973-.53027l-14-14c-.14062-.14062-.33105-.21973-.53027-.21973H18c-.41406,0-.75,.33594-.75,.75v60c0,.41406,.33594,.75,.75,.75H62ZM48.75,11.81055l11.43945,11.43945h-11.43945V11.81055Zm-30-1.06055h28.5v13.25c0,.41406,.33594,.75,.75,.75h13.25v44.5H18.75V10.75Z"/><path d="M24.75,38.56885v-1.4917c0-.41406-.33594-.75-.75-.75s-.75,.33594-.75,.75v1.4917c0,.41406,.33594,.75,.75,.75s.75-.33594,.75-.75Z"/><path d="M28,39.31885c.41406,0,.75-.33594,.75-.75v-3.47021c0-.41406-.33594-.75-.75-.75s-.75,.33594-.75,.75v3.47021c0,.41406,.33594,.75,.75,.75Z"/><path d="M32,40.75c.41406,0,.75-.33594,.75-.75v-7.65527c0-.41406-.33594-.75-.75-.75s-.75,.33594-.75,.75v7.65527c0,.41406,.33594,.75,.75,.75Z"/><path d="M36,39.31885c.41406,0,.75-.33594,.75-.75v-3.47021c0-.41406-.33594-.75-.75-.75s-.75,.33594-.75,.75v3.47021c0,.41406,.33594,.75,.75,.75Z"/><path d="M40,39.31885c.41406,0,.75-.33594,.75-.75v-1.4873c0-.41406-.33594-.75-.75-.75s-.75,.33594-.75,.75v1.4873c0,.41406,.33594,.75,.75,.75Z"/><path d="M44,39.31885c.41406,0,.75-.33594,.75-.75v-3.47021c0-.41406-.33594-.75-.75-.75s-.75,.33594-.75,.75v3.47021c0,.41406,.33594,.75,.75,.75Z"/><path d="M48,40.75c.41406,0,.75-.33594,.75-.75v-7.65527c0-.41406-.33594-.75-.75-.75s-.75,.33594-.75,.75v7.65527c0,.41406,.33594,.75,.75,.75Z"/><path d="M52,39.31885c.41406,0,.75-.33594,.75-.75v-3.47021c0-.41406-.33594-.75-.75-.75s-.75,.33594-.75,.75v3.47021c0,.41406,.33594,.75,.75,.75Z"/><path d="M56,36.32715c-.41406,0-.75,.33594-.75,.75v1.4917c0,.41406,.33594,.75,.75,.75s.75-.33594,.75-.75v-1.4917c0-.41406-.33594-.75-.75-.75Z"/><rect x="24" y="47.25" width="32" height="1.5"/><rect x="24" y="53.25" width="22" height="1.5"/></svg>