<?xml version="1.0" encoding="UTF-8"?><svg id="a" xmlns="http://www.w3.org/2000/svg" viewBox="0 0 80 80"><path d="M30,43.25c-.68945,0-1.25-.56055-1.25-1.25h-1.5c0,1.25488,.84961,2.3042,2,2.63281v1.76709h1.5v-1.76709c1.15039-.32861,2-1.37793,2-2.63281,0-1.5166-1.2334-2.75-2.75-2.75-.68945,0-1.25-.56055-1.25-1.25s.56055-1.25,1.25-1.25,1.25,.56055,1.25,1.25h1.5c0-1.25488-.84961-2.3042-2-2.63281v-1.76709h-1.5v1.76709c-1.15039,.32861-2,1.37793-2,2.63281,0,1.5166,1.2334,2.75,2.75,2.75,.68945,0,1.25,.56055,1.25,1.25s-.56055,1.25-1.25,1.25Z"/><path d="M10,48.75h9.57422c1.01611,2.02979,2.35498,3.93823,4.0459,5.62939,4.24023,4.24023,9.80957,6.36035,15.37988,6.36035,5.33496,0,10.65625-1.96704,14.82227-5.85669l15.64746,15.64722,1.06055-1.06055-15.64746-15.64722c7.95068-8.51611,7.79785-21.90088-.50293-30.2019-8.48047-8.48047-22.2793-8.48047-30.75977,0-2.23633,2.23657-3.86621,4.8479-4.92285,7.62939H10c-.41406,0-.75,.33594-.75,.75v16c0,.41406,.33594,.75,.75,.75Zm14.68066-24.06885c3.94824-3.94775,9.13379-5.92188,14.31934-5.92188s10.37109,1.97412,14.31934,5.92188c7.89355,7.89551,7.89453,20.74268,0,28.6377-7.89648,7.896-20.74414,7.89502-28.63867,0-.80469-.80469-1.50586-1.67188-2.14648-2.56885h27.46582c.41406,0,.75-.33594,.75-.75V30c0-.41406-.33594-.75-.75-.75H21.26709c.89941-1.6377,2.02783-3.18262,3.41357-4.56885Zm19.87646,24.56885c.33447-2.43237,2.26074-4.35864,4.69287-4.69263v4.69263h-4.69287Zm4.69287-13.80078c-2.43359-.3335-4.36621-2.26514-4.69922-4.69922h4.69922v4.69922Zm-28.71973-4.69922h22.51123c.34912,3.26172,2.94727,5.85913,6.2085,6.2085v6.08301c-3.26123,.34937-5.85938,2.94678-6.2085,6.2085H21.56201c-3.32275-5.65747-3.66797-12.57788-1.03174-18.5Zm-9.78027,2h3.43359c-.31152,1.74365-1.69043,3.12207-3.43359,3.43359v-3.43359Zm0,4.94531c2.5708-.33691,4.6084-2.375,4.94531-4.94531h2.47852c-1.41553,4.74658-1.18018,9.8833,.70508,14.5h-3.18359c-.33691-2.57031-2.37451-4.6084-4.94531-4.94531v-4.60938Zm0,6.12109c1.74316,.31152,3.12207,1.68994,3.43359,3.43359h-3.43359v-3.43359Z"/></svg>