<?xml version="1.0" encoding="UTF-8"?><svg id="a" xmlns="http://www.w3.org/2000/svg" viewBox="0 0 80 80"><path d="M70.75,68v-21c0-2.06787-1.68262-3.75-3.75-3.75h-14.25v-3.25c0-.41406-.33594-.75-.75-.75h-5.25v-2.5h17.25c.41406,0,.75-.33594,.75-.75v-12c0-.41406-.33594-.75-.75-.75H16c-.41406,0-.75,.33594-.75,.75v12c0,.41406,.33594,.75,.75,.75h17.25v2.5h-5.25c-.41406,0-.75,.33594-.75,.75v3.25H12c-1.5166,0-2.75,1.2334-2.75,2.75v22h1.5v-22c0-.68945,.56055-1.25,1.25-1.25h15.25v3.25c0,.41406,.33594,.75,.75,.75h24c.41406,0,.75-.33594,.75-.75v-3.25h14.25c1.24023,0,2.25,1.00928,2.25,2.25v21h1.5ZM46.75,26c0-.68945,.56055-1.25,1.25-1.25h15.25v10.5h-15.25c-.68945,0-1.25-.56055-1.25-1.25v-8Zm-30,9.25v-10.5h28.81445c-.19434,.37671-.31445,.79761-.31445,1.25v8c0,.45239,.12012,.87329,.31445,1.25H16.75Zm28.5,1.5v2.5h-10.5v-2.5h10.5Zm6,10.5H28.75v-6.5h22.5v6.5Z"/><path d="M40,32.75c1.5166,0,2.75-1.2334,2.75-2.75s-1.2334-2.75-2.75-2.75-2.75,1.2334-2.75,2.75,1.2334,2.75,2.75,2.75Zm0-4c.68945,0,1.25,.56055,1.25,1.25s-.56055,1.25-1.25,1.25-1.25-.56055-1.25-1.25,.56055-1.25,1.25-1.25Z"/><circle cx="34" cy="30" r="1"/></svg>