<svg xmlns="http://www.w3.org/2000/svg" viewBox="0 0 80 80"><path d="M20,50.75v-1.5a9.25,9.25,0,0,1,0-18.5,9.1545,9.1545,0,0,1,4.01562.92773.74983.74983,0,0,0,1.03125-.41992,15.9031,15.9031,0,0,1,30.794,3.91455.75047.75047,0,0,0,1.207.52344A7.48766,7.48766,0,0,1,61.667,34.0835a7.59145,7.59145,0,0,1,7.583,7.583A7.34332,7.34332,0,0,1,62,49.25H60v1.5h2a8.82652,8.82652,0,0,0,8.75-9.0835,9.09309,9.09309,0,0,0-9.083-9.083,8.88462,8.88462,0,0,0-4.49023,1.21875,17.40337,17.40337,0,0,0-33.25-3.80127A10.59789,10.59789,0,0,0,20,29.25a10.75,10.75,0,0,0,0,21.5Z"/><path d="M23.25,50a2.74264,2.74264,0,0,0,5.38281.75H32v-1.5H28.63281A2.74264,2.74264,0,0,0,23.25,50Zm4,0A1.25,1.25,0,1,1,26,48.75,1.25116,1.25116,0,0,1,27.25,50Z"/><path d="M56.75,50a2.74264,2.74264,0,0,0-5.38281-.75H48v1.5h3.36719A2.74264,2.74264,0,0,0,56.75,50Zm-4,0A1.25,1.25,0,1,1,54,51.25,1.25116,1.25116,0,0,1,52.75,50Z"/><path d="M40.75,42V38.63293a2.75,2.75,0,1,0-1.5,0V42Zm-2-6A1.25,1.25,0,1,1,40,37.25,1.25116,1.25116,0,0,1,38.75,36Z"/><path d="M39.25,58v3.36707a2.75,2.75,0,1,0,1.5,0V58Zm2,6A1.25,1.25,0,1,1,40,62.75,1.25116,1.25116,0,0,1,41.25,64Z"/><path d="M46.1875,44.87354l2.38062-2.38111a2.77934,2.77934,0,1,0-1.06128-1.05981L45.127,43.813Zm2.82812-5.65674a1.24955,1.24955,0,1,1-.36621.88379A1.24614,1.24614,0,0,1,49.01562,39.2168Z"/><path d="M33.8125,55.12646l-2.38062,2.38111a2.779,2.779,0,1,0,1.06128,1.05969L34.87305,56.187ZM30.98437,60.7832a1.24952,1.24952,0,1,1,.36622-.88379A1.2513,1.2513,0,0,1,30.98437,60.7832Z"/><path d="M47.95508,61.84375a2.74973,2.74973,0,1,0,.613-4.33618L46.1875,55.12646,45.127,56.187l2.37989,2.38037a2.71435,2.71435,0,0,0,.44824,3.27637Zm1.06054-2.82813a1.24955,1.24955,0,1,1-.36621.88379A1.24617,1.24617,0,0,1,49.01562,59.01562Z"/><path d="M32.04492,38.15625a2.76014,2.76014,0,1,0-.613,4.33618l2.38062,2.38111L34.87305,43.813l-2.37989-2.38025a2.71452,2.71452,0,0,0-.44824-3.27649Zm-1.06055,2.82813a1.24952,1.24952,0,1,1,.36622-.88379A1.25131,1.25131,0,0,1,30.98437,40.98438Z"/><path d="M46.0918,49.42822l-5.56153-5.562a.772.772,0,0,0-1.06054,0l-5.56153,5.562a.74973.74973,0,0,0,0,1.06055l5.56153,5.562a.74971.74971,0,0,0,1.06054,0l5.56153-5.562A.74973.74973,0,0,0,46.0918,49.42822ZM40,54.46,35.499,49.9585,40,45.457l4.501,4.50147Z"/></svg>