<?xml version="1.0" encoding="UTF-8"?><svg id="a" xmlns="http://www.w3.org/2000/svg" viewBox="0 0 80 80"><path d="M12,62.75h56c1.5166,0,2.75-1.2334,2.75-2.75V30c0-1.5166-1.2334-2.75-2.75-2.75h-30.24316c-.32861,0-.65088-.1333-.88916-.37158l-4.92334-4.82275c-.51953-.51953-1.20996-.80566-1.94434-.80566H12c-1.5166,0-2.75,1.2334-2.75,2.75V60c0,1.5166,1.2334,2.75,2.75,2.75Zm-1.25-38.75c0-.68945,.56055-1.25,1.25-1.25H30c.3291,0,.65088,.1333,.88916,.37158l4.92334,4.82275c.03638,.03644,.07959,.06268,.11768,.0968l-.01758,.01453-4.82861,4.82812c-.23291,.23291-.55518,.36621-.88379,.36621H12c-.45239,0-.87329,.12024-1.25,.31451v-9.56451Zm0,14v-2c0-.68945,.56055-1.25,1.25-1.25H30.2002c.73438,0,1.4248-.28613,1.94434-.80566l4.82861-4.82812c.23291-.23291,.55518-.36621,.88379-.36621h30.14307c.68945,0,1.25,.56055,1.25,1.25v30c0,.68945-.56055,1.25-1.25,1.25H12c-.68945,0-1.25-.56055-1.25-1.25v-22Z"/></svg>