<?xml version="1.0" encoding="UTF-8"?>
<svg id="Layer_2" data-name="Layer 2" xmlns="http://www.w3.org/2000/svg" viewBox="0 0 61.5 61.5">
  <g id="DO_NOT_TOUCH_Outlines_" data-name="DO NOT TOUCH (Outlines)">
    <g>
      <path d="m58.75,34h-10c-1.52,0-2.75,1.23-2.75,2.75v22c0,1.52,1.23,2.75,2.75,2.75h10c1.52,0,2.75-1.23,2.75-2.75v-22c0-1.52-1.23-2.75-2.75-2.75Zm1.25,24.75c0,.69-.56,1.25-1.25,1.25h-10c-.69,0-1.25-.56-1.25-1.25v-22c0-.69.56-1.25,1.25-1.25h10c.69,0,1.25.56,1.25,1.25v22Z"/>
      <rect x="51.3" y="38" width="4.73" height="1.5"/>
      <path d="m54.37,55.32c-.38-.38-1.04-.38-1.42,0-.09.09-.16.2-.21.32-.05.12-.08.25-.08.38s.03.26.08.39c.05.12.12.23.21.32.19.19.45.29.71.29s.52-.1.71-.29c.18-.19.29-.44.29-.71,0-.13-.03-.26-.08-.38-.05-.12-.12-.23-.21-.32Z"/>
      <path d="m13.42,50.54c1.3-.92,2.96-2.1,3.7-4.3,2.77-.68,4.61-4.17,4.36-6.84-.18-1.9-1.35-3.04-3.14-3.04h-.84v-1.61c0-.41-.34-.75-.75-.75H4.75c-.41,0-.75.34-.75.75v1.61h-.84c-1.79,0-2.97,1.14-3.14,3.04-.25,2.67,1.6,6.16,4.36,6.84.74,2.2,2.4,3.38,3.7,4.3,1.23.87,1.92,1.4,1.92,2.21,0,2.27-2.65,4.58-5.25,4.58-.41,0-.75.34-.75.75v2.67c0,.41.34.75.75.75h12c.41,0,.75-.34.75-.75v-2.67c0-.41-.34-.75-.75-.75-2.6,0-5.25-2.31-5.25-4.58,0-.81.69-1.34,1.92-2.21Zm4.92-12.68c.99,0,1.54.56,1.65,1.67.16,1.77-.94,4.12-2.54,4.98.02-.25.06-.5.06-.77v-5.89h.84Zm-16.82,1.67c.1-1.11.66-1.67,1.65-1.67h.84v5.89c0,.28.04.52.06.77-1.61-.87-2.71-3.21-2.54-4.98Zm14.48,19.25v1.21H5.5v-1.21c2.16-.27,4.2-1.69,5.25-3.47,1.05,1.79,3.09,3.2,5.25,3.47Zm-5.25-7.97c-.49-.57-1.15-1.04-1.8-1.5-1.7-1.2-3.45-2.44-3.45-5.56v-8.25h10.5v8.25c0,3.13-1.75,4.37-3.45,5.56-.65.46-1.31.93-1.8,1.5Z"/>
      <path d="m49.45,16.2s0,0,0,0l-1.68-10.43s-.02-.08-.03-.11c-.63-3.28-3.59-5.65-7.09-5.65-1.76,0-2.83.9-3.68,1.62-.16.13-.31.26-.47.38h-11.5c-.16-.12-.31-.25-.47-.38-.86-.72-1.93-1.62-3.68-1.62-3.5,0-6.46,2.37-7.09,5.65-.01.04-.02.07-.03.11l-1.68,10.44c-.37,2.48,1.42,4.83,3.99,5.23,1.81.29,3.67-.46,4.78-1.98l2.71-4.81c.38-.67.9-.93,1.84-.93h10.17c.85,0,1.89.24,2.28.9l2.9,4.92c.91,1.24,2.41,1.96,3.96,1.96.26,0,.52-.02.78-.06,2.57-.41,4.36-2.76,3.99-5.23Zm-4.23,3.75c-1.27.2-2.56-.31-3.25-1.24l-2.86-4.85c-.61-1.04-1.92-1.64-3.57-1.64h-10.17c-1.48,0-2.51.56-3.15,1.7l-2.66,4.73c-.73.99-2.02,1.51-3.29,1.31-1.79-.28-3-1.83-2.74-3.52l1.67-10.34s.01-.06.02-.08c.46-2.62,2.83-4.52,5.63-4.52,1.21,0,1.91.59,2.72,1.26.25.21.49.41.74.59.13.09.28.14.44.14h12c.16,0,.31-.05.44-.14.25-.18.49-.39.74-.59.81-.68,1.51-1.26,2.72-1.26,2.8,0,5.17,1.9,5.63,4.52,0,.03.01.06.02.09l1.67,10.33c.25,1.69-.95,3.24-2.74,3.53Z"/>
      <polygon points="22.5 4.75 21 4.75 21 7 18.75 7 18.75 8.5 21 8.5 21 10.75 22.5 10.75 22.5 8.5 24.75 8.5 24.75 7 22.5 7 22.5 4.75"/>
      <rect x="29.11" y="6" width="4" height="1.5"/>
      <path d="m39.75,4.75c-1.66,0-3,1.34-3,3s1.34,3,3,3,3-1.34,3-3-1.34-3-3-3Zm0,4.5c-.83,0-1.5-.67-1.5-1.5s.67-1.5,1.5-1.5,1.5.67,1.5,1.5-.67,1.5-1.5,1.5Z"/>
      <path d="m40.04,55.77c-.18.18-.29.44-.29.71s.11.52.29.7c.19.19.45.3.71.3s.52-.11.71-.3c.18-.18.29-.44.29-.7s-.11-.53-.29-.71c-.37-.37-1.04-.38-1.42,0Z"/>
      <path d="m25.85,57.2c-.54-.13-1.07.21-1.19.75-.13.53.21,1.07.75,1.2h0c.07,0,.15.02.22.02.46,0,.87-.31.97-.78.13-.54-.21-1.07-.75-1.19Z"/>
      <path d="m35.65,57.19c-.54.13-.87.66-.75,1.2.11.47.52.78.97.78.08,0,.15-.01.23-.03.54-.12.88-.66.75-1.19-.12-.54-.66-.88-1.2-.76Z"/>
      <circle cx="30.75" cy="58.75" r="1"/>
      <path d="m21.67,56.09c-.02-.06-.05-.12-.09-.17-.03-.05-.08-.11-.12-.15-.1-.09-.2-.17-.33-.22-.37-.15-.81-.06-1.09.22-.04.04-.08.1-.12.15-.04.05-.07.11-.09.17-.03.06-.05.13-.06.19-.01.06-.02.13-.02.19,0,.14.03.26.08.39.05.12.12.23.21.32.19.19.45.3.71.3.13,0,.26-.03.38-.08.13-.05.23-.13.33-.22.09-.09.16-.2.21-.32.06-.13.08-.25.08-.39,0-.06-.01-.13-.02-.19-.01-.06-.03-.13-.06-.19Z"/>
      <path d="m52.37,13.67c.12.05.25.08.38.08s.26-.03.38-.08c.12-.05.23-.12.33-.21.18-.19.29-.45.29-.71s-.11-.52-.29-.71c-.1-.09-.21-.16-.33-.21-.24-.1-.52-.1-.76,0-.12.05-.23.12-.33.21-.18.19-.29.45-.29.71s.11.52.29.71c.1.09.21.16.33.21Z"/>
      <path d="m57.38,26.01c.07.49.5.84.98.84.06,0,.11,0,.16-.01.55-.09.92-.6.83-1.15-.09-.54-.6-.91-1.14-.83-.55.09-.92.6-.83,1.15Z"/>
      <path d="m55.34,17.78c.16,0,.32-.03.47-.11.49-.26.68-.87.42-1.35-.26-.49-.86-.68-1.35-.42-.49.26-.68.86-.42,1.35.18.34.53.53.88.53Z"/>
      <path d="m56.28,21.51c.14.42.53.68.95.68.1,0,.21-.01.31-.05.53-.17.81-.74.64-1.26-.18-.53-.74-.81-1.27-.64-.52.18-.81.74-.63,1.27Z"/>
      <path d="m58.36,29.71c-.12.05-.23.13-.32.22-.1.09-.17.2-.22.32-.05.13-.08.26-.08.39s.03.26.08.38c.05.12.12.23.22.32.18.19.44.3.7.3s.52-.11.71-.3c.19-.18.29-.44.29-.7s-.1-.52-.29-.71c-.09-.09-.2-.17-.33-.22-.24-.1-.52-.1-.76,0Z"/>
      <path d="m2.05,31.34c.1.1.2.17.33.22.12.05.25.08.38.08s.26-.03.38-.08c.12-.05.23-.12.33-.22.09-.09.16-.2.21-.32.05-.12.08-.25.08-.38,0-.14-.03-.26-.08-.39-.05-.12-.12-.23-.21-.32-.1-.09-.21-.17-.33-.22-.24-.1-.52-.1-.76,0-.13.05-.23.13-.33.22-.09.09-.16.2-.21.32-.06.13-.08.25-.08.39,0,.13.02.26.08.38.05.12.12.23.21.32Z"/>
      <path d="m2.98,26.84s.11.01.16.01c.48,0,.91-.35.98-.84.09-.55-.28-1.06-.83-1.15-.54-.08-1.05.29-1.14.83-.09.55.28,1.06.83,1.15Z"/>
      <path d="m5.69,17.67c.15.08.31.11.47.11.36,0,.7-.19.88-.53.26-.49.07-1.09-.42-1.35-.48-.26-1.09-.07-1.35.41-.26.49-.07,1.1.42,1.36Z"/>
      <path d="m3.96,22.14c.1.04.21.05.32.05.41,0,.8-.26.94-.68.18-.53-.11-1.09-.63-1.27-.52-.17-1.09.11-1.26.64-.18.52.11,1.09.63,1.26Z"/>
      <path d="m8.75,13.75c.26,0,.52-.11.71-.29.18-.19.29-.45.29-.71,0-.13-.02-.26-.08-.38-.05-.12-.12-.23-.21-.33-.37-.37-1.05-.37-1.42,0-.09.1-.16.21-.21.33-.05.12-.08.25-.08.38,0,.26.11.52.29.71.19.18.45.29.71.29Z"/>
    </g>
  </g>
</svg>