<?xml version="1.0" encoding="UTF-8"?><svg id="a" xmlns="http://www.w3.org/2000/svg" viewBox="0 0 80 80"><path d="M40,70.73535c7.87402,0,15.74902-2.99707,21.74316-8.9917,11.98926-11.98926,11.98926-31.49805,0-43.4873-11.98828-11.98926-31.49805-11.98926-43.48633,0-11.98926,11.98926-11.98926,31.49805,0,43.4873,5.99414,5.99463,13.86914,8.9917,21.74316,8.9917ZM19.31738,19.31689c11.40527-11.40186,29.96191-11.40283,41.36523,0,5.52441,5.5249,8.56738,12.87012,8.56738,20.68311s-3.04297,15.1582-8.56738,20.68311c-11.40527,11.40381-29.96191,11.40381-41.36523,0-5.52441-5.5249-8.56738-12.87012-8.56738-20.68311s3.04297-15.1582,8.56738-20.68311Z"/><path d="M40,66.75c7.14551,0,13.86328-2.78223,18.91504-7.83496,10.42969-10.42969,10.42969-27.40039,0-37.83008-5.05176-5.05273-11.76953-7.83496-18.91504-7.83496s-13.86328,2.78223-18.91504,7.83496c-10.42969,10.42969-10.42969,27.40039,0,37.83008,5.05176,5.05273,11.76953,7.83496,18.91504,7.83496ZM22.14551,22.14551c4.76855-4.76904,11.10938-7.39551,17.85449-7.39551s13.08594,2.62646,17.85449,7.39551c9.84473,9.84521,9.84473,25.86377,0,35.70898-4.76855,4.76904-11.10938,7.39551-17.85449,7.39551s-13.08594-2.62646-17.85449-7.39551c-9.84473-9.84521-9.84473-25.86377,0-35.70898Z"/><path d="M29.2168,50.7832c-2.88086-2.88037-4.4668-6.70996-4.4668-10.7832s1.58594-7.90283,4.4668-10.7832c2.87988-2.88037,6.70996-4.4668,10.7832-4.4668,3.8208,0,7.41675,1.41107,10.22607,3.9613l-8.89746,8.89172c-.41821-.25269-.90283-.40674-1.42627-.40674-1.53125,0-2.77637,1.24561-2.77637,2.77686s1.24512,2.77686,2.77637,2.77686,2.77734-1.24561,2.77734-2.77686c0-.4621-.12427-.89154-.32471-1.27521l12.17529-12.16766-1.06055-1.06055-2.18286,2.1814c-3.09351-2.83289-7.06567-4.40112-11.28687-4.40112-4.47363,0-8.68066,1.74268-11.84375,4.90625-3.16406,3.16357-4.90625,7.36963-4.90625,11.84375s1.74219,8.68018,4.90625,11.84375l1.06055-1.06055Zm10.68555-9.5332c-.7041,0-1.27637-.57275-1.27637-1.27686s.57227-1.27686,1.27637-1.27686,1.27734,.57275,1.27734,1.27686-.57324,1.27686-1.27734,1.27686Z"/></svg>