<?xml version="1.0" encoding="UTF-8"?>
<svg id="DO_NOT_TOUCH_Outlines_" data-name="DO NOT TOUCH (Outlines)" xmlns="http://www.w3.org/2000/svg" viewBox="0 0 80 80">
  <path d="m64,57.25c-3.47,0-6.33,2.63-6.71,6H22c-6.2,0-11.25-5.05-11.25-11.25s5.05-11.25,11.25-11.25h1.74c.85,2.31,3.08,3.97,5.68,3.97h22.15c2.44,0,4.48-1.7,5.02-3.97h1.41c7.03,0,12.75-5.72,12.75-12.75s-5.72-12.75-12.75-12.75H22.71c-.09-.8-.32-1.55-.66-2.23l3.02-3.02-1.06-1.06-2.78,2.78c-1.24-1.51-3.12-2.47-5.22-2.47-3.72,0-6.75,3.03-6.75,6.75s3.03,6.75,6.75,6.75c3.47,0,6.33-2.63,6.71-6h35.29c6.2,0,11.25,5.05,11.25,11.25s-5.05,11.25-11.25,11.25h-1.28c-.16-2.72-2.39-4.89-5.15-4.89-.74,0-1.46.16-2.13.47-.94-4.38-4.79-7.56-9.39-7.56-3.77,0-7.18,2.23-8.73,5.62-.61-.2-1.25-.31-1.9-.31-3.34,0-6.06,2.72-6.06,6.06,0,.2.01.4.03.59h-1.39c-7.03,0-12.75,5.72-12.75,12.75s5.72,12.75,12.75,12.75h35.29c.37,3.37,3.24,6,6.71,6,3.72,0,6.75-3.03,6.75-6.75s-3.03-6.75-6.75-6.75ZM16,21.25c-2.89,0-5.25-2.35-5.25-5.25s2.36-5.25,5.25-5.25c1.69,0,3.17.81,4.14,2.05l-4.14,4.14-2-2-1.06,1.06,2.53,2.53c.15.15.34.22.53.22s.38-.07.53-.22l4.37-4.37c.22.57.35,1.19.35,1.84,0,2.9-2.36,5.25-5.25,5.25Zm13.43,12.84c.69,0,1.35.15,1.98.46.19.09.41.1.61.02.2-.08.35-.24.42-.44,1.16-3.2,4.22-5.35,7.62-5.35,4.21,0,7.68,3.16,8.07,7.35.03.27.2.51.45.62.25.11.54.07.76-.1.66-.51,1.43-.78,2.24-.78,2.03,0,3.68,1.65,3.68,3.68s-1.65,3.68-3.68,3.68h-22.15c-2.52,0-4.56-2.05-4.56-4.57s2.05-4.56,4.56-4.56Zm34.57,35.16c-2.89,0-5.25-2.36-5.25-5.25s2.36-5.25,5.25-5.25,5.25,2.36,5.25,5.25-2.36,5.25-5.25,5.25Z"/>
</svg>