<?xml version="1.0" encoding="UTF-8"?><svg id="a" xmlns="http://www.w3.org/2000/svg" viewBox="0 0 80 80"><path d="M40,34.75c7.03027,0,12.75-5.71973,12.75-12.75s-5.71973-12.75-12.75-12.75-12.75,5.71973-12.75,12.75,5.71973,12.75,12.75,12.75Zm0-24c6.20312,0,11.25,5.04688,11.25,11.25s-5.04688,11.25-11.25,11.25-11.25-5.04688-11.25-11.25,5.04688-11.25,11.25-11.25Z"/><path d="M15.25,52v20h1.5v-20c0-6.20312,5.04688-11.25,11.25-11.25h24c6.20312,0,11.25,5.04688,11.25,11.25v20h1.5v-20c0-7.03027-5.71973-12.75-12.75-12.75H28c-7.03027,0-12.75,5.71973-12.75,12.75Z"/><path d="M48.38281,46.66113l-.3833,.33984-.3501-.30957c-.9292-.92969-2.16455-1.44141-3.479-1.44141s-2.5498,.51172-3.479,1.44141c-1.91846,1.91797-1.91846,5.04004-.00391,6.9541l6.77832,6.88086c.14062,.14258,.3335,.22363,.53418,.22363s.39355-.08105,.53418-.22363l6.77441-6.87695c1.91846-1.91797,1.91846-5.04004,0-6.95801-.9292-.92969-2.16455-1.44141-3.479-1.44141s-2.5498,.51172-3.44678,1.41113Zm6.86719,3.50977c0,.91309-.35596,1.77148-1.00586,2.42188l-6.24414,6.33887-6.24805-6.34277c-.646-.64648-1.00195-1.50488-1.00195-2.41797,0-.91406,.35596-1.77246,1.00195-2.41895s1.50488-1.00195,2.41846-1.00195,1.77246,.35547,2.45068,1.03223l.88086,.78223c.28418,.25195,.71191,.25195,.99609,0l.91309-.8125c1.29199-1.29297,3.54492-1.29297,4.83691,0,.646,.64648,1.00195,1.50488,1.00195,2.41895Z"/></svg>