<?xml version="1.0" encoding="UTF-8"?><svg id="a" xmlns="http://www.w3.org/2000/svg" viewBox="0 0 80 80"><rect x="34" y="37.25" width="12" height="1.5"/><rect x="34" y="41.25" width="12" height="1.5"/><rect x="34" y="45.25" width="6" height="1.5"/><path d="M68.53223,11.47119c-.1416-.1416-.33301-.22119-.53223-.22119h-8c-.41406,0-.75,.33594-.75,.75v7.68945l-10.25,10.25-4.46973-4.46973c-.14062-.14062-.33105-.21973-.53027-.21973h-14c-.41406,0-.75,.33594-.75,.75v2.18945l-8.5-8.5v-5.68945c0-.19873-.0791-.38965-.21973-.53027l-2-2c-.14062-.14062-.33105-.21973-.53027-.21973H10c-.41406,0-.75,.33594-.75,.75v14c0,.41406,.33594,.75,.75,.75h10c.41406,0,.75-.33594,.75-.75v-4.18945l8.5,8.5v19.37891l-8.5,8.5v-2.18945c0-.19873-.0791-.38965-.21973-.53027l-2-2c-.14062-.14062-.33105-.21973-.53027-.21973H10c-.41406,0-.75,.33594-.75,.75v14c0,.41406,.33594,.75,.75,.75h10c.41406,0,.75-.33594,.75-.75v-7.68945l8.5-8.5v2.18945c0,.41406,.33594,.75,.75,.75h20c.41406,0,.75-.33594,.75-.75v-2.18945l8.5,8.5v7.68945c0,.41406,.33594,.75,.75,.75h10c.41406,0,.75-.33594,.75-.75v-12c0-.19873-.0791-.38965-.21973-.53027l-2-2c-.14062-.14062-.33105-.21973-.53027-.21973h-8c-.41406,0-.75,.33594-.75,.75v4.18945l-8.5-8.5v-17.68945c0-.19873-.0791-.38965-.21973-.53027l-.46973-.46973,9.18945-9.18945v4.18945c0,.41406,.33594,.75,.75,.75h10c.41406,0,.75-.33594,.75-.75V14.01074c0-.19824-.07812-.38818-.21777-.52881l-2-2.01074ZM19.25,25.25H10.75V12.75h6.93945l1.56055,1.56055v10.93945Zm0,42H10.75v-12.5h6.93945l1.56055,1.56055v10.93945ZM44.75,27.81055l3.43945,3.43945h-3.43945v-3.43945Zm4.5,25.43945H30.75V26.75h12.5v5.25c0,.41406,.33594,.75,.75,.75h5.25v20.5Zm11.5,1.5h6.93945l1.56055,1.56055v10.93945h-8.5v-12.5Zm8.5-29.5h-8.5V12.75h6.93848l1.56152,1.57031v10.92969Z"/></svg>