<?xml version="1.0" encoding="UTF-8"?><svg id="a" xmlns="http://www.w3.org/2000/svg" viewBox="0 0 80 80"><path d="M27.25,41.2002v4.7998c0,7.03027,5.71973,12.75,12.75,12.75s12.75-5.71973,12.75-12.75v-15.25h9.25v-1.5H18v1.5h3.25v15.24316h1.5v-15.24316h4.5v10.4502Zm1.5-1.2002v-9.25h22.5v9.32129l-.08984-.0376c-3.98486-1.67432-8.20703-.3623-11.16016,1.12305-1.97119-.9917-4.50781-1.90576-7.16309-1.90576-1.32129,0-2.67285,.22656-3.99707,.78271l-.08984,.0376v-.07129Zm0,1.69849l.6709-.28198c3.60596-1.51465,7.55371-.15723,10.23047,1.24756,.10938,.05713,.229,.08594,.34863,.08594s.23926-.02881,.34863-.08594c2.67627-1.40527,6.62402-2.7627,10.23047-1.24756l.6709,.28198v4.30151c0,6.20312-5.04688,11.25-11.25,11.25s-11.25-5.04688-11.25-11.25v-4.30151Z"/><path d="M40,14.5835c-1.88379,0-3.4165,1.53271-3.4165,3.4165s1.53271,3.4165,3.4165,3.4165,3.4165-1.53271,3.4165-3.4165-1.53271-3.4165-3.4165-3.4165Zm0,5.33301c-1.05664,0-1.9165-.85986-1.9165-1.9165s.85986-1.9165,1.9165-1.9165,1.9165,.85986,1.9165,1.9165-.85986,1.9165-1.9165,1.9165Z"/><path d="M47.56934,16.63623c.60059-.2749,.89014-.94873,.67285-1.56885-.1792-.51025-.40137-.99658-.66064-1.44531-.25977-.44971-.56982-.88525-.92188-1.29492-.42871-.49805-1.15625-.58398-1.69482-.20117-.47705,.34131-1.11377,.37305-1.62012,.08008-.50635-.29248-.79736-.85889-.7417-1.44336,.06348-.66211-.37842-1.25098-1.02832-1.36963-1.05615-.19336-2.12842-.19092-3.18359,.00635-.63086,.11816-1.05859,.70459-.99512,1.36328,.05615,.58447-.23486,1.15137-.74121,1.44385-.50586,.29199-1.14307,.26172-1.62158-.08008-.54004-.38428-1.26123-.30664-1.67773,.18066-.69873,.81494-1.23633,1.7417-1.59717,2.75439-.22168,.62207,.06689,1.29932,.67236,1.57568,.53418,.24365,.87939,.77881,.87939,1.36328,0,.58398-.34521,1.11914-.87939,1.36328-.60059,.2749-.89014,.94873-.67285,1.56885,.1792,.51025,.40137,.99658,.66064,1.44531,.25977,.44971,.56982,.88525,.92188,1.29492,.42871,.49902,1.15674,.58447,1.69482,.20117,.47754-.34082,1.11523-.37207,1.62012-.08008,.50635,.29248,.79736,.85889,.7417,1.44336-.06348,.66211,.37842,1.25098,1.02832,1.36963,.52295,.0957,1.04932,.14355,1.5752,.14355,.5376,0,1.0752-.05029,1.6084-.1499,.62988-.11816,1.05762-.70361,.99561-1.36328-.05664-.58496,.23438-1.15137,.74072-1.44385,.50635-.2915,1.14307-.26074,1.62158,.08008,.53857,.3833,1.25977,.30566,1.67773-.18066,.69873-.81494,1.23633-1.7417,1.59717-2.75439,.22168-.62207-.06689-1.29932-.67236-1.57568-.53418-.24365-.87939-.77881-.87939-1.36328,0-.58398,.34521-1.11914,.87939-1.36328Zm-2.37939,1.36328c0,1.09912,.60791,2.10986,1.56543,2.63232-.26807,.68848-.63623,1.32617-1.09766,1.90137-.93164-.56689-2.11035-.58838-3.0625-.03857s-1.52344,1.58203-1.49707,2.67139c-.72852,.1123-1.46582,.11182-2.19531,.00049,.02588-1.09082-.54639-2.12256-1.49756-2.67139-.9502-.54883-2.12988-.52881-3.06201,.03906-.23584-.29102-.44629-.59521-.62598-.90625s-.33789-.64502-.47217-.99561c.95752-.52246,1.56494-1.53369,1.56494-2.63184,0-1.09912-.60791-2.10986-1.56543-2.63232,.26807-.68848,.63623-1.32617,1.09766-1.90137,.93115,.56689,2.11035,.58838,3.0625,.03857,.95117-.54932,1.52295-1.58105,1.49707-2.67139,.72852-.11279,1.46484-.1123,2.19531-.00049-.02588,1.09082,.54639,2.12256,1.49756,2.67139,.95068,.54883,2.12988,.52881,3.06201-.03906,.23584,.29102,.44629,.59521,.62598,.90625s.33789,.64502,.47217,.99561c-.95752,.52246-1.56494,1.53369-1.56494,2.63184Z"/><path d="M26,62.75h28c5.10059,0,9.25,4.14941,9.25,9.25h1.5c0-5.92773-4.82227-10.75-10.75-10.75H26c-5.92773,0-10.75,4.82227-10.75,10.75h1.5c0-5.10059,4.14941-9.25,9.25-9.25Z"/></svg>