<?xml version="1.0" encoding="UTF-8"?><svg id="a" xmlns="http://www.w3.org/2000/svg" viewBox="0 0 80 80"><path d="M51.22705,63.7124c-.9917,.9917-2.31006,1.5376-3.7124,1.5376h-14.68604c-.73486,0-1.42529,.28613-1.94482,.80566l-3.41406,3.41406,1.06055,1.06055,3.41406-3.41406c.23633-.23633,.55029-.36621,.88428-.36621h14.68604c1.80322,0,3.49805-.70215,4.77295-1.97705l14.22266-14.22266c1.40625-1.40625,1.40625-3.69434,0-5.10059-1.38379-1.38379-3.63623-1.38428-5.02197,.00146l-1.41687,1.42377-.59973-.5683c-1.39062-1.31543-3.55225-1.29932-4.92969,.04736l-6.91675,6.95917c-.20435-.03461-.41113-.06317-.62524-.06317h-14.51465c-1.80322,0-3.49805,.70215-4.77295,1.97705l-14.24268,14.24268,1.06055,1.06055,14.24268-14.24268c.9917-.9917,2.31006-1.5376,3.7124-1.5376h14.51465c1.24072,0,2.25,1.00928,2.25,2.25,0,.48041-.2937,1.0238-.70349,1.45618l-.05383,.05408,.00122,.00116c-.42261,.42529-.95667,.73029-1.42798,.73029l-11.06641,.0083,.00098,1.5,11.06592-.0083c.91553,0,1.85425-.50635,2.55688-1.24121l12.927-12.99023c.7998-.79883,2.09961-.79883,2.89941,0,.82129,.82129,.82129,2.1582,0,2.97949l-14.22266,14.22266Zm-.54663-7.40057c-.1842-.98621-.75244-1.83618-1.54663-2.38873l6.46436-6.50366c.78955-.77393,2.03906-.7832,2.84229-.02344l.57275,.54242-8.33276,8.37341Z"/><path d="M15.99951,35.58838c.90918,0,1.81934-.34668,2.51221-1.03955l1.81335-1.8222,1.02014,.96674c.68701,.6499,1.56201,.97461,2.4375,.97461,.89697,0,1.79492-.34082,2.4917-1.02197l6.85437-6.896h14.38586c1.80322,0,3.49805-.70215,4.77295-1.97705l14.24268-14.24268-1.06055-1.06055-14.24268,14.24268c-.9917,.9917-2.31006,1.5376-3.7124,1.5376h-14.51465c-1.24072,0-2.25-1.00928-2.25-2.25,0-.48041,.2937-1.0238,.70349-1.45618l.05383-.05408-.00122-.00116c.42261-.42529,.95667-.73029,1.42798-.73029l11.06641-.0083-.00098-1.5-11.06592,.0083c-.91553,0-1.85425,.50635-2.55688,1.24121l-12.927,12.99023c-.7998,.79883-2.09961,.79883-2.89941,0-.82129-.82129-.82129-2.1582,0-2.97949l14.22266-14.22266c.9917-.9917,2.31006-1.5376,3.7124-1.5376h14.68604c.73486,0,1.42529-.28613,1.94482-.80566l3.41406-3.41406-1.06055-1.06055-3.41406,3.41406c-.23633,.23633-.55029,.36621-.88428,.36621h-14.68604c-1.80322,0-3.49805,.70215-4.77295,1.97705l-14.22266,14.22266c-1.40625,1.40625-1.40625,3.69434,0,5.10059,.69189,.69189,1.60059,1.03809,2.50977,1.03809Zm13.32007-11.90021c.22217,1.19,1.00891,2.1748,2.07007,2.68402l-6.17139,6.20837c-.79004,.77344-2.03906,.78271-2.8418,.02344l-.99316-.94073,7.93628-7.9751Z"/><path d="M43.82959,33.25c-1.31445,0-2.5498,.51172-3.44678,1.41064l-.3833,.34082-.3501-.31006c-.9292-.92969-2.16455-1.44141-3.479-1.44141s-2.5498,.51172-3.479,1.44141c-.92969,.9292-1.44141,2.16455-1.44141,3.479s.51172,2.5498,1.4375,3.4751l6.77832,6.88086c.14062,.14307,.3335,.22363,.53418,.22363s.39355-.08057,.53418-.22363l6.77441-6.87695c.92969-.9292,1.44141-2.16455,1.44141-3.479s-.51172-2.5498-1.44141-3.479c-.9292-.92969-2.16455-1.44141-3.479-1.44141Zm2.41455,7.34277l-6.24414,6.33838-6.24805-6.34229c-.646-.646-1.00195-1.50488-1.00195-2.41846s.35596-1.77246,1.00195-2.41846,1.50488-1.00195,2.41846-1.00195,1.77246,.35596,2.45068,1.03271l.88086,.78223c.28418,.25195,.71191,.25195,.99609,0l.91309-.81299c1.29199-1.29199,3.54492-1.29199,4.83691,0,.646,.646,1.00195,1.50488,1.00195,2.41846s-.35596,1.77246-1.00586,2.42236Z"/></svg>