<?xml version="1.0" encoding="UTF-8"?><svg id="a" xmlns="http://www.w3.org/2000/svg" viewBox="0 0 80 80"><path d="M64.97314,22.0874l5.55713-5.55713c.21484-.21484,.27832-.53711,.16309-.81738-.11621-.28027-.38965-.46289-.69336-.46289h-4.36133l2.66504-2.65918-1.05859-1.0625-2.49512,2.51001v-4.03833c0-.30371-.18262-.57715-.46289-.69336-.28027-.11426-.60352-.05176-.81738,.16309l-5.55713,5.55713c-5.24268-3.77051-11.41553-5.77686-17.9126-5.77686-16.95605,0-30.75,13.79395-30.75,30.75s13.79395,30.75,30.75,30.75,30.75-13.79395,30.75-30.75c0-6.49707-2.00635-12.66992-5.77686-17.9126Zm-1.28369-.8374h-4.0166l4.46777-4.5h4.04883l-4.5,4.5Zm-.43945-9.43945v3.73682l-4.5,4.52686v-3.76367l4.5-4.5Zm-23.25,57.43945c-16.12891,0-29.25-13.12109-29.25-29.25S23.87109,10.75,40,10.75c6.26611,0,12.21826,1.95679,17.25,5.64062v5.19263l-3.25391,3.27344c-3.76465-3.39771-8.73193-5.48657-14.19043-5.48657-11.70312,0-21.22461,9.52148-21.22461,21.22461,0,11.7041,9.52148,21.22559,21.22461,21.22559s21.22461-9.52148,21.22461-21.22559c0-5.71045-2.27783-10.89111-5.95898-14.70996l3.1123-3.13477h5.42578c3.68408,5.03174,5.64062,10.98389,5.64062,17.25,0,16.12891-13.12109,29.25-29.25,29.25Zm.53223-28.72168l6.35938-6.40527c1.50146,1.7041,2.4209,3.93262,2.4209,6.37695,0,5.3291-4.33496,9.66406-9.66406,9.66406s-9.66504-4.33496-9.66504-9.66406,4.33594-9.66504,9.66504-9.66504c2.34766,0,4.50146,.84326,6.17773,2.24048l-6.3584,6.39624,1.06445,1.05664Zm6.35059-8.51611c-1.95068-1.66528-4.47461-2.67725-7.23438-2.67725-6.15625,0-11.16504,5.00879-11.16504,11.16504s5.00879,11.16406,11.16504,11.16406,11.16406-5.00781,11.16406-11.16406c0-2.85986-1.08984-5.46338-2.86426-7.44092l6.06641-6.11011c3.40723,3.54663,5.51562,8.35083,5.51562,13.64575,0,10.87695-8.84863,19.72559-19.72461,19.72559s-19.72461-8.84863-19.72461-19.72559c0-10.87598,8.84863-19.72461,19.72461-19.72461,5.04639,0,9.64111,1.92114,13.1333,5.0498l-6.05615,6.09229Z"/></svg>