<?xml version="1.0" encoding="UTF-8"?><svg id="a" xmlns="http://www.w3.org/2000/svg" viewBox="0 0 80 80"><path d="M23.25,14v3.25146H12.19043c-1.62012,0-2.93848,1.31885-2.93848,2.93945V61.80908c0,1.62061,1.31836,2.93945,2.93848,2.93945h55.61914c1.62012,0,2.93848-1.31885,2.93848-2.93945V20.19092c0-1.62061-1.31836-2.93945-2.93848-2.93945h-11.05957v-3.25146h-1.5v3.25146H24.75v-3.25146h-1.5Zm46.00195,47.80908c0,.79541-.64746,1.44238-1.44238,1.44238H12.19043c-.79492,0-1.44238-.64697-1.44238-1.44238V28.55908h58.50391V61.80908Zm-14.00195-43.06055v3.25146h1.5v-3.25146h11.05957c.79492,0,1.44238,.64697,1.44238,1.44238v6.86816H10.74805v-6.86816c0-.79541,.64746-1.44238,1.44238-1.44238h11.05957v3.25146h1.5v-3.25146h30.5Z"/><circle cx="20" cy="34" r="1"/><circle cx="30" cy="34" r="1"/><circle cx="40" cy="34" r="1"/><circle cx="50" cy="34" r="1"/><circle cx="60" cy="34" r="1"/><circle cx="20" cy="42" r="1"/><circle cx="30" cy="42" r="1"/><circle cx="40" cy="42" r="1"/><circle cx="50" cy="42" r="1"/><circle cx="60" cy="42" r="1"/><circle cx="20" cy="50" r="1"/><circle cx="30" cy="50" r="1"/><circle cx="40" cy="50" r="1"/><circle cx="50" cy="50" r="1"/><circle cx="60" cy="50" r="1"/><circle cx="20" cy="58" r="1"/><circle cx="30" cy="58" r="1"/><circle cx="40" cy="58" r="1"/><circle cx="50" cy="58" r="1"/><circle cx="60" cy="58" r="1"/></svg>