<?xml version="1.0" encoding="UTF-8"?><svg id="a" xmlns="http://www.w3.org/2000/svg" viewBox="0 0 80 80"><path d="M9.25,70h1.5c0-13.92871,7.58887-28.22308,24.5-29.20483v3.33813c0,.41406,.33594,.75,.75,.75h8c.41406,0,.75-.33594,.75-.75v-3.25h16.57593c.36255,2.26166,2.31177,4,4.67407,4,2.61914,0,4.75-2.13086,4.75-4.75s-2.13086-4.75-4.75-4.75c-2.3623,0-4.31152,1.73834-4.67407,4h-9.20605c12.79968-4.1355,18.63013-16.90167,18.63013-29.3833h-1.5c0,13.92871-7.58887,28.22308-24.5,29.20483v-3.07153c0-.41406-.33594-.75-.75-.75h-8c-.41406,0-.75,.33594-.75,.75v3.1167H18.67407c-.36255-2.26166-2.31177-4-4.67407-4-2.61914,0-4.75,2.13086-4.75,4.75s2.13086,4.75,4.75,4.75c2.3623,0,4.31152-1.73834,4.67407-4h8.82153c-12.5293,4.26624-18.24561,16.8952-18.24561,29.25Zm56.75-33.1167c1.79199,0,3.25,1.45801,3.25,3.25s-1.45801,3.25-3.25,3.25-3.25-1.45801-3.25-3.25,1.45801-3.25,3.25-3.25Zm-29.25,0h6.5v6.5h-6.5v-6.5Zm-22.75,6.3667c-1.79199,0-3.25-1.45801-3.25-3.25s1.45801-3.25,3.25-3.25,3.25,1.45801,3.25,3.25-1.45801,3.25-3.25,3.25Z"/></svg>