<?xml version="1.0" encoding="UTF-8"?><svg id="a" xmlns="http://www.w3.org/2000/svg" viewBox="0 0 80 80"><path d="M9.87598,54.3667l5.58643,9.77722c.0166,.02771,.02734,.0575,.04761,.08301l.07397,.12952c.84375,1.47656,2.42383,2.39355,4.12402,2.39355h14.29199c.41406,0,.75-.33594,.75-.75v-12c0-.41406-.33594-.75-.75-.75h-11.03491l4.71069-8.24414,3.35645,1.79883c.26562,.1416,.59082,.11133,.8252-.07715,.23438-.18945,.33301-.50049,.25-.79004l-4-14c-.1123-.39453-.51953-.625-.91992-.51709l-14,3.85645c-.2959,.08154-.51172,.33496-.5459,.63965s.12012,.59961,.39062,.74463l3.31787,1.77802-6.46338,11.19562c-.8418,1.45752-.8457,3.27051-.01074,4.73193Zm23.37402,.3833v10.5h-13.54199c-1.11182,0-2.14331-.57745-2.73682-1.51031l5.13672-8.98969h11.14209Zm-22.06445-4.36475l6.85059-11.8667,.00366-.01074,.00806-.00977c.02368-.04437,.02759-.09222,.04175-.13861,.01392-.04529,.03564-.08868,.04053-.13483,.00562-.05109-.00562-.10016-.0105-.1507-.00439-.04535-.00122-.09094-.01367-.13464-.01392-.04913-.04297-.09137-.06665-.13684-.02075-.03992-.03442-.08252-.0625-.11847-.03198-.04132-.07788-.07074-.11914-.10516-.03296-.02765-.05737-.06238-.09595-.08466l-.01074-.0036-.00977-.00812-2.34668-1.25732,11.47559-3.16113,3.30859,11.58105-2.4375-1.30615c-.36133-.19189-.80371-.06299-1.00586,.28906l-10.63379,18.61005-4.92285-8.61542c-.57227-1-.56934-2.24023,.00684-3.2373Z"/><path d="M41.25293,32.06934c.0293,.30811,.24316,.56689,.54102,.65186l14,4c.06934,.01953,.13867,.02881,.20605,.02881,.32715,0,.62695-.21436,.7207-.54395l4-14c.08203-.28564-.0127-.59277-.24121-.78271-.23047-.19043-.5498-.22705-.81348-.09473l-3.24805,1.61572-6.61328-11.33789c-.89941-1.5415-2.21484-2.35645-3.80469-2.35645h-12.01465c-1.60938,.00488-2.88379,.81006-3.78809,2.39355l-6.84863,11.98438c-.20215,.354-.08398,.80518,.26562,1.01514l10,6c.35645,.21387,.81641,.09668,1.0293-.25732l5.35645-8.92822,4.94043,8.23389-3.27539,1.6377c-.27734,.13818-.44043,.43213-.41211,.74023Zm-7.50977-3.09814l-8.72754-5.23633,6.48438-11.34717c.55371-.97021,1.22559-1.49023,2.0918-1.61035l5.5332,9.22266-5.38184,8.97119Zm12.5918,1.69971c.1875-.09375,.32715-.26074,.38477-.46143,.05859-.2002,.03125-.41602-.07617-.59521l-5.99316-9.98779-.01562-.02588-5.31055-8.85059h10.67578c1.05566,0,1.87598,.52734,2.50977,1.6123l6.9668,11.94385c.19922,.34082,.62598,.46973,.98145,.29346l2.35352-1.1709-3.32617,11.64404-11.42578-3.26416,2.27539-1.1377Z"/><path d="M70.11328,49.50195l-6.85645-11.87695c-.02417-.04193-.06152-.06921-.09204-.10455-.03247-.03784-.05957-.08118-.0979-.11121-.03687-.02869-.08057-.04266-.12158-.06384-.04443-.02301-.08569-.05188-.13379-.06555-.0459-.01306-.09399-.00977-.1416-.01392-.0481-.00415-.09473-.01532-.14331-.01001s-.09448,.0282-.14209,.04333c-.04492,.01422-.09131,.01782-.13452,.04108l-10.32129,5.58838c-.17578,.0957-.30664,.25732-.3623,.44971-.05664,.19238-.0332,.39893,.06445,.57422l5.16211,9.29736h-8.04297v-3.25c0-.30322-.18262-.57666-.46289-.69287-.2793-.1167-.60254-.05225-.81738,.1626l-10,10c-.29297,.29297-.29297,.76758,0,1.06055l10,10c.14355,.14355,.33496,.21973,.53027,.21973,.09668,0,.19434-.01855,.28711-.05713,.28027-.11621,.46289-.38965,.46289-.69287v-3.25h11.52441c1.70898,0,3.29297-.92383,4.13379-2.41162l5.63086-9.95459,.01758-.03027,.07715-.13818c.82422-1.45703,.81641-3.26318-.02051-4.71338Zm-7.00977,14.09814c-.57617,1.01758-1.66016,1.6499-2.8291,1.6499h-12.27441c-.41406,0-.75,.33594-.75,.75v2.18945l-8.18945-8.18945,8.18945-8.18945v2.18945c0,.41406,.33594,.75,.75,.75h20.1084l-5.00488,8.8501Zm5.8418-10.3501h-10.4375l-5.19824-9.36279,9.01343-4.88,6.49146,11.24475c.53027,.91797,.57422,2.04492,.13086,2.99805Z"/></svg>