<?xml version="1.0" encoding="UTF-8"?><svg id="a" xmlns="http://www.w3.org/2000/svg" viewBox="0 0 80 80"><path d="M39.25,70.73096v.01904h1.5v-.01892c4.00879-.09503,7.89209-.94159,11.5498-2.53967l.6875-.30029-.60059-1.37451-.68652,.2998c-1.78271,.77881-3.62256,1.36786-5.50464,1.7738,1.59692-1.15375,3.09473-2.74963,4.42847-4.75476l.41602-.62451-1.24902-.83105-.41504,.62451c-2.51831,3.78473-5.48804,5.8924-8.62598,6.18616v-14.44055h6v-1.5h-6v-12.5h14.48657c-.03223,2.42413-.21216,4.82361-.55396,7.14062l-.10938,.74219,1.48438,.21826,.10938-.7417c.35156-2.38904,.53711-4.86212,.56958-7.35938h12.49438c-.09473,3.80084-.89893,7.48199-2.41455,10.94971l-.2998,.6875,1.37402,.6001,.30078-.68701c1.59766-3.65802,2.44458-7.54138,2.53955-11.55029h.01904v-1.5h-.01904c-.39478-16.35938-13.62134-29.58612-29.98096-29.98096v-.01904h-1.5v.01904c-16.35962,.39484-29.58618,13.62158-29.98096,29.98096h-.01904v1.5h.01904c.39478,16.35938,13.62134,29.58612,29.98096,29.98096Zm29.98096-31.48096h-12.49121c-.05884-4.46478-.63379-8.69824-1.62671-12.5h10.95068c1.92505,3.77112,3.05347,8.01044,3.16724,12.5Zm-3.98804-14h-10.55029c-1.87158-6.25806-4.896-11.1911-8.5437-13.84418,8.12817,1.74628,15.0083,6.87891,19.09399,13.84418Zm-24.49292-14.4635c5.29126,.49402,9.87988,6.18701,12.41089,14.4635h-12.41089V10.7865Zm0,15.9635h12.83887c1.00342,3.77112,1.5918,8.01044,1.65112,12.5h-14.48999v-12.5ZM14.75708,54.75h10.55029c1.87158,6.25806,4.896,11.1911,8.5437,13.84418-8.12793-1.74628-15.0083-6.87891-19.09399-13.84418Zm24.49292,14.4635c-5.29126-.49402-9.87988-6.18701-12.41089-14.4635h12.41089v14.4635Zm0-15.9635h-12.83887c-1.00342-3.77112-1.5918-8.01044-1.65112-12.5h14.48999v12.5Zm0-14h-14.48999c.05933-4.48956,.64771-8.72888,1.65112-12.5h12.83887v12.5Zm0-14h-12.41089c2.53101-8.27649,7.11963-13.96948,12.41089-14.4635v14.4635Zm-5.39893-13.84418c-3.64771,2.65308-6.67212,7.58612-8.5437,13.84418H14.75708c4.08569-6.96527,10.96606-12.0979,19.09399-13.84418ZM13.93628,26.75h10.95068c-.99292,3.80176-1.56787,8.03522-1.62671,12.5H10.76904c.11377-4.48956,1.24219-8.72888,3.16724-12.5Zm9.32397,14c.05884,4.46478,.63379,8.69824,1.62671,12.5H13.93628c-1.92505-3.77112-3.05347-8.01044-3.16724-12.5h12.49121Z"/><path d="M70.53027,67.46973l-5.35352-5.35303,5.23926-3.49268c.22656-.15088,.35352-.41309,.33203-.68457-.02246-.27148-.18945-.50977-.4375-.62207l-22-10c-.28223-.12842-.61914-.06885-.84082,.15234-.2207,.22119-.28223,.55615-.15234,.84082l10,22c.1123,.24756,.35059,.41504,.62207,.43701,.02051,.00146,.04102,.00244,.06055,.00244,.24902,0,.48438-.12451,.62402-.33398l3.49219-5.23877,5.35352,5.35303c.29297,.29297,.76758,.29297,1.06055,0l2-2c.29297-.29297,.29297-.76758,0-1.06055Zm-2.53027,1.46973l-5.46973-5.46973c-.1416-.1416-.33203-.21973-.53027-.21973-.02441,0-.04883,.00098-.07422,.00342-.22363,.02246-.4248,.14355-.5498,.33057l-3.25195,4.87744-8.61328-18.95117,18.9502,8.61426-4.87695,3.25146c-.18652,.12451-.30859,.32666-.33008,.55029-.02246,.22363,.05664,.44531,.21582,.604l5.46973,5.46973-.93945,.93945Z"/></svg>