<?xml version="1.0" encoding="UTF-8"?><svg id="a" xmlns="http://www.w3.org/2000/svg" viewBox="0 0 80 80"><path d="M58.74512,35.99463c0-10.33594-8.40918-18.74463-18.74512-18.74463s-18.74512,8.40869-18.74512,18.74463,8.40918,18.74512,18.74512,18.74512,18.74512-8.40918,18.74512-18.74512Zm-25.06531-16.02881c-1.76636,1.72864-3.15735,4.21729-4.05872,7.28418h-4.4585c1.9425-3.28259,4.93298-5.86566,8.51721-7.28418Zm-9.30774,8.78418h4.85522c-.45239,1.97717-.71045,4.15753-.75684,6.49463h-5.67749c.1001-2.31219,.65247-4.50415,1.5791-6.49463Zm-1.5791,7.99463h5.67773c.04712,2.34119,.30566,4.52545,.75977,6.50537h-4.85327c-.92969-1.99341-1.48389-4.18903-1.58423-6.50537Zm2.37622,8.00537h4.45605c.90198,3.06281,2.29224,5.54791,4.05688,7.27472-3.58142-1.41681-6.56995-3.99646-8.51294-7.27472Zm14.08081,8.43103c-3.57349-.39362-6.46631-3.57312-8.02881-8.43103h8.02881v8.43103Zm0-9.93103h-8.4552c-.4895-1.96478-.77332-4.15363-.82458-6.50537h9.27979v6.50537Zm0-8.00537h-9.28003c.05078-2.34729,.33301-4.53265,.82056-6.49463h8.45947v6.49463Zm0-7.99463h-8.03394c1.56152-4.86383,4.45679-8.04755,8.03394-8.44135v8.44135Zm16.3728,16h-4.85327c.4541-1.97992,.71265-4.16418,.75977-6.50537h5.67773c-.10034,2.31635-.65454,4.51196-1.58423,6.50537Zm1.58423-8.00537h-5.67749c-.04639-2.3371-.30432-4.51746-.75671-6.49463h4.8551c.92664,1.99048,1.479,4.18243,1.5791,6.49463Zm-2.36963-7.99463h-4.4585c-.90137-3.06689-2.29236-5.55554-4.05872-7.28418,3.58423,1.41852,6.57471,4.00159,8.51721,7.28418Zm-14.0874-8.44135c3.57715,.3938,6.47241,3.57751,8.03394,8.44135h-8.03394v-8.44135Zm0,9.94135h8.45947c.48755,1.96198,.76978,4.14734,.82056,6.49463h-9.28003v-6.49463Zm0,7.99463h9.27979c-.05127,2.35175-.33508,4.54059-.82458,6.50537h-8.4552v-6.50537Zm0,16.4364v-8.43103h8.02881c-1.5625,4.85791-4.45532,8.03741-8.02881,8.43103Zm5.56787-1.15631c1.76465-1.72681,3.15491-4.21191,4.05688-7.27472h4.45605c-1.94299,3.27826-4.93152,5.85791-8.51294,7.27472Z"/><path d="M13.3125,34.15625c-.76953,11.46533,5.82129,22.13184,16.39844,26.54346l.57812-1.38477c-9.98535-4.16406-16.20605-14.23389-15.48047-25.05811,.84375-12.58545,10.97559-22.66943,23.56836-23.45605,6.90234-.43213,13.50098,1.87744,18.5918,6.50049,5.09863,4.62988,8.03418,10.96143,8.2666,17.82861,.02441,.72314,.19043,1.39746,.49316,2.00488l2.70605,5.41162c.14941,.29883,.17383,.6377,.06836,.95459-.10547,.31641-.32812,.57324-.62695,.72266l-2.21094,1.10547c-.25488,.12695-.41504,.38672-.41504,.6709v8c0,5.10059-4.14941,9.25-9.25,9.25h-6v1.5h3.25v7.25h1.5v-7.25h1.25c5.92773,0,10.75-4.82227,10.75-10.75v-7.53662l1.7959-.89795c.65723-.32861,1.14746-.89355,1.37988-1.59033s.17871-1.44238-.14941-2.09961l-2.70605-5.41113c-.20605-.4126-.31836-.87793-.33496-1.38477-.24707-7.27637-3.35742-13.98438-8.75879-18.88867-5.39355-4.89795-12.38867-7.34912-19.69336-6.88721-13.3418,.8335-24.07715,11.51807-24.9707,24.85254Z"/></svg>