<?xml version="1.0" encoding="UTF-8"?><svg id="a" xmlns="http://www.w3.org/2000/svg" viewBox="0 0 80 80"><path d="M62.66113,56.75h.00098c2.06738,0,3.92969-1.15771,4.86035-3.02148,2.37891-4.75928,3.47852-10.11621,3.17871-15.49219-.87891-15.71533-13.89844-28.43945-29.6416-28.96826-8.35059-.29004-16.27148,2.73633-22.29883,8.49609-6.03223,5.76318-9.40918,13.52686-9.50879,21.86133-.20215,16.93848,13.40527,30.8999,30.33496,31.12207,.13965,.00195,.27832,.00244,.41797,.00244,6.71582,0,13.08691-2.12207,18.44824-6.15039l-.90039-1.19922c-5.20605,3.91016-11.3623,5.95166-17.94629,5.84717-16.10352-.21143-29.04688-13.4917-28.85449-29.60449,.09473-7.92725,3.30664-15.3125,9.04492-20.79443,5.73438-5.47852,13.27539-8.34082,21.21191-8.08154,14.97461,.50293,27.35938,12.60547,28.19434,27.55273,.28516,5.11572-.75977,10.21191-3.02246,14.73828-.67578,1.35205-2.02344,2.19189-3.51855,2.19189h-.00098c-2.15625,0-3.91113-1.75439-3.91113-3.91064V24h-1.5v8.65839c-2.8623-6.69995-9.51562-11.40839-17.25-11.40839-10.33887,0-18.75,8.41113-18.75,18.75s8.41113,18.75,18.75,18.75c7.73438,0,14.3877-4.70844,17.25-11.40839v3.99774c0,2.9834,2.42773,5.41064,5.41113,5.41064Zm-22.66113,.5c-9.51172,0-17.25-7.73828-17.25-17.25s7.73828-17.25,17.25-17.25,17.25,7.73828,17.25,17.25-7.73828,17.25-17.25,17.25Z"/></svg>