<?xml version="1.0" encoding="UTF-8"?><svg id="a" xmlns="http://www.w3.org/2000/svg" viewBox="0 0 80 80"><path d="M49.33594,45c0,4.27344,3.43799,7.75,7.66406,7.75s7.66406-3.47656,7.66406-7.75-3.43799-7.75-7.66406-7.75-7.66406,3.47656-7.66406,7.75Zm13.82812,0c0,3.44629-2.76514,6.25-6.16406,6.25s-6.16406-2.80371-6.16406-6.25,2.76514-6.25,6.16406-6.25,6.16406,2.80371,6.16406,6.25Z"/><path d="M70.75,72v-10c0-3.72217-3.25244-6.75-7.25-6.75h-13c-3.99756,0-7.25,3.02783-7.25,6.75v10h1.5v-10c0-2.89502,2.57959-5.25,5.75-5.25h13c3.17041,0,5.75,2.35498,5.75,5.25v10h1.5Z"/><path d="M23,52.75c4.22607,0,7.66406-3.47656,7.66406-7.75s-3.43799-7.75-7.66406-7.75-7.66406,3.47656-7.66406,7.75,3.43799,7.75,7.66406,7.75Zm0-14c3.39893,0,6.16406,2.80371,6.16406,6.25s-2.76514,6.25-6.16406,6.25-6.16406-2.80371-6.16406-6.25,2.76514-6.25,6.16406-6.25Z"/><path d="M10.75,62c0-2.89502,2.57959-5.25,5.75-5.25h13c3.17041,0,5.75,2.35498,5.75,5.25v10h1.5v-10c0-3.72217-3.25244-6.75-7.25-6.75h-13c-3.99756,0-7.25,3.02783-7.25,6.75v10h1.5v-10Z"/><path d="M31.70557,36.58838c.09326,.04688,.19385,.06982,.29443,.06982,.13965,0,.27881-.04492,.39502-.13184l7.82422-5.86816h11.33643c2.81348,0,5.10254-2.16455,5.10254-4.82471V14.1665c0-2.66016-2.28906-4.82471-5.10254-4.82471H28.44434c-2.81348,0-5.10254,2.16455-5.10254,4.82471v11.66699c0,2.66016,2.28906,4.82471,5.10254,4.82471h2.89746v5.3418c0,.24902,.14111,.47705,.36377,.58838Zm-3.26123-7.24658c-2.08789,0-3.78613-1.57373-3.78613-3.5083V14.1665c0-1.93457,1.69824-3.5083,3.78613-3.5083h23.11133c2.08789,0,3.78613,1.57373,3.78613,3.5083v11.66699c0,1.93457-1.69824,3.5083-3.78613,3.5083h-11.55566c-.14258,0-.28076,.04639-.39502,.13184l-6.94678,5.21045v-4.68408c0-.36328-.29492-.6582-.6582-.6582h-3.55566Z"/></svg>