<?xml version="1.0" encoding="UTF-8"?><svg id="a" xmlns="http://www.w3.org/2000/svg" viewBox="0 0 80 80"><path d="M40,44.75c4.82471,0,8.75-3.92529,8.75-8.75s-3.92529-8.75-8.75-8.75-8.75,3.92529-8.75,8.75,3.92529,8.75,8.75,8.75Zm0-16c3.99756,0,7.25,3.25244,7.25,7.25s-3.25244,7.25-7.25,7.25-7.25-3.25244-7.25-7.25,3.25244-7.25,7.25-7.25Z"/><path d="M52.75,54c0-3.72217-3.02783-6.75-6.75-6.75h-12c-3.72217,0-6.75,3.02783-6.75,6.75v18h1.5v-18c0-2.89502,2.35498-5.25,5.25-5.25h12c2.89502,0,5.25,2.35498,5.25,5.25v18h1.5v-18Z"/><path d="M35.3877,20.49951c.07617,.04346,1.8623,1.09766,1.8623,3.50049,0,.41406,.33594,.75,.75,.75h4c.41406,0,.75-.33594,.75-.75,0-2.40283,1.78613-3.45703,1.85791-3.49854,.05615-.03125,.1084-.06934,.1543-.11426,1.28223-1.23193,1.98779-2.87256,1.98779-4.61914s-.70557-3.38721-1.9873-4.61914c-1.27344-1.22461-2.96484-1.89893-4.7627-1.89893s-3.48926,.67432-4.76221,1.89893c-1.28223,1.23193-1.98779,2.87256-1.98779,4.61914s.70557,3.38721,1.98779,4.61914c.04395,.04248,.09717,.08154,.1499,.1123Zm.88965-8.26953c.99219-.95459,2.31445-1.47998,3.72266-1.47998s2.73047,.52539,3.72314,1.47998c.98438,.94678,1.52686,2.20312,1.52686,3.53809,0,1.30859-.521,2.54199-1.46973,3.48193-.43945,.27686-2.18262,1.52197-2.48535,4h-.54492v-6.5h1.25v-1.5h-4v1.5h1.25v6.5h-.54492c-.30273-2.47803-2.0459-3.72314-2.48535-4-.94873-.93994-1.46973-2.17334-1.46973-3.48193,0-1.33496,.54248-2.59131,1.52734-3.53809Z"/><path d="M13.25,45c0,3.17041,2.57959,5.75,5.75,5.75s5.75-2.57959,5.75-5.75-2.57959-5.75-5.75-5.75-5.75,2.57959-5.75,5.75Zm10,0c0,2.34326-1.90674,4.25-4.25,4.25s-4.25-1.90674-4.25-4.25,1.90674-4.25,4.25-4.25,4.25,1.90674,4.25,4.25Z"/><path d="M10.75,59c0-2.34326,1.90674-4.25,4.25-4.25h9v-1.5H15c-3.17041,0-5.75,2.57959-5.75,5.75v13h1.5v-13Z"/><path d="M61,39.25c-3.17041,0-5.75,2.57959-5.75,5.75s2.57959,5.75,5.75,5.75,5.75-2.57959,5.75-5.75-2.57959-5.75-5.75-5.75Zm0,10c-2.34326,0-4.25-1.90674-4.25-4.25s1.90674-4.25,4.25-4.25,4.25,1.90674,4.25,4.25-1.90674,4.25-4.25,4.25Z"/><path d="M70.75,72v-13c0-3.17041-2.57959-5.75-5.75-5.75h-9v1.5h9c2.34326,0,4.25,1.90674,4.25,4.25v13h1.5Z"/></svg>