<?xml version="1.0" encoding="UTF-8"?><svg id="a" xmlns="http://www.w3.org/2000/svg" viewBox="0 0 80 80"><path d="M48.01367,9.25h-16c-.41406,0-.75,.33594-.75,.75v3.25h-11.25c-1.5166,0-2.75,1.2334-2.75,2.75v52c0,1.5166,1.2334,2.75,2.75,2.75H60.01367c1.5166,0,2.75-1.2334,2.75-2.75V16c0-1.5166-1.2334-2.75-2.75-2.75h-11.25v-3.25c0-.41406-.33594-.75-.75-.75Zm-15.25,1.5h14.5v4.5h-14.5v-4.5Zm27.25,4c.68945,0,1.25,.56055,1.25,1.25v52c0,.68945-.56055,1.25-1.25,1.25H20.01367c-.68945,0-1.25-.56055-1.25-1.25V16c0-.68945,.56055-1.25,1.25-1.25h11.25v1.25c0,.41406,.33594,.75,.75,.75h16c.41406,0,.75-.33594,.75-.75v-1.25h11.25Z"/><path d="M37.26367,30c0,4.82471,3.9248,8.75,8.75,8.75s8.75-3.92529,8.75-8.75-3.9248-8.75-8.75-8.75-8.75,3.92529-8.75,8.75Zm16,0c0,3.99756-3.25195,7.25-7.25,7.25s-7.25-3.25244-7.25-7.25,3.25195-7.25,7.25-7.25,7.25,3.25244,7.25,7.25Z"/><path d="M42.76367,30h-1.5c0,2.61914,2.13086,4.75,4.75,4.75s4.75-2.13086,4.75-4.75h-1.5c0,1.79199-1.45801,3.25-3.25,3.25s-3.25-1.45801-3.25-3.25Z"/><path d="M46.01367,45.25c-4.8252,0-8.75,3.92529-8.75,8.75s3.9248,8.75,8.75,8.75,8.75-3.92529,8.75-8.75-3.9248-8.75-8.75-8.75Zm0,16c-3.99805,0-7.25-3.25244-7.25-7.25s3.25195-7.25,7.25-7.25,7.25,3.25244,7.25,7.25-3.25195,7.25-7.25,7.25Z"/><path d="M46.01367,53.25c-2.61914,0-4.75,2.13086-4.75,4.75h1.5c0-1.79199,1.45801-3.25,3.25-3.25s3.25,1.45801,3.25,3.25h1.5c0-2.61914-2.13086-4.75-4.75-4.75Z"/><path d="M32.01367,25.25h-8c-.41406,0-.75,.33594-.75,.75v8c0,.41406,.33594,.75,.75,.75h8c.41406,0,.75-.33594,.75-.75v-8c0-.41406-.33594-.75-.75-.75Zm-.75,8h-6.5v-6.5h6.5v6.5Z"/><path d="M32.01367,49.25h-8c-.41406,0-.75,.33594-.75,.75v8c0,.41406,.33594,.75,.75,.75h8c.41406,0,.75-.33594,.75-.75v-8c0-.41406-.33594-.75-.75-.75Zm-.75,8h-6.5v-6.5h6.5v6.5Z"/></svg>