<?xml version="1.0" encoding="UTF-8"?><svg id="a" xmlns="http://www.w3.org/2000/svg" viewBox="0 0 80 80"><path d="M12,43.25c-.41406,0-.75,.33594-.75,.75v26c0,.41406,.33594,.75,.75,.75h26c.41406,0,.75-.33594,.75-.75v-26c0-.41406-.33594-.75-.75-.75H12Zm25.25,26H12.75v-24.5h24.5v24.5Z"/><path d="M57.03369,70.75c7.56299,0,13.71631-6.15332,13.71631-13.71631,0-7.56348-6.15332-13.7168-13.71631-13.7168-7.56348,0-13.7168,6.15332-13.7168,13.7168,0,7.56299,6.15332,13.71631,13.7168,13.71631Zm0-25.93311c6.73633,0,12.21631,5.48047,12.21631,12.2168s-5.47998,12.21631-12.21631,12.21631-12.2168-5.47998-12.2168-12.21631,5.48047-12.2168,12.2168-12.2168Z"/><path d="M54.63818,38.39453c.13623-.22119,.14893-.49756,.03271-.72998l-14-28c-.25391-.50781-1.08789-.50781-1.3418,0l-14,28c-.11621,.23242-.10352,.50879,.03271,.72998,.13672,.2207,.37842,.35547,.63818,.35547h28c.25977,0,.50146-.13477,.63818-.35547Zm-27.4248-1.14453l12.78662-25.57275,12.78662,25.57275H27.21338Z"/></svg>