<?xml version="1.0" encoding="UTF-8"?><svg id="a" xmlns="http://www.w3.org/2000/svg" viewBox="0 0 80 80"><path d="M47.95166,10.30518C31.57275,5.91943,14.6792,15.6709,10.29004,32.04834l1.44922,.38867C15.91309,16.85791,31.98486,7.57812,47.56299,11.75439c7.54688,2.02197,13.85449,6.86182,17.76074,13.62793,3.90674,6.7666,4.94434,14.64893,2.92188,22.19531l1.44922,.38867c2.12598-7.93408,1.03516-16.2207-3.07178-23.33398s-10.73779-12.20117-18.67139-14.32715Z"/><path d="M46.39844,16.10059c-6.38525-1.71094-13.05615-.83252-18.78125,2.47266-5.72498,3.3056-9.82007,8.64294-11.53113,15.02838l-.00012-.00006c-.83936,3.13281-3.19971,5.55469-6.31299,6.47803l.42676,1.43848c3.61719-1.07324,6.35938-3.8877,7.33545-7.52783,1.60693-5.99902,5.4541-11.0127,10.83252-14.11768,5.37842-3.10596,11.64404-3.93018,17.64209-2.32275,5.99902,1.60742,11.0127,5.45459,14.11768,10.83252,3.10547,5.37842,3.93018,11.64404,2.32275,17.64258-2.00977,7.50098-5.43408,14.37891-10.17676,20.44238l1.18164,.92383c4.86768-6.22314,8.38135-13.28076,10.44434-20.97754,1.71094-6.38574,.83301-13.05566-2.47266-18.78125-3.30566-5.7251-8.64258-9.82031-15.02832-11.53174Z"/><path d="M23.33057,35.54297c1.19238-4.45068,4.04639-8.1709,8.03711-10.47461,3.98975-2.30371,8.63916-2.91699,13.08936-1.72314,9.1875,2.46191,14.65967,11.93945,12.19775,21.12646-2.59473,9.68457-7.90381,18.31494-15.35352,24.9585l.99805,1.11914c7.66895-6.83838,13.13379-15.72168,15.80469-25.68896,2.67529-9.98633-3.27197-20.28809-13.2583-22.96436-4.83936-1.2959-9.89111-.63037-14.22803,1.87354-4.3374,2.50391-7.43994,6.54736-8.73633,11.38477-1.45947,5.44727-5.78076,9.62793-11.27783,10.91064l.34082,1.46094c6.03711-1.40869,10.7832-6.00049,12.38623-11.98291Z"/><path d="M51.03418,33.63281c-1.70264-2.94971-4.45215-5.05908-7.7417-5.94092-3.29199-.88086-6.72656-.4292-9.6748,1.27393-2.94971,1.70264-5.05908,4.45215-5.94092,7.7417-1.9707,7.35547-7.77539,13.12695-15.14844,15.06201l.38086,1.45117c7.89258-2.07227,14.10645-8.25049,16.2168-16.12451,.77783-2.90283,2.63916-5.3291,5.2417-6.83154,2.60205-1.50293,5.63379-1.90234,8.53613-1.12354,2.90283,.77783,5.3291,2.63916,6.83154,5.2417,1.50244,2.60205,1.90137,5.63379,1.12354,8.53613-2.80176,10.45654-9.26318,19.56982-18.19385,25.66064l.84473,1.23926c9.22754-6.29297,15.90332-15.7085,18.79834-26.51123,.88135-3.28955,.4292-6.72559-1.27393-9.6748Z"/><path d="M15.63086,57.10791l.46777,1.4248c9.2655-3.04291,16.302-10.47595,18.82263-19.88385l.00012,.00006c.74951-2.79639,3.63135-4.46191,6.43018-3.7124,1.35449,.36279,2.48633,1.23145,3.1875,2.4458s.8877,2.62939,.52441,3.98389c-2.80371,10.46436-9.89795,19.38916-19.46387,24.48535l.70508,1.32422c9.93164-5.2915,17.29688-14.55713,20.20801-25.4209,.4668-1.7417,.22705-3.56104-.67432-5.12256-.90186-1.56152-2.35742-2.67822-4.09863-3.14502-1.73975-.46582-3.56055-.22656-5.12207,.67432-1.56152,.90186-2.67871,2.35742-3.14551,4.09863l.72461,.19434-.72461-.19385c-2.38867,8.91699-9.05859,15.9624-17.84131,18.84717Z"/><path d="M39.26807,39.81299c-2.71143,10.12109-9.83594,18.20459-19.5459,22.17822l.56836,1.38867c10.14697-4.15283,17.59229-12.60107,20.42676-23.17822l-1.44922-.38867Z"/></svg>