<?xml version="1.0" encoding="UTF-8"?><svg id="a" xmlns="http://www.w3.org/2000/svg" viewBox="0 0 80 80"><path d="M24,65.25c-.41406,0-.75,.33594-.75,.75v4c0,.41406,.33594,.75,.75,.75H56c.41406,0,.75-.33594,.75-.75v-4c0-.41406-.33594-.75-.75-.75-7.30566,0-13.25-5.94385-13.25-13.25v-3.60083c4.8833-1.21362,9.23438-5.60547,12.43506-12.0293,7.24268-4.62988,11.56494-12.23303,11.56494-20.36987,0-.41406-.33594-.75-.75-.75h-5.44556c.12524-1.71826,.19556-3.46863,.19556-5.25,0-.41406-.33594-.75-.75-.75H20c-.41406,0-.75,.33594-.75,.75,0,1.78137,.07031,3.53174,.19556,5.25h-5.44556c-.41406,0-.75,.33594-.75,.75,0,8.13684,4.32227,15.73999,11.56494,20.36987,3.20068,6.42383,7.55176,10.81567,12.43506,12.0293v3.60083c0,7.30615-5.94434,13.25-13.25,13.25Zm31.25,4H24.75v-2.5h30.5v2.5Zm4.80835-49.33325c.01636-.11523,.03394-.22974,.0498-.34546,.05786-.4292,.11035-.86133,.1604-1.29517,.03687-.31421,.07153-.62964,.10425-.94653,.01978-.19409,.04565-.38477,.06372-.57959h4.80078c-.22852,6.52246-3.42578,12.62891-8.75781,16.86133,1.67456-4.08008,2.88232-8.72742,3.57886-13.69458Zm-45.29565-3.16675h4.80078c.01807,.19482,.04395,.3855,.06372,.57959,.03271,.31689,.06738,.63232,.10425,.94653,.05005,.43384,.10254,.86597,.1604,1.29517,.01587,.11572,.03345,.23022,.0498,.34546,.69653,4.96716,1.9043,9.6145,3.57886,13.69458-5.33203-4.23242-8.5293-10.33887-8.75781-16.86133Zm11.27661,18.86084c-.01196-.04285-.01831-.08679-.03833-.12793-2.31909-4.75586-3.92993-10.50085-4.71143-16.74939-.00488-.04126-.01074-.08215-.01562-.12341-.10693-.86719-.19775-1.7439-.27246-2.62903-.14307-1.70862-.22925-3.45374-.24756-5.23108H59.24609c-.01831,1.77734-.10449,3.52246-.24756,5.23108-.07471,.88513-.16553,1.76184-.27246,2.62903-.00488,.04126-.01074,.08215-.01562,.12341-.78149,6.24854-2.39233,11.99353-4.71143,16.74939-.02002,.04114-.02637,.08508-.03833,.12793-3.51025,7.16138-8.46924,11.63916-13.96069,11.63916s-10.45044-4.47778-13.96069-11.63916Zm12.71069,16.38916v-3.32666c.41382,.04614,.83008,.07666,1.25,.07666s.83618-.03052,1.25-.07666v3.32666c0,5.82275,3.40015,10.85327,8.31152,13.25H30.43848c4.91138-2.39673,8.31152-7.42725,8.31152-13.25Z"/><path d="M14.50171,54.43774l-5.03198,5.03198c-.21484,.21436-.27832,.53711-.16309,.81738,.11621,.28027,.38965,.46289,.69336,.46289h12c.30371,0,.57715-.18262,.69336-.46289,.11523-.28027,.05176-.60303-.16309-.81738l-5.03198-5.03198c3.03979-1.25623,5.25171-6.26538,5.25171-12.43774,0-.41406-.33594-.75-.75-.75H10c-.41406,0-.75,.33594-.75,.75,0,6.17236,2.21191,11.18152,5.25171,12.43774Zm5.68774,4.81226H11.81055l4.18945-4.18945,4.18945,4.18945Zm1.04883-16.5c-.1875,5.76465-2.50977,10.5-5.23828,10.5s-5.05078-4.73535-5.23828-10.5h10.47656Z"/><path d="M70.75,42c0-.41406-.33594-.75-.75-.75h-12c-.41406,0-.75,.33594-.75,.75,0,6.17236,2.21191,11.18152,5.25171,12.43774l-5.03198,5.03198c-.21484,.21436-.27832,.53711-.16309,.81738,.11621,.28027,.38965,.46289,.69336,.46289h12c.30371,0,.57715-.18262,.69336-.46289,.11523-.28027,.05176-.60303-.16309-.81738l-5.03198-5.03198c3.03979-1.25623,5.25171-6.26538,5.25171-12.43774Zm-2.56055,17.25h-8.37891l4.18945-4.18945,4.18945,4.18945Zm-4.18945-6c-2.72852,0-5.05078-4.73535-5.23828-10.5h10.47656c-.1875,5.76465-2.50977,10.5-5.23828,10.5Z"/></svg>