<?xml version="1.0" encoding="UTF-8"?><svg id="a" xmlns="http://www.w3.org/2000/svg" viewBox="0 0 80 80"><path d="M16.49902,51.50098c4.8252,4.82422,11.16309,7.2373,17.50098,7.2373,6.10278,0,12.19165-2.26099,16.94385-6.73389l18.52588,18.52588,1.06055-1.06055-18.52588-18.52588c9.11914-9.6875,8.96704-24.97339-.50342-34.44482-9.65039-9.64844-25.35156-9.64844-35.00195,0-9.6499,9.65039-9.6499,25.35156,0,35.00195Zm1.06055-33.94141c4.53223-4.53223,10.48633-6.79785,16.44043-6.79785s11.9082,2.26562,16.44043,6.79785c9.0625,9.06543,9.06348,23.81641,0,32.88086-9.06641,9.06348-23.81543,9.06348-32.88086,0-9.06494-9.06543-9.06494-23.81543,0-32.88086Z"/><path d="M19.90869,36.76465l13.55713,13.76172c.14062,.14258,.33301,.22363,.53418,.22363s.39355-.08105,.53418-.22363l13.55273-13.75781c1.71777-1.7168,2.66309-3.99902,2.66309-6.42773s-.94531-4.71094-2.66309-6.42773c-1.7168-1.71777-3.99902-2.66309-6.42773-2.66309s-4.71094,.94531-6.39551,2.63281l-1.26367,1.12207-1.23145-1.0918c-1.7168-1.71777-3.99902-2.66309-6.42773-2.66309s-4.71094,.94531-6.42822,2.66309c-1.71729,1.7168-2.6626,3.99902-2.6626,6.42773s.94531,4.71094,2.65869,6.42383Zm1.06445-11.79102c1.43408-1.43359,3.34033-2.22363,5.36768-2.22363s3.93359,.79004,5.39941,2.25391l1.76172,1.56445c.2832,.25195,.71289,.25195,.99609,0l1.79395-1.59473c1.43359-1.43359,3.33984-2.22363,5.36719-2.22363s3.93359,.79004,5.36719,2.22363,2.22363,3.33984,2.22363,5.36719-.79004,3.93359-2.22754,5.37109l-13.02246,13.21973-13.02686-13.22363c-1.43359-1.43359-2.22314-3.33984-2.22314-5.36719s.78955-3.93359,2.22314-5.36719Z"/><polygon points="33.25 38 34.75 38 34.75 34.75 38 34.75 38 33.25 34.75 33.25 34.75 30 33.25 30 33.25 33.25 30 33.25 30 34.75 33.25 34.75 33.25 38"/></svg>