<?xml version="1.0" encoding="UTF-8"?>
<svg id="art" xmlns="http://www.w3.org/2000/svg" viewBox="0 0 80 80">
  <defs>
    <style>
      .cls-1 {
        fill: #07182d;
      }
    </style>
  </defs>
  <path class="cls-1" d="M64.11,15.25h-5.44v1.5h5.44c1.73,0,3.14,1.3,3.14,2.9v10.21c0,1.6-1.41,2.9-3.14,2.9h-10.11c-.16,0-.32.05-.45.15l-5.8,4.35v-3.75c0-.41-.34-.75-.75-.75h-3.11c-1.73,0-3.14-1.3-3.14-2.9v-10.21c0-1.6,1.41-2.9,3.14-2.9v-1.5c-2.56,0-4.64,1.97-4.64,4.4v10.21c0,2.42,2.08,4.4,4.64,4.4h2.36v4.5c0,.28.16.54.42.67.11.05.22.08.33.08.16,0,.32-.05.45-.15l6.8-5.1h9.86c2.56,0,4.64-1.97,4.64-4.4v-10.21c0-2.42-2.08-4.4-4.64-4.4Z"/>
  <path class="cls-1" d="M29.69,64.49c2.76,0,5.01-2.25,5.01-5.01s-2.25-5.01-5.01-5.01-5.01,2.25-5.01,5.01,2.25,5.01,5.01,5.01ZM29.69,55.98c1.93,0,3.51,1.57,3.51,3.51s-1.57,3.51-3.51,3.51-3.51-1.57-3.51-3.51,1.57-3.51,3.51-3.51Z"/>
  <path class="cls-1" d="M46.72,64.49c2.76,0,5.01-2.25,5.01-5.01s-2.25-5.01-5.01-5.01-5.01,2.25-5.01,5.01,2.25,5.01,5.01,5.01ZM46.72,55.98c1.93,0,3.51,1.57,3.51,3.51s-1.57,3.51-3.51,3.51-3.51-1.57-3.51-3.51,1.57-3.51,3.51-3.51Z"/>
  <path class="cls-1" d="M60.24,54.56v-3.58c0-.41-.34-.75-.75-.75h-20.53v-7.12c1.22-.33,2.13-1.44,2.13-2.77,0-1.59-1.29-2.88-2.88-2.88s-2.88,1.29-2.88,2.88c0,1.33.91,2.43,2.13,2.77v7.12h-20.53c-.41,0-.75.34-.75.75v3.58c-2.4.37-4.26,2.43-4.26,4.93s1.85,4.56,4.26,4.93v3.58c0,.41.34.75.75.75h42.56c.41,0,.75-.34.75-.75v-3.58c2.4-.37,4.26-2.43,4.26-4.93s-1.85-4.57-4.26-4.93ZM36.83,40.33c0-.76.62-1.38,1.38-1.38s1.38.62,1.38,1.38-.62,1.38-1.38,1.38-1.38-.62-1.38-1.38ZM13.42,59.49c0-1.68,1.18-3.08,2.76-3.42v6.84c-1.57-.35-2.76-1.75-2.76-3.42ZM58.74,67.25H17.68v-15.52h41.06v15.52ZM60.24,62.91v-6.84c1.57.35,2.76,1.75,2.76,3.42s-1.18,3.08-2.76,3.42Z"/>
  <path class="cls-1" d="M49.25,20h1.5c0-1.79,1.46-3.25,3.25-3.25v-1.5c-1.79,0-3.25-1.46-3.25-3.25h-1.5c0,1.79-1.46,3.25-3.25,3.25v1.5c1.79,0,3.25,1.46,3.25,3.25ZM50,14.54c.38.59.87,1.09,1.46,1.46-.59.38-1.09.87-1.46,1.46-.38-.59-.87-1.09-1.46-1.46.59-.38,1.09-.87,1.46-1.46Z"/>
  <path class="cls-1" d="M50.44,21.47v1.5c2.77,0,5.03,2.26,5.03,5.03h1.5c0-2.77,2.25-5.03,5.03-5.03v-1.5c-2.77,0-5.03-2.26-5.03-5.03h-1.5c0,2.77-2.26,5.03-5.03,5.03ZM56.22,19.47c.62,1.17,1.58,2.13,2.75,2.75-1.17.62-2.13,1.58-2.75,2.75-.62-1.17-1.58-2.13-2.75-2.75,1.17-.62,2.13-1.58,2.75-2.75Z"/>
</svg>