<?xml version="1.0" encoding="UTF-8"?><svg id="a" xmlns="http://www.w3.org/2000/svg" viewBox="0 0 80 80"><path d="M23.33594,39.89941c0-3.93945-1.53418-7.64307-4.32031-10.42969l-1.06055,1.06055c2.50293,2.50293,3.88086,5.83057,3.88086,9.36914,0,3.53906-1.37793,6.86621-3.88086,9.36914l1.06055,1.06055c2.78613-2.78613,4.32031-6.48975,4.32031-10.42969Z"/><path d="M19.33594,39.89941c0-2.87158-1.11816-5.5708-3.14844-7.60107l-1.06055,1.06055c1.74707,1.74707,2.70898,4.06982,2.70898,6.54053,0,2.47119-.96191,4.79395-2.70898,6.54102l1.06055,1.06055c2.03027-2.03027,3.14844-4.72998,3.14844-7.60156Z"/><path d="M13.3584,44.67236c1.27539-1.2749,1.97754-2.97021,1.97754-4.77295s-.70215-3.49805-1.97754-4.77295l-1.06055,1.06055c.99219,.9917,1.53809,2.31055,1.53809,3.7124s-.5459,2.7207-1.53809,3.7124l1.06055,1.06055Z"/><path d="M10.53027,41.84424c.51953-.51904,.80566-1.20996,.80566-1.94482s-.28613-1.42578-.80566-1.94482l-1.06055,1.06152c.23633,.23535,.36621,.54932,.36621,.8833s-.12988,.64795-.36621,.8833l1.06055,1.06152Z"/><path d="M55.05273,30.90625l14.75977,3.81982,.375-1.45215-14.83691-3.83545c-.97168-.14307-1.94238,.0127-2.80566,.45068l-2.72168,1.36084H26c-.41406,0-.75,.33594-.75,.75v16c0,.41406,.33594,.75,.75,.75h21.25v1.25c0,1.5166,1.2334,2.75,2.75,2.75,.74219,0,1.43359-.29004,1.93359-.80225,.52637-.51318,.81641-1.20459,.81641-1.94775v-.73926l.38965,.38965c.53516,.53467,1.2373,.80225,1.94043,.80225,.70215,0,1.40527-.26758,1.94043-.80273,.52246-.52246,.80957-1.21484,.80957-1.94971,0-.44678-.11987-.87354-.32397-1.26123,.90991,.20386,1.79761,.31104,2.4939,.31104,2.25366,0,4.4082-.92456,6.01978-2h3.98022v-1.5h-2.15283c.43555-.45361,.73804-.87183,.85596-1.18896l-1.40625-.52246c-.27539,.74268-3.6709,3.71143-7.29688,3.71143-1.79199,0-4.55859-.76465-5.44141-1.75-.1416-.15918-.3457-.25-.55859-.25h-7.84375c-.77539,0-1.40625-.63086-1.40625-1.40625,0-.69678,.49902-1.28076,1.17578-1.38721l12.17871-1.71387-.20898-1.48535-3.14551,.44287v-5.7002c0-.41406-.33594-.75-.75-.75h-.82324l.04199-.021c.59082-.29883,1.25293-.40527,1.83398-.32275Zm-.30273,17.09375v-2.3894l1.20996,1.20923c.23828,.23926,.37012,.55225,.37012,.88037,0,.33447-.13184,.65088-.37012,.88965-.44849,.44849-1.15039,.46289-1.6377,.08081,.25098-.12134,.42773-.37329,.42773-.67065Zm-3.5,2c0,.33496-.12891,.64502-.37695,.88672-.22852,.23438-.53809,.36328-.87305,.36328-.68945,0-1.25-.56055-1.25-1.25v-1.25h2.5v1.25Zm2-17.25v5.16113l-7.54492,1.06201c-1.42285,.22314-2.45508,1.43018-2.45508,2.87061,0,1.60254,1.30371,2.90625,2.90625,2.90625h7.09375v2.5H26.75v-14.5h26.5Z"/><path d="M30,42.75h6c.41406,0,.75-.33594,.75-.75v-4c0-.41406-.33594-.75-.75-.75h-6c-.41406,0-.75,.33594-.75,.75v4c0,.41406,.33594,.75,.75,.75Zm.75-4h4.5v2.5h-4.5v-2.5Z"/></svg>