<?xml version="1.0" encoding="UTF-8"?>
<svg id="art" xmlns="http://www.w3.org/2000/svg" viewBox="0 0 80 80">
  <defs>
    <style>
      .cls-1 {
        fill: #07182d;
      }
    </style>
  </defs>
  <path class="cls-1" d="M52.75,31h1.5c0-1.52,1.23-2.75,2.75-2.75v-1.5c-1.52,0-2.75-1.23-2.75-2.75h-1.5c0,1.52-1.23,2.75-2.75,2.75v1.5c1.52,0,2.75,1.23,2.75,2.75ZM53.5,26.4c.3.43.67.8,1.1,1.1-.43.3-.8.67-1.1,1.1-.3-.43-.67-.8-1.1-1.1.43-.3.8-.67,1.1-1.1Z"/>
  <path class="cls-1" d="M53.89,32.19v1.5c2.37,0,4.31,1.93,4.31,4.31h1.5c0-2.37,1.93-4.31,4.31-4.31v-1.5c-2.37,0-4.31-1.93-4.31-4.31h-1.5c0,2.37-1.93,4.31-4.31,4.31ZM58.94,30.73c.52.92,1.29,1.69,2.21,2.21-.92.52-1.69,1.29-2.21,2.21-.52-.92-1.29-1.69-2.21-2.21.92-.52,1.69-1.29,2.21-2.21Z"/>
  <path class="cls-1" d="M21.73,42.48c.41,0,.75-.34.75-.75v-7.47c0-.41-.34-.75-.75-.75-.28,0-.56.03-.82.08,1.17-5.1,5.79-8.85,11.09-8.85s9.93,3.75,11.09,8.85c-.27-.05-.54-.08-.82-.08-.41,0-.75.34-.75.75v7.47c0,.41.34.75.75.75.33,0,.66-.04.97-.11-.74,4.04-4.25,7.01-8.44,7.01h-.31c-.32-1.08-1.31-1.87-2.49-1.87-1.44,0-2.62,1.17-2.62,2.62s1.17,2.62,2.62,2.62c1.18,0,2.17-.79,2.49-1.87h.31c5.21,0,9.52-3.9,10.03-9.08l-.19-.02c1.26-.79,2.11-2.19,2.11-3.79s-.88-3.04-2.18-3.82l.16-.02c-.96-6.22-6.43-10.9-12.73-10.9s-11.77,4.69-12.73,10.9l.16.02c-1.3.79-2.18,2.2-2.18,3.82,0,2.47,2.01,4.48,4.48,4.48ZM32,51.25c-.62,0-1.12-.5-1.12-1.12s.5-1.12,1.12-1.12,1.12.5,1.12,1.12-.5,1.12-1.12,1.12ZM43.02,40.89v-5.78c1.28.33,2.23,1.5,2.23,2.89s-.95,2.55-2.23,2.89ZM20.98,35.11v5.78c-1.28-.33-2.23-1.5-2.23-2.89s.95-2.55,2.23-2.89Z"/>
  <path class="cls-1" d="M14,56.75h52c1.52,0,2.75-1.23,2.75-2.75V22c0-1.52-1.23-2.75-2.75-2.75H14c-1.52,0-2.75,1.23-2.75,2.75v32c0,1.52,1.23,2.75,2.75,2.75ZM12.75,22c0-.69.56-1.25,1.25-1.25h52c.69,0,1.25.56,1.25,1.25v32c0,.69-.56,1.25-1.25,1.25H14c-.69,0-1.25-.56-1.25-1.25V22Z"/>
  <rect class="cls-1" x="8" y="59.25" width="64" height="1.5"/>
</svg>