<svg xmlns="http://www.w3.org/2000/svg" viewBox="0 0 80 80"><polygon points="68.75 8 67.25 8 67.25 11.25 64 11.25 64 12.75 67.25 12.75 67.25 16 68.75 16 68.75 12.75 72 12.75 72 11.25 68.75 11.25 68.75 8"/><path d="M12,69.25v1.5H68v-1.5H60.75V46.75H62v-1.5H55.895a16.52613,16.52613,0,0,0-.0022-10.5H57.333a7.41675,7.41675,0,1,0,0-14.8335,7.24014,7.24014,0,0,0-3.47949.88965,14.07329,14.07329,0,0,0-26.79395-2.998A8.62594,8.62594,0,0,0,24,17.25a8.75,8.75,0,0,0,0,17.5h.105a16.52842,16.52842,0,0,0,.00195,10.5H18v1.5h1.25v22.5Zm21.25,0h-4.5v-6.5h4.5ZM24,33.25a7.25,7.25,0,0,1,0-14.5,7.18043,7.18043,0,0,1,3.14746.727.7491.7491,0,0,0,1.03125-.41992,12.5725,12.5725,0,0,1,24.34473,3.09473.75088.75088,0,0,0,1.207.52294A5.83813,5.83813,0,0,1,57.333,21.4165a5.91675,5.91675,0,1,1,0,11.8335H26.3457A15.25339,15.25339,0,0,1,40,24.75h.18945l-2.71972,2.71973,1.06054,1.06054,4-4a.74972.74972,0,0,0,0-1.06054l-4-4-1.06054,1.06054L40.18945,23.25H40a16.76594,16.76594,0,0,0-15.31763,10ZM55.25,40a15.14182,15.14182,0,0,1-.95093,5.25H25.69434a15.01661,15.01661,0,0,1,.00659-10.5H54.30566A15.17656,15.17656,0,0,1,55.25,40Zm-34.5,6.75H53.6543A15.25339,15.25339,0,0,1,40,55.25h-.18945l2.71972-2.71973-1.06054-1.06054-4,4a.74972.74972,0,0,0,0,1.06054l4,4,1.06054-1.06054L39.81055,56.75H40a16.76567,16.76567,0,0,0,15.31763-10H59.25v22.5H34.75V62a.7502.7502,0,0,0-.75-.75H28a.7502.7502,0,0,0-.75.75v7.25h-6.5Z"/></svg>