<?xml version="1.0" encoding="UTF-8"?>
<svg id="art" xmlns="http://www.w3.org/2000/svg" viewBox="0 0 80 80">
  <defs>
    <style>
      .cls-1 {
        fill: #fff;
      }
    </style>
  </defs>
  <path class="cls-1" d="M20.75,24.75h4.96v-1.5h-5.71c-.41,0-.75.34-.75.75v5.71h1.5v-4.96Z"/>
  <path class="cls-1" d="M60,23.25h-5.71v1.5h4.96v4.96h1.5v-5.71c0-.41-.34-.75-.75-.75Z"/>
  <path class="cls-1" d="M59.25,63.25h-4.96v1.5h5.71c.41,0,.75-.34.75-.75v-5.71h-1.5v4.96Z"/>
  <path class="cls-1" d="M20.75,58.29h-1.5v5.71c0,.41.34.75.75.75h5.71v-1.5h-4.96v-4.96Z"/>
  <path class="cls-1" d="M22.15,53.06h-2.15v1.5h40v-1.5h-2.15c-.42-4.38-3.78-7.81-7.85-7.81h-20c-4.06,0-7.42,3.43-7.85,7.81ZM30,46.75h20c3.24,0,5.92,2.76,6.33,6.31H23.67c.41-3.55,3.09-6.31,6.33-6.31Z"/>
  <path class="cls-1" d="M40,43.32c4.19,0,7.61-3.41,7.61-7.61s-3.41-7.61-7.61-7.61-7.61,3.41-7.61,7.61,3.41,7.61,7.61,7.61ZM40,29.61c3.37,0,6.11,2.74,6.11,6.11s-2.74,6.11-6.11,6.11-6.11-2.74-6.11-6.11,2.74-6.11,6.11-6.11Z"/>
  <path class="cls-1" d="M59.25,16h1.5c0-1.79,1.46-3.25,3.25-3.25v-1.5c-1.79,0-3.25-1.46-3.25-3.25h-1.5c0,1.79-1.46,3.25-3.25,3.25v1.5c1.79,0,3.25,1.46,3.25,3.25ZM60,10.54c.38.59.87,1.09,1.46,1.46-.59.38-1.09.87-1.46,1.46-.38-.59-.87-1.09-1.46-1.46.59-.38,1.09-.87,1.46-1.46Z"/>
  <path class="cls-1" d="M66.97,12.44h-1.5c0,2.77-2.26,5.03-5.03,5.03v1.5c2.77,0,5.03,2.26,5.03,5.03h1.5c0-2.77,2.25-5.03,5.03-5.03v-1.5c-2.77,0-5.03-2.26-5.03-5.03ZM66.22,20.97c-.62-1.17-1.58-2.13-2.75-2.75,1.17-.62,2.13-1.58,2.75-2.75.62,1.17,1.58,2.13,2.75,2.75-1.17.62-2.13,1.58-2.75,2.75Z"/>
</svg>