<?xml version="1.0" encoding="UTF-8"?><svg id="a" xmlns="http://www.w3.org/2000/svg" viewBox="0 0 80 80"><path d="M24,38.75c8.13281,0,14.75-6.6167,14.75-14.75,0-3.28693-1.09399-6.31573-2.9187-8.77069l2.69897-2.69904-1.06055-1.06055-2.59741,2.59747c-2.6991-2.95172-6.56714-4.8172-10.87231-4.8172-8.1333,0-14.75,6.6167-14.75,14.75s6.6167,14.75,14.75,14.75Zm0-28c3.8916,0,7.38574,1.69678,9.81201,4.37738l-13.81201,13.81207-5.46973-5.46973-1.06055,1.06055,6,6c.14648,.14648,.33838,.21973,.53027,.21973s.38379-.07324,.53027-.21973l14.23096-14.23096c1.55957,2.1731,2.48877,4.8277,2.48877,7.70068,0,7.30615-5.94434,13.25-13.25,13.25-7.30615,0-13.25-5.94385-13.25-13.25s5.94385-13.25,13.25-13.25Z"/><path d="M55.88867,38.75c8.13281,0,14.75-6.6167,14.75-14.75,0-3.26294-1.07788-6.27155-2.87866-8.71698l2.76831-2.75128-1.05664-1.06348-2.66528,2.64893c-2.70093-2.98071-6.58838-4.86719-10.91772-4.86719-8.13281,0-14.75,6.6167-14.75,14.75s6.61719,14.75,14.75,14.75Zm0-28c3.91406,0,7.42651,1.71619,9.85437,4.42389l-13.85242,13.76703-5.47168-5.47119-1.06055,1.06055,6,6c.14648,.14648,.33789,.21973,.53027,.21973,.19141,0,.38281-.07275,.52832-.21826l14.27026-14.1825c1.5376,2.16376,2.45142,4.80011,2.45142,7.65076,0,7.30615-5.94434,13.25-13.25,13.25s-13.25-5.94385-13.25-13.25,5.94434-13.25,13.25-13.25Z"/><path d="M24,70.75c8.13281,0,14.75-6.6167,14.75-14.75,0-3.28693-1.09399-6.31573-2.9187-8.77069l2.69897-2.69904-1.06055-1.06055-2.59741,2.59747c-2.6991-2.95172-6.56714-4.8172-10.87231-4.8172-8.1333,0-14.75,6.6167-14.75,14.75s6.6167,14.75,14.75,14.75Zm0-28c3.8916,0,7.38574,1.69678,9.81201,4.37738l-13.81201,13.81207-5.46973-5.46973-1.06055,1.06055,6,6c.14648,.14648,.33838,.21973,.53027,.21973s.38379-.07324,.53027-.21973l14.23096-14.23096c1.55957,2.1731,2.48877,4.8277,2.48877,7.70068,0,7.30615-5.94434,13.25-13.25,13.25-7.30615,0-13.25-5.94385-13.25-13.25s5.94385-13.25,13.25-13.25Z"/><path d="M55.88867,70.75c8.13281,0,14.75-6.6167,14.75-14.75,0-3.26294-1.07788-6.27155-2.87866-8.71698l2.76831-2.75128-1.05664-1.06348-2.66528,2.64893c-2.70093-2.98071-6.58838-4.86719-10.91772-4.86719-8.13281,0-14.75,6.6167-14.75,14.75s6.61719,14.75,14.75,14.75Zm0-28c3.91406,0,7.42651,1.71619,9.85437,4.42389l-13.85242,13.76703-5.47168-5.47119-1.06055,1.06055,6,6c.14648,.14648,.33789,.21973,.53027,.21973,.19141,0,.38281-.07275,.52832-.21826l14.27026-14.1825c1.5376,2.16376,2.45142,4.80011,2.45142,7.65076,0,7.30615-5.94434,13.25-13.25,13.25s-13.25-5.94385-13.25-13.25,5.94434-13.25,13.25-13.25Z"/></svg>