<?xml version="1.0" encoding="UTF-8"?>
<svg id="art" xmlns="http://www.w3.org/2000/svg" viewBox="0 0 80 80">
  <defs>
    <style>
      .cls-1 {
        fill: #07182d;
      }
    </style>
  </defs>
  <path class="cls-1" d="M28,38.75c-.41,0-.75.34-.75.75v16.5c0,.41.34.75.75.75h24c.41,0,.75-.34.75-.75v-16.5c0-.41-.34-.75-.75-.75h-3.75v-3.75c0-4.55-3.7-8.25-8.25-8.25s-8.25,3.7-8.25,8.25v3.75h-3.75ZM51.25,55.25h-22.5v-15h22.5v15ZM33.25,35c0-3.72,3.03-6.75,6.75-6.75s6.75,3.03,6.75,6.75v3.75h-13.5v-3.75Z"/>
  <path class="cls-1" d="M35.25,16h1.5c0-1.79,1.46-3.25,3.25-3.25v-1.5c-1.79,0-3.25-1.46-3.25-3.25h-1.5c0,1.79-1.46,3.25-3.25,3.25v1.5c1.79,0,3.25,1.46,3.25,3.25ZM36,10.54c.38.59.87,1.09,1.46,1.46-.59.38-1.09.87-1.46,1.46-.38-.59-.87-1.09-1.46-1.46.59-.38,1.09-.87,1.46-1.46Z"/>
  <path class="cls-1" d="M36.44,17.47v1.5c2.77,0,5.03,2.26,5.03,5.03h1.5c0-2.77,2.25-5.03,5.03-5.03v-1.5c-2.77,0-5.03-2.26-5.03-5.03h-1.5c0,2.77-2.26,5.03-5.03,5.03ZM42.22,15.47c.62,1.17,1.58,2.13,2.75,2.75-1.17.62-2.13,1.58-2.75,2.75-.62-1.17-1.58-2.13-2.75-2.75,1.17-.62,2.13-1.58,2.75-2.75Z"/>
  <path class="cls-1" d="M64,15.25h-12v1.5h11.25v33.09c0,4.56-2.67,8.63-6.8,10.38l-16.45,6.96-16.45-6.96c-4.13-1.75-6.8-5.82-6.8-10.38V16.75h11.25v-1.5h-12c-.41,0-.75.34-.75.75v33.84c0,5.16,3.03,9.78,7.72,11.76l16.74,7.08c.09.04.19.06.29.06s.2-.02.29-.06l16.74-7.08c4.69-1.98,7.72-6.6,7.72-11.76V16c0-.41-.34-.75-.75-.75Z"/>
</svg>