<?xml version="1.0" encoding="UTF-8"?><svg id="a" xmlns="http://www.w3.org/2000/svg" viewBox="0 0 80 80"><path d="M70,65.25h-3.25v-3.25c0-.41406-.33594-.75-.75-.75h-3.25v-18.5h3.25c.41406,0,.75-.33594,.75-.75v-8c0-.41406-.33594-.75-.75-.75h-3.10742v-5.25c0-.41406-.33594-.75-.75-.75h-11.49707c-.37012-5.29175-4.60376-9.52539-9.89551-9.89551v-2.60449h5.25c.41406,0,.75-.33594,.75-.75v-4c0-.41406-.33594-.75-.75-.75h-6c-.41406,0-.75,.33594-.75,.75v7.35449c-5.29175,.37012-9.52539,4.60376-9.89551,9.89551h-11.49707c-.41406,0-.75,.33594-.75,.75v5.25h-3.10742c-.41406,0-.75,.33594-.75,.75v8c0,.41406,.33594,.75,.75,.75h3.25v18.5h-3.25c-.41406,0-.75,.33594-.75,.75v3.25h-3.25c-.41406,0-.75,.33594-.75,.75v4c0,.41406,.33594,.75,.75,.75h60c.41406,0,.75-.33594,.75-.75v-4c0-.41406-.33594-.75-.75-.75ZM40.75,10.75h4.5v2.5h-4.5v-2.5Zm-.75,8.06641c4.81152,0,8.77051,3.71875,9.15332,8.43359H30.84668c.38281-4.71484,4.3418-8.43359,9.15332-8.43359Zm-21.39258,9.93359H61.39258v4.5H18.60742v-4.5Zm-3.85742,12.5v-6.5h50.5v6.5H14.75Zm46.5,1.5v18.5h-8.5v-18.5h8.5Zm-10,0v18.5h-10.5v-18.5h10.5Zm-12,0v18.5h-10.5v-18.5h10.5Zm-12,0v18.5h-8.5v-18.5h8.5Zm-12.5,20h50.5v2.5H14.75v-2.5Zm54.5,6.5H10.75v-2.5h58.5v2.5Z"/></svg>