<?xml version="1.0" encoding="UTF-8"?><svg id="a" xmlns="http://www.w3.org/2000/svg" viewBox="0 0 80 80"><path d="M39.25,70.73096v.01904h1.5v-.01904c16.60938-.40088,30-14.02692,30-30.73096s-13.39062-30.33008-30-30.73096v-.01904h-1.5v.01904c-16.60938,.40088-30,14.02692-30,30.73096s13.39062,30.33008,30,30.73096Zm6.8988-2.13678c3.64758-2.65308,6.672-7.58612,8.5437-13.84418h10.55042c-4.08569,6.96527-10.96631,12.09796-19.09412,13.84418Zm19.91492-15.34418h-10.95093c.99316-3.80176,1.56812-8.03522,1.62683-12.5h12.49133c-.11401,4.48956-1.24219,8.72888-3.16724,12.5Zm3.16724-14h-12.49133c-.05872-4.46478-.63367-8.69824-1.62683-12.5h10.95093c1.92505,3.77112,3.05322,8.01044,3.16724,12.5Zm-3.98804-14h-10.55042c-1.8717-6.25806-4.89612-11.1911-8.5437-13.84418,8.12781,1.74622,15.00842,6.87891,19.09412,13.84418Zm-24.49292-14.4635c5.29102,.49402,9.87952,6.18701,12.41077,14.4635h-12.41077V10.7865Zm0,15.9635h12.83862c1.00366,3.77112,1.59204,8.01044,1.65137,12.5h-14.48999v-12.5Zm0,14h14.48999c-.05933,4.48956-.64771,8.72888-1.65137,12.5h-12.83862v-12.5Zm0,14h12.41077c-2.53125,8.27649-7.11975,13.96948-12.41077,14.4635v-14.4635Zm-1.5,14.4635c-5.29102-.49402-9.87952-6.18701-12.41077-14.4635h12.41077v14.4635Zm0-15.9635h-12.83862c-1.00366-3.77112-1.59204-8.01044-1.65137-12.5h14.48999v12.5Zm0-14h-14.48999c.05933-4.48956,.64771-8.72888,1.65137-12.5h12.83862v12.5Zm0-14h-12.41077c2.53125-8.27649,7.11975-13.96948,12.41077-14.4635v14.4635Zm-5.3988-13.84418c-3.64758,2.65308-6.672,7.58612-8.5437,13.84418H14.75708c4.08569-6.96527,10.96631-12.09796,19.09412-13.84418ZM13.93628,26.75h10.95093c-.99316,3.80176-1.56812,8.03522-1.62683,12.5H10.76904c.11401-4.48956,1.24219-8.72888,3.16724-12.5Zm-3.16724,14h12.49133c.05872,4.46478,.63367,8.69824,1.62683,12.5H13.93628c-1.92505-3.77112-3.05322-8.01044-3.16724-12.5Zm14.53845,14c1.8717,6.25806,4.89612,11.1911,8.5437,13.84418-8.12781-1.74622-15.00842-6.87891-19.09412-13.84418h10.55042Z"/></svg>