<?xml version="1.0" encoding="UTF-8"?><svg id="a" xmlns="http://www.w3.org/2000/svg" viewBox="0 0 80 80"><path d="M64,13.25H16c-3.72168,0-6.75,3.02783-6.75,6.75V52c0,3.72217,3.02832,6.75,6.75,6.75h7.25v7.25h1.5v-9.34863c0-.31787-.2002-.60107-.5-.70703-2.09375-.74121-3.5-2.72852-3.5-4.94434,0-1.84131,.9707-3.52393,2.5-4.46582v5.46582c0,.41406,.33594,.75,.75,.75h4c.41406,0,.75-.33594,.75-.75v-5.46582c1.5293,.94189,2.5,2.62451,2.5,4.46582,0,2.21582-1.40625,4.20312-3.5,4.94434-.2998,.10596-.5,.38916-.5,.70703v9.34863h1.5v-7.25h26.93945l7.78027,7.78027c.14355,.14355,.33496,.21973,.53027,.21973,.09668,0,.19434-.01855,.28711-.05713,.28027-.11621,.46289-.38965,.46289-.69287v-7.2915c3.37012-.37402,6-3.24023,6-6.7085V20c0-3.72217-3.02832-6.75-6.75-6.75Zm5.25,38.75c0,2.89502-2.35547,5.25-5.25,5.25-.41406,0-.75,.33594-.75,.75v6.18945l-6.71973-6.71973c-.14062-.14062-.33105-.21973-.53027-.21973H28.75v-.09131c2.41309-1.07764,4-3.48877,4-6.15869,0-2.8501-1.80859-5.40527-4.5-6.3584-.22949-.08252-.48535-.0459-.68262,.09473-.19922,.14062-.31738,.36865-.31738,.6123v5.90137h-2.5v-5.90137c0-.24365-.11816-.47168-.31738-.6123s-.4541-.17725-.68262-.09473c-2.69141,.95312-4.5,3.5083-4.5,6.3584,0,2.66992,1.58691,5.08105,4,6.15869v.09131h-7.25c-2.89453,0-5.25-2.35498-5.25-5.25V20c0-2.89502,2.35547-5.25,5.25-5.25h48c2.89453,0,5.25,2.35498,5.25,5.25V52Z"/><path d="M54.48901,31.29932c-1.28491-6.90771-7.39966-12.04932-14.48901-12.04932s-13.2041,5.1416-14.48901,12.04932c-1.2832,.23218-2.26099,1.35156-2.26099,2.70068v4c0,1.5166,1.2334,2.75,2.75,2.75h2c.41406,0,.75-.33594,.75-.75v-8c0-.41406-.33594-.75-.75-.75h-.95459c1.28125-6.0415,6.69629-10.5,12.95459-10.5s11.67334,4.4585,12.95459,10.5h-.95459c-.41406,0-.75,.33594-.75,.75v8c0,.41406,.33594,.75,.75,.75h1.21094c-.35547,3.44165-3.12891,6.17212-6.58789,6.46851-.33911-1.13428-1.37988-1.96851-2.62305-1.96851-1.5166,0-2.75,1.2334-2.75,2.75s1.2334,2.75,2.75,2.75c1.26685,0,2.3252-.86523,2.64307-2.03271,4.31177-.31567,7.75854-3.7627,8.07446-8.07422,1.16724-.31787,2.03247-1.37622,2.03247-2.64307v-4c0-1.34912-.97778-2.46851-2.26099-2.70068Zm-27.23901,1.45068v6.5h-1.25c-.68945,0-1.25-.56055-1.25-1.25v-4c0-.68945,.56055-1.25,1.25-1.25h1.25Zm16.75,16.5c-.68945,0-1.25-.56055-1.25-1.25s.56055-1.25,1.25-1.25,1.25,.56055,1.25,1.25-.56055,1.25-1.25,1.25Zm11.25-11.25c0,.68945-.56055,1.25-1.25,1.25h-1.25v-6.5h1.25c.68945,0,1.25,.56055,1.25,1.25v4Z"/><circle cx="36" cy="36" r="1"/><circle cx="40" cy="36" r="1"/><circle cx="44" cy="36" r="1"/></svg>