<svg xmlns="http://www.w3.org/2000/svg" viewBox="0 0 80 80"><path d="M9.25,60A2.7528,2.7528,0,0,0,12,62.75H39.25v2.5H30v1.5H50v-1.5H40.75v-2.5H68A2.7528,2.7528,0,0,0,70.75,60V26A2.7528,2.7528,0,0,0,68,23.25H62v1.5h6A1.25116,1.25116,0,0,1,69.25,26V55.25H10.75V26A1.25116,1.25116,0,0,1,12,24.75h6v-1.5H12A2.7528,2.7528,0,0,0,9.25,26Zm1.5-3.25h58.5V60A1.25116,1.25116,0,0,1,68,61.25H12A1.25116,1.25116,0,0,1,10.75,60Z"/><path d="M52,48.75a.7502.7502,0,0,0,.75-.75V32a.7502.7502,0,0,0-.75-.75H28a.7502.7502,0,0,0-.75.75V48a.7502.7502,0,0,0,.75.75Zm-23.25-16h22.5v14.5H28.75Z"/><rect x="26" y="51.25" width="28" height="1.5"/><polygon points="72 11.25 68.75 11.25 68.75 8 67.25 8 67.25 11.25 64 11.25 64 12.75 67.25 12.75 67.25 16 68.75 16 68.75 12.75 72 12.75 72 11.25"/><path d="M58.75,23A5.75639,5.75639,0,0,0,53,17.25a5.6049,5.6049,0,0,0-2.47266.57324,10.74275,10.74275,0,0,0-20.334-2.20312A6.636,6.636,0,0,0,28,15.25a6.75,6.75,0,0,0,0,13.5H53A5.75639,5.75639,0,0,0,58.75,23ZM53,27.25H28a5.25,5.25,0,0,1,0-10.5,5.1865,5.1865,0,0,1,2.27832.52686.75049.75049,0,0,0,1.03223-.41993,9.24178,9.24178,0,0,1,17.8955,2.27442.75053.75053,0,0,0,1.207.52295A4.19329,4.19329,0,0,1,53,18.75a4.25,4.25,0,0,1,0,8.5Z"/></svg>