<?xml version="1.0" encoding="UTF-8"?><svg id="a" xmlns="http://www.w3.org/2000/svg" viewBox="0 0 80 80"><polygon points="68.75 16 68.75 12.75 72 12.75 72 11.25 68.75 11.25 68.75 8 67.25 8 67.25 11.25 64 11.25 64 12.75 67.25 12.75 67.25 16 68.75 16"/><path d="M54.44434,50.75c3.47656,0,6.30566-2.82861,6.30566-6.30566s-2.8291-6.30566-6.30566-6.30566c-.98242,0-1.93555,.23145-2.80762,.67676-1.02515-5.2865-5.46826-9.19843-10.88672-9.53265v-10.53278h3.25c.41406,0,.75-.33594,.75-.75v-3.25h6.57397c.15186,.95532,.58276,1.87415,1.31763,2.60889,.89648,.89697,2.08984,1.39111,3.3584,1.39111s2.46191-.49414,3.3584-1.39111c1.85254-1.85205,1.85254-4.86572,0-6.71777-.89648-.89697-2.08984-1.39111-3.3584-1.39111s-2.46191,.49414-3.3584,1.39111c-.73486,.73474-1.16577,1.65356-1.31763,2.60889h-6.57397v-3.25c0-.41406-.33594-.75-.75-.75h-8c-.41406,0-.75,.33594-.75,.75v3.25h-6.57397c-.15186-.95532-.58276-1.87415-1.31763-2.60889-.89648-.89697-2.08984-1.39111-3.3584-1.39111s-2.46191,.49414-3.3584,1.39111c-1.85254,1.85205-1.85254,4.86572,0,6.71777,.89648,.89697,2.08984,1.39111,3.3584,1.39111s2.46191-.49414,3.3584-1.39111c.73486-.73474,1.16577-1.65356,1.31763-2.60889h6.57397v3.25c0,.41406,.33594,.75,.75,.75h3.25v10.52795c-4.40552,.28192-8.32324,3.02289-10.10156,7.07068-.79883-.28711-1.63086-.43213-2.48145-.43213-4.08984,0-7.41699,3.32715-7.41699,7.41699,0,4.08936,3.32715,7.4165,7.41699,7.4165h12.58301v10.5733c-.98267,.1557-1.89185,.60095-2.6084,1.31781-.73486,.73474-1.16577,1.65356-1.31763,2.60889h-6.57397v-3.25c0-.41406-.33594-.75-.75-.75h-8c-.41406,0-.75,.33594-.75,.75v8c0,.41406,.33594,.75,.75,.75h8c.41406,0,.75-.33594,.75-.75v-3.25h6.57397c.15186,.95532,.58276,1.87415,1.31763,2.60889,.89648,.89697,2.08984,1.39111,3.3584,1.39111s2.46191-.49414,3.3584-1.39111c.73486-.73474,1.16577-1.65356,1.31763-2.60889h6.57397v3.25c0,.41406,.33594,.75,.75,.75h8c.41406,0,.75-.33594,.75-.75v-8c0-.41406-.33594-.75-.75-.75h-8c-.41406,0-.75,.33594-.75,.75v3.25h-6.57397c-.15186-.95532-.58276-1.87415-1.31763-2.60889-.71655-.71686-1.62573-1.16211-2.6084-1.31781v-10.5733h13.69434Zm-.74219-39.04834c.61328-.61377,1.42969-.95166,2.29785-.95166s1.68457,.33789,2.29785,.95166c1.26758,1.26709,1.26758,3.32959,0,4.59668-1.22656,1.22754-3.36914,1.22754-4.5957,0-1.26758-1.26709-1.26758-3.32959,0-4.59668Zm-27.4043,4.59668c-1.22656,1.22754-3.36914,1.22754-4.5957,0-1.26758-1.26709-1.26758-3.32959,0-4.59668,.61328-.61377,1.42969-.95166,2.29785-.95166s1.68457,.33789,2.29785,.95166c1.26758,1.26709,1.26758,3.32959,0,4.59668Zm.95215,52.95166h-6.5v-6.5h6.5v6.5Zm25.5-6.5h6.5v6.5h-6.5v-6.5ZM36.75,17.25v-6.5h6.5v6.5h-6.5Zm5.54785,46.45166c1.26758,1.26709,1.26758,3.32959,0,4.59668-1.22656,1.22754-3.36914,1.22754-4.5957,0-1.26758-1.26709-1.26758-3.32959,0-4.59668,.61328-.61377,1.42969-.95166,2.29785-.95166s1.68457,.33789,2.29785,.95166Zm-15.63086-14.45166c-3.2627,0-5.91699-2.6543-5.91699-5.9165,0-3.2627,2.6543-5.91699,5.91699-5.91699,.88867,0,1.75293,.19971,2.56836,.59375,.19043,.09277,.41309,.09961,.60938,.01953s.34961-.23975,.42188-.43945c1.48047-4.09131,5.39258-6.84033,9.7334-6.84033,5.37988,0,9.8125,4.03613,10.31152,9.38818,.02539,.27246,.19727,.50928,.44824,.61816,.25391,.10889,.54199,.07178,.75879-.09521,.8623-.66895,1.87402-1.02246,2.92578-1.02246,2.64941,0,4.80566,2.15576,4.80566,4.80566s-2.15625,4.80566-4.80566,4.80566H26.66699Z"/></svg>