<?xml version="1.0" encoding="UTF-8"?>
<svg id="DO_NOT_TOUCH_Outlines_" data-name="DO NOT TOUCH (Outlines)" xmlns="http://www.w3.org/2000/svg" viewBox="0 0 80 80">
  <path d="m32.64,41.01c.15-.24.15-.55,0-.79-.47-.75-.97-1.44-1.5-2.08l37.29-25.51-.85-1.24-37.45,25.62c-2.84-2.91-6.38-4.52-10.13-4.52-4.96,0-9.56,2.82-12.64,7.74-.15.24-.15.55,0,.79,3.07,4.92,7.68,7.74,12.64,7.74,3.55,0,6.91-1.45,9.67-4.07l37.93,23.96.8-1.27-37.67-23.79c.68-.78,1.32-1.63,1.9-2.56Zm-12.64,6.24c-4.3,0-8.32-2.41-11.11-6.63,2.79-4.22,6.81-6.63,11.11-6.63s8.32,2.41,11.11,6.63c-2.79,4.22-6.81,6.63-11.11,6.63Z"/>
  <path d="m20,35.92c-2.62,0-4.75,2.13-4.75,4.75s2.13,4.75,4.75,4.75,4.75-2.13,4.75-4.75-2.13-4.75-4.75-4.75Zm0,8c-1.79,0-3.25-1.46-3.25-3.25s1.46-3.25,3.25-3.25,3.25,1.46,3.25,3.25-1.46,3.25-3.25,3.25Z"/>
  <path d="m39.25,42c0,2.62,2.13,4.75,4.75,4.75s4.75-2.13,4.75-4.75-2.13-4.75-4.75-4.75-4.75,2.13-4.75,4.75Zm8,0c0,1.79-1.46,3.25-3.25,3.25s-3.25-1.46-3.25-3.25,1.46-3.25,3.25-3.25,3.25,1.46,3.25,3.25Z"/>
  <path d="m56,54.75h8c.41,0,.75-.34.75-.75v-8c0-.41-.34-.75-.75-.75h-8c-.41,0-.75.34-.75.75v8c0,.41.34.75.75.75Zm.75-8h6.5v6.5h-6.5v-6.5Z"/>
  <path d="m60.64,34.39c.14-.22.15-.5.03-.73l-4-8c-.25-.51-1.09-.51-1.34,0l-4,8c-.12.23-.1.51.03.73.14.22.38.36.64.36h8c.26,0,.5-.13.64-.36Zm-7.42-1.14l2.79-5.57,2.79,5.57h-5.57Z"/>
</svg>