<svg id="DO_NOT_TOUCH_Outlines_" data-name="DO NOT TOUCH (Outlines)" xmlns="http://www.w3.org/2000/svg" viewBox="0 0 80 80"><path d="M59,16.75A3.75,3.75,0,1,0,55.25,13,3.75,3.75,0,0,0,59,16.75Zm0-6A2.25,2.25,0,1,1,56.75,13,2.25,2.25,0,0,1,59,10.75Z"/><path d="M70.75,40a.76.76,0,0,0-.75-.75H62.75v-8.5H63A1.76,1.76,0,0,0,64.75,29V22A2.75,2.75,0,0,0,62,19.25H56A2.75,2.75,0,0,0,53.25,22v7A1.76,1.76,0,0,0,55,30.75h.25v8.5H40.75V34.71c.22,0,.45-.06.67-.11a6.75,6.75,0,0,0,4.78-9.27A1.22,1.22,0,0,1,46.37,24a9.51,9.51,0,0,0,2.21-8.13,8.27,8.27,0,0,0-6.83-6.44,8.74,8.74,0,0,0-8.17,14.51,1.22,1.22,0,0,1,.26,1.32,6.73,6.73,0,0,0,1.9,8,6.63,6.63,0,0,0,3.51,1.45v4.57H24.75V34.67a3.75,3.75,0,1,0-1.5,0v4.58h-6.5V28.67a3.75,3.75,0,1,0-1.5,0V39.25H10a.76.76,0,0,0-.75.75,30.78,30.78,0,0,0,30,30.73v0h1.5v0A30.78,30.78,0,0,0,70.75,40Zm-36-12a5.12,5.12,0,0,1,.46-2.14,2.71,2.71,0,0,0-.53-2.95,7.24,7.24,0,0,1,.71-10.51A7.31,7.31,0,0,1,40,10.75a7.81,7.81,0,0,1,1.44.14,6.82,6.82,0,0,1,5.65,5.25A8.1,8.1,0,0,1,45.28,23a2.72,2.72,0,0,0-.46,3,5.28,5.28,0,0,1,.31,3.22,5.21,5.21,0,0,1-4,4A5.25,5.25,0,0,1,34.75,28Zm-13,3A2.25,2.25,0,1,1,24,33.25,2.25,2.25,0,0,1,21.75,31Zm-8-6A2.25,2.25,0,1,1,16,27.25,2.25,2.25,0,0,1,13.75,25ZM66.07,53.25h-11a52.2,52.2,0,0,0,1.63-12.5h12.5A29.06,29.06,0,0,1,66.07,53.25ZM56,29.25H55a.25.25,0,0,1-.25-.25V22A1.25,1.25,0,0,1,56,20.75h6A1.25,1.25,0,0,1,63.25,22v7a.25.25,0,0,1-.25.25H62a.76.76,0,0,0-.75.75v9.25h-4.5V30A.76.76,0,0,0,56,29.25Zm-.76,11.5a51.77,51.77,0,0,1-1.65,12.5H40.75V40.75Zm-16,28.46C34,68.72,29.37,63,26.84,54.75H39.25Zm1.5-14.46H53.16C50.63,63,46,68.72,40.75,69.21ZM39.25,46v7.25H26.41a51.77,51.77,0,0,1-1.65-12.5H39.25Zm-16-5.25a52.2,52.2,0,0,0,1.63,12.5h-11a29.06,29.06,0,0,1-3.17-12.5Zm-8.5,14H25.31C27.18,61,30.2,65.94,33.85,68.59A29.3,29.3,0,0,1,14.76,54.75ZM46.15,68.59c3.65-2.65,6.67-7.58,8.54-13.84H65.24A29.3,29.3,0,0,1,46.15,68.59Z"/><path d="M18.94,16l2.53,2.53a.75.75,0,0,0,1.06,0L25.06,16,24,14.94l-2,2-2-2Z"/><path d="M26,12.75a.74.74,0,0,0,.53-.22L29.06,10,28,8.94l-2,2-2-2L22.94,10l2.53,2.53A.74.74,0,0,0,26,12.75Z"/><path d="M18,12.75a.74.74,0,0,0,.53-.22L21.06,10,20,8.94l-2,2-2-2L14.94,10l2.53,2.53A.74.74,0,0,0,18,12.75Z"/></svg>