<?xml version="1.0" encoding="UTF-8"?><svg id="a" xmlns="http://www.w3.org/2000/svg" viewBox="0 0 80 80"><path d="M36.47363,64.53369c.14551,.14404,.33594,.21631,.52637,.21631s.38086-.07227,.52637-.21631l10.08008-9.94415,5.85938,5.93732c.1416,.14258,.33398,.22314,.53418,.22314s.39258-.08057,.53418-.22314l13.59082-13.77197c3.48535-3.53223,3.49902-9.29346,.03125-12.84277-.97412-.99774-2.13965-1.72607-3.40845-2.16864,.00024-.01404,.0022-.02777,.0022-.04181,.00977-3.86475-1.49414-7.49805-4.23633-10.23096-5.61035-5.59082-14.75879-5.61426-20.39453-.05176l-3.11914,3.07617-3.11914-3.07617c-5.63574-5.56152-14.78613-5.53809-20.39453,.05176-2.74219,2.73291-4.24609,6.36621-4.23633,10.23096,.00977,3.86426,1.5332,7.48877,4.28906,10.20654l22.93457,22.62549Zm4.46973-18.83252c-2.91504-2.9541-2.92676-7.77246-.02734-10.74121,1.3877-1.41992,3.23047-2.20459,5.18945-2.20996h.01953c1.95215,0,3.79102,.7749,5.18066,2.18311l2.16016,2.18896c.2832,.28516,.78516,.28516,1.06836,0l2.16016-2.18896c1.38965-1.4082,3.22852-2.18311,5.18066-2.18311h.01953c.43921,.00122,.87109,.04736,1.29468,.12524-.27979,3.01483-1.59546,5.80908-3.78101,7.96558l-11.78687,11.62756-6.67798-6.76721Zm26.14062-10.74121c2.89941,2.96875,2.8877,7.78711-.02734,10.74121l-13.05664,13.23096-5.3252-5.39636,11.78613-11.62708c2.37061-2.33813,3.82202-5.34857,4.1897-8.60358,.89917,.37463,1.72583,.93097,2.43335,1.65485ZM14.54492,22.5332c2.52246-2.51416,5.84375-3.77197,9.16602-3.77197,3.29883,0,6.59863,1.24121,9.11719,3.7251l3.64551,3.59619c.29102,.28809,.76172,.28809,1.05273,0l3.64551-3.59619c5.05273-4.98486,13.25391-4.96387,18.2832,.04688,2.37695,2.36938,3.70361,5.4964,3.77954,8.83289-.43921-.06873-.88379-.11487-1.33618-.11609h-.02344c-2.35645,0-4.5752,.93359-6.24902,2.62939l-1.62598,1.64795-1.62598-1.64795c-1.6748-1.69629-3.89258-2.62939-6.24902-2.62939h-.02344c-2.36523,.00635-4.58789,.95166-6.25781,2.66211-3.46777,3.54932-3.4541,9.31055,.03125,12.84277l6.67822,6.76721-9.55322,9.42419L14.5918,40.84033c-2.46777-2.43457-3.83301-5.68164-3.8418-9.14258-.00879-3.46143,1.33887-6.71631,3.79492-9.16455Z"/></svg>