<svg id="DO_NOT_TOUCH_Outlines_" data-name="DO NOT TOUCH (Outlines)" xmlns="http://www.w3.org/2000/svg" viewBox="0 0 80 80"><path d="M64.75,66.75V48h-1.5V69.25H52.58l-11.22-42,9.89,4.4V36h1.5V32.27l1,.42.6-1.38-13.43-6-3.75-14,10.13,4.34V20h1.5V16.28l1,.41.6-1.38-14-6a.78.78,0,0,0-.6,0l-14,6,.6,1.38.95-.41V20h1.5V15.64l10.13-4.35-3.71,14-13.47,6,.6,1.38.95-.43V36h1.5V31.6l9.93-4.41-5.3,20.06H10a.75.75,0,0,0-.59.29.77.77,0,0,0-.14.64l4,16a.76.76,0,0,0,.73.57h5.25v4.5H8v1.5H72v-1.5H64.75ZM43.83,42.28,37.38,38l4.5-3ZM36,12.92l3.11,11.64L36.3,23.31a.78.78,0,0,0-.6,0l-2.77,1.23Zm0,11.9,3.6,1.6,1.88,7L36,37.1l-5.45-3.62,1.87-7.08ZM34.67,38l-6.44,4.31L30.16,35Zm-10,25.25L23,56.84h8.4L33,63.25Zm-2-8L21,48.75h8.39L31,55.22Zm-3.28-6.47L21,55.22h-8.4L11,48.75ZM13,56.84h8.4L23,63.25H14.59Zm7.77,7.91H34a.75.75,0,0,0,.59-.29.77.77,0,0,0,.14-.64l-4-16a.76.76,0,0,0-.73-.57H26.93l.72-2.75L36,38.9l8.39,5.57L51,69.25H20.75Z"/><polygon points="63.77 44.83 69.47 50.53 70.53 49.47 64.91 43.85 68.67 36.34 67.33 35.66 63.48 43.36 55.82 45.27 56.18 46.73 63.77 44.83"/><path d="M62,22.75A4.75,4.75,0,1,0,57.25,18,4.75,4.75,0,0,0,62,22.75Zm0-8A3.25,3.25,0,1,1,58.75,18,3.26,3.26,0,0,1,62,14.75Z"/><rect x="52" y="17.25" width="4" height="1.5"/><rect x="68" y="17.25" width="4" height="1.5"/><rect x="61.25" y="8" width="1.5" height="4"/><rect x="61.25" y="24" width="1.5" height="4"/><rect x="65.66" y="11.59" width="4" height="1.5" transform="translate(11.09 51.46) rotate(-45)"/><rect x="54.34" y="22.91" width="4" height="1.5" transform="translate(-0.23 46.77) rotate(-45)"/><rect x="66.91" y="21.66" width="1.5" height="4" transform="translate(3.09 54.78) rotate(-45)"/><rect x="55.59" y="10.34" width="1.5" height="4" transform="translate(7.78 43.46) rotate(-45)"/></svg>