<?xml version="1.0" encoding="UTF-8"?><svg id="a" xmlns="http://www.w3.org/2000/svg" viewBox="0 0 80 80"><path d="M38,9.25h-15.54102c-1.76953,0-3.20898,1.43945-3.20898,3.21094l.0144,4.78906h-2.2644c-.96484,0-1.75,.78516-1.75,1.75v2c0,.96484,.78516,1.75,1.75,1.75h2.28076l.0918,30.5h-2.37256c-.96484,0-1.75,.78516-1.75,1.75v2c0,.96484,.78516,1.75,1.75,1.75h2.38916l.00732,2.5h-2.39648c-.96484,0-1.75,.78516-1.75,1.75v2c0,.96484,.78516,1.75,1.75,1.75h2.41309l.00977,3.25c.00098,.41309,.33594,.74805,.74902,.74805l1.82715,.00195h.00586c4.06738,0,7.30762-3.9707,8.29199-7.70801l8.38867-31.87988c.04199-.09375,.06445-.19727,.06445-.30371v-.03711c0-.27637-.15039-.52148-.37891-.65137l-1.64844-1.64453c-1.93066-1.57812-2.92969-3.39062-2.96973-5.3877-.05273-2.69336,1.7207-5.89941,4.74414-8.57617,.16113-.14258,.25293-.34668,.25293-.56152v-4c0-.41406-.33594-.75-.75-.75Zm-18.75,12h-2.25c-.1377,0-.25-.1123-.25-.25v-2c0-.1377,.1123-.25,.25-.25h2.25v2.5Zm0,36h-2.25c-.1377,0-.25-.1123-.25-.25v-2c0-.1377,.1123-.25,.25-.25h2.25v2.5Zm0,8h-2.25c-.1377,0-.25-.1123-.25-.25v-2c0-.1377,.1123-.25,.25-.25h2.25v2.5ZM35.71777,29.63672l1.43945,1.43945-2.05981,7.82715-2.36499-.62793-.38477,1.44922,2.36816,.62866-.63843,2.42651-2.38208-.64307-.39062,1.44727,2.39111,.64551-.63525,2.41382-2.39844-.63745-.38477,1.44922,2.40186,.63818-3.8335,14.56689c-.85254,3.24023-3.64453,6.58984-6.84082,6.58984h-.00391l-1.08008-.00098-.07739-25.72632,14.35132-14.35034c.1709,.15601,.33789,.31348,.52295,.46436Zm-1.5625-1.5459l-13.31812,13.31738-.0105-3.5249,11.9917-11.9917c.31519,.77124,.76318,1.50537,1.33691,2.19922Zm3.09473-14.4248c-1.71387,1.57227-5.08105,5.21582-4.99609,9.50098,.00708,.36182,.04639,.71558,.10254,1.06543l-11.53638,11.53638-.07007-23.30981c0-.94238,.7666-1.70898,1.70898-1.70898h14.79102v2.91602Z"/><path d="M63,13.25h-2.41309l-.00977-3.25c-.00098-.41309-.33594-.74805-.74902-.74805l-1.82715-.00195h-.00586c-4.06738,0-7.30762,3.9707-8.29199,7.70801l-8.38867,31.87988c-.04199,.09375-.06445,.19727-.06445,.30371v.03711c0,.27637,.15039,.52148,.37891,.65137l1.64844,1.64453c1.93066,1.57812,2.92969,3.39062,2.96973,5.3877,.05273,2.69336-1.7207,5.89941-4.74414,8.57617-.16113,.14258-.25293,.34668-.25293,.56152v4c0,.41406,.33594,.75,.75,.75h15.54102c1.76953,0,3.20898-1.43945,3.20898-3.21094l-.0144-4.78906h2.2644c.96484,0,1.75-.78516,1.75-1.75v-2c0-.96484-.78516-1.75-1.75-1.75h-2.28076l-.0918-30.5h2.37256c.96484,0,1.75-.78516,1.75-1.75v-2c0-.96484-.78516-1.75-1.75-1.75h-2.38916l-.00732-2.5h2.39648c.96484,0,1.75-.78516,1.75-1.75v-2c0-.96484-.78516-1.75-1.75-1.75Zm-18.71777,37.11328l-1.43945-1.43945,2.05981-7.82715,2.36499,.62793,.38477-1.44922-2.36816-.62866,.63843-2.42651,2.38208,.64307,.39062-1.44727-2.39111-.64551,.63525-2.41382,2.39844,.63745,.38477-1.44922-2.40186-.63818,3.8335-14.56689c.85254-3.24023,3.64453-6.58984,6.84082-6.58984h.00391l1.08008,.00098,.07739,25.72632-14.35132,14.35034c-.1709-.15601-.33789-.31348-.52295-.46436Zm1.5625,1.5459l13.31812-13.31738,.0105,3.5249-11.9917,11.9917c-.31519-.77124-.76318-1.50537-1.33691-2.19922Zm11.69629,17.34082h-14.79102v-2.91602c1.71387-1.57227,5.08105-5.21582,4.99609-9.50098-.00708-.36182-.04639-.71558-.10254-1.06543l11.53638-11.53638,.07007,23.30981c0,.94238-.7666,1.70898-1.70898,1.70898Zm3.20898-10.5h2.25c.1377,0,.25,.1123,.25,.25v2c0,.1377-.1123,.25-.25,.25h-2.25v-2.5Zm0-36h2.25c.1377,0,.25,.1123,.25,.25v2c0,.1377-.1123,.25-.25,.25h-2.25v-2.5Zm2.5-5.75c0,.1377-.1123,.25-.25,.25h-2.25v-2.5h2.25c.1377,0,.25,.1123,.25,.25v2Z"/></svg>