<?xml version="1.0" encoding="UTF-8"?><svg id="a" xmlns="http://www.w3.org/2000/svg" viewBox="0 0 80 80"><path d="M66.32812,31.2832c-2.24854-12.60278-13.45508-22.0332-26.32812-22.0332S15.92041,18.68042,13.67188,31.2832c-2.46387,.17212-4.42188,2.20996-4.42188,4.7168v8c0,2.61914,2.13086,4.75,4.75,4.75h4c.41406,0,.75-.33594,.75-.75v-16c0-.41406-.33594-.75-.75-.75h-2.77832c2.24658-11.74268,12.73047-20.5,24.77832-20.5s22.53174,8.75732,24.77832,20.5h-2.77832c-.41406,0-.75,.33594-.75,.75v16c0,.41406,.33594,.75,.75,.75h3.21191c-.39673,9.1626-7.95337,16.5-17.21191,16.5h-3.32593c-.36255-2.26172-2.31177-4-4.67407-4-2.61914,0-4.75,2.13086-4.75,4.75s2.13086,4.75,4.75,4.75c2.3623,0,4.31152-1.73828,4.67407-4h3.32593c10.11011,0,18.35498-8.04883,18.71582-18.07227,2.27808-.34863,4.03418-2.30371,4.03418-4.67773v-8c0-2.50684-1.95801-4.54468-4.42188-4.7168Zm-49.07812,1.4668v14.5h-3.25c-1.79199,0-3.25-1.45801-3.25-3.25v-8c0-1.79199,1.45801-3.25,3.25-3.25h3.25Zm22.75,36.5c-1.79199,0-3.25-1.45801-3.25-3.25s1.45801-3.25,3.25-3.25,3.25,1.45801,3.25,3.25-1.45801,3.25-3.25,3.25Zm29.25-25.25c0,1.79199-1.45801,3.25-3.25,3.25h-3.25v-14.5h3.25c1.79199,0,3.25,1.45801,3.25,3.25v8Z"/><path d="M43.9502,48q0-2.88965,2.98047-5.86963c1.19043-1.18945,1.81934-3.03271,1.81934-5.33057,0-4.82471-3.9248-8.75-8.75-8.75s-8.75,3.92529-8.75,8.75c0,2.29785,.62891,4.14111,1.81934,5.33057q2.98047,2.97998,2.98047,5.86963c0,.41406,.33594,.75,.75,.75h6.40039c.41406,0,.75-.33594,.75-.75Zm-6.40479-.75c-.03223-2.70703-.35547-3.12109-3.41553-6.18018-1.14062-1.14014-1.37988-2.95117-1.37988-4.27002,0-3.99756,3.25195-7.25,7.25-7.25s7.25,3.25244,7.25,7.25c0,1.31885-.23926,3.12988-1.37988,4.27002-3.06006,3.05908-3.3833,3.47314-3.41553,6.18018h-4.90918Z"/><rect x="36.7998" y="50.4502" width="6.40039" height="1.5"/></svg>