<?xml version="1.0" encoding="UTF-8"?><svg id="a" xmlns="http://www.w3.org/2000/svg" viewBox="0 0 80 80"><path d="M70,9.25h-18c-.41406,0-.75,.33594-.75,.75v14.58478l-7.29102-12.6297c-.20605-.35889-.66504-.48242-1.02441-.27441l-15.58984,9c-.17188,.09912-.29785,.26318-.34961,.45557-.05176,.19189-.02441,.39648,.0752,.56885l7.49194,12.97693-12.90698-7.45154c-.35938-.2085-.81836-.08398-1.02441,.27441l-9,15.59033c-.09961,.17236-.12695,.37695-.0752,.56934,.05176,.19189,.17773,.35596,.34961,.45508l12.34619,7.13037H10c-.41406,0-.75,.33594-.75,.75v18c0,.41406,.33594,.75,.75,.75h60c.41406,0,.75-.33594,.75-.75V10c0-.41406-.33594-.75-.75-.75ZM23.25,69.25H10.75v-16.5h12.5v16.5ZM56.28418,36.30615l-9.45483,5.45782-9.67017-5.58282-1.41626-2.45331,14.29028-8.25031,6.25098,10.82861Zm4.54346,13.53925l-12.49756-7.21509,8.70386-5.02515,6.24756,10.82288-2.45386,1.41736Zm3.20361-.11841l.87915,1.52301h-1.6499l-.93335-.53876,1.7041-.98425Zm-3.77075,1.52301h-3.11206l.77783-1.34766,2.33423,1.34766ZM28.74414,21.60449l14.29102-8.25,6.24829,10.8241-14.29028,8.25037-6.24902-10.82446Zm15.76172,20.55011l-5.24854,9.0954h-12.00659l-1.82349-1.05316,8.25195-14.29272,10.82666,6.25049Zm-20.37744,7.29211l-10.82373-6.2514,8.25-14.29102,10.82568,6.24994-8.25195,14.29248Zm13.12158,19.80328h-12.5v-16.5h12.5v16.5Zm14,0h-12.5v-16.5h12.5v16.5Zm-10.26099-18l4.81592-8.34552,10.82227,6.24799-1.21069,2.09753h-14.42749Zm28.26099,18h-16.5v-16.5h16.5v16.5Zm0-18h-2.60645l-7.21606-12.5h9.82251v12.5Zm0-14h-10.68848l-5.81152-10.06689v-2.43311h16.5v12.5Zm0-14h-16.5V10.75h16.5v12.5Z"/><path d="M61,64.82178c2.10742,0,3.82227-1.71436,3.82227-3.82178s-1.71484-3.82227-3.82227-3.82227-3.82227,1.71484-3.82227,3.82227,1.71484,3.82178,3.82227,3.82178Zm0-6.14404c1.28027,0,2.32227,1.04199,2.32227,2.32227s-1.04199,2.32178-2.32227,2.32178-2.32227-1.0415-2.32227-2.32178,1.04199-2.32227,2.32227-2.32227Z"/></svg>