<?xml version="1.0" encoding="UTF-8"?><svg id="a" xmlns="http://www.w3.org/2000/svg" viewBox="0 0 80 80"><path d="M67.10742,51.78125c-.29883-1.12671-.99829-2.06934-1.95801-2.71094,1.04883-2.90527,1.60059-5.94958,1.60059-9.07031,0-3.11987-.552-6.16479-1.60034-9.07141,.95337-.6377,1.65088-1.57092,1.95288-2.68835,.33105-1.2251,.16504-2.50537-.4668-3.60596-.63184-1.1001-1.6543-1.88867-2.87988-2.21973-1.12012-.30286-2.28296-.17017-3.31836,.33691-4.04297-4.78894-9.5813-7.9873-15.72095-9.0791-.17163-2.45886-2.20239-4.41626-4.70483-4.42236h-.01074c-1.26562,0-2.45605,.49121-3.35254,1.3833-.82568,.82227-1.29272,1.89941-1.36816,3.05396-6.13428,1.09338-11.66455,4.28735-15.70605,9.07178-2.21851-1.09253-4.93896-.31433-6.19922,1.85718-.63672,1.09766-.80859,2.37695-.48242,3.60254,.29883,1.12671,.99829,2.06934,1.95801,2.71094-1.04883,2.90527-1.60059,5.94958-1.60059,9.07031s.552,6.16504,1.60083,9.07104c-.95361,.6377-1.65112,1.57104-1.95337,2.68872-.33105,1.2251-.16504,2.50537,.4668,3.60596,.63184,1.1001,1.6543,1.88867,2.87988,2.21973,.41211,.11133,.83105,.1665,1.24707,.1665,.71704,0,1.42236-.17334,2.07764-.49512,4.04321,4.78394,9.57861,7.97974,15.7146,9.0708,.17163,2.45886,2.20239,4.41626,4.70483,4.42236h.01074c1.26562,0,2.45605-.49121,3.35254-1.3833,.82593-.82227,1.29272-1.89966,1.36816-3.05408,6.13062-1.09265,11.65747-4.28357,15.698-9.06335,.66968,.33093,1.38232,.49976,2.09106,.49976,1.63867,0,3.23535-.84814,4.11621-2.36523,.63672-1.09766,.80859-2.37695,.48242-3.60254Zm-4.5957-28.03271c.28418,0,.57129,.03809,.85352,.11426,.83789,.22656,1.53711,.76562,1.96973,1.51855s.5459,1.62891,.31934,2.46729c-.22656,.83789-.76562,1.5376-1.51855,1.96973-1.55273,.89258-3.54395,.354-4.4375-1.19971-.8916-1.5542-.35352-3.54443,1.19922-4.43701,.5-.28662,1.05371-.43311,1.61426-.43311Zm-24.80469-12.05176c.61328-.61084,1.42773-.94678,2.29395-.94678h.00684c1.79199,.00439,3.24609,1.46582,3.24219,3.25781-.00391,1.78906-1.46191,3.24219-3.25098,3.24219h-.00684c-1.79199-.00439-3.24609-1.46582-3.24219-3.25732,.00195-.86865,.3418-1.68408,.95703-2.2959ZM14.67188,25.36865c.60254-1.0376,1.69531-1.61816,2.81738-1.61816,.55273,0,1.11328,.1416,1.62598,.43896,.75098,.43555,1.28711,1.1377,1.50977,1.97656s.10449,1.71436-.33105,2.46533-1.1377,1.28711-1.97656,1.50977c-.83887,.22217-1.71387,.10645-2.46582-.33057-.75-.43555-1.28711-1.1377-1.50977-1.97656s-.10547-1.71436,.33008-2.46533Zm1.96289,30.76855c-.83789-.22656-1.53711-.76562-1.96973-1.51855s-.5459-1.62891-.31934-2.46729c.22656-.83789,.76562-1.5376,1.51855-1.96973,.50879-.29199,1.06445-.43066,1.61328-.43066,1.12695,0,2.22363,.58545,2.82422,1.63037,.8916,1.5542,.35352,3.54443-1.19922,4.43701-.75293,.43213-1.62988,.54541-2.46777,.31885Zm25.6582,12.16602c-.61426,.61182-1.43164,.94385-2.30078,.94678-1.79199-.00439-3.24609-1.46582-3.24219-3.25781,.00391-1.78906,1.46191-3.24219,3.25098-3.24219h.00684c1.79199,.00439,3.24609,1.46582,3.24219,3.25732-.00195,.86865-.3418,1.68408-.95703,2.2959Zm2.2876-3.49109c-.53027-2.03821-2.36694-3.55676-4.56885-3.56213h-.01074c-2.2063,0-4.05078,1.51843-4.58252,3.56128-5.69702-1.04517-10.83276-4.01074-14.61328-8.44092,1.49683-1.47864,1.89307-3.8269,.79736-5.73608-1.10156-1.91626-3.34326-2.75891-5.3833-2.19519-.96069-2.70569-1.46924-5.53674-1.46924-8.43909,0-2.89722,.50684-5.72278,1.46387-8.42334,.41138,.11475,.83472,.17529,1.26172,.17529,.40918,0,.82031-.05322,1.22656-.16113,1.22656-.32568,2.25195-1.10938,2.88867-2.20654,.6377-1.09717,.80859-2.37646,.4834-3.60303-.22119-.83423-.66846-1.5636-1.26807-2.15283,3.77979-4.42932,8.91602-7.39563,14.61328-8.44067,.53027,2.03821,2.36694,3.55688,4.56885,3.56226h.01074c2.20605,0,4.05078-1.51843,4.58252-3.56128,5.69824,1.04517,10.8335,4.01099,14.61328,8.44116-1.49707,1.47852-1.89307,3.82678-.79736,5.73584,.87793,1.52734,2.48047,2.3833,4.12793,2.3833,.4209,0,.84473-.05981,1.26025-.17517,.95703,2.70227,1.46436,5.52905,1.46436,8.42615,0,2.90259-.50854,5.73352-1.46899,8.43872-.80444-.22449-1.65356-.25-2.48315-.02954-1.22656,.32568-2.25195,1.10938-2.88867,2.20654-.6377,1.09717-.80859,2.37646-.4834,3.60303,.22119,.83411,.66846,1.56323,1.26807,2.15247-3.78003,4.42908-8.91626,7.39563-14.61328,8.44092Zm20.74756-10.18079c-.90039,1.54834-2.88965,2.08008-4.44336,1.1792-.75098-.43555-1.28711-1.1377-1.50977-1.97656s-.10449-1.71436,.33105-2.46533,1.1377-1.28711,1.97656-1.50977c.27832-.07373,.55957-.11035,.83984-.11035,.56543,0,1.12305,.14893,1.62598,.44092,.75,.43555,1.28711,1.1377,1.50977,1.97656s.10547,1.71436-.33008,2.46533Z"/><path d="M51.55566,36.36133c-.74414,0-1.46777,.16113-2.13867,.47217-.94238-4.396-4.80566-7.5835-9.41699-7.5835-3.7793,0-7.20801,2.23779-8.76172,5.64209-.61523-.20508-1.25293-.30859-1.90527-.30859-3.35449,0-6.08301,2.729-6.08301,6.08301,0,3.35449,2.72852,6.0835,6.08301,6.0835h22.22266c2.86426,0,5.19434-2.33008,5.19434-5.19434s-2.33008-5.19434-5.19434-5.19434Zm0,8.88867H29.33301c-2.52734,0-4.58301-2.05615-4.58301-4.5835,0-2.52686,2.05566-4.58301,4.58301-4.58301,.68945,0,1.35938,.15479,1.99023,.45947,.19043,.09229,.41211,.09961,.60938,.01953,.19629-.08008,.34961-.23975,.42188-.43945,1.16309-3.21387,4.23535-5.37305,7.64551-5.37305,4.22559,0,7.70801,3.17041,8.09961,7.37402,.02539,.27295,.19727,.50977,.44824,.61865,.24902,.1084,.54102,.07275,.75781-.09521,.66406-.51416,1.44238-.78613,2.25-.78613,2.03711,0,3.69434,1.65723,3.69434,3.69434s-1.65723,3.69434-3.69434,3.69434Z"/></svg>