<?xml version="1.0" encoding="UTF-8"?><svg id="a" xmlns="http://www.w3.org/2000/svg" viewBox="0 0 80 80"><path d="M64,47.25c-2.61914,0-4.75,2.13086-4.75,4.75s2.13086,4.75,4.75,4.75,4.75-2.13086,4.75-4.75-2.13086-4.75-4.75-4.75Zm0,8c-1.79199,0-3.25-1.45801-3.25-3.25s1.45801-3.25,3.25-3.25,3.25,1.45801,3.25,3.25-1.45801,3.25-3.25,3.25Z"/><path d="M64,31.25c-2.61914,0-4.75,2.13086-4.75,4.75h1.5c0-1.79199,1.45801-3.25,3.25-3.25s3.25,1.45801,3.25,3.25-1.45801,3.25-3.25,3.25v1.5c2.61914,0,4.75-2.13086,4.75-4.75s-2.13086-4.75-4.75-4.75Z"/><path d="M66.70312,59.25h-5.40625c-2.23145,0-4.04688,1.96387-4.04688,4.37695v8.37305h1.5v-8.37305c0-1.58594,1.14258-2.87695,2.54688-2.87695h5.40625c1.4043,0,2.54688,1.29102,2.54688,2.87695v8.37305h1.5v-8.37305c0-2.41309-1.81543-4.37695-4.04688-4.37695Z"/><path d="M43.25,52c0,2.61914,2.13086,4.75,4.75,4.75s4.75-2.13086,4.75-4.75-2.13086-4.75-4.75-4.75-4.75,2.13086-4.75,4.75Zm8,0c0,1.79199-1.45801,3.25-3.25,3.25s-3.25-1.45801-3.25-3.25,1.45801-3.25,3.25-3.25,3.25,1.45801,3.25,3.25Z"/><path d="M59.25,44c0,.57227-.15039,1.13379-.43359,1.62402l1.29688,.75195c.41699-.71777,.63672-1.53906,.63672-2.37598,0-2.61914-2.13086-4.75-4.75-4.75s-4.75,2.13086-4.75,4.75c0,.83691,.21973,1.6582,.63672,2.37598l1.29688-.75195c-.2832-.49023-.43359-1.05176-.43359-1.62402,0-1.79199,1.45801-3.25,3.25-3.25s3.25,1.45801,3.25,3.25Z"/><path d="M43.25,44c0,.57227-.15039,1.13379-.43359,1.62402l1.29688,.75195c.41699-.71777,.63672-1.53906,.63672-2.37598,0-2.61914-2.13086-4.75-4.75-4.75s-4.75,2.13086-4.75,4.75c0,.83691,.21973,1.6582,.63672,2.37598l1.29688-.75195c-.2832-.49023-.43359-1.05176-.43359-1.62402,0-1.79199,1.45801-3.25,3.25-3.25s3.25,1.45801,3.25,3.25Z"/><path d="M27.25,44c0,.57227-.15039,1.13379-.43359,1.62402l1.29688,.75195c.41699-.71777,.63672-1.53906,.63672-2.37598,0-2.61914-2.13086-4.75-4.75-4.75s-4.75,2.13086-4.75,4.75c0,.83691,.21973,1.6582,.63672,2.37598l1.29688-.75195c-.2832-.49023-.43359-1.05176-.43359-1.62402,0-1.79199,1.45801-3.25,3.25-3.25s3.25,1.45801,3.25,3.25Z"/><path d="M50.70312,59.25h-5.40625c-2.23145,0-4.04688,1.96387-4.04688,4.37695v8.37305h1.5v-8.37305c0-1.58594,1.14258-2.87695,2.54688-2.87695h5.40625c1.4043,0,2.54688,1.29102,2.54688,2.87695v8.37305h1.5v-8.37305c0-2.41309-1.81543-4.37695-4.04688-4.37695Z"/><path d="M27.25,52c0,2.61914,2.13086,4.75,4.75,4.75s4.75-2.13086,4.75-4.75-2.13086-4.75-4.75-4.75-4.75,2.13086-4.75,4.75Zm8,0c0,1.79199-1.45801,3.25-3.25,3.25s-3.25-1.45801-3.25-3.25,1.45801-3.25,3.25-3.25,3.25,1.45801,3.25,3.25Z"/><path d="M34.70312,59.25h-5.40625c-2.23145,0-4.04688,1.96387-4.04688,4.37695v8.37305h1.5v-8.37305c0-1.58594,1.14258-2.87695,2.54688-2.87695h5.40625c1.4043,0,2.54688,1.29102,2.54688,2.87695v8.37305h1.5v-8.37305c0-2.41309-1.81543-4.37695-4.04688-4.37695Z"/><path d="M16,56.75c2.61914,0,4.75-2.13086,4.75-4.75s-2.13086-4.75-4.75-4.75-4.75,2.13086-4.75,4.75,2.13086,4.75,4.75,4.75Zm0-8c1.79199,0,3.25,1.45801,3.25,3.25s-1.45801,3.25-3.25,3.25-3.25-1.45801-3.25-3.25,1.45801-3.25,3.25-3.25Z"/><path d="M11.25,36c0,2.61914,2.13086,4.75,4.75,4.75v-1.5c-1.79199,0-3.25-1.45801-3.25-3.25s1.45801-3.25,3.25-3.25,3.25,1.45801,3.25,3.25h1.5c0-2.61914-2.13086-4.75-4.75-4.75s-4.75,2.13086-4.75,4.75Z"/><path d="M18.70312,59.25h-5.40625c-2.23145,0-4.04688,1.96387-4.04688,4.37695v8.37305h1.5v-8.37305c0-1.58594,1.14258-2.87695,2.54688-2.87695h5.40625c1.4043,0,2.54688,1.29102,2.54688,2.87695v8.37305h1.5v-8.37305c0-2.41309-1.81543-4.37695-4.04688-4.37695Z"/><path d="M27.25,36h1.5c0-1.79199,1.45801-3.25,3.25-3.25s3.25,1.45801,3.25,3.25h1.5c0-2.61914-2.13086-4.75-4.75-4.75s-4.75,2.13086-4.75,4.75Z"/><path d="M44.75,36c0-1.79199,1.45801-3.25,3.25-3.25s3.25,1.45801,3.25,3.25h1.5c0-2.61914-2.13086-4.75-4.75-4.75s-4.75,2.13086-4.75,4.75h1.5Z"/><rect x="39.25" y="20" width="1.5" height="8"/><rect x="42.44055" y="24.58358" width="6.1189" height="1.49983" transform="translate(1.09182 52.53551) rotate(-60.59754)"/><rect x="33.75009" y="22.27404" width="1.49983" height="6.1189" transform="translate(-7.99341 20.20061) rotate(-29.40246)"/><path d="M64.33496,19.3291l-8-4c-.23047-.11523-.50684-.10352-.72949,.0332-.2207,.13672-.35547,.37793-.35547,.6377v13.95996h1.5v-7.37402l7.43164-1.8584c.30469-.07617,.5293-.33398,.56348-.64551,.03418-.3125-.12891-.6123-.41016-.75293Zm-7.58496,1.70996v-3.8252l5.10156,2.5498-5.10156,1.27539Z"/><path d="M24.75,30V12c0-.24902-.12305-.48145-.3291-.62109s-.46875-.16895-.69922-.0752l-10,4c-.28516,.11426-.47168,.38965-.47168,.69629s.18652,.58203,.47168,.69629l9.52832,3.81128v9.49243h1.5Zm-8.73047-14l7.23047-2.89258v5.78516l-7.23047-2.89258Z"/></svg>