<svg xmlns="http://www.w3.org/2000/svg" viewBox="0 0 80 80"><path d="M70,24.75a.7502.7502,0,0,0,.75-.75V16a.7502.7502,0,0,0-.75-.75H62a.7502.7502,0,0,0-.75.75v8a.7502.7502,0,0,0,.75.75h3.25v10.5H62a.7502.7502,0,0,0-.75.75v3.25928h-8.5V28a.7502.7502,0,0,0-.75-.75H28a.7502.7502,0,0,0-.75.75V39.25067l-8.57324.008A4.67713,4.67713,0,0,0,14.75,35.3233V24.6767a4.70157,4.70157,0,0,0,2.6084-1.31781,4.74984,4.74984,0,1,0-6.7168,0A4.70157,4.70157,0,0,0,13.25,24.6767V35.3233a4.70157,4.70157,0,0,0-2.6084,1.31781,4.75566,4.75566,0,0,0,0,6.71778A4.70157,4.70157,0,0,0,13.25,44.6767V55.3233a4.70157,4.70157,0,0,0-2.6084,1.31781,4.74984,4.74984,0,1,0,6.7168,0A4.70157,4.70157,0,0,0,14.75,55.3233V44.6767a4.68,4.68,0,0,0,3.92529-3.918l8.57471-.008V52a.7502.7502,0,0,0,.75.75H52a.7502.7502,0,0,0,.75-.75V40.75928h8.5V44a.7502.7502,0,0,0,.75.75h3.25v10.5H62a.7502.7502,0,0,0-.75.75v8a.7502.7502,0,0,0,.75.75h8a.7502.7502,0,0,0,.75-.75V56a.7502.7502,0,0,0-.75-.75H66.75V44.75H70a.7502.7502,0,0,0,.75-.75V36a.7502.7502,0,0,0-.75-.75H66.75V24.75ZM11.70215,22.29834a3.25,3.25,0,1,1,4.5957,0A3.32791,3.32791,0,0,1,11.70215,22.29834Zm4.5957,35.40332a3.25353,3.25353,0,0,1,0,4.59668,3.32791,3.32791,0,0,1-4.5957,0,3.25,3.25,0,1,1,4.5957-4.59668Zm0-15.40332a3.32791,3.32791,0,0,1-4.5957,0,3.25,3.25,0,1,1,4.5957,0ZM33.21362,51.25l1.25025-2.5H45.53613l1.25025,2.5Zm18.03638,0H48.46362L46.6709,47.66455A.75019.75019,0,0,0,46,47.25H34a.75019.75019,0,0,0-.6709.41455L31.53638,51.25H28.75v-6.5h22.5Zm-18.168-8,.9375-2.5h11.5166l1.25025,2.5Zm18.168,0H48.46362L46.6709,39.66455A.75019.75019,0,0,0,46,39.25H33.5a.74942.74942,0,0,0-.70215.48682L31.48047,43.25H28.75v-6.5h22.5Zm-18.03638-8,1.25025-2.5H45.53613l1.25025,2.5Zm18.03638,0H48.46362L46.6709,31.66455A.75019.75019,0,0,0,46,31.25H34a.75019.75019,0,0,0-.6709.41455L31.53638,35.25H28.75v-6.5h22.5Zm18,21.5v6.5h-6.5v-6.5Zm0-20v6.5h-6.5v-6.5Zm-6.5-13.5v-6.5h6.5v6.5Z"/></svg>