<?xml version="1.0" encoding="UTF-8"?><svg id="a" xmlns="http://www.w3.org/2000/svg" viewBox="0 0 80 80"><path d="M9.25,58v12c0,.41406,.33594,.75,.75,.75h12c.41406,0,.75-.33594,.75-.75v-12c0-.41406-.33594-.75-.75-.75H10c-.41406,0-.75,.33594-.75,.75Zm1.5,.75h4.5v5.25h1.5v-5.25h4.5v10.5H10.75v-10.5Z"/><path d="M70,9.25h-12c-.41406,0-.75,.33594-.75,.75v12c0,.41406,.33594,.75,.75,.75h12c.41406,0,.75-.33594,.75-.75V10c0-.41406-.33594-.75-.75-.75Zm-.75,12h-10.5v-4.5h10.5v4.5Zm0-6h-10.5v-4.5h10.5v4.5Z"/><path d="M28,15.25c-10.13477,0-14.75,6.60938-14.75,12.75s4.61523,12.75,14.75,12.75h24c9.10352,0,13.25,5.83154,13.25,11.25s-4.14648,11.25-13.25,11.25H26v1.5h26c10.13477,0,14.75-6.60938,14.75-12.75s-4.61523-12.75-14.75-12.75H28c-9.10352,0-13.25-5.83154-13.25-11.25s4.14648-11.25,13.25-11.25h24.18945l-4.71973,4.71973,1.06055,1.06055,6-6c.29297-.29297,.29297-.76758,0-1.06055l-6-6-1.06055,1.06055,4.71973,4.71973H28Z"/></svg>