<?xml version="1.0" encoding="UTF-8"?><svg id="a" xmlns="http://www.w3.org/2000/svg" viewBox="0 0 80 80"><path d="M9.25977,70c0,.41406,.33594,.75,.75,.75h59.99023c.41406,0,.75-.33594,.75-.75v-29.3501h-.00464c0-.00671,.00488-.01227,.00464-.01904-.00684-.26562-.15381-.50781-.38623-.63672l-5.61377-3.11523V10c0-.41406-.33594-.75-.75-.75H16c-.41406,0-.75,.33594-.75,.75v26.8736l-5.61426,3.12054c-.23242,.12939-.37891,.37158-.38574,.63721-.00037,.01447,.00928,.02643,.00977,.04077v29.32788Zm3.80005-.75l22.56372-11.76794,3.97559,2.47449c.12109,.07568,.25879,.11328,.396,.11328s.2749-.0376,.396-.11328l3.98022-2.47662,22.56873,11.77008H13.05981Zm51.69019-30.65576l3.77197,2.09326-3.77197,2.34686v-4.44012Zm4.5,3.40558v26.76318l-23.39966-12.20337,23.39966-14.55981ZM16.75,10.75H63.25V43.96765l-23.25488,14.46887-23.24512-14.46857V10.75Zm-1.5,27.84003v4.44427l-3.77197-2.34778,3.77197-2.0965Zm-4.49023,3.41626l23.38501,14.5553-23.38501,12.19629v-26.75159Z"/><rect x="22" y="19.25" width="36" height="1.5"/><rect x="22" y="27.25" width="36" height="1.5"/><rect x="22" y="35.25" width="36" height="1.5"/></svg>