<?xml version="1.0" encoding="UTF-8"?><svg id="a" xmlns="http://www.w3.org/2000/svg" viewBox="0 0 80 80"><path d="M50.75,10c0-.41406-.33594-.75-.75-.75H30c-.41406,0-.75,.33594-.75,.75v9.25h-1.25c-4.82471,0-8.75,3.92529-8.75,8.75v24c0,4.82471,3.92529,8.75,8.75,8.75h1.25v9.25c0,.41406,.33594,.75,.75,.75h20c.41406,0,.75-.33594,.75-.75v-9.25h1.25c4.82471,0,8.75-3.92529,8.75-8.75v-7.25h3.25c.41406,0,.75-.33594,.75-.75v-8c0-.41406-.33594-.75-.75-.75h-3.25v-7.25c0-4.82471-3.92529-8.75-8.75-8.75h-1.25V10Zm10,26.75h2.5v6.5h-2.5v-6.5ZM30.75,10.75h18.5v2.5H30.75v-2.5Zm0,4h18.5v4.5H30.75v-4.5Zm18.5,54.5H30.75v-2.5h18.5v2.5Zm0-4H30.75v-4.5h18.5v4.5Zm2.75-44.5c3.99756,0,7.25,3.25244,7.25,7.25v24c0,3.99756-3.25244,7.25-7.25,7.25H28c-3.99756,0-7.25-3.25244-7.25-7.25V28c0-3.99756,3.25244-7.25,7.25-7.25h24Z"/><path d="M31.36914,36.8252l1.06055,1.06055c2.02197-2.02197,4.71094-3.13574,7.57031-3.13574s5.54834,1.11377,7.57031,3.13574l1.06055-1.06055c-2.30518-2.30566-5.37061-3.5752-8.63086-3.5752s-6.32568,1.26953-8.63086,3.5752Z"/><path d="M34.06934,39.52539l1.06055,1.06055c1.30078-1.30078,3.03027-2.01709,4.87012-2.01709s3.56934,.71631,4.87012,2.01709l1.06055-1.06055c-1.58398-1.58398-3.69043-2.45654-5.93066-2.45654s-4.34668,.87256-5.93066,2.45654Z"/><path d="M36.76953,42.22559l1.06055,1.06055c1.15918-1.15918,3.18066-1.15918,4.33984,0l1.06055-1.06055c-.8623-.86279-2.00977-1.33838-3.23047-1.33838s-2.36816,.47559-3.23047,1.33838Z"/><circle cx="40" cy="46" r="1"/></svg>