<?xml version="1.0" encoding="UTF-8"?><svg id="a" xmlns="http://www.w3.org/2000/svg" viewBox="0 0 80 80"><path d="M69.64355,26.38965l-10.89355,5.88281v-8.27246c0-.41406-.33594-.75-.75-.75H10c-.41406,0-.75,.33594-.75,.75V56c0,.41406,.33594,.75,.75,.75H58c.41406,0,.75-.33594,.75-.75v-8.31787l10.8916,5.92676c.23145,.12695,.51465,.12158,.74121-.01416,.22754-.13477,.36719-.37988,.36719-.64453V27.0498c0-.26416-.13867-.50879-.36621-.64404-.22656-.13574-.50781-.14111-.74023-.01611Zm-.39355,25.29834l-10.8916-5.92676c-.23145-.12695-.51562-.12158-.74121,.01416-.22754,.13477-.36719,.37988-.36719,.64453v8.83008H10.75V24.75H57.25v8.77979c0,.26416,.13867,.50879,.36621,.64404,.22754,.13574,.50781,.14111,.74023,.01611l10.89355-5.88281v23.38086Z"/><path d="M50,27.25c-1.5166,0-2.75,1.2334-2.75,2.75s1.2334,2.75,2.75,2.75,2.75-1.2334,2.75-2.75-1.2334-2.75-2.75-2.75Zm0,4c-.68945,0-1.25-.56055-1.25-1.25s.56055-1.25,1.25-1.25,1.25,.56055,1.25,1.25-.56055,1.25-1.25,1.25Z"/></svg>