<?xml version="1.0" encoding="UTF-8"?>
<svg id="art" xmlns="http://www.w3.org/2000/svg" viewBox="0 0 80 80">
  <defs>
    <style>
      .cls-1 {
        fill: #07182d;
      }
    </style>
  </defs>
  <path class="cls-1" d="M59.25,16h1.5c0-1.79,1.46-3.25,3.25-3.25v-1.5c-1.79,0-3.25-1.46-3.25-3.25h-1.5c0,1.79-1.46,3.25-3.25,3.25v1.5c1.79,0,3.25,1.46,3.25,3.25ZM60,10.54c.38.59.87,1.09,1.46,1.46-.59.38-1.09.87-1.46,1.46-.38-.59-.87-1.09-1.46-1.46.59-.38,1.09-.87,1.46-1.46Z"/>
  <path class="cls-1" d="M66.97,12.44h-1.5c0,2.77-2.26,5.03-5.03,5.03v1.5c2.77,0,5.03,2.26,5.03,5.03h1.5c0-2.77,2.25-5.03,5.03-5.03v-1.5c-2.77,0-5.03-2.26-5.03-5.03ZM66.22,20.97c-.62-1.17-1.58-2.13-2.75-2.75,1.17-.62,2.13-1.58,2.75-2.75.62,1.17,1.58,2.13,2.75,2.75-1.17.62-2.13,1.58-2.75,2.75Z"/>
  <path class="cls-1" d="M24.57,42.54h8.51c.38,3.49,3.34,6.21,6.92,6.21s6.55-2.73,6.92-6.21h8.51c5.14,0,9.32-4.18,9.32-9.32s-4.18-9.32-9.32-9.32h-28.48c.05-.32.08-.64.08-.96,0-3.25-2.64-5.89-5.89-5.89s-5.89,2.64-5.89,5.89c0,1.58.62,3.06,1.73,4.17l3.63,3.64c.14.14.33.22.53.22s.39-.08.53-.22l3.63-3.64c.5-.5.9-1.08,1.19-1.71h28.94c4.31,0,7.82,3.51,7.82,7.82s-3.51,7.82-7.82,7.82h-8.51c-.38-3.49-3.34-6.21-6.92-6.21s-6.55,2.73-6.92,6.21h-8.51c-5.14,0-9.32,4.18-9.32,9.32s4.18,9.32,9.32,9.32h28.48c.2,1.21.76,2.32,1.65,3.21l3.63,3.64c.14.14.33.22.53.22s.39-.08.53-.22l3.63-3.64c1.12-1.11,1.73-2.6,1.73-4.17,0-3.25-2.64-5.89-5.89-5.89-3.07,0-5.59,2.36-5.87,5.36h-28.42c-4.31,0-7.82-3.51-7.82-7.82s3.51-7.82,7.82-7.82ZM24.24,26.04s0,0,0,0l-3.1,3.11-3.1-3.11c-.83-.83-1.29-1.94-1.29-3.11,0-2.42,1.97-4.39,4.39-4.39s4.39,1.97,4.39,4.39c0,1.17-.46,2.28-1.29,3.11ZM40,36.32c3.01,0,5.46,2.45,5.46,5.46s-2.45,5.46-5.46,5.46-5.46-2.45-5.46-5.46,2.45-5.46,5.46-5.46ZM58.86,54.32c2.42,0,4.39,1.97,4.39,4.39,0,1.18-.46,2.28-1.29,3.11,0,0,0,0,0,0l-3.1,3.11-3.1-3.11c-.83-.83-1.29-1.94-1.29-3.11,0-2.42,1.97-4.39,4.39-4.39Z"/>
  <path class="cls-1" d="M21.14,20.01c-1.52,0-2.75,1.23-2.75,2.75s1.23,2.75,2.75,2.75,2.75-1.23,2.75-2.75-1.23-2.75-2.75-2.75ZM21.14,24.01c-.69,0-1.25-.56-1.25-1.25s.56-1.25,1.25-1.25,1.25.56,1.25,1.25-.56,1.25-1.25,1.25Z"/>
  <path class="cls-1" d="M58.86,61.29c1.52,0,2.75-1.23,2.75-2.75s-1.23-2.75-2.75-2.75-2.75,1.23-2.75,2.75,1.23,2.75,2.75,2.75ZM58.86,57.29c.69,0,1.25.56,1.25,1.25s-.56,1.25-1.25,1.25-1.25-.56-1.25-1.25.56-1.25,1.25-1.25Z"/>
  <path class="cls-1" d="M40,45.2c1.88,0,3.41-1.53,3.41-3.41s-1.53-3.41-3.41-3.41-3.41,1.53-3.41,3.41,1.53,3.41,3.41,3.41ZM40,39.87c1.05,0,1.91.86,1.91,1.91s-.86,1.91-1.91,1.91-1.91-.86-1.91-1.91.86-1.91,1.91-1.91Z"/>
</svg>