<?xml version="1.0" encoding="UTF-8"?><svg id="a" xmlns="http://www.w3.org/2000/svg" viewBox="0 0 80 80"><path d="M40,44.75c2.61914,0,4.75-2.13086,4.75-4.75s-2.13086-4.75-4.75-4.75-4.75,2.13086-4.75,4.75,2.13086,4.75,4.75,4.75Zm0-8c1.79199,0,3.25,1.45801,3.25,3.25s-1.45801,3.25-3.25,3.25-3.25-1.45801-3.25-3.25,1.45801-3.25,3.25-3.25Z"/><path d="M35.16943,31.63477c-.88525,.51172-2,.45703-2.8374-.13965-.64941-.46191-1.51465-.37158-2.01416,.20996-1.01807,1.18701-1.80078,2.53711-2.32715,4.01367-.2666,.74805,.08203,1.56299,.81055,1.89551,.93457,.42627,1.53857,1.36279,1.53857,2.38623,0,1.02295-.60352,1.95947-1.53711,2.38623-.72461,.33105-1.07373,1.14258-.8125,1.88721,.26025,.74219,.58398,1.45068,.9624,2.10547,.37646,.65234,.82812,1.28711,1.34229,1.88525,.51465,.59912,1.39209,.70264,2.04053,.24023,.83594-.59473,1.94922-.65039,2.83496-.13867,.88672,.51172,1.396,1.50342,1.29834,2.52539-.07666,.79785,.45508,1.50684,1.23633,1.6499,.76221,.13965,1.52881,.20947,2.29541,.20947,.78369,0,1.56689-.07324,2.34375-.21875,.75342-.14111,1.26465-.84619,1.18896-1.64014-.09814-1.02295,.41113-2.01465,1.29736-2.52686,.88672-.51123,2.00098-.45605,2.8374,.13965,.6499,.46289,1.51562,.37207,2.01416-.20996,1.01807-1.18701,1.80078-2.53711,2.32715-4.01367,.2666-.74805-.08203-1.56299-.81055-1.89551-.93457-.42627-1.53857-1.36279-1.53857-2.38623,0-1.02295,.60352-1.95947,1.53711-2.38623,.72461-.33105,1.07373-1.14258,.8125-1.88721-.26025-.74219-.58398-1.45068-.9624-2.10547-.37646-.65234-.82812-1.28662-1.34229-1.88525s-1.39014-.70166-2.04053-.24023c-.83496,.5957-1.94775,.65088-2.83496,.13867-.88672-.51172-1.396-1.50342-1.29834-2.52539,.07666-.79785-.45508-1.50684-1.23633-1.6499-1.5415-.28223-3.10254-.27832-4.63916,.00928-.75342,.14111-1.26465,.84619-1.18896,1.64014,.09814,1.02295-.41113,2.01465-1.29736,2.52686Zm2.7627-2.69238c1.35645-.25488,2.7334-.25781,4.10596,.02295-.15381,1.60547,.64746,3.16309,2.0415,3.96729,1.39307,.80469,3.14209,.71973,4.45508-.21533,.02246-.01709,.02881-.00879,.03271-.00439,.45361,.52783,.85107,1.08545,1.18115,1.65771,.33154,.57422,.61621,1.19727,.82568,1.87842-1.46631,.66992-2.41406,2.14209-2.41406,3.75049,0,1.60938,.94824,3.08203,2.43604,3.77832-.46387,1.30225-1.15479,2.49365-2.05762,3.50537-1.31494-.93652-3.06348-1.02197-4.45801-.2168-1.39404,.80518-2.19482,2.36328-2.0127,3.99121-1.35693,.25488-2.7334,.25781-4.10596-.02295,.15381-1.60547-.64746-3.16309-2.0415-3.96729-.63574-.36719-1.34521-.54932-2.05713-.54932-.84814,0-1.69873,.2583-2.43066,.76904-.45361-.52783-.85107-1.08545-1.18115-1.65771-.33154-.57422-.61621-1.19727-.82568-1.87842,1.46631-.66992,2.41406-2.14209,2.41406-3.75049,0-1.60938-.94824-3.08203-2.43604-3.77832,.46387-1.30225,1.15479-2.49365,2.05762-3.50537,1.31543,.93604,3.06396,1.02197,4.45801,.2168s2.19482-2.36328,2.0127-3.99121Z"/><path d="M26,59.25h-8c-.41406,0-.75,.33594-.75,.75v8h1.5v-5.78192c5.74634,5.50806,13.2417,8.53192,21.25,8.53192,16.95557,0,30.75-13.79443,30.75-30.75,0-4.91455-1.18799-9.80273-3.43506-14.13721l-1.33203,.69043c2.16797,4.18066,3.26709,8.70508,3.26709,13.44678,0,16.12842-13.12158,29.25-29.25,29.25-7.80078,0-15.08838-3.01837-20.60278-8.5h6.60278v-1.5Z"/><path d="M12.68506,54.13721l1.33203-.69043c-2.16797-4.18066-3.26709-8.70508-3.26709-13.44678,0-16.12842,13.12158-29.25,29.25-29.25,7.80078,0,15.08838,3.01837,20.60278,8.5h-6.60278v1.5h8c.41406,0,.75-.33594,.75-.75V12h-1.5v5.78192c-5.74634-5.50806-13.2417-8.53192-21.25-8.53192-16.95557,0-30.75,13.79443-30.75,30.75,0,4.91455,1.18799,9.80273,3.43506,14.13721Z"/></svg>