<?xml version="1.0" encoding="UTF-8"?><svg id="a" xmlns="http://www.w3.org/2000/svg" viewBox="0 0 80 80"><path d="M16.49902,51.50098c4.8252,4.82471,11.16309,7.2373,17.50098,7.2373,6.10278,0,12.19165-2.26056,16.94385-6.73395l18.52588,18.52594,1.06055-1.06055-18.52588-18.52588c9.11914-9.68713,8.96704-24.97394-.50342-34.44482-9.65039-9.64941-25.35156-9.64941-35.00195,0-9.64941,9.6499-9.64941,25.35205,0,35.00195Zm1.06055-33.94141c4.53223-4.53223,10.48633-6.79834,16.44043-6.79834s11.9082,2.26611,16.44043,6.79834c9.06348,9.06543,9.06445,23.81592,0,32.88086-9.06445,9.06396-23.81445,9.06494-32.88086,0-9.06445-9.06543-9.06445-23.81543,0-32.88086Z"/><path d="M29.25,46c0,.41406,.33594,.75,.75,.75h8c.41406,0,.75-.33594,.75-.75,0-3.58203,4.15625-6.8916,4.26562-6.98438,4.97168-4.97119,4.97168-13.06006,0-18.03125-2.40723-2.4082-5.60938-3.73438-9.01562-3.73438s-6.6084,1.32617-9.01562,3.73438c-4.97168,4.97119-4.97168,13.06006,.06738,18.09131,.04199,.03271,4.19824,3.33105,4.19824,6.92432Zm-3.20508-23.95508c2.12402-2.125,4.94922-3.29492,7.95508-3.29492s5.83105,1.16992,7.95508,3.29492c4.38672,4.38623,4.38672,11.52393,.06738,15.8501-.18359,.14355-4.25195,3.37598-4.72754,7.35498h-2.54492v-14.5h3.25v-1.5h-8v1.5h3.25v14.5h-2.54492c-.47559-3.979-4.54004-7.20752-4.66016-7.29492-4.38672-4.38623-4.38672-11.52393,0-15.91016Z"/><rect x="30" y="49.25" width="8" height="1.5"/></svg>