<?xml version="1.0" encoding="UTF-8"?><svg id="a" xmlns="http://www.w3.org/2000/svg" viewBox="0 0 80 80"><path d="M10.53027,15.46973l-1.06055,1.06055,2,2c.29297,.29297,.76758,.29297,1.06055,0l1.46973-1.46973,1.46973,1.46973c.29297,.29297,.76758,.29297,1.06055,0l1.46973-1.46973,1.46973,1.46973c.29297,.29297,.76758,.29297,1.06055,0l1.46973-1.46973,1.46973,1.46973c.29297,.29297,.76758,.29297,1.06055,0l1.46973-1.46973,1.46973,1.46973c.14648,.14648,.33789,.21973,.53027,.21973s.38379-.07324,.53027-.21973l1.46973-1.46973,1.25,1.25V58.18945L14.53027,41.46973c-.14062-.14062-.33105-.21973-.53027-.21973h-2c-.41406,0-.75,.33594-.75,.75v2c0,.19873,.0791,.38965,.21973,.53027l20,20,.12451-.12445c1.04858,3.65723,4.41577,6.34418,8.40576,6.34418,4.8252,0,8.75-3.92529,8.75-8.75v-23.29218l4.62598,7.70819c4.00293,6.00488,8.14258,12.21436,14.38672,14.29541,.07715,.02588,.15723,.03857,.2373,.03857,.15527,0,.30957-.04834,.43848-.1416,.19531-.14111,.31152-.36719,.31152-.6084v-8c0-.13379-.03613-.26514-.10352-.38037L48.73877,17.77637c-.12012-4.72076-3.98901-8.52637-8.73877-8.52637-4.26074,0-7.81494,3.06238-8.58911,7.1004l-.88062-.88068c-.29297-.29297-.76758-.29297-1.06055,0l-1.46973,1.46973-1.46973-1.46973c-.29297-.29297-.76758-.29297-1.06055,0l-1.46973,1.46973-1.46973-1.46973c-.29297-.29297-.76758-.29297-1.06055,0l-1.46973,1.46973-1.46973-1.46973c-.29297-.29297-.76758-.29297-1.06055,0l-1.46973,1.46973-1.46973-1.46973c-.29297-.29297-.76758-.29297-1.06055,0l-1.46973,1.46973-1.46973-1.46973Zm38.21973,5.28467l18.5,31.44971v6.70898c-5.2334-2.23975-8.98633-7.87012-12.60645-13.29883l-5.89355-9.82257v-15.03729Zm-16-2.75439c0-3.99756,3.25195-7.25,7.25-7.25s7.25,3.25244,7.25,7.25V62c0,3.99756-3.25195,7.25-7.25,7.25s-7.25-3.25244-7.25-7.25V18ZM12.75,43.68945v-.93945h.93945l17.56055,17.56055v1.68945c0,.06738,.00854,.13257,.01025,.19958L12.75,43.68945Z"/><circle cx="40" cy="18" r="1"/><circle cx="40" cy="64" r="1"/></svg>