<?xml version="1.0" encoding="UTF-8"?><svg id="a" xmlns="http://www.w3.org/2000/svg" viewBox="0 0 80 80"><path d="M70.53027,14.53027l-1.06055-1.06055-9.78027,9.78027H20.31055L10.53027,13.46973l-1.06055,1.06055,9.78027,9.78027v39.68945c0,.41406,.33594,.75,.75,.75H60c.41406,0,.75-.33594,.75-.75V24.31055l9.78027-9.78027Zm-27.28027,10.21973v14.5h-6.3125l-.17822-14.5h6.49072Zm16,38.5H20.75V24.75h14.50903l.18726,15.25879c.00488,.41113,.33984,.74121,.75,.74121h7.80371c.41406,0,.75-.33594,.75-.75v-15.25h14.5V63.25Z"/></svg>