<?xml version="1.0" encoding="UTF-8"?>
<svg id="DO_NOT_TOUCH_Outlines_" data-name="DO NOT TOUCH (Outlines)" xmlns="http://www.w3.org/2000/svg" viewBox="0 0 80 80">
  <path d="m18,64.65c-.09,0-.18-.02-.27-.05-.29-.11-.48-.39-.48-.7v-9.15h-7.25c-.41,0-.75-.34-.75-.75V22c0-.41.34-.75.75-.75h10v1.5h-9.25v30.5h7.25c.41,0,.75.34.75.75v7.99l7.84-8.5c.14-.15.34-.24.55-.24h18.11v-13.25h1.5v14c0,.41-.34.75-.75.75h-18.53l-8.92,9.66c-.15.16-.35.24-.55.24Z"/>
  <path d="m60,70.75c-.19,0-.39-.08-.53-.22l-9.78-9.78h-21.69v-1.5h22c.2,0,.39.08.53.22l8.72,8.72v-8.19c0-.41.34-.75.75-.75h9.25V22h1.5v38c0,.41-.34.75-.75.75h-9.25v9.25c0,.3-.18.58-.46.69-.09.04-.19.06-.29.06Z"/>
  <path d="m58,40.75c-.19,0-.39-.08-.53-.22l-5.78-5.78h-25.69c-.41,0-.75-.34-.75-.75V10c0-.41.34-.75.75-.75h38c.41,0,.75.34.75.75v24c0,.41-.34.75-.75.75h-5.25v5.25c0,.3-.18.58-.46.69-.09.04-.19.06-.29.06Zm-31.25-7.5h25.25c.2,0,.39.08.53.22l4.72,4.72v-4.19c0-.41.34-.75.75-.75h5.25V10.75H26.75v22.5Z"/>
</svg>