<?xml version="1.0" encoding="UTF-8"?>
<svg id="art" xmlns="http://www.w3.org/2000/svg" viewBox="0 0 80 80">
  <defs>
    <style>
      .cls-1, .cls-2, .cls-3, .cls-4 {
        fill: none;
        stroke: currentColor;
      }

      .cls-1, .cls-2, .cls-4 {
        stroke-width: 1.5px;
      }

      .cls-1, .cls-3 {
        stroke-miterlimit: 10;
      }

      .cls-2, .cls-4 {
        stroke-linejoin: round;
      }

      .cls-3 {
        stroke-width: 2px;
      }

      .cls-3, .cls-4 {
        stroke-linecap: round;
      }
    </style>
  </defs>
  <g>
    <path class="cls-1" d="m16.2,25c-.13-.65-.2-1.32-.2-2,0-5.52,4.48-10,10-10,3.27,0,6.18,1.57,8,4"/>
    <path class="cls-1" d="m35.8,21c.13.65.2,1.32.2,2,0,5.52-4.48,10-10,10-3.27,0-6.18-1.57-8-4"/>
    <polyline class="cls-2" points="34 11 34 17 28 17"/>
    <polyline class="cls-2" points="24 29 18 29 18 35"/>
  </g>
  <path class="cls-4" d="m26,39v10"/>
  <polyline class="cls-4" points="22 43 26 39 30 43"/>
  <line class="cls-2" x1="33.93" y1="63" x2="63.93" y2="63"/>
  <g>
    <line class="cls-3" x1="15.93" y1="63" x2="15.93" y2="63"/>
    <line class="cls-3" x1="21.93" y1="63" x2="21.93" y2="63"/>
    <line class="cls-3" x1="27.93" y1="63" x2="27.93" y2="63"/>
  </g>
  <polyline class="cls-2" points="42 55 70 55 70 71 10 71 10 65"/>
  <line class="cls-2" x1="26" y1="55" x2="30" y2="55"/>
  <line class="cls-2" x1="18" y1="55" x2="22" y2="55"/>
  <polyline class="cls-2" points="10 61 10 55 14 55"/>
  <rect class="cls-4" x="45.79" y="38.84" width="4.24" height="8.49" transform="translate(-16.43 46.5) rotate(-45)"/>
  <path class="cls-4" d="m49.41,35.59l14.29-14.29c.39-.39,1.02-.39,1.41,0l4.59,4.59c.39.39.39,1.02,0,1.41l-14.29,14.29-6-6Z"/>
  <line class="cls-2" x1="46.41" y1="44.59" x2="36" y2="55"/>
  <line class="cls-4" x1="50.92" y1="37.09" x2="48.41" y2="39.59"/>
  <line class="cls-4" x1="53.91" y1="40.08" x2="51.47" y2="42.53"/>
</svg>