<?xml version="1.0" encoding="UTF-8"?><svg id="a" xmlns="http://www.w3.org/2000/svg" viewBox="0 0 80 80"><rect x="30.24951" y="29.96878" width="1.50098" height="32.06244" transform="translate(-2.80903 2.02331) rotate(-3.57633)"/><rect x="39.25" y="30" width="1.5" height="32"/><rect x="32.96878" y="45.24951" width="32.06244" height="1.50098" transform="translate(.02931 92.0312) rotate(-86.41901)"/><path d="M66,15.25h-17.25v-3.14746c0-1.57324-1.30957-2.85254-2.91992-2.85254h-11.66016c-1.61035,0-2.91992,1.2793-2.91992,2.85254v3.14746H14c-.41406,0-.75,.33594-.75,.75v6c0,.41406,.33594,.75,.75,.75h5.28467l3.56006,45.31543c.12402,1.43164,1.30176,2.51172,2.73926,2.51172h28.83203c1.4375,0,2.61523-1.08008,2.74023-2.51855l3.55908-45.30859h5.28467c.41406,0,.75-.33594,.75-.75v-6c0-.41406-.33594-.75-.75-.75Zm-33.25-3.14746c0-.74609,.63672-1.35254,1.41992-1.35254h11.66016c.7832,0,1.41992,.60645,1.41992,1.35254v3.14746h-14.5v-3.14746Zm22.91113,55.83203c-.05664,.65137-.5918,1.14258-1.24512,1.14258H25.58398c-.65332,0-1.18848-.49121-1.24414-1.13574l-3.5498-45.19141H59.20996l-3.54883,45.18457Zm9.58887-46.68457H14.75v-4.5h50.5v4.5Z"/></svg>