<?xml version="1.0" encoding="UTF-8"?><svg id="a" xmlns="http://www.w3.org/2000/svg" viewBox="0 0 80 80"><path d="M17.25,12v56c0,1.5166,1.2334,2.75,2.75,2.75H60c1.5166,0,2.75-1.2334,2.75-2.75V12c0-1.5166-1.2334-2.75-2.75-2.75H20c-1.5166,0-2.75,1.2334-2.75,2.75Zm1.5,0c0-.68945,.56055-1.25,1.25-1.25H60c.68945,0,1.25,.56055,1.25,1.25v56c0,.68945-.56055,1.25-1.25,1.25H20c-.68945,0-1.25-.56055-1.25-1.25V12Z"/><rect x="36" y="15.25" width="6" height="1.5"/><path d="M40,61.25c-1.5166,0-2.75,1.2334-2.75,2.75s1.2334,2.75,2.75,2.75,2.75-1.2334,2.75-2.75-1.2334-2.75-2.75-2.75Zm0,4c-.68945,0-1.25-.56055-1.25-1.25s.56055-1.25,1.25-1.25,1.25,.56055,1.25,1.25-.56055,1.25-1.25,1.25Z"/></svg>