<svg xmlns="http://www.w3.org/2000/svg" viewBox="0 0 80 80"><path d="M61.667,32.5835a8.88462,8.88462,0,0,0-4.49023,1.21875,17.404,17.404,0,0,0-33.251-3.80127A10.58906,10.58906,0,0,0,20,29.25a10.75,10.75,0,0,0,0,21.5h4v-1.5H20a9.25,9.25,0,0,1,0-18.5,9.1545,9.1545,0,0,1,4.01562.92773.7491.7491,0,0,0,1.03126-.41992,15.9031,15.9031,0,0,1,30.79394,3.91455.75047.75047,0,0,0,1.207.52344A7.48766,7.48766,0,0,1,61.667,34.0835a7.58325,7.58325,0,0,1,0,15.1665H56v1.5h5.667a9.08325,9.08325,0,0,0,0-18.1665Z"/><path d="M52.75,44a.75058.75058,0,0,0-.5127-.71143l-12-4a.74483.74483,0,0,0-.4746,0l-12,4a.74995.74995,0,0,0,0,1.42286l12,4a.74927.74927,0,0,0,.4746,0l12-4A.75058.75058,0,0,0,52.75,44ZM40,47.20947,30.37207,44,40,40.79053,49.62793,44Z"/><path d="M51.7627,49.28857,40,53.20947l-11.7627-3.9209-.4746,1.42286,12,4a.74927.74927,0,0,0,.4746,0l12-4Z"/><path d="M28.2373,55.28857l-.4746,1.42286,12,4a.74927.74927,0,0,0,.4746,0l12-4-.4746-1.42286L40,59.20947Z"/></svg>