<svg xmlns="http://www.w3.org/2000/svg" viewBox="0 0 80 80"><path d="M40,9.25A30.78457,30.78457,0,0,0,9.25,40h1.5a29.25,29.25,0,0,1,58.5,0h1.5A30.78457,30.78457,0,0,0,40,9.25Z"/><path d="M57.832,34.20605a3.74965,3.74965,0,0,0-7.292,1.58106l-4.39795,1.42871A6.76061,6.76061,0,0,0,40.75,33.29419v-4.62a3.75,3.75,0,1,0-1.5,0v4.62a6.76061,6.76061,0,0,0-5.39209,3.92163L29.46,35.78711a3.74971,3.74971,0,1,0-4.88476,3.144,3.74979,3.74979,0,0,0,4.42138-1.71753l4.39112,1.42652A6.72915,6.72915,0,0,0,35.457,44.97766l-2.7207,3.744a3.75116,3.75116,0,1,0,1.21289.88184l2.71826-3.741a6.7008,6.7008,0,0,0,6.665,0l2.71826,3.741a3.748,3.748,0,1,0,1.21289-.88208L44.543,44.97766a6.72915,6.72915,0,0,0,2.06933-6.33752l4.39161-1.42652a3.75636,3.75636,0,0,0,3.25781,1.90308A3.75522,3.75522,0,0,0,57.832,34.20605Zm-29.958,1.8545a2.24927,2.24927,0,1,1-.13476-1.71729A2.23916,2.23916,0,0,1,27.874,36.06055Zm5.12989,17.397a2.24878,2.24878,0,1,1-.498-3.14258A2.2527,2.2527,0,0,1,33.00391,53.45752Zm14.49023-3.14258a2.25016,2.25016,0,1,1-.498,3.14258A2.23794,2.23794,0,0,1,47.49414,50.31494ZM37.75,25A2.25,2.25,0,1,1,40,27.25,2.25278,2.25278,0,0,1,37.75,25ZM40,45.25A5.25,5.25,0,1,1,45.25,40,5.25605,5.25605,0,0,1,40,45.25Zm14.96191-7.74561A2.25,2.25,0,1,1,56.40625,34.669,2.23695,2.23695,0,0,1,54.96191,37.50439Z"/><path d="M40,15.25A24.75,24.75,0,1,0,56.94971,58.01038l10.52,10.51989,1.06054-1.06054-10.52-10.5199A24.73108,24.73108,0,0,0,40,15.25Zm0,48A23.25,23.25,0,1,1,63.25,40,23.27605,23.27605,0,0,1,40,63.25Z"/></svg>