<?xml version="1.0" encoding="UTF-8"?><svg id="a" xmlns="http://www.w3.org/2000/svg" viewBox="0 0 80 80"><path d="M63.05762,26.57324c-3.89844-2.73438-12.07812-7.32324-23.05762-7.32324s-19.15918,4.58887-23.05762,7.32324c-5.97852,4.19434-9.69238,9.33887-9.69238,13.42676s3.71387,9.23242,9.69238,13.42676c3.89844,2.73438,12.07812,7.32324,23.05762,7.32324s19.15918-4.58887,23.05762-7.32324c5.97852-4.19434,9.69238-9.33887,9.69238-13.42676s-3.71387-9.23242-9.69238-13.42676Zm-23.05762,32.67676c-17.39233,0-30.27124-11.74731-31.19189-18.5H31.25v1.25h1.5v-1.25h2.5v1.25h1.5v-1.25h2.5v1.25h1.5v-1.25h2.5v1.25h1.5v-1.25h2.5v1.25h1.5v-1.25h22.44189c-.92065,6.75269-13.79956,18.5-31.19189,18.5Zm8.75-20v-1.25h-1.5v1.25h-2.5v-1.25h-1.5v1.25h-2.5v-1.25h-1.5v1.25h-2.5v-1.25h-1.5v1.25h-2.5v-1.25h-1.5v1.25H8.80811c.92065-6.75269,13.79956-18.5,31.19189-18.5s30.27124,11.74731,31.19189,18.5h-22.44189Z"/></svg>