<?xml version="1.0" encoding="UTF-8"?><svg id="a" xmlns="http://www.w3.org/2000/svg" viewBox="0 0 80 80"><path d="M50.75,66c0-7.58936,6.68604-14.43311,6.75098-14.49902,9.65039-9.6499,9.65039-25.35205,0-35.00195-4.6748-4.6748-10.89014-7.24902-17.50098-7.24902s-12.82617,2.57422-17.50098,7.24902c-9.65039,9.6499-9.65039,25.35205-.00244,34.99951,.06738,.06836,6.75342,6.91211,6.75342,14.50146v.75h21.5v-.75Zm-11.5-16.8374c-3.47559-.79199-6.2998-7.00647-6.4812-14.4126h6.4812v14.4126Zm-7.98083-14.4126c.13354,6.02991,1.85095,11.13684,4.40442,13.86572-6.07532-1.802-10.56348-7.29211-10.88562-13.86572h6.4812Zm-6.4812-1.5c.32214-6.57361,4.8103-12.06372,10.88562-13.86572-2.55347,2.72888-4.27087,7.83582-4.40442,13.86572h-6.4812Zm14.46204,0h-6.4812c.1814-7.40613,3.00562-13.62061,6.4812-14.4126v14.4126Zm1.5,32v-14.53809c8.88672-.39636,16-7.72925,16-16.71191,0-9.23584-7.51416-16.75-16.75-16.75s-16.75,7.51416-16.75,16.75c0,8.98267,7.11328,16.31555,16,16.71191v14.53809h-8.51904c-.39648-7.88916-6.88477-14.52051-7.17139-14.80957-9.06543-9.06543-9.06543-23.81543,0-32.88086,4.3916-4.39111,10.23047-6.80957,16.44043-6.80957s12.04883,2.41846,16.44043,6.80957c9.06543,9.06543,9.06543,23.81543-.00244,32.88281-.28418,.28711-6.77246,6.91846-7.16895,14.80762h-8.51904Zm7.98083-32c-.13354-6.02991-1.85095-11.13684-4.40442-13.86572,6.07532,1.802,10.56348,7.29211,10.88562,13.86572h-6.4812Zm6.4812,1.5c-.32214,6.57361-4.8103,12.06372-10.88562,13.86572,2.55347-2.72888,4.27087-7.83582,4.40442-13.86572h6.4812Zm-7.98083-1.5h-6.4812v-14.4126c3.47559,.79199,6.2998,7.00647,6.4812,14.4126Zm0,1.5c-.1814,7.40613-3.00562,13.62061-6.4812,14.4126v-14.4126h6.4812Z"/><rect x="30" y="69.25" width="20" height="1.5"/></svg>