<?xml version="1.0" encoding="UTF-8"?><svg id="a" xmlns="http://www.w3.org/2000/svg" viewBox="0 0 80 80"><path d="M70.09863,17.25H10c-.41406,0-.75,.33594-.75,.75V62c0,.41406,.33594,.75,.75,.75h60.09863c.41406,0,.75-.33594,.75-.75V18c0-.41406-.33594-.75-.75-.75Zm-.75,44H10.75V18.75h58.59863V61.25Z"/><rect x="39.24121" y="22" width="1.5" height="36"/><path d="M20.71777,45.94531v-5.21582h2.51465v17.27051h1.53516V22h-1.53516v17.22949h-2.51465v-5.1748c0-.41406-.33594-.75-.75-.75h-5.96777v1.5h5.21777v10.39062h-5.21777v1.5h5.96777c.41406,0,.75-.33594,.75-.75Z"/><polygon points="32.75 58 32.75879 58 32.75879 22 32.75 22 31.25879 22 31.25 22 31.25 58 31.25879 58 32.75 58"/><rect x="35.25" y="54" width="1.5" height="2"/><rect x="27.25" y="54" width="1.5" height="2"/><path d="M56.76953,40.77051h2.49414v5.1748c0,.41406,.33594,.75,.75,.75h5.96875v-1.5h-5.21875v-10.39062h5.21875v-1.5h-5.96875c-.41406,0-.75,.33594-.75,.75v5.21582h-2.49414V22h-1.5V58h1.5v-17.22949Z"/><polygon points="48.77832 58 48.78613 58 48.78613 22 48.77832 22 47.28613 22 47.27832 22 47.27832 58 47.28613 58 48.77832 58"/><rect x="51.25" y="54" width="1.5" height="2"/><rect x="35.25" y="24" width="1.5" height="2"/><rect x="27.25" y="24" width="1.5" height="2"/><rect x="51.25" y="24" width="1.5" height="2"/><rect x="43.25" y="54" width="1.5" height="2"/><rect x="43.25" y="24" width="1.5" height="2"/></svg>