<svg xmlns="http://www.w3.org/2000/svg" viewBox="0 0 80 80"><rect x="40" y="41.25" width="12" height="1.5"/><path d="M24,60.75H56a.7502.7502,0,0,0,.75-.75V24a.7502.7502,0,0,0-.75-.75H24a.7502.7502,0,0,0-.75.75V60A.7502.7502,0,0,0,24,60.75Zm.75-36h30.5v10.5H24.75Zm0,12h30.5v10.5H24.75Zm0,12h30.5v10.5H24.75Z"/><rect x="40" y="53.25" width="12" height="1.5"/><rect x="40" y="29.25" width="12" height="1.5"/><path d="M20,19.25a.7502.7502,0,0,0-.75.75V64a.7502.7502,0,0,0,.75.75H39.25V72h1.5V64.75H60a.7502.7502,0,0,0,.75-.75V20a.7502.7502,0,0,0-.75-.75H40.75V11.81055l2.71973,2.71972,1.06054-1.06054-4-4a.74972.74972,0,0,0-1.06054,0l-4,4,1.06054,1.06054L39.25,11.81055V19.25Zm39.25,1.5v42.5H20.75V20.75Z"/><polygon points="72 11.25 68.75 11.25 68.75 8 67.25 8 67.25 11.25 64 11.25 64 12.75 67.25 12.75 67.25 16 68.75 16 68.75 12.75 72 12.75 72 11.25"/><circle cx="28" cy="30" r="1"/><circle cx="32" cy="30" r="1"/><circle cx="36" cy="30" r="1"/><circle cx="28" cy="42" r="1"/><circle cx="32" cy="42" r="1"/><circle cx="36" cy="42" r="1"/><circle cx="28" cy="54" r="1"/><circle cx="32" cy="54" r="1"/><circle cx="36" cy="54" r="1"/></svg>