<svg xmlns="http://www.w3.org/2000/svg" viewBox="0 0 80 80"><rect x="34" y="43.25" width="26" height="1.5"/><rect x="34" y="59.25" width="26" height="1.5"/><path d="M70.75,48V20h-1.5V31.25H66.58545l-1.85791-7.43213A.75009.75009,0,0,0,64,23.25H16a.75009.75009,0,0,0-.72754.56787L13.41455,31.25H10.75V16.75H62v-1.5H10a.7502.7502,0,0,0-.75.75V64a.7502.7502,0,0,0,.75.75H70a.7502.7502,0,0,0,.75-.75ZM16.58594,24.75H63.41406l1.62525,6.5H14.96069Zm-1.62525,38.5,1.62525-6.5H63.41406l1.62525,6.5Zm54.28931,0H66.58545l-1.85791-7.43213A.75009.75009,0,0,0,64,55.25H16a.75009.75009,0,0,0-.72754.56787L13.41455,63.25H10.75V48.75h58.5Zm-54.28931-16,1.62525-6.5H63.41406l1.62525,6.5Zm54.28931,0H66.58545l-1.85791-7.43213A.75009.75009,0,0,0,64,39.25H16a.75009.75009,0,0,0-.72754.56787L13.41455,47.25H10.75V32.75h58.5Z"/><rect x="34" y="27.25" width="26" height="1.5"/><path d="M70.667,13.25H66.73438L68.624,10.416l-1.248-.832-2.667,4a.75.75,0,0,0,.624,1.166h3.93261L67.376,17.584l1.248.832,2.667-4a.75.75,0,0,0-.624-1.166Z"/><circle cx="20" cy="28" r="1"/><circle cx="24" cy="28" r="1"/><circle cx="28" cy="28" r="1"/><circle cx="20" cy="44" r="1"/><circle cx="24" cy="44" r="1"/><circle cx="28" cy="44" r="1"/><circle cx="20" cy="60" r="1"/><circle cx="24" cy="60" r="1"/><circle cx="28" cy="60" r="1"/></svg>