<svg xmlns="http://www.w3.org/2000/svg" viewBox="0 0 80 80"><polygon points="70.75 8 69.25 8 69.25 11.25 66 11.25 66 12.75 69.25 12.75 69.25 16 70.75 16 70.75 12.75 74 12.75 74 11.25 70.75 11.25 70.75 8"/><path d="M69.17383,33.0083a2.684,2.684,0,0,0,1.4209-3.31836,29.49306,29.49306,0,0,0-5.48047-9.61474,2.62678,2.62678,0,0,0-3.56836-.41846,7.50621,7.50621,0,0,1-8.17578.4043,7.73733,7.73733,0,0,1-3.752-7.39942,2.66868,2.66868,0,0,0-2.15234-2.9082,29.82075,29.82075,0,0,0-11.04883.022,2.61543,2.61543,0,0,0-2.03906,2.88574,7.73663,7.73663,0,0,1-3.75,7.40137,7.50769,7.50769,0,0,1-8.18066-.40527,2.57291,2.57291,0,0,0-3.50391.34179,30.63068,30.63068,0,0,0-5.53809,9.67725,2.67969,2.67969,0,0,0,1.417,3.3335,7.72275,7.72275,0,0,1,.0039,13.98193,2.684,2.684,0,0,0-1.4209,3.31836A23.74232,23.74232,0,0,0,14.916,53.54932l.418.79492a.74972.74972,0,1,0,1.332-.68848l-.42383-.8081a22.48071,22.48071,0,0,1-1.419-3.02832A1.17231,1.17231,0,0,1,15.457,48.353a9.2227,9.2227,0,0,0-.00586-16.70459,1.17239,1.17239,0,0,1-.63086-1.47461,29.16293,29.16293,0,0,1,5.26758-9.20606,1.08862,1.08862,0,0,1,1.48047-.09472,9.00972,9.00972,0,0,0,9.81738.48437,9.24482,9.24482,0,0,0,4.48633-8.83789,1.12537,1.12537,0,0,1,.82422-1.27051,28.34946,28.34946,0,0,1,10.49609-.021,1.16121,1.16121,0,0,1,.93164,1.293,9.24582,9.24582,0,0,0,4.48828,8.835,9.00578,9.00578,0,0,0,9.81055-.48291,1.12454,1.12454,0,0,1,1.54688.17236,28.49069,28.49069,0,0,1,3.03418,4.31494,28.8129,28.8129,0,0,1,2.17285,4.82031A1.17231,1.17231,0,0,1,68.543,31.647a9.2227,9.2227,0,0,0,.00586,16.70459,1.172,1.172,0,0,1,.63086,1.47412,29.14922,29.14922,0,0,1-5.26758,9.20655,1.08767,1.08767,0,0,1-1.47949.09472,9.0106,9.0106,0,0,0-9.81836-.48437A9.24512,9.24512,0,0,0,48.12793,67.481a1.124,1.124,0,0,1-.82422,1.27,28.31824,28.31824,0,0,1-10.49609.021,1.161,1.161,0,0,1-.93164-1.29248,9.34492,9.34492,0,0,0-1.417-5.8833.74985.74985,0,0,0-1.26367.80762,7.8328,7.8328,0,0,1,1.18653,4.93457,2.66868,2.66868,0,0,0,2.15234,2.9082,29.84191,29.84191,0,0,0,11.04883-.022,2.61355,2.61355,0,0,0,2.03906-2.88574,7.73663,7.73663,0,0,1,3.75-7.40137,7.50736,7.50736,0,0,1,8.18164.40527,2.5713,2.5713,0,0,0,3.50293-.34179,30.66289,30.66289,0,0,0,5.53809-9.67725,2.67969,2.67969,0,0,0-1.417-3.3335,7.72275,7.72275,0,0,1-.0039-13.98193Z"/><path d="M12.53027,64.53027,30.8667,46.19373a12.49253,12.49253,0,0,0,4.93994,4.9392L17.46973,69.46973l1.06054,1.06054L37.23633,51.82446A12.73986,12.73986,0,0,0,53.49707,34.51367a.74954.74954,0,0,0-1.207-.20752l-7.46192,7.46192-4.5957-4.59668L47.69434,29.71a.74979.74979,0,0,0-.207-1.207,12.74051,12.74051,0,0,0-17.312,16.26123L11.46973,63.46973ZM34.04492,32.04492a11.27007,11.27007,0,0,1,11.79981-2.60644L38.6416,36.64111a.74973.74973,0,0,0,0,1.06055l5.65625,5.65723a.74975.74975,0,0,0,1.06055,0l7.20312-7.20313a11.24555,11.24555,0,1,1-18.5166-4.11084Z"/></svg>