<?xml version="1.0" encoding="UTF-8"?><svg id="a" xmlns="http://www.w3.org/2000/svg" viewBox="0 0 80 80"><path d="M58,27.25H22c-.41406,0-.75,.33594-.75,.75v24c0,.41406,.33594,.75,.75,.75H58c.41406,0,.75-.33594,.75-.75V28c0-.41406-.33594-.75-.75-.75Zm-17.23828,9.59399c1.43091,.34058,2.50098,1.62134,2.50098,3.15503s-1.07007,2.81445-2.50098,3.15503v-6.31006Zm-18.01172-2.09399h2.5v10.5h-2.5v-10.5Zm16.51172,8.40405c-1.43091-.34058-2.50098-1.62134-2.50098-3.15503s1.07007-2.81445,2.50098-3.15503v6.31006Zm0-7.83032c-2.2627,.36279-4.00098,2.31201-4.00098,4.67529s1.73828,4.3125,4.00098,4.67529v6.57568H22.75v-4.5h3.25c.41406,0,.75-.33594,.75-.75v-1.32568c2.2627-.36279,4.00098-2.31201,4.00098-4.67529s-1.73828-4.3125-4.00098-4.67529v-1.32373c0-.41406-.33594-.75-.75-.75h-3.25v-4.5h16.51172v6.57373Zm-12.51172,7.83936v-6.32812c1.43262,.33984,2.50098,1.62988,2.50098,3.16406s-1.06836,2.82422-2.50098,3.16406Zm30.5,2.08691h-2.5v-1.24512l.00098-.00488v-8.00195l-.00098-.00488v-1.24316h2.5v10.5Zm0-12h-3.25c-.41406,0-.75,.33594-.75,.75v1.32397c-2.26221,.36304-4,2.31201-4,4.67505s1.73779,4.31201,4,4.67505v1.32593c0,.41406,.33594,.75,.75,.75h3.25v4.5h-16.48828v-6.57568c2.2627-.36279,4.00098-2.31201,4.00098-4.67529s-1.73828-4.3125-4.00098-4.67529v-6.57373h16.48828v4.5Zm-4,3.58521v6.32764c-1.43213-.34033-2.5-1.63013-2.5-3.16382s1.06787-2.82349,2.5-3.16382Z"/><path d="M60,23.25H20c-1.5166,0-2.75,1.2334-2.75,2.75v28c0,1.5166,1.2334,2.75,2.75,2.75H60c1.5166,0,2.75-1.2334,2.75-2.75V26c0-1.5166-1.2334-2.75-2.75-2.75Zm1.25,30.75c0,.68945-.56055,1.25-1.25,1.25H20c-.68945,0-1.25-.56055-1.25-1.25V26c0-.68945,.56055-1.25,1.25-1.25H60c.68945,0,1.25,.56055,1.25,1.25v28Z"/><path d="M60,19.25H20c-3.72168,0-6.75,3.02832-6.75,6.75v28c0,3.72168,3.02832,6.75,6.75,6.75H60c3.72168,0,6.75-3.02832,6.75-6.75V26c0-3.72168-3.02832-6.75-6.75-6.75Zm5.25,34.75c0,2.89453-2.35547,5.25-5.25,5.25H20c-2.89453,0-5.25-2.35547-5.25-5.25V26c0-2.89453,2.35547-5.25,5.25-5.25H60c2.89453,0,5.25,2.35547,5.25,5.25v28Z"/><path d="M60,15.25H20c-5.92773,0-10.75,4.82227-10.75,10.75v28c0,5.92773,4.82227,10.75,10.75,10.75H60c5.92773,0,10.75-4.82227,10.75-10.75V26c0-5.92773-4.82227-10.75-10.75-10.75Zm9.25,38.75c0,5.10059-4.14941,9.25-9.25,9.25H20c-5.10059,0-9.25-4.14941-9.25-9.25V26c0-5.10059,4.14941-9.25,9.25-9.25H60c5.10059,0,9.25,4.14941,9.25,9.25v28Z"/></svg>