<svg xmlns="http://www.w3.org/2000/svg" viewBox="0 0 80 80"><path d="M28,52.75H52a.7502.7502,0,0,0,.75-.75V28a.7502.7502,0,0,0-.75-.75H28a.7502.7502,0,0,0-.75.75V52A.7502.7502,0,0,0,28,52.75Zm5.21362-1.5,1.25025-2.5H45.53613l1.25025,2.5ZM28.75,28.75h22.5v6.5H48.46362L46.6709,31.66455A.75019.75019,0,0,0,46,31.25H34a.75019.75019,0,0,0-.6709.41455L31.53638,35.25H28.75Zm18.03638,6.5H33.21362l1.25025-2.5H45.53613ZM28.75,36.75h22.5v6.5H48.46362L46.6709,39.66455A.75019.75019,0,0,0,46,39.25H33.5a.74942.74942,0,0,0-.70215.48682L31.48047,43.25H28.75Zm18.03638,6.5H33.082l.9375-2.5h11.5166ZM28.75,44.75h22.5v6.5H48.46362L46.6709,47.66455A.75019.75019,0,0,0,46,47.25H34a.75019.75019,0,0,0-.6709.41455L31.53638,51.25H28.75Z"/><path d="M10,70.75h8a.7502.7502,0,0,0,.75-.75V66.75h16.5V70a.7502.7502,0,0,0,.75.75h8a.7502.7502,0,0,0,.75-.75V66.75h16.5V70a.7502.7502,0,0,0,.75.75h8a.7502.7502,0,0,0,.75-.75V62a.7502.7502,0,0,0-.75-.75H66.75V44.75H70a.7502.7502,0,0,0,.75-.75V36a.7502.7502,0,0,0-.75-.75H66.75V18.75H70a.7502.7502,0,0,0,.75-.75V10A.7502.7502,0,0,0,70,9.25H62a.7502.7502,0,0,0-.75.75v3.25H44.75V10A.7502.7502,0,0,0,44,9.25H36a.7502.7502,0,0,0-.75.75v3.25H18.75V10A.7502.7502,0,0,0,18,9.25H10a.7502.7502,0,0,0-.75.75v8a.7502.7502,0,0,0,.75.75h3.25v16.5H10a.7502.7502,0,0,0-.75.75v8a.7502.7502,0,0,0,.75.75h3.25v16.5H10a.7502.7502,0,0,0-.75.75v8A.7502.7502,0,0,0,10,70.75Zm33.25-1.5h-6.5v-6.5h6.5Zm26-6.5v6.5h-6.5v-6.5Zm0-26v6.5h-6.5v-6.5Zm-6.5-26h6.5v6.5h-6.5Zm-26,0h6.5v6.5h-6.5ZM18.75,18V14.75h16.5V18a.7502.7502,0,0,0,.75.75h8a.7502.7502,0,0,0,.75-.75V14.75h16.5V18a.7502.7502,0,0,0,.75.75h3.25v16.5H62a.7502.7502,0,0,0-.75.75v8a.7502.7502,0,0,0,.75.75h3.25v16.5H62a.7502.7502,0,0,0-.75.75v3.25H44.75V62a.7502.7502,0,0,0-.75-.75H36a.7502.7502,0,0,0-.75.75v3.25H18.75V62a.7502.7502,0,0,0-.75-.75H14.75V44.75H18a.7502.7502,0,0,0,.75-.75V36a.7502.7502,0,0,0-.75-.75H14.75V18.75H18A.7502.7502,0,0,0,18.75,18Zm-8-.75v-6.5h6.5v6.5Zm0,26v-6.5h6.5v6.5Zm0,19.5h6.5v6.5h-6.5Z"/></svg>