<?xml version="1.0" encoding="UTF-8"?><svg id="a" xmlns="http://www.w3.org/2000/svg" viewBox="0 0 80 80"><path d="M58,39.25h-11.29419c-.37463-3.37-3.23779-6-6.70581-6s-6.33118,2.63-6.70581,6h-11.29419c-7.03027,0-12.75,5.71973-12.75,12.75s5.71973,12.75,12.75,12.75H57.29419c.37463,3.37,3.23779,6,6.70581,6,3.72168,0,6.75-3.02783,6.75-6.75s-3.02832-6.75-6.75-6.75c-3.46802,0-6.33118,2.63-6.70581,6H22c-6.20312,0-11.25-5.04688-11.25-11.25s5.04688-11.25,11.25-11.25h11.29419c.37463,3.37,3.23779,6,6.70581,6s6.33118-2.63,6.70581-6h11.29419c7.03027,0,12.75-5.71973,12.75-12.75s-5.71973-12.75-12.75-12.75H22.70581c-.08838-.79535-.31958-1.54657-.66064-2.23462l3.01538-3.01538-1.06055-1.06055-2.78308,2.78308c-1.23901-1.50842-3.11731-2.47253-5.21692-2.47253-3.72168,0-6.75,3.02783-6.75,6.75s3.02832,6.75,6.75,6.75c3.46802,0,6.33118-2.63,6.70581-6H58c6.20312,0,11.25,5.04688,11.25,11.25s-5.04688,11.25-11.25,11.25Zm6,19.5c2.89453,0,5.25,2.35498,5.25,5.25s-2.35547,5.25-5.25,5.25-5.25-2.35498-5.25-5.25,2.35547-5.25,5.25-5.25Zm-24-13.5c-2.89453,0-5.25-2.35498-5.25-5.25s2.35547-5.25,5.25-5.25,5.25,2.35498,5.25,5.25-2.35547,5.25-5.25,5.25ZM16,21.25c-2.89453,0-5.25-2.35498-5.25-5.25s2.35547-5.25,5.25-5.25c1.68689,0,3.17407,.81372,4.13525,2.05414l-4.13525,4.13531-2-2-1.06055,1.06055,2.53027,2.53027c.14648,.14648,.33789,.21973,.53027,.21973s.38379-.07324,.53027-.21973l4.36938-4.36945c.21655,.57452,.35034,1.18982,.35034,1.83917,0,2.89502-2.35547,5.25-5.25,5.25Z"/></svg>