<?xml version="1.0" encoding="UTF-8"?><svg id="a" xmlns="http://www.w3.org/2000/svg" viewBox="0 0 80 80"><path d="M70,9.25h-24c-.41406,0-.75,.33594-.75,.75V27.25H28c-.41406,0-.75,.33594-.75,.75v17.25H10c-.41406,0-.75,.33594-.75,.75v24c0,.41406,.33594,.75,.75,.75h24c.41406,0,.75-.33594,.75-.75v-17.25h17.25c.41406,0,.75-.33594,.75-.75v-17.25h17.25c.41406,0,.75-.33594,.75-.75V10c0-.41406-.33594-.75-.75-.75Zm-17.25,18.75V10.75h4.5v22.5h-4.5v-5.25Zm6-17.25h4.5v22.5h-4.5V10.75Zm-12,0h4.5V27.25h-4.5V10.75Zm-8.56055,18l-9.43945,9.43945v-9.43945h9.43945Zm-9.43945,11.56055l11.56055-11.56055h9.87891l-16.5,16.5h-4.93945v-4.93945Zm4.5,28.93945H10.75v-22.5h22.5v22.5Zm1.5-22.93945l16.5-16.5v9.87891l-11.56055,11.56055h-4.93945v-4.93945Zm7.06055,4.93945l9.43945-9.43945v9.43945h-9.43945Zm27.43945-18h-4.5V10.75h4.5v22.5Z"/><path d="M21.02441,51.38086c.45898-.78809,1.7334-.79102,2.19238,.00098l1.12769,1.94165-1.42261-.3811-.38867,1.44922,3.17676,.85059c.06445,.0166,.12891,.02539,.19434,.02539,.13281,0,.26465-.03516,.38086-.10449,.17383-.10156,.29883-.26953,.34668-.46484l.78418-3.16309-1.45508-.36133-.33838,1.36401-1.10889-1.90894c-.50098-.86328-1.39551-1.37891-2.39258-1.37891-.99805,0-1.89258,.51562-2.39648,1.38184l-2.01074,3.5127,1.30273,.74609,2.00781-3.50977Z"/><path d="M28.88184,61.27148c.23535,.41113,.23438,.90039-.00293,1.31055-.23047,.39746-.63867,.63477-1.0918,.63477h-2.53125l1.19629-1.27344-1.09375-1.02734-2.45312,2.61133c-.13867,.14844-.21191,.3457-.20215,.54883,.00977,.20215,.10059,.39258,.25293,.52734l2.58594,2.28418,.99219-1.125-1.18433-1.0459h2.43726c.99512,0,1.8877-.5166,2.38965-1.38281,.50879-.87793,.51074-1.92871,.00586-2.80859l-1.98145-3.4541-1.30078,.74609,1.98145,3.4541Z"/><path d="M15.43164,58.3584l-1.27832,2.20215c-.50293,.86621-.50488,1.90137-.00488,2.76953s1.39648,1.38672,2.39844,1.38672h3.86816v-1.5h-3.86816c-.45898,0-.86914-.2373-1.09863-.63477-.22852-.39746-.22852-.87207,.00195-1.26855l1.29102-2.22339,.39648,1.47925,1.44922-.38867-.86133-3.21289c-.10645-.39844-.50781-.63672-.91895-.53027l-3.41406,.91406,.38867,1.44922,1.65039-.44238Z"/></svg>