<?xml version="1.0" encoding="UTF-8"?><svg id="a" xmlns="http://www.w3.org/2000/svg" viewBox="0 0 80 80"><path d="M40.01562,48.96436c-1.5957,0-2.89355,1.29736-2.89355,2.89258s1.29785,2.89307,2.89355,2.89307c1.59473,0,2.89258-1.29785,2.89258-2.89307s-1.29785-2.89258-2.89258-2.89258Zm0,4.28564c-.76855,0-1.39355-.625-1.39355-1.39307s.625-1.39258,1.39355-1.39258c.76758,0,1.39258,.62451,1.39258,1.39258s-.625,1.39307-1.39258,1.39307Z"/><rect x="39.26562" y="24" width="1.5" height="19.28564"/><path d="M40,9.25c-16.95605,0-30.75,13.79443-30.75,30.75s13.79395,30.75,30.75,30.75,30.75-13.79443,30.75-30.75-13.79395-30.75-30.75-30.75Zm0,60c-16.12891,0-29.25-13.12158-29.25-29.25S23.87109,10.75,40,10.75s29.25,13.12158,29.25,29.25-13.12109,29.25-29.25,29.25Z"/></svg>