<?xml version="1.0" encoding="UTF-8"?><svg id="a" xmlns="http://www.w3.org/2000/svg" viewBox="0 0 80 80"><path d="M19.81934,40.75h8.18066v-1.5h-8.18066c-5.10059,0-9.25-4.14941-9.25-9.25s4.14941-9.25,9.25-9.25c1.3916,0,2.74219,.31201,4.01562,.92773,.19043,.09277,.41211,.09961,.60938,.01953,.19629-.08008,.34961-.23975,.42188-.43945,2.27441-6.28516,8.2832-10.50781,14.95312-10.50781,8.26465,0,15.0752,6.2002,15.84082,14.42236,.02539,.27295,.19727,.50977,.44824,.61865,.25391,.1084,.54199,.07178,.75879-.09521,1.35938-1.05469,2.95703-1.6123,4.61816-1.6123,4.18164,0,7.58398,3.40186,7.58398,7.58301,0,4.18164-3.40234,7.5835-7.58398,7.5835h-9.48535v1.5h9.48535c5.00879,0,9.08398-4.07471,9.08398-9.0835,0-5.0083-4.0752-9.08301-9.08398-9.08301-1.58203,0-3.11328,.41797-4.48926,1.21875-1.37109-8.37842-8.5498-14.55225-17.17676-14.55225-7.03125,0-13.39258,4.28809-16.07422,10.75098-1.25684-.49854-2.57422-.75098-3.92578-.75098-5.92773,0-10.75,4.82227-10.75,10.75s4.82227,10.75,10.75,10.75Z"/><path d="M68.02051,53.25h-12.04102c-.47949,0-.92358,.13501-1.31567,.35291l-6.26685-6.26624c.21802-.39185,.35303-.83618,.35303-1.31567v-12.04199c0-1.50488-1.22461-2.729-2.72949-2.729h-12.04102c-1.50488,0-2.72949,1.22412-2.72949,2.729v12.04199c0,.47949,.13501,.92383,.35303,1.31567l-6.26685,6.26624c-.39209-.2179-.83618-.35291-1.31567-.35291H11.97949c-1.50488,0-2.72949,1.22412-2.72949,2.729v12.04199c0,1.50488,1.22461,2.729,2.72949,2.729h12.04102c1.50488,0,2.72949-1.22412,2.72949-2.729v-5.271h4.5v5.271c0,1.50488,1.22461,2.729,2.72949,2.729h12.04102c1.50488,0,2.72949-1.22412,2.72949-2.729v-5.271h4.5v5.271c0,1.50488,1.22461,2.729,2.72949,2.729h12.04102c1.50488,0,2.72949-1.22412,2.72949-2.729v-12.04199c0-1.50488-1.22461-2.729-2.72949-2.729Zm-35.27051-19.271c0-.67773,.55176-1.229,1.22949-1.229h12.04102c.67773,0,1.22949,.55127,1.22949,1.229v12.04199c0,.67773-.55176,1.229-1.22949,1.229h-12.04102c-.67773,0-1.22949-.55127-1.22949-1.229v-12.04199Zm-7.5,34.04199c0,.67773-.55176,1.229-1.22949,1.229H11.97949c-.67773,0-1.22949-.55127-1.22949-1.229v-12.04199c0-.67773,.55176-1.229,1.22949-1.229h12.04102c.67773,0,1.22949,.55127,1.22949,1.229v12.04199Zm6-12.04199v5.271h-4.5v-5.271c0-.47949-.13501-.92383-.35303-1.31567l6.26685-6.26624c.39209,.2179,.83618,.35291,1.31567,.35291h5.27051v4.5h-5.27051c-1.50488,0-2.72949,1.22412-2.72949,2.729Zm16,12.04199c0,.67773-.55176,1.229-1.22949,1.229h-12.04102c-.67773,0-1.22949-.55127-1.22949-1.229v-12.04199c0-.67773,.55176-1.229,1.22949-1.229h12.04102c.67773,0,1.22949,.55127,1.22949,1.229v12.04199Zm1.5-6.771v-5.271c0-1.50488-1.22461-2.729-2.72949-2.729h-5.27051v-4.5h5.27051c.47949,0,.92358-.13501,1.31567-.35291l6.26685,6.26624c-.21802,.39185-.35303,.83618-.35303,1.31567v5.271h-4.5Zm20.5,6.771c0,.67773-.55176,1.229-1.22949,1.229h-12.04102c-.67773,0-1.22949-.55127-1.22949-1.229v-12.04199c0-.67773,.55176-1.229,1.22949-1.229h12.04102c.67773,0,1.22949,.55127,1.22949,1.229v12.04199Z"/></svg>