<?xml version="1.0" encoding="UTF-8"?><svg id="a" xmlns="http://www.w3.org/2000/svg" viewBox="0 0 80 80"><path d="M65.46973,43.46973l1.06055,1.06055,4-4c.29297-.29297,.29297-.76758,0-1.06055l-4-4-1.06055,1.06055,2.71973,2.71973H8v1.5h60.18945l-2.71973,2.71973Z"/><rect x="48" y="55.25" width="24" height="1.5"/><path d="M64,48.75v-1.5h-24c-.41406,0-.75,.33594-.75,.75v16c0,.41406,.33594,.75,.75,.75h8v-1.5h-7.25v-14.5h23.25Z"/><path d="M63.25,64v8h1.5v-7.25h7.25v-1.5h-8c-.41406,0-.75,.33594-.75,.75Z"/><rect x="55.25" y="64" width="1.5" height="8"/><path d="M16.75,64v-7.25h15.25c.41406,0,.75-.33594,.75-.75v-8h-1.5v7.25h-15.25c-.41406,0-.75,.33594-.75,.75v7.25h-7.25v1.5h8c.41406,0,.75-.33594,.75-.75Z"/><rect x="8" y="47.25" width="16" height="1.5"/><rect x="31.25" y="64" width="1.5" height="8"/><rect x="23.25" y="64" width="1.5" height="8"/><path d="M16.75,32v-7.25h7.25v-1.5h-8c-.41406,0-.75,.33594-.75,.75v7.25h-7.25v1.5h8c.41406,0,.75-.33594,.75-.75Z"/><path d="M16.75,16V8h-1.5v7.25h-7.25v1.5h8c.41406,0,.75-.33594,.75-.75Z"/><path d="M23.25,8v8c0,.41406,.33594,.75,.75,.75h7.25v14.5h-7.25v1.5h8c.41406,0,.75-.33594,.75-.75V16c0-.41406-.33594-.75-.75-.75h-7.25v-7.25h-1.5Z"/><path d="M39.25,8V24c0,.41406,.33594,.75,.75,.75h8v-1.5h-7.25V8h-1.5Z"/><path d="M55.25,24v7.25h-15.25v1.5h16c.41406,0,.75-.33594,.75-.75v-7.25h15.25v-1.5h-16c-.41406,0-.75,.33594-.75,.75Z"/><rect x="47.25" y="8" width="1.5" height="8"/><path d="M64.75,16V8h-1.5v7.25h-7.25v1.5h8c.41406,0,.75-.33594,.75-.75Z"/></svg>