<?xml version="1.0" encoding="UTF-8"?><svg id="a" xmlns="http://www.w3.org/2000/svg" viewBox="0 0 80 80"><path d="M49.625,55.25H26c-.41406,0-.75,.33594-.75,.75v14c0,.41406,.33594,.75,.75,.75h28c.41406,0,.75-.33594,.75-.75v-14c0-.41406-.33594-.75-.75-.75h-4.375Zm-22.875,1.5h2.79688c-.29492,1.39795-1.39844,2.50146-2.79688,2.79688v-2.79688Zm0,12.5v-2.79688c1.39844,.29541,2.50195,1.39893,2.79688,2.79688h-2.79688Zm26.5,0h-2.79492c.29541-1.39771,1.39722-2.49951,2.79492-2.79492v2.79492Zm0-4.29932c-2.22217,.33008-3.96924,2.07715-4.29932,4.29932H31.04932c-.33008-2.22217-2.07715-3.96924-4.29932-4.29932v-3.90137c2.22217-.33008,3.96924-2.07715,4.29932-4.29932h17.90137c.33008,2.22217,2.07715,3.96924,4.29932,4.29932v3.90137Zm0-5.40381c-1.39844-.29541-2.50195-1.39893-2.79688-2.79688h2.79688v2.79688Z"/><path d="M40,60.46875c.49121,0,.89062,.39941,.89062,.89062h1.5c0-1.05469-.69092-1.94189-1.64062-2.2583v-1.35107h-1.5v1.35107c-.94971,.31641-1.64062,1.20361-1.64062,2.2583,0,1.31836,1.07227,2.39062,2.39062,2.39062,.49121,0,.89062,.39941,.89062,.89062s-.39941,.89062-.89062,.89062-.89062-.39941-.89062-.89062h-1.5c0,1.05469,.69092,1.94189,1.64062,2.2583v1.35107h1.5v-1.35107c.94971-.31641,1.64062-1.20361,1.64062-2.2583,0-1.31836-1.07227-2.39062-2.39062-2.39062-.49121,0-.89062-.39941-.89062-.89062s.39941-.89062,.89062-.89062Z"/><path d="M39.25,9.25v.01904c-14.22021,.39258-25.7085,11.88086-26.10107,26.10107h-.01904v1.5h.0332c.16992,6.05298,2.3645,11.89941,6.2627,16.53271l.4834,.57373,1.14746-.96582-.48242-.57373c-.89307-1.06104-1.68262-2.19531-2.38354-3.37744h8.93628c.32324,1.09424,.69092,2.17871,1.11914,3.22461l.28418,.69385,1.38867-.56787-.28418-.69434c-.35303-.86279-.65845-1.75513-.93848-2.65625h10.55371v3.69043h1.5v-3.69043h10.55371c-.27954,.90039-.58521,1.79297-.93848,2.65625l-.28418,.69434,1.38867,.56787,.28418-.69385c.42847-1.04688,.79639-2.13184,1.11938-3.22461h8.93604c-.70093,1.18213-1.49048,2.31641-2.38354,3.37744l-.48242,.57373,1.14746,.96582,.4834-.57373c3.89819-4.6333,6.09277-10.47974,6.2627-16.53271h.0332v-1.5h-.01904c-.39258-14.22021-11.88086-25.7085-26.10107-26.10107v-.01904h-1.5Zm-5.02686,2.17139c-3.01392,2.37085-5.50928,6.53662-7.08398,11.75928h-8.94971c3.47827-5.84082,9.23389-10.16895,16.03369-11.75928Zm-16.85693,13.25928h9.35449c-.84155,3.25952-1.33252,6.87646-1.38989,10.68945H14.64893c.1123-3.83618,1.07837-7.45972,2.71729-10.68945Zm.01416,22.87891c-1.66943-3.30322-2.6062-6.94995-2.71729-10.68945h10.68115c.05469,3.7522,.521,7.33691,1.38184,10.68945h-9.3457Zm21.86963,0h-10.9812c-.89136-3.33789-1.36792-6.92627-1.4248-10.68945h12.40601v10.68945Zm0-12.18945h-12.41992c.05859-3.83618,.5603-7.45972,1.41162-10.68945h11.0083v10.68945Zm0-12.18945h-10.58057c2.18018-7.04688,6.08154-11.89844,10.58057-12.38696v12.38696Zm12.4812,24.37891h-10.9812v-10.68945h12.40601c-.05688,3.76172-.5332,7.34912-1.4248,10.68945Zm-10.9812-12.18945v-10.68945h11.0083c.85132,3.22974,1.35303,6.85327,1.41162,10.68945h-12.41992Zm21.86963,12.18945h-9.3457c.86084-3.35449,1.32715-6.93848,1.38184-10.68945h10.68115c-.11108,3.7395-1.04785,7.38623-2.71729,10.68945Zm2.73145-12.18945h-10.68188c-.05737-3.81299-.54834-7.42993-1.38989-10.68945h9.35449c1.63892,3.22974,2.60498,6.85327,2.71729,10.68945Zm-3.54053-12.18945h-8.94971c-1.57471-5.22266-4.07007-9.38843-7.08398-11.75928,6.7998,1.59033,12.55542,5.91846,16.03369,11.75928Zm-10.47998,0h-10.58057V10.7937c4.49902,.48853,8.40039,5.34009,10.58057,12.38696Z"/></svg>