<svg xmlns="http://www.w3.org/2000/svg" viewBox="0 0 80 80"><path d="M66.50977,45.44971a3.633,3.633,0,0,0-5.02051.00146l-1.41748,1.42432-.6001-.56885A3.54232,3.54232,0,0,0,54.542,46.354l-6.91723,6.95923A3.714,3.714,0,0,0,47,53.25H32.48535a6.71157,6.71157,0,0,0-4.77344,1.977L13.46973,69.46973l1.06054,1.06054L28.77246,56.28809A5.21958,5.21958,0,0,1,32.48535,54.75H47A2.25278,2.25278,0,0,1,49.25,57a2.30346,2.30346,0,0,1-.70654,1.45984l-.0503.05041.001.001a2.20622,2.20622,0,0,1-1.42871.73047L35.999,59.25l.002,1.5,11.06543-.0083a3.70934,3.70934,0,0,0,2.55932-1.24426L62.55078,46.51025a2.07843,2.07843,0,0,1,2.89844,2.9795L51.22754,63.71191A5.21958,5.21958,0,0,1,47.51465,65.25H32.82812a2.73171,2.73171,0,0,0-1.94433.80566l-3.41406,3.41407,1.06054,1.06054,3.41407-3.41406a1.257,1.257,0,0,1,.88378-.36621H47.51465A6.71157,6.71157,0,0,0,52.28809,64.773L66.50977,50.55029a3.606,3.606,0,0,0,0-5.10058ZM50.68042,56.31238a3.74978,3.74978,0,0,0-1.54663-2.389L55.59863,47.419a2.04565,2.04565,0,0,1,2.8418-.023l.57324.54284Z"/><path d="M40,42.56445a16.75,16.75,0,1,0-16.75-16.75A16.76884,16.76884,0,0,0,40,42.56445Zm4.32617-2.13427c2.55322-2.72876,4.271-7.8357,4.40479-13.86573h6.481A15.26278,15.26278,0,0,1,44.32617,40.43018ZM55.21191,25.06445H48.731c-.13379-6.03-1.85157-11.137-4.40479-13.86572A15.26277,15.26277,0,0,1,55.21191,25.06445ZM40.75,10.65186c3.47559.792,6.2998,7.00647,6.4812,14.41259H40.75Zm0,15.91259h6.4812c-.1814,7.40613-3.00561,13.62061-6.4812,14.4126Zm-1.5,14.4126c-3.47559-.792-6.2998-7.00647-6.4812-14.4126H39.25Zm0-30.32519V25.06445H32.7688C32.9502,17.65833,35.77441,11.44385,39.25,10.65186Zm-3.57617.54687c-2.55322,2.72876-4.271,7.83569-4.40479,13.86572H24.78809A15.26277,15.26277,0,0,1,35.67383,11.19873ZM31.269,26.56445c.13379,6.03,1.85157,11.137,4.40479,13.86573A15.26278,15.26278,0,0,1,24.78809,26.56445Z"/></svg>