<svg xmlns="http://www.w3.org/2000/svg" viewBox="0 0 80 80"><path d="M20,50.75016H61.667a9.0835,9.0835,0,0,0,0-18.167,8.88472,8.88472,0,0,0-4.49023,1.21875,17.4042,17.4042,0,0,0-33.251-3.80127A10.59608,10.59608,0,0,0,20,29.25016a10.75,10.75,0,0,0,0,21.5Zm12.82593-1.5A5.24192,5.24192,0,0,1,38,44.75016h4a5.24192,5.24192,0,0,1,5.17407,4.5ZM20,30.75016a9.16066,9.16066,0,0,1,4.01562.92725.74912.74912,0,0,0,1.03126-.41992A15.90323,15.90323,0,0,1,55.84082,35.172a.75047.75047,0,0,0,1.207.52343,7.48772,7.48772,0,0,1,4.61914-1.6123,7.5835,7.5835,0,0,1,0,15.167H48.70581a6.75808,6.75808,0,0,0-6.70581-6H38a6.75808,6.75808,0,0,0-6.70581,6H20a9.25,9.25,0,0,1,0-18.5Z"/><path d="M40,40.75016a4.75,4.75,0,1,0-4.75-4.75A4.7554,4.7554,0,0,0,40,40.75016Zm0-8a3.25,3.25,0,1,1-3.25,3.25A3.25377,3.25377,0,0,1,40,32.75016Z"/></svg>