<?xml version="1.0" encoding="UTF-8"?><svg id="a" xmlns="http://www.w3.org/2000/svg" viewBox="0 0 80 80"><path d="M70,23.25h-27.29395v-.13135c1.07324-.82715,1.70215-2.0957,1.70215-3.4707,0-2.4248-1.97754-4.39795-4.4082-4.39795-2.4248,0-4.39746,1.97314-4.39746,4.39795,0,1.37158,.625,2.63965,1.69238,3.46875v.1333H10c-.41406,0-.75,.33594-.75,.75V60c0,.41406,.33594,.75,.75,.75h60c.41406,0,.75-.33594,.75-.75V24c0-.41406-.33594-.75-.75-.75Zm-32.89746-3.60205c0-1.59814,1.2998-2.89795,2.89746-2.89795,1.60352,0,2.9082,1.2998,2.9082,2.89795,0,.99951-.50488,1.91406-1.35156,2.44531-.21777,.13721-.35059,.37744-.35059,.63525v4.52148h-2.41113v-4.52148c0-.25684-.13184-.49561-.34863-.6333-.84082-.53369-1.34375-1.44873-1.34375-2.44727Zm32.14746,39.60205H10.75V24.75h26.54492v3.25c0,.41406,.33594,.75,.75,.75h3.91113c.41406,0,.75-.33594,.75-.75v-3.25h26.54395V59.25Z"/><path d="M25,33.25c-5.37598,0-9.75,4.37402-9.75,9.75s4.37402,9.75,9.75,9.75,9.75-4.37402,9.75-9.75-4.37402-9.75-9.75-9.75Zm0,18c-1.5625,0-3.02002-.44482-4.26709-1.20264,.23291-2.12402,2.01611-3.78857,4.20166-3.78857,2.21094,0,4.01123,1.70361,4.20898,3.86328-1.21924,.7124-2.63232,1.12793-4.14355,1.12793Zm-2.64746-9.07324c0-1.42383,1.1582-2.58203,2.58203-2.58203s2.58203,1.1582,2.58203,2.58203-1.1582,2.58203-2.58203,2.58203-2.58203-1.1582-2.58203-2.58203Zm8.15527,6.94775c-.41162-1.65771-1.5415-3.03027-3.04199-3.77051,.9375-.74854,1.55078-1.88696,1.55078-3.17725,0-2.25098-1.83105-4.08203-4.08203-4.08203s-4.08203,1.83105-4.08203,4.08203c0,1.29028,.61328,2.42871,1.55078,3.17725-1.47119,.72559-2.58594,2.05957-3.01709,3.67432-1.61719-1.50732-2.63623-3.64844-2.63623-6.02832,0-4.54883,3.70117-8.25,8.25-8.25s8.25,3.70117,8.25,8.25c0,2.43115-1.06348,4.61328-2.74219,6.12451Z"/><rect x="40" y="35.25" width="24" height="1.5"/><rect x="40" y="42.25" width="24" height="1.5"/><rect x="40" y="49.25" width="24" height="1.5"/></svg>