<?xml version="1.0" encoding="UTF-8"?>
<svg id="art" xmlns="http://www.w3.org/2000/svg" viewBox="0 0 80 80">
  <defs>
    <style>
      .cls-1 {
        fill: #fff;
      }
    </style>
  </defs>
  <path class="cls-1" d="M56.75,17h1.5c0-1.52,1.23-2.75,2.75-2.75v-1.5c-1.52,0-2.75-1.23-2.75-2.75h-1.5c0,1.52-1.23,2.75-2.75,2.75v1.5c1.52,0,2.75,1.23,2.75,2.75ZM57.5,12.4c.3.43.67.8,1.1,1.1-.43.3-.8.67-1.1,1.1-.3-.43-.67-.8-1.1-1.1.43-.3.8-.67,1.1-1.1Z"/>
  <path class="cls-1" d="M57.89,18.19v1.5c2.37,0,4.31,1.93,4.31,4.31h1.5c0-2.37,1.93-4.31,4.31-4.31v-1.5c-2.37,0-4.31-1.93-4.31-4.31h-1.5c0,2.37-1.93,4.31-4.31,4.31ZM62.94,16.73c.52.92,1.29,1.69,2.21,2.21-.92.52-1.69,1.29-2.21,2.21-.52-.92-1.29-1.69-2.21-2.21.92-.52,1.69-1.29,2.21-2.21Z"/>
  <rect class="cls-1" x="22" y="23.3" width="4" height="1.5"/>
  <circle class="cls-1" cx="24" cy="44" r="1"/>
  <path class="cls-1" d="M66.67,27.25h-33.92v-2.5h15.72c2.36,0,4.28-1.92,4.28-4.28s-1.92-4.28-4.28-4.28c-.55,0-1.09.11-1.59.31-.83-3.47-3.92-5.97-7.6-5.97-3.02,0-5.76,1.76-7.05,4.45-.46-.14-.94-.21-1.43-.21-2.58,0-4.68,1.97-4.94,4.48h-7.86c-1.52,0-2.75,1.23-2.75,2.75v5.25h-1.92c-1.46,0-2.65,1.19-2.65,2.65v32.38c0,1.46,1.19,2.65,2.65,2.65h25.92v2.31h-13.25v1.5h28v-1.5h-13.25v-2.31h25.92c1.46,0,2.65-1.19,2.65-2.65V29.9c0-1.46-1.19-2.65-2.65-2.65ZM30.8,16.27c.52,0,1.03.12,1.51.35.19.09.41.1.61.02.2-.08.35-.24.42-.44.9-2.49,3.29-4.17,5.93-4.17,3.28,0,5.98,2.46,6.29,5.72.03.27.2.51.45.62.25.11.54.07.76-.1.5-.39,1.09-.59,1.69-.59,1.53,0,2.78,1.25,2.78,2.78s-1.25,2.78-2.78,2.78h-15.72v-1.25c0-1.52-1.23-2.75-2.75-2.75h-2.64c.25-1.68,1.69-2.98,3.44-2.98ZM16.75,22c0-.69.56-1.25,1.25-1.25h12c.69,0,1.25.56,1.25,1.25v24c0,.69-.56,1.25-1.25,1.25h-12c-.69,0-1.25-.56-1.25-1.25v-24ZM13.33,28.75h1.92v17.25c0,1.52,1.23,2.75,2.75,2.75h12c1.52,0,2.75-1.23,2.75-2.75v-17.25h33.92c.64,0,1.15.52,1.15,1.15v27.82H12.18v-27.82c0-.64.52-1.15,1.15-1.15ZM66.67,63.44H13.33c-.64,0-1.15-.52-1.15-1.15v-3.06h55.64v3.06c0,.64-.52,1.15-1.15,1.15Z"/>
  <path class="cls-1" d="M44.25,51c0,.41.34.75.75.75h.75v2.25h1.5v-2.25h1.5v2.25h1.5v-2.25h1.5v2.25h1.5v-2.25h1.5v2.25h1.5v-2.25h.75c.41,0,.75-.34.75-.75v-.75h2.25v-1.5h-2.25v-1.5h2.25v-1.5h-2.25v-1.5h2.25v-1.5h-2.25v-1.5h2.25v-1.5h-2.25v-.75c0-.41-.34-.75-.75-.75h-.75v-2.25h-1.5v2.25h-1.5v-2.25h-1.5v2.25h-1.5v-2.25h-1.5v2.25h-1.5v-2.25h-1.5v2.25h-.75c-.41,0-.75.34-.75.75v.75h-2.25v1.5h2.25v1.5h-2.25v1.5h2.25v1.5h-2.25v1.5h2.25v1.5h-2.25v1.5h2.25v.75ZM45.75,39.75h10.5v10.5h-10.5v-10.5Z"/>
  <path class="cls-1" d="M54,41.25h-6.14c-.41,0-.75.34-.75.75v6c0,.41.34.75.75.75h6.14c.41,0,.75-.34.75-.75v-6c0-.41-.34-.75-.75-.75ZM53.25,47.25h-4.64v-4.5h4.64v4.5Z"/>
</svg>