<?xml version="1.0" encoding="UTF-8"?><svg id="a" xmlns="http://www.w3.org/2000/svg" viewBox="0 0 80 80"><path d="M39.98438,31.03564c1.5957,0,2.89355-1.29736,2.89355-2.89258s-1.29785-2.89307-2.89355-2.89307c-1.59473,0-2.89258,1.29785-2.89258,2.89307s1.29785,2.89258,2.89258,2.89258Zm0-4.28564c.76855,0,1.39355,.625,1.39355,1.39307s-.625,1.39258-1.39355,1.39258c-.76758,0-1.39258-.62451-1.39258-1.39258s.625-1.39307,1.39258-1.39307Z"/><rect x="39.23438" y="36.71436" width="1.5" height="19.28564"/><path d="M40,70.75c16.95605,0,30.75-13.79443,30.75-30.75s-13.79395-30.75-30.75-30.75S9.25,23.04443,9.25,40s13.79395,30.75,30.75,30.75Zm0-60c16.12891,0,29.25,13.12158,29.25,29.25s-13.12109,29.25-29.25,29.25-29.25-13.12158-29.25-29.25S23.87109,10.75,40,10.75Z"/></svg>