<svg xmlns="http://www.w3.org/2000/svg" viewBox="0 0 80 80"><path d="M61.667,32.5835a8.88462,8.88462,0,0,0-4.49023,1.21875,17.404,17.404,0,0,0-33.251-3.80127A10.58906,10.58906,0,0,0,20,29.25a10.75,10.75,0,0,0,0,21.5h6v-1.5H20a9.25,9.25,0,0,1,0-18.5,9.1545,9.1545,0,0,1,4.01562.92773.7491.7491,0,0,0,1.03126-.41992,15.9031,15.9031,0,0,1,30.79394,3.91455.75047.75047,0,0,0,1.207.52344A7.48766,7.48766,0,0,1,61.667,34.0835a7.58325,7.58325,0,0,1,0,15.1665H54v1.5h7.667a9.08325,9.08325,0,0,0,0-18.1665Z"/><path d="M44.2168,49.25h-.8291v-.61865a3.38135,3.38135,0,1,0-6.7627,0V49.25h-.8291a.7502.7502,0,0,0-.75.75v6a.7502.7502,0,0,0,.75.75h8.4209a.7502.7502,0,0,0,.75-.75V50A.7502.7502,0,0,0,44.2168,49.25Zm-6.0918-.61865a1.88135,1.88135,0,1,1,3.7627,0V49.25H38.125ZM43.4668,55.25H36.5459v-4.5h6.9209Z"/><path d="M50,64.75a.7502.7502,0,0,0,.75-.75V42a.75027.75027,0,0,0-.21973-.53027l-6-6A.74942.74942,0,0,0,44,35.25H30a.7502.7502,0,0,0-.75.75V64a.7502.7502,0,0,0,.75.75ZM44.75,37.81055,48.18945,41.25H44.75ZM30.75,36.75h12.5V42a.7502.7502,0,0,0,.75.75h5.25v20.5H30.75Z"/></svg>