<?xml version="1.0" encoding="UTF-8"?><svg id="a" xmlns="http://www.w3.org/2000/svg" viewBox="0 0 80 80"><rect x="26" y="31.25" width="28" height="1.5"/><rect x="26" y="37.25" width="28" height="1.5"/><rect x="26" y="43.25" width="28" height="1.5"/><rect x="26" y="49.25" width="20" height="1.5"/><path d="M19.25,10v60c0,.41406,.33594,.75,.75,.75H60c.41406,0,.75-.33594,.75-.75V24c0-.19873-.0791-.38965-.21973-.53027l-14-14c-.14062-.14062-.33105-.21973-.53027-.21973H20c-.41406,0-.75,.33594-.75,.75Zm27.5,1.81055l11.43945,11.43945h-11.43945V11.81055Zm-26-1.06055h24.5v13.25c0,.41406,.33594,.75,.75,.75h13.25v44.5H20.75V10.75Z"/></svg>