<?xml version="1.0" encoding="UTF-8"?><svg id="a" xmlns="http://www.w3.org/2000/svg" viewBox="0 0 80 80"><rect x="52" y="45.25" width="12" height="1.5"/><path d="M11.2002,42.75H27.25v2.5h-7.25v1.5h13.25v11.99023c0,1.1084,.875,2.00977,1.9502,2.00977h16.0498v2.5h-7.25v1.5h16v-1.5h-7.25v-2.5h16.0498c1.0752,0,1.9502-.90137,1.9502-2.00977v-21.47998c0-1.1084-.875-2.01025-1.9502-2.01025h-22.0498v-15.98975c0-1.1084-.875-2.01025-1.9502-2.01025H11.2002c-1.0752,0-1.9502,.90186-1.9502,2.01025v21.47998c0,1.1084,.875,2.00977,1.9502,2.00977Zm22.0498,2.5h-4.5v-2.5h4.5v2.5Zm35.5498-8.5c.24414,0,.4502,.23389,.4502,.51025v21.47998c0,.27637-.20605,.50977-.4502,.50977H35.2002c-.24414,0-.4502-.2334-.4502-.50977v-21.47998c0-.27637,.20605-.51025,.4502-.51025h33.59961ZM10.75,19.26025c0-.27637,.20605-.51025,.4502-.51025H44.7998c.24414,0,.4502,.23389,.4502,.51025v15.98975h-10.0498c-1.0752,0-1.9502,.90186-1.9502,2.01025v3.98975H11.2002c-.24414,0-.4502-.2334-.4502-.50977V19.26025Z"/><path d="M40,52.75h8c.41406,0,.75-.33594,.75-.75v-8c0-.41406-.33594-.75-.75-.75h-8c-.41406,0-.75,.33594-.75,.75v8c0,.41406,.33594,.75,.75,.75Zm.75-8h6.5v6.5h-6.5v-6.5Z"/><rect x="28" y="31.25" width="12" height="1.5"/><path d="M16,34.75h8c.41406,0,.75-.33594,.75-.75v-8c0-.41406-.33594-.75-.75-.75h-8c-.41406,0-.75,.33594-.75,.75v8c0,.41406,.33594,.75,.75,.75Zm.75-8h6.5v6.5h-6.5v-6.5Z"/><path d="M61.46973,24.53027l4,4c.14648,.14648,.33789,.21973,.53027,.21973s.38379-.07324,.53027-.21973l4-4-1.06055-1.06055-2.80713,2.80701c-.87378-9.53314-8.90527-17.02673-18.6626-17.02673v1.5c8.86035,0,16.17456,6.71704,17.13574,15.3252l-2.60547-2.60547-1.06055,1.06055Z"/><rect x="52" y="49.25" width="12" height="1.5"/><rect x="28" y="27.25" width="12" height="1.5"/><path d="M18.53027,55.46973l-4-4c-.29297-.29297-.76758-.29297-1.06055,0l-4,4,1.06055,1.06055,2.80713-2.80701c.87378,9.53314,8.90527,17.02673,18.6626,17.02673v-1.5c-8.86035,0-16.17456-6.71704-17.13574-15.3252l2.60547,2.60547,1.06055-1.06055Z"/></svg>