<svg xmlns="http://www.w3.org/2000/svg" viewBox="0 0 80 80"><path d="M70.75,52a.7502.7502,0,0,0-.75-.75H64.75V46a.7502.7502,0,0,0-.75-.75H40.75v-4.5H50a.7502.7502,0,0,0,.75-.75V24a.7502.7502,0,0,0-.75-.75H30a.7502.7502,0,0,0-.75.75V40a.7502.7502,0,0,0,.75.75h9.25v4.5H16a.7502.7502,0,0,0-.75.75v5.25H12.22363a.7502.7502,0,0,0-.75.75V66a.7502.7502,0,0,0,.75.75H20a.7502.7502,0,0,0,.75-.75V52a.7502.7502,0,0,0-.75-.75H16.75v-4.5h22.5v2.5H28a.7502.7502,0,0,0-.75.75V65.6665a.75019.75019,0,0,0,.75.75H52a.75019.75019,0,0,0,.75-.75V50a.7502.7502,0,0,0-.75-.75H40.75v-2.5h22.5v4.5H58.14941a.7502.7502,0,0,0-.75.75V70a.7502.7502,0,0,0,.75.75H70a.7502.7502,0,0,0,.75-.75Zm-51.5.75v12.5H12.97363V52.75Zm11.5-28h18.5v6.5H46.46362L44.6709,27.66455A.75019.75019,0,0,0,44,27.25H36a.75019.75019,0,0,0-.6709.41455L33.53638,31.25H30.75Zm14.03638,6.5H35.21362l1.25025-2.5h7.07226ZM30.75,39.25v-6.5h18.5v6.5H46.46362L44.6709,35.66455A.75019.75019,0,0,0,44,35.25H36a.75019.75019,0,0,0-.6709.41455L33.53638,39.25Zm20.5,11.5V64.9165H28.75V50.75ZM35.21362,39.25l1.25025-2.5h7.07226l1.25025,2.5ZM69.25,69.25H58.89941V52.75H69.25Z"/><rect x="26" y="69.25" width="28" height="1.5"/><path d="M54.44434,29.25h-.58106v1.5h.58106a6.30567,6.30567,0,0,0,0-12.61133,6.14621,6.14621,0,0,0-2.80762.67676,11.85329,11.85329,0,0,0-22.48828-2.4668A7.30371,7.30371,0,0,0,26.667,15.9165a7.41693,7.41693,0,0,0-.71,14.79981q.3501.03369.71.03369v-1.5c-.1914,0-.38086-.00928-.56738-.02686a5.91626,5.91626,0,1,1,3.13574-11.21289.74908.74908,0,0,0,1.03125-.41992,10.35182,10.35182,0,0,1,20.04492,2.54785.75052.75052,0,0,0,1.207.523,4.74342,4.74342,0,0,1,2.92579-1.02246,4.80567,4.80567,0,0,1,0,9.61133Z"/></svg>