<?xml version="1.0" encoding="UTF-8"?><svg id="a" xmlns="http://www.w3.org/2000/svg" viewBox="0 0 80 80"><path d="M62,15.25H18c-4.8252,0-8.75,3.9248-8.75,8.75v16c0,.41406,.33594,.75,.75,.75h11.25v29.25c0,.41406,.33594,.75,.75,.75H58c.41406,0,.75-.33594,.75-.75v-29.25h11.25c.41406,0,.75-.33594,.75-.75V24c0-4.8252-3.9248-8.75-8.75-8.75Zm-14.06641,1.5c-1.65527,2.7666-4.65625,4.5-7.93359,4.5s-6.27832-1.7334-7.93359-4.5h15.86719Zm-26.68359,22.5H10.75v-2.5h10.5v2.5Zm36,30H22.75v-2.5H57.25v2.5Zm12-30h-10.5v-2.5h10.5v2.5Zm0-4h-11.25c-.41406,0-.75,.33594-.75,.75v29.25H22.75v-29.25c0-.41406-.33594-.75-.75-.75H10.75v-11.25c0-3.99805,3.25195-7.25,7.25-7.25h12.3667c1.80518,3.65894,5.52979,6,9.6333,6s7.82812-2.34106,9.6333-6h12.3667c3.99805,0,7.25,3.25195,7.25,7.25v11.25Z"/><path d="M40,27.25c-2.61914,0-4.75,2.13086-4.75,4.75v8c0,2.61914,2.13086,4.75,4.75,4.75s4.75-2.13086,4.75-4.75v-8c0-2.61914-2.13086-4.75-4.75-4.75Zm3.25,12.75c0,1.79199-1.45801,3.25-3.25,3.25s-3.25-1.45801-3.25-3.25v-8c0-1.79199,1.45801-3.25,3.25-3.25s3.25,1.45801,3.25,3.25v8Z"/></svg>