<?xml version="1.0" encoding="UTF-8"?><svg id="a" xmlns="http://www.w3.org/2000/svg" viewBox="0 0 80 80"><path d="M40,29.25c-5.85547,0-10.61914,4.82227-10.61914,10.75s4.76367,10.75,10.61914,10.75,10.61914-4.82227,10.61914-10.75-4.76367-10.75-10.61914-10.75Zm0,20c-5.02832,0-9.11914-4.14941-9.11914-9.25s4.09082-9.25,9.11914-9.25,9.11914,4.14941,9.11914,9.25-4.09082,9.25-9.11914,9.25Z"/><path d="M51.37207,59.9375c2.55762-1.49707,5.76953-1.33741,8.18164,.40527,1.1377,.82178,2.64453,.6748,3.50293-.3418,2.42383-2.86328,4.28711-6.11963,5.53809-9.67725,.46289-1.31299-.14648-2.74609-1.41699-3.3335-2.69922-1.24756-4.44336-3.99219-4.44336-6.9917,0-2.99805,1.74219-5.7417,4.43945-6.99023,1.26172-.58447,1.87305-2.01123,1.4209-3.31836-.62109-1.79053-1.39062-3.49707-2.28809-5.07178-.89746-1.5752-1.97168-3.10352-3.19238-4.54346-.89844-1.05859-2.43066-1.23828-3.56836-.41797-2.41211,1.74072-5.62305,1.89795-8.17578,.4043-2.5625-1.49805-4.03516-4.40283-3.75195-7.39941,.13184-1.40527-.79297-2.65576-2.15234-2.9082-3.66895-.68066-7.38574-.67334-11.04883,.02197-1.29492,.24609-2.1709,1.48633-2.03906,2.88574,.28516,2.99658-1.1875,5.90186-3.75,7.40137-2.55664,1.49658-5.76953,1.33691-8.18066-.40528-1.13867-.82129-2.64453-.67627-3.50391,.34131-2.4248,2.86426-4.28809,6.12061-5.53809,9.67773-.46289,1.31299,.14648,2.74609,1.41699,3.3335,2.69922,1.24756,4.44336,3.99219,4.44336,6.9917,0,2.99805-1.74219,5.7417-4.43945,6.99023-1.26172,.58447-1.87305,2.01123-1.4209,3.31836,.62109,1.79053,1.39062,3.49707,2.28809,5.07178,.89746,1.5752,1.97168,3.10352,3.19238,4.54297,.89648,1.05908,2.43164,1.23877,3.56836,.41846,2.41211-1.74072,5.62207-1.89795,8.17578-.4043,2.5625,1.49805,4.03516,4.40283,3.75195,7.39941-.13184,1.40527,.79297,2.65576,2.15234,2.9082,1.81445,.33691,3.64062,.50537,5.4668,.50488,1.86523,0,3.73145-.17529,5.58203-.52686,1.2959-.24609,2.17285-1.4873,2.03906-2.88574-.28516-2.99658,1.1875-5.90186,3.75-7.40136Zm-5.24414,7.54345c.06055,.62354-.29492,1.16943-.82422,1.27002-3.47949,.66064-7.01074,.66797-10.49609,.021-.60059-.11182-.99219-.65527-.93164-1.29297,.33691-3.5752-1.4248-7.04297-4.48828-8.83496-1.40137-.81934-2.96582-1.2251-4.52734-1.2251-1.85742,0-3.71191,.57422-5.2832,1.70801-.50391,.36328-1.15527,.2915-1.54688-.17236-1.16211-1.36865-2.18262-2.8208-3.03418-4.31494-.85156-1.49512-1.58301-3.11719-2.17285-4.82031-.20312-.58594,.06348-1.20264,.63379-1.46631,3.22461-1.49316,5.30859-4.77148,5.30859-8.35156,0-3.58252-2.08594-6.86133-5.31445-8.35303-.57324-.26514-.83887-.88525-.63086-1.47461,1.18945-3.38428,2.96191-6.48193,5.26758-9.20654,.34766-.41162,.98633-.45215,1.48047-.09424,2.89355,2.09033,6.74609,2.27979,9.81738,.48438,3.06445-1.79346,4.8252-5.2627,4.48633-8.83789-.05957-.62354,.29492-1.16992,.82422-1.27051,3.47852-.66064,7.00879-.66699,10.49609-.021,.60059,.11182,.99219,.65527,.93164,1.29297-.33691,3.5752,1.4248,7.04297,4.48828,8.83496,3.06836,1.79395,6.91797,1.60449,9.81055-.48291,.50391-.36328,1.15527-.29102,1.54688,.17188v.00049c1.16211,1.36865,2.18262,2.8208,3.03418,4.31494,.85156,1.49512,1.58301,3.11719,2.17285,4.82031,.20312,.58594-.06348,1.20264-.63379,1.46631-3.22461,1.49316-5.30859,4.77148-5.30859,8.35156,0,3.58252,2.08594,6.86133,5.31445,8.35303,.57324,.26514,.83887,.88525,.63086,1.47412-1.18945,3.38525-2.96191,6.48291-5.26758,9.20654-.34863,.41162-.98633,.45215-1.47949,.09473-2.89551-2.09033-6.74805-2.27979-9.81836-.48438-3.06445,1.79346-4.8252,5.2627-4.48633,8.83838Z"/></svg>