<svg xmlns="http://www.w3.org/2000/svg" viewBox="0 0 80 80"><path d="M20,50.56445h4v-1.5H20a9.25,9.25,0,0,1,0-18.5,9.15437,9.15437,0,0,1,4.01562.92774.74912.74912,0,0,0,1.03126-.41992,15.9031,15.9031,0,0,1,30.79394,3.91455.75047.75047,0,0,0,1.207.52343A7.48772,7.48772,0,0,1,61.667,33.898a7.58325,7.58325,0,0,1,0,15.1665H56v1.5h5.667a9.08325,9.08325,0,0,0,0-18.1665,8.88472,8.88472,0,0,0-4.49023,1.21875,17.404,17.404,0,0,0-33.251-3.80127A10.58906,10.58906,0,0,0,20,29.06445a10.75,10.75,0,0,0,0,21.5Z"/><path d="M49.01562,40.98437A12.75514,12.75514,0,1,0,48.4585,59.519l9.01123,9.01123,1.06054-1.06054L49.519,58.4585A12.75451,12.75451,0,0,0,49.01562,40.98437ZM47.95508,57.95508a11.24463,11.24463,0,1,1,0-15.91016A11.26332,11.26332,0,0,1,47.95508,57.95508Z"/><path d="M40,43.25a6.746,6.746,0,0,0-4.78149,11.50879l.009.01367.01367.009A6.74835,6.74835,0,1,0,40,43.25Zm-.75,1.57593V49.25H34.82593A5.22955,5.22955,0,0,1,39.25,44.82593ZM34.82593,50.75h3.36352l-2.37964,2.37964A5.19494,5.19494,0,0,1,34.82593,50.75ZM40,55.25a5.19958,5.19958,0,0,1-3.12939-1.05994l3.65966-3.65979.002-.00146.001-.00147.001-.00048a.7503.7503,0,0,0,.19727-.36182l.001-.00244v-.00244l.001-.00147v-.00342l.001-.002.001-.00342V50.146l.001-.0044v-.00049l.001-.00146v-.00342c.00489-.00244.001-.002.001-.002v-.00391l.001-.002V50.124l.001-.00146v-.00293l.001-.0044a.8383.8383,0,0,0,.00879-.12158V44.82593A5.23818,5.23818,0,0,1,40,55.25Z"/></svg>