<?xml version="1.0" encoding="UTF-8"?><svg id="a" xmlns="http://www.w3.org/2000/svg" viewBox="0 0 80 80"><path d="M68.75,25c0-8.68457-7.06543-15.75-15.75-15.75s-15.75,7.06543-15.75,15.75c0,3.04785,.88452,5.88623,2.38953,8.2998l-12.1698,12.16992c-.14062,.14062-.21973,.33105-.21973,.53027v9.79199l-5.64978,9.41675c-3.6427,1.28174-7.49451,2.04126-11.60022,2.04126v1.5c15.82422,0,27.82959-10.61621,38.42139-19.98242,8.50635-7.52148,15.85254-14.01758,23.57861-14.01758v-1.5c-2.20947,0-4.39111,.50781-6.56152,1.37598,2.06726-2.66528,3.31152-5.99951,3.31152-9.62598ZM35.25,57.73267c-3.57007,2.59644-7.34229,4.90356-11.37366,6.59766l4.76672-7.94458c.06982-.11621,.10693-.25,.10693-.38574v-5.25h6.5v6.98267Zm12.17773-10.08813c-3.38733,2.99512-6.92346,6.1189-10.67773,8.97144v-6.61597c0-.41406-.33594-.75-.75-.75h-7.25v-2.93945l11.75732-11.75732c2.88098,3.75854,7.40198,6.19678,12.49268,6.19678,.98291,0,1.94116-.10229,2.87476-.27539-2.7843,2.16992-5.58838,4.64209-8.44702,7.16992Zm5.57227-8.39453c-7.85742,0-14.25-6.39258-14.25-14.25s6.39258-14.25,14.25-14.25,14.25,6.39258,14.25,14.25-6.39258,14.25-14.25,14.25Z"/><path d="M28,31.25c-2.61914,0-4.75,2.13086-4.75,4.75s2.13086,4.75,4.75,4.75,4.75-2.13086,4.75-4.75-2.13086-4.75-4.75-4.75Zm0,8c-1.79199,0-3.25-1.45801-3.25-3.25s1.45801-3.25,3.25-3.25,3.25,1.45801,3.25,3.25-1.45801,3.25-3.25,3.25Z"/></svg>