<?xml version="1.0" encoding="UTF-8"?><svg id="a" xmlns="http://www.w3.org/2000/svg" viewBox="0 0 80 80"><path d="M54.97949,26.20264l15.4707-11.60254-.90039-1.2002-15.80005,11.8501H26.25024L10.4502,13.3999l-.90039,1.2002,15.47046,11.60242-7.45569,13.04749H8v1.5h9.68945l3.24976,3.24982-1.46948,1.46942c-1.39551,1.39502-1.39551,3.66553,0,5.06055,.69775,.69775,1.61377,1.04639,2.53027,1.04639,.15674,0,.31226-.02435,.4679-.04474-.13977,1.06567,.18469,2.18146,1.00183,2.99835,.69775,.69775,1.61377,1.04639,2.53027,1.04639,.15674,0,.31226-.02435,.4679-.04474-.13977,1.06567,.18469,2.18146,1.00183,2.99835,.69775,.69775,1.61377,1.04639,2.53027,1.04639,.15674,0,.31226-.02435,.4679-.04474-.13977,1.06567,.18469,2.18146,1.00183,2.99835,.69775,.69775,1.61377,1.04639,2.53027,1.04639,.91602,0,1.83301-.34863,2.53027-1.04639l2.4696-2.46936,2.46985,2.46985c.69775,.69775,1.61377,1.04639,2.53027,1.04639s1.83252-.34863,2.53027-1.04639c.81714-.81689,1.1416-1.93268,1.00183-2.99835,.15564,.02039,.31116,.04474,.4679,.04474,.9165,0,1.83252-.34863,2.53027-1.04639,.81714-.81689,1.1416-1.93268,1.00183-2.99835,.15564,.02039,.31116,.04474,.4679,.04474,.9165,0,1.83252-.34863,2.53027-1.04639,.81714-.81689,1.1416-1.93268,1.00183-2.99835,.15564,.02039,.31116,.04474,.4679,.04474,.9165,0,1.83252-.34863,2.53027-1.04639,1.39551-1.39502,1.39551-3.66553,0-5.06055l-1.06055,1.06055c.81055,.81055,.81055,2.12891,0,2.93945s-2.12891,.81055-2.93945,0l-1.06055,1.06055c.81055,.81055,.81055,2.12891,0,2.93945s-2.12891,.81055-2.93945,0l-1.06055,1.06055c.81055,.81055,.81055,2.12891,0,2.93945s-2.12891,.81055-2.93945,0l-1.06055,1.06055c.81055,.81055,.81055,2.12891,0,2.93945s-2.12891,.81055-2.93945,0l-2.46973-2.46973,.46973-.46973c1.39551-1.39502,1.39551-3.66553,0-5.06055-.81689-.81653-1.93262-1.14111-2.99817-1.00159,.13977-1.06573-.18469-2.18152-1.00183-2.99841-.81665-.81689-1.93237-1.14154-2.99817-1.00171,.13977-1.06567-.18469-2.18146-1.00183-2.99829-.81665-.81689-1.93237-1.14154-2.99817-1.00171,.13977-1.06567-.18469-2.18146-1.00183-2.99829-1.39453-1.39453-3.66504-1.39551-5.06055,0l-1.46973,1.4696-3.06445-3.06476,7.49988-13.12457h9.75403l-6.71973,6.71973c-.25293,.25293-.29199,.64893-.09375,.94629,1.1626,1.74365,3.50049,2.57812,5.30029,2.57812,.6499,0,1.23047-.10889,1.65918-.32324l7.5166-3.7583,13.61768,13.61719,1.06055-1.06055-.46948-.46948,4.24976-4.24976h9.68945v-1.5h-9.56494l-7.45557-13.04736Zm-16.97949,27.71973c.53223,0,1.06445,.20264,1.46973,.60791,.81055,.81055,.81055,2.12891,0,2.93945l-4,3.99951c-.81055,.81055-2.12891,.81055-2.93945,0s-.81055-2.12891,0-2.93945l4-3.99951c.40527-.40527,.9375-.60791,1.46973-.60791Zm-4-4c.53223,0,1.06445,.20264,1.46973,.60791,.81055,.81055,.81055,2.12891,0,2.93945l-4,3.99951c-.81055,.81055-2.12891,.81055-2.93945,0s-.81055-2.12891,0-2.93945l4-3.99951c.40527-.40527,.9375-.60791,1.46973-.60791Zm-4-4c.53223,0,1.06445,.20264,1.46973,.60791,.81055,.81055,.81055,2.12891,0,2.93945l-4,3.99951c-.81055,.81055-2.12891,.81055-2.93945,0s-.81055-2.12891,0-2.93945l4-3.99951c.40527-.40527,.9375-.60791,1.46973-.60791Zm-5.46973-3.39209c.40527-.40527,.9375-.60791,1.46973-.60791s1.06445,.20264,1.46973,.60791c.81055,.81055,.81055,2.12891,0,2.93945l-4,3.99951c-.81055,.81055-2.12891,.81055-2.93945,0s-.81055-2.12891,0-2.93945l4-3.99951Zm32.46997,1.40894l-11.1897-11.18921h4.18945v-1.5h-6c-.11621,0-.23145,.02734-.33545,.0791l-8,4c-.86475,.43066-3.33984,.0625-4.65674-1.27588l7.30273-7.30322h15.25403l7.49988,13.12494-4.06421,4.06427Z"/><rect x="44.25008" y="55.58571" width="1.49984" height="2.82808" transform="translate(-27.12575 48.52345) rotate(-45.00699)"/><rect x="47.25008" y="49.1715" width="1.49984" height="5.65651" transform="translate(-22.71068 49.17582) rotate(-45.0035)"/><rect x="50.25008" y="42.75729" width="1.49984" height="8.48494" transform="translate(-18.29618 49.83118) rotate(-45.00233)"/></svg>