<?xml version="1.0" encoding="UTF-8"?><svg id="a" xmlns="http://www.w3.org/2000/svg" viewBox="0 0 80 80"><path d="M70.01367,15.25H10.01367c-.41406,0-.75,.33594-.75,.75v11c0,1.73755,.77783,3.29419,2,4.34961v32.65039c0,.41406,.33594,.75,.75,.75h56c.41406,0,.75-.33594,.75-.75V31.34961c1.22217-1.05542,2-2.61206,2-4.34961v-11c0-.41406-.33594-.75-.75-.75Zm-19.25,1.5h8.5v10.25c0,2.34326-1.90625,4.25-4.25,4.25s-4.25-1.90674-4.25-4.25v-10.25Zm-10,0h8.5v10.25c0,2.34326-1.90625,4.25-4.25,4.25s-4.25-1.90674-4.25-4.25v-10.25Zm-10,0h8.5v10.25c0,2.34326-1.90625,4.25-4.25,4.25s-4.25-1.90674-4.25-4.25v-10.25Zm-10,0h8.5v10.25c0,2.34326-1.90625,4.25-4.25,4.25s-4.25-1.90674-4.25-4.25v-10.25Zm-10,10.25v-10.25h8.5v10.25c0,2.34326-1.90625,4.25-4.25,4.25s-4.25-1.90674-4.25-4.25ZM31.26367,63.25h-12.5v-24.5h12.5v24.5Zm36,0H32.76367v-25.25c0-.41406-.33594-.75-.75-.75h-14c-.41406,0-.75,.33594-.75,.75v25.25h-4.5v-30.95923c.69141,.29517,1.45166,.45923,2.25,.45923,2.14209,0,4.01074-1.17969,5-2.9209,.98926,1.74121,2.85791,2.9209,5,2.9209s4.01074-1.17969,5-2.9209c.98926,1.74121,2.85791,2.9209,5,2.9209s4.01074-1.17969,5-2.9209c.98926,1.74121,2.85791,2.9209,5,2.9209s4.01074-1.17969,5-2.9209c.98926,1.74121,2.85791,2.9209,5,2.9209s4.01074-1.17969,5-2.9209c.98926,1.74121,2.85791,2.9209,5,2.9209,.79834,0,1.55859-.16406,2.25-.45923v30.95923Zm2-36.25c0,2.34326-1.90625,4.25-4.25,4.25s-4.25-1.90674-4.25-4.25v-10.25h8.5v10.25Z"/><path d="M62.01367,37.25h-24c-.41406,0-.75,.33594-.75,.75v14c0,.41406,.33594,.75,.75,.75h24c.41406,0,.75-.33594,.75-.75v-14c0-.41406-.33594-.75-.75-.75Zm-.75,14h-22.5v-12.5h22.5v12.5Z"/></svg>