<?xml version="1.0" encoding="UTF-8"?><svg id="a" xmlns="http://www.w3.org/2000/svg" viewBox="0 0 80 80"><path d="M25.19043,33.9834v12c0,.41406,.33594,.75,.75,.75h28c.41406,0,.75-.33594,.75-.75v-12c0-.41406-.33594-.75-.75-.75H25.94043c-.41406,0-.75,.33594-.75,.75Zm1.5,.75h26.5v10.5H26.69043v-10.5Z"/><rect x="37.94043" y="39.2334" width="12" height="1.5"/><path d="M47.41602,21.36084l.83594,1.24512c7.10059-4.77344,9.77051-3.48047,11.1582-2.09229,1.38281,1.3833,2.67676,4.03516-2.0332,11.06885l1.24609,.83496c4.05273-6.05225,4.63965-10.17188,1.84766-12.96436-2.7627-2.76318-7.03516-2.13965-13.05469,1.90771Z"/><path d="M21.24121,47.56592c-4.04297,6.04004-4.62402,10.1543-1.83105,12.94775,1.14941,1.1499,2.52246,1.72754,4.16211,1.72754,2.34375,0,5.23145-1.18018,8.78516-3.55811l-.83398-1.24707c-7.01758,4.69531-9.66895,3.40088-11.05273,2.01709s-2.67969-4.03516,2.0166-11.05322l-1.24609-.83398Z"/><path d="M19.41016,19.45312c-2.79785,2.79736-2.19141,6.94043,1.9082,13.03955l1.24414-.83691c-4.76855-7.09424-3.47754-9.75635-2.0918-11.14209,1.3877-1.38721,4.04102-2.68555,11.06934,2.01807l.83398-1.24609c-5.96484-3.99316-10.20605-4.59229-12.96387-1.83252Z"/><path d="M58.63965,47.55127l-1.24609,.83398c4.70215,7.0249,3.40234,9.68115,2.0166,11.06787-1.37891,1.37891-4.02637,2.67285-11.05371-2.03174l-.83398,1.24658c3.56152,2.38379,6.45215,3.56689,8.79688,3.56689,1.63574,0,3.00586-.57617,4.15137-1.72119,2.75879-2.76025,2.16016-7.00049-1.83105-12.9624Z"/><path d="M40.69043,23.9834V11.79395l2.71973,2.71973,1.06055-1.06055-4-4c-.29297-.29297-.76758-.29297-1.06055,0l-4,4,1.06055,1.06055,2.71973-2.71973v12.18945h1.5Z"/><path d="M39.19043,55.9834v12.18945l-2.71973-2.71973-1.06055,1.06055,4,4c.14648,.14648,.33789,.21973,.53027,.21973s.38379-.07324,.53027-.21973l4-4-1.06055-1.06055-2.71973,2.71973v-12.18945h-1.5Z"/><path d="M13.41016,44.51367l1.06055-1.06055-2.71973-2.71973h10.18945v-1.5H11.75098l2.71973-2.71973-1.06055-1.06055-4,4c-.29297,.29297-.29297,.76758,0,1.06055l4,4Z"/><path d="M66.4707,44.51367l4-4c.29297-.29297,.29297-.76758,0-1.06055l-4-4-1.06055,1.06055,2.71973,2.71973h-10.18945v1.5h10.18945l-2.71973,2.71973,1.06055,1.06055Z"/><path d="M65.41016,9.45312l-4,4,1.06055,1.06055,3.46973-3.46973,3.46973,3.46973,1.06055-1.06055-4-4c-.29297-.29297-.76758-.29297-1.06055,0Z"/><circle cx="29.94019" cy="40" r="1"/><circle cx="33.94019" cy="40" r="1"/></svg>