<?xml version="1.0" encoding="UTF-8"?><svg id="a" xmlns="http://www.w3.org/2000/svg" viewBox="0 0 80 80"><path d="M66,47.25c-.4248,0-.84277,.05859-1.25,.17383V16c0-.41406-.33594-.75-.75-.75h-7.4248c.11523-.41016,.1748-.83105,.1748-1.25,0-2.61914-2.13086-4.75-4.75-4.75s-4.75,2.13086-4.75,4.75c0,.41895,.05957,.83984,.1748,1.25h-15.96484c-.26758,0-.51562,.14258-.64941,.375-.13379,.23145-.13379,.51758,0,.74902,.29102,.50684,.43945,1.05371,.43945,1.62598,0,.86133-.33887,1.67969-.94629,2.2959-.62402,.61523-1.44238,.9541-2.30371,.9541-1.79199,0-3.25-1.45801-3.25-3.25,0-.57227,.14844-1.11914,.43945-1.62598,.13379-.23145,.13379-.51758,0-.74902-.13379-.23242-.38184-.375-.64941-.375h-8.54004c-.41406,0-.75,.33594-.75,.75v7.4248c-.41016-.11523-.83105-.1748-1.25-.1748-2.61914,0-4.75,2.13086-4.75,4.75s2.13086,4.75,4.75,4.75c.41895,0,.83984-.05957,1.25-.1748v31.4248c0,.41406,.33594,.75,.75,.75h7.42383c-.11523,.40723-.17383,.8252-.17383,1.25,0,2.61914,2.13086,4.75,4.75,4.75s4.75-2.13086,4.75-4.75c0-.4248-.05859-.84277-.17383-1.25h31.42383c.41406,0,.75-.33594,.75-.75v-7.42383c.40723,.11523,.8252,.17383,1.25,.17383,2.61914,0,4.75-2.13086,4.75-4.75s-2.13086-4.75-4.75-4.75Zm-25.25-30.5h7.7998c.26758,0,.51562-.14258,.64941-.375,.13379-.23145,.13379-.51758,0-.74902-.29785-.51855-.44922-1.06543-.44922-1.62598,0-1.79199,1.45801-3.25,3.25-3.25s3.25,1.45801,3.25,3.25c0,.56055-.15137,1.10742-.44922,1.62598-.13379,.23145-.13379,.51758,0,.74902,.13379,.23242,.38184,.375,.64941,.375h7.7998v22.5h-7.7998c-.26758,0-.51562,.14258-.64941,.375-.13379,.23145-.13379,.51758,0,.74902,.29785,.51855,.44922,1.06543,.44922,1.62598,0,1.79199-1.45801,3.25-3.25,3.25s-3.25-1.45801-3.25-3.25c0-.56055,.15137-1.10742,.44922-1.62598,.13379-.23145,.13379-.51758,0-.74902-.13379-.23242-.38184-.375-.64941-.375h-7.7998v-6.6748c.41016,.11523,.83105,.1748,1.25,.1748,2.61914,0,4.75-2.13086,4.75-4.75s-2.13086-4.75-4.75-4.75c-.41895,0-.83984,.05957-1.25,.1748v-6.6748ZM14,31.25c-1.79199,0-3.25-1.45801-3.25-3.25s1.45801-3.25,3.25-3.25c.56055,0,1.10742,.15137,1.62598,.44922,.23145,.13672,.51758,.13477,.74902,0,.23242-.13379,.375-.38184,.375-.64941v-7.7998h6.66992c-.1123,.40723-.16992,.82812-.16992,1.25,0,2.61914,2.13086,4.75,4.75,4.75,1.25781,0,2.44922-.49219,3.36426-1.39355,.89355-.90723,1.38574-2.09863,1.38574-3.35645,0-.42188-.05762-.84277-.16992-1.25h6.66992v7.7998c0,.26758,.14258,.51562,.375,.64941,.23145,.13379,.51758,.13574,.74902,0,.51855-.29785,1.06543-.44922,1.62598-.44922,1.79199,0,3.25,1.45801,3.25,3.25s-1.45801,3.25-3.25,3.25c-.56055,0-1.10742-.15137-1.62598-.44922-.23145-.13477-.51758-.13379-.74902,0-.23242,.13379-.375,.38184-.375,.64941v7.7998h-6.67383c.11523-.40723,.17383-.8252,.17383-1.25,0-2.61914-2.13086-4.75-4.75-4.75s-4.75,2.13086-4.75,4.75c0,.4248,.05859,.84277,.17383,1.25h-6.67383v-7.7998c0-.26758-.14258-.51562-.375-.64941-.23145-.13477-.51758-.13477-.74902,0-.51855,.29785-1.06543,.44922-1.62598,.44922ZM31.44531,63.25c-.26855,0-.5166,.14355-.65039,.37598s-.13281,.51953,.00195,.75098c.30078,.5166,.45312,1.0625,.45312,1.62305,0,1.79199-1.45801,3.25-3.25,3.25s-3.25-1.45801-3.25-3.25c0-.56055,.15234-1.10645,.45312-1.62305,.13477-.23145,.13574-.51855,.00195-.75098s-.38184-.37598-.65039-.37598h-7.80469v-22.5h7.80469c.26855,0,.5166-.14355,.65039-.37598s.13281-.51953-.00195-.75098c-.30078-.5166-.45312-1.0625-.45312-1.62305,0-1.79199,1.45801-3.25,3.25-3.25s3.25,1.45801,3.25,3.25c0,.56055-.15234,1.10645-.45312,1.62305-.13477,.23145-.13574,.51855-.00195,.75098s.38184,.37598,.65039,.37598h7.80469v6.67383c-.40723-.11523-.8252-.17383-1.25-.17383-2.61914,0-4.75,2.13086-4.75,4.75s2.13086,4.75,4.75,4.75c.4248,0,.84277-.05859,1.25-.17383v6.67383h-7.80469Zm34.55469-8c-.56055,0-1.10645-.15234-1.62305-.45312-.23145-.13379-.51758-.13574-.75098-.00195-.23242,.13379-.37598,.38184-.37598,.65039v7.80469h-22.5v-7.80469c0-.26855-.14355-.5166-.37598-.65039-.2334-.13281-.51953-.13184-.75098,.00195-.5166,.30078-1.0625,.45312-1.62305,.45312-1.79199,0-3.25-1.45801-3.25-3.25s1.45801-3.25,3.25-3.25c.56055,0,1.10645,.15234,1.62305,.45312,.23145,.13379,.51758,.13574,.75098,.00195,.23242-.13379,.37598-.38184,.37598-.65039v-7.80469h6.6748c-.11523,.41016-.1748,.83105-.1748,1.25,0,2.61914,2.13086,4.75,4.75,4.75s4.75-2.13086,4.75-4.75c0-.41895-.05957-.83984-.1748-1.25h6.6748v7.80469c0,.26855,.14355,.5166,.37598,.65039,.23438,.13379,.52051,.13281,.75098-.00195,.5166-.30078,1.0625-.45312,1.62305-.45312,1.79199,0,3.25,1.45801,3.25,3.25s-1.45801,3.25-3.25,3.25Z"/></svg>