<svg xmlns="http://www.w3.org/2000/svg" viewBox="0 0 80 80"><path d="M31.25,48a.7502.7502,0,0,0,.75.75H48a.7502.7502,0,0,0,.75-.75V32a.7502.7502,0,0,0-.75-.75H32a.7502.7502,0,0,0-.75.75Zm1.5-15.25h14.5v14.5H32.75Z"/><path d="M68.75,32a.7502.7502,0,0,0-.75-.75H52a.7502.7502,0,0,0-.75.75V48a.7502.7502,0,0,0,.75.75H68a.7502.7502,0,0,0,.75-.75Zm-1.5,15.25H52.75V32.75h14.5Z"/><path d="M32,28.75H48a.7502.7502,0,0,0,.75-.75V12a.7502.7502,0,0,0-.75-.75H32a.7502.7502,0,0,0-.75.75V28A.7502.7502,0,0,0,32,28.75Zm.75-16h14.5v14.5H32.75Z"/><path d="M68.75,12a.7502.7502,0,0,0-.75-.75H52a.7502.7502,0,0,0-.75.75V28a.7502.7502,0,0,0,.75.75H68a.7502.7502,0,0,0,.75-.75Zm-1.5,15.25H52.75V12.75h14.5Z"/><path d="M11.25,12V28a.7502.7502,0,0,0,.75.75H28a.7502.7502,0,0,0,.75-.75V12a.7502.7502,0,0,0-.75-.75H12A.7502.7502,0,0,0,11.25,12Zm1.5.75h14.5v14.5H12.75Z"/><path d="M11.25,68a.7502.7502,0,0,0,.75.75H28a.7502.7502,0,0,0,.75-.75V52a.7502.7502,0,0,0-.75-.75H12a.7502.7502,0,0,0-.75.75Zm1.5-15.25h14.5v14.5H12.75Z"/><path d="M11.25,48a.7502.7502,0,0,0,.75.75H28a.7502.7502,0,0,0,.75-.75V32a.7502.7502,0,0,0-.75-.75H12a.7502.7502,0,0,0-.75.75Zm1.5-15.25h14.5v14.5H12.75Z"/><path d="M31.25,68a.7502.7502,0,0,0,.75.75H48a.7502.7502,0,0,0,.75-.75V52a.7502.7502,0,0,0-.75-.75H32a.7502.7502,0,0,0-.75.75Zm1.5-15.25h14.5v14.5H32.75Z"/><path d="M68.75,68V52a.7502.7502,0,0,0-.75-.75H52a.7502.7502,0,0,0-.75.75V68a.7502.7502,0,0,0,.75.75H68A.7502.7502,0,0,0,68.75,68Zm-1.5-.75H52.75V52.75h14.5Z"/><path d="M37.919,42.8584,36,40.93945,34.93945,42l2.53028,2.53027A.74907.74907,0,0,0,38,44.75c.01758,0,.03516-.00049.05273-.002a.74662.74662,0,0,0,.54688-.29785l6.45019-8.6001-1.20019-.8999Z"/></svg>