<?xml version="1.0" encoding="UTF-8"?><svg id="a" xmlns="http://www.w3.org/2000/svg" viewBox="0 0 80 80"><path d="M40,10.75c16.12891,0,29.25,13.12158,29.25,29.25h1.5c0-16.95557-13.79395-30.75-30.75-30.75S9.25,23.04443,9.25,40h1.5c0-16.12842,13.12109-29.25,29.25-29.25Z"/><path d="M56,55.25h-5.36719c-.32861-1.15063-1.37793-2-2.63281-2s-2.3042,.84937-2.63281,2H24v1.5h21.36719c.32861,1.15063,1.37793,2,2.63281,2s2.3042-.84937,2.63281-2h5.36719v-1.5Zm-8,2c-.68945,0-1.25-.56055-1.25-1.25s.56055-1.25,1.25-1.25,1.25,.56055,1.25,1.25-.56055,1.25-1.25,1.25Z"/><rect x="40" y="27.25" width="12" height="1.5"/><rect x="40" y="35.25" width="12" height="1.5"/><path d="M56.75,48V24c0-.41406-.33594-.75-.75-.75H24c-.41406,0-.75,.33594-.75,.75v24c0,.41406,.33594,.75,.75,.75H56c.41406,0,.75-.33594,.75-.75Zm-1.5-.75H24.75v-6.5h30.5v6.5Zm0-8H24.75v-6.5h30.5v6.5Zm0-8H24.75v-6.5h30.5v6.5Z"/><rect x="40" y="43.25" width="12" height="1.5"/><path d="M32,59.25c-1.25488,0-2.3042,.84937-2.63281,2h-5.36719v1.5h5.36719c.32861,1.15063,1.37793,2,2.63281,2s2.3042-.84937,2.63281-2h21.36719v-1.5h-21.36719c-.32861-1.15063-1.37793-2-2.63281-2Zm0,4c-.68945,0-1.25-.56055-1.25-1.25s.56055-1.25,1.25-1.25,1.25,.56055,1.25,1.25-.56055,1.25-1.25,1.25Z"/><circle cx="28" cy="28" r="1"/><circle cx="32" cy="28" r="1"/><circle cx="36" cy="28" r="1"/><circle cx="28" cy="36" r="1"/><circle cx="32" cy="36" r="1"/><circle cx="36" cy="36" r="1"/><circle cx="28" cy="44" r="1"/><circle cx="32" cy="44" r="1"/><circle cx="36" cy="44" r="1"/></svg>