<?xml version="1.0" encoding="UTF-8"?>
<svg id="DO_NOT_TOUCH_Outlines_" data-name="DO NOT TOUCH (Outlines)" xmlns="http://www.w3.org/2000/svg" viewBox="0 0 80 80">
  <path d="M52.86,33.89c-5.14,0-9.32-4.18-9.32-9.32s4.18-9.32,9.32-9.32,9.32,4.18,9.32,9.32-4.18,9.32-9.32,9.32Zm0-17.14c-4.31,0-7.82,3.51-7.82,7.82s3.51,7.82,7.82,7.82,7.82-3.51,7.82-7.82-3.51-7.82-7.82-7.82Z"/>
  <path d="M70.75,64.57h-1.5v-17.14c0-4.31-3.51-7.82-7.82-7.82h-17.14c-4.31,0-7.82,3.51-7.82,7.82v17.14h-1.5v-17.14c0-5.14,4.18-9.32,9.32-9.32h17.14c5.14,0,9.32,4.18,9.32,9.32v17.14Z"/>
  <path d="M22.86,42.46c-4.35,0-7.89-3.54-7.89-7.89s3.54-7.89,7.89-7.89,7.89,3.54,7.89,7.89-3.54,7.89-7.89,7.89Zm0-14.29c-3.53,0-6.39,2.87-6.39,6.39s2.87,6.39,6.39,6.39,6.39-2.87,6.39-6.39-2.87-6.39-6.39-6.39Z"/>
  <path d="M10.75,64.57h-1.5v-10c0-4.35,3.54-7.89,7.89-7.89h12.86v1.5h-12.86c-3.52,0-6.39,2.87-6.39,6.39v10Z"/>
</svg>