<?xml version="1.0" encoding="UTF-8"?><svg id="a" xmlns="http://www.w3.org/2000/svg" viewBox="0 0 80 80"><path d="M14,46.75h4v-1.5h-4c-1.79199,0-3.25-1.45801-3.25-3.25V14c0-1.79199,1.45801-3.25,3.25-3.25h28c1.79199,0,3.25,1.45801,3.25,3.25v4h1.5v-4c0-2.61914-2.13086-4.75-4.75-4.75H14c-2.61914,0-4.75,2.13086-4.75,4.75v28c0,2.61914,2.13086,4.75,4.75,4.75Z"/><path d="M26,22.75h28c1.79199,0,3.25,1.45801,3.25,3.25v4h1.5v-4c0-2.61914-2.13086-4.75-4.75-4.75H26c-2.61914,0-4.75,2.13086-4.75,4.75v28c0,2.61914,2.13086,4.75,4.75,4.75h4v-1.5h-4c-1.79199,0-3.25-1.45801-3.25-3.25V26c0-1.79199,1.45801-3.25,3.25-3.25Z"/><path d="M38,70.75h28c2.61914,0,4.75-2.13086,4.75-4.75v-28c0-2.61914-2.13086-4.75-4.75-4.75h-28c-2.61914,0-4.75,2.13086-4.75,4.75v28c0,2.61914,2.13086,4.75,4.75,4.75Zm-3.25-32.75c0-1.79199,1.45801-3.25,3.25-3.25h28c1.79199,0,3.25,1.45801,3.25,3.25v28c0,1.79199-1.45801,3.25-3.25,3.25h-28c-1.79199,0-3.25-1.45801-3.25-3.25v-28Z"/></svg>