<?xml version="1.0" encoding="UTF-8"?><svg id="a" xmlns="http://www.w3.org/2000/svg" viewBox="0 0 80 80"><path d="M22,34.75h1.25v3.25c0,.30322,.18262,.57666,.46289,.69287,.09277,.03857,.19043,.05713,.28711,.05713,.19531,0,.38672-.07617,.53027-.21973l3.78027-3.78027h3.68945c1.5166,0,2.75-1.2334,2.75-2.75v-4c0-1.5166-1.2334-2.75-2.75-2.75h-10c-1.5166,0-2.75,1.2334-2.75,2.75v4c0,1.5166,1.2334,2.75,2.75,2.75Zm-1.25-6.75c0-.68945,.56055-1.25,1.25-1.25h10c.68945,0,1.25,.56055,1.25,1.25v4c0,.68945-.56055,1.25-1.25,1.25h-4c-.19922,0-.38965,.0791-.53027,.21973l-2.71973,2.71973v-2.18945c0-.41406-.33594-.75-.75-.75h-2c-.68945,0-1.25-.56055-1.25-1.25v-4Z"/><path d="M22,50.75h1.25v3.25c0,.30322,.18262,.57666,.46289,.69287,.09277,.03857,.19043,.05713,.28711,.05713,.19531,0,.38672-.07617,.53027-.21973l3.78027-3.78027h3.68945c1.5166,0,2.75-1.2334,2.75-2.75v-4c0-1.5166-1.2334-2.75-2.75-2.75h-10c-1.5166,0-2.75,1.2334-2.75,2.75v4c0,1.5166,1.2334,2.75,2.75,2.75Zm-1.25-6.75c0-.68945,.56055-1.25,1.25-1.25h10c.68945,0,1.25,.56055,1.25,1.25v4c0,.68945-.56055,1.25-1.25,1.25h-4c-.19922,0-.38965,.0791-.53027,.21973l-2.71973,2.71973v-2.18945c0-.41406-.33594-.75-.75-.75h-2c-.68945,0-1.25-.56055-1.25-1.25v-4Z"/><path d="M48,34.75h1.25v3.25c0,.30322,.18262,.57666,.46289,.69287,.09277,.03857,.19043,.05713,.28711,.05713,.19531,0,.38672-.07617,.53027-.21973l3.78027-3.78027h3.68945c1.5166,0,2.75-1.2334,2.75-2.75v-4c0-1.5166-1.2334-2.75-2.75-2.75h-10c-1.5166,0-2.75,1.2334-2.75,2.75v4c0,1.5166,1.2334,2.75,2.75,2.75Zm-1.25-6.75c0-.68945,.56055-1.25,1.25-1.25h10c.68945,0,1.25,.56055,1.25,1.25v4c0,.68945-.56055,1.25-1.25,1.25h-4c-.19922,0-.38965,.0791-.53027,.21973l-2.71973,2.71973v-2.18945c0-.41406-.33594-.75-.75-.75h-2c-.68945,0-1.25-.56055-1.25-1.25v-4Z"/><path d="M48,50.75h1.25v3.25c0,.30322,.18262,.57666,.46289,.69287,.09277,.03857,.19043,.05713,.28711,.05713,.19531,0,.38672-.07617,.53027-.21973l3.78027-3.78027h3.68945c1.5166,0,2.75-1.2334,2.75-2.75v-4c0-1.5166-1.2334-2.75-2.75-2.75h-10c-1.5166,0-2.75,1.2334-2.75,2.75v4c0,1.5166,1.2334,2.75,2.75,2.75Zm-1.25-6.75c0-.68945,.56055-1.25,1.25-1.25h10c.68945,0,1.25,.56055,1.25,1.25v4c0,.68945-.56055,1.25-1.25,1.25h-4c-.19922,0-.38965,.0791-.53027,.21973l-2.71973,2.71973v-2.18945c0-.41406-.33594-.75-.75-.75h-2c-.68945,0-1.25-.56055-1.25-1.25v-4Z"/><path d="M11.25,24V56c0,1.5166,1.2334,2.75,2.75,2.75h52c1.5166,0,2.75-1.2334,2.75-2.75V24c0-1.5166-1.2334-2.75-2.75-2.75H14c-1.5166,0-2.75,1.2334-2.75,2.75Zm56,0V56c0,.68945-.56055,1.25-1.25,1.25H14c-.68945,0-1.25-.56055-1.25-1.25V24c0-.68945,.56055-1.25,1.25-1.25h52c.68945,0,1.25,.56055,1.25,1.25Z"/><rect x="8" y="61.25" width="64" height="1.5"/><rect x="39.25" y="28" width="1.5" height="24"/></svg>