<?xml version="1.0" encoding="UTF-8"?><svg id="a" xmlns="http://www.w3.org/2000/svg" viewBox="0 0 80 80"><path d="M50.75,66c0-7.58936,6.68555-14.43311,6.75098-14.49902,9.64941-9.6499,9.64941-25.35205,0-35.00195-4.6748-4.6748-10.89062-7.24902-17.50098-7.24902s-12.82617,2.57422-17.50098,7.24902c-9.64941,9.6499-9.64941,25.35205-.00293,34.99951,.06836,.06836,6.75391,6.91211,6.75391,14.50146v.75h21.5v-.75Zm-20.01855-.75c-.39648-7.88916-6.88477-14.52051-7.17188-14.80957-9.06445-9.06543-9.06445-23.81543,0-32.88086,4.3916-4.39111,10.23047-6.80957,16.44043-6.80957s12.04883,2.41846,16.44043,6.80957c9.06445,9.06543,9.06445,23.81543-.00195,32.88281-.28516,.28711-6.77344,6.91846-7.16992,14.80762H30.73145Z"/><rect x="30" y="69.25" width="20" height="1.5"/><path d="M40.01367,21.25c-5.98535,0-10.85449,4.86963-10.85449,10.85547h1.5c0-5.15869,4.19629-9.35547,9.35449-9.35547s9.35547,4.19678,9.35547,9.35547c0,3.79346-2.80176,5.85889-5.51074,7.85645-2.36328,1.74219-4.59473,3.38818-4.59473,6.03271l-.01367,2,1.5,.01074,.01367-2.00537c0-1.89258,1.84668-3.25391,3.98535-4.83057,2.86816-2.11523,6.12012-4.51318,6.12012-9.06396,0-5.98584-4.87012-10.85547-10.85547-10.85547Z"/><path d="M40.01367,53.25c-1.5166,0-2.75,1.2334-2.75,2.75s1.2334,2.75,2.75,2.75,2.75-1.2334,2.75-2.75-1.2334-2.75-2.75-2.75Zm0,4c-.68945,0-1.25-.56055-1.25-1.25s.56055-1.25,1.25-1.25,1.25,.56055,1.25,1.25-.56055,1.25-1.25,1.25Z"/></svg>