<?xml version="1.0" encoding="UTF-8"?><svg id="a" xmlns="http://www.w3.org/2000/svg" viewBox="0 0 80 80"><path d="M23.25,14v3.25H12c-1.5166,0-2.75,1.23389-2.75,2.75V62.19092c0,1.51611,1.2334,2.75,2.75,2.75h56c1.5166,0,2.75-1.23389,2.75-2.75V20c0-1.51611-1.2334-2.75-2.75-2.75h-11.25v-3.25h-1.5v3.25H24.75v-3.25h-1.5Zm46,48.19092c0,.68945-.56055,1.25-1.25,1.25H12c-.68945,0-1.25-.56055-1.25-1.25V28.75h58.5V62.19092Zm-14-43.44092v3.25h1.5v-3.25h11.25c.68945,0,1.25,.56055,1.25,1.25v7.25H10.75v-7.25c0-.68945,.56055-1.25,1.25-1.25h11.25v3.25h1.5v-3.25h30.5Z"/><path d="M48,60.75h18c.41406,0,.75-.33594,.75-.75v-28c0-.41406-.33594-.75-.75-.75h-18c-.41406,0-.75,.33594-.75,.75v28c0,.41406,.33594,.75,.75,.75Zm.75-28h16.5v6.5h-16.5v-6.5Zm0,8h16.5v4.5h-16.5v-4.5Zm0,6h16.5v8.5h-16.5v-8.5Zm0,10h16.5v2.5h-16.5v-2.5Z"/><path d="M24,60.75h18c.41406,0,.75-.33594,.75-.75v-28c0-.41406-.33594-.75-.75-.75H24c-.41406,0-.75,.33594-.75,.75v28c0,.41406,.33594,.75,.75,.75Zm.75-28h16.5v2.5H24.75v-2.5Zm0,4h16.5v8.5H24.75v-8.5Zm0,10h16.5v4.5H24.75v-4.5Zm0,6h16.5v6.5H24.75v-6.5Z"/><rect x="14" y="33.25" width="4" height="1.5"/><rect x="14" y="41.25" width="4" height="1.5"/><rect x="14" y="49.25" width="4" height="1.5"/><rect x="14" y="57.25" width="4" height="1.5"/></svg>