<?xml version="1.0" encoding="UTF-8"?><svg id="a" xmlns="http://www.w3.org/2000/svg" viewBox="0 0 80 80"><path d="M40.75,24V11.81055l2.71973,2.71973,1.06055-1.06055-4-4c-.29297-.29297-.76758-.29297-1.06055,0l-4,4,1.06055,1.06055,2.71973-2.71973v12.18945h1.5Z"/><path d="M39.25,56v12.18945l-2.71973-2.71973-1.06055,1.06055,4,4c.14648,.14648,.33789,.21973,.53027,.21973s.38379-.07324,.53027-.21973l4-4-1.06055-1.06055-2.71973,2.71973v-12.18945h-1.5Z"/><path d="M13.46973,44.53027l1.06055-1.06055-2.71973-2.71973h10.18945v-1.5H11.81055l2.71973-2.71973-1.06055-1.06055-4,4c-.29297,.29297-.29297,.76758,0,1.06055l4,4Z"/><path d="M66.53027,44.53027l4-4c.29297-.29297,.29297-.76758,0-1.06055l-4-4-1.06055,1.06055,2.71973,2.71973h-10.18945v1.5h10.18945l-2.71973,2.71973,1.06055,1.06055Z"/><path d="M25.25,34v12c0,.41406,.33594,.75,.75,.75h28c.41406,0,.75-.33594,.75-.75v-12c0-.41406-.33594-.75-.75-.75H26c-.41406,0-.75,.33594-.75,.75Zm1.5,.75h26.5v10.5H26.75v-10.5Z"/><path d="M41.43359,39.79199c.09863-.07324,.18945-.15674,.27051-.25049,.25879-.29102,.39062-.63525,.39062-1.02295,0-.5293-.19922-.95752-.59277-1.27344-.3916-.31201-.90039-.47021-1.51074-.47021-.55273,0-1.0332,.13184-1.42578,.3916-.46777,.30566-.74902,.73926-.83691,1.28857-.01172,.07227,.00977,.14551,.05664,.20117,.04785,.05566,.11719,.08789,.19043,.08789h.82422c.12207,0,.22656-.08838,.24707-.20898,.02734-.16797,.10547-.30273,.23438-.4082,.16895-.13428,.38867-.19922,.66992-.19922,.23047,0,.41895,.04834,.57227,.146,.18555,.12256,.27148,.28174,.27148,.50195,0,.21826-.06543,.38574-.20117,.51465-.13281,.12793-.29492,.19043-.49609,.19043h-.45703c-.1377,0-.25,.11182-.25,.25v.67725c0,.13818,.1123,.25,.25,.25h.47363c.22656,0,.41406,.05469,.57129,.16455,.20801,.1499,.30469,.36035,.30469,.6626,0,.21973-.06836,.39355-.20898,.53125-.17773,.17188-.43262,.25537-.78125,.25537-.55762,0-.85449-.21191-.96484-.6875-.02539-.11328-.12695-.19385-.24316-.19385h-.83203c-.07227,0-.14062,.03125-.18848,.08545-.04785,.05469-.06934,.12695-.05957,.19824,.06836,.49707,.28711,.9043,.64648,1.20801,.41504,.36035,.97266,.54297,1.65723,.54297,.61816,0,1.13867-.15381,1.54688-.4585,.48242-.36328,.72754-.85645,.72754-1.46484,0-.43359-.12891-.80859-.38477-1.11572-.13379-.15967-.29199-.29102-.47168-.39404Z"/><path d="M58.68262,32.43408c4.05371-6.05273,4.64062-10.17188,1.84766-12.96436-2.7627-2.76367-7.0332-2.13965-13.05469,1.90771l.83789,1.24512c7.09961-4.77393,9.76758-3.48047,11.15625-2.09229,1.38281,1.3833,2.67773,4.03516-2.0332,11.06885l1.24609,.83496Z"/><path d="M21.30078,47.58252c-4.04199,6.04102-4.62402,10.15527-1.83105,12.94775,1.15039,1.1499,2.52344,1.72754,4.16309,1.72754,2.34375,0,5.23047-1.18066,8.78418-3.55811l-.83398-1.24707c-7.01758,4.69629-9.66895,3.40039-11.05273,2.01709s-2.67969-4.03369,2.0166-11.05322l-1.24609-.83398Z"/><path d="M19.46973,19.46973c-2.79785,2.79688-2.19141,6.94043,1.9082,13.04004l1.24414-.83691c-4.76855-7.09473-3.47754-9.75732-2.0918-11.14258,1.38672-1.38623,4.04395-2.68506,11.06934,2.01855l.83398-1.24609c-5.96387-3.99219-10.2041-4.59375-12.96387-1.83301Z"/><path d="M57.45312,48.40186c4.70312,7.02588,3.40332,9.68164,2.0166,11.06787-1.37988,1.37939-4.0293,2.67041-11.05273-2.03125l-.83398,1.24609c3.56055,2.38428,6.45117,3.56738,8.7959,3.56689,1.63574,0,3.00586-.57568,4.15137-1.72119,2.75977-2.75928,2.16113-6.99902-1.83105-12.9624l-1.24609,.83398Z"/></svg>