<svg xmlns="http://www.w3.org/2000/svg" viewBox="0 0 80 80"><path d="M45.89453,22.54053h-1.25V19.94727a4.69727,4.69727,0,1,0-9.39453,0v2.59326H34a.75019.75019,0,0,0-.75.75V32a.7502.7502,0,0,0,.75.75H45.89453a.7502.7502,0,0,0,.75-.75V23.29053A.75019.75019,0,0,0,45.89453,22.54053ZM36.75,19.94727a3.19727,3.19727,0,1,1,6.39453,0v2.59326H36.75ZM45.14453,31.25H34.75V24.04053H45.14453Z"/><path d="M48.26074,42.48877H61.25v2.83716a4.75,4.75,0,1,0,1.5,0V41.73877a.7502.7502,0,0,0-.75-.75H40.69141v-4.501H59.10059a8.11914,8.11914,0,1,0,0-16.23828,7.93187,7.93187,0,0,0-3.90528,1.02783,15.477,15.477,0,0,0-29.51562-3.33593,9.44558,9.44558,0,0,0-3.42383-.63916,9.59277,9.59277,0,0,0,0,19.18554H39.19141v4.501H18a.7502.7502,0,0,0-.75.75v3.58716a4.75,4.75,0,1,0,1.5,0V42.48877H39.19141v2.843a4.77155,4.77155,0,1,0,1.5-.01184V42.48877ZM65.25,50A3.25,3.25,0,1,1,62,46.75,3.25377,3.25377,0,0,1,65.25,50Zm-44,0A3.25,3.25,0,1,1,18,46.75,3.25377,3.25377,0,0,1,21.25,50Zm22,0A3.25,3.25,0,1,1,40,46.75,3.25377,3.25377,0,0,1,43.25,50ZM22.25586,34.98779a8.09277,8.09277,0,1,1,0-16.18554,8.00486,8.00486,0,0,1,3.51269.81152.74985.74985,0,0,0,1.03125-.41992,13.97608,13.97608,0,0,1,27.0625,3.44043.75053.75053,0,0,0,1.207.52295,6.53581,6.53581,0,0,1,4.03125-1.40772,6.61914,6.61914,0,1,1,0,13.23828Z"/><path d="M10,67.978h7.25V69.25H15.42871v1.5h5.14258v-1.5H18.75V67.978H26a.7502.7502,0,0,0,.75-.75V58a.7502.7502,0,0,0-.75-.75H10a.7502.7502,0,0,0-.75.75v9.228A.7502.7502,0,0,0,10,67.978Zm.75-9.228h14.5v7.728H10.75Z"/><path d="M54.32812,68.1499H69.7002a1.07934,1.07934,0,0,0,1.07812-1.07812V58.32812A1.07934,1.07934,0,0,0,69.7002,57.25H54.32812A1.07934,1.07934,0,0,0,53.25,58.32812v8.74366A1.07934,1.07934,0,0,0,54.32812,68.1499ZM54.75,58.75H69.27832v7.8999H54.75Z"/><rect x="52" y="69.25" width="20" height="1.5"/><path d="M37,57.25A1.75213,1.75213,0,0,0,35.25,59V69A1.75213,1.75213,0,0,0,37,70.75h6A1.75213,1.75213,0,0,0,44.75,69V59A1.75213,1.75213,0,0,0,43,57.25ZM43.25,59V69a.25048.25048,0,0,1-.25.25H37a.25048.25048,0,0,1-.25-.25V59a.25048.25048,0,0,1,.25-.25h6A.25048.25048,0,0,1,43.25,59Z"/></svg>