<?xml version="1.0" encoding="UTF-8"?>
<svg id="art" xmlns="http://www.w3.org/2000/svg" viewBox="0 0 80 80">
  <defs>
    <style>
      .cls-1 {
        fill: #07182d;
      }
    </style>
  </defs>
  <rect class="cls-1" x="19.68" y="17.08" width="19.61" height="1.5"/>
  <rect class="cls-1" x="19.68" y="19.53" width="14.71" height="1.5"/>
  <rect class="cls-1" x="19.68" y="28.11" width="19.61" height="1.5"/>
  <rect class="cls-1" x="19.68" y="30.56" width="14.71" height="1.5"/>
  <rect class="cls-1" x="19.68" y="41.59" width="14.71" height="1.5"/>
  <path class="cls-1" d="M62.51,32.93h-18.78V14.15c0-1.09-.89-1.98-1.98-1.98h-24.51c-1.09,0-1.98.89-1.98,1.98v31.87c0,1.09.89,1.98,1.98,1.98h18.78v18.78c0,1.09.89,1.98,1.98,1.98h24.51c1.09,0,1.98-.89,1.98-1.98v-31.87c0-1.09-.89-1.98-1.98-1.98ZM17.24,46.5c-.26,0-.48-.21-.48-.48V14.15c0-.26.21-.48.48-.48h24.51c.26,0,.48.21.48.48v18.78h-4.24c-1.09,0-1.98.89-1.98,1.98v4.24h-16.33v1.5h16.33v5.85h-18.78ZM62.98,66.77c0,.26-.21.48-.48.48h-24.51c-.26,0-.48-.21-.48-.48v-31.87c0-.26.21-.48.48-.48h24.51c.26,0,.48.21.48.48v31.87Z"/>
  <rect class="cls-1" x="40.44" y="37.83" width="15.56" height="1.5"/>
  <rect class="cls-1" x="40.44" y="40.29" width="19.56" height="1.5"/>
  <rect class="cls-1" x="40.44" y="48.86" width="19.61" height="1.5"/>
  <rect class="cls-1" x="40.44" y="51.32" width="9.56" height="1.5"/>
  <rect class="cls-1" x="40.44" y="59.9" width="19.61" height="1.5"/>
  <rect class="cls-1" x="40.44" y="62.35" width="19.56" height="1.5"/>
  <path class="cls-1" d="M56.75,19h1.5c0-1.52,1.23-2.75,2.75-2.75v-1.5c-1.52,0-2.75-1.23-2.75-2.75h-1.5c0,1.52-1.23,2.75-2.75,2.75v1.5c1.52,0,2.75,1.23,2.75,2.75ZM57.5,14.4c.3.43.67.8,1.1,1.1-.43.3-.8.67-1.1,1.1-.3-.43-.67-.8-1.1-1.1.43-.3.8-.67,1.1-1.1Z"/>
  <path class="cls-1" d="M63.69,15.89h-1.5c0,2.37-1.93,4.31-4.31,4.31v1.5c2.37,0,4.31,1.93,4.31,4.31h1.5c0-2.37,1.93-4.31,4.31-4.31v-1.5c-2.37,0-4.31-1.93-4.31-4.31ZM62.94,23.16c-.52-.92-1.29-1.69-2.21-2.21.92-.52,1.69-1.29,2.21-2.21.52.92,1.29,1.69,2.21,2.21-.92.52-1.69,1.29-2.21,2.21Z"/>
</svg>