<?xml version="1.0" encoding="UTF-8"?><svg id="a" xmlns="http://www.w3.org/2000/svg" viewBox="0 0 80 80"><path d="M70,17.25H22.75v-5.25c0-.41406-.33594-.75-.75-.75h-6c-3.72168,0-6.75,3.02783-6.75,6.75V62c0,3.72217,3.02832,6.75,6.75,6.75h54c.41406,0,.75-.33594,.75-.75V18c0-.41406-.33594-.75-.75-.75Zm-59.25,.75c0-2.89502,2.35547-5.25,5.25-5.25h5.25V55.25h-5.25c-2.11938,0-4.01147,.98389-5.25,2.5166V18Zm58.5,49.25H16c-2.89453,0-5.25-2.35498-5.25-5.25s2.35547-5.25,5.25-5.25h6c.41406,0,.75-.33594,.75-.75V18.75h46.5v48.5Z"/><path d="M32,56.75h28c.41406,0,.75-.33594,.75-.75V28c0-.41406-.33594-.75-.75-.75h-28c-.41406,0-.75,.33594-.75,.75v28c0,.41406,.33594,.75,.75,.75Zm12.41699-28h3.16602v12.5h-3.16602v-12.5Zm-11.66699,0h10.16699v13.25c0,.41406,.33594,.75,.75,.75h4.66602c.41406,0,.75-.33594,.75-.75v-13.25h10.16699v26.5h-26.5V28.75Z"/></svg>