<?xml version="1.0" encoding="UTF-8"?><svg id="a" xmlns="http://www.w3.org/2000/svg" viewBox="0 0 80 80"><path d="M48.53027,40.53027l4-4c.29297-.29297,.29297-.76758,0-1.06055l-4-4-1.06055,1.06055,2.71973,2.71973h-12.18262v-8.55713h6.23975l-2.77686,2.77686,1.06055,1.06055,4-4c.29297-.29297,.29297-.76758,0-1.06055l-4-4-1.06055,1.06055,2.6626,2.6626h-6.12549v-5.22168h-.00293c-.01611-2.60553-2.1377-4.72119-4.74707-4.72119-2.36133,0-4.32617,1.73242-4.68848,4.00781-.1394,.00775-.27002,.04382-.40625,.0625-.15332,.021-.30688,.03589-.45557,.07007-.17969,.04132-.34961,.1026-.52173,.16223-.14087,.04877-.28345,.09039-.41846,.1507-.1665,.0744-.32007,.16797-.47681,.25903-.12549,.07294-.25488,.138-.37354,.22095-.1499,.10486-.28345,.22772-.4209,.34753-.10742,.09326-.2207,.17834-.31982,.28003-.13013,.13336-.23999,.28345-.35498,.43024-.08545,.10876-.17944,.20935-.2561,.32489-.10767,.16278-.19116,.34058-.28027,.5155-.05933,.11676-.13062,.22577-.1814,.34747-.08423,.20227-.13867,.41785-.19678,.63214-.02905,.10767-.07324,.20868-.0957,.31903-.06641,.3299-.10303,.67053-.10303,1.01978,0,.5835,.10034,1.16345,.29419,1.71198-.23804,.10187-.4646,.22388-.68481,.35571-.04126,.02454-.08203,.04919-.1228,.07477-.21045,.13318-.41431,.27545-.60522,.43408-.02539,.02087-.04761,.04456-.07251,.0658-.15942,.13708-.30981,.28363-.45337,.43719-.05078,.0542-.10083,.10828-.14941,.16431-.15259,.17615-.29785,.35858-.42822,.55243-.02246,.03333-.04102,.06903-.06274,.10284-.11206,.17419-.21362,.3551-.30664,.54144-.03052,.06104-.06055,.1217-.08887,.1839-.10059,.22083-.19189,.44666-.2644,.68127-.00537,.01715-.0083,.0351-.01343,.05237-.06641,.22253-.11621,.45166-.15552,.68445-.01074,.06317-.02051,.12604-.02905,.18976-.03394,.25183-.05737,.50677-.05737,.7677,0,.28296,.02417,.56348,.06519,.84094,.01465,.10065,.04175,.19769,.06177,.29706,.0354,.17456,.07178,.34827,.12305,.51862,.0332,.11084,.07617,.21759,.11621,.32605,.05713,.15576,.11719,.30975,.18799,.46033,.04883,.10339,.10303,.20337,.15796,.30383,.04468,.08167,.08008,.16766,.12866,.24731l.01514-.00928c.07104,.11591,.1311,.23749,.21045,.34863-.16089,.12537-.30957,.26233-.45728,.39966l-.00757-.00806c-.03125,.02924-.05811,.06232-.08862,.0921-.05981,.05762-.1145,.11914-.17188,.17865-.1062,.11084-.21118,.22211-.30933,.33929-.08984,.1059-.17261,.21606-.25537,.32678-.05542,.07471-.11084,.14899-.16309,.22571-.09717,.14191-.18774,.28741-.27393,.43597-.02979,.05133-.05859,.10266-.08691,.15466-.09082,.16583-.1748,.33453-.25146,.50751-.01904,.04315-.03662,.08679-.05469,.13031-.07422,.17706-.14307,.35596-.20239,.53943-.01733,.05383-.03149,.1087-.04761,.16302-.05103,.17273-.1001,.34576-.1377,.52319-.02051,.09503-.03296,.19165-.04956,.2876-.02368,.14093-.05103,.28058-.06616,.42389-.0271,.24725-.04248,.49646-.04248,.74707,0,.30859,.02734,.61035,.06641,.90845,.01001,.07526,.02197,.14935,.03418,.224,.0437,.26434,.1001,.52405,.17261,.77753,.00952,.03247,.01562,.0658,.02539,.09808,.08643,.28589,.1936,.56213,.3147,.8313,.02637,.05878,.05566,.11554,.0835,.17346,.10889,.22479,.22852,.44269,.35986,.65326,.0293,.04706,.05591,.09552,.08643,.14185,.15845,.24084,.33179,.47052,.51807,.68933,.04272,.05029,.08887,.09723,.13306,.1463,.16211,.17987,.33325,.35071,.51294,.51288,.04712,.04236,.09204,.08636,.14038,.1275,.2251,.19208,.46191,.36987,.71045,.53241,.03296,.02161,.06787,.04071,.10132,.06177,.24414,.15381,.49805,.29199,.76123,.41498,.01733,.00806,.03247,.01929,.0498,.02722-.04688,.29395-.07031,.58789-.07031,.87939,0,3.17041,2.5791,5.75,5.75,5.75h.00977c.51367,2.09668,2.37402,3.6001,4.58984,3.6001,2.60938,0,4.73096-2.11566,4.74707-4.72119h.00293v-5.22656l6.17065-.04028-2.70776,2.70776,1.06055,1.06055,4-4c.29297-.29297,.29297-.76758,0-1.06055l-4-4-1.06055,1.06055,2.73145,2.73145-6.19434,.04047v-8.55219h12.18262l-2.71973,2.71973,1.06055,1.06055Zm-12.02344-5.28027h-4.50684c-1.79199,0-3.25-1.45801-3.25-3.25h-1.5c0,2.61914,2.13086,4.75,4.75,4.75h4.50684v15.25c0,1.79199-1.45801,3.25-3.25,3.25-1.45679,0-2.68555-.95636-3.08813-2.30835,2.43872-.66614,4.23853-2.89502,4.23853-5.54175,0-.89893-.20215-1.76123-.60059-2.5625l-1.34375,.66895c.29492,.59131,.44434,1.22852,.44434,1.89355,0,2.34326-1.90625,4.25-4.25,4.25s-4.25-1.90674-4.25-4.25c0-.13135,.01514-.26453,.02808-.3974,.45923,.09589,.93481,.1474,1.42212,.1474,.9375,0,1.84766-.18408,2.70508-.54639l-.58398-1.38184c-.67188,.28418-1.38477,.42822-2.12109,.42822-.62256,0-1.21875-.11011-1.77661-.30328-.52783-.18219-1.01147-.44275-1.44556-.76135-.03174-.02332-.06323-.04651-.09424-.0705-.20166-.15479-.39307-.32086-.57007-.50079-.01709-.0174-.03223-.0365-.04907-.05414-.16162-.1687-.3103-.34839-.44849-.53589-.02466-.03314-.05029-.06525-.07397-.09894-.14185-.20172-.26978-.41309-.38306-.63257-.01929-.03705-.03613-.07526-.05444-.11279-.10425-.21338-.19653-.43304-.27222-.65973-.0061-.01892-.0144-.03699-.02051-.05597-.07666-.23798-.13306-.4837-.17651-.73309-.00903-.05304-.01685-.10651-.02441-.16003-.03638-.25317-.06104-.50958-.06104-.77063,0-.22125,.0166-.43933,.04224-.65497,.00708-.06061,.01831-.12,.02759-.18005,.02441-.15894,.0542-.31628,.09229-.47101,.01465-.06055,.03027-.12091,.04688-.18085,.04639-.16443,.10083-.32587,.16211-.48425,.01587-.04083,.0293-.08264,.0459-.12305,.16602-.39905,.38037-.77563,.63721-1.1239,.03174-.04291,.06641-.08398,.09937-.1261,.10376-.13214,.21289-.26038,.32935-.38318,.03564-.03772,.07129-.07507,.10815-.11194,.3147-.31372,.6687-.59558,1.06323-.83258,.19629-.11816,.32812-.31934,.3584-.54639,.0293-.22705-.04688-.45557-.20703-.61963-.37939-.3905-.67285-.84265-.87671-1.33087-.01831-.04376-.03101-.08929-.04761-.13361-.07007-.185-.12622-.37494-.16968-.56873-.01489-.06635-.03003-.13263-.0415-.19977-.04175-.23938-.07056-.48218-.07056-.72943,0-.27118,.03125-.53473,.08008-.79193,.01611-.08441,.04272-.16492,.06372-.24768,.04321-.17072,.09253-.33887,.15576-.50067,.03467-.08868,.07495-.1745,.11523-.26031,.07056-.14954,.14893-.29419,.23584-.43365,.04907-.07892,.09839-.15741,.15259-.23285,.09937-.13831,.20947-.2677,.32422-.39294,.05811-.06311,.11206-.12964,.17383-.18927,.13623-.13171,.2854-.24884,.43799-.36163,.05469-.0401,.10303-.0874,.15942-.12494,.20239-.13513,.4187-.25049,.64355-.34973,.11963-.05231,.24854-.08752,.37402-.12915,.42212-.14075,.86499-.23523,1.33374-.23523,1.17871,0,2.31445,.49561,3.11621,1.36035l1.09961-1.02051c-1.08496-1.16895-2.62109-1.83984-4.21582-1.83984-.27246,0-.53809,.02557-.80054,.06238-.16187-.41821-.24927-.86328-.24927-1.31238,0-2.0127,1.6377-3.6499,3.65039-3.6499,.78027,0,1.52344,.24219,2.14941,.70068l.88672-1.21094c-.55273-.40405-1.17383-.67389-1.8269-.83124,.27954-1.50983,1.60083-2.65851,3.19019-2.65851,1.79199,0,3.25,1.45801,3.25,3.25v15.25Z"/><path d="M24,41.25v1.5c2.61914,0,4.75-2.13086,4.75-4.75h-1.5c0,1.79199-1.45801,3.25-3.25,3.25Z"/><path d="M30,23.25v1.5c1.79199,0,3.25,1.45801,3.25,3.25h1.5c0-2.61914-2.13086-4.75-4.75-4.75Z"/><path d="M54.75,72v-7.25h1.25c5.92773,0,10.75-4.82227,10.75-10.75v-7.53662l1.7959-.89795c.65723-.32861,1.14746-.89355,1.37988-1.59033s.17871-1.44238-.14941-2.09961l-2.70605-5.41113c-.20605-.4126-.31836-.87793-.33496-1.38477-.24707-7.27637-3.35742-13.98438-8.75879-18.88867-5.39355-4.89795-12.38867-7.34912-19.69336-6.88721-13.3418,.8335-24.07715,11.51807-24.9707,24.85254-.76953,11.46533,5.82129,22.13184,16.39844,26.54346l.57812-1.38477c-9.98535-4.16406-16.20605-14.23389-15.48047-25.05811,.84375-12.58545,10.97559-22.66943,23.56836-23.45605,6.90039-.43213,13.50098,1.87744,18.5918,6.50049,5.09863,4.62988,8.03418,10.96143,8.2666,17.82861,.02441,.72314,.19043,1.39746,.49316,2.00488l2.70605,5.41162c.14941,.29883,.17383,.6377,.06836,.95459-.10547,.31641-.32812,.57324-.62695,.72266l-2.21094,1.10547c-.25488,.12695-.41504,.38672-.41504,.6709v8c0,5.10059-4.14941,9.25-9.25,9.25h-6v1.5h3.25v7.25h1.5Z"/></svg>