<svg xmlns="http://www.w3.org/2000/svg" viewBox="0 0 80 80"><path d="M70.75,41.6665a9.09309,9.09309,0,0,0-9.083-9.083,8.87972,8.87972,0,0,0-4.49023,1.21875,17.404,17.404,0,0,0-33.251-3.80127A10.58906,10.58906,0,0,0,20,29.25a10.75,10.75,0,0,0,0,21.5H35.25V64.18945l-4.71973-4.71972-1.06054,1.06054,6,6a.74971.74971,0,0,0,1.06054,0l6-6-1.06054-1.06054L36.75,64.18945V50a.7502.7502,0,0,0-.75-.75H20a9.25,9.25,0,0,1,0-18.5,9.1545,9.1545,0,0,1,4.01562.92773.7491.7491,0,0,0,1.03126-.41992,15.9031,15.9031,0,0,1,30.79394,3.91455.75083.75083,0,0,0,1.207.52344A7.48562,7.48562,0,0,1,61.667,34.0835a7.58325,7.58325,0,0,1,0,15.1665H42.75V35.81055l4.71973,4.71972,1.06054-1.06054-6-6a.74972.74972,0,0,0-1.06054,0l-6,6,1.06054,1.06054L41.25,35.81055V50a.7502.7502,0,0,0,.75.75H61.667A9.0932,9.0932,0,0,0,70.75,41.6665Z"/></svg>