<?xml version="1.0" encoding="UTF-8"?><svg id="a" xmlns="http://www.w3.org/2000/svg" viewBox="0 0 80 80"><path d="M67.01416,25.25H13.01416c-2.06787,0-3.75,1.68262-3.75,3.75v18c0,2.06738,1.68213,3.75,3.75,3.75h2.32593c.36255,2.26172,2.31177,4,4.67407,4s4.31152-1.73828,4.67407-4h30.65186c.36255,2.26172,2.31177,4,4.67407,4s4.31152-1.73828,4.67407-4h2.32593c2.06787,0,3.75-1.68262,3.75-3.75V29c0-2.06738-1.68213-3.75-3.75-3.75Zm-16.25,1.5h8.5v8.88135c-1.05127-.24048-2.13635-.38135-3.25-.38135h-5.25v-8.5Zm-20,0h8.5v8.5h-8.5v-8.5Zm-10,0h8.5v8.5h-8.5v-8.5Zm-10,2.25c0-1.24023,1.00928-2.25,2.25-2.25h6.25v8.5H10.76416v-6.25Zm9.25,24.25c-1.79199,0-3.25-1.45801-3.25-3.25s1.45801-3.25,3.25-3.25,3.25,1.45801,3.25,3.25-1.45801,3.25-3.25,3.25Zm29.25-4H24.68823c-.36255-2.26172-2.31177-4-4.67407-4s-4.31152,1.73828-4.67407,4h-2.32593c-1.24072,0-2.25-1.00977-2.25-2.25v-10.25H49.26416v12.5Zm0-14h-8.5v-8.5h8.5v8.5Zm6.07593,14h-4.57593v-12.5h5.25c1.11731,0,2.20459,.1521,3.25,.41992v8.15601c-2.01575,.323-3.60095,1.90845-3.92407,3.92407Zm4.67407,4c-1.79199,0-3.25-1.45801-3.25-3.25s1.45801-3.25,3.25-3.25,3.25,1.45801,3.25,3.25-1.45801,3.25-3.25,3.25Zm7-4h-2.32593c-.32312-2.01562-1.90833-3.60107-3.92407-3.92407v-7.68286c4.28882,1.66431,7.5592,5.50928,8.3219,10.23364-.34253,.80615-1.14221,1.37329-2.0719,1.37329Zm2.25-5.69141c-1.72363-3.51562-4.79919-6.22607-8.5-7.5v-9.30859h6.25c1.24072,0,2.25,1.00977,2.25,2.25v14.55859Z"/></svg>