<?xml version="1.0" encoding="UTF-8"?><svg id="a" xmlns="http://www.w3.org/2000/svg" viewBox="0 0 80 80"><path d="M42.7627,37.8479c1.19824-.86328,1.9873-2.26147,1.9873-3.8479,0-2.61914-2.13086-4.75-4.75-4.75s-4.75,2.13086-4.75,4.75c0,1.58643,.78906,2.98462,1.9873,3.8479-2.34668,1.05811-3.9873,3.41479-3.9873,6.1521h1.5c0-2.89502,2.35547-5.25,5.25-5.25s5.25,2.35498,5.25,5.25h1.5c0-2.7373-1.64062-5.09399-3.9873-6.1521Zm-2.7627-.5979c-1.79199,0-3.25-1.45801-3.25-3.25s1.45801-3.25,3.25-3.25,3.25,1.45801,3.25,3.25-1.45801,3.25-3.25,3.25Z"/><path d="M45,54c0-3.86621,4.43652-7.42773,4.54785-7.52295,1.6394-1.65308,2.76709-3.62939,3.38477-5.72705h5.06738c7.03027,0,12.75-5.71973,12.75-12.75s-5.71973-12.75-12.75-12.75H22.70581c-.08838-.79541-.31958-1.54663-.66064-2.23462l3.01538-3.01538-1.06055-1.06055-2.7832,2.7832c-1.23877-1.50854-3.11719-2.47266-5.2168-2.47266-3.72168,0-6.75,3.02783-6.75,6.75s3.02832,6.75,6.75,6.75c3.46802,0,6.33105-2.62988,6.70581-6H58c6.20312,0,11.25,5.04688,11.25,11.25s-5.04688,11.25-11.25,11.25h-4.72363c.74414-4.2312-.49316-8.75049-3.72852-12.0127-2.5498-2.57129-5.94043-3.9873-9.54785-3.9873s-6.99805,1.41602-9.54785,3.9873c-3.23193,3.25854-4.46948,7.77173-3.71509,12.0127h-4.73706c-7.03027,0-12.75,5.71973-12.75,12.75s5.71973,12.75,12.75,12.75H57.29419c.37476,3.37012,3.23779,6,6.70581,6,3.72168,0,6.75-3.02783,6.75-6.75s-3.02832-6.75-6.75-6.75c-3.46802,0-6.33105,2.62988-6.70581,6H22c-6.20312,0-11.25-5.04688-11.25-11.25s5.04688-11.25,11.25-11.25h5.08252c.62622,2.11377,1.77075,4.10986,3.43604,5.78662,.04492,.03564,4.48145,3.59717,4.48145,7.46338,0,.41406,.33594,.75,.75,.75h8.5c.41406,0,.75-.33594,.75-.75ZM16,21.25c-2.89453,0-5.25-2.35498-5.25-5.25s2.35547-5.25,5.25-5.25c1.68701,0,3.17407,.81372,4.13525,2.0542l-4.13525,4.13525-2-2-1.06055,1.06055,2.53027,2.53027c.14648,.14648,.33789,.21973,.53027,.21973s.38379-.07324,.53027-.21973l4.36938-4.36938c.21655,.57446,.35034,1.1897,.35034,1.83911,0,2.89502-2.35547,5.25-5.25,5.25Zm48,37.5c2.89453,0,5.25,2.35498,5.25,5.25s-2.35547,5.25-5.25,5.25-5.25-2.35498-5.25-5.25,2.35547-5.25,5.25-5.25Zm-27.54199-5.5c-.47559-4.26074-4.80957-7.73242-4.94141-7.82959-4.68262-4.72168-4.68262-12.40479,0-17.12646,2.2666-2.28564,5.2793-3.54395,8.4834-3.54395s6.2168,1.2583,8.4834,3.54395c4.68262,4.72168,4.68262,12.40479,.06738,17.06641-.19531,.15381-4.5332,3.62842-5.00879,7.88965h-7.08398Z"/><rect x="35.75" y="57.25" width="8.5" height="1.5"/></svg>