<?xml version="1.0" encoding="UTF-8"?><svg id="a" xmlns="http://www.w3.org/2000/svg" viewBox="0 0 80 80"><path d="M34.61523,56.67383c.10547,.05176,.21777,.07617,.33008,.07617,.2168,0,.42871-.09375,.5752-.26855l15.05469-18c.18652-.22363,.22754-.53516,.10449-.79883s-.38867-.43262-.67969-.43262h-6.68848l2.66309-9.03809c.06934-.23535,.01855-.49023-.13477-.68164q-.23926-.29785-9.83984-.29883c-.33496,0-.65625,.24121-.74805,.56348l-3.97363,13.99219c-.0625,.2207-.02051,.45898,.11426,.64453,.22559,.3125,.24023,.33008,5.67578,.31348l-2.85547,13.09473c-.07422,.33789,.09277,.68164,.40234,.83398Zm4.11719-14.52148c.04883-.22266-.00586-.45508-.14941-.63184-.1416-.17578-.35645-.27832-.58301-.27832h-.00195c-1.59082,.00488-3.77441,.00977-5.00781,.00781l3.55371-12.51855c2.65234,.00098,6.06738,.00391,7.71094,.00977l-2.66602,9.04688c-.06641,.22656-.02246,.47168,.11914,.66113s.36426,.30078,.60059,.30078h6.08594l-12.06641,14.42676,2.4043-11.02441Z"/><path d="M40,10.75c7.72046,0,15.15161,3.08252,20.61108,8.5h-6.61108v1.5h8c.41406,0,.75-.33594,.75-.75V12h-1.5v5.78711c-5.69775-5.44434-13.32666-8.53711-21.25-8.53711-16.95605,0-30.75,13.79395-30.75,30.75,0,4.91504,1.18848,9.80371,3.43555,14.1377l1.33203-.69141c-2.1377-4.12109-3.26758-8.77051-3.26758-13.44629,0-16.12891,13.12109-29.25,29.25-29.25Z"/><path d="M67.31445,25.8623l-1.33203,.69141c2.1377,4.12109,3.26758,8.77051,3.26758,13.44629,0,16.12891-13.12109,29.25-29.25,29.25-7.71069,0-15.14844-3.08569-20.60645-8.5h6.60645v-1.5h-8c-.41406,0-.75,.33594-.75,.75v8h1.5v-5.78271c5.69775,5.44092,13.3374,8.53271,21.25,8.53271,16.95605,0,30.75-13.79395,30.75-30.75,0-4.91504-1.18848-9.80371-3.43555-14.1377Z"/></svg>