<?xml version="1.0" encoding="UTF-8"?><svg id="a" xmlns="http://www.w3.org/2000/svg" viewBox="0 0 80 80"><rect x="35.42871" y="13.25" width="9.14258" height="1.5"/><path d="M39.46875,32.53027c.14648,.14648,.33789,.21973,.53027,.21973s.38379-.07324,.53027-.21973l4.10059-4.10059c2.55371-2.55273,2.55371-6.70801,0-9.26074-2.55273-2.55273-6.70898-2.55273-9.26172,0-2.55176,2.55273-2.55176,6.70801,0,9.26074l4.10059,4.10059Zm-3.04004-12.30078c1.96875-1.96875,5.17188-1.96875,7.14062,0s1.96875,5.1709,0,7.13965l-3.57031,3.57031-3.57031-3.57031c-1.96777-1.96875-1.96777-5.1709,0-7.13965Z"/><path d="M39.99902,26.75c.73535,0,1.42578-.28613,1.94434-.80566,1.07227-1.07227,1.07227-2.81641,0-3.88867-1.03711-1.03809-2.84863-1.04004-3.88867,0-1.07227,1.07227-1.07227,2.81641,0,3.88867,.51953,.51953,1.20996,.80566,1.94434,.80566Zm-.88379-3.63379c.23633-.23633,.5498-.36621,.88379-.36621s.64746,.12988,.88379,.36621c.4873,.4873,.4873,1.28027,0,1.76758-.47266,.47266-1.29492,.47266-1.76758,0-.4873-.4873-.4873-1.28027,0-1.76758Z"/><path d="M40.75,48.54102l5.4873-1.8291c.30566-.10254,.5127-.38867,.5127-.71191s-.20703-.60938-.5127-.71191l-6-2c-.22754-.07422-.48047-.03711-.67578,.10352s-.31152,.36719-.31152,.6084v14h1.5v-9.45898Zm0-3.5l2.87793,.95898-2.87793,.95898v-1.91797Z"/><path d="M56,70.75c1.67383,0,3.03613-1.3623,3.03613-3.03613V11.71387c0-1.67383-1.3623-3.03516-3.03613-3.03516H24c-1.67383,0-3.03613,1.36133-3.03613,3.03516v56c0,1.67383,1.3623,3.03613,3.03613,3.03613H56ZM22.46387,11.71387c0-.84668,.68945-1.53516,1.53613-1.53516H56c.84668,0,1.53613,.68848,1.53613,1.53516v26.98975c-6.35864-2.31714-13.4668-2.04004-19.62988,.8042l-3.68018,1.69849,.01123-.03345-11.77344-3.92456V11.71387Zm0,27.11646l9.81885,3.27295-9.81885,4.53174v-7.80469Zm0,28.88354v-19.42725l16.07129-7.41748c5.96924-2.75439,12.8811-2.95581,19.00098-.56665v27.41138c0,.84668-.68945,1.53613-1.53613,1.53613H24c-.84668,0-1.53613-.68945-1.53613-1.53613Z"/><path d="M40,66.75c1.5166,0,2.75-1.2334,2.75-2.75s-1.2334-2.75-2.75-2.75-2.75,1.2334-2.75,2.75,1.2334,2.75,2.75,2.75Zm0-4c.68945,0,1.25,.56055,1.25,1.25s-.56055,1.25-1.25,1.25-1.25-.56055-1.25-1.25,.56055-1.25,1.25-1.25Z"/></svg>