<?xml version="1.0" encoding="UTF-8"?>
<svg id="art" xmlns="http://www.w3.org/2000/svg" viewBox="0 0 80 80">
  <defs>
    <style>
      .cls-1 {
        fill: #07182d;
      }
    </style>
  </defs>
  <path class="cls-1" d="M59.25,16h1.5c0-1.79,1.46-3.25,3.25-3.25v-1.5c-1.79,0-3.25-1.46-3.25-3.25h-1.5c0,1.79-1.46,3.25-3.25,3.25v1.5c1.79,0,3.25,1.46,3.25,3.25ZM60,10.54c.38.59.87,1.09,1.46,1.46-.59.38-1.09.87-1.46,1.46-.38-.59-.87-1.09-1.46-1.46.59-.38,1.09-.87,1.46-1.46Z"/>
  <path class="cls-1" d="M66.97,12.44h-1.5c0,2.77-2.26,5.03-5.03,5.03v1.5c2.77,0,5.03,2.26,5.03,5.03h1.5c0-2.77,2.25-5.03,5.03-5.03v-1.5c-2.77,0-5.03-2.26-5.03-5.03ZM66.22,20.97c-.62-1.17-1.58-2.13-2.75-2.75,1.17-.62,2.13-1.58,2.75-2.75.62,1.17,1.58,2.13,2.75,2.75-1.17.62-2.13,1.58-2.75,2.75Z"/>
  <path class="cls-1" d="M10.75,7.65h-1.5v62c0,.41.34.75.75.75h62v-1.5H10.75V7.65Z"/>
  <path class="cls-1" d="M19,56.4c2.07,0,3.75-1.68,3.75-3.75,0-.76-.23-1.47-.62-2.06l12.54-12.54c.4.22.85.36,1.33.36,1.25,0,2.3-.85,2.63-2h7.84c.08,2.5.99,4.98,2.74,6.98l-7.74,7.74,1.06,1.06,7.74-7.74c2.09,1.83,4.71,2.76,7.33,2.76,2.85,0,5.71-1.09,7.88-3.26,4.35-4.35,4.35-11.42,0-15.77s-11.42-4.35-15.77,0c-1.88,1.88-2.95,4.27-3.2,6.73h-7.88c-.33-1.15-1.38-2-2.63-2-1.52,0-2.75,1.23-2.75,2.75,0,.49.14.93.36,1.33l-12.54,12.54c-.59-.39-1.3-.62-2.06-.62-2.07,0-3.75,1.68-3.75,3.75s1.68,3.75,3.75,3.75ZM58,40.4c2.62,0,4.75-2.13,4.75-4.75s-2.13-4.75-4.75-4.75c-2.36,0-4.31,1.74-4.67,4h-5.3c.25-2.14,1.2-4.13,2.75-5.67,1.88-1.88,4.35-2.82,6.82-2.82s4.94.94,6.82,2.82c1.82,1.82,2.83,4.25,2.83,6.82s-1,5-2.83,6.82c-3.76,3.76-9.89,3.76-13.65,0-1.74-1.74-2.72-4.03-2.81-6.47h5.36c.36,2.26,2.31,4,4.67,4ZM54.75,35.65c0-1.79,1.46-3.25,3.25-3.25s3.25,1.46,3.25,3.25-1.46,3.25-3.25,3.25-3.25-1.46-3.25-3.25ZM36,34.4c.69,0,1.25.56,1.25,1.25s-.56,1.25-1.25,1.25-1.25-.56-1.25-1.25.56-1.25,1.25-1.25ZM19,50.4c1.24,0,2.25,1.01,2.25,2.25s-1.01,2.25-2.25,2.25-2.25-1.01-2.25-2.25,1.01-2.25,2.25-2.25Z"/>
</svg>