<?xml version="1.0" encoding="UTF-8"?>
<svg id="art" xmlns="http://www.w3.org/2000/svg" viewBox="0 0 80 80">
  <defs>
    <style>
      .cls-1 {
        fill: #07182d;
      }
    </style>
  </defs>
  <path class="cls-1" d="M58.75,17h1.5c0-1.52,1.23-2.75,2.75-2.75v-1.5c-1.52,0-2.75-1.23-2.75-2.75h-1.5c0,1.52-1.23,2.75-2.75,2.75v1.5c1.52,0,2.75,1.23,2.75,2.75ZM59.5,12.4c.3.43.67.8,1.1,1.1-.43.3-.8.67-1.1,1.1-.3-.43-.67-.8-1.1-1.1.43-.3.8-.67,1.1-1.1Z"/>
  <path class="cls-1" d="M65.69,13.89h-1.5c0,2.37-1.93,4.31-4.31,4.31v1.5c2.37,0,4.31,1.93,4.31,4.31h1.5c0-2.37,1.93-4.31,4.31-4.31v-1.5c-2.37,0-4.31-1.93-4.31-4.31ZM64.94,21.16c-.52-.92-1.29-1.69-2.21-2.21.92-.52,1.69-1.29,2.21-2.21.52.92,1.29,1.69,2.21,2.21-.92.52-1.69,1.29-2.21,2.21Z"/>
  <path class="cls-1" d="M35.37,30.17c0,2.55,2.08,4.63,4.63,4.63s4.63-2.08,4.63-4.63-2.08-4.63-4.63-4.63-4.63,2.08-4.63,4.63ZM40,27.04c1.73,0,3.13,1.41,3.13,3.13s-1.41,3.13-3.13,3.13-3.13-1.41-3.13-3.13,1.41-3.13,3.13-3.13Z"/>
  <path class="cls-1" d="M48.52,53.71v-13.19c0-2.55-2.08-4.63-4.63-4.63h-7.77c-2.55,0-4.63,2.08-4.63,4.63v13.19h1.5v-13.19c0-1.73,1.41-3.13,3.13-3.13h7.77c1.73,0,3.13,1.41,3.13,3.13v13.19h1.5Z"/>
  <path class="cls-1" d="M22.42,34.7c0,2.2,1.79,3.99,3.99,3.99s3.99-1.79,3.99-3.99-1.79-3.99-3.99-3.99-3.99,1.79-3.99,3.99ZM28.9,34.7c0,1.37-1.12,2.49-2.49,2.49s-2.49-1.12-2.49-2.49,1.12-2.49,2.49-2.49,2.49,1.12,2.49,2.49Z"/>
  <path class="cls-1" d="M29.65,39.77h-5.82c-2.2,0-3.99,1.79-3.99,3.99v3.1h1.5v-3.1c0-1.37,1.12-2.49,2.49-2.49h5.82v-1.5Z"/>
  <path class="cls-1" d="M53.59,38.68c2.2,0,3.99-1.79,3.99-3.99s-1.79-3.99-3.99-3.99-3.99,1.79-3.99,3.99,1.79,3.99,3.99,3.99ZM53.59,32.21c1.37,0,2.49,1.12,2.49,2.49s-1.12,2.49-2.49,2.49-2.49-1.12-2.49-2.49,1.12-2.49,2.49-2.49Z"/>
  <path class="cls-1" d="M58.66,43.76v3.1h1.5v-3.1c0-2.2-1.79-3.99-3.99-3.99h-5.82v1.5h5.82c1.37,0,2.49,1.12,2.49,2.49Z"/>
  <path class="cls-1" d="M48.7,16.82c-1.87-.7-3.82-1.17-5.8-1.4l-.17,1.49c1.86.22,3.69.66,5.45,1.32l.53-1.4Z"/>
  <path class="cls-1" d="M57.41,55.41l1.12.99c1.32-1.49,2.46-3.15,3.39-4.91l-1.33-.7c-.87,1.65-1.94,3.21-3.19,4.61Z"/>
  <path class="cls-1" d="M62.58,45.56l1.46.36c.47-1.92.71-3.92.71-5.92v-.1l-1.5.1c0,1.88-.23,3.75-.67,5.56Z"/>
  <path class="cls-1" d="M57.35,24.52l1.12-1c-1.33-1.49-2.83-2.81-4.48-3.94l-.85,1.24c1.54,1.06,2.96,2.31,4.21,3.7Z"/>
  <path class="cls-1" d="M61.88,28.41l-1.32.7c.88,1.66,1.55,3.42,2.01,5.23l1.46-.36c-.48-1.93-1.2-3.8-2.14-5.57Z"/>
  <path class="cls-1" d="M37.12,16.93l-.18-1.49c-1.98.24-3.93.73-5.79,1.44l.54,1.4c1.75-.67,3.58-1.12,5.43-1.35Z"/>
  <path class="cls-1" d="M48.26,61.74l.53,1.4c1.86-.71,3.63-1.64,5.27-2.78l-.85-1.23c-1.54,1.07-3.21,1.95-4.95,2.61Z"/>
  <path class="cls-1" d="M15.25,40.05c0,2,.25,3.99.72,5.92l1.46-.36c-.45-1.81-.68-3.68-.68-5.56h-1.5Z"/>
  <path class="cls-1" d="M26.74,20.9l-.86-1.23c-1.64,1.14-3.13,2.47-4.45,3.97l1.12.99c1.24-1.4,2.65-2.66,4.18-3.73Z"/>
  <path class="cls-1" d="M19.38,29.24l-1.33-.7c-.92,1.77-1.63,3.65-2.1,5.58l1.46.35c.44-1.82,1.11-3.58,1.98-5.24Z"/>
  <path class="cls-1" d="M18.1,51.54c.93,1.76,2.07,3.41,3.4,4.9l1.12-1c-1.25-1.4-2.32-2.95-3.19-4.6l-1.33.7Z"/>
  <path class="cls-1" d="M37.22,63.08l-.18,1.49c.97.12,1.97.17,2.95.17s2.02-.06,3.01-.18l-.18-1.49c-1.84.22-3.76.23-5.6,0Z"/>
  <path class="cls-1" d="M25.97,60.39c1.64,1.13,3.42,2.07,5.28,2.77l.53-1.4c-1.75-.66-3.42-1.54-4.96-2.6l-.85,1.23Z"/>
</svg>