<?xml version="1.0" encoding="UTF-8"?><svg id="a" xmlns="http://www.w3.org/2000/svg" viewBox="0 0 80 80"><path d="M12.19043,64.75h55.61914c1.62109,0,2.94043-1.31934,2.94043-2.94092V20.19092c0-1.62158-1.31934-2.94092-2.94043-2.94092h-11.05957v-3.25h-1.5v3.25H24.75v-3.25h-1.5v3.25H12.19043c-1.62109,0-2.94043,1.31934-2.94043,2.94092V61.80908c0,1.62158,1.31934,2.94092,2.94043,2.94092Zm-1.44043-44.55908c0-.79443,.64648-1.44092,1.44043-1.44092h11.05957v3.25h1.5v-3.25h30.5v3.25h1.5v-3.25h11.05957c.79395,0,1.44043,.64648,1.44043,1.44092v6.86816H10.75v-6.86816Zm0,8.36816h58.5V61.80908c0,.79443-.64648,1.44092-1.44043,1.44092H12.19043c-.79395,0-1.44043-.64648-1.44043-1.44092V28.55908Z"/><path d="M50,54.75c2.61914,0,4.75-2.13086,4.75-4.75s-2.13086-4.75-4.75-4.75-4.75,2.13086-4.75,4.75,2.13086,4.75,4.75,4.75Zm0-8c1.79199,0,3.25,1.45801,3.25,3.25s-1.45801,3.25-3.25,3.25-3.25-1.45801-3.25-3.25,1.45801-3.25,3.25-3.25Z"/><circle cx="20" cy="34" r="1"/><circle cx="30" cy="34" r="1"/><circle cx="40" cy="34" r="1"/><circle cx="50" cy="34" r="1"/><circle cx="60" cy="34" r="1"/><circle cx="20" cy="42" r="1"/><circle cx="30" cy="42" r="1"/><circle cx="40" cy="42" r="1"/><circle cx="50" cy="42" r="1"/><circle cx="60" cy="42" r="1"/><circle cx="20" cy="50" r="1"/><circle cx="30" cy="50" r="1"/><circle cx="40" cy="50" r="1"/><circle cx="50" cy="50" r="1"/><circle cx="60" cy="50" r="1"/><circle cx="20" cy="58" r="1"/><circle cx="30" cy="58" r="1"/><circle cx="40" cy="58" r="1"/><circle cx="50" cy="58" r="1"/><circle cx="60" cy="58" r="1"/></svg>