<?xml version="1.0" encoding="UTF-8"?>
<svg id="art" xmlns="http://www.w3.org/2000/svg" viewBox="0 0 80 80">
  <defs>
    <style>
      .cls-1 {
        fill: #fff;
      }
    </style>
  </defs>
  <path class="cls-1" d="M56.75,19h1.5c0-1.52,1.23-2.75,2.75-2.75v-1.5c-1.52,0-2.75-1.23-2.75-2.75h-1.5c0,1.52-1.23,2.75-2.75,2.75v1.5c1.52,0,2.75,1.23,2.75,2.75ZM57.5,14.4c.3.43.67.8,1.1,1.1-.43.3-.8.67-1.1,1.1-.3-.43-.67-.8-1.1-1.1.43-.3.8-.67,1.1-1.1Z"/>
  <path class="cls-1" d="M68,21.69v-1.5c-2.37,0-4.31-1.93-4.31-4.31h-1.5c0,2.37-1.93,4.31-4.31,4.31v1.5c2.37,0,4.31,1.93,4.31,4.31h1.5c0-2.37,1.93-4.31,4.31-4.31ZM60.73,20.94c.92-.52,1.69-1.29,2.21-2.21.52.92,1.29,1.69,2.21,2.21-.92.52-1.69,1.29-2.21,2.21-.52-.92-1.29-1.69-2.21-2.21Z"/>
  <path class="cls-1" d="M66,37.25c-1.52,0-2.75,1.23-2.75,2.75s1.23,2.75,2.75,2.75,2.75-1.23,2.75-2.75-1.23-2.75-2.75-2.75ZM66,41.25c-.69,0-1.25-.56-1.25-1.25s.56-1.25,1.25-1.25,1.25.56,1.25,1.25-.56,1.25-1.25,1.25Z"/>
  <path class="cls-1" d="M56.53,35.47l-1.06,1.06,2.72,2.72h-4.19c-15.03,0-27.25-12.22-27.25-27.25h-1.5c0,12.62,8.18,23.36,19.51,27.22-14.45-.65-26.01-12.61-26.01-27.22h-1.5c0,12.58,8.12,23.29,19.4,27.18-14.16-.96-25.4-12.78-25.4-27.18h-1.5c0,13.62,9.52,25.05,22.25,28-12.73,2.95-22.25,14.38-22.25,28h1.5c0-14.4,11.23-26.22,25.4-27.18-11.27,3.89-19.4,14.6-19.4,27.18h1.5c0-14.61,11.56-26.57,26.01-27.22-11.33,3.86-19.51,14.6-19.51,27.22h1.5c0-15.03,12.22-27.25,27.25-27.25h4.19l-2.72,2.72,1.06,1.06,4-4c.29-.29.29-.77,0-1.06l-4-4Z"/>
</svg>