<?xml version="1.0" encoding="UTF-8"?><svg id="a" xmlns="http://www.w3.org/2000/svg" viewBox="0 0 80 80"><path d="M51.22705,63.7124c-.9917,.9917-2.31006,1.5376-3.7124,1.5376h-14.68604c-.73486,0-1.42529,.28613-1.94482,.80566l-3.41406,3.41406,1.06055,1.06055,3.41406-3.41406c.23633-.23633,.55029-.36621,.88428-.36621h14.68604c1.80322,0,3.49805-.70215,4.77295-1.97705l14.22266-14.22266c1.40625-1.40625,1.40625-3.69434,0-5.10059-1.38379-1.38379-3.63623-1.38428-5.02197,.00146l-1.41687,1.42377-.59973-.5683c-1.39014-1.31543-3.55225-1.29932-4.92969,.04736l-6.91675,6.95917c-.20435-.03461-.41113-.06317-.62524-.06317h-14.51465c-1.80322,0-3.49805,.70215-4.77295,1.97705l-14.24268,14.24268,1.06055,1.06055,14.24268-14.24268c.9917-.9917,2.31006-1.5376,3.7124-1.5376h14.51465c1.24072,0,2.25,1.00928,2.25,2.25,0,.48041-.2937,1.0238-.70349,1.45618l-.05383,.05408,.00122,.00116c-.42261,.42529-.95667,.73029-1.42798,.73029l-11.06641,.0083,.00098,1.5,11.06592-.0083c.91553,0,1.85425-.50635,2.55688-1.24121l12.927-12.99023c.7998-.79883,2.09961-.79883,2.89941,0,.82129,.82129,.82129,2.1582,0,2.97949l-14.22266,14.22266Zm-.54663-7.40057c-.1842-.98621-.75244-1.83618-1.54663-2.38873l6.46436-6.50366c.79004-.77393,2.03906-.7832,2.84229-.02344l.57275,.54242-8.33276,8.37341Z"/><path d="M40,19.60986c-3.52344,0-6.39014,2.8667-6.39014,6.39014s2.8667,6.39014,6.39014,6.39014,6.39014-2.8667,6.39014-6.39014-2.8667-6.39014-6.39014-6.39014Zm0,11.28027c-2.69629,0-4.89014-2.19385-4.89014-4.89014s2.19385-4.89014,4.89014-4.89014,4.89014,2.19385,4.89014,4.89014-2.19385,4.89014-4.89014,4.89014Z"/><path d="M55.3877,30.67334c.95898,.0957,1.81152-.52148,1.98096-1.42725,.39893-2.13086,.40283-4.29346,.01172-6.42871-.17285-.94385-1.03223-1.58398-1.99463-1.49268-1.56445,.14453-3.0752-.62842-3.85693-1.98193-.78076-1.35254-.69824-3.05225,.21045-4.32959,.55859-.78418,.43457-1.84375-.28857-2.46533-.82812-.71191-1.70703-1.3374-2.61182-1.85938-.90527-.52295-1.88672-.97119-2.91699-1.33203v-.00049c-.90137-.31592-1.87939,.1084-2.27881,.9834-.65186,1.42627-2.08203,2.34766-3.64404,2.34766-1.56348,0-2.99414-.92188-3.64502-2.34863-.40234-.88184-1.38721-1.30225-2.29004-.98096-2.04346,.72852-3.91455,1.81396-5.56152,3.22559-.69922,.6001-.80469,1.64453-.24512,2.4292,.91113,1.27734,.99463,2.97803,.21289,4.33203s-2.28955,2.12988-3.85791,1.98242c-.95898-.09619-1.81104,.52197-1.98096,1.42725-.39893,2.13037-.40283,4.29346-.01172,6.42871,.17285,.94385,1.03125,1.5835,1.99463,1.49268,1.56055-.15137,3.07471,.62842,3.85693,1.98193,.78076,1.35254,.69824,3.05225-.21045,4.32959-.55859,.78418-.43457,1.84375,.28857,2.46533,.82812,.71191,1.70703,1.3374,2.61182,1.85938,.90527,.52295,1.88672,.97119,2.91699,1.33252,.90137,.31689,1.87939-.10791,2.27881-.9834,.65186-1.42627,2.08203-2.34766,3.64404-2.34766,1.56348,0,2.99414,.92188,3.64502,2.34863,.31104,.68213,.9707,1.08838,1.67188,1.08838,.20508,0,.41357-.03467,.61816-.10742,2.04346-.72852,3.91455-1.81396,5.56152-3.22559,.69922-.6001,.80469-1.64453,.24512-2.4292-.91113-1.27734-.99463-2.97803-.21289-4.33203s2.28857-2.12988,3.85791-1.98242Zm-5.15674,1.23242c-1.0752,1.86133-.96094,4.19824,.29004,5.95312,.09131,.12793,.11621,.31982,0,.41943-1.50635,1.2915-3.21875,2.28467-5.08887,2.95117-.16943,.06104-.34277-.01709-.42139-.19043-.89404-1.95947-2.86035-3.22607-5.00977-3.22607-2.14746,0-4.11328,1.26562-5.0083,3.22461-.07861,.17139-.25,.24902-.41846,.19092-.94238-.33057-1.83838-.73975-2.66309-1.21582-.82422-.47559-1.62646-1.04688-2.38428-1.69824-.13525-.11621-.15332-.3042-.04395-.45801,1.24805-1.75439,1.36084-4.08936,.28711-5.94922-1.07422-1.86035-3.1499-2.92627-5.29883-2.7251-.18945,.02148-.34424-.09277-.37598-.27002-.35791-1.95361-.35449-3.93262,.01074-5.88232,.02832-.15039,.2085-.22852,.36279-.20996,2.14355,.20654,4.22559-.86377,5.30029-2.72559,1.0752-1.86133,.96094-4.19824-.29004-5.95312-.09131-.12793-.11621-.31982,0-.41943,1.50635-1.2915,3.21875-2.28467,5.08887-2.95117,.16699-.06152,.34229,.01709,.42139,.19043,.89404,1.95947,2.86035,3.22607,5.00977,3.22607,2.14746,0,4.11328-1.26562,5.0083-3.22461,.07812-.1709,.24951-.25,.41846-.19043,.94238,.33008,1.83838,.73926,2.66309,1.21533,.82422,.47559,1.62646,1.04688,2.38428,1.69824,.13525,.11621,.15332,.3042,.04395,.45801-1.24805,1.75439-1.36084,4.08936-.28711,5.94922,1.07471,1.86084,3.15625,2.93164,5.29883,2.7251,.18848-.01953,.34375,.09277,.37598,.27002,.35791,1.95361,.35449,3.93262-.01074,5.88232-.02832,.15088-.20996,.22656-.36279,.20996-2.1499-.21045-4.22607,.86328-5.30029,2.72559Z"/></svg>