<?xml version="1.0" encoding="UTF-8"?><svg id="a" xmlns="http://www.w3.org/2000/svg" viewBox="0 0 80 80"><path d="M48.75,52v-.15332c3.63135-2.68945,6-6.99146,6-11.84668s-2.36865-9.15723-6-11.84668v-.15332h-.20508c-2.41406-1.72412-5.35913-2.75-8.54492-2.75-8.13281,0-14.75,6.61719-14.75,14.75,0,1.61255,.26953,3.16113,.75,4.61499v.13501h.04956c1.9834,5.80664,7.48096,10,13.95044,10,3.18579,0,6.13086-1.02588,8.54492-2.75h.20508Zm-9.5-25.21191v1.21191c0,1.79199-1.45801,3.25-3.25,3.25-2.61914,0-4.75,2.13086-4.75,4.75,0,1.79199-1.45801,3.25-3.25,3.25h-1.21191c.37817-6.70654,5.75537-12.08374,12.46191-12.46191Zm-2,26.1709c-4.4126-.93579-8.01001-4.07715-9.60449-8.20898h6.35449c1.79199,0,3.25,1.45801,3.25,3.25v4.95898Zm10-1.88208c-2.08545,1.36963-4.57422,2.1731-7.25,2.1731-.42188,0-.83789-.02466-1.25-.06348v-5.18652c0-2.61914-2.13086-4.75-4.75-4.75h-6.83008c-.20459-.80713-.3335-1.64209-.38184-2.5h1.21191c2.61914,0,4.75-2.13086,4.75-4.75,0-1.79199,1.45801-3.25,3.25-3.25,2.61914,0,4.75-2.13086,4.75-4.75v-1.21191c2.3894,.13477,4.61206,.89502,6.5,2.13501v3.0769c0,1.79199-1.45801,3.25-3.25,3.25-2.61914,0-4.75,2.13086-4.75,4.75s2.13086,4.75,4.75,4.75c1.79199,0,3.25,1.45801,3.25,3.25v3.0769Zm-3.25-7.8269c-1.79199,0-3.25-1.45801-3.25-3.25s1.45801-3.25,3.25-3.25c2.61914,0,4.75-2.13086,4.75-4.75v-1.92334c2.7522,2.42969,4.5,5.97241,4.5,9.92334s-1.7478,7.49365-4.5,9.92334v-1.92334c0-2.61914-2.13086-4.75-4.75-4.75Z"/><path d="M42.75,12c0-1.5166-1.2334-2.75-2.75-2.75s-2.75,1.2334-2.75,2.75,1.2334,2.75,2.75,2.75,2.75-1.2334,2.75-2.75Zm-4,0c0-.68945,.56055-1.25,1.25-1.25s1.25,.56055,1.25,1.25-.56055,1.25-1.25,1.25-1.25-.56055-1.25-1.25Z"/><path d="M44.75,22v-1c0-2.06787-1.68262-3.75-3.75-3.75h-2c-2.06738,0-3.75,1.68213-3.75,3.75v1h1.5v-1c0-1.24072,1.00977-2.25,2.25-2.25h2c1.24023,0,2.25,1.00928,2.25,2.25v1h1.5Z"/><path d="M37.25,68c0,1.5166,1.2334,2.75,2.75,2.75s2.75-1.2334,2.75-2.75-1.2334-2.75-2.75-2.75-2.75,1.2334-2.75,2.75Zm4,0c0,.68945-.56055,1.25-1.25,1.25s-1.25-.56055-1.25-1.25,.56055-1.25,1.25-1.25,1.25,.56055,1.25,1.25Z"/><path d="M44.75,59v-1h-1.5v1c0,1.24023-1.00977,2.25-2.25,2.25h-2c-1.24023,0-2.25-1.00977-2.25-2.25v-1h-1.5v1c0,2.06738,1.68262,3.75,3.75,3.75h2c2.06738,0,3.75-1.68262,3.75-3.75Z"/><path d="M22.14551,18.25635c-1.04004-1.04053-2.85254-1.03906-3.88867,0-1.07227,1.07227-1.07227,2.81689,0,3.88916,.51855,.51953,1.20898,.80566,1.94434,.80566,.73438,0,1.4248-.28613,1.94434-.80566,1.07227-1.07227,1.07227-2.81689,0-3.88916Zm-1.06055,2.82861c-.47266,.47266-1.29492,.47266-1.76758,0-.4873-.4873-.4873-1.28076,0-1.76807,.23633-.23584,.5498-.36572,.88379-.36572s.64746,.12988,.88379,.36572c.4873,.4873,.4873,1.28076,0,1.76807Z"/><path d="M25.68066,24.2666c.87598-.87598,2.30469-.87793,3.18262,0l.70703,.70703,1.06055-1.06055-.70703-.70703c-1.46387-1.46191-3.8418-1.45996-5.30371,0l-1.41406,1.41406c-1.46094,1.46191-1.46094,3.8418,0,5.30371l.70703,.70703,1.06055-1.06055-.70703-.70703c-.87695-.87695-.87695-2.30566,0-3.18262l1.41406-1.41406Z"/><path d="M59.79883,62.54883c.73438,0,1.4248-.28613,1.94434-.80566s.80566-1.20996,.80566-1.94434-.28613-1.4248-.80566-1.94434c-1.03613-1.03809-2.84961-1.04004-3.88867,0-.51953,.51953-.80566,1.20996-.80566,1.94434,0,.73535,.28613,1.42578,.80566,1.94434,.51953,.51953,1.20996,.80566,1.94434,.80566Zm-.88379-3.63379c.23633-.23633,.5498-.36621,.88379-.36621s.64746,.12988,.88379,.36621,.36621,.5498,.36621,.88379-.12988,.64746-.36621,.88379c-.47266,.47266-1.29492,.47266-1.76758,0-.23633-.23633-.36621-.5498-.36621-.88379s.12988-.64746,.36621-.88379Z"/><path d="M52.72754,57.88965c.96094,0,1.9209-.36523,2.65234-1.0957l1.41406-1.41406c1.46094-1.46191,1.46094-3.8418,0-5.30371l-.70703-.70703-1.06055,1.06055,.70703,.70703c.87695,.87695,.87695,2.30566,0,3.18262l-1.41406,1.41406c-.87598,.87598-2.30469,.87793-3.18262,0l-.70703-.70703-1.06055,1.06055,.70703,.70703c.73145,.73047,1.69141,1.0957,2.65137,1.0957Z"/><path d="M9.25,40c0,1.5166,1.2334,2.75,2.75,2.75s2.75-1.2334,2.75-2.75-1.2334-2.75-2.75-2.75-2.75,1.2334-2.75,2.75Zm4,0c0,.68945-.56055,1.25-1.25,1.25s-1.25-.56055-1.25-1.25,.56055-1.25,1.25-1.25,1.25,.56055,1.25,1.25Z"/><path d="M21,44.75h1v-1.5h-1c-1.24023,0-2.25-1.00977-2.25-2.25v-2c0-1.24023,1.00977-2.25,2.25-2.25h1v-1.5h-1c-2.06738,0-3.75,1.68262-3.75,3.75v2c0,2.06738,1.68262,3.75,3.75,3.75Z"/><path d="M68,37.25c-1.5166,0-2.75,1.2334-2.75,2.75s1.2334,2.75,2.75,2.75,2.75-1.2334,2.75-2.75-1.2334-2.75-2.75-2.75Zm0,4c-.68945,0-1.25-.56055-1.25-1.25s.56055-1.25,1.25-1.25,1.25,.56055,1.25,1.25-.56055,1.25-1.25,1.25Z"/><path d="M62.75,39c0-2.06738-1.68262-3.75-3.75-3.75h-1v1.5h1c1.24023,0,2.25,1.00977,2.25,2.25v2c0,1.24023-1.00977,2.25-2.25,2.25h-1v1.5h1c2.06738,0,3.75-1.68262,3.75-3.75v-2Z"/><path d="M20.20117,62.54883c.73438,0,1.4248-.28613,1.94434-.80566,.51953-.51855,.80566-1.20898,.80566-1.94434,0-.73438-.28613-1.4248-.80566-1.94434-1.04004-1.04004-2.85254-1.03809-3.88867,0-.51953,.51953-.80566,1.20996-.80566,1.94434s.28613,1.4248,.80566,1.94434,1.20996,.80566,1.94434,.80566Zm-.88379-3.63379c.23633-.23633,.5498-.36621,.88379-.36621s.64746,.12988,.88379,.36621,.36621,.5498,.36621,.88379-.12988,.64746-.36621,.88379c-.47266,.47266-1.29492,.47266-1.76758,0-.23633-.23633-.36621-.5498-.36621-.88379s.12988-.64746,.36621-.88379Z"/><path d="M24.62012,56.79395c.73145,.73047,1.69141,1.0957,2.65137,1.0957,.96094,0,1.9209-.36523,2.65234-1.0957l.70703-.70703-1.06055-1.06055-.70703,.70703c-.87598,.87598-2.30469,.87793-3.18262,0l-1.41406-1.41406c-.87695-.87695-.87695-2.30566,0-3.18262l.70703-.70703-1.06055-1.06055-.70703,.70703c-1.46094,1.46191-1.46094,3.8418,0,5.30371l1.41406,1.41406Z"/><path d="M61.74316,22.14551c1.07227-1.07227,1.07227-2.81689,0-3.88916-1.03613-1.03906-2.84961-1.04004-3.88867,0-1.07227,1.07227-1.07227,2.81689,0,3.88916,.51953,.51953,1.20996,.80566,1.94434,.80566,.73535,0,1.42578-.28613,1.94434-.80566Zm-2.82812-2.82861c.23633-.23584,.5498-.36572,.88379-.36572s.64746,.12988,.88379,.36572c.4873,.4873,.4873,1.28076,0,1.76807-.47266,.47266-1.29492,.47266-1.76758,0-.4873-.4873-.4873-1.28076,0-1.76807Z"/><path d="M55.02637,29.57031l1.06055,1.06055,.70703-.70703c1.46094-1.46191,1.46094-3.8418,0-5.30371l-1.41406-1.41406c-1.46387-1.46191-3.8418-1.45996-5.30371,0l-.70703,.70703,1.06055,1.06055,.70703-.70703c.87598-.87598,2.30469-.87793,3.18262,0l1.41406,1.41406c.87695,.87695,.87695,2.30566,0,3.18262l-.70703,.70703Z"/></svg>