<?xml version="1.0" encoding="UTF-8"?><svg id="a" xmlns="http://www.w3.org/2000/svg" viewBox="0 0 80 80"><path d="M63.39258,35.82324h-4.41455l-4.87598-8.64746c-1.01807-1.80469-2.93701-2.92578-5.00879-2.92578H16.22412c-2.80566,0-5.18848,2.00684-5.66602,4.77051l-1.2832,7.4248c-.00354,.02051,.00464,.04028,.00293,.06055-.0022,.02344-.01367,.04346-.01367,.06738v8.42676c0,2.37402,1.7561,4.3291,4.0343,4.67773,.34106,3.40454,3.22229,6.07227,6.7157,6.07227,3.46838,0,6.33118-2.63037,6.70581-6h26.58838c.37463,3.36963,3.23743,6,6.70581,6,3.5686,0,6.49109-2.78564,6.72693-6.29492h3.27307c.41406,0,.75-.33594,.75-.75v-5.50977c0-4.06543-3.30664-7.37207-7.37158-7.37207Zm-22.62842-10.07324h8.3291c1.53125,0,2.94971,.82812,3.70215,2.16211l4.46094,7.91113h-16.49219v-10.07324Zm-14.01416,0h12.51416v10.07324h-12.51416v-10.07324Zm-14.71338,3.52637c.35254-2.04297,2.11377-3.52637,4.1875-3.52637h9.02588v10.07324H10.90479l1.13184-6.54688Zm7.97754,24.97363c-2.89502,0-5.25-2.35547-5.25-5.25s2.35498-5.25,5.25-5.25,5.25,2.35547,5.25,5.25-2.35498,5.25-5.25,5.25Zm40,0c-2.89502,0-5.25-2.35547-5.25-5.25s2.35498-5.25,5.25-5.25,5.25,2.35547,5.25,5.25-2.35498,5.25-5.25,5.25Zm9.25-6.29492h-2.58936c-.50488-3.22607-3.29468-5.70508-6.66064-5.70508-3.46838,0-6.33118,2.63037-6.70581,6H26.71997c-.37463-3.36963-3.23743-6-6.70581-6-3.44116,0-6.28333,2.58984-6.69385,5.92139-1.45911-.31909-2.55615-1.61792-2.55615-3.17139v-7.67676H63.39258c3.23779,0,5.87158,2.63379,5.87158,5.87207v4.75977Z"/></svg>