<?xml version="1.0" encoding="UTF-8"?><svg id="a" xmlns="http://www.w3.org/2000/svg" viewBox="0 0 80 80"><path d="M20,50.75h2v-1.5h-2c-5.10059,0-9.25-4.14941-9.25-9.25s4.14941-9.25,9.25-9.25c1.3916,0,2.74219,.31201,4.01562,.92773,.19043,.09277,.41211,.09961,.60938,.01953,.19629-.08008,.34961-.23975,.42188-.43945,2.27441-6.28516,8.2832-10.50781,14.95312-10.50781,8.26465,0,15.0752,6.2002,15.84082,14.42236,.02539,.27295,.19727,.50977,.44824,.61865,.25391,.10889,.54199,.07178,.75879-.09521,1.35938-1.05469,2.95703-1.6123,4.61914-1.6123,4.18164,0,7.58301,3.40186,7.58301,7.58301,0,4.18164-3.40137,7.5835-7.58301,7.5835h-3.66699v1.5h3.66699c5.00879,0,9.08301-4.07471,9.08301-9.0835,0-5.0083-4.07422-9.08301-9.08301-9.08301-1.58301,0-3.11426,.41846-4.49023,1.21875-1.37109-8.37842-8.5498-14.55225-17.17676-14.55225-7.03125,0-13.39258,4.28809-16.07422,10.75098-1.25684-.49854-2.57422-.75098-3.92578-.75098-5.92773,0-10.75,4.82227-10.75,10.75s4.82227,10.75,10.75,10.75Z"/><path d="M44.76953,37.25h-9.53906c-1.5166,0-2.75,1.23389-2.75,2.75v.63477h-4.32617c-1.34668,0-2.44238,1.0957-2.44238,2.44238v14.92285c0,1.51611,1.2334,2.75,2.75,2.75h23.07617c1.5166,0,2.75-1.23389,2.75-2.75v-14.92285c0-1.34668-1.0957-2.44238-2.44238-2.44238h-4.32617v-.63477c0-1.51611-1.2334-2.75-2.75-2.75Zm-10.78906,2.75c0-.68945,.56055-1.25,1.25-1.25h9.53906c.68945,0,1.25,.56055,1.25,1.25v.63477h-12.03906v-.63477Zm18.80762,18c0,.68945-.56055,1.25-1.25,1.25H28.46191c-.68945,0-1.25-.56055-1.25-1.25v-9.28613c.29004,.12189,.6084,.18994,.94238,.18994h23.69141c.33398,0,.65234-.06805,.94238-.18994v9.28613Zm-1.25-15.86523h.30762c.51953,0,.94238,.42285,.94238,.94238v3.38428c0,.51953-.42285,.94238-.94238,.94238H28.1543c-.51953,0-.94238-.42285-.94238-.94238v-3.38428c0-.51953,.42285-.94238,.94238-.94238h23.38379Z"/></svg>