<?xml version="1.0" encoding="UTF-8"?><svg id="a" xmlns="http://www.w3.org/2000/svg" viewBox="0 0 80 80"><rect x="26.5" y="45.25" width="5" height="1.5"/><rect x="56" y="21.2998" width="4" height="1.5"/><circle cx="58" cy="42" r="1"/><path d="M12,64.75h27.25v2.5h-13.25v1.5h28v-1.5h-13.25v-2.5h27.25c1.5166,0,2.75-1.2334,2.75-2.75V28c0-1.5166-1.2334-2.75-2.75-2.75h-1.25v-5.25c0-1.5166-1.2334-2.75-2.75-2.75h-12c-1.5166,0-2.75,1.2334-2.75,2.75v5.25h-4.5V12c0-1.5166-1.2334-2.75-2.75-2.75H16c-1.5166,0-2.75,1.2334-2.75,2.75v13.25h-1.25c-1.5166,0-2.75,1.2334-2.75,2.75V62c0,1.5166,1.2334,2.75,2.75,2.75ZM50.75,20c0-.68945,.56055-1.25,1.25-1.25h12c.68945,0,1.25,.56055,1.25,1.25v24c0,.68945-.56055,1.25-1.25,1.25h-12c-.68945,0-1.25-.56055-1.25-1.25V20ZM14.75,12c0-.68945,.56055-1.25,1.25-1.25h26c.68945,0,1.25,.56055,1.25,1.25V48c0,.68945-.56055,1.25-1.25,1.25H16c-.68945,0-1.25-.56055-1.25-1.25V12Zm-4,16c0-.68945,.56055-1.25,1.25-1.25h1.25v21.25c0,1.5166,1.2334,2.75,2.75,2.75h26c1.5166,0,2.75-1.2334,2.75-2.75V26.75h4.5v17.25c0,1.5166,1.2334,2.75,2.75,2.75h12c1.5166,0,2.75-1.2334,2.75-2.75V26.75h1.25c.68945,0,1.25,.56055,1.25,1.25v29.25H10.75V28Zm0,30.75h58.5v3.25c0,.68945-.56055,1.25-1.25,1.25H12c-.68945,0-1.25-.56055-1.25-1.25v-3.25Z"/></svg>