<?xml version="1.0" encoding="UTF-8"?><svg id="a" xmlns="http://www.w3.org/2000/svg" viewBox="0 0 80 80"><path d="M40.54443,9.46973c-.29297-.29297-.76758-.29297-1.06055,0L9.48389,39.46973c-.21436,.21436-.27881,.53711-.1626,.81738s.38965,.46289,.69287,.46289h7.23584v27.25c0,.41406,.33594,.75,.75,.75h16.01416c.41406,0,.75-.33594,.75-.75v-15.25h10.5v15.25c0,.41406,.33594,.75,.75,.75h15.98584c.41406,0,.75-.33594,.75-.75v-27.25h7.26416c.30322,0,.57666-.18262,.69287-.46289s.05176-.60303-.1626-.81738L40.54443,9.46973Zm21.45557,29.78027c-.41406,0-.75,.33594-.75,.75v27.25h-14.48584v-15.25c0-.41406-.33594-.75-.75-.75h-12c-.41406,0-.75,.33594-.75,.75v15.25h-14.51416v-27.25c0-.41406-.33594-.75-.75-.75h-6.17529L40.01416,11.06055l28.18945,28.18945h-6.20361Z"/></svg>