<?xml version="1.0" encoding="UTF-8"?><svg id="a" xmlns="http://www.w3.org/2000/svg" viewBox="0 0 80 80"><path d="M34,58.73877c6.10278,0,12.19165-2.26056,16.94385-6.73438l18.52588,18.52588,1.06055-1.06055-18.52588-18.52588c9.12012-9.68719,8.96802-24.97394-.50342-34.44482-9.65039-9.65039-25.35156-9.65039-35.00195,0-9.65039,9.6499-9.65039,25.35205,0,35.00195,4.8252,4.8252,11.16309,7.23779,17.50098,7.23779ZM17.55957,17.55957c4.53271-4.53271,10.48633-6.79883,16.44043-6.79883s11.90771,2.26611,16.44043,6.79883c9.06543,9.06543,9.06543,23.81543,0,32.88086s-23.81543,9.06543-32.88086,0-9.06543-23.81543,0-32.88086Z"/><rect x="20" y="33.25" width="28" height="1.5"/></svg>