<?xml version="1.0" encoding="UTF-8"?><svg id="a" xmlns="http://www.w3.org/2000/svg" viewBox="0 0 80 80"><path d="M51.22705,63.7124c-.9917,.9917-2.31006,1.5376-3.7124,1.5376h-15.51465c-.19873,0-.38965,.0791-.53027,.21973l-4,4,1.06055,1.06055,3.78027-3.78027h15.2041c1.80322,0,3.49805-.70215,4.77295-1.97705l14.22266-14.22266c1.40625-1.40625,1.40625-3.69434,0-5.10059-1.38379-1.38379-3.63623-1.38428-5.02197,.00146l-1.41687,1.42377-.59973-.5683c-1.39062-1.31543-3.55273-1.29932-4.92969,.04736l-6.91675,6.95917c-.20435-.03461-.41113-.06317-.62524-.06317h-14.51465c-1.80322,0-3.49805,.70215-4.77295,1.97705l-14.24268,14.24268,1.06055,1.06055,14.24268-14.24268c.9917-.9917,2.31006-1.5376,3.7124-1.5376h14.51465c1.24072,0,2.25,1.00928,2.25,2.25,0,.48041-.2937,1.0238-.70349,1.45618l-.05383,.05408,.00122,.00116c-.42261,.42529-.95667,.73029-1.42798,.73029l-11.06641,.0083,.00098,1.5,11.06592-.0083c.91553,0,1.85425-.50635,2.55688-1.24121l12.927-12.99023c.7998-.79883,2.09961-.79883,2.89941,0,.82129,.82129,.82129,2.1582,0,2.97949l-14.22266,14.22266Zm-.54663-7.40057c-.1842-.98621-.75244-1.83618-1.54663-2.38873l6.46436-6.50366c.78955-.77393,2.03906-.7832,2.84229-.02344l.57275,.54242-8.33276,8.37341Z"/><path d="M40.75,48.00146l.01074-5.29163c3.34961-.16614,6.65088-1.50922,9.20312-4.06189,5.46045-5.46045,5.46045-14.34521,0-19.80566l-9.37256-9.37256c-.29297-.29297-.76758-.29297-1.06055,0l-9.37256,9.37256c-5.46045,5.46045-5.46045,14.34521,0,19.80566,2.52661,2.52716,5.7876,3.86902,9.10254,4.05713l-.01074,5.29346,1.5,.00293Zm-9.53125-10.41406c-4.87549-4.87549-4.87549-12.80908,0-17.68457l8.84229-8.84229,8.84229,8.84229c4.87549,4.87549,4.87549,12.80908,0,17.68457-2.2594,2.2594-5.17566,3.45801-8.1394,3.62354l.01001-4.92426,5.75635-5.75641-1.06055-1.06055-4.69153,4.69153,.01208-5.89093,3.73999-3.74005-1.06055-1.06055-2.67517,2.67517,.01648-8.0824-1.5-.00293-.0166,8.17426-2.76416-2.7641-1.06055,1.06055,3.82031,3.82031-.01196,5.86694-4.7478-4.7478-1.06055,1.06055,5.80408,5.80408-.00989,4.87207c-2.9314-.18573-5.80981-1.38361-8.04517-3.61902Z"/></svg>