<?xml version="1.0" encoding="UTF-8"?><svg id="a" xmlns="http://www.w3.org/2000/svg" viewBox="0 0 80 80"><path d="M48,56.75c1.69043,0,3.2666-.91016,4.11426-2.37402,.41602-.71875,.63574-1.54004,.63574-2.37598,0-2.61914-2.13086-4.75-4.75-4.75s-4.75,2.13086-4.75,4.75,2.13086,4.75,4.75,4.75Zm0-8c1.79199,0,3.25,1.45801,3.25,3.25,0,.57227-.15039,1.13379-.43359,1.62402h-.00098c-.58008,1.00293-1.6582,1.62598-2.81543,1.62598-1.79199,0-3.25-1.45801-3.25-3.25s1.45801-3.25,3.25-3.25Z"/><path d="M64,39.25c-2.61914,0-4.75,2.13086-4.75,4.75,0,.83691,.21973,1.6582,.63672,2.37598l1.29688-.75195c-.2832-.49023-.43359-1.05176-.43359-1.62402,0-1.79199,1.45801-3.25,3.25-3.25s3.25,1.45801,3.25,3.25c0,.57227-.15039,1.13379-.43359,1.62402l1.29688,.75195c.41699-.71777,.63672-1.53906,.63672-2.37598,0-2.61914-2.13086-4.75-4.75-4.75Z"/><path d="M32,39.25c-2.61914,0-4.75,2.13086-4.75,4.75,0,.83691,.21973,1.6582,.63672,2.37598l1.29688-.75195c-.2832-.49023-.43359-1.05176-.43359-1.62402,0-1.79199,1.45801-3.25,3.25-3.25s3.25,1.45801,3.25,3.25c0,.57227-.15039,1.13379-.43359,1.62402l1.29688,.75195c.41699-.71777,.63672-1.53906,.63672-2.37598,0-2.61914-2.13086-4.75-4.75-4.75Z"/><path d="M52.11328,38.37598c.41699-.71777,.63672-1.53906,.63672-2.37598,0-2.61914-2.13086-4.75-4.75-4.75s-4.75,2.13086-4.75,4.75c0,.83496,.21973,1.65723,.63574,2.37598l1.29883-.75195c-.28418-.49023-.43457-1.05273-.43457-1.62402,0-1.79199,1.45801-3.25,3.25-3.25s3.25,1.45801,3.25,3.25c0,.57227-.15039,1.13379-.43359,1.62402l1.29688,.75195Z"/><path d="M20.11328,38.37598c.41699-.71777,.63672-1.53906,.63672-2.37598,0-2.61914-2.13086-4.75-4.75-4.75s-4.75,2.13086-4.75,4.75c0,.83496,.21973,1.65723,.63574,2.37598l1.29883-.75195c-.28418-.49023-.43457-1.05273-.43457-1.62402,0-1.79199,1.45801-3.25,3.25-3.25s3.25,1.45801,3.25,3.25c0,.57227-.15039,1.13379-.43359,1.62402l1.29688,.75195Z"/><path d="M50.70312,59.25h-5.40625c-2.23145,0-4.04688,1.85547-4.04688,4.13574v7.81445h1.5v-7.81445c0-1.45312,1.14258-2.63574,2.54688-2.63574h5.40625c1.4043,0,2.54688,1.18262,2.54688,2.63574v7.81445h1.5v-7.81445c0-2.28027-1.81543-4.13574-4.04688-4.13574Z"/><path d="M16,56.75c2.61914,0,4.75-2.13086,4.75-4.75s-2.13086-4.75-4.75-4.75-4.75,2.13086-4.75,4.75,2.13086,4.75,4.75,4.75Zm0-8c1.79199,0,3.25,1.45801,3.25,3.25s-1.45801,3.25-3.25,3.25-3.25-1.45801-3.25-3.25,1.45801-3.25,3.25-3.25Z"/><path d="M18.70312,59.25h-5.40625c-2.23145,0-4.04688,1.85547-4.04688,4.13574v7.81445h1.5v-7.81445c0-1.45312,1.14258-2.63574,2.54688-2.63574h5.40625c1.4043,0,2.54688,1.18262,2.54688,2.63574v7.81445h1.5v-7.81445c0-2.28027-1.81543-4.13574-4.04688-4.13574Z"/><rect x="27.25" y="22" width="1.5" height="8"/><rect x="30.44055" y="26.58358" width="6.1189" height="1.49983" transform="translate(-6.75927 43.09931) rotate(-60.59754)"/><rect x="21.75009" y="24.27404" width="1.49983" height="6.1189" transform="translate(-10.51134 14.54203) rotate(-29.35925)"/><path d="M64.74512,20.08203c.03418-.3125-.12891-.6123-.41016-.75293l-8-4c-.23145-.11523-.50586-.10449-.72949,.0332-.2207,.13672-.35547,.37793-.35547,.6377v13.95996h1.5v-7.37402l7.43164-1.8584c.30469-.07617,.5293-.33398,.56348-.64551Zm-7.99512,.95703v-3.8252l5.10156,2.5498-5.10156,1.27539Z"/></svg>