<svg id="DO_NOT_TOUCH_Outlines_" data-name="DO NOT TOUCH (Outlines)" xmlns="http://www.w3.org/2000/svg" viewBox="0 0 80 80"><path d="M64.75,33.25V10A.76.76,0,0,0,64,9.26H16a.76.76,0,0,0-.75.75V33.25H8v1.5H34v-1.5H16.75V10.76h46.5V33.25h-4.5V28a.76.76,0,0,0-.75-.75H54a.76.76,0,0,0-.75.75v5.25H46v1.5H72v-1.5Zm-10-4.5h2.5v4.5h-2.5Z"/><path d="M47.47,21.88l.52.54,1.07-1.06-.53-.53a12,12,0,0,0-17.06,0l-.53.53L32,22.42l.52-.54a10.48,10.48,0,0,1,14.94,0Z"/><path d="M46.39,24.06l-.52-.53a8.23,8.23,0,0,0-11.74,0l-.52.53,1.06,1.06.53-.54a6.74,6.74,0,0,1,9.6,0l.53.54Z"/><path d="M42.66,27.82l1.07-1.06-.53-.53a4.49,4.49,0,0,0-6.4,0l-.53.53,1.07,1.06.53-.54a3.06,3.06,0,0,1,4.26,0Z"/><path d="M40.92,29.62a.9.9,0,0,0-.54-.54,1,1,0,0,0-.76,0,.93.93,0,0,0-.33.21,1,1,0,0,0-.21.33A.84.84,0,0,0,39,30a1.05,1.05,0,0,0,.29.71,1.15,1.15,0,0,0,.33.21A.84.84,0,0,0,40,31a1.05,1.05,0,0,0,.71-.29.93.93,0,0,0,.21-.33.94.94,0,0,0,0-.76Z"/><path d="M40.92,41.62a1.15,1.15,0,0,0-.21-.33,1,1,0,0,0-1.09-.21,1.15,1.15,0,0,0-.33.21,1,1,0,0,0,0,1.42,1.15,1.15,0,0,0,.33.21A1,1,0,0,0,40,43a1.05,1.05,0,0,0,.71-.29,1.15,1.15,0,0,0,.21-.33.94.94,0,0,0,0-.76Z"/><path d="M34.71,41.29a1,1,0,0,0-1.09-.21.9.9,0,0,0-.54.54A.84.84,0,0,0,33,42a1.05,1.05,0,0,0,.29.71,1.15,1.15,0,0,0,.33.21A.84.84,0,0,0,34,43a1,1,0,0,0,1-1,1,1,0,0,0-.08-.38A1.15,1.15,0,0,0,34.71,41.29Z"/><path d="M28.92,41.62a.76.76,0,0,0-.09-.18,1.58,1.58,0,0,0-.12-.15.93.93,0,0,0-.33-.21,1,1,0,0,0-1.09.21l-.12.15a.76.76,0,0,0-.09.18.64.64,0,0,0-.06.18,1,1,0,0,0,0,.4.64.64,0,0,0,.06.18.76.76,0,0,0,.09.18l.12.15A1.05,1.05,0,0,0,28,43a1,1,0,0,0,.38-.08.93.93,0,0,0,.33-.21,1.58,1.58,0,0,0,.12-.15.76.76,0,0,0,.09-.18A.64.64,0,0,0,29,42.2a1,1,0,0,0,0-.4A.64.64,0,0,0,28.92,41.62Z"/><path d="M46.71,41.29a1,1,0,0,0-.9-.27.6.6,0,0,0-.19.06.56.56,0,0,0-.17.09l-.16.12a1,1,0,0,0,0,1.42l.16.12a.56.56,0,0,0,.17.09.6.6,0,0,0,.19.06L46,43a1.05,1.05,0,0,0,.71-.29,1.15,1.15,0,0,0,.21-.33.94.94,0,0,0,0-.76A1.15,1.15,0,0,0,46.71,41.29Z"/><path d="M52.71,41.29a1,1,0,1,0,0,1.42,1,1,0,0,0,.21-.33.94.94,0,0,0,0-.76A.93.93,0,0,0,52.71,41.29Z"/><path d="M58.71,42.71A1.05,1.05,0,0,0,59,42a1,1,0,0,0-.08-.38,1,1,0,0,0-.21-.33,1,1,0,0,0-1.09-.21.93.93,0,0,0-.33.21,1,1,0,0,0,1.42,1.42Z"/><path d="M64,43a1,1,0,0,0,.71-1.71,1,1,0,0,0-1.09-.21.93.93,0,0,0-.33.21A1,1,0,0,0,64,43Z"/><path d="M63.29,48.71a.93.93,0,0,0,.33.21A1,1,0,0,0,64,49a1,1,0,0,0,1-1,1,1,0,0,0-.08-.38.93.93,0,0,0-.21-.33,1,1,0,0,0-1.42,1.42Z"/><path d="M15.29,48.71a1.15,1.15,0,0,0,.33.21A1,1,0,0,0,16,49a1,1,0,0,0,.71-1.71l-.15-.12-.18-.09A.64.64,0,0,0,16.2,47a1,1,0,0,0-.58.06,1.15,1.15,0,0,0-.33.21,1,1,0,0,0,0,1.42Z"/><path d="M15.62,42.92A1,1,0,0,0,16,43l.2,0a.64.64,0,0,0,.18-.06l.18-.09.15-.12A1.05,1.05,0,0,0,17,42a.68.68,0,0,0,0-.2.64.64,0,0,0-.06-.18.76.76,0,0,0-.09-.18,1.58,1.58,0,0,0-.12-.15,1,1,0,0,0-1.42,0,1.58,1.58,0,0,0-.12.15.76.76,0,0,0-.09.18.64.64,0,0,0-.06.18,1.36,1.36,0,0,0,0,.2,1.05,1.05,0,0,0,.29.71A1.15,1.15,0,0,0,15.62,42.92Z"/><path d="M22.71,41.29A1,1,0,0,0,21.8,41a.64.64,0,0,0-.18.06l-.18.09-.15.12a.93.93,0,0,0-.21.33A.84.84,0,0,0,21,42a.68.68,0,0,0,0,.2.64.64,0,0,0,.06.18.76.76,0,0,0,.09.18,1.58,1.58,0,0,0,.12.15l.15.12.18.09a.64.64,0,0,0,.18.06l.2,0a1.05,1.05,0,0,0,.71-.29A1,1,0,0,0,23,42a1,1,0,0,0-.08-.38A.93.93,0,0,0,22.71,41.29Z"/><path d="M40.71,47.29a1,1,0,0,0-1.09-.21,1.15,1.15,0,0,0-.33.21.93.93,0,0,0-.21.33A.84.84,0,0,0,39,48a1.05,1.05,0,0,0,.29.71,1.15,1.15,0,0,0,.33.21A.84.84,0,0,0,40,49a1,1,0,0,0,1-1,1,1,0,0,0-.08-.38A.93.93,0,0,0,40.71,47.29Z"/><path d="M64,53.25a7.72,7.72,0,0,0-5.37,2.14,7.19,7.19,0,0,0,0,10.41l.15.11A4.76,4.76,0,0,1,61,70a.74.74,0,0,0,.75.75h4.57A.75.75,0,0,0,67,70a4.76,4.76,0,0,1,2.18-4.09.83.83,0,0,0,.15-.11,7.17,7.17,0,0,0,0-10.41A7.71,7.71,0,0,0,64,53.25Zm4.39,11.41a6.24,6.24,0,0,0-2.81,4.59h-.83v-8.5h1.54v-1.5H61.72v1.5h1.53v8.5h-.82a6.24,6.24,0,0,0-2.82-4.59,5.64,5.64,0,0,1-1.71-4.07,5.72,5.72,0,0,1,1.77-4.12,6.31,6.31,0,0,1,8.66,0,5.67,5.67,0,0,1,.06,8.19Z"/><path d="M19.66,59.44a15.43,15.43,0,0,1-2.93-5.62.76.76,0,0,0-.73-.57.75.75,0,0,0-.73.57,15.59,15.59,0,0,1-2.93,5.62c-.35.48-.69.94-.94,1.33A6.14,6.14,0,0,0,10,64.67a6,6,0,1,0,12,0,6.18,6.18,0,0,0-1.37-3.87C20.33,60.36,20,59.91,19.66,59.44ZM16,69.25a4.54,4.54,0,0,1-4.49-4.58,4.7,4.7,0,0,1,1.1-3c.29-.44.61-.88.94-1.33a21.54,21.54,0,0,0,2.45-4,21,21,0,0,0,2.45,4c.33.45.65.89.94,1.33l.05.06a4.7,4.7,0,0,1,1,3A4.55,4.55,0,0,1,16,69.25Z"/><path d="M40,53.25a3.61,3.61,0,0,0-3.75,3.45V67.3a3.76,3.76,0,0,0,7.5,0V56.7A3.61,3.61,0,0,0,40,53.25Zm2.25,14a2.27,2.27,0,0,1-4.5,0v-.55H40v-1.5H37.75V62.74H40v-1.5H37.75V58.75H40v-1.5H37.75V56.7a2.27,2.27,0,0,1,4.5,0Z"/><path d="M40.71,35.29a1,1,0,0,0-1.09-.21,1.15,1.15,0,0,0-.33.21A1.05,1.05,0,0,0,39,36a.84.84,0,0,0,.08.38.93.93,0,0,0,.21.33,1.15,1.15,0,0,0,.33.21A1,1,0,0,0,40,37a1.05,1.05,0,0,0,.71-.29.93.93,0,0,0,.21-.33A1,1,0,0,0,41,36,1.05,1.05,0,0,0,40.71,35.29Z"/></svg>