<?xml version="1.0" encoding="UTF-8"?><svg id="a" xmlns="http://www.w3.org/2000/svg" viewBox="0 0 80 80"><path d="M64.75,51.84375V10c0-.41406-.33594-.75-.75-.75H16c-.41406,0-.75,.33594-.75,.75V51.84375c0,5.16064,3.02979,9.77734,7.71875,11.76221l16.73926,7.08496c.09277,.03955,.19238,.05908,.29199,.05908s.19922-.01953,.29199-.05908l16.73926-7.08496c4.68945-1.98486,7.71875-6.60156,7.71875-11.76221Zm-24.75,17.3418l-16.44727-6.96143c-4.13232-1.74902-6.80273-5.82373-6.80273-10.38037V10.75H63.25V51.84375c0,4.55664-2.66992,8.63135-6.80273,10.38037l-16.44727,6.96143Z"/><path d="M56,31.25h-5.25v-5.25c0-5.92773-4.82227-10.75-10.75-10.75s-10.75,4.82227-10.75,10.75v5.25h-5.25c-.41406,0-.75,.33594-.75,.75v22c0,.41406,.33594,.75,.75,.75H56c.41406,0,.75-.33594,.75-.75v-22c0-.41406-.33594-.75-.75-.75Zm-25.25-5.25c0-5.10059,4.14941-9.25,9.25-9.25s9.25,4.14941,9.25,9.25v5.25H30.75v-5.25Zm24.5,27.25H24.75v-20.5h30.5v20.5Z"/></svg>