<?xml version="1.0" encoding="UTF-8"?><svg id="a" xmlns="http://www.w3.org/2000/svg" viewBox="0 0 80 80"><path d="M40,34.75c3.72217,0,6.75-3.02783,6.75-6.75s-3.02783-6.75-6.75-6.75-6.75,3.02783-6.75,6.75,3.02783,6.75,6.75,6.75Zm0-12c2.89502,0,5.25,2.35498,5.25,5.25s-2.35498,5.25-5.25,5.25-5.25-2.35498-5.25-5.25,2.35498-5.25,5.25-5.25Z"/><path d="M52.75,62v-18c0-3.72217-3.02783-6.75-6.75-6.75h-12c-3.72217,0-6.75,3.02783-6.75,6.75v18h1.5v-18c0-2.89502,2.35498-5.25,5.25-5.25h12c2.89502,0,5.25,2.35498,5.25,5.25v18h1.5Z"/><path d="M19,29.25c-3.17041,0-5.75,2.57959-5.75,5.75s2.57959,5.75,5.75,5.75,5.75-2.57959,5.75-5.75-2.57959-5.75-5.75-5.75Zm0,10c-2.34326,0-4.25-1.90674-4.25-4.25s1.90674-4.25,4.25-4.25,4.25,1.90674,4.25,4.25-1.90674,4.25-4.25,4.25Z"/><path d="M10.75,49c0-2.34326,1.90674-4.25,4.25-4.25h9v-1.5H15c-3.17041,0-5.75,2.57959-5.75,5.75v13h1.5v-13Z"/><path d="M61,40.75c3.17041,0,5.75-2.57959,5.75-5.75s-2.57959-5.75-5.75-5.75-5.75,2.57959-5.75,5.75,2.57959,5.75,5.75,5.75Zm0-10c2.34326,0,4.25,1.90674,4.25,4.25s-1.90674,4.25-4.25,4.25-4.25-1.90674-4.25-4.25,1.90674-4.25,4.25-4.25Z"/><path d="M70.75,62v-13c0-3.17041-2.57959-5.75-5.75-5.75h-9v1.5h9c2.34326,0,4.25,1.90674,4.25,4.25v13h1.5Z"/></svg>