<svg xmlns="http://www.w3.org/2000/svg" viewBox="0 0 80 80"><rect x="8" y="61.25" width="64" height="1.5"/><path d="M15.0752,58.75H64.9248A3.79228,3.79228,0,0,0,68.75,55V21a3.79228,3.79228,0,0,0-3.8252-3.75H15.0752A3.79228,3.79228,0,0,0,11.25,21V55A3.79228,3.79228,0,0,0,15.0752,58.75ZM12.75,21a2.291,2.291,0,0,1,2.3252-2.25H64.9248A2.291,2.291,0,0,1,67.25,21V55a2.291,2.291,0,0,1-2.3252,2.25H15.0752A2.291,2.291,0,0,1,12.75,55Z"/><path d="M28,50.75H52a.7502.7502,0,0,0,.75-.75V26a.7502.7502,0,0,0-.75-.75H28a.7502.7502,0,0,0-.75.75V50A.7502.7502,0,0,0,28,50.75Zm5.21362-1.5,1.25025-2.5H45.53613l1.25025,2.5ZM28.75,26.75h22.5v6.5H48.46362L46.6709,29.66455A.75019.75019,0,0,0,46,29.25H34a.75019.75019,0,0,0-.6709.41455L31.53638,33.25H28.75Zm18.03638,6.5H33.21362l1.25025-2.5H45.53613ZM28.75,34.75h22.5v6.5H48.46362L46.6709,37.66455A.75019.75019,0,0,0,46,37.25H33.5a.74942.74942,0,0,0-.70215.48682L31.48047,41.25H28.75Zm18.03638,6.5H33.082l.9375-2.5h11.5166ZM28.75,42.75h22.5v6.5H48.46362L46.6709,45.66455A.75019.75019,0,0,0,46,45.25H34a.75019.75019,0,0,0-.6709.41455L31.53638,49.25H28.75Z"/><path d="M20,48.75h4v-1.5H20.75v-4.5H24v-1.5H20.75v-6.5H24v-1.5H20.75v-4.5H24v-1.5H20a.7502.7502,0,0,0-.75.75V48A.7502.7502,0,0,0,20,48.75Z"/><path d="M60.75,48V28a.7502.7502,0,0,0-.75-.75H56v1.5h3.25v4.5H56v1.5h3.25v6.5H56v1.5h3.25v4.5H56v1.5h4A.7502.7502,0,0,0,60.75,48Z"/></svg>