<?xml version="1.0" encoding="UTF-8"?><svg id="a" xmlns="http://www.w3.org/2000/svg" viewBox="0 0 80 80"><path d="M20,33.25c-1.5166,0-2.75,1.2334-2.75,2.75s1.2334,2.75,2.75,2.75,2.75-1.2334,2.75-2.75-1.2334-2.75-2.75-2.75Zm0,4c-.68945,0-1.25-.56055-1.25-1.25s.56055-1.25,1.25-1.25,1.25,.56055,1.25,1.25-.56055,1.25-1.25,1.25Z"/><path d="M56,33.25c-1.5166,0-2.75,1.2334-2.75,2.75s1.2334,2.75,2.75,2.75,2.75-1.2334,2.75-2.75-1.2334-2.75-2.75-2.75Zm0,4c-.68945,0-1.25-.56055-1.25-1.25s.56055-1.25,1.25-1.25,1.25,.56055,1.25,1.25-.56055,1.25-1.25,1.25Z"/><path d="M61.75,51c0-.51514-.07446-1.01221-.20215-1.4873l4.98242-4.98242c.25293-.25293,.29199-.64844,.09375-.94629l-4.05005-6.0752c.11157-.48584,.17603-.9895,.17603-1.50879,0-2.68042-1.57397-4.99414-3.84253-6.08325l-15.48047-14.81494c.49292-1.27124,.38159-2.74121-.4104-3.92993-.71582-1.07227-1.8623-1.76074-3.14453-1.88672-1.29297-.13281-2.54297,.32227-3.45215,1.23438L16.95581,29.98364c-2.19507,1.11548-3.70581,3.39038-3.70581,6.01636,0,1.99902,.87866,3.79248,2.26416,5.02954l6.92041,24.22046h-.43457c-2.61914,0-4.75,2.13086-4.75,4.75,0,.41406,.33594,.75,.75,.75h20c.41406,0,.75-.33594,.75-.75v-4c0-.41406-.33594-.75-.75-.75h-6.00586l-7.04932-24.67114c1.11646-1.20483,1.80518-2.81104,1.80518-4.57886,0-1.07227-.25806-2.08325-.70483-2.98462l11.96143-11.96143,12.05054,11.74902c-.51416,.95239-.80713,2.04077-.80713,3.19702,0,.6145,.09277,1.21924,.25537,1.80249l-4.11572,5.76196c-.21289,.29785-.17969,.70703,.08008,.96582l4.98242,4.98242c-.12769,.4751-.20215,.97217-.20215,1.4873,0,3.1709,2.5791,5.75,5.75,5.75s5.75-2.5791,5.75-5.75Zm-.5-15c0,2.89453-2.35547,5.25-5.25,5.25-1.3291,0-2.59668-.49707-3.56934-1.39941-1.06836-.99023-1.68066-2.39453-1.68066-3.85059,0-2.89551,2.35547-5.25098,5.25-5.25098,.72241,0,1.41113,.14697,2.03809,.41211l.04785,.0459,.01294-.01367c1.85132,.8125,3.15112,2.6582,3.15112,4.80664Zm-24,33.25H18.83691c.33984-1.43164,1.62891-2.5,3.16309-2.5h15.25v2.5Zm-13.25635-4l-6.57617-23.01587c.79614,.3313,1.66797,.51587,2.58252,.51587,1.36182,0,2.62866-.40869,3.69043-1.10522l6.74438,23.60522h-6.44116Zm-3.99365-24c-2.89453,0-5.25-2.35547-5.25-5.25s2.35547-5.25,5.25-5.25,5.25,2.35547,5.25,5.25-2.35547,5.25-5.25,5.25Zm0-12c-.06738,0-.13281,.0083-.19971,.01025L37.48047,11.58008c.5918-.5918,1.40723-.88477,2.24414-.80273,.83398,.08301,1.5791,.5293,2.04395,1.22656,.7334,1.10156,.58691,2.58008-.34863,3.51562L25.2168,31.72266c-1.23901-1.5083-3.11719-2.47266-5.2168-2.47266Zm19.06738-9.25684l3.41309-3.41309c.05322-.05322,.09302-.11523,.14307-.1709l13.4187,12.84204c-.01416-.00024-.02808-.0022-.04224-.0022-2.021,0-3.83252,.89746-5.07056,2.30957l-11.86206-11.56543Zm7.91211,23.92578l3.21094-4.49561c.32983,.56055,.73657,1.07788,1.2207,1.52686,1.25098,1.16113,2.87988,1.7998,4.58887,1.7998,2.55029,0,4.77393-1.42261,5.92188-3.51514l3.11328,4.66943-4.12256,4.12256c-1.00928-1.66113-2.83057-2.77686-4.9126-2.77686s-3.90332,1.11572-4.9126,2.77686l-4.10791-4.10791Zm9.02051,11.33105c-2.34375,0-4.25-1.90625-4.25-4.25s1.90625-4.25,4.25-4.25,4.25,1.90625,4.25,4.25-1.90625,4.25-4.25,4.25Z"/><path d="M49.6709,59.66504c-.25391-.50977-1.08789-.50977-1.3418,0l-5,10c-.11621,.23242-.10352,.50781,.0332,.72949,.13672,.2207,.37793,.35547,.6377,.35547h10c.25977,0,.50098-.13477,.6377-.35547,.13672-.22168,.14941-.49707,.0332-.72949l-5-10Zm-4.45703,9.58496l3.78613-7.57324,3.78613,7.57324h-7.57227Z"/><path d="M68,59.25h-10c-.41406,0-.75,.33594-.75,.75v10c0,.41406,.33594,.75,.75,.75h10c.41406,0,.75-.33594,.75-.75v-10c0-.41406-.33594-.75-.75-.75Zm-.75,10h-8.5v-8.5h8.5v8.5Z"/><circle cx="38.9436" cy="14.01611" r="1"/></svg>