<?xml version="1.0" encoding="UTF-8"?>
<svg id="art" xmlns="http://www.w3.org/2000/svg" viewBox="0 0 80 80">
  <defs>
    <style>
      .cls-1 {
        fill: #07182d;
      }
    </style>
  </defs>
  <path class="cls-1" d="M59.25,16h1.5c0-1.79,1.46-3.25,3.25-3.25v-1.5c-1.79,0-3.25-1.46-3.25-3.25h-1.5c0,1.79-1.46,3.25-3.25,3.25v1.5c1.79,0,3.25,1.46,3.25,3.25ZM60,10.54c.38.59.87,1.09,1.46,1.46-.59.38-1.09.87-1.46,1.46-.38-.59-.87-1.09-1.46-1.46.59-.38,1.09-.87,1.46-1.46Z"/>
  <path class="cls-1" d="M66.97,12.44h-1.5c0,2.77-2.26,5.03-5.03,5.03v1.5c2.77,0,5.03,2.26,5.03,5.03h1.5c0-2.77,2.25-5.03,5.03-5.03v-1.5c-2.77,0-5.03-2.26-5.03-5.03ZM66.22,20.97c-.62-1.17-1.58-2.13-2.75-2.75,1.17-.62,2.13-1.58,2.75-2.75.62,1.17,1.58,2.13,2.75,2.75-1.17.62-2.13,1.58-2.75,2.75Z"/>
  <path class="cls-1" d="M45.06,40c0-2.79-2.27-5.06-5.06-5.06s-5.06,2.27-5.06,5.06,2.27,5.06,5.06,5.06,5.06-2.27,5.06-5.06ZM40,43.56c-1.96,0-3.56-1.6-3.56-3.56s1.6-3.56,3.56-3.56,3.56,1.6,3.56,3.56-1.6,3.56-3.56,3.56Z"/>
  <path class="cls-1" d="M43.75,51.75c-.11-1.12.45-2.22,1.43-2.78.98-.56,2.2-.5,3.12.15.68.48,1.58.39,2.09-.22,1.09-1.27,1.93-2.72,2.5-4.31.28-.78-.08-1.62-.84-1.97-1.03-.47-1.69-1.5-1.69-2.63s.66-2.16,1.69-2.63c.75-.34,1.12-1.19.84-1.96-.28-.8-.63-1.56-1.03-2.26-.4-.7-.89-1.38-1.44-2.02h0c-.54-.62-1.45-.73-2.12-.25-.92.65-2.15.71-3.12.15-.98-.56-1.54-1.65-1.43-2.78.08-.83-.48-1.57-1.29-1.71-1.65-.3-3.33-.3-4.98,0-.78.15-1.31.88-1.23,1.71.11,1.12-.45,2.22-1.43,2.78s-2.2.5-3.12-.15c-.67-.48-1.57-.39-2.09.22-1.09,1.27-1.93,2.72-2.5,4.31-.28.78.08,1.62.84,1.97,1.03.47,1.69,1.5,1.69,2.63s-.66,2.16-1.69,2.63c-.75.34-1.12,1.19-.84,1.96.28.8.63,1.56,1.03,2.26.4.7.89,1.38,1.44,2.02.54.62,1.45.73,2.12.25.92-.66,2.14-.71,3.12-.15.98.56,1.54,1.65,1.43,2.78-.08.83.48,1.57,1.29,1.71.82.15,1.64.22,2.46.22s1.68-.08,2.52-.23c.78-.15,1.31-.88,1.23-1.71ZM37.81,51.99c-.06-.01-.06-.07-.06-.1.16-1.71-.69-3.37-2.17-4.22-.68-.39-1.43-.58-2.19-.58-.9,0-1.79.27-2.55.81-.02.01-.07.04-.11,0-.49-.57-.92-1.18-1.28-1.8-.36-.62-.67-1.29-.92-2.01-.02-.06.03-.09.05-.1,1.56-.71,2.57-2.28,2.57-3.99s-1.01-3.28-2.57-3.99c-.02,0-.08-.04-.05-.1.5-1.41,1.25-2.7,2.31-3.81,1.4,1,3.26,1.09,4.74.23,1.48-.86,2.33-2.51,2.19-4.31,1.47-.27,2.96-.28,4.44,0,.06.01.06.07.06.1-.16,1.71.69,3.37,2.17,4.22,1.48.85,3.34.76,4.74-.23.02-.01.07-.04.11,0,.49.57.92,1.18,1.28,1.8.36.62.67,1.29.92,2.01.02.06-.03.09-.05.1-1.56.71-2.57,2.28-2.57,3.99s1.01,3.28,2.57,3.99c.02,0,.08.04.05.1-.5,1.41-1.25,2.7-2.31,3.81-1.4-1-3.26-1.09-4.74-.23-1.48.86-2.33,2.51-2.19,4.31-1.47.28-2.96.28-4.44,0Z"/>
  <path class="cls-1" d="M35.93,17.8l-1.58,1.58,1.06,1.06,2.95-2.95c.29-.29.29-.77,0-1.06l-2.95-2.95-1.06,1.06,1.76,1.76c-11.01.88-19.71,10.11-19.71,21.34h1.5c0-10.35,7.93-18.87,18.02-19.83Z"/>
  <path class="cls-1" d="M63.71,35.91c-.88-11.01-10.11-19.71-21.35-19.71v1.5c10.35,0,18.87,7.93,19.84,18.02l-1.58-1.58-1.06,1.06,2.96,2.95c.14.14.33.22.53.22s.39-.08.53-.22l2.95-2.95-1.06-1.06-1.76,1.76Z"/>
  <path class="cls-1" d="M44.07,62.2l1.58-1.58-1.06-1.06-2.95,2.95c-.29.29-.29.77,0,1.06l2.95,2.95,1.06-1.06-1.76-1.76c11.01-.88,19.71-10.11,19.71-21.34h-1.5c0,10.35-7.93,18.87-18.02,19.83Z"/>
  <path class="cls-1" d="M17.8,44.27l1.58,1.58,1.06-1.06-2.96-2.95c-.28-.28-.78-.28-1.06,0l-2.95,2.95,1.06,1.06,1.76-1.76c.88,11.01,10.11,19.71,21.35,19.71v-1.5c-10.35,0-18.87-7.93-19.84-18.02Z"/>
</svg>