<?xml version="1.0" encoding="UTF-8"?><svg id="a" xmlns="http://www.w3.org/2000/svg" viewBox="0 0 80 80"><path d="M68,33.25h-3.25v-3.1499c0-1.5166-1.2334-2.75-2.75-2.75h-25.27148c-.3335,0-.64746-.12988-.88379-.36621l-4.92871-4.92822c-.51953-.51953-1.20996-.80566-1.94434-.80566H12c-1.5166,0-2.75,1.2334-2.75,2.75V60c0,1.11786,.67261,2.07776,1.63232,2.50739,.01428,.00739,.02771,.01593,.04224,.02295l.02783,.01007c.28394,.13385,.59595,.20959,.92261,.20959H62.49121c1.22119,0,2.30859-.82031,2.65479-2.03418l5.57422-24.50635c.19092-.65625,.06006-1.35303-.35938-1.91211-.50732-.67529-1.3457-1.04736-2.36084-1.04736ZM10.75,55.76758V24c0-.68945,.56055-1.25,1.25-1.25H28.97168c.3291,0,.65088,.1333,.88379,.36621l4.92871,4.92822c.51953,.51953,1.20996,.80566,1.94434,.80566h25.27148c.68945,0,1.25,.56055,1.25,1.25v3.1499H18c-1.26025,0-2.27832,.95264-2.73145,2.58398l-4.51855,19.93359Zm58.51855-19.93408l-5.5752,24.50977c-.15283,.53369-.64697,.90674-1.20215,.90674H12c-.15845,0-.3075-.0365-.44714-.09052-.07849-.04425-.15173-.09912-.20813-.17413-.12695-.16748-.1665-.37988-.1084-.58203l5.48633-24.20215c.09473-.34033,.4668-1.45117,1.27734-1.45117h50c.53174,0,.94434,.15918,1.16064,.44775,.13379,.17773,.17725,.39404,.10791,.63574Z"/></svg>