<?xml version="1.0" encoding="UTF-8"?><svg id="a" xmlns="http://www.w3.org/2000/svg" viewBox="0 0 80 80"><path d="M54,47.25h-4c-.41406,0-.75,.33594-.75,.75v4c0,.19922,.0791,.38965,.21973,.53027l2,2c.14648,.14648,.33789,.21973,.53027,.21973s.38379-.07324,.53027-.21973l2-2c.14062-.14062,.21973-.33105,.21973-.53027v-4c0-.41406-.33594-.75-.75-.75Zm-.75,4.43945l-1.25,1.25-1.25-1.25v-2.93945h2.5v2.93945Z"/><path d="M40,51.25c-2.61914,0-4.75,2.13086-4.75,4.75v8c0,2.61914,2.13086,4.75,4.75,4.75s4.75-2.13086,4.75-4.75v-8c0-2.61914-2.13086-4.75-4.75-4.75Zm3.25,12.75c0,1.79199-1.45801,3.25-3.25,3.25s-3.25-1.45801-3.25-3.25v-8c0-1.79199,1.45801-3.25,3.25-3.25s3.25,1.45801,3.25,3.25v8Z"/><path d="M40,34.75c7.03027,0,12.75-5.71973,12.75-12.75s-5.71973-12.75-12.75-12.75-12.75,5.71973-12.75,12.75,5.71973,12.75,12.75,12.75Zm0-24c6.20312,0,11.25,5.04688,11.25,11.25s-5.04688,11.25-11.25,11.25-11.25-5.04688-11.25-11.25,5.04688-11.25,11.25-11.25Z"/><path d="M52,39.25H28c-7.03027,0-12.75,5.71973-12.75,12.75v20h1.5v-20c0-6.20312,5.04688-11.25,11.25-11.25h3.68945l7.78027,7.78027c.14648,.14648,.33789,.21973,.53027,.21973s.38379-.07324,.53027-.21973l7.78027-7.78027h3.68945c6.20312,0,11.25,5.04688,11.25,11.25v20h1.5v-20c0-7.03027-5.71973-12.75-12.75-12.75Zm-12,7.68945l-6.18945-6.18945h12.37891l-6.18945,6.18945Z"/></svg>