<svg xmlns="http://www.w3.org/2000/svg" viewBox="0 0 80 80"><path d="M70,62.75a.7502.7502,0,0,0,.75-.75V32.6499h-.00024a.74925.74925,0,0,0-.35132-.63525l-30-18.83545a.74779.74779,0,0,0-.79688,0L9.61133,32.01465a.7482.7482,0,0,0-.35108.63525H9.25977V62a.75019.75019,0,0,0,.75.75Zm-56.93066-1.5L35.62891,49.48218l3.97461,2.47436a.75048.75048,0,0,0,.793,0l3.979-2.47632L66.94043,61.25Zm5.70825-24.02551a5.51487,5.51487,0,0,1-.02759-.55457,6.59255,6.59255,0,0,1,6.58008-6.58984,6.51687,6.51687,0,0,1,2.8623.66455.74983.74983,0,0,0,1.03223-.41943,11.4577,11.4577,0,0,1,22.18848,2.82324.75058.75058,0,0,0,1.208.52344,5.306,5.306,0,0,1,8.56275,3.582L40,50.43652ZM69.25,60.76294,45.85449,48.55981,69.25,33.99963ZM40,14.7002,68.58594,32.64746,62.57666,36.387a6.82981,6.82981,0,0,0-6.687-5.35717,6.69689,6.69689,0,0,0-3.14746.78271,12.9589,12.9589,0,0,0-24.63574-2.7334,7.94943,7.94943,0,0,0-2.77637-.499,8.08753,8.08753,0,0,0-8.06055,7.70556L11.4248,32.647ZM10.75977,34.00037l23.39062,14.5614L10.75977,60.76294Z"/></svg>