<?xml version="1.0" encoding="UTF-8"?><svg id="a" xmlns="http://www.w3.org/2000/svg" viewBox="0 0 80 80"><path d="M40,53.95215c5.92773,0,10.75-4.73877,10.75-10.56299V19.81348c0-5.82471-4.82227-10.56348-10.75-10.56348s-10.75,4.73877-10.75,10.56348v23.57568c0,5.82422,4.82227,10.56299,10.75,10.56299ZM30.75,19.81348c0-4.99756,4.14941-9.06348,9.25-9.06348,4.90649,0,8.92139,3.7652,9.22095,8.5h-5.22095v1.5h5.25v4.5h-5.25v1.5h5.25v4.5h-5.25v1.5h5.25v10.63916c0,4.99756-4.14941,9.06299-9.25,9.06299s-9.25-4.06543-9.25-9.06299V19.81348Z"/><path d="M54.75,43.03125v-5.03125h-1.5v5.03125c0,7.84033-5.94434,14.21875-13.25,14.21875s-13.25-6.37842-13.25-14.21875v-5.03125h-1.5v5.03125c0,8.39771,6.21655,15.25806,14,15.67828v10.54047h-10v1.5h21.5v-1.5h-10v-10.54047c7.78345-.42023,14-7.28058,14-15.67828Z"/></svg>