<?xml version="1.0" encoding="UTF-8"?><svg id="a" xmlns="http://www.w3.org/2000/svg" viewBox="0 0 80 80"><path d="M34,58.73877c6.10278,0,12.19165-2.26056,16.94385-6.73438l18.52588,18.52588,1.06055-1.06055-18.52588-18.52588c9.12012-9.68719,8.96802-24.97394-.50342-34.44482-9.65039-9.65039-25.35156-9.65039-35.00195,0-9.65039,9.6499-9.65039,25.35205,0,35.00195,4.8252,4.8252,11.16309,7.23779,17.50098,7.23779ZM17.55957,17.55957c4.53271-4.53271,10.48633-6.79883,16.44043-6.79883s11.90771,2.26611,16.44043,6.79883c9.06543,9.06543,9.06543,23.81543,0,32.88086s-23.81543,9.06543-32.88086,0-9.06543-23.81543,0-32.88086Z"/><path d="M23.57178,44.42822c.00745,.00745,.01758,.0097,.02515,.01678,2.66919,2.65851,6.34717,4.30499,10.40308,4.30499,8.1333,0,14.75-6.6167,14.75-14.75s-6.6167-14.75-14.75-14.75-14.75,6.6167-14.75,14.75c0,4.05597,1.64648,7.73389,4.30493,10.40302,.00708,.00769,.0094,.01776,.01685,.02521Zm10.9585-9.89795l.00146-.00146,.00049-.00049,.00146-.00146,.00342-.00342,.00146-.00146c.09717-.10059,.1626-.22363,.19238-.35449v-.00049l.00049-.00195,.00049-.00244h.00049v-.00195l.00049-.00195,.00049-.00244,.00049-.00195,.00049-.00195,.00098-.00391v-.00049l.00049-.00195,.00049-.00439,.00049-.00049v-.00195l.00049-.00293,.00049-.00146v-.00049l.00049-.00146v-.00049l.00049-.00293,.00049-.00195v-.00098l.00049-.00195v-.00049l.00049-.00195v-.00244c.00684-.0415,.01025-.0835,.00977-.12598v-13.20563c6.95654,.39227,12.5,6.159,12.5,13.21198,0,7.30615-5.94385,13.25-13.25,13.25-3.38354,0-6.46509-1.28564-8.80933-3.38019l9.3396-9.33954Zm-1.28027-13.74225v12.46198h-12.46191c.37817-6.70679,5.75513-12.0838,12.46191-12.46198Zm-1.06055,13.96198l-8.05933,8.05927c-1.93774-2.16882-3.16797-4.97168-3.34204-8.05927h11.40137Z"/></svg>