<?xml version="1.0" encoding="UTF-8"?><svg id="a" xmlns="http://www.w3.org/2000/svg" viewBox="0 0 80 80"><path d="M13.03027,13.92334l-4,4c-.15283,.15234-.23193,.36328-.21826,.5791,.01416,.21533,.12012,.41406,.29102,.54541l25.32324,19.47852-9.16602,9.16602-13.23535-.44238c-.2041-.00195-.40967,.07324-.55664,.2207l-2.43945,2.45312c-.16992,.1709-.24707,.41309-.2085,.65039,.03906,.2373,.18945,.44238,.40479,.5498l11.10474,5.55225c-.75366,1.73267-1.31836,3.13037-1.46558,3.49854-.11133,.27832-.04639,.59668,.16602,.80859,.14355,.14355,.33496,.21973,.53027,.21973,.09375,0,.18848-.01758,.27832-.05371,.36841-.14722,1.76611-.71191,3.49878-1.46558l5.552,11.10425c.10791,.2168,.31348,.36719,.55176,.40527,.03955,.00684,.07959,.00977,.11914,.00977,.19824,0,.39014-.07812,.53174-.2207l2.43945-2.45312c.146-.14648,.22461-.34668,.21777-.55371l-.42871-13.22168,9.18311-9.18262c.48633,.66992,1.29004,1.71484,2.5874,3.40137l16.875,21.9375c.13135,.1709,.33008,.27734,.54541,.29102,.22412,.0127,.42627-.06445,.5791-.21777l4-4c.21826-.21777,.28076-.54785,.15674-.83105l-7.70776-17.61792,3.55103-3.55103c.29297-.29297,.29297-.76758,0-1.06055l-4-4c-.29297-.29297-.76758-.29297-1.06055,0l-1.57068,1.5708-3.00659-6.87256,4.63782-4.6377-.0033-.00342c2.07739-2.07007,4.96619-4.95874,9.00378-8.99609,1.21875-1.21875,2.66553-3.39795,3.6001-5.42285,.87012-1.88477,1.64551-4.39209,.39941-5.6377-1.24658-1.24756-3.75391-.47021-5.63721,.39941-2.0249,.93457-4.20459,2.38184-5.42334,3.60059l-13.63818,13.63721-6.87207-3.00635,1.5708-1.5708c.14062-.14062,.21973-.33105,.21973-.53027s-.0791-.38965-.21973-.53027l-4-3.99951c-.29297-.29297-.76758-.29297-1.06055,0l-3.55103,3.55078L13.86133,13.7666c-.28467-.12402-.61328-.06201-.83105,.15674Zm-2.20654,36.32275l1.47754-1.48535,11.79248,.39404c-1.00452,1.55273-2.17358,3.96143-3.15686,6.14795l-10.11316-5.05664Zm18.94092,18.93848l-5.05383-10.10767c2.18616-.98315,4.59412-2.15186,6.14697-3.15625l.38196,11.78052-1.4751,1.4834Zm27.7959-27.6709l2.93945,2.93945-2.60571,2.60571-1.78918-4.0896,1.45544-1.45557Zm7.10791,24.77148l-3.03418,3.0332c-2.85425-3.70996-16.56543-21.53491-19.07776-24.80078l8.75732-8.75732,13.35461,30.5249ZM46.09082,28.9834l14-13.99951c1.08838-1.08838,3.14111-2.44531,4.99121-3.29932,2.19775-1.01367,3.56641-1.08301,3.94824-.70068,.38232,.38232,.31348,1.75098-.70068,3.94824-.854,1.85059-2.21045,3.90283-3.29883,4.99121,0,0-4.98047,4.98022-9.00024,8.99976l-.00024-.00024-17,17,.00024,.00024-8.00024,7.99976c-1.30029,1.2998-6.74951,3.74902-10.09277,5.15332,1.4043-3.34375,3.85352-8.79297,5.15332-10.09277l8-8,2-2,10-10Zm-10.53027-9.46924l2.93945,2.93896-1.45557,1.45557-4.0896-1.78906,2.60571-2.60547Zm8.69238,9.18604l-8.75696,8.75684L10.69482,18.37988l3.03418-3.03418,30.52393,13.35449Z"/><rect x="24.31791" y="50.70321" width="8.48528" height="1.49984" transform="translate(-28.01766 35.26563) rotate(-45)"/></svg>