<?xml version="1.0" encoding="UTF-8"?><svg id="a" xmlns="http://www.w3.org/2000/svg" viewBox="0 0 80 80"><path d="M30,30.75h20c.41406,0,.75-.33594,.75-.75v-12c0-.41406-.33594-.75-.75-.75H30c-.41406,0-.75,.33594-.75,.75v12c0,.41406,.33594,.75,.75,.75Zm.75-12h18.5v10.5H30.75v-10.5Z"/><path d="M63,51.90918c3.1709,0,5.75-2.39648,5.75-5.3418V17.25h-1.5v6.48633l-3.83594,4.79492c-.10645,.13281-.16406,.29883-.16406,.46875v5c0,.41406,.33594,.75,.75,.75h3.25v11.81738c0,2.11816-1.90625,3.8418-4.25,3.8418s-4.25-1.72363-4.25-3.8418V10c0-.41406-.33594-.75-.75-.75H21.63281c-.41406,0-.75,.33594-.75,.75v59.25H11.69922v1.5h56.60156v-1.5h-9.55078v-19.09717c1.05249,1.07568,2.56543,1.75635,4.25,1.75635Zm1.75-18.65918v-3.9873l2.5-3.125v7.1123h-2.5Zm-7.5,12.56738v23.43262H22.38281V10.75H57.25V45.81738Z"/><rect x="29.25" y="35.25" width="21.5" height="1.5"/></svg>