<?xml version="1.0" encoding="UTF-8"?><svg id="a" xmlns="http://www.w3.org/2000/svg" viewBox="0 0 80 80"><path d="M22.5,56.75H57.5c6.479,0,11.75,5.94385,11.75,13.25h1.5c0-8.1333-5.94385-14.75-13.25-14.75H22.5c-7.30615,0-13.25,6.6167-13.25,14.75h1.5c0-7.30615,5.271-13.25,11.75-13.25Z"/><path d="M23.25,30v6.57129c0,8.9209,7.51416,16.17871,16.75,16.17871s16.75-7.25781,16.75-16.17871V16.75h11.53564v-1.5H11.71436v1.5h5.53564v19.8125h1.5V16.75h4.5v13.25Zm1.5-13.25h30.5v11.89648c-5.68262-3.32227-11.26465-3.21045-15.25488,.32812-2.12695-1.82275-5.06104-2.73389-7.99512-2.73389-2.60498,0-5.20996,.71826-7.25,2.15479v-11.64551Zm0,13.58521c1.7688-1.64166,4.38599-2.58521,7.25-2.58521,2.97998,0,5.70264,1.01318,7.46973,2.78027,.29297,.29297,.76758,.29297,1.06055,0,3.66174-3.66217,9.14331-3.69067,14.71973-.11536v6.15637c0,8.09375-6.84131,14.67871-15.25,14.67871s-15.25-6.58496-15.25-14.67871v-6.23608Z"/></svg>