<?xml version="1.0" encoding="UTF-8"?><svg id="a" xmlns="http://www.w3.org/2000/svg" viewBox="0 0 80 80"><path d="M50.74512,9.4458c-.17529-.23584-.45166-.37451-.74512-.37451H30c-.3999,0-.75439,.25586-.88086,.63525l-10,30c-.09473,.2832-.04688,.59424,.12744,.83643,.1748,.24219,.45508,.38574,.75342,.38574h14.86719l-5.77783,28.88916c-.08496,.4248,.13525,.85205,.53076,1.0293,.12256,.05518,.25146,.08154,.37939,.08154,.28467,0,.56201-.13086,.74219-.37012L60.7417,30.7417c.21094-.2793,.24609-.65381,.0918-.96826-.15479-.31445-.47266-.51514-.82275-.51904l-14.76709-.16895,5.646-18.81836c.08398-.28125,.03076-.58594-.14453-.82129Zm-7.63477,20.28711c-.0835,.27979-.03125,.58203,.1416,.81738,.17236,.23486,.4458,.375,.7373,.37842l14.16406,.16211-26.44385,35.09717,5.20117-26.00586c.05469-.27295-.01611-.55566-.19238-.771-.17627-.21484-.43994-.33984-.71826-.33984h-14.71143L30.66943,10.92871h18.08252l-5.6416,18.8042Z"/></svg>