<?xml version="1.0" encoding="utf-8"?>
<!-- Generator: Adobe Illustrator 26.2.1, SVG Export Plug-In . SVG Version: 6.00 Build 0)  -->
<svg version="1.1" id="a" xmlns="http://www.w3.org/2000/svg" xmlns:xlink="http://www.w3.org/1999/xlink" x="0px" y="0px"
	 viewBox="0 0 64 64" style="enable-background:new 0 0 64 64;" xml:space="preserve">
<g>
	<g>
		<g>
			<path d="M32,10.8L32,10.8c-2.6,0-4.8-2.1-4.7-4.8c0-1.3,0.5-2.5,1.4-3.4s2.1-1.4,3.4-1.4l0,0c2.6,0,4.7,2.1,4.7,4.8
				C36.7,8.6,34.6,10.8,32,10.8z M32,2.8c-0.9,0-1.7,0.3-2.3,0.9c-0.6,0.6-1,1.4-1,2.3c0,1.8,1.5,3.3,3.2,3.3l0,0
				c1.8,0,3.2-1.5,3.2-3.2C35.3,4.2,33.8,2.8,32,2.8L32,2.8z"/>
		</g>
		<g>
			<rect x="31.2" y="10" width="1.5" height="12"/>
		</g>
		<g>
			<path d="M32,62.8L32,62.8c-2.6,0-4.8-2.1-4.8-4.8c0-2.6,2.1-4.7,4.8-4.7l0,0c2.6,0,4.7,2.1,4.7,4.8c0,1.3-0.5,2.5-1.4,3.4
				C34.5,62.3,33.3,62.8,32,62.8z M32,54.8c-1.8,0-3.2,1.5-3.3,3.2c0,1.8,1.5,3.3,3.2,3.3l0,0c0.9,0,1.7-0.3,2.3-0.9l0,0
				c0.6-0.6,1-1.4,1-2.3C35.3,56.2,33.8,54.8,32,54.8L32,54.8z"/>
		</g>
		<g>
			<rect x="31.2" y="38" width="1.5" height="16"/>
		</g>
		<g>
			<rect x="12.2" y="39.7" transform="matrix(0.8589 -0.5121 0.5121 0.8589 -18.3102 14.4529)" width="9.8" height="1.5"/>
		</g>
		<g>
			<rect x="39.3" y="23.4" transform="matrix(0.866 -0.5001 0.5001 0.866 -5.9604 26.0174)" width="12.6" height="1.5"/>
		</g>
		<g>
			<rect x="45.9" y="35.5" transform="matrix(0.5 -0.866 0.866 0.5 -11.7725 60.6644)" width="1.5" height="10"/>
		</g>
		<g>
			<rect x="17.6" y="17.8" transform="matrix(0.5 -0.866 0.866 0.5 -11.707 27.903)" width="1.5" height="12.6"/>
		</g>
		<g>
			<path d="M9.5,49.8c-0.4,0-0.8-0.1-1.2-0.2c-1.2-0.3-2.2-1.1-2.9-2.2c-1.3-2.3-0.5-5.2,1.8-6.5s5.2-0.5,6.5,1.8s0.5,5.2-1.8,6.5
				C11.1,49.5,10.3,49.8,9.5,49.8z M9.5,41.8c-0.5,0-1.1,0.1-1.6,0.4c-1.6,0.9-2.1,2.9-1.2,4.4c0.4,0.8,1.1,1.3,2,1.5
				c0.8,0.2,1.7,0.1,2.5-0.3c1.6-0.9,2.1-2.9,1.2-4.4C11.7,42.3,10.6,41.8,9.5,41.8z"/>
		</g>
		<g>
			<path d="M54.5,23.7c-1.6,0-3.2-0.9-4.1-2.4c-1.3-2.3-0.5-5.2,1.8-6.5c1.1-0.6,2.4-0.8,3.6-0.5c1.2,0.3,2.2,1.1,2.9,2.2
				c0.6,1.1,0.8,2.4,0.5,3.6S58.1,22.3,57,23C56.1,23.5,55.3,23.7,54.5,23.7z M54.5,15.7c-0.6,0-1.1,0.1-1.6,0.4
				c-1.6,0.9-2.1,2.9-1.2,4.4c0.9,1.6,2.9,2.1,4.4,1.2c0.8-0.4,1.3-1.1,1.5-2c0.2-0.8,0.1-1.7-0.3-2.5s-1.1-1.3-2-1.5
				C55.1,15.8,54.8,15.7,54.5,15.7z"/>
		</g>
		<g>
			<path d="M54.5,49.8c-0.8,0-1.6-0.2-2.4-0.6c-1.1-0.6-1.9-1.7-2.2-2.9s-0.2-2.5,0.5-3.6c0.6-1.1,1.7-1.9,2.9-2.2s2.5-0.2,3.6,0.5
				c1.1,0.6,1.9,1.7,2.2,2.9s0.2,2.5-0.5,3.6s-1.7,1.9-2.9,2.2C55.3,49.7,54.9,49.8,54.5,49.8z M54.5,41.7c-0.3,0-0.6,0-0.8,0.1
				c-0.8,0.2-1.5,0.8-2,1.5s-0.6,1.6-0.3,2.5s0.8,1.5,1.5,2c0.8,0.4,1.6,0.6,2.5,0.3c0.8-0.2,1.5-0.8,2-1.5c0.4-0.8,0.6-1.6,0.3-2.5
				c-0.2-0.8-0.8-1.5-1.5-2C55.6,41.9,55.1,41.7,54.5,41.7z"/>
		</g>
		<g>
			<path d="M9.5,23.8c-0.8,0-1.6-0.2-2.4-0.6c-1.1-0.6-1.9-1.7-2.2-2.9c-0.3-1.2-0.2-2.5,0.5-3.6c0.6-1.1,1.7-1.9,2.9-2.2
				s2.5-0.2,3.6,0.5c1.1,0.6,1.9,1.7,2.2,2.9s0.2,2.5-0.5,3.6c-0.6,1.1-1.7,1.9-2.9,2.2C10.3,23.7,9.9,23.8,9.5,23.8z M9.5,15.7
				c-0.3,0-0.6,0-0.8,0.1c-0.8,0.2-1.5,0.8-2,1.5c-0.4,0.8-0.6,1.6-0.3,2.5c0.2,0.8,0.8,1.5,1.5,2c0.8,0.4,1.6,0.6,2.5,0.3
				c0.8-0.2,1.5-0.8,2-1.5c0.4-0.8,0.6-1.6,0.3-2.5c-0.2-0.8-0.8-1.5-1.5-2C10.6,15.9,10.1,15.7,9.5,15.7z"/>
		</g>
		<g>
			<path d="M43.6,38.8H21.3c-3.4,0-6.1-2.7-6.1-6.1s2.7-6.1,6.1-6.1c0.7,0,1.3,0.1,1.9,0.3c1.6-3.4,5-5.6,8.8-5.6
				c4.6,0,8.5,3.2,9.4,7.6c0.7-0.3,1.4-0.5,2.1-0.5c2.9,0,5.2,2.3,5.2,5.2S46.4,38.8,43.6,38.8z M21.3,28.1c-2.5,0-4.6,2.1-4.6,4.6
				s2.1,4.6,4.6,4.6h22.2c2,0,3.7-1.7,3.7-3.7s-1.7-3.7-3.7-3.7c-0.8,0-1.6,0.3-2.2,0.8c-0.2,0.2-0.5,0.2-0.8,0.1s-0.4-0.3-0.4-0.6
				c-0.4-4.2-3.9-7.4-8.1-7.4c-3.4,0-6.5,2.2-7.6,5.4c-0.1,0.2-0.2,0.4-0.4,0.4c-0.2,0.1-0.4,0.1-0.6,0C22.7,28.2,22,28.1,21.3,28.1
				z"/>
		</g>
	</g>
	<g>
		<rect x="10.4" y="10.3" transform="matrix(0.8461 -0.533 0.533 0.8461 -2.8237 12.3026)" width="18.9" height="1.5"/>
	</g>
	<g>
		<rect x="43.2" y="1.6" transform="matrix(0.5296 -0.8482 0.8482 0.5296 11.254 42.4482)" width="1.5" height="18.9"/>
	</g>
	<g>
		<rect x="34.6" y="52.3" transform="matrix(0.8504 -0.5261 0.5261 0.8504 -21.3229 31.0551)" width="18.8" height="1.5"/>
	</g>
	<g>
		<rect x="19.2" y="43.6" transform="matrix(0.5257 -0.8507 0.8507 0.5257 -35.6258 42.0845)" width="1.5" height="18.8"/>
	</g>
	<g>
		<rect x="55.2" y="23" width="1.5" height="18"/>
	</g>
	<g>
		<rect x="7.2" y="23" width="1.5" height="18"/>
	</g>
</g>
</svg>
