<?xml version="1.0" encoding="UTF-8"?><svg id="a" xmlns="http://www.w3.org/2000/svg" viewBox="0 0 80 80"><rect x="14" y="69.25" width="8" height="1.5"/><rect x="52" y="69.25" width="20" height="1.5"/><path d="M48,44.75h10c1.79199,0,3.25,1.45801,3.25,3.25v7.25h-6.25c-.96484,0-1.75,.78516-1.75,1.75v9c0,.96484,.78516,1.75,1.75,1.75h14c.96484,0,1.75-.78516,1.75-1.75v-9c0-.96484-.78516-1.75-1.75-1.75h-6.25v-7.25c0-2.61914-2.13086-4.75-4.75-4.75h-10c-1.79199,0-3.25-1.45801-3.25-3.25v-9.25h9.69434c3.47656,0,6.30566-2.82861,6.30566-6.30566s-2.8291-6.30566-6.30566-6.30566c-.98242,0-1.93555,.23145-2.80762,.67676-1.07227-5.5293-5.88086-9.56543-11.63672-9.56543-4.70703,0-8.97266,2.82227-10.85156,7.09863-.79883-.28711-1.63086-.43213-2.48145-.43213-4.08984,0-7.41699,3.32715-7.41699,7.41699,0,4.08936,3.32715,7.4165,7.41699,7.4165h8.58301v9.25c0,1.79199-1.45801,3.25-3.25,3.25h-10c-2.61914,0-4.75,2.13086-4.75,4.75v7.25h-7.25c-.41406,0-.75,.33594-.75,.75v10c0,.41406,.33594,.75,.75,.75h7.25v2.47217h1.5v-2.47217h7.25c.41406,0,.75-.33594,.75-.75v-10c0-.41406-.33594-.75-.75-.75h-7.25v-7.25c0-1.79199,1.45801-3.25,3.25-3.25h10c2.61914,0,4.75-2.13086,4.75-4.75v-9.25h2.5v24.5h-2.24512c-.96484,0-1.75,.78516-1.75,1.75v12c0,.96484,.78516,1.75,1.75,1.75h6c.96484,0,1.75-.78516,1.75-1.75v-12c0-.96484-.78516-1.75-1.75-1.75h-2.25488V30.75h2.5v9.25c0,2.61914,2.13086,4.75,4.75,4.75Zm21.25,12.25v9c0,.1377-.1123,.25-.25,.25h-14c-.1377,0-.25-.1123-.25-.25v-9c0-.1377,.1123-.25,.25-.25h14c.1377,0,.25,.1123,.25,.25Zm-44,8.25H10.75v-8.5h14.5v8.5Zm18.00488-8.25v12c0,.1377-.1123,.25-.25,.25h-6c-.1377,0-.25-.1123-.25-.25v-12c0-.1377,.1123-.25,.25-.25h6c.1377,0,.25,.1123,.25,.25ZM20.75,23.3335c0-3.2627,2.6543-5.91699,5.91699-5.91699,.88867,0,1.75293,.19971,2.56836,.59375,.19043,.09277,.41309,.09912,.60938,.01953,.19629-.08008,.34961-.23975,.42188-.43945,1.48047-4.09131,5.39258-6.84033,9.7334-6.84033,5.37988,0,9.8125,4.03613,10.31152,9.38818,.02539,.27246,.19727,.50928,.44824,.61816,.25391,.1084,.54199,.07178,.75879-.09521,.8623-.66895,1.87402-1.02246,2.92578-1.02246,2.64941,0,4.80566,2.15576,4.80566,4.80566s-2.15625,4.80566-4.80566,4.80566H26.66699c-3.2627,0-5.91699-2.6543-5.91699-5.9165Z"/></svg>