<?xml version="1.0" encoding="UTF-8"?>
<svg id="art" xmlns="http://www.w3.org/2000/svg" viewBox="0 0 80 80">
  <defs>
    <style>
      .cls-1 {
        fill: #07182d;
      }
    </style>
  </defs>
  <path class="cls-1" d="M59.25,16h1.5c0-1.79,1.46-3.25,3.25-3.25v-1.5c-1.79,0-3.25-1.46-3.25-3.25h-1.5c0,1.79-1.46,3.25-3.25,3.25v1.5c1.79,0,3.25,1.46,3.25,3.25ZM60,10.54c.38.59.87,1.09,1.46,1.46-.59.38-1.09.87-1.46,1.46-.38-.59-.87-1.09-1.46-1.46.59-.38,1.09-.87,1.46-1.46Z"/>
  <path class="cls-1" d="M66.97,12.44h-1.5c0,2.77-2.26,5.03-5.03,5.03v1.5c2.77,0,5.03,2.26,5.03,5.03h1.5c0-2.77,2.25-5.03,5.03-5.03v-1.5c-2.77,0-5.03-2.26-5.03-5.03ZM66.22,20.97c-.62-1.17-1.58-2.13-2.75-2.75,1.17-.62,2.13-1.58,2.75-2.75.62,1.17,1.58,2.13,2.75,2.75-1.17.62-2.13,1.58-2.75,2.75Z"/>
  <rect class="cls-1" x="21.25" y="20.33" width="1.5" height="3.33"/>
  <rect class="cls-1" x="25.25" y="18.67" width="1.5" height="6.67"/>
  <rect class="cls-1" x="29.25" y="17" width="1.5" height="10"/>
  <rect class="cls-1" x="33.25" y="18.67" width="1.5" height="6.67"/>
  <rect class="cls-1" x="37.25" y="20.33" width="1.5" height="3.33"/>
  <path class="cls-1" d="M29.25,29.25l-3.68,10.42,1.41.5,1.21-3.44h3.6l1.21,3.44,1.41-.5-3.68-10.42h-1.49ZM28.73,35.23l1.27-3.59,1.27,3.59h-2.54Z"/>
  <path class="cls-1" d="M64.68,37.25h-16.73v-11.75c0-2.24-1.75-4.06-3.95-4.22v-.03h-3.5v1.5h3.2c1.52,0,2.75,1.23,2.75,2.75v11.75h-5.77c-2.07,0-3.75,1.68-3.75,3.75v1.25h-3.73c-.2,0-.39.08-.53.22l-5.72,5.72v-5.19c0-.41-.34-.75-.75-.75h-10.5c-1.52,0-2.75-1.23-2.75-2.75v-14c0-1.52,1.23-2.75,2.75-2.75h3.5v-1.5h-3.5c-2.34,0-4.25,1.91-4.25,4.25v14c0,2.34,1.91,4.25,4.25,4.25h9.75v6.25c0,.3.18.58.46.69.09.04.19.06.29.06.2,0,.39-.08.53-.22l6.78-6.78h3.42v9.25c0,2.07,1.68,3.75,3.75,3.75h8.69l5.78,5.78c.14.14.33.22.53.22.1,0,.19-.02.29-.06.28-.12.46-.39.46-.69v-5.25h8.25c2.07,0,3.75-1.68,3.75-3.75v-12c0-2.07-1.68-3.75-3.75-3.75ZM66.93,53c0,1.24-1.01,2.25-2.25,2.25h-9c-.41,0-.75.34-.75.75v4.19l-4.72-4.72c-.14-.14-.33-.22-.53-.22h-9c-1.24,0-2.25-1.01-2.25-2.25v-12c0-1.24,1.01-2.25,2.25-2.25h24c1.24,0,2.25,1.01,2.25,2.25v12Z"/>
  <path class="cls-1" d="M53.43,40.2h-1.5v2.85h-4.29v1.5h1.29c.2,2.1,1.13,3.99,2.54,5.41-1.12.69-2.43,1.09-3.83,1.09v1.5c1.87,0,3.61-.59,5.04-1.59,1.43,1,3.16,1.59,5.04,1.59v-1.5c-1.41,0-2.72-.41-3.83-1.09,1.41-1.41,2.34-3.3,2.54-5.41h1.29v-1.5h-4.29v-2.85ZM54.91,44.55c-.2,1.76-1.02,3.32-2.24,4.48-1.22-1.16-2.04-2.72-2.24-4.48h4.47Z"/>
</svg>