<?xml version="1.0" encoding="UTF-8"?><svg id="a" xmlns="http://www.w3.org/2000/svg" viewBox="0 0 80 80"><path d="M8,18.75h3.25V61.25h-3.25v1.5H72v-1.5h-3.25V18.75h3.25v-1.5H8v1.5Zm59.25,42.5h-10.79199c-1.1084-6.84009,2.18237-14.42358,3.83752-16.44873,.55005,.08923,1.0686,.14209,1.5575,.16064-1.29114,1.7063-2.60303,3.85742-2.60303,7.16553h1.5c0-3.37549,1.50439-5.27539,2.95947-7.1123l.13232-.16821c1.35144-.22583,2.4541-.72437,3.4082-1.35254v17.75562Zm0-19.61279c-1.42969,1.13623-3.25525,2.19775-6.5,1.72949v-.95996c1.07849-.70569,4.38745-2.90674,6.5-4.68335v3.91382Zm0-22.88721v16.9458c-.68481,.7002-1.83203,1.60962-3.04407,2.49976l-.19373-.22729c-2.5249-2.95459-3.79248-4.4375-5.28516-10.3584l-1.4541,.36621c1.57861,6.26221,3.00635,7.93311,5.59912,10.9668l.11157,.13098c-.2887,.20361-.56995,.39954-.84253,.58777-4.56531-2.72485-8.10522-7.65442-11.44531-15.94189l-1.3916,.56055c3.32935,8.26025,6.89819,13.3429,11.47632,16.30579-.32971,.2207-.60425,.40247-.80688,.53552-11.72681-6.43311-14.88647-14.23621-17.00439-22.37158h24.28076Zm-25.83276,0c2.12695,8.28442,5.41479,16.87793,17.83276,23.69153v1.27893c-1.94763,2.26123-5.36499,10.26685-4.29468,17.52954H25.04468c1.07031-7.2627-2.34705-15.26831-4.29468-17.52954v-1.27893c12.41797-6.8136,15.70581-15.4071,17.83276-23.69153h2.83447Zm-28.66724,0h24.28076c-2.11792,8.13538-5.27759,15.9386-17.00439,22.37158-.20264-.13306-.47717-.31482-.80688-.53552,4.57812-2.96289,8.14685-8.04553,11.47632-16.30579l-1.3916-.56055c-3.34021,8.2876-6.88013,13.21704-11.44531,15.94189-.27271-.18811-.55396-.38416-.84253-.58765l.11157-.1311c2.59277-3.03369,4.02051-4.70459,5.59912-10.9668l-1.4541-.36621c-1.49268,5.9209-2.76025,7.40381-5.28516,10.3584l-.19385,.22742c-1.21191-.89001-2.35889-1.79944-3.04395-2.49988V18.75Zm0,18.97339c2.11255,1.77661,5.42151,3.97766,6.5,4.68335v.95996c-3.24524,.46924-5.07031-.59399-6.5-1.72961v-3.9137Zm0,5.771c.9541,.62842,2.05688,1.12695,3.40845,1.35278l.13208,.16797c1.45508,1.83691,2.95947,3.73682,2.95947,7.1123h1.5c0-3.30811-1.31189-5.45923-2.60303-7.16553,.48877-.01855,1.00732-.07141,1.55737-.16064,1.65527,2.02515,4.94604,9.60864,3.83765,16.44873H12.75v-17.75562Z"/></svg>