<svg xmlns="http://www.w3.org/2000/svg" viewBox="0 0 80 80"><path d="M30,61.25v1.5c4.30762,0,7.49121-2.1709,9.73047-6.63623l-.66992-.33643.6709.33643.89648-1.7876-1.3418-.67285-.89648,1.7876.001.00036C36.4292,59.35022,33.68555,61.25,30,61.25Z"/><path d="M28,54.75c2.55859,0,3.99219-1.0498,5.47656-4.01123A7.27985,7.27985,0,0,1,47.25,53.99951L48,54h-.75a15.12618,15.12618,0,0,1-3.78027,9.46973l-2,2,1.06054,1.06054L44.5752,64.481A16.25357,16.25357,0,0,0,48.75,54.00049V54a8.78,8.78,0,0,0-16.61426-3.93408C30.77832,52.77344,29.7207,53.25,28,53.25Z"/><path d="M28,58.75c5.999,0,6.98828-2.01611,8.627-5.35645l.42481-.86084a3.25143,3.25143,0,0,1,6.15722,1.4751c.02832,2.73633-1.7207,6.87549-5.62695,9.498a13.83389,13.83389,0,0,1-3.79492,1.7749l.42578,1.43848A15.32325,15.32325,0,0,0,38.418,64.751c4.39258-2.94825,6.32422-7.52784,6.291-10.75a4.75106,4.75106,0,0,0-8.99707-2.14112l-.43164.873C33.71289,55.92773,33.06445,57.25,28,57.25Z"/><path d="M70.75,31.49023a9.096,9.096,0,0,0-9.07031-9.10009A8.85256,8.85256,0,0,0,57.18652,23.605a17.40568,17.40568,0,0,0-33.2539-3.79A10.72927,10.72927,0,0,0,9.25,29.81006a10.5825,10.5825,0,0,0,2.61646,6.99573A10.73512,10.73512,0,0,0,20,54.56445h4v-1.5H20a9.25,9.25,0,0,1,0-18.5,9.15437,9.15437,0,0,1,4.01562.92774.74912.74912,0,0,0,1.03126-.41992,15.9031,15.9031,0,0,1,30.79394,3.91455.75047.75047,0,0,0,1.207.52343A7.48772,7.48772,0,0,1,61.667,37.898a7.58325,7.58325,0,0,1,0,15.1665H56v1.5h5.667a9.07954,9.07954,0,0,0,5.78272-16.08227A9.05938,9.05938,0,0,0,70.75,31.49023Zm-4.60547,6.09766A9.01874,9.01874,0,0,0,61.667,36.398a8.88472,8.88472,0,0,0-4.49023,1.21875,17.404,17.404,0,0,0-33.251-3.80127,10.67087,10.67087,0,0,0-11.001,1.926,9.09529,9.09529,0,0,1-2.1748-5.9314,9.26032,9.26032,0,0,1,9.25-9.25,9.4245,9.4245,0,0,1,4.03027.92871.75033.75033,0,0,0,1.02442-.42236,15.906,15.906,0,0,1,30.79785,3.91406.74991.74991,0,0,0,1.21.51953,7.413,7.413,0,0,1,4.61719-1.60986,7.57955,7.57955,0,0,1,4.46484,13.69775Z"/><path d="M50.73926,62.33057c2.082-4.23975,2.03906-6.4209,2.002-8.33057A12.72818,12.72818,0,0,0,45.833,42.5918a12.41707,12.41707,0,0,0-16.48633,5.04l1.30664.73632a10.92051,10.92051,0,0,1,14.49707-4.44091,11.24164,11.24164,0,0,1,6.09082,10.0874c.03613,1.83935.07324,3.7417-1.84766,7.65478Z"/></svg>