<?xml version="1.0" encoding="UTF-8"?><svg id="a" xmlns="http://www.w3.org/2000/svg" viewBox="0 0 80 80"><path d="M59.41602,23.33838c0-7.38281-5.44873-15.32861-17.41113-15.32861H20.42822v63.98047h25.7417c11.2749,0,17.17432-8.31543,17.17432-16.52979,0-4.77686-1.87012-9.22998-5.26562-12.53906-2.58301-2.51709-5.92383-4.24072-9.84326-5.10645,2.65088-.78467,4.94629-2.10254,6.7915-3.91895,2.83057-2.78613,4.38916-6.53564,4.38916-10.55762Zm-2.38428,20.65723c3.10352,3.02441,4.8125,7.09619,4.8125,11.46484,0,7.23877-4.90527,15.02979-15.67432,15.02979H21.92822v-31.82275h20.07666c6.25391,0,11.44971,1.84229,15.02686,5.32812Zm-15.02686-6.82812H21.92822V9.50977h20.07666c10.93213,0,15.91113,7.16846,15.91113,13.82861,0,3.61719-1.3999,6.98682-3.94141,9.48877-2.88477,2.83936-7.02344,4.34033-11.96973,4.34033Z"/></svg>