<?xml version="1.0" encoding="UTF-8"?>
<svg id="Layer_2" data-name="Layer 2" xmlns="http://www.w3.org/2000/svg" viewBox="0 0 61.5 48.75">
  <g id="DO_NOT_TOUCH_Outlines_" data-name="DO NOT TOUCH (Outlines)">
    <g>
      <path d="m43.08,8.81L25.08.07c-.23-.11-.5-.1-.73.04-.22.14-.35.38-.35.64v48h1.5V15.93l17.48-5.73c.29-.1.49-.36.51-.66.02-.31-.15-.59-.42-.73Zm-17.58,5.54V1.95l15.25,7.4-15.25,5Z"/>
      <path d="m61.06,22.31l-14-6.25c-.23-.1-.5-.08-.71.06s-.34.38-.34.63v32h1.5v-19.5l13.54-5.56c.28-.11.46-.38.46-.68,0-.3-.17-.57-.44-.7Zm-13.56,5.32v-9.72l11.35,5.06-11.35,4.66Z"/>
      <path d="m15.06,22.31L1.06,16.06c-.23-.1-.5-.08-.71.06-.21.14-.34.38-.34.63v32h1.5v-19.5l13.54-5.56c.28-.11.46-.38.46-.68,0-.3-.17-.57-.44-.7ZM1.5,27.63v-9.72l11.35,5.06L1.5,27.63Z"/>
    </g>
  </g>
</svg>