<svg id="DO_NOT_TOUCH_Outlines_" data-name="DO NOT TOUCH (Outlines)" xmlns="http://www.w3.org/2000/svg" viewBox="0 0 80 80"><path d="M67.31,25.86,66,26.55A28.92,28.92,0,0,1,69.25,40,29.28,29.28,0,0,1,40,69.25a29,29,0,0,1-20.6-8.5H26v-1.5H18a.76.76,0,0,0-.75.75v8h1.5V62.22A30.46,30.46,0,0,0,40,70.75,30.76,30.76,0,0,0,67.31,25.86Z"/><path d="M32.2,11.8a29.28,29.28,0,0,1,28.4,7.45H54v1.5h8a.76.76,0,0,0,.75-.75V12h-1.5v5.78A30.76,30.76,0,0,0,31.8,10.36,30.76,30.76,0,0,0,12.69,54.14L14,53.45A28.92,28.92,0,0,1,10.75,40,29.32,29.32,0,0,1,32.2,11.8Z"/><rect x="38" y="39.25" width="8" height="1.5"/><path d="M34.7,39.29a1,1,0,0,0-1.08-.21l-.18.09-.15.12a1,1,0,0,0-.21.33A1,1,0,0,0,33,40a1,1,0,0,0,.29.71l.15.12.18.09a1,1,0,0,0,1.3-1.3A.91.91,0,0,0,34.7,39.29Z"/><rect x="38" y="47.25" width="8" height="1.5"/><path d="M33.44,48.83l.18.09A1,1,0,0,0,34,49a1,1,0,0,0,1-1,1.23,1.23,0,0,0,0-.19.6.6,0,0,0-.06-.19.76.76,0,0,0-.09-.18l-.13-.15a1,1,0,0,0-1.08-.21l-.18.09-.15.12a1.58,1.58,0,0,0-.12.15.76.76,0,0,0-.09.18.6.6,0,0,0-.06.19A1.23,1.23,0,0,0,33,48a1.05,1.05,0,0,0,.29.71Z"/><path d="M30,27.25a.76.76,0,0,0-.75.75V52a.76.76,0,0,0,.75.75H50a.76.76,0,0,0,.75-.75V28a.76.76,0,0,0-.75-.75Zm.75,9.5h18.5v6.5H30.75Zm0-8h18.5v6.5H30.75Zm18.5,22.5H30.75v-6.5h18.5Z"/><rect x="38" y="31.25" width="8" height="1.5"/><path d="M34.7,31.29a1,1,0,0,0-1.08-.21.76.76,0,0,0-.18.09l-.15.12a.93.93,0,0,0-.21.33A1,1,0,0,0,33,32a1.05,1.05,0,0,0,.29.71l.15.12.18.09A1,1,0,0,0,34,33a1,1,0,0,0,1-1,1,1,0,0,0-.08-.38A.83.83,0,0,0,34.7,31.29Z"/><path d="M52,49.25v1.5h6a.76.76,0,0,0,.75-.75V30a.76.76,0,0,0-.75-.75H52v1.5h5.25v18.5Z"/><path d="M28,30.75v-1.5H22a.76.76,0,0,0-.75.75V50a.76.76,0,0,0,.75.75h6v-1.5H22.75V30.75Z"/></svg>