<?xml version="1.0" encoding="UTF-8"?><svg id="a" xmlns="http://www.w3.org/2000/svg" viewBox="0 0 80 80"><path d="M9.25,64c0,1.5166,1.2334,2.75,2.75,2.75h27.25v2.5h-13.25v1.5h28v-1.5h-13.25v-2.5h27.25c1.5166,0,2.75-1.2334,2.75-2.75V30c0-1.5166-1.2334-2.75-2.75-2.75h-2v1.5h2c.68945,0,1.25,.56055,1.25,1.25v27.25H10.75V30c0-.68945,.56055-1.25,1.25-1.25h2v-1.5h-2c-1.5166,0-2.75,1.2334-2.75,2.75v34Zm1.5-5.25h58.5v5.25c0,.68945-.56055,1.25-1.25,1.25H12c-.68945,0-1.25-.56055-1.25-1.25v-5.25Z"/><path d="M62.75,50V10c0-.41406-.33594-.75-.75-.75H18c-.41406,0-.75,.33594-.75,.75V50h1.5V10.75H61.25V50h1.5Z"/><path d="M34,26.75c.41406,0,.75-.33594,.75-.75v-10c0-.41406-.33594-.75-.75-.75h-10c-.41406,0-.75,.33594-.75,.75v10c0,.41406,.33594,.75,.75,.75h10Zm-9.25-10h8.5v8.5h-8.5v-8.5Z"/><rect x="40" y="17.25" width="16" height="1.5"/><rect x="40" y="23.25" width="16" height="1.5"/><path d="M46,42.75h10c.41406,0,.75-.33594,.75-.75v-10c0-.41406-.33594-.75-.75-.75h-10c-.41406,0-.75,.33594-.75,.75v10c0,.41406,.33594,.75,.75,.75Zm.75-10h8.5v8.5h-8.5v-8.5Z"/><rect x="24" y="39.25" width="16" height="1.5"/><rect x="24" y="33.25" width="16" height="1.5"/></svg>