<svg xmlns="http://www.w3.org/2000/svg" viewBox="0 0 80 80"><path d="M61.667,50.75H58v-1.5h3.667a7.58325,7.58325,0,0,0,0-15.1665,7.48766,7.48766,0,0,0-4.61914,1.6123.75047.75047,0,0,1-1.207-.52344,15.9031,15.9031,0,0,0-30.79394-3.91455.7491.7491,0,0,1-1.03126.41992A9.1545,9.1545,0,0,0,20,30.75a9.25,9.25,0,0,0,0,18.5h2v1.5H20a10.75,10.75,0,0,1,0-21.5,10.58906,10.58906,0,0,1,3.92578.751,17.404,17.404,0,0,1,33.251,3.80127A8.88462,8.88462,0,0,1,61.667,32.5835a9.08325,9.08325,0,0,1,0,18.1665Z"/><path d="M34,60.75h-.22266A2.53034,2.53034,0,0,1,31.25,58.22217V45.77783A2.53034,2.53034,0,0,1,33.77734,43.25H46.22266A2.53034,2.53034,0,0,1,48.75,45.77783V46h-1.5v-.22217A1.02871,1.02871,0,0,0,46.22266,44.75H33.77734A1.02871,1.02871,0,0,0,32.75,45.77783V58.22217A1.02871,1.02871,0,0,0,33.77734,59.25H34Z"/><path d="M28,54.69434h-.22266A2.52744,2.52744,0,0,1,25.25,52.17285V39.77148A2.52743,2.52743,0,0,1,27.77734,37.25H40.22266A2.52743,2.52743,0,0,1,42.75,39.77148V40h-1.5v-.22852A1.02549,1.02549,0,0,0,40.22266,38.75H27.77734A1.02549,1.02549,0,0,0,26.75,39.77148V52.17285a1.02549,1.02549,0,0,0,1.02734,1.02149H28Z"/><path d="M52.02051,66.75h-12.041A2.73238,2.73238,0,0,1,37.25,64.021V51.979a2.73238,2.73238,0,0,1,2.72949-2.729h12.041A2.73238,2.73238,0,0,1,54.75,51.979V64.021A2.73238,2.73238,0,0,1,52.02051,66.75Zm-12.041-16A1.23074,1.23074,0,0,0,38.75,51.979V64.021a1.23074,1.23074,0,0,0,1.22949,1.229h12.041A1.23074,1.23074,0,0,0,53.25,64.021V51.979a1.23074,1.23074,0,0,0-1.22949-1.229Z"/></svg>