<?xml version="1.0" encoding="UTF-8"?>
<svg id="art" xmlns="http://www.w3.org/2000/svg" viewBox="0 0 80 80">
  <defs>
    <style>
      .cls-1 {
        fill: #07182d;
      }
    </style>
  </defs>
  <path class="cls-1" d="M68,47.25h-15.25v-9.25c0-3.72-3.03-6.75-6.75-6.75h-12c-3.72,0-6.75,3.03-6.75,6.75v9.25h-15.25c-.41,0-.75.34-.75.75v8c0,.41.34.75.75.75h3.25v15.25c0,.41.34.75.75.75h48c.41,0,.75-.34.75-.75v-15.25h3.25c.41,0,.75-.34.75-.75v-8c0-.41-.34-.75-.75-.75ZM36.75,36c0-1.79,1.46-3.25,3.25-3.25h6c2.89,0,5.25,2.35,5.25,5.25v9.25h-14.5v-11.25ZM28.75,38c0-2.9,2.36-5.25,5.25-5.25h2.55c-.8.85-1.3,1.99-1.3,3.25v11.25h-6.5v-9.25ZM63.25,71.25H16.75v-14.5h46.5v14.5ZM67.25,55.25H12.75v-6.5h54.5v6.5Z"/>
  <path class="cls-1" d="M59.25,16h1.5c0-1.79,1.46-3.25,3.25-3.25v-1.5c-1.79,0-3.25-1.46-3.25-3.25h-1.5c0,1.79-1.46,3.25-3.25,3.25v1.5c1.79,0,3.25,1.46,3.25,3.25ZM60,10.54c.38.59.87,1.09,1.46,1.46-.59.38-1.09.87-1.46,1.46-.38-.59-.87-1.09-1.46-1.46.59-.38,1.09-.87,1.46-1.46Z"/>
  <path class="cls-1" d="M66.97,12.44h-1.5c0,2.77-2.26,5.03-5.03,5.03v1.5c2.77,0,5.03,2.26,5.03,5.03h1.5c0-2.77,2.25-5.03,5.03-5.03v-1.5c-2.77,0-5.03-2.26-5.03-5.03ZM66.22,20.97c-.62-1.17-1.58-2.13-2.75-2.75,1.17-.62,2.13-1.58,2.75-2.75.62,1.17,1.58,2.13,2.75,2.75-1.17.62-2.13,1.58-2.75,2.75Z"/>
  <path class="cls-1" d="M40,28.75c4.83,0,8.75-3.93,8.75-8.75v-8c0-.41-.34-.75-.75-.75h-16c-.41,0-.75.34-.75.75v8c0,4.82,3.92,8.75,8.75,8.75ZM32.75,12.75h14.5v2.5h-14.5v-2.5ZM32.75,16.75h14.5v3.25c0,4-3.25,7.25-7.25,7.25s-7.25-3.25-7.25-7.25v-3.25Z"/>
</svg>