<?xml version="1.0" encoding="UTF-8"?><svg id="a" xmlns="http://www.w3.org/2000/svg" viewBox="0 0 80 80"><path d="M42.57715,48.75h23.42285c.41406,0,.75-.33594,.75-.75V10c0-.41406-.33594-.75-.75-.75h-4c-.41406,0-.75,.33594-.75,.75V43.25H18.75V10c0-.41406-.33594-.75-.75-.75h-4c-.41406,0-.75,.33594-.75,.75V48c0,.41406,.33594,.75,.75,.75h23.25v20.5H8v1.5H72v-1.5h-29.42285v-20.5Zm-1.5-.75v21.25h-2.32715v-21.25c0-.41406-.33594-.75-.75-.75H14.75V10.75h2.5V44c0,.41406,.33594,.75,.75,.75H62c.41406,0,.75-.33594,.75-.75V10.75h2.5V47.25h-23.42285c-.41406,0-.75,.33594-.75,.75Z"/></svg>