<?xml version="1.0" encoding="UTF-8"?>
<svg xmlns="http://www.w3.org/2000/svg" viewBox="0 0 80 80">
  <defs>
    <style>
      .cls-1 {
        letter-spacing: 0em;
      }

      .cls-2 {
        font-family: CiscoSansTTLight, CiscoSansTT;
        font-size: 5px;
      }

      .cls-3 {
        letter-spacing: 0em;
      }
    </style>
  </defs>
  <g id="DO_NOT_TOUCH_Outlines_" data-name="DO NOT TOUCH (Outlines)">
    <g>
      <path d="m48,37.25h-16c-.41,0-.75.34-.75.75v14c0,.41.34.75.75.75h16c.41,0,.75-.34.75-.75v-14c0-.41-.34-.75-.75-.75Zm-.75,1.5v2.5h-14.5v-2.5h14.5Zm-14.5,12.5v-8.5h14.5v8.5h-14.5Z"/>
      <path d="m51.56,32.36c-.74,0-1.47.16-2.14.47-.94-4.4-4.81-7.58-9.42-7.58-3.78,0-7.21,2.24-8.76,5.64-.61-.21-1.25-.31-1.9-.31-3.35,0-6.08,2.73-6.08,6.08,0,1.84.62,3.47,1.74,4.58.99.98,2.34,1.45,3.84,1.48v-1.5c-1.17-.01-2.08-.34-2.79-1.04-.82-.82-1.29-2.1-1.29-3.51,0-2.53,2.06-4.58,4.58-4.58.69,0,1.36.15,1.99.46.19.09.41.1.61.02.2-.08.35-.24.42-.44,1.16-3.21,4.24-5.37,7.65-5.37,4.23,0,7.71,3.17,8.1,7.37.03.27.2.51.45.62.25.11.54.07.76-.1.66-.51,1.44-.79,2.25-.79,2.04,0,3.69,1.66,3.69,3.69s-1.66,3.69-3.69,3.69h-.47v1.5h.47c2.86,0,5.19-2.33,5.19-5.19s-2.33-5.19-5.19-5.19Z"/>
      <path d="m62.75,49.32v-18.65c2.26-.36,4-2.31,4-4.67,0-1.26-.49-2.45-1.39-3.36-.91-.89-2.1-1.39-3.36-1.39-1.48,0-2.86.69-3.75,1.84l-13.79-7.52c.18-.5.28-1.02.29-1.56,0-2.62-2.12-4.75-4.74-4.76h-.01c-1.26,0-2.45.49-3.35,1.38-.9.9-1.4,2.09-1.4,3.36,0,.56.11,1.09.29,1.59l-13.8,7.52c-.12-.16-.24-.32-.38-.46-.9-.9-2.09-1.39-3.36-1.39-2.62,0-4.75,2.13-4.75,4.75,0,2.36,1.74,4.31,4,4.67v18.65c-2.25.37-3.99,2.31-4,4.66,0,1.27.49,2.47,1.38,3.37.9.9,2.09,1.4,3.36,1.4s2.47-.49,3.36-1.38c.15-.15.28-.3.4-.46l13.78,7.51c-.18.5-.28,1.03-.28,1.57,0,1.27.49,2.47,1.38,3.37.9.9,2.09,1.4,3.36,1.4s2.47-.49,3.36-1.38,1.4-2.1,1.4-3.36c0-.55-.1-1.09-.27-1.6l13.77-7.51c.89,1.15,2.27,1.84,3.75,1.84,2.62,0,4.75-2.13,4.75-4.75,0-1.26-.49-2.45-1.39-3.36-.72-.71-1.63-1.16-2.61-1.31Zm-.75-26.57c.86,0,1.68.34,2.3.95.62.62.95,1.44.95,2.3,0,1.79-1.46,3.25-3.25,3.25s-3.25-1.46-3.25-3.25c0-.55.13-1.07.4-1.56.57-1.04,1.66-1.69,2.85-1.69Zm-24.29-11.05c.61-.61,1.43-.95,2.29-.95h0c1.79,0,3.25,1.47,3.24,3.26,0,.87-.34,1.68-.96,2.3-.61.61-1.43.95-2.29.95h0c-1.79,0-3.25-1.47-3.24-3.26,0-.87.34-1.68.96-2.3Zm-22.96,14.3c0-1.79,1.46-3.25,3.25-3.25.87,0,1.68.34,2.3.95.61.61.95,1.43.95,2.3,0,1.79-1.46,3.25-3.25,3.25s-3.25-1.46-3.25-3.25Zm6.1,29.57c-.14.26-.32.51-.56.74-1.21,1.21-3.36,1.22-4.59-.01-.61-.62-.95-1.43-.94-2.3,0-1.81,1.44-3.24,3.26-3.24,1.8,0,3.25,1.47,3.24,3.26,0,.54-.13,1.06-.4,1.55,0,0,0,0,0,0Zm21.44,12.74c-1.21,1.21-3.36,1.22-4.59-.01-.61-.62-.95-1.43-.94-2.31,0-.54.14-1.07.4-1.54.57-1.05,1.67-1.7,2.86-1.7.15,0,.29.01.44.03.06,0,.12.03.18.04.08.02.16.03.24.05.07.02.13.05.19.07.07.02.14.05.21.08.08.04.16.08.25.12.05.02.09.04.14.07.08.05.16.11.24.16.04.03.08.05.12.08.06.05.12.11.18.16.05.04.1.08.14.12.04.04.08.1.12.14.05.06.11.12.16.19.02.03.04.06.06.09.06.09.13.18.18.28.25.47.39,1.01.39,1.57,0,.86-.34,1.68-.96,2.3Zm1.47-5.22c-.1-.13-.21-.25-.32-.37-.01-.01-.02-.02-.03-.04-.14-.14-.29-.27-.44-.39-.05-.04-.1-.07-.15-.11-.11-.08-.22-.16-.33-.23-.06-.04-.13-.07-.19-.11-.11-.06-.22-.12-.33-.17-.07-.03-.14-.06-.21-.09-.12-.05-.23-.09-.35-.12-.07-.02-.14-.04-.21-.06-.13-.03-.26-.06-.4-.08-.06-.01-.12-.03-.19-.03-.2-.03-.4-.04-.6-.04-.2,0-.4.02-.6.04-.06,0-.13.02-.19.03-.13.02-.27.05-.4.08-.07.02-.14.04-.22.06-.12.04-.23.08-.35.12-.07.03-.14.06-.22.09-.11.05-.22.11-.32.16-.07.04-.14.07-.2.11-.11.07-.22.14-.32.22-.05.04-.11.08-.16.12-.15.12-.3.25-.43.39-.02.02-.04.05-.06.07-.1.11-.2.22-.29.34l-13.77-7.51c.18-.51.28-1.04.28-1.58.01-2.36-1.72-4.31-4-4.68v-18.65c2.26-.36,4-2.31,4-4.67,0-.55-.11-1.08-.29-1.59l13.8-7.52c.87,1.12,2.21,1.85,3.73,1.86h.01c1.26,0,2.45-.49,3.35-1.38.15-.15.27-.31.39-.48l13.78,7.52s-.02.09-.03.13c-.06.18-.1.35-.14.53-.01.07-.03.14-.04.21-.04.24-.06.48-.06.73,0,.31.03.62.09.91.02.1.05.19.08.28.05.19.1.39.18.57.04.11.1.21.15.31.08.16.16.32.25.47.07.1.14.2.21.29.1.14.21.27.33.39.08.09.17.17.26.26.12.11.25.22.39.32.1.07.2.14.31.21.14.09.29.17.45.24.11.05.22.11.34.15.17.06.34.11.51.16.12.03.23.07.35.09.04,0,.07.02.11.03v18.62s-.07.02-.11.03c-.12.02-.23.06-.35.09-.17.05-.34.09-.51.16-.12.05-.23.1-.34.15-.15.07-.3.15-.45.24-.11.07-.21.14-.31.21-.14.1-.26.21-.39.32-.09.08-.18.17-.26.26-.12.12-.22.26-.33.39-.07.1-.15.19-.21.29-.1.15-.18.31-.25.47-.05.1-.11.2-.15.31-.07.18-.13.38-.18.57-.03.1-.06.19-.08.28-.06.3-.09.6-.09.91,0,.25.02.49.06.73.01.07.03.14.04.21.04.18.08.36.14.54.01.04.02.08.03.12l-13.76,7.5Zm18.24-5.84c-1.19,0-2.28-.65-2.85-1.69-.26-.49-.4-1.01-.4-1.56,0-1.79,1.46-3.25,3.25-3.25.86,0,1.68.34,2.3.95.62.62.95,1.44.95,2.3,0,1.79-1.46,3.25-3.25,3.25Z"/>
    </g>
  </g>
  <g id="titles">
    <text class="cls-2" transform="translate(0 -8.4)"><tspan x="0" y="0">In</tspan><tspan class="cls-1" x="3.98" y="0">t</tspan><tspan x="5.51" y="0">ersight infrastructu</tspan><tspan class="cls-3" x="48.1" y="0">r</tspan><tspan x="49.79" y="0">e services</tspan></text>
  </g>
</svg>