<?xml version="1.0" encoding="UTF-8"?><svg id="a" xmlns="http://www.w3.org/2000/svg" viewBox="0 0 80 80"><path d="M46.01367,9.25h-12c-.41406,0-.75,.33594-.75,.75v3.25h-9.25c-.41406,0-.75,.33594-.75,.75v3.25h-3.24951c-.41406,0-.75,.33594-.75,.75V61.92993c-.00244,.02417-.01416,.04517-.01416,.07007s.01172,.0459,.01416,.07007v7.92993c0,.41406,.33594,.75,.75,.75H60.01367c.41406,0,.75-.33594,.75-.75V18c0-.41406-.33594-.75-.75-.75h-3.25v-3.25c0-.41406-.33594-.75-.75-.75h-9.25v-3.25c0-.41406-.33594-.75-.75-.75Zm-11.25,1.5h10.5v2.5h-10.5v-2.5Zm-3.5,58.5h-10.49951v-6.5h10.49951v6.5Zm4.14392-6.35791c-.02332,.09668-.04407,.19287-.0614,.29175-.04883,.26904-.08252,.54028-.08252,.81616v5.25h-2.5v-6.5h2.67383c-.01318,.04688-.01819,.09497-.02991,.14209Zm7.85608,6.35791h-6.5v-5.25c0-.18652,.02466-.3667,.05505-.54468,.01355-.07471,.02747-.14917,.04651-.22314,.01733-.07056,.04248-.1377,.06421-.2063,.07312-.22021,.16504-.4375,.28833-.64893l.00098-.00098c.19043-.32788,.43176-.60767,.70483-.84375,.06079-.05151,.11975-.10498,.1842-.15186,.0636-.04736,.12976-.09009,.19641-.13232,.12061-.0752,.24475-.14478,.375-.20386,.03003-.01367,.05811-.03125,.08838-.04395,.16882-.07031,.34644-.1228,.52808-.16431,.0448-.01025,.09009-.0188,.1355-.0271,.1897-.03442,.38306-.05884,.58252-.05884s.39307,.02441,.58276,.05908c.04517,.00806,.09033,.0166,.13501,.02686,.18201,.04126,.35986,.09399,.52905,.16455,.02881,.01221,.05542,.02881,.08386,.04175,.13269,.05981,.25916,.13062,.38171,.20728,.0647,.04102,.12891,.08252,.19067,.12842,.06958,.05078,.13354,.10791,.19873,.16406,.26855,.23413,.50623,.51074,.69409,.83398l.00098,.00098c.12085,.20776,.21118,.42114,.28394,.63745,.02344,.073,.05005,.14478,.06836,.22021,.0188,.07251,.03223,.14575,.04565,.21924,.0304,.17847,.05518,.35913,.05518,.54614v5.25Zm4,0h-2.5v-5.25c0-.27588-.03369-.54712-.08252-.81616-.01733-.09888-.03809-.19531-.06152-.29199-.01172-.04688-.0166-.09497-.02979-.14185h2.67383v6.5Zm12,0h-10.5v-6.5h10.5v6.5Zm0-50.5V61.25h-15.3916c-.0813-.11353-.17529-.21631-.26599-.32227-.03699-.04321-.07031-.08984-.10864-.13159-.10303-.11182-.21179-.21533-.32495-.31714-.0802-.07227-.16443-.13892-.24902-.20557-.15881-.12427-.32275-.23828-.49683-.34204-.12634-.07593-.25476-.14697-.38757-.21069-.09985-.04736-.19824-.09473-.30164-.13525-.22229-.08838-.45081-.15918-.68494-.21313-.06812-.01514-.13684-.02563-.20581-.03809-.27344-.05005-.55078-.08423-.83301-.08423s-.55945,.03418-.83276,.08423c-.06909,.01245-.13806,.02295-.20618,.03833-.23376,.05371-.46204,.12451-.68384,.21265-.10437,.04077-.20374,.08862-.30444,.13647-.13,.0625-.25574,.13232-.37952,.2063-.18018,.10693-.34949,.2251-.51331,.354-.07922,.06274-.1582,.125-.23352,.19263-.11646,.10449-.22827,.21094-.33398,.32617-.02209,.02417-.04102,.05127-.06274,.07593-.10669,.12134-.21399,.2417-.30811,.37329h-15.39111V18.75H59.26367Zm-4-4v2.5H24.76367v-2.5h30.5Z"/><rect x="23.25" y="54" width="1.5" height="4"/><rect x="31.25" y="54" width="1.5" height="4"/><rect x="47.25" y="54" width="1.5" height="4"/><rect x="55.25" y="54" width="1.5" height="4"/><rect x="23.25" y="46" width="1.5" height="4"/><rect x="31.25" y="46" width="1.5" height="4"/><rect x="39.25" y="46" width="1.5" height="4"/><rect x="47.25" y="46" width="1.5" height="4"/><rect x="55.25" y="46" width="1.5" height="4"/><rect x="23.25" y="38" width="1.5" height="4"/><rect x="31.25" y="38" width="1.5" height="4"/><rect x="39.25" y="38" width="1.5" height="4"/><rect x="47.25" y="38" width="1.5" height="4"/><rect x="55.25" y="38" width="1.5" height="4"/><rect x="23.25" y="30" width="1.5" height="4"/><rect x="31.25" y="30" width="1.5" height="4"/><rect x="39.25" y="30" width="1.5" height="4"/><rect x="47.25" y="30" width="1.5" height="4"/><rect x="55.25" y="30" width="1.5" height="4"/><rect x="23.25" y="22" width="1.5" height="4"/><rect x="31.25" y="22" width="1.5" height="4"/><rect x="39.25" y="22" width="1.5" height="4"/><rect x="47.25" y="22" width="1.5" height="4"/><rect x="55.25" y="22" width="1.5" height="4"/><path d="M66.75,70v-3.36719c1.15063-.32861,2-1.37793,2-2.63281,0-1.5166-1.2334-2.75-2.75-2.75s-2.75,1.2334-2.75,2.75c0,1.25488,.84937,2.3042,2,2.63281v3.36719h1.5Zm-2-6c0-.68945,.56055-1.25,1.25-1.25s1.25,.56055,1.25,1.25-.56055,1.25-1.25,1.25-1.25-.56055-1.25-1.25Z"/><path d="M14.75,70v-3.36719c1.15063-.32861,2-1.37793,2-2.63281,0-1.5166-1.2334-2.75-2.75-2.75s-2.75,1.2334-2.75,2.75c0,1.25488,.84937,2.3042,2,2.63281v3.36719h1.5Zm-2-6c0-.68945,.56055-1.25,1.25-1.25s1.25,.56055,1.25,1.25-.56055,1.25-1.25,1.25-1.25-.56055-1.25-1.25Z"/><circle cx="40" cy="56" r="1"/><circle cx="24.00708" cy="66" r="1"/><circle cx="56" cy="66" r="1"/></svg>