<svg id="DO_NOT_TOUCH_Outlines_" data-name="DO NOT TOUCH (Outlines)" xmlns="http://www.w3.org/2000/svg" viewBox="0 0 80 80"><path d="M68,23.32H54.75V17.93a2.68,2.68,0,0,0-2.68-2.68H27.93a2.68,2.68,0,0,0-2.68,2.68v5.39H12a2.75,2.75,0,0,0-2.75,2.75V62A2.75,2.75,0,0,0,12,64.75H68A2.75,2.75,0,0,0,70.75,62V26.07A2.75,2.75,0,0,0,68,23.32ZM26.75,17.93a1.18,1.18,0,0,1,1.18-1.18H52.07a1.18,1.18,0,0,1,1.18,1.18v5.39H26.75ZM69.25,62A1.25,1.25,0,0,1,68,63.25H12A1.25,1.25,0,0,1,10.75,62V26.07a1.19,1.19,0,0,1,.22-.66l0-.05a1.46,1.46,0,0,1,.85-.51h0a1.24,1.24,0,0,1,.27,0h55.7a1.24,1.24,0,0,1,.27,0h0a1.46,1.46,0,0,1,.85.51l0,.05a1.19,1.19,0,0,1,.22.66V62Z"/><path d="M40,29.25a10.79,10.79,0,0,0-7.59,3.07,10.34,10.34,0,0,0,0,14.88.48.48,0,0,0,.11.09A8.27,8.27,0,0,1,35.92,54a.75.75,0,0,0,.75.75h6.66a.75.75,0,0,0,.75-.75,8.27,8.27,0,0,1,3.4-6.71.31.31,0,0,0,.11-.09,10.34,10.34,0,0,0,0-14.88A10.79,10.79,0,0,0,40,29.25Zm6.59,16.83a9.8,9.8,0,0,0-4,7.17H40.75V40.75h2.58v-1.5H36.67v1.5h2.58v12.5H37.39a9.8,9.8,0,0,0-4-7.17,8.84,8.84,0,0,1,0-12.68,9.42,9.42,0,0,1,13.1,0,8.84,8.84,0,0,1,0,12.68Z"/><rect x="36" y="57.25" width="8" height="1.5"/></svg>