<svg xmlns="http://www.w3.org/2000/svg" viewBox="0 0 80 80"><path d="M48.30273,21.35449a17.34979,17.34979,0,0,0-3.87695-1.53711l-.38086,1.45117a15.8419,15.8419,0,0,1,3.541,1.40333Z"/><rect x="35.4043" y="49.25" width="4" height="1.5"/><path d="M40.27148,20.75244l.02344-1.5L40,19.25a17.476,17.476,0,0,0-3.85059.42822l.33008,1.46289A16.01225,16.01225,0,0,1,40,20.75Z"/><path d="M57.29883,34.6875a17.36751,17.36751,0,0,0-.96485-4.05908l-1.40625.52051a15.86719,15.86719,0,0,1,.88086,3.70752Z"/><rect x="51.4043" y="49.25" width="4" height="1.5"/><path d="M20,50.75h3.4043v-1.5H19.99805c-.15137,0-.36621-.00488-.54883-.01562l-.08984,1.49707q.3076.0183.61621.01855Z"/><path d="M21.07617,30.81348l.17774-1.48926a10.76909,10.76909,0,0,0-4.25684.35107l.418,1.44043A9.27691,9.27691,0,0,1,21.07617,30.81348Z"/><path d="M54.42969,26.91846a17.49481,17.49481,0,0,0-2.73047-3.14991l-1.00781,1.11036a16.01265,16.01265,0,0,1,2.49609,2.88037Z"/><path d="M32.22266,21.08447a17.435,17.435,0,0,0-3.47657,2.30323l.97266,1.14257a15.9021,15.9021,0,0,1,3.17578-2.105Z"/><path d="M43.4043,50.75H48.75V50A6.75769,6.75769,0,0,0,42,43.25H38a6.75807,6.75807,0,0,0-6.70581,6H27.4043v1.5H32.75V50A5.25605,5.25605,0,0,1,38,44.75h4a5.24192,5.24192,0,0,1,5.17407,4.5H43.4043Z"/><path d="M25.27734,30.65771a15.87437,15.87437,0,0,1,1.85254-3.3291L25.915,26.44775a17.43574,17.43574,0,0,0-2.02637,3.64356Z"/><path d="M15.23145,49.63721l.666-1.34375A9.251,9.251,0,0,1,12.99414,46.04l-1.13476.98047A10.74,10.74,0,0,0,15.23145,49.63721Z"/><path d="M65.86133,49.72559,65.168,48.39551a7.50111,7.50111,0,0,1-3.501.85449H59.4043v1.5H61.667A9.10885,9.10885,0,0,0,65.86133,49.72559Z"/><path d="M59.7041,32.80371l.332,1.46289a7.53512,7.53512,0,0,1,3.59961.07471l.38867-1.44824A9.03513,9.03513,0,0,0,59.7041,32.80371Z"/><path d="M11.19238,42.83838A9.26175,9.26175,0,0,1,10.75,39.99756q-.00147-.4109.03418-.8125L9.29,39.0542c-.02734.3125-.041.62842-.04.9458a10.75538,10.75538,0,0,0,.51465,3.29736Z"/><path d="M11.82812,35.66309a9.24068,9.24068,0,0,1,2.335-2.83887l-.94727-1.16309A10.7296,10.7296,0,0,0,10.50391,34.959Z"/><path d="M69.10645,46.87939A9.09334,9.09334,0,0,0,70.67188,42.856l-1.48633-.19532a7.59554,7.59554,0,0,1-1.30762,3.35743Z"/><path d="M66.793,36.07861a7.61969,7.61969,0,0,1,2.00293,2.99707l1.41015-.51269a9.12774,9.12774,0,0,0-2.39941-3.58985Z"/><path d="M40,40.75A4.75,4.75,0,1,0,35.25,36,4.7554,4.7554,0,0,0,40,40.75Zm0-8A3.25,3.25,0,1,1,36.75,36,3.25377,3.25377,0,0,1,40,32.75Z"/></svg>