<?xml version="1.0" encoding="UTF-8"?><svg id="a" xmlns="http://www.w3.org/2000/svg" viewBox="0 0 80 80"><path d="M68.75,72v-12c0-1.5166-1.2334-2.75-2.75-2.75h-7.25v-3.25c0-.41406-.33594-.75-.75-.75h-5.25v-3.25c0-7.03027-5.71973-12.75-12.75-12.75H24c-7.03027,0-12.75,5.71973-12.75,12.75v22h1.5v-22c0-6.20312,5.04688-11.25,11.25-11.25h16c6.20312,0,11.25,5.04688,11.25,11.25v3.25h-5.25c-.41406,0-.75,.33594-.75,.75v3.25h-7.25c-1.5166,0-2.75,1.2334-2.75,2.75v12h1.5v-12c0-.68945,.56055-1.25,1.25-1.25h28c.68945,0,1.25,.56055,1.25,1.25v12h1.5Zm-11.5-14.75h-10.5v-2.5h10.5v2.5Z"/><path d="M50,36.75v-1.5c-3.38574,0-5.25-1.7124-5.25-4.82129v-9.28613c0-6.33545-5.95801-11.89258-12.75-11.89258s-12.75,5.55713-12.75,11.89258v9.28613c0,3.10889-1.86426,4.82129-5.25,4.82129v1.5c4.22656,0,6.75-2.36328,6.75-6.32129v-9.28613c0-5.43896,5.3623-10.39258,11.25-10.39258s11.25,4.95361,11.25,10.39258v9.28613c0,3.95801,2.52344,6.32129,6.75,6.32129Z"/><path d="M32.75,14c0-.41406-.33594-.75-.75-.75-4.8252,0-8.75,3.92529-8.75,8.75v4c0,4.82471,3.9248,8.75,8.75,8.75s8.75-3.92529,8.75-8.75v-4c0-.41406-.33594-.75-.75-.75-3.99805,0-7.25-3.25244-7.25-7.25Zm6.5,12c0,3.99756-3.25195,7.25-7.25,7.25s-7.25-3.25244-7.25-7.25v-4c0-3.75635,2.87207-6.85449,6.53516-7.21484,.37598,4.21143,3.74902,7.57324,7.96484,7.93311v3.28174Z"/></svg>