<?xml version="1.0" encoding="UTF-8"?><svg id="a" xmlns="http://www.w3.org/2000/svg" viewBox="0 0 80 80"><path d="M27.25,22c0,7.03027,5.71973,12.75,12.75,12.75s12.75-5.71973,12.75-12.75-5.71973-12.75-12.75-12.75-12.75,5.71973-12.75,12.75Zm24,0c0,6.20312-5.04688,11.25-11.25,11.25s-11.25-5.04688-11.25-11.25,5.04688-11.25,11.25-11.25,11.25,5.04688,11.25,11.25Z"/><path d="M11.25,72h1.5v-13.25h54.5v13.25h1.5v-13.25h3.25v-1.5h-7.25v-5.25c0-7.03027-5.71973-12.75-12.75-12.75h-7.36707c-.32886-1.15063-1.37805-2-2.63293-2h-4c-1.25488,0-2.30408,.84937-2.63293,2h-7.36707c-7.03027,0-12.75,5.71973-12.75,12.75v5.25h-7.25v1.5h3.25v13.25Zm33.5-24v-7.25h7.25c6.20312,0,11.25,5.04688,11.25,11.25v5.25h-22.5v-6.5h1.25c1.5166,0,2.75-1.2334,2.75-2.75Zm-8-8c0-.68945,.56055-1.25,1.25-1.25h4c.68945,0,1.25,.56055,1.25,1.25v8c0,.68945-.56055,1.25-1.25,1.25h-4c-.68945,0-1.25-.56055-1.25-1.25v-8Zm-20,12c0-6.20312,5.04688-11.25,11.25-11.25h7.25v7.25c0,1.5166,1.2334,2.75,2.75,2.75h1.25v6.5H16.75v-5.25Z"/></svg>