<?xml version="1.0" encoding="UTF-8"?><svg id="a" xmlns="http://www.w3.org/2000/svg" viewBox="0 0 80 80"><path d="M40,70.75c12.54395,0,22.75-10.20605,22.75-22.75,0-12.29248-9.80249-22.33301-22-22.73096v-4.72803l11.4873-3.8291c.28809-.09668,.49023-.35742,.51074-.66113,.02051-.30273-.14355-.58887-.41602-.72363l-12-5.91992c-.23438-.11523-.50879-.10156-.72852,.03613-.21973,.13672-.35352,.37793-.35352,.63672v15.18896c-12.19751,.39795-22,10.43848-22,22.73096,0,12.54395,10.20605,22.75,22.75,22.75Zm.75-59.46387l9.28223,4.5791-9.28223,3.09375v-7.67285Zm0,22.83496c7.32422,.39307,13.16699,6.45825,13.16699,13.87891,0,7.67383-6.24316,13.91699-13.91699,13.91699s-13.91699-6.24316-13.91699-13.91699c0-7.42065,5.84277-13.48584,13.16699-13.87891v5.83398c-4.1062,.37988-7.33301,3.84106-7.33301,8.04492,0,4.45703,3.62598,8.08301,8.08301,8.08301s8.08301-3.62598,8.08301-8.08301c0-4.20386-3.22681-7.66504-7.33301-8.04492v-5.83398Zm0,13.87891v-6.53711c3.27759,.37402,5.83301,3.16113,5.83301,6.53711,0,3.62988-2.95312,6.58301-6.58301,6.58301s-6.58301-2.95312-6.58301-6.58301c0-3.37598,2.55542-6.16309,5.83301-6.53711v6.53711h1.5Zm-1.5-21.21191v5.83301c-8.15161,.39502-14.66699,7.1311-14.66699,15.37891,0,8.50098,6.91602,15.41699,15.41699,15.41699s15.41699-6.91602,15.41699-15.41699c0-8.2478-6.51538-14.98389-14.66699-15.37891v-5.83301c11.3689,.39941,20.5,9.74731,20.5,21.21191,0,11.71777-9.53223,21.25-21.25,21.25s-21.25-9.53223-21.25-21.25c0-11.4646,9.1311-20.8125,20.5-21.21191Z"/></svg>