<?xml version="1.0" encoding="UTF-8"?><svg id="a" xmlns="http://www.w3.org/2000/svg" viewBox="0 0 80 80"><path d="M68.01416,58.75c1.5166,0,2.75-1.2334,2.75-2.75V22c0-1.5166-1.2334-2.75-2.75-2.75H12.01416c-1.5166,0-2.75,1.2334-2.75,2.75V56c0,1.5166,1.2334,2.75,2.75,2.75h27.25v2.5h-13.25v1.5h28v-1.5h-13.25v-2.5h27.25Zm-56-1.5c-.68945,0-1.25-.56055-1.25-1.25V22c0-.68945,.56055-1.25,1.25-1.25h56c.68945,0,1.25,.56055,1.25,1.25V56c0,.68945-.56055,1.25-1.25,1.25H12.01416Z"/><rect x="14" y="25.25" width="4" height="1.5"/><rect x="14" y="33.25" width="4" height="1.5"/><rect x="14" y="41.25" width="4" height="1.5"/><rect x="14" y="49.25" width="4" height="1.5"/><path d="M66,23.25h-18c-.41406,0-.75,.33594-.75,.75v28c0,.41406,.33594,.75,.75,.75h18c.41406,0,.75-.33594,.75-.75V24c0-.41406-.33594-.75-.75-.75Zm-.75,28h-16.5v-2.5h16.5v2.5Zm0-4h-16.5v-8.5h16.5v8.5Zm0-10h-16.5v-4.5h16.5v4.5Zm0-6h-16.5v-6.5h16.5v6.5Z"/><path d="M42,23.25H24c-.41406,0-.75,.33594-.75,.75v28c0,.41406,.33594,.75,.75,.75h18c.41406,0,.75-.33594,.75-.75V24c0-.41406-.33594-.75-.75-.75Zm-.75,28H24.75v-6.5h16.5v6.5Zm0-8H24.75v-4.5h16.5v4.5Zm0-6H24.75v-8.5h16.5v8.5Zm0-10H24.75v-2.5h16.5v2.5Z"/></svg>