<?xml version="1.0" encoding="UTF-8"?><svg id="a" xmlns="http://www.w3.org/2000/svg" viewBox="0 0 80 80"><path d="M40,9.25c-8.13281,0-14.75,6.6167-14.75,14.75v6.7005c-4.8905,4.17596-8,10.3797-8,17.2995,0,12.54443,10.20605,22.75,22.75,22.75s22.75-10.20557,22.75-22.75c0-6.9198-3.1095-13.12354-8-17.2995v-6.7005c0-8.1333-6.61719-14.75-14.75-14.75Zm-13.25,14.75c0-7.30615,5.94434-13.25,13.25-13.25s13.25,5.94385,13.25,13.25v5.52441c-3.73462-2.68604-8.30908-4.27441-13.25-4.27441s-9.51538,1.58838-13.25,4.27441v-5.52441Zm34.5,24c0,11.71729-9.53223,21.25-21.25,21.25s-21.25-9.53271-21.25-21.25,9.53223-21.25,21.25-21.25,21.25,9.53271,21.25,21.25Z"/><path d="M31.25,48c0,4.82471,3.9248,8.75,8.75,8.75s8.75-3.92529,8.75-8.75-3.9248-8.75-8.75-8.75-8.75,3.92529-8.75,8.75Zm16,0c0,3.99756-3.25195,7.25-7.25,7.25s-7.25-3.25244-7.25-7.25,3.25195-7.25,7.25-7.25,7.25,3.25244,7.25,7.25Z"/><rect x="39.25" y="44" width="1.5" height="8"/></svg>