<?xml version="1.0" encoding="UTF-8"?><svg id="a" xmlns="http://www.w3.org/2000/svg" viewBox="0 0 80 80"><path d="M64.01367,60.75c2.61914,0,4.75-2.13086,4.75-4.75s-2.13086-4.75-4.75-4.75-4.75,2.13086-4.75,4.75,2.13086,4.75,4.75,4.75Zm0-8c1.79199,0,3.25,1.45801,3.25,3.25s-1.45801,3.25-3.25,3.25-3.25-1.45801-3.25-3.25,1.45801-3.25,3.25-3.25Z"/><path d="M66.7168,63.25h-5.40527c-2.23242,0-4.04785,1.85498-4.04785,4.13525v4.61475h1.5v-4.61475c0-1.45312,1.14258-2.63525,2.54785-2.63525h5.40527c1.4043,0,2.54688,1.18213,2.54688,2.63525v4.61475h1.5v-4.61475c0-2.28027-1.81543-4.13525-4.04688-4.13525Z"/><path d="M48.01367,51.25c-2.61914,0-4.75,2.13086-4.75,4.75s2.13086,4.75,4.75,4.75,4.75-2.13086,4.75-4.75-2.13086-4.75-4.75-4.75Zm0,8c-1.79199,0-3.25-1.45801-3.25-3.25s1.45801-3.25,3.25-3.25,3.25,1.45801,3.25,3.25-1.45801,3.25-3.25,3.25Z"/><path d="M60.12793,50.37598c.41602-.71875,.63574-1.54004,.63574-2.37598,0-2.61914-2.13086-4.75-4.75-4.75s-4.75,2.13086-4.75,4.75c0,.83398,.21973,1.65527,.63574,2.375l1.29883-.75c-.28418-.49219-.43457-1.0542-.43457-1.625,0-1.79199,1.45801-3.25,3.25-3.25s3.25,1.45801,3.25,3.25c0,.57227-.15039,1.13379-.43457,1.62402l1.29883,.75195Z"/><path d="M43.26367,48c0,.57227-.15039,1.13379-.43457,1.62402l1.29883,.75195c.41602-.71875,.63574-1.54004,.63574-2.37598,0-2.61914-2.13086-4.75-4.75-4.75s-4.75,2.13086-4.75,4.75c0,.83398,.21973,1.65527,.63574,2.375l1.29883-.75c-.28418-.49219-.43457-1.0542-.43457-1.625,0-1.79199,1.45801-3.25,3.25-3.25s3.25,1.45801,3.25,3.25Z"/><path d="M24.01367,44.75c1.79199,0,3.25,1.45801,3.25,3.25,0,.57227-.15039,1.13379-.43457,1.62402l1.29883,.75195c.41602-.71875,.63574-1.54004,.63574-2.37598,0-2.61914-2.13086-4.75-4.75-4.75s-4.75,2.13086-4.75,4.75c0,.83398,.21973,1.65527,.63574,2.375l1.29883-.75c-.28418-.49219-.43457-1.0542-.43457-1.625,0-1.79199,1.45801-3.25,3.25-3.25Z"/><path d="M54.76367,72v-4.61475c0-2.28027-1.81543-4.13525-4.04688-4.13525h-5.40527c-2.23242,0-4.04785,1.85498-4.04785,4.13525v4.61475h1.5v-4.61475c0-1.45312,1.14258-2.63525,2.54785-2.63525h5.40527c1.4043,0,2.54688,1.18213,2.54688,2.63525v4.61475h1.5Z"/><path d="M27.26367,56c0,2.61914,2.13086,4.75,4.75,4.75s4.75-2.13086,4.75-4.75-2.13086-4.75-4.75-4.75-4.75,2.13086-4.75,4.75Zm4.75-3.25c1.79199,0,3.25,1.45801,3.25,3.25s-1.45801,3.25-3.25,3.25-3.25-1.45801-3.25-3.25,1.45801-3.25,3.25-3.25Z"/><path d="M38.76367,72v-4.61475c0-2.28027-1.81543-4.13525-4.04688-4.13525h-5.40527c-2.23242,0-4.04785,1.85498-4.04785,4.13525v4.61475h1.5v-4.61475c0-1.45312,1.14258-2.63525,2.54785-2.63525h5.40527c1.4043,0,2.54688,1.18213,2.54688,2.63525v4.61475h1.5Z"/><path d="M11.26367,56c0,2.61914,2.13086,4.75,4.75,4.75s4.75-2.13086,4.75-4.75-2.13086-4.75-4.75-4.75-4.75,2.13086-4.75,4.75Zm4.75-3.25c1.79199,0,3.25,1.45801,3.25,3.25s-1.45801,3.25-3.25,3.25-3.25-1.45801-3.25-3.25,1.45801-3.25,3.25-3.25Z"/><path d="M21.26367,67.38525v4.61475h1.5v-4.61475c0-2.28027-1.81543-4.13525-4.04688-4.13525h-5.40527c-2.23242,0-4.04785,1.85498-4.04785,4.13525v4.61475h1.5v-4.61475c0-1.45312,1.14258-2.63525,2.54785-2.63525h5.40527c1.4043,0,2.54688,1.18213,2.54688,2.63525Z"/><path d="M36.66406,22c0-2.61914-2.13086-4.75-4.75-4.75s-4.75,2.13086-4.75,4.75,2.13086,4.75,4.75,4.75,4.75-2.13086,4.75-4.75Zm-8,0c0-1.79199,1.45801-3.25,3.25-3.25s3.25,1.45801,3.25,3.25-1.45801,3.25-3.25,3.25-3.25-1.45801-3.25-3.25Z"/><path d="M25.16406,33.02246v6.97754h1.5v-6.97754c0-1.25293,1.14258-2.27246,2.54785-2.27246h5.40527c1.4043,0,2.54688,1.01953,2.54688,2.27246v6.97754h1.5v-6.97754c0-2.08008-1.81543-3.77246-4.04688-3.77246h-5.40527c-2.23242,0-4.04785,1.69238-4.04785,3.77246Z"/><path d="M64.76367,32V12c0-1.5166-1.2334-2.75-2.75-2.75H18.01367c-1.5166,0-2.75,1.2334-2.75,2.75v20c0,1.5166,1.2334,2.75,2.75,2.75h4v-1.5h-4c-.68945,0-1.25-.56055-1.25-1.25V12c0-.68945,.56055-1.25,1.25-1.25H62.01367c.68945,0,1.25,.56055,1.25,1.25v20c0,.68945-.56055,1.25-1.25,1.25h-20v1.5h20c1.5166,0,2.75-1.2334,2.75-2.75Z"/></svg>