<?xml version="1.0" encoding="UTF-8"?><svg id="a" xmlns="http://www.w3.org/2000/svg" viewBox="0 0 80 80"><path d="M34,48.75c.11426,0,.22949-.02637,.33496-.0791l16-8c.25488-.12695,.41504-.38672,.41504-.6709s-.16016-.54395-.41504-.6709l-16-8c-.23047-.11523-.50684-.10303-.72949,.03271-.2207,.13672-.35547,.37842-.35547,.63818v16c0,.25977,.13477,.50146,.35547,.63818,.12109,.07422,.25781,.11182,.39453,.11182Zm.75-15.53662l13.57324,6.78662-13.57324,6.78662v-13.57324Z"/><path d="M10,66.75h60c.41406,0,.75-.33594,.75-.75V14c0-.41406-.33594-.75-.75-.75H10c-.41406,0-.75,.33594-.75,.75v52c0,.41406,.33594,.75,.75,.75Zm23.25-1.5h-10.5v-6.5h10.5v6.5Zm12,0h-10.5v-6.5h10.5v6.5Zm12,0h-10.5v-6.5h10.5v6.5Zm12,0h-10.5v-6.5h10.5v6.5ZM58.75,14.75h10.5v6.5h-10.5v-6.5Zm-12,0h10.5v6.5h-10.5v-6.5Zm-12,0h10.5v6.5h-10.5v-6.5Zm-12,0h10.5v6.5h-10.5v-6.5Zm-12,0h10.5v6.5H10.75v-6.5Zm0,8h58.5V57.25H10.75V22.75Zm0,36h10.5v6.5H10.75v-6.5Z"/></svg>