<?xml version="1.0" encoding="utf-8"?>
<!-- Generator: Adobe Illustrator 28.3.0, SVG Export Plug-In . SVG Version: 6.00 Build 0)  -->
<svg version="1.1" xmlns="http://www.w3.org/2000/svg" xmlns:xlink="http://www.w3.org/1999/xlink" x="0px" y="0px"
	 viewBox="0 0 80 80" style="enable-background:new 0 0 80 80;" xml:space="preserve">
<style type="text/css">
	.st0{display:none;}
	.st1{display:inline;opacity:0.75;}
	.st2{fill:#FFFFFF;}
	.st3{display:inline;}
	.st4{fill:none;stroke:#00FFFF;stroke-width:5.000000e-02;stroke-linecap:round;stroke-miterlimit:10;}
	.st5{fill:none;}
	.st6{opacity:0.22;fill:none;stroke:#FF0000;stroke-width:5.000000e-02;stroke-linecap:round;stroke-miterlimit:10;}
	.st7{opacity:0.22;}
	.st8{fill:none;stroke:#FF0000;stroke-width:5.000000e-02;stroke-linecap:round;stroke-miterlimit:10;}
	.st9{fill:none;stroke:currentColor;stroke-width:1.5;stroke-linejoin:round;stroke-miterlimit:10;}
</style>
<g id="border" class="st0">
	<g class="st1">
		<path class="st2" d="M72,8v64H8V8H72 M80,0H0v80h80V0L80,0z"/>
	</g>
</g>
<g id="_x38__grid" class="st0">
	<g class="st3">
		<rect x="8" y="8" class="st4" width="8" height="64"/>
		<rect x="16" y="8" class="st4" width="8" height="64"/>
		<rect x="24" y="8" class="st4" width="8" height="64"/>
		<rect x="32" y="8" class="st4" width="8" height="64"/>
		<rect x="40" y="8" class="st4" width="8" height="64"/>
		<rect x="48" y="8" class="st4" width="8" height="64"/>
		<rect x="56" y="8" class="st4" width="8" height="64"/>
		<rect x="64" y="8" class="st4" width="8" height="64"/>
	</g>
	<g class="st3">
		<rect x="36" y="36" transform="matrix(6.123234e-17 -1 1 6.123234e-17 -28 108)" class="st4" width="8" height="64"/>
		<rect x="36" y="28" transform="matrix(6.123234e-17 -1 1 6.123234e-17 -20 100)" class="st4" width="8" height="64"/>
		<rect x="36" y="20" transform="matrix(6.123234e-17 -1 1 6.123234e-17 -12 92)" class="st4" width="8" height="64"/>
		<rect x="36" y="12" transform="matrix(6.123234e-17 -1 1 6.123234e-17 -4 84)" class="st4" width="8" height="64"/>
		<rect x="36" y="4" transform="matrix(6.123234e-17 -1 1 6.123234e-17 4 76)" class="st4" width="8" height="64"/>
		<rect x="36" y="-4" transform="matrix(6.123234e-17 -1 1 6.123234e-17 12 68)" class="st4" width="8" height="64"/>
		<rect x="36" y="-12" transform="matrix(6.123234e-17 -1 1 6.123234e-17 20 60)" class="st4" width="8" height="64"/>
		<rect x="36" y="-20" transform="matrix(6.123234e-17 -1 1 6.123234e-17 28 52)" class="st4" width="8" height="64"/>
	</g>
</g>
<g id="export_frame" class="st0">
	<g class="st3">
		<rect x="0" class="st5" width="80" height="80"/>
	</g>
</g>
<g id="guide_shapes" class="st0">
	<g class="st3">
		<line class="st6" x1="8" y1="8" x2="72" y2="72"/>
		<line class="st6" x1="72" y1="8" x2="8" y2="72"/>
		<line class="st6" x1="8" y1="40" x2="72" y2="40"/>
		<line class="st6" x1="40" y1="8" x2="40" y2="72"/>
		<rect x="8" y="8" class="st6" width="64" height="64"/>
		<circle class="st6" cx="40" cy="40" r="16"/>
		<circle class="st6" cx="40" cy="40" r="24"/>
		<rect x="24" y="24" class="st6" width="32" height="32"/>
		<circle class="st6" cx="40" cy="40" r="30"/>
		<rect x="12" y="12" class="st6" width="56" height="56"/>
		<line class="st6" x1="40" y1="40" x2="71.9" y2="31.5"/>
		<line class="st6" x1="8.1" y1="48.5" x2="40" y2="40"/>
		<g class="st7">
			<line class="st8" x1="40" y1="40" x2="71.9" y2="48.5"/>
			<line class="st8" x1="8.1" y1="31.5" x2="40" y2="40"/>
		</g>
		<line class="st6" x1="40" y1="40" x2="48.5" y2="71.9"/>
		<line class="st6" x1="31.5" y1="8.1" x2="40" y2="40"/>
		<line class="st6" x1="40" y1="40" x2="31.5" y2="71.9"/>
		<line class="st6" x1="48.5" y1="8.1" x2="40" y2="40"/>
		<g class="st7">
			<line class="st8" x1="40" y1="40" x2="71.9" y2="48.5"/>
			<line class="st8" x1="8.1" y1="31.5" x2="40" y2="40"/>
		</g>
	</g>
</g>
<g id="art">
	<g>
		<path d="M70,64.8H10c-0.4,0-0.8-0.3-0.8-0.8V16c0-0.4,0.3-0.8,0.8-0.8h60c0.4,0,0.8,0.3,0.8,0.8v48C70.8,64.4,70.4,64.8,70,64.8z
			 M10.8,63.2h58.5V16.8H10.8V63.2z"/>
	</g>
	<g>
		<path d="M70,24.8H10c-0.4,0-0.8-0.3-0.8-0.8v-8c0-0.4,0.3-0.8,0.8-0.8h60c0.4,0,0.8,0.3,0.8,0.8v8C70.8,24.4,70.4,24.8,70,24.8z
			 M10.8,23.2h58.5v-6.5H10.8V23.2z"/>
	</g>
	<g>
		<circle cx="16" cy="20" r="1"/>
	</g>
	<g>
		<circle cx="22" cy="20" r="1"/>
	</g>
	<g>
		<circle cx="28" cy="20" r="1"/>
	</g>
	<g>
		<g>
			<g>
				<path d="M40,58.8c-8.1,0-14.8-6.6-14.8-14.8S31.9,29.2,40,29.2S54.8,35.9,54.8,44S48.1,58.8,40,58.8z M40,30.8
					c-7.3,0-13.2,5.9-13.2,13.2S32.7,57.2,40,57.2S53.2,51.3,53.2,44S47.3,30.8,40,30.8z"/>
			</g>
			<g>
				<path d="M30.1,54.6c-0.2,0-0.4-0.1-0.5-0.2s-0.2-0.3-0.2-0.5s0.1-0.4,0.2-0.5l8.6-8.6H26v-1.5h13.2V30h1.5v14c0,0,0,0.1,0,0.1v0
					c0,0,0,0,0,0c0,0,0,0,0,0v0c0,0,0,0,0,0c0,0,0,0,0,0c0,0,0,0,0,0c0,0,0,0,0,0v0c0,0,0,0,0,0v0c0,0,0,0,0,0c0,0,0,0,0,0
					c0,0,0,0,0,0c0,0,0,0,0,0l0,0c0,0,0,0,0,0c0,0,0,0,0,0c0,0,0,0,0,0c0,0,0,0,0,0c0,0,0,0,0,0c0,0,0,0,0,0c0,0,0,0,0,0
					c0,0,0,0,0,0c0,0,0,0,0,0h0c0,0,0,0,0,0l0,0c0,0,0,0,0,0c0,0,0,0,0,0c0,0.1-0.1,0.3-0.2,0.4l0,0c0,0,0,0,0,0c0,0,0,0,0,0
					c0,0,0,0,0,0l0,0c0,0,0,0,0,0l-9.9,9.9C30.5,54.6,30.3,54.6,30.1,54.6z"/>
			</g>
		</g>
	</g>
</g>
</svg>
