<?xml version="1.0" encoding="UTF-8"?><svg id="a" xmlns="http://www.w3.org/2000/svg" viewBox="0 0 80 80"><path d="M69.5918,60.69775c1.54688-2.68066,1.54785-5.88086,0-8.56152l-9.97363-17.27344-1.29883,.75,9.97363,17.27344c1.27637,2.21094,1.27539,4.85059-.00098,7.06104s-3.56152,3.53027-6.11426,3.53027h-18.13574l4.29883-4.29883-1.06055-1.06055-5.5791,5.5791c-.29297,.29297-.29297,.76758,0,1.06055l5.5791,5.5791,1.06055-1.06055-4.29883-4.29883h18.13574c3.09473,0,5.86621-1.6001,7.41406-4.27979Z"/><path d="M17.82227,64.97754h19.94629v-1.5H17.82227c-2.55273,0-4.83789-1.31982-6.11426-3.53027s-1.27734-4.8501-.00098-7.06104l9.06836-15.70563,1.57324,5.87262,1.44922-.38867-2.04199-7.62109c-.10645-.39893-.50977-.63574-.91895-.53027l-7.62109,2.04199,.38867,1.44922,5.87207-1.57361-9.06836,15.70544c-1.54785,2.68066-1.54688,5.88086,0,8.56152,1.54785,2.67969,4.31934,4.27979,7.41406,4.27979Z"/><path d="M33.88477,14.47363c1.27637-2.21045,3.5625-3.53027,6.11523-3.53027s4.83887,1.31982,6.11523,3.53027l9.06738,15.70593-5.87207-1.57361-.38867,1.44922,7.62109,2.04199c.06543,.01709,.13086,.02539,.19434,.02539,.33203,0,.63477-.2207,.72461-.55566l2.04199-7.62109-1.44922-.38867-1.57324,5.87244-9.06738-15.70593c-1.54785-2.68018-4.31934-4.28027-7.41406-4.28027s-5.86621,1.6001-7.41406,4.28027l-9.97266,17.27393,1.29883,.75,9.97266-17.27393Z"/></svg>