<?xml version="1.0" encoding="UTF-8"?><svg id="a" xmlns="http://www.w3.org/2000/svg" viewBox="0 0 80 80"><path d="M40,70.75c16.95557,0,30.75-13.79443,30.75-30.75s-13.79443-30.75-30.75-30.75S9.25,23.04443,9.25,40s13.79443,30.75,30.75,30.75ZM56.75,16.04218c7.55017,5.29468,12.5,14.05658,12.5,23.95782s-4.94983,18.66315-12.5,23.95782v-7.95782c0-4.82471-3.92529-8.75-8.75-8.75-3.99756,0-7.25-3.25244-7.25-7.25s3.25244-7.25,7.25-7.25c4.82471,0,8.75-3.92529,8.75-8.75v-7.95782Zm-17.5-5.27313v5.23096c0,3.99756-3.25244,7.25-7.25,7.25-4.82471,0-8.75,3.92529-8.75,8.75,0,3.99756-3.25244,7.25-7.25,7.25h-5.23096c.39417-15.53217,12.94873-28.08679,28.48096-28.48096ZM10.76904,40.75h5.23096c4.82471,0,8.75-3.92529,8.75-8.75,0-3.99756,3.25244-7.25,7.25-7.25,4.82471,0,8.75-3.92529,8.75-8.75v-5.23096c5.30078,.13452,10.25659,1.67877,14.5,4.2821v8.94885c0,3.99756-3.25244,7.25-7.25,7.25-4.82471,0-8.75,3.92529-8.75,8.75s3.92529,8.75,8.75,8.75c3.99756,0,7.25,3.25244,7.25,7.25v8.94885c-4.44348,2.72614-9.66577,4.30115-15.25,4.30115-1.09888,0-2.18213-.06622-3.25-.18488v-11.06512c0-4.82471-3.92529-8.75-8.75-8.75H12.25757c-.89697-2.68311-1.41333-5.53687-1.48853-8.5Zm17.23096,10c3.99756,0,7.25,3.25244,7.25,7.25v10.85834c-10.24731-1.68115-18.71387-8.70483-22.44446-18.10834h15.19446Z"/></svg>