<?xml version="1.0" encoding="UTF-8"?><svg id="a" xmlns="http://www.w3.org/2000/svg" viewBox="0 0 80 80"><path d="M60.80664,40.7793c5.23535-.27808,8-3.29517,8-8.7793,0-.4458-.36133-.80664-.80664-.80664-3.32642,0-5.74121,1.021-7.19336,2.98779v-13.39502c5.23926-.27637,8-3.2998,8-8.78613,0-.4458-.36133-.80664-.80664-.80664-5.76172,0-8.80664,3.04541-8.80664,8.80664v4.18115c-1.45215-1.9668-3.86694-2.98779-7.19336-2.98779-.44531,0-.80664,.36084-.80664,.80664,0,5.48413,2.76465,8.50122,8,8.7793v16.41406h-18.38672v-6.41406c5.23535-.27808,8-3.29517,8-8.7793,0-.4458-.36133-.80664-.80664-.80664-3.32642,0-5.74121,1.021-7.19336,2.98779v-13.39502c5.23926-.27637,8-3.2998,8-8.78613,0-.4458-.36133-.80664-.80664-.80664-5.76172,0-8.80664,3.04541-8.80664,8.80664v4.18115c-1.45215-1.9668-3.86694-2.98779-7.19336-2.98779-.44531,0-.80664,.36084-.80664,.80664,0,5.48413,2.76465,8.50122,8,8.7793v16.41406H20.80664v-6.41406c5.23535-.27808,8-3.29517,8-8.7793,0-.4458-.36133-.80664-.80664-.80664-3.32642,0-5.74121,1.021-7.19336,2.98779v-13.40186c5.23535-.27808,8-3.29517,8-8.7793,0-.4458-.36133-.80664-.80664-.80664-5.76172,0-8.80664,3.04541-8.80664,8.80664v4.18115c-1.45215-1.9668-3.86694-2.98779-7.19336-2.98779-.44531,0-.80664,.36084-.80664,.80664,0,5.48413,2.76465,8.50122,8,8.7793v16.41406H8v1.61328H72v-1.61328h-11.19336v-6.41406Zm6.36328-7.94922c-.23633,4.06787-2.27148,6.104-6.33984,6.33984,.23633-4.06787,2.27148-6.104,6.33984-6.33984Zm0-20c-.23633,4.06787-2.27148,6.104-6.33984,6.33984,.23633-4.06787,2.27148-6.104,6.33984-6.33984Zm-14.33984,10c4.06836,.23584,6.10352,2.27197,6.33984,6.33984-4.06836-.23584-6.10352-2.27197-6.33984-6.33984Zm-5.66016,10c-.23633,4.06787-2.27148,6.104-6.33984,6.33984,.23633-4.06787,2.27148-6.104,6.33984-6.33984Zm0-20c-.23633,4.06787-2.27148,6.104-6.33984,6.33984,.23633-4.06787,2.27148-6.104,6.33984-6.33984Zm-14.33984,10c4.06836,.23584,6.10352,2.27197,6.33984,6.33984-4.06836-.23584-6.10352-2.27197-6.33984-6.33984Zm-5.66016,10c-.23633,4.06787-2.27148,6.104-6.33984,6.33984,.23633-4.06787,2.27148-6.104,6.33984-6.33984Zm0-20c-.23633,4.06787-2.27148,6.104-6.33984,6.33984,.23633-4.06787,2.27148-6.104,6.33984-6.33984Zm-14.33984,10c4.06836,.23584,6.10352,2.27197,6.33984,6.33984-4.06836-.23584-6.10352-2.27197-6.33984-6.33984Z"/><path d="M8,54.80664h30.39624c-2.30298,1.01953-4.39233,2.50928-6.13989,4.38672H8v1.61328H30.89648c-1.00293,1.3479-1.80029,2.82056-2.40723,4.38672H8v1.61328H27.93799c-.48535,1.67969-.74463,3.41943-.74463,5.19336h1.61328c0-1.97021,.33105-3.89795,.98438-5.73145,.74707-2.11816,1.89062-4.0459,3.40039-5.73096,3.25586-3.64209,7.9248-5.73096,12.80859-5.73096h26v-1.61328H8v1.61328Z"/><path d="M36.90137,65.5957c-1.11719,1.92871-1.70801,4.14355-1.70801,6.4043h1.61328c0-1.97705,.51562-3.91211,1.49121-5.59619,1.99707-3.45215,5.71387-5.59717,9.70215-5.59717h24v-1.61328h-24c-4.5625,0-8.81445,2.45312-11.09863,6.40234Z"/><path d="M43.19336,72h1.61328c0-2.86377,2.33008-5.19336,5.19336-5.19336h22v-1.61328h-22c-3.75293,0-6.80664,3.05322-6.80664,6.80664Z"/></svg>