<?xml version="1.0" encoding="UTF-8"?><svg id="a" xmlns="http://www.w3.org/2000/svg" viewBox="0 0 80 80"><path d="M34,40.69531c.38379,0,.69531-.31104,.69531-.69531v-4c0-.38428-.31152-.69531-.69531-.69531h-3.30469V8h-1.39062v27.30469h-3.30469c-.38379,0-.69531,.31104-.69531,.69531v4c0,.38428,.31152,.69531,.69531,.69531h1.30469v2.60938h-1.30469c-.38379,0-.69531,.31104-.69531,.69531v24c0,1.48633,1.20898,2.69531,2.69531,2.69531h4c1.48633,0,2.69531-1.20898,2.69531-2.69531v-24c0-.38428-.31152-.69531-.69531-.69531h-1.30469v-2.60938h1.30469Zm-.69531,4v23.30469c0,.71924-.58496,1.30469-1.30469,1.30469h-4c-.71973,0-1.30469-.58545-1.30469-1.30469v-23.30469h6.60938Zm-4.60938-1.39062v-2.60938h2.60938v2.60938h-2.60938Zm3.30469-4h-5.30469v-2.60938h6.60938v2.60938h-1.30469Z"/><path d="M50,70.75c2.61914,0,4.75-2.13086,4.75-4.75V29.62915c3.54858-1.75787,6-5.40796,6-9.62915,0-4.27295-2.53223-8.13818-6.4502-9.84766-.23047-.10156-.49902-.07812-.71094,.06006-.21094,.13867-.33887,.37451-.33887,.62744v8.41016h-6.5V10.83984c0-.25293-.12793-.48877-.33887-.62744-.21191-.13818-.47949-.16113-.71094-.06006-3.91797,1.70947-6.4502,5.57471-6.4502,9.84766,0,4.22119,2.45142,7.87128,6,9.62915v36.37085c0,2.61914,2.13086,4.75,4.75,4.75Zm3.25-4.75c0,1.79199-1.45801,3.25-3.25,3.25s-3.25-1.45801-3.25-3.25V30.24512c1.02612,.32623,2.11719,.50488,3.25,.50488s2.22388-.17865,3.25-.50488v35.75488Zm-12.5-46c0-3.2793,1.7334-6.2793,4.5-7.93311v7.93311c0,.41406,.33594,.75,.75,.75h8c.41406,0,.75-.33594,.75-.75v-7.93311c2.7666,1.65381,4.5,4.65381,4.5,7.93311,0,5.10059-4.14941,9.25-9.25,9.25s-9.25-4.14941-9.25-9.25Z"/></svg>