<?xml version="1.0" encoding="UTF-8"?><svg id="a" xmlns="http://www.w3.org/2000/svg" viewBox="0 0 80 80"><path d="M64.04053,31.25l-6.00464-.04565-.00122-.00024h-.09229c-3.76465,0-6.08447-1.3916-8.53955-2.86328-2.5332-1.51953-5.15234-3.09082-9.36816-3.09082-4.22363,0-6.85986,1.5752-9.40918,3.09961-2.45557,1.46777-4.77637,2.85449-8.49951,2.85449h-.08691l-.01025,.00171v-.00171l-6.02881,.0459c-3.33691,0-6.71533,2.31641-6.71533,6.74414,0,4.43555,3.36035,6.75586,6.67969,6.75586h5.5415c2.11304,5.13745,12.94116,10,18.49414,10,5.57764,0,16.44666-4.86182,18.56299-10h5.50781c3.31934,0,6.6792-2.32031,6.6792-6.75586,0-4.42773-3.37842-6.74414-6.70947-6.74414Zm-42.75586,12h-5.32031c-2.49463,0-5.17969-1.64453-5.17969-5.25586,0-3.60352,2.70361-5.24414,5.22119-5.24414l5.27881-.04004v10.54004Zm36,.63867c-1.36328,4.27441-11.69775,9.36133-17.28467,9.36133-5.56006,0-15.85254-5.08691-17.21533-9.36133v-11.19824c3.76074-.15527,6.22412-1.62695,8.61035-3.05371,2.48389-1.48438,4.83008-2.88672,8.63965-2.88672,3.80029,0,6.13037,1.39746,8.59668,2.87695,2.38818,1.43262,4.85156,2.91016,8.65332,3.06445v11.19727Zm6.78613-.63867h-5.28613v-10.54004l5.25,.04004c2.51172,0,5.21533,1.64062,5.21533,5.24414,0,3.61133-2.68457,5.25586-5.1792,5.25586Z"/><path d="M31.55322,32.38867l.89307,1.20508c.03857-.02832,3.89014-2.84375,7.58838-2.84375,3.69434,0,7.47656,2.81152,7.51416,2.83984l.90283-1.19727c-.16992-.12891-4.21436-3.14258-8.41699-3.14258-4.19922,0-8.30859,3.01074-8.48145,3.13867Z"/></svg>