<?xml version="1.0" encoding="UTF-8"?><svg id="a" xmlns="http://www.w3.org/2000/svg" viewBox="0 0 80 80"><path d="M28.76367,65c0-2.06787-1.68262-3.75-3.75-3.75s-3.75,1.68213-3.75,3.75,1.68262,3.75,3.75,3.75,3.75-1.68213,3.75-3.75Zm-6,0c0-1.24072,1.00977-2.25,2.25-2.25s2.25,1.00928,2.25,2.25-1.00977,2.25-2.25,2.25-2.25-1.00928-2.25-2.25Z"/><path d="M62.76367,65c0-2.06787-1.68262-3.75-3.75-3.75s-3.75,1.68213-3.75,3.75,1.68262,3.75,3.75,3.75,3.75-1.68213,3.75-3.75Zm-6,0c0-1.24072,1.00977-2.25,2.25-2.25s2.25,1.00928,2.25,2.25-1.00977,2.25-2.25,2.25-2.25-1.00928-2.25-2.25Z"/><path d="M23.28418,58.17383c.08008,.33789,.38184,.57617,.72949,.57617h40v-1.5H24.60645l-1.10596-4.64502,38.5874-3.85889c.30078-.02979,.55371-.23682,.64258-.52539l8-26c.07031-.22803,.02734-.47559-.11426-.66699-.1416-.19092-.36523-.30371-.60254-.30371h-.00195l-53.93945,.15845-1.3291-5.58228c-.08008-.33789-.38184-.57617-.72949-.57617h-6v1.5h5.40723l9.86328,41.42383ZM68.99707,22.75293l-7.55371,24.55029-38.29346,3.82983-6.7207-28.22583,52.56787-.1543Z"/></svg>