<?xml version="1.0" encoding="UTF-8"?><svg id="a" xmlns="http://www.w3.org/2000/svg" viewBox="0 0 80 80"><path d="M9.25,44c0,.41406,.33594,.75,.75,.75h3.25v23.25h1.5v-23.25H49.25v23.25h1.5v-7.25h14.5v7.25h1.5v-23.25h3.25c.41406,0,.75-.33594,.75-.75v-6c0-.41406-.33594-.75-.75-.75h-5.25v-7.25c0-.41406-.33594-.75-.75-.75h-3.25v-1.25c0-1.79199,1.45801-3.25,3.25-3.25v-1.5c-1.25977,0-2.39893,.50122-3.25,1.30432v-.55432c0-2.61914-2.13086-4.75-4.75-4.75v1.5c1.79199,0,3.25,1.45801,3.25,3.25v5.25h-3.25c-.41406,0-.75,.33594-.75,.75v7.25h-22.5v-2.5h15.25c1.5166,0,2.75-1.2334,2.75-2.75V14c0-1.5166-1.2334-2.75-2.75-2.75H16c-1.5166,0-2.75,1.2334-2.75,2.75v18c0,1.5166,1.2334,2.75,2.75,2.75h15.25v2.5H10c-.41406,0-.75,.33594-.75,.75v6Zm56,15.25h-14.5v-6.5h14.5v6.5Zm0-8h-14.5v-6.5h14.5v6.5Zm-8.5-20.5h6.5v6.5h-6.5v-6.5ZM14.75,14c0-.68945,.56055-1.25,1.25-1.25H48c.68945,0,1.25,.56055,1.25,1.25v15.25H14.75V14Zm1.25,19.25c-.68945,0-1.25-.56055-1.25-1.25v-1.25H49.25v1.25c0,.68945-.56055,1.25-1.25,1.25H16Zm-5.25,5.5h58.5v4.5H10.75v-4.5Z"/><circle cx="58" cy="48" r="1"/><circle cx="58" cy="56" r="1"/><circle cx="58" cy="64" r="1"/></svg>