<?xml version="1.0" encoding="UTF-8"?>
<svg id="DO_NOT_TOUCH_Outlines_" data-name="DO NOT TOUCH (Outlines)" xmlns="http://www.w3.org/2000/svg" viewBox="0 0 80 80">
  <g>
    <rect x="52" y="45.25" width="12" height="1.5"/>
    <path d="m68.8,35.25h-28.05v-17.25c0-.2-.08-.39-.22-.53l-6-6c-.14-.14-.33-.22-.53-.22h-17.71c-.41,0-.75.34-.75.75v33.2c0,.41.34.75.75.75h16.96v12.79c0,1.11.88,2.01,1.95,2.01h16.05v2.5h-7.25v1.5h16v-1.5h-7.25v-2.5h16.05c1.08,0,1.95-.9,1.95-2.01v-21.48c0-1.11-.88-2.01-1.95-2.01ZM34.75,13.81l3.44,3.44h-3.44v-3.44Zm-17.71,30.64V12.75h16.21v5.25c0,.41.34.75.75.75h5.25v16.5h-4.05c-1.08,0-1.95.9-1.95,2.01v7.19h-16.21Zm52.21,14.29c0,.28-.21.51-.45.51h-33.6c-.24,0-.45-.23-.45-.51v-21.48c0-.28.21-.51.45-.51h33.6c.24,0,.45.23.45.51v21.48Z"/>
    <path d="m48,43.25h-8c-.41,0-.75.34-.75.75v8c0,.41.34.75.75.75h8c.41,0,.75-.34.75-.75v-8c0-.41-.34-.75-.75-.75Zm-.75,8h-6.5v-6.5h6.5v6.5Z"/>
    <path d="m28,24.75c.41,0,.75-.34.75-.75v-8c0-.41-.34-.75-.75-.75h-8c-.41,0-.75.34-.75.75v8c0,.41.34.75.75.75h8Zm-7.25-8h6.5v6.5h-6.5v-6.5Z"/>
    <rect x="52" y="49.25" width="12" height="1.5"/>
    <rect x="20" y="27.25" width="16" height="1.5"/>
    <rect x="20" y="31.25" width="16" height="1.5"/>
    <path d="m14.86,53.92l2.61,2.61,1.06-1.06-4-4c-.29-.29-.77-.29-1.06,0l-4,4,1.06,1.06,2.81-2.81c.87,9.53,8.91,17.03,18.66,17.03v-1.5c-8.86,0-16.17-6.72-17.14-15.33Z"/>
    <path d="m65.14,26.08l-2.61-2.61-1.06,1.06,4,4c.15.15.34.22.53.22s.38-.07.53-.22l4-4-1.06-1.06-2.81,2.81c-.87-9.53-8.91-17.03-18.66-17.03v1.5c8.86,0,16.17,6.72,17.14,15.33Z"/>
  </g>
  <g>
    <rect x="52" y="45.25" width="12" height="1.5"/>
    <path d="m68.8,35.25h-28.05v-17.25c0-.2-.08-.39-.22-.53l-6-6c-.14-.14-.33-.22-.53-.22h-17.71c-.41,0-.75.34-.75.75v33.2c0,.41.34.75.75.75h16.96v12.79c0,1.11.88,2.01,1.95,2.01h16.05v2.5h-7.25v1.5h16v-1.5h-7.25v-2.5h16.05c1.08,0,1.95-.9,1.95-2.01v-21.48c0-1.11-.88-2.01-1.95-2.01ZM34.75,13.81l3.44,3.44h-3.44v-3.44Zm-17.71,30.64V12.75h16.21v5.25c0,.41.34.75.75.75h5.25v16.5h-4.05c-1.08,0-1.95.9-1.95,2.01v7.19h-16.21Zm52.21,14.29c0,.28-.21.51-.45.51h-33.6c-.24,0-.45-.23-.45-.51v-21.48c0-.28.21-.51.45-.51h33.6c.24,0,.45.23.45.51v21.48Z"/>
    <path d="m48,43.25h-8c-.41,0-.75.34-.75.75v8c0,.41.34.75.75.75h8c.41,0,.75-.34.75-.75v-8c0-.41-.34-.75-.75-.75Zm-.75,8h-6.5v-6.5h6.5v6.5Z"/>
    <path d="m28,24.75c.41,0,.75-.34.75-.75v-8c0-.41-.34-.75-.75-.75h-8c-.41,0-.75.34-.75.75v8c0,.41.34.75.75.75h8Zm-7.25-8h6.5v6.5h-6.5v-6.5Z"/>
    <rect x="52" y="49.25" width="12" height="1.5"/>
    <rect x="20" y="27.25" width="16" height="1.5"/>
    <rect x="20" y="31.25" width="16" height="1.5"/>
    <path d="m14.86,53.92l2.61,2.61,1.06-1.06-4-4c-.29-.29-.77-.29-1.06,0l-4,4,1.06,1.06,2.81-2.81c.87,9.53,8.91,17.03,18.66,17.03v-1.5c-8.86,0-16.17-6.72-17.14-15.33Z"/>
    <path d="m65.14,26.08l-2.61-2.61-1.06,1.06,4,4c.15.15.34.22.53.22s.38-.07.53-.22l4-4-1.06-1.06-2.81,2.81c-.87-9.53-8.91-17.03-18.66-17.03v1.5c8.86,0,16.17,6.72,17.14,15.33Z"/>
  </g>
</svg>