<?xml version="1.0" encoding="UTF-8"?><svg id="a" xmlns="http://www.w3.org/2000/svg" viewBox="0 0 80 80"><path d="M51.55566,16.36133c-.74414,0-1.46777,.16113-2.13867,.47217-.94238-4.396-4.80566-7.5835-9.41699-7.5835-3.7793,0-7.20801,2.23779-8.76172,5.64209-.61523-.20508-1.25293-.30859-1.90527-.30859-3.35449,0-6.08301,2.729-6.08301,6.08301,0,3.35449,2.72852,6.0835,6.08301,6.0835h22.22266c2.86426,0,5.19434-2.33008,5.19434-5.19434s-2.33008-5.19434-5.19434-5.19434Zm0,8.88867H29.33301c-2.52734,0-4.58301-2.05615-4.58301-4.5835,0-2.52686,2.05566-4.58301,4.58301-4.58301,.68945,0,1.35938,.15479,1.99023,.45947,.19043,.09277,.41309,.09961,.60938,.01953s.34961-.23975,.42188-.43945c1.16309-3.21387,4.23535-5.37305,7.64551-5.37305,4.22559,0,7.70801,3.17041,8.09961,7.37402,.02539,.27295,.19727,.50977,.44824,.61865,.25,.1084,.54102,.07275,.75781-.09521,.66406-.51416,1.44238-.78613,2.25-.78613,2.03711,0,3.69434,1.65723,3.69434,3.69434s-1.65723,3.69434-3.69434,3.69434Z"/><path d="M68.75,40c0-.41406-.33594-.75-.75-.75h-16c-.41406,0-.75,.33594-.75,.75v29.25h-4.5v-21.25c0-.41406-.33594-.75-.75-.75h-12c-.41406,0-.75,.33594-.75,.75v21.25h-4.5v-25.25c0-.41406-.33594-.75-.75-.75H12c-.41406,0-.75,.33594-.75,.75v25.25h-3.25v1.5H72v-1.5h-3.25v-29.25Zm-41.5,29.25H12.75v-24.5h14.5v24.5Zm18,0h-10.5v-20.5h10.5v20.5Zm22,0h-14.5v-28.5h14.5v28.5Z"/><rect x="63.25" y="44" width="1.5" height="4"/><rect x="59.25" y="44" width="1.5" height="4"/><rect x="55.25" y="44" width="1.5" height="4"/><rect x="23.25" y="52" width="1.5" height="4"/><rect x="19.25" y="52" width="1.5" height="4"/><rect x="15.25" y="52" width="1.5" height="4"/><rect x="23.25" y="60" width="1.5" height="4"/><rect x="19.25" y="60" width="1.5" height="4"/><rect x="15.25" y="60" width="1.5" height="4"/><rect x="63.25" y="52" width="1.5" height="4"/><rect x="59.25" y="52" width="1.5" height="4"/><rect x="55.25" y="52" width="1.5" height="4"/><rect x="63.25" y="60" width="1.5" height="4"/><rect x="59.25" y="60" width="1.5" height="4"/><rect x="55.25" y="60" width="1.5" height="4"/><rect x="41.25" y="52" width="1.5" height="4"/><rect x="37.25" y="52" width="1.5" height="4"/><rect x="41.25" y="60" width="1.5" height="4"/><rect x="37.25" y="60" width="1.5" height="4"/><circle cx="20" cy="40" r="1"/><circle cx="24.66455" cy="36.66797" r="1"/><circle cx="29.33423" cy="33.33374" r="1"/><circle cx="40" cy="30" r="1"/><circle cx="40" cy="34.66504" r="1"/><circle cx="34" cy="30" r="1"/><circle cx="46.20776" cy="30" r="1"/><circle cx="60" cy="36" r="1"/><circle cx="55.40747" cy="34.03149" r="1"/><circle cx="50.80518" cy="32.05688" r="1"/><circle cx="40" cy="39.33032" r="1"/><circle cx="40" cy="44" r="1"/></svg>