<?xml version="1.0" encoding="utf-8"?>
<!-- Generator: Adobe Illustrator 27.2.0, SVG Export Plug-In . SVG Version: 6.00 Build 0)  -->
<svg version="1.1" id="Layer_1" xmlns="http://www.w3.org/2000/svg" xmlns:xlink="http://www.w3.org/1999/xlink" x="0px" y="0px"
	 viewBox="0 0 80 80" style="enable-background:new 0 0 80 80;" xml:space="preserve">
<style type="text/css">
	.st0{fill:none;}
</style>
<g id="DO_NOT_TOUCH_Outlines_">
	<g>
		<rect x="26" y="31.2" width="28" height="1.5"/>
		<rect x="26" y="37.2" width="28" height="1.5"/>
		<rect x="26" y="43.2" width="28" height="1.5"/>
		<rect x="26" y="49.2" width="20" height="1.5"/>
		<path d="M72.5,39.5l-4-4c-0.3-0.3-0.8-0.3-1.1,0l-6.7,6.7V24c0-0.2-0.1-0.4-0.2-0.5l-14-14c-0.1-0.1-0.3-0.2-0.5-0.2H20
			c-0.4,0-0.8,0.3-0.8,0.8v60c0,0.4,0.3,0.8,0.8,0.8h40c0.4,0,0.8-0.3,0.8-0.8V52.3l11.8-11.8C72.8,40.2,72.8,39.8,72.5,39.5z
			 M46.8,11.8l11.4,11.4H46.8C46.8,23.2,46.8,11.8,46.8,11.8z M59.2,69.2H20.8V10.8h24.5V24c0,0.4,0.3,0.8,0.8,0.8h13.2v18.9
			L47.5,55.5c-0.1,0.1-0.2,0.3-0.2,0.5v4c0,0.4,0.3,0.8,0.8,0.8h4c0.2,0,0.4-0.1,0.5-0.2l6.7-6.7V69.2z M60.8,50.2l-1.5,1.5
			l-7.6,7.6h-2.9v-2.9l10.5-10.5l1.5-1.5l7.2-7.2l2.9,2.9C70.9,40,60.8,50.2,60.8,50.2z"/>
	</g>
</g>
<g id="export_frame">
	<rect class="st0" width="80" height="80"/>
	<rect class="st0" width="80" height="80"/>
</g>
</svg>
