<?xml version="1.0" encoding="UTF-8"?>
<svg id="DO_NOT_TOUCH_Outlines_" data-name="DO NOT TOUCH (Outlines)" xmlns="http://www.w3.org/2000/svg" viewBox="0 0 80 80">
  <path d="m50,35.25h-5.6l-3.78-5.67c-.14-.21-.37-.33-.62-.33h-20c-.25,0-.49.12-.62.33l-3.78,5.67h-4.85v-10.5h31.75v-1.5H10c-.41,0-.75.34-.75.75v36c0,.41.34.75.75.75h40c.41,0,.75-.34.75-.75v-24c0-.41-.34-.75-.75-.75Zm-29.6-4.5h19.2l3,4.5h-25.2l3-4.5Zm28.85,6v10.5h-4.85l-3.78-5.67c-.14-.21-.37-.33-.62-.33h-20.71c-.27,0-.53.15-.66.39l-3.07,5.61h-4.81v-10.5h38.5Zm-6.65,10.5h-25.33l2.46-4.5h19.87l3,4.5Zm-25.2,12l3-4.5h19.2l3,4.5h-25.2Zm31.85,0h-4.85l-3.78-5.67c-.14-.21-.37-.33-.62-.33h-20c-.25,0-.49.12-.62.33l-3.78,5.67h-4.85v-10.5h38.5v10.5Z"/>
  <path d="m71.03,28.02c-.05-.19-.17-.36-.34-.46l-17.19-10.22c-.23-.14-.52-.14-.75,0l-7.09,4.01c-.23.13-.38.38-.38.65l-.06,8.02c0,.27.14.51.37.65l17.19,10.22c.12.07.25.11.38.11.26,0,.51-.13.65-.37l7.15-12.03c.1-.17.13-.38.08-.57Zm-8.14,11.19l-16.18-9.62.05-7.16,6.34-3.58,16.17,9.62-6.39,10.74Z"/>
  <path d="m50.16,23.54c-.54.13-.87.67-.74,1.21.13.54.67.87,1.21.74.54-.13.87-.67.74-1.21-.13-.54-.67-.87-1.21-.74Z"/>
</svg>