<?xml version="1.0" encoding="UTF-8"?><svg id="a" xmlns="http://www.w3.org/2000/svg" viewBox="0 0 80 80"><path d="M29.25,30v20c0,.41406,.33594,.75,.75,.75h20c.41406,0,.75-.33594,.75-.75V30c0-.41406-.33594-.75-.75-.75H30c-.41406,0-.75,.33594-.75,.75Zm9.5,.75h2.5v6.5h-2.5v-6.5Zm-8,0h6.5v8h5.5v-8h6.5v18.5H30.75V30.75Z"/><path d="M70.53027,39.46973l-4-4-1.06055,1.06055,2.71973,2.71973h-12.18945v1.5h12.18945l-2.71973,2.71973,1.06055,1.06055,4-4c.29297-.29297,.29297-.76758,0-1.06055Z"/><path d="M13.46973,44.53027l1.06055-1.06055-2.71973-2.71973h12.18945v-1.5H11.81055l2.71973-2.71973-1.06055-1.06055-4,4c-.29297,.29297-.29297,.76758,0,1.06055l4,4Z"/><path d="M40.75,24V11.81055l2.71973,2.71973,1.06055-1.06055-4-4c-.29297-.29297-.76758-.29297-1.06055,0l-4,4,1.06055,1.06055,2.71973-2.71973v12.18945h1.5Z"/><path d="M39.25,56v12.18945l-2.71973-2.71973-1.06055,1.06055,4,4c.14648,.14648,.33789,.21973,.53027,.21973s.38379-.07324,.53027-.21973l4-4-1.06055-1.06055-2.71973,2.71973v-12.18945h-1.5Z"/><path d="M56.53027,24.53027l10.71973-10.71973v3.84619h1.5v-5.65674c0-.41406-.33594-.75-.75-.75h-5.65723v1.5h3.84668l-10.71973,10.71973,1.06055,1.06055Z"/><path d="M11.25,62.34326v5.65674c0,.41406,.33594,.75,.75,.75h5.65723v-1.5h-3.84668l10.71973-10.71973-1.06055-1.06055-10.71973,10.71973v-3.84619h-1.5Z"/><path d="M68.75,68v-5.65674h-1.5v3.84619l-10.71973-10.71973-1.06055,1.06055,10.71973,10.71973h-3.84668v1.5h5.65723c.41406,0,.75-.33594,.75-.75Z"/><path d="M17.65723,11.25h-5.65723c-.41406,0-.75,.33594-.75,.75v5.65674h1.5v-3.84619l10.71973,10.71973,1.06055-1.06055L13.81055,12.75h3.84668v-1.5Z"/></svg>