<?xml version="1.0" encoding="UTF-8"?>
<svg id="art" xmlns="http://www.w3.org/2000/svg" viewBox="0 0 80 80">
  <defs>
    <style>
      .cls-1 {
        fill: #07182d;
      }
    </style>
  </defs>
  <rect class="cls-1" x="48" y="29.25" width="8" height="1.5"/>
  <rect class="cls-1" x="48" y="37.25" width="4" height="1.5"/>
  <path class="cls-1" d="M68.53,33.61l-3.86-3.86-1.06,1.06,2.45,2.45h-18.05v1.5h18.33l-2.72,2.72,1.06,1.06,3.86-3.86c.29-.29.29-.77,0-1.06Z"/>
  <path class="cls-1" d="M56,42.04h-11.64v-12.04c0-.41-.34-.75-.75-.75h-11.64v-12.46c0-.41-.34-.75-.75-.75H12c-.41,0-.75.34-.75.75v19.21c0,.41.34.75.75.75h11.64v12.46c0,.41.34.75.75.75h11.64v12.04c0,.41.34.75.75.75h19.21c.41,0,.75-.34.75-.75v-19.21c0-.41-.34-.75-.75-.75ZM12.75,35.25v-17.71h17.71v11.71h-6.07c-.41,0-.75.34-.75.75v5.25h-10.89ZM30.46,30.75v4.5h-5.32v-4.5h5.32ZM25.14,48.46v-11.71h6.07c.41,0,.75-.34.75-.75v-5.25h10.89v11.29h-6.07c-.41,0-.75.34-.75.75v5.67h-10.89ZM42.86,43.54v4.92h-5.32v-4.92h5.32ZM55.25,61.25h-17.71v-11.29h6.07c.41,0,.75-.34.75-.75v-5.67h10.89v17.71Z"/>
  <path class="cls-1" d="M56.75,19h1.5c0-1.52,1.23-2.75,2.75-2.75v-1.5c-1.52,0-2.75-1.23-2.75-2.75h-1.5c0,1.52-1.23,2.75-2.75,2.75v1.5c1.52,0,2.75,1.23,2.75,2.75ZM57.5,14.4c.3.43.67.8,1.1,1.1-.43.3-.8.67-1.1,1.1-.3-.43-.67-.8-1.1-1.1.43-.3.8-.67,1.1-1.1Z"/>
  <path class="cls-1" d="M57.89,20.19v1.5c2.37,0,4.31,1.93,4.31,4.31h1.5c0-2.37,1.93-4.31,4.31-4.31v-1.5c-2.37,0-4.31-1.93-4.31-4.31h-1.5c0,2.37-1.93,4.31-4.31,4.31ZM62.94,18.73c.52.92,1.29,1.69,2.21,2.21-.92.52-1.69,1.29-2.21,2.21-.52-.92-1.29-1.69-2.21-2.21.92-.52,1.69-1.29,2.21-2.21Z"/>
</svg>