<?xml version="1.0" encoding="UTF-8"?><svg id="a" xmlns="http://www.w3.org/2000/svg" viewBox="0 0 80 80"><path d="M44,48.75c2.61914,0,4.75-2.13086,4.75-4.75v-8c0-2.61914-2.13086-4.75-4.75-4.75s-4.75,2.13086-4.75,4.75v8c0,2.61914,2.13086,4.75,4.75,4.75Zm-3.25-12.75c0-1.79199,1.45801-3.25,3.25-3.25s3.25,1.45801,3.25,3.25v8c0,1.79199-1.45801,3.25-3.25,3.25s-3.25-1.45801-3.25-3.25v-8Z"/><path d="M59.25,44c0,2.61914,2.13086,4.75,4.75,4.75s4.75-2.13086,4.75-4.75v-8c0-2.61914-2.13086-4.75-4.75-4.75s-4.75,2.13086-4.75,4.75v8Zm1.5-8c0-1.79199,1.45801-3.25,3.25-3.25s3.25,1.45801,3.25,3.25v8c0,1.79199-1.45801,3.25-3.25,3.25s-3.25-1.45801-3.25-3.25v-8Z"/><path d="M56,47.25h-1.25v-15.25c0-.30322-.18262-.57666-.46289-.69287-.28027-.1167-.60254-.05225-.81738,.1626l-2,2,1.06055,1.06055,.71973-.71973v13.43945h-1.25v1.5h4v-1.5Z"/><path d="M64,69.25v1.5h4v-1.5h-1.25v-15.25c0-.30322-.18262-.57666-.46289-.69287-.28027-.1167-.60254-.05225-.81738,.1626l-2,2,1.06055,1.06055,.71973-.71973v13.43945h-1.25Z"/><path d="M58.28711,53.30713c-.28125-.1167-.60254-.05225-.81738,.1626l-2,2,1.06055,1.06055,.71973-.71973v13.43945h-1.25v1.5h4v-1.5h-1.25v-15.25c0-.30322-.18262-.57666-.46289-.69287Z"/><path d="M12,47.25v1.5h4v-1.5h-1.25v-15.25c0-.30322-.18262-.57666-.46289-.69287s-.60254-.05176-.81738,.1626l-2,2,1.06055,1.06055,.71973-.71973v13.43945h-1.25Z"/><path d="M36,69.25v1.5h4v-1.5h-1.25v-15.25c0-.30322-.18262-.57666-.46289-.69287-.28125-.1167-.60254-.05225-.81738,.1626l-2,2,1.06055,1.06055,.71973-.71973v13.43945h-1.25Z"/><path d="M24,47.25h-1.25v-15.25c0-.30322-.18262-.57666-.46289-.69287-.28027-.1167-.60254-.05225-.81738,.1626l-2,2,1.06055,1.06055,.71973-.71973v13.43945h-1.25v1.5h4v-1.5Z"/><path d="M20.75,22V14c0-2.61914-2.13086-4.75-4.75-4.75s-4.75,2.13086-4.75,4.75v8c0,2.61914,2.13086,4.75,4.75,4.75s4.75-2.13086,4.75-4.75Zm-8,0V14c0-1.79199,1.45801-3.25,3.25-3.25s3.25,1.45801,3.25,3.25v8c0,1.79199-1.45801,3.25-3.25,3.25s-3.25-1.45801-3.25-3.25Z"/><path d="M11.25,66c0,2.61914,2.13086,4.75,4.75,4.75s4.75-2.13086,4.75-4.75v-8c0-2.61914-2.13086-4.75-4.75-4.75s-4.75,2.13086-4.75,4.75v8Zm1.5-8c0-1.79199,1.45801-3.25,3.25-3.25s3.25,1.45801,3.25,3.25v8c0,1.79199-1.45801,3.25-3.25,3.25s-3.25-1.45801-3.25-3.25v-8Z"/><path d="M28,70.75c2.61914,0,4.75-2.13086,4.75-4.75v-8c0-2.61914-2.13086-4.75-4.75-4.75s-4.75,2.13086-4.75,4.75v8c0,2.61914,2.13086,4.75,4.75,4.75Zm-3.25-12.75c0-1.79199,1.45801-3.25,3.25-3.25s3.25,1.45801,3.25,3.25v8c0,1.79199-1.45801,3.25-3.25,3.25s-3.25-1.45801-3.25-3.25v-8Z"/><path d="M36,26.75c2.61914,0,4.75-2.13086,4.75-4.75V14c0-2.61914-2.13086-4.75-4.75-4.75s-4.75,2.13086-4.75,4.75v8c0,2.61914,2.13086,4.75,4.75,4.75Zm-3.25-12.75c0-1.79199,1.45801-3.25,3.25-3.25s3.25,1.45801,3.25,3.25v8c0,1.79199-1.45801,3.25-3.25,3.25s-3.25-1.45801-3.25-3.25V14Z"/><path d="M48,70.75c2.61914,0,4.75-2.13086,4.75-4.75v-8c0-2.61914-2.13086-4.75-4.75-4.75s-4.75,2.13086-4.75,4.75v8c0,2.61914,2.13086,4.75,4.75,4.75Zm-3.25-12.75c0-1.79199,1.45801-3.25,3.25-3.25s3.25,1.45801,3.25,3.25v8c0,1.79199-1.45801,3.25-3.25,3.25s-3.25-1.45801-3.25-3.25v-8Z"/><path d="M36.75,44v-8c0-2.61914-2.13086-4.75-4.75-4.75s-4.75,2.13086-4.75,4.75v8c0,2.61914,2.13086,4.75,4.75,4.75s4.75-2.13086,4.75-4.75Zm-1.5,0c0,1.79199-1.45801,3.25-3.25,3.25s-3.25-1.45801-3.25-3.25v-8c0-1.79199,1.45801-3.25,3.25-3.25s3.25,1.45801,3.25,3.25v8Z"/><path d="M64,26.75c2.61914,0,4.75-2.13086,4.75-4.75V14c0-2.61914-2.13086-4.75-4.75-4.75s-4.75,2.13086-4.75,4.75v8c0,2.61914,2.13086,4.75,4.75,4.75Zm-3.25-12.75c0-1.79199,1.45801-3.25,3.25-3.25s3.25,1.45801,3.25,3.25v8c0,1.79199-1.45801,3.25-3.25,3.25s-3.25-1.45801-3.25-3.25V14Z"/><path d="M26.28711,9.30713c-.28027-.11621-.60254-.05176-.81738,.1626l-2,2,1.06055,1.06055,.71973-.71973v13.43945h-1.25v1.5h4v-1.5h-1.25V10c0-.30322-.18262-.57666-.46289-.69287Z"/><path d="M54.28711,9.30713c-.28027-.11621-.60254-.05176-.81738,.1626l-2,2,1.06055,1.06055,.71973-.71973v13.43945h-1.25v1.5h4v-1.5h-1.25V10c0-.30322-.18262-.57666-.46289-.69287Z"/><path d="M46.28711,9.30713c-.28027-.11621-.60254-.05176-.81738,.1626l-2,2,1.06055,1.06055,.71973-.71973v13.43945h-1.25v1.5h4v-1.5h-1.25V10c0-.30322-.18262-.57666-.46289-.69287Z"/></svg>