<?xml version="1.0" encoding="UTF-8"?><svg id="a" xmlns="http://www.w3.org/2000/svg" viewBox="0 0 80 80"><path d="M62,27.25h-9.25v-6.5h3.25c.41406,0,.75-.33594,.75-.75v-6c0-.41406-.33594-.75-.75-.75h-1.25v-3.25h-1.5v3.25h-2.5v-3.25h-1.5v3.25h-1.25c-.41406,0-.75,.33594-.75,.75v6c0,.41406,.33594,.75,.75,.75h3.25v6.5h-6.5V10c0-.41406-.33594-.75-.75-.75H24c-.41406,0-.75,.33594-.75,.75V27.25h-5.25c-.41406,0-.75,.33594-.75,.75v4c0,.41406,.33594,.75,.75,.75h2.10254c.66504,0,1.21289,.51953,1.24805,1.18359l1.90039,36.10547c.02148,.39844,.35059,.71094,.74902,.71094H56c.39844,0,.72754-.3125,.74902-.71094l1.90039-36.10547c.03516-.66406,.58301-1.18359,1.24805-1.18359h2.10254c.41406,0,.75-.33594,.75-.75v-4c0-.41406-.33594-.75-.75-.75Zm-13.25-12.5h6.5v4.5h-6.5v-4.5Zm-24-4h8.5v7.25h1.5v-7.25h8.5V27.25H24.75V10.75ZM61.25,31.25h-1.35254c-1.46289,0-2.66895,1.14453-2.74609,2.60547l-1.86328,35.39453H24.71191l-1.86328-35.39453c-.07715-1.46094-1.2832-2.60547-2.74609-2.60547h-1.35254v-2.5H61.25v2.5Z"/><path d="M40,59.25c-2.38696,0-4.60645-.90356-6.3064-2.5h4.3064v-1.5h-6c-.41406,0-.75,.33594-.75,.75v6h1.5v-4.08179c1.96533,1.80933,4.51318,2.83179,7.25,2.83179,5.92773,0,10.75-4.82227,10.75-10.75,0-.7207-.07227-1.44336-.21484-2.14844l-1.4707,.29688c.12305,.60742,.18555,1.23047,.18555,1.85156,0,5.10059-4.14941,9.25-9.25,9.25Z"/><path d="M40,39.25c-5.92773,0-10.75,4.82227-10.75,10.75,0,.7207,.07227,1.44336,.21484,2.14844l1.4707-.29688c-.12305-.60742-.18555-1.23047-.18555-1.85156,0-5.10059,4.14941-9.25,9.25-9.25,2.38721,0,4.60693,.90381,6.3064,2.5h-4.3064v1.5h6c.41406,0,.75-.33594,.75-.75v-6h-1.5v4.0813c-1.96484-1.80933-4.51294-2.8313-7.25-2.8313Z"/></svg>