<?xml version="1.0" encoding="UTF-8"?><svg id="a" xmlns="http://www.w3.org/2000/svg" viewBox="0 0 80 80"><path d="M24,40.75c.19238,0,.38379-.07324,.53027-.21973l8-8-1.06055-1.06055-7.46973,7.46973-3.46973-3.46973-1.06055,1.06055,4,4c.14648,.14648,.33789,.21973,.53027,.21973Z"/><path d="M70,19.25H10c-.41406,0-.75,.33594-.75,.75V60c0,.41406,.33594,.75,.75,.75h60c.41406,0,.75-.33594,.75-.75V20c0-.41406-.33594-.75-.75-.75Zm-.75,40H10.75V20.75h58.5V59.25Z"/><path d="M19.25,44.35516v9.64484c0,.27637,.15234,.53076,.39648,.66113,.24219,.13086,.54004,.11572,.76953-.03711l5.58398-3.72266,5.58398,3.72266c.12598,.0835,.27051,.12598,.41602,.12598,.12109,0,.24316-.0293,.35352-.08887,.24414-.13037,.39648-.38477,.39648-.66113v-9.64484c2.43677-1.97235,4-4.98315,4-8.35516,0-5.92773-4.82227-10.75-10.75-10.75s-10.75,4.82227-10.75,10.75c0,3.37201,1.56323,6.38281,4,8.35516Zm12,8.24347l-4.83398-3.22266c-.25195-.16797-.58008-.16797-.83203,0l-4.83398,3.22266v-7.22705c1.5542,.87427,3.34326,1.37842,5.25,1.37842s3.6958-.50415,5.25-1.37842v7.22705Zm-5.25-25.84863c5.10059,0,9.25,4.14941,9.25,9.25s-4.14941,9.25-9.25,9.25-9.25-4.14941-9.25-9.25,4.14941-9.25,9.25-9.25Z"/><rect x="42" y="31.25" width="22" height="1.5"/><rect x="42" y="39.25" width="22" height="1.5"/><rect x="42" y="47.25" width="14" height="1.5"/></svg>