<?xml version="1.0" encoding="UTF-8"?><svg id="a" xmlns="http://www.w3.org/2000/svg" viewBox="0 0 80 80"><path d="M23.23926,40.00537c0,9.23877,7.5166,16.75488,16.75586,16.75488,9.23828,0,16.75488-7.51611,16.75488-16.75488s-7.5166-16.75537-16.75488-16.75537c-9.23926,0-16.75586,7.5166-16.75586,16.75537Zm22.72778,14.03491c1.26343-1.33887,2.28833-3.14062,3.03394-5.29028h3.47437c-1.62769,2.31592-3.87524,4.16553-6.5083,5.29028Zm7.44897-6.79028h-3.95679c.51733-1.94482,.81738-4.12744,.87085-6.49463h4.88184c-.1145,2.33936-.73999,4.54639-1.7959,6.49463Zm1.7959-7.99463h-4.88159c-.05298-2.37158-.35376-4.55811-.87256-6.50537h3.95312c1.05933,1.95068,1.68628,4.16187,1.80103,6.50537Zm-2.74438-8.00537h-3.46875c-.74487-2.14453-1.76855-3.94238-3.02979-5.27905,2.62817,1.12329,4.87183,2.96851,6.49854,5.27905Zm-11.72241-6.44116c2.85742,.35913,5.21704,2.74976,6.63867,6.44116h-6.63867v-6.44116Zm0,7.94116h7.13892c.56128,1.92163,.88892,4.1189,.94678,6.50537h-8.08569v-6.50537Zm0,8.00537h8.08545c-.05859,2.38208-.38525,4.57568-.94482,6.49463h-7.14062v-6.49463Zm0,7.99463h6.64136c-1.42114,3.69727-3.78198,6.0918-6.64136,6.45142v-6.45142Zm-14.16675-16h3.9541c-.5188,1.94727-.81958,4.13379-.87256,6.50537h-4.88257c.11475-2.34351,.7417-4.55469,1.80103-6.50537Zm-1.80103,8.00537h4.88281c.05347,2.36719,.35352,4.5498,.87085,6.49463h-3.95776c-1.05591-1.94824-1.6814-4.15527-1.7959-6.49463Zm2.73657,7.99463h3.47534c.74561,2.1499,1.77075,3.9519,3.03442,5.29077-2.63379-1.12476-4.88159-2.97437-6.50977-5.29077Zm11.7312,6.45142c-2.85938-.35962-5.22021-2.75415-6.64136-6.45142h6.64136v6.45142Zm0-7.95142h-7.14062c-.55957-1.91895-.88623-4.11255-.94482-6.49463h8.08545v6.49463Zm0-7.99463h-8.08569c.05786-2.38647,.3855-4.58374,.94678-6.50537h7.13892v6.50537Zm0-14.44653v6.44116h-6.63867c1.42163-3.69141,3.78125-6.08203,6.63867-6.44116Zm-5.22363,1.16162c-1.26123,1.33667-2.28516,3.13477-3.03003,5.27954h-3.46948c1.62695-2.31079,3.87085-4.15625,6.49951-5.27954Z"/><path d="M36,61.25c-.41406,0-.75,.33594-.75,.75v8c0,.41406,.33594,.75,.75,.75h8c.41406,0,.75-.33594,.75-.75v-8c0-.41406-.33594-.75-.75-.75h-8Zm7.25,8h-6.5v-6.5h2.5v3.25h1.5v-3.25h2.5v6.5Z"/><path d="M44,18.75c.41406,0,.75-.33594,.75-.75V10c0-.41406-.33594-.75-.75-.75h-8c-.41406,0-.75,.33594-.75,.75v8c0,.41406,.33594,.75,.75,.75h8Zm-7.25-8h6.5v2.5h-6.5v-2.5Zm0,4h6.5v2.5h-6.5v-2.5Z"/><circle cx="30" cy="16" r="1"/><circle cx="50" cy="16" r="1"/><circle cx="22" cy="22" r="1"/><circle cx="16" cy="30" r="1"/><circle cx="64" cy="30" r="1"/><circle cx="14" cy="40" r="1"/><circle cx="16" cy="50" r="1"/><circle cx="22" cy="58" r="1"/><circle cx="30" cy="64" r="1"/><circle cx="50" cy="64" r="1"/><circle cx="58" cy="58" r="1"/><circle cx="64" cy="50" r="1"/><circle cx="66" cy="40.00513" r="1"/><circle cx="58" cy="22" r="1"/></svg>