<?xml version="1.0" encoding="UTF-8"?><svg id="a" xmlns="http://www.w3.org/2000/svg" viewBox="0 0 80 80"><path d="M9.4834,70.53027c.14258,.14307,.33496,.21973,.53027,.21973,.0791,0,.15918-.0127,.2373-.03857l48-16c.24609-.08203,.43262-.28613,.49219-.53906,.06055-.25293-.01562-.51904-.19922-.70264l-7.05664-7.05652c1.19287-.55847,2.02637-1.76172,2.02637-3.16321,0-1.10303,.89746-2,2-2,1.92969,0,3.5-1.57031,3.5-3.5,0-1.10303,.89746-2,2-2,1.92969,0,3.5-1.57031,3.5-3.5,0-1.10303,.89746-2,2-2,1.92969,0,3.5-1.57031,3.5-3.5h-1.5c0,1.10303-.89746,2-2,2-1.92969,0-3.5,1.57031-3.5,3.5,0,1.10303-.89746,2-2,2-1.92969,0-3.5,1.57031-3.5,3.5,0,1.10303-.89746,2-2,2-1.92969,0-3.5,1.57031-3.5,3.5,0,1.00635-.74951,1.83301-1.71802,1.97144l-13.73901-13.73914c1.01025-.6145,1.69336-1.71582,1.69336-2.9823,0-1.10303,.89746-2,2-2,1.92969,0,3.5-1.57031,3.5-3.5,0-1.10303,.89746-2,2-2,1.92969,0,3.5-1.57031,3.5-3.5,0-1.10303,.89746-2,2-2,1.92969,0,3.5-1.57031,3.5-3.5h-1.5c0,1.10303-.89746,2-2,2-1.92969,0-3.5,1.57031-3.5,3.5,0,1.10303-.89746,2-2,2-1.92969,0-3.5,1.57031-3.5,3.5,0,1.10303-.89746,2-2,2-1.92969,0-3.5,1.57031-3.5,3.5,0,.8584-.54639,1.58569-1.30688,1.8689l-8.89917-8.89917c-.18359-.18408-.4502-.25781-.70215-.19971-.25293,.05957-.45703,.24609-.54004,.49268L9.30176,69.7627c-.08984,.26953-.01953,.56689,.18164,.76758ZM26.3418,23.38818l7.86157,7.86182h-10.48218l2.62061-7.86182Zm-3.12061,9.36182h12.48218l6.49976,6.5H21.0542l2.16699-6.5Zm-2.66699,8h23.14893l6.49976,6.5H18.38745l2.16675-6.5Zm-2.66675,8H51.70288l4.92212,4.92236-4.73291,1.57764H15.7207l2.16675-6.5Zm-2.66675,8H47.39185l-19.50024,6.5H13.05396l2.16675-6.5Zm-2.66675,8h10.8374l-12.19214,4.06396,1.35474-4.06396Z"/><rect x="38" y="11.25" width="4" height="1.5"/><rect x="46" y="31.25" width="4" height="1.5"/><rect x="53.26367" y="22" width="1.5" height="4"/><rect x="31.25" y="12" width="1.5" height="4"/><rect x="65.26367" y="44" width="1.5" height="4"/><rect x="65.39235" y="11.75008" width="4.24264" height="1.49984" transform="translate(10.93546 51.40054) rotate(-45)"/><rect x="62.01367" y="21.25" width="4" height="1.5"/></svg>