<?xml version="1.0" encoding="UTF-8"?><svg id="a" xmlns="http://www.w3.org/2000/svg" viewBox="0 0 80 80"><path d="M49.89648,9.25H18.13184c-1.58105,0-2.86816,1.2334-2.86816,2.75v56c0,1.5166,1.28711,2.75,2.86816,2.75h31.76465c1.58105,0,2.86719-1.2334,2.86719-2.75v-23.25h10.25c3.1709,0,5.75-2.57959,5.75-5.75v-14c0-3.17041-2.5791-5.75-5.75-5.75h-10.25v-7.25c0-1.5166-1.28613-2.75-2.86719-2.75Zm1.36719,58.75c0,.68945-.61328,1.25-1.36719,1.25H18.13184c-.75488,0-1.36816-.56055-1.36816-1.25V12c0-.68945,.61328-1.25,1.36816-1.25h31.76465c.75391,0,1.36719,.56055,1.36719,1.25v7.25h-14.25c-3.1709,0-5.75,2.57959-5.75,5.75v14c0,3.17041,2.5791,5.75,5.75,5.75h2.25v7.25c0,.30322,.18262,.57666,.46289,.69287,.09277,.03857,.19043,.05713,.28711,.05713,.19531,0,.38672-.07617,.53027-.21973l7.78027-7.78027h2.93945v23.25Zm11.75-47.25c2.34375,0,4.25,1.90674,4.25,4.25v14c0,2.34326-1.90625,4.25-4.25,4.25h-15c-.19922,0-.38965,.0791-.53027,.21973l-6.71973,6.71973v-6.18945c0-.41406-.33594-.75-.75-.75h-3c-2.34375,0-4.25-1.90674-4.25-4.25v-14c0-2.34326,1.90625-4.25,4.25-4.25h26Z"/><path d="M34.01367,59.25c-1.5166,0-2.75,1.2334-2.75,2.75s1.2334,2.75,2.75,2.75,2.75-1.2334,2.75-2.75-1.2334-2.75-2.75-2.75Zm0,4c-.68945,0-1.25-.56055-1.25-1.25s.56055-1.25,1.25-1.25,1.25,.56055,1.25,1.25-.56055,1.25-1.25,1.25Z"/><path d="M50.4707,38.53174c.14648,.14551,.33789,.21826,.5293,.21826s.38281-.07275,.5293-.21826l5.92676-5.89404c.83496-.81738,1.29395-1.90527,1.29395-3.06299,0-1.1582-.45898-2.24609-1.29395-3.06348v-.00049c-1.71387-1.67773-4.49902-1.67676-6.17773-.02979l-.2793,.24268-.24512-.2124c-1.71094-1.67773-4.49902-1.67676-6.20996,0-.83496,.81738-1.29395,1.90527-1.29395,3.06348,0,1.15771,.45898,2.24561,1.28906,3.05908l5.93164,5.89795Zm-4.87793-10.94873c.56348-.55176,1.30176-.8291,2.0459-.8291,.75293,0,1.51172,.28467,2.09863,.85889l.77051,.67041c.28125,.24512,.70312,.24512,.98438,0l.80273-.70068c1.13477-1.11035,2.97754-1.11035,4.1123,0,.54395,.5332,.84277,1.24023,.84277,1.99219,0,.75146-.29883,1.4585-.84766,1.99561l-5.40234,5.37207-5.40723-5.37598c-.54395-.5332-.84277-1.24023-.84277-1.9917,0-.75195,.29883-1.45898,.84277-1.9917Z"/></svg>