<?xml version="1.0" encoding="UTF-8"?>
<svg id="DO_NOT_TOUCH_Outlines_" data-name="DO NOT TOUCH (Outlines)" xmlns="http://www.w3.org/2000/svg" viewBox="0 0 80 80">
  <path d="m52,27.25h-24c-.41,0-.75.34-.75.75v24c0,.41.34.75.75.75h24c.41,0,.75-.34.75-.75v-24c0-.41-.34-.75-.75-.75Zm-.75,24h-22.5v-22.5h22.5v22.5Z"/>
  <rect x="33.25" y="34" width="1.5" height="12"/>
  <rect x="39.25" y="34" width="1.5" height="12"/>
  <rect x="45.25" y="34" width="1.5" height="12"/>
  <path d="m62.75,49.32v-18.65c2.26-.36,4-2.31,4-4.67,0-1.26-.49-2.45-1.39-3.36-.91-.89-2.1-1.39-3.36-1.39-1.48,0-2.86.69-3.75,1.84l-13.78-7.51c.18-.5.28-1.03.28-1.57,0-1.27-.49-2.46-1.38-3.36-.89-.9-2.09-1.39-3.36-1.4-1.28,0-2.48.5-3.36,1.39-.91.89-1.4,2.08-1.4,3.35,0,.55.1,1.09.27,1.6l-13.78,7.51c-.12-.15-.25-.31-.39-.46-.91-.89-2.1-1.39-3.36-1.39-2.62,0-4.75,2.13-4.75,4.75,0,2.36,1.74,4.31,4,4.67v18.64c-.97.15-1.89.6-2.6,1.32-.9.89-1.39,2.09-1.4,3.36s.49,2.46,1.38,3.36c.89.9,2.09,1.39,3.36,1.4,1.28,0,2.48-.5,3.36-1.39.15-.15.28-.3.4-.46l13.78,7.52c-.18.51-.28,1.03-.28,1.57,0,1.27.49,2.46,1.38,3.36.89.9,2.09,1.39,3.36,1.4,1.28,0,2.48-.5,3.36-1.39.91-.89,1.4-2.08,1.4-3.35,0-.55-.1-1.09-.27-1.6l13.77-7.51c.89,1.15,2.27,1.84,3.75,1.84,2.62,0,4.75-2.13,4.75-4.75,0-1.26-.49-2.45-1.39-3.36-.72-.71-1.63-1.16-2.61-1.31Zm-.75-26.57c.86,0,1.68.34,2.3.95.62.62.95,1.44.95,2.3,0,1.79-1.46,3.25-3.25,3.25s-3.25-1.46-3.25-3.25c0-.55.13-1.07.4-1.56.57-1.04,1.66-1.69,2.85-1.69Zm-24.29-11.05c.6-.61,1.42-.95,2.29-.95.87,0,1.69.34,2.3.96.61.62.95,1.43.94,2.3,0,.54-.13,1.06-.4,1.54-.57,1.05-1.66,1.7-2.83,1.7h-.02c-.15,0-.29-.01-.44-.03-.07-.01-.14-.03-.21-.04-.07-.02-.14-.03-.21-.05-.06-.02-.12-.04-.18-.06-.08-.03-.15-.05-.22-.08-.07-.03-.13-.07-.19-.1-.06-.03-.13-.06-.19-.1-.05-.03-.1-.07-.15-.1-.07-.05-.14-.09-.21-.14-.04-.03-.07-.07-.11-.1-.07-.06-.15-.12-.21-.19-.03-.03-.05-.06-.08-.1-.07-.08-.14-.15-.2-.24-.02-.02-.03-.04-.04-.06-.07-.1-.14-.2-.2-.31-.25-.47-.39-1.01-.39-1.57,0-.87.34-1.68.96-2.29Zm-22.96,14.3c0-1.79,1.46-3.25,3.25-3.25.86,0,1.68.34,2.29.94.23.24.42.49.56.75.26.49.4,1.01.4,1.56,0,1.79-1.46,3.25-3.25,3.25s-3.25-1.46-3.25-3.25Zm3.24,31.25c-1.8,0-3.25-1.47-3.24-3.26,0-.87.34-1.69.96-2.3.61-.61,1.42-.94,2.27-.94h.02c.22,0,.44.02.65.07.04,0,.07.02.11.03.17.04.34.09.5.16.01,0,.02.01.04.02.94.42,1.65,1.26,1.87,2.29,0,.01,0,.03.01.04.04.21.06.43.06.65,0,.54-.14,1.07-.4,1.55-.14.26-.32.51-.56.74-.6.61-1.42.95-2.29.95Zm24.29,11.05c-.6.61-1.42.95-2.29.95-.87,0-1.69-.34-2.3-.96-.61-.62-.95-1.43-.94-2.3,0-.54.13-1.06.4-1.54.57-1.05,1.66-1.7,2.83-1.7h.02c.15,0,.29.01.44.03.07.01.14.03.21.04.07.02.14.03.21.05.06.02.12.04.18.06.08.03.15.05.22.08.07.03.13.07.19.1.06.03.13.06.19.1.05.03.1.07.15.1.07.05.14.09.21.14.04.03.07.07.11.1.07.06.15.12.21.19.03.03.05.06.08.1.07.08.14.15.2.24.02.02.03.04.04.06.07.1.14.2.2.31.25.47.39,1.01.39,1.57,0,.87-.34,1.68-.96,2.29Zm1.47-5.21c-.09-.12-.19-.23-.29-.34-.02-.02-.04-.05-.06-.07-.14-.14-.28-.27-.43-.39-.05-.04-.11-.08-.17-.12-.1-.07-.21-.15-.31-.21-.07-.04-.14-.08-.21-.12-.1-.06-.21-.11-.31-.16-.07-.03-.15-.07-.22-.1-.11-.04-.22-.08-.33-.12-.08-.02-.15-.05-.23-.07-.12-.03-.25-.06-.38-.08-.07-.01-.13-.03-.2-.04-.2-.03-.39-.04-.59-.04h-.03c-.2,0-.4.02-.6.04-.06,0-.13.02-.19.03-.13.02-.26.05-.39.08-.07.02-.14.04-.22.06-.12.04-.23.08-.35.12-.07.03-.14.06-.21.09-.11.05-.22.11-.33.17-.06.04-.13.07-.19.11-.12.07-.23.15-.33.23-.05.04-.1.07-.15.11-.15.12-.3.25-.44.4-.01.01-.02.03-.03.04-.11.12-.22.24-.32.37l-13.76-7.52s.02-.09.03-.13c.06-.17.1-.34.14-.52.01-.07.03-.14.04-.21.04-.24.06-.47.06-.71,0-.31-.03-.6-.08-.9-.02-.12-.06-.23-.09-.34-.05-.17-.09-.34-.15-.5-.05-.13-.12-.25-.18-.38-.07-.14-.13-.27-.21-.4-.08-.12-.16-.23-.25-.35-.09-.12-.19-.24-.29-.35-.04-.05-.07-.1-.12-.15-.06-.06-.13-.1-.19-.16-.11-.1-.22-.19-.34-.28-.12-.09-.24-.18-.37-.26-.12-.07-.24-.13-.36-.19-.14-.07-.28-.14-.42-.19-.13-.05-.27-.09-.41-.13-.14-.04-.28-.08-.43-.11-.03,0-.06-.02-.09-.02v-18.62s.07-.02.11-.03c.12-.02.24-.06.36-.09.17-.05.34-.09.5-.16.12-.05.23-.1.34-.16.15-.07.3-.15.44-.24.11-.07.21-.14.31-.21.13-.1.26-.21.38-.32.09-.08.18-.17.27-.26.12-.12.22-.26.32-.39.07-.1.15-.19.21-.3.1-.15.17-.31.25-.47.05-.1.11-.2.15-.31.07-.18.13-.37.18-.57.03-.1.06-.19.08-.29.06-.3.09-.6.09-.91,0-.25-.02-.49-.06-.73-.01-.07-.03-.14-.04-.21-.04-.18-.08-.35-.14-.53-.01-.04-.02-.09-.03-.13l13.76-7.5c.09.12.19.23.3.34.02.02.04.05.06.07.14.14.28.27.43.39.05.04.11.08.17.12.1.07.21.15.31.21.07.04.14.08.21.12.1.06.21.11.31.16.07.03.15.07.22.1.11.04.22.08.33.12.07.02.15.05.22.07.12.03.25.06.38.08.07.01.13.03.2.04.2.03.39.04.59.04h.03c.2,0,.4-.02.6-.04.06,0,.13-.02.19-.03.13-.02.26-.05.39-.08.07-.02.14-.04.22-.06.12-.04.23-.08.35-.12.07-.03.14-.06.21-.09.11-.05.22-.11.33-.17.06-.04.13-.07.19-.11.12-.07.23-.15.33-.23.05-.04.1-.07.15-.11.15-.12.3-.25.44-.4.01-.01.02-.03.03-.04.11-.12.22-.24.32-.37l13.77,7.51s-.02.09-.03.13c-.06.17-.1.35-.14.53-.01.07-.03.14-.04.21-.04.24-.06.48-.06.73,0,.31.03.62.09.91.02.1.06.19.08.29.05.19.1.38.18.57.04.11.1.21.15.31.08.16.16.32.25.47.07.1.14.2.21.3.1.14.21.27.32.39.08.09.17.18.27.26.12.11.25.22.38.32.1.07.2.15.31.21.14.09.29.17.44.24.11.05.22.11.34.16.16.06.33.11.5.16.12.03.24.07.36.09.04,0,.07.02.11.03v18.62s-.07.02-.11.03c-.12.02-.24.06-.36.09-.17.05-.34.09-.5.16-.12.05-.23.1-.34.16-.15.07-.3.15-.44.24-.11.07-.21.14-.31.21-.13.1-.26.2-.38.32-.09.08-.18.17-.27.26-.12.12-.22.26-.32.39-.07.1-.15.19-.21.3-.1.15-.17.31-.25.47-.05.1-.11.2-.15.31-.07.18-.13.37-.18.57-.03.1-.06.19-.08.29-.06.3-.09.6-.09.91,0,.25.02.49.06.73.01.07.02.14.04.2.04.18.08.36.14.53.01.04.02.09.03.13l-13.76,7.5Zm18.24-5.84c-1.19,0-2.28-.65-2.85-1.69-.26-.49-.4-1.01-.4-1.56,0-1.79,1.46-3.25,3.25-3.25.86,0,1.68.34,2.3.95.62.62.95,1.44.95,2.3,0,1.79-1.46,3.25-3.25,3.25Z"/>
</svg>