<svg xmlns="http://www.w3.org/2000/svg" viewBox="0 0 80 80"><path d="M10.208,42.11523A10.583,10.583,0,0,0,20.13965,48.751v-1.5a9.25,9.25,0,0,1-6.541-15.79053L33.25,11.81049V18h1.5V10A.7502.7502,0,0,0,34,9.25H26v1.5h6.18945L12.53809,30.3999A10.58419,10.58419,0,0,0,10.208,42.11523Z"/><path d="M69.79,37.88623A10.58214,10.58214,0,0,0,59.85938,31.25v1.5a9.25026,9.25026,0,0,1,6.54,15.791L46.75,68.19092V62h-1.5v8a.7502.7502,0,0,0,.75.75h8v-1.5H47.812L67.46,49.60156A10.5825,10.5825,0,0,0,69.79,37.88623Z"/><path d="M56,15.25H48a.7502.7502,0,0,0-.75.75V51.25h-2.5V26a.7502.7502,0,0,0-.75-.75H36a.7502.7502,0,0,0-.75.75V51.25h-2.5V36a.7502.7502,0,0,0-.75-.75H24a.7502.7502,0,0,0-.75.75V51.25H22v1.5H58v-1.5H56.75V16A.7502.7502,0,0,0,56,15.25Zm-24.75,36h-6.5V36.75h6.5Zm12,0h-6.5V26.75h6.5Zm12,0h-6.5V16.75h6.5Z"/><polygon points="68.75 8 67.25 8 67.25 11.25 64 11.25 64 12.75 67.25 12.75 67.25 16 68.75 16 68.75 12.75 72 12.75 72 11.25 68.75 11.25 68.75 8"/></svg>