<svg xmlns="http://www.w3.org/2000/svg" viewBox="0 0 80 80"><path d="M19.86816,22.89209a4.75,4.75,0,1,0-3.13769,8.79346V48.32471a4.74161,4.74161,0,0,0-.48633,9.26074,4.77977,4.77977,0,0,0,1.24707.1665A4.67906,4.67906,0,0,0,21.1604,55.9873l14.41528,8.322A4.70628,4.70628,0,0,0,35.25,65.98926,4.75584,4.75584,0,0,0,39.98828,70.75H39.999a4.71989,4.71989,0,0,0,4.42774-6.43652l14.41357-8.321a4.749,4.749,0,1,0,4.4292-7.67431V31.68286A4.75337,4.75337,0,1,0,58.8396,24.0127L44.42432,15.6908A4.70754,4.70754,0,0,0,44.75,14.01074,4.75584,4.75584,0,0,0,40.01172,9.25H40.001a4.71989,4.71989,0,0,0-4.42774,6.43652L21.15967,24.00757A4.7371,4.7371,0,0,0,19.86816,22.89209Zm-4.0166,6.91846a3.24952,3.24952,0,1,1,2.46582.33056A3.23047,3.23047,0,0,1,15.85156,29.81055Zm3.251,26.00781a3.24947,3.24947,0,1,1,1.19922-4.437A3.23642,3.23642,0,0,1,19.10254,55.81836ZM42.293,68.30322A3.229,3.229,0,0,1,39.999,69.25h-.00683a3.25,3.25,0,0,1,.00879-6.5h.00683A3.25,3.25,0,0,1,42.293,68.30322ZM64.14844,50.18945a3.24952,3.24952,0,1,1-2.46582-.33056,3.274,3.274,0,0,1,.83984-.11035A3.22867,3.22867,0,0,1,64.14844,50.18945Zm-3.251-26.00781a3.23785,3.23785,0,0,1,1.61426-.4331,3.27682,3.27682,0,0,1,.85351.11425,3.24979,3.24979,0,1,1-2.46777.31885ZM37.707,11.69678A3.229,3.229,0,0,1,40.001,10.75h.00683a3.25,3.25,0,0,1-.00879,6.5h-.00683A3.25,3.25,0,0,1,37.707,11.69678ZM22.07422,25.78125a4.77093,4.77093,0,0,0-.17481-.469L36.332,16.98035A4.7222,4.7222,0,0,0,39.98828,18.75H39.999a4.72431,4.72431,0,0,0,3.666-1.76575l14.4353,8.3335a4.70493,4.70493,0,0,0,3.66919,6.36389V48.332a4.55967,4.55967,0,0,0-3.66894,6.35571L43.668,63.01965A4.7222,4.7222,0,0,0,40.01172,61.25H40.001a4.72431,4.72431,0,0,0-3.666,1.76575l-14.4353-8.3335a4.68541,4.68541,0,0,0-3.66919-6.349V31.68408a4.80757,4.80757,0,0,0,.47168-.09326,4.75119,4.75119,0,0,0,3.37207-5.80957Z"/><path d="M29.333,46.75H51.55566a5.19434,5.19434,0,1,0,0-10.38867,5.0642,5.0642,0,0,0-2.13867.47217,9.63221,9.63221,0,0,0-18.17871-1.94141A5.99831,5.99831,0,0,0,29.333,34.5835a6.08325,6.08325,0,0,0,0,12.1665Zm0-10.6665a4.54334,4.54334,0,0,1,1.99023.45947.7491.7491,0,0,0,1.03125-.41992,8.13128,8.13128,0,0,1,15.74512,2.001.74989.74989,0,0,0,1.20605.52344,3.65383,3.65383,0,0,1,2.25-.78613,3.69434,3.69434,0,1,1,0,7.38867H29.333a4.58325,4.58325,0,0,1,0-9.1665Z"/></svg>