<?xml version="1.0" encoding="UTF-8"?><svg id="a" xmlns="http://www.w3.org/2000/svg" viewBox="0 0 80 80"><path d="M70.70801,49.9043l-2.80371-18.77783c-.00684-.04688-.01807-.09277-.03369-.13672-.98535-5.66406-5.74072-9.76172-11.35547-9.76172-2.69336,0-4.9707,.67285-6.77441,2H30.25928c-1.80273-1.32715-4.0708-2-6.74609-2-5.61377,0-10.36816,4.0957-11.35498,9.7583-.01562,.04541-.02734,.0918-.03418,.14014l-2.80518,18.78564c-.58447,4.20752,2.15869,8.05273,6.24463,8.75342,2.86523,.49219,5.79004-.77051,7.49902-3.2915l4.51172-8.64893c.72412-1.38721,1.73145-1.95312,3.47705-1.95312h16.94873c.74609,0,3.25342,.13525,4.20361,1.87549l4.80762,8.80371c1.4248,2.09326,3.77539,3.31934,6.2207,3.31934,.40967,0,.82227-.03467,1.23291-.10498,4.08594-.70068,6.8291-4.5459,6.24463-8.75342l-.00146-.00781Zm-23.45801-6.67627h-14.5v-2.47803h14.5v2.47803Zm16.9541,13.91602c-2.27246,.39355-4.59326-.61621-5.87744-2.49658l-4.76855-8.73926c-1.10229-2.02026-3.36938-2.5293-4.80811-2.64429v-3.26392c0-.41406-.33594-.75-.75-.75h-16c-.41406,0-.75,.33594-.75,.75v3.22803h-.19873c-2.31543,0-3.85498,.88477-4.84521,2.7832l-4.46582,8.57178c-1.32324,1.94531-3.6416,2.95068-5.91602,2.56104-3.20508-.5498-5.4375-3.69873-4.97754-7.01221l2.78418-18.64746c.01221-.0376,.02197-.07617,.02832-.11572,.81201-4.98145,4.95654-8.59668,9.854-8.59668,2.43018,0,4.45264,.61768,6.01172,1.83594,.13574,.10596,.30273,.16406,.4751,.16406h20c.17236,0,.33936-.05811,.4751-.16406,1.55908-1.21826,3.59082-1.83594,6.04004-1.83594,4.89746,0,9.04199,3.61523,9.854,8.59668,.00635,.03857,.01562,.07666,.02783,.11328l2.78418,18.646c.45898,3.31982-1.77295,6.4668-4.97705,7.01611Z"/><polygon points="22.76367 28.00146 21.26367 27.99854 21.25793 31.25 18 31.25 18 32.75 21.25525 32.75 21.24951 35.99854 22.74951 36.00146 22.75525 32.75 26 32.75 26 31.25 22.75793 31.25 22.76367 28.00146"/><rect x="34" y="31.25" width="4.1377" height="1.5"/><rect x="42.01416" y="31.25" width="4.1377" height="1.5"/><circle cx="54.01416" cy="32" r="1"/><circle cx="62.01416" cy="32" r="1"/><circle cx="58.01416" cy="28" r="1"/><circle cx="58.01416" cy="36" r="1"/></svg>