<?xml version="1.0" encoding="UTF-8"?><svg id="a" xmlns="http://www.w3.org/2000/svg" viewBox="0 0 80 80"><path d="M60.75977,70V26c0-.01709-.00854-.03149-.00977-.04834V10c0-.41406-.33594-.75-.75-.75H20.02832c-.41406,0-.75,.33594-.75,.75v15.9082c-.00391,.03149-.01855,.05908-.01855,.0918v44c0,.41406,.33594,.75,.75,.75H60.00977c.41406,0,.75-.33594,.75-.75ZM20.77832,10.75H59.25v14.5H20.77832V10.75Zm10.48535,58.5h-10.50391v-6.5h10.50391v6.5Zm16,0h-14.5v-6.5h14.5v6.5Zm11.99609,0h-10.49609v-6.5h10.49609v6.5Zm0-8H20.75977V26.75H59.25977V61.25Z"/><rect x="23.25" y="54" width="1.5" height="4"/><rect x="31.25" y="54" width="1.5" height="4"/><rect x="39.25" y="54" width="1.5" height="4"/><rect x="47.25" y="54" width="1.5" height="4"/><rect x="55.25" y="54" width="1.5" height="4"/><rect x="23.25" y="46" width="1.5" height="4"/><rect x="31.25" y="46" width="1.5" height="4"/><rect x="39.25" y="46" width="1.5" height="4"/><rect x="47.25" y="46" width="1.5" height="4"/><rect x="55.25" y="46" width="1.5" height="4"/><rect x="23.25" y="38" width="1.5" height="4"/><rect x="31.25" y="38" width="1.5" height="4"/><rect x="39.25" y="38" width="1.5" height="4"/><rect x="47.25" y="38" width="1.5" height="4"/><rect x="55.25" y="38" width="1.5" height="4"/><path d="M66.75,70v-3.36719c1.15063-.32861,2-1.37793,2-2.63281,0-1.5166-1.2334-2.75-2.75-2.75s-2.75,1.2334-2.75,2.75c0,1.25488,.84937,2.3042,2,2.63281v3.36719h1.5Zm-2-6c0-.68945,.56055-1.25,1.25-1.25s1.25,.56055,1.25,1.25-.56055,1.25-1.25,1.25-1.25-.56055-1.25-1.25Z"/><path d="M14.75,70v-3.36719c1.15063-.32861,2-1.37793,2-2.63281,0-1.5166-1.2334-2.75-2.75-2.75s-2.75,1.2334-2.75,2.75c0,1.25488,.84937,2.3042,2,2.63281v3.36719h1.5Zm-2-6c0-.68945,.56055-1.25,1.25-1.25s1.25,.56055,1.25,1.25-.56055,1.25-1.25,1.25-1.25-.56055-1.25-1.25Z"/><polygon points="39.25 22 40.75 22 40.75 18.75 44 18.75 44 17.25 40.75 17.25 40.75 14 39.25 14 39.25 17.25 36 17.25 36 18.75 39.25 18.75 39.25 22"/><rect x="23.25" y="30" width="1.5" height="4"/><rect x="31.25" y="30" width="1.5" height="4"/><rect x="39.25" y="30" width="1.5" height="4"/><rect x="47.25" y="30" width="1.5" height="4"/><rect x="55.25" y="30" width="1.5" height="4"/><circle cx="24" cy="66" r="1"/><circle cx="56" cy="66" r="1"/></svg>