<?xml version="1.0" encoding="UTF-8"?><svg id="a" xmlns="http://www.w3.org/2000/svg" viewBox="0 0 80 80"><path d="M40,70.75c2.3623,0,4.31152-1.73828,4.67407-4h3.32593c10.11011,0,18.35498-8.04883,18.71582-18.07227,2.27808-.34863,4.03418-2.30371,4.03418-4.67773v-8c0-2.50684-1.95801-4.54468-4.42188-4.7168-2.24854-12.60278-13.45508-22.0332-26.32812-22.0332S15.92041,18.68042,13.67188,31.2832c-2.46387,.17212-4.42188,2.20996-4.42188,4.7168v8c0,2.61914,2.13086,4.75,4.75,4.75h4c.41406,0,.75-.33594,.75-.75v-16c0-.41406-.33594-.75-.75-.75h-2.77832c2.24658-11.74268,12.73047-20.5,24.77832-20.5s22.53174,8.75732,24.77832,20.5h-2.77832c-.41406,0-.75,.33594-.75,.75v16c0,.41406,.33594,.75,.75,.75h3.21191c-.39673,9.1626-7.95337,16.5-17.21191,16.5h-3.32593c-.36255-2.26172-2.31177-4-4.67407-4-2.61914,0-4.75,2.13086-4.75,4.75s2.13086,4.75,4.75,4.75ZM17.25,32.75v14.5h-3.25c-1.79199,0-3.25-1.45801-3.25-3.25v-8c0-1.79199,1.45801-3.25,3.25-3.25h3.25Zm45.5,14.5v-14.5h3.25c1.79199,0,3.25,1.45801,3.25,3.25v8c0,1.79199-1.45801,3.25-3.25,3.25h-3.25Zm-22.75,15.5c1.79199,0,3.25,1.45801,3.25,3.25s-1.45801,3.25-3.25,3.25-3.25-1.45801-3.25-3.25,1.45801-3.25,3.25-3.25Z"/><path d="M31.21191,40.28271c-.16797,.18945-.30566,.41406-.40918,.66748-.10645,.25732-.16016,.55566-.16016,.8877,0,.36035,.08008,.69775,.23633,1.00293,.1543,.30029,.37305,.56445,.65234,.78564,.27246,.21436,.60254,.38281,.98145,.50098,.37012,.11426,.78418,.17188,1.22949,.17188,.44629,0,.86133-.06006,1.2334-.17871,.37695-.12061,.70703-.29346,.98047-.51367,.27832-.22412,.49707-.49658,.65137-.80859,.15527-.31348,.23438-.6626,.23438-1.0376,0-.31006-.05664-.59619-.16895-.85107-.10742-.24365-.24609-.46191-.41211-.64893-.16309-.18359-.35059-.34326-.55664-.4751-.03711-.02441-.0752-.04785-.11328-.0708l.04004-.02979c.16797-.12695,.32129-.27393,.45508-.43701,.13867-.1665,.25195-.35938,.33887-.57324,.08691-.2168,.13086-.45752,.13086-.71484,0-.40186-.08301-.75391-.24707-1.0459-.1582-.28662-.37598-.52588-.64648-.71143-.25879-.17578-.56055-.30859-.89648-.39404-.6543-.16602-1.40137-.16357-2.0498,.00732-.33691,.08887-.64062,.22998-.90234,.42041-.26562,.19482-.48145,.44482-.64062,.74316-.16211,.30176-.24414,.65771-.24414,1.05762,0,.27637,.04395,.53027,.12988,.75439,.08301,.21875,.19336,.41309,.32422,.57715,.12402,.15723,.26953,.29639,.43262,.41406l-.05566,.03418c-.19824,.12402-.38184,.28076-.54785,.46582Zm1.42969-2.67383c.05957-.10938,.1377-.19775,.23926-.271,.10449-.07666,.22949-.13477,.37207-.17236,.1543-.04053,.31836-.06152,.48926-.06152,.16895,0,.33008,.02344,.47852,.06982,.14453,.04346,.26855,.10596,.37109,.18604,.09961,.07666,.17578,.1665,.23438,.2749,.05371,.09912,.0791,.21289,.0791,.34717,0,.15771-.02832,.29688-.08496,.41357-.0625,.12744-.14355,.24072-.23926,.33691-.10352,.10254-.21973,.19287-.34375,.26855-.10645,.06396-.21094,.1167-.31152,.15771-.14062-.02051-.29004-.05029-.44434-.08789-.16406-.03906-.31934-.104-.45996-.19287-.13086-.0835-.24316-.19873-.33594-.34375-.08594-.1333-.12891-.31934-.12891-.55225,0-.14502,.02832-.27051,.08496-.37305Zm-.17676,3.64844v-.00049c.0752-.14893,.1709-.2793,.28711-.38672,.12305-.11328,.25781-.20654,.39746-.27734,.12891-.06396,.25391-.11475,.37305-.15088,.18457,.03906,.37402,.08643,.56836,.13916,.20117,.05518,.38281,.13428,.54199,.23438,.15039,.09424,.26855,.21289,.3623,.36182,.08691,.1377,.12988,.33398,.12988,.5835,0,.32324-.10156,.56787-.32129,.76953-.2207,.20264-.57812,.30566-1.06152,.30566-.25391,0-.47168-.03174-.65039-.09375-.17285-.06006-.31348-.13867-.41797-.23486-.10254-.09424-.17969-.20215-.23438-.33057-.05371-.12695-.08008-.26709-.08008-.41602,0-.19434,.03516-.36377,.10547-.50342Z"/><path d="M36.83301,44.05322c.02637,.05029,.07715,.08154,.13379,.08154h1.6084c.0498,0,.0957-.02441,.12402-.06494l1.31543-1.91895,1.34668,1.91992c.02832,.04004,.07422,.06396,.12305,.06396h1.65527c.05664,0,.1084-.03174,.13379-.08203,.02539-.05078,.02051-.11133-.0127-.15674l-2.28613-3.10498,1.95215-2.72705c.03223-.0459,.03711-.10596,.01172-.15576-.02637-.05029-.07715-.08154-.13379-.08154h-1.57422c-.0498,0-.09668,.0249-.12402,.06592l-1.09961,1.63037-1.1582-1.6333c-.02734-.03955-.07324-.06299-.12207-.06299h-1.62988c-.05664,0-.1084,.03174-.13379,.08203s-.02051,.11035,.0127,.15625l2.04297,2.80713-2.17383,3.02539c-.03223,.04541-.03711,.10596-.01172,.15576Z"/><path d="M47.35059,42.43164c-.11914,.12207-.26367,.2168-.42773,.28174-.16992,.06689-.35449,.10059-.55078,.10059-.39648,0-.70605-.08984-.9209-.26709-.21777-.18018-.35742-.39697-.41504-.64453l-.02637-.11475c-.01562-.06787-.07617-.11621-.14648-.11621h-1.41211c-.04395,0-.08594,.01904-.11426,.05273s-.04102,.07812-.03418,.12158l.02832,.17236c.0498,.29834,.15625,.58789,.31836,.86035,.16016,.27148,.37109,.51611,.62695,.72656,.25488,.21045,.5625,.38135,.91406,.50732,.34961,.12402,.74414,.18701,1.16992,.18701,.47656,0,.91016-.07959,1.29004-.23633,.38184-.15869,.70703-.37549,.9668-.64502,.2627-.271,.46484-.58887,.60254-.9458,.1377-.35547,.20801-.73535,.20801-1.12891,0-.47021-.07617-.8916-.22656-1.25146v-.00049c-.15234-.36279-.3584-.67139-.6123-.9165-.25391-.24756-.55566-.43604-.89551-.56055-.65723-.24072-1.48535-.24414-2.11133-.01025-.10547,.03906-.20801,.0835-.30762,.13281l.05469-1.40186h3.62891c.08301,0,.15039-.06689,.15039-.1499v-1.18555c0-.08301-.06738-.1499-.15039-.1499h-5.0127c-.08008,0-.14648,.06348-.14941,.14404l-.17676,4.4043c-.00195,.04053,.0127,.08057,.04102,.10986s.06738,.0459,.1084,.0459h1.15527c.04395,0,.08496-.01904,.11328-.05225l.0459-.05273c.18066-.21191,.3877-.36475,.61523-.45459,.23438-.09473,.46777-.14307,.69531-.14307,.42188,0,.74512,.11719,.98828,.35791,.24023,.23779,.36133,.604,.36133,1.08984,0,.25-.03613,.47363-.10742,.66553-.06934,.18652-.16504,.34375-.28516,.46729Z"/></svg>