<?xml version="1.0" encoding="UTF-8"?><svg id="a" xmlns="http://www.w3.org/2000/svg" viewBox="0 0 80 80"><path d="M40.01367,9.25c-16.95605,0-30.75,13.79443-30.75,30.75s13.79395,30.75,30.75,30.75,30.75-13.79443,30.75-30.75-13.79395-30.75-30.75-30.75Zm0,60c-16.12891,0-29.25-13.12158-29.25-29.25S23.88477,10.75,40.01367,10.75s29.25,13.12158,29.25,29.25-13.12109,29.25-29.25,29.25Z"/><path d="M40.01367,21.25c-5.98535,0-10.85449,4.86963-10.85449,10.85547h1.5c0-5.15869,4.19629-9.35547,9.35449-9.35547s9.35547,4.19678,9.35547,9.35547c0,3.79346-2.80176,5.85889-5.51074,7.85645-2.36328,1.74219-4.59473,3.38818-4.59473,6.03271l-.01367,2,1.5,.01074,.01367-2.00537c0-1.89258,1.84668-3.25391,3.98535-4.83057,2.86816-2.11523,6.12012-4.51318,6.12012-9.06396,0-5.98584-4.87012-10.85547-10.85547-10.85547Z"/><path d="M40.01367,53.25c-1.5166,0-2.75,1.2334-2.75,2.75s1.2334,2.75,2.75,2.75,2.75-1.2334,2.75-2.75-1.2334-2.75-2.75-2.75Zm0,4c-.68945,0-1.25-.56055-1.25-1.25s.56055-1.25,1.25-1.25,1.25,.56055,1.25,1.25-.56055,1.25-1.25,1.25Z"/></svg>