<?xml version="1.0" encoding="UTF-8"?><svg id="a" xmlns="http://www.w3.org/2000/svg" viewBox="0 0 80 80"><path d="M58,28.75c1.79199,0,3.25,1.45801,3.25,3.25h1.5c0-2.61914-2.13086-4.75-4.75-4.75v1.5Z"/><path d="M58,24.75c3.99756,0,7.25,3.25244,7.25,7.25h1.5c0-4.82471-3.92529-8.75-8.75-8.75v1.5Z"/><path d="M69.25,32h1.5c0-7.03027-5.71973-12.75-12.75-12.75v1.5c6.20312,0,11.25,5.04688,11.25,11.25Z"/><path d="M10.76416,22c0-.68945,.56055-1.25,1.25-1.25H54v-1.5H12.01416c-1.5166,0-2.75,1.2334-2.75,2.75V56c0,1.5166,1.2334,2.75,2.75,2.75h27.25v2.5h-13.25v1.5h28v-1.5h-13.25v-2.5h27.25c1.5166,0,2.75-1.2334,2.75-2.75v-20h-1.5v15.25H10.76416V22Zm58.5,30.75v3.25c0,.68945-.56055,1.25-1.25,1.25H12.01416c-.68945,0-1.25-.56055-1.25-1.25v-3.25h58.5Z"/><circle cx="58" cy="32" r="1"/></svg>