<?xml version="1.0" encoding="UTF-8"?><svg id="a" xmlns="http://www.w3.org/2000/svg" viewBox="0 0 80 80"><path d="M39.94727,29.25c-5.92773,0-10.75,4.82227-10.75,10.75s4.82227,10.75,10.75,10.75,10.75-4.82227,10.75-10.75-4.82227-10.75-10.75-10.75Zm-2.69727,1.90356v2.8728c0,.6748-.54883,1.22363-1.25,1.22363-.73438,0-1.42285,.28809-1.93848,.81055-.5166,.52246-.79492,1.21484-.78516,1.94922,.00488,.33008-.12109,.6416-.35254,.87598-.23145,.23535-.54102,.36426-.87109,.36426h-1.31738c.30957-3.83081,2.95654-7.00928,6.51465-8.09644Zm-5.2251,13.59644h3.69482c.68945,0,1.25,.56055,1.25,1.25v2.74902c-2.08252-.71069-3.82764-2.14282-4.94482-3.99902Zm6.44482,4.37061v-3.12061c0-1.5166-1.2334-2.75-2.75-2.75h-4.42163c-.29761-.78906-.49219-1.62622-.56274-2.5h1.31738c.73438,0,1.42285-.28809,1.93848-.81055,.5166-.52246,.79492-1.21484,.78516-1.94922-.00488-.33008,.12109-.6416,.35254-.87598,.23145-.23535,.54102-.36426,.89746-.36426,1.50195,0,2.72363-1.22168,2.72363-2.72363v-3.18994c.39307-.05103,.79053-.08643,1.19727-.08643,1.9729,0,3.79956,.62598,5.30273,1.68262v1.56738c0,1.24023-1.00977,2.25-2.25,2.25-2.06738,0-3.75,1.68262-3.75,3.75s1.68262,3.75,3.75,3.75c1.24023,0,2.25,1.00977,2.25,2.25v1.56738c-1.50317,1.05664-3.32983,1.68262-5.30273,1.68262-.50391,0-.99512-.05151-1.47754-.12939Zm8.28027-2.87451v-.24609c0-2.06738-1.68262-3.75-3.75-3.75-1.24023,0-2.25-1.00977-2.25-2.25s1.00977-2.25,2.25-2.25c2.06738,0,3.75-1.68262,3.75-3.75v-.24609c1.51416,1.64771,2.44727,3.83716,2.44727,6.24609s-.93311,4.59839-2.44727,6.24609Z"/><path d="M30.71191,26.2373l2-6c.07617-.22852,.03711-.48047-.10352-.67578s-.36719-.31152-.6084-.31152h-3.25v-3.25c0-.41406-.33594-.75-.75-.75h-1.25v-3.25c0-.41406-.33594-.75-.75-.75h-8c-.41406,0-.75,.33594-.75,.75v3.25h-1.25c-.41406,0-.75,.33594-.75,.75v3.25h-2.5v-5.25h-1.5v5.25h-1.25c-.24121,0-.46777,.11621-.6084,.31152s-.17969,.44727-.10352,.67578l2,6c.10254,.30566,.38867,.5127,.71191,.5127H30c.32324,0,.60938-.20703,.71191-.5127Zm-3.46191-6.9873h-2.5v-2.5h2.5v2.5Zm-6.5,0v-2.5h2.5v2.5h-2.5Zm4.5-4h-2.5v-2.5h2.5v2.5Zm-6.5-2.5h2.5v2.5h-2.5v-2.5Zm-2,4h2.5v2.5h-2.5v-2.5Zm-4.20898,8.5l-1.5-4.5H30.95898l-1.5,4.5H12.54102Z"/><path d="M70.19531,48.25684c-.58887-.58789-1.50879-.71387-2.59473-.35352-.91016,.30371-1.87207,.93066-2.70801,1.76758l-3.91504,3.91406-8.04492-2.68164c-.26953-.08789-.56641-.01855-.76758,.18164l-2.8291,2.82812c-.16309,.16309-.24219,.39258-.21387,.62207,.02832,.22852,.16016,.43262,.3584,.55176l6.24707,3.74805-1.29492,1.2959-3.29688,.64746c-.14648,.0293-.28027,.10059-.38574,.20605l-2.82812,2.82812c-.2002,.2002-.27051,.49707-.18164,.7666,.08887,.26855,.32227,.46484,.60352,.50586l4.38281,.6416,.64062,4.38184c.04297,.29199,.25293,.53223,.53711,.61328,.06738,.01855,.13672,.02832,.20508,.02832,.21777,0,.42871-.09473,.57324-.2666l2.58594-3.07129c.06836-.08105,.11914-.17578,.14844-.27734l.88086-3.0918,1.31934-1.31836,3.74805,6.24707c.11914,.19824,.32227,.33008,.55176,.3584,.23535,.0293,.45898-.05078,.62207-.21387l2.82812-2.82812c.20117-.20117,.27148-.49805,.18164-.76758l-2.68164-8.0459,3.91406-3.91504c.83691-.83594,1.46387-1.79688,1.76758-2.70703,.36133-1.08496,.23535-2.00684-.35352-2.5957Zm-1.07031,2.12109c-.22754,.68359-.73926,1.45605-1.4043,2.12109l-4.24219,4.24316c-.20117,.20117-.27148,.49805-.18164,.76758l2.68164,8.0459-1.82129,1.82031-3.74805-6.24707c-.11914-.19824-.32227-.33008-.55176-.3584-.23438-.02832-.45898,.05078-.62207,.21387l-2.13574,2.13574c-.08984,.08984-.15625,.20215-.19141,.32422l-.88965,3.12402-1.4082,1.67285-.48047-3.28418c-.04785-.32812-.30566-.58594-.63379-.63379l-3.45801-.50586,1.61133-1.61133,3.29688-.64746c.14648-.0293,.28027-.10059,.38574-.20605l2.13574-2.13574c.16309-.16309,.24219-.39258,.21387-.62207s-.16016-.43262-.3584-.55176l-6.24707-3.74805,1.82129-1.82129,8.04492,2.68164c.27148,.08887,.56738,.01953,.76758-.18164l4.24316-4.24219c.66504-.66504,1.43848-1.17676,2.12109-1.4043,.48828-.16309,.90332-.16699,1.06055-.00977s.15332,.57324-.00977,1.06055Z"/><circle cx="40" cy="14" r="1"/><circle cx="50" cy="16" r="1"/><circle cx="58" cy="22" r="1"/><circle cx="64" cy="30" r="1"/><circle cx="66" cy="40" r="1"/><circle cx="40" cy="66" r="1"/><circle cx="30" cy="64" r="1"/><circle cx="22" cy="58" r="1"/><circle cx="16" cy="50" r="1"/><circle cx="14" cy="40" r="1"/></svg>