<?xml version="1.0" encoding="UTF-8"?><svg id="a" xmlns="http://www.w3.org/2000/svg" viewBox="0 0 80 80"><path d="M31.74023,28.75h.91113c.69678,3.41943,3.72656,6,7.34863,6s6.65186-2.58057,7.34863-6h.91113c.41406,0,.75-.33594,.75-.75,0-3.85107-2.43457-7.24023-6.00977-8.49854v-1.50146c0-.41406-.33594-.75-.75-.75h-4.5c-.41406,0-.75,.33594-.75,.75v1.50146c-3.5752,1.2583-6.00977,4.64746-6.00977,8.49854,0,.41406,.33594,.75,.75,.75Zm8.25977,4.5c-2.79004,0-5.13379-1.91626-5.80273-4.5h11.60547c-.66895,2.58374-3.0127,4.5-5.80273,4.5Zm7.47266-6h-4.47266v-6.1377c2.47852,1.07666,4.20215,3.42236,4.47266,6.1377Zm-8.97266-8.5h3v8.5h-3v-8.5Zm-1.5,2.3623v6.1377h-4.47266c.27051-2.71533,1.99414-5.06104,4.47266-6.1377Z"/><path d="M46,37.25h-12c-3.72168,0-6.75,3.02832-6.75,6.75v18h1.5v-18c0-2.89453,2.35547-5.25,5.25-5.25h12c2.89453,0,5.25,2.35547,5.25,5.25v18h1.5v-18c0-3.72168-3.02832-6.75-6.75-6.75Z"/><path d="M9.25,50v12h1.5v-12c0-2.89453,2.35547-5.25,5.25-5.25h8v-1.5h-8c-3.72168,0-6.75,3.02832-6.75,6.75Z"/><path d="M19,29.25c-3.1709,0-5.75,2.5791-5.75,5.75s2.5791,5.75,5.75,5.75,5.75-2.5791,5.75-5.75-2.5791-5.75-5.75-5.75Zm0,1.5c.05908,0,.11377,.01514,.17236,.01758-.33789,2.27637-2.12842,4.06689-4.40479,4.40479-.00244-.05859-.01758-.11328-.01758-.17236,0-2.34375,1.90625-4.25,4.25-4.25Zm0,8.5c-1.75732,0-3.26807-1.07153-3.91455-2.5957,2.85205-.46387,5.10498-2.7168,5.56885-5.56885,1.52393,.64624,2.5957,2.15747,2.5957,3.91455,0,2.34375-1.90625,4.25-4.25,4.25Z"/><path d="M61,40.75c1.99756,0,3.75879-1.0249,4.79004-2.57544,.41113,.79517,1.03613,1.47778,1.83398,1.9397l.75195-1.29883c-1.00293-.58008-1.62598-1.6582-1.62598-2.81543v-1c0-3.1709-2.5791-5.75-5.75-5.75s-5.75,2.5791-5.75,5.75v1c0,1.15723-.62305,2.23535-1.62598,2.81543l.75195,1.29883c.79785-.46191,1.42285-1.14453,1.83398-1.9397,1.03125,1.55054,2.79248,2.57544,4.79004,2.57544Zm4.25-5.75c0,.05908-.01514,.11377-.01758,.17236-2.27637-.33789-4.06689-2.12842-4.40479-4.40479,.05859-.00244,.11328-.01758,.17236-.01758,2.34375,0,4.25,1.90625,4.25,4.25Zm-5.9043-3.91455c.46387,2.85205,2.7168,5.10498,5.56885,5.56885-.64648,1.52417-2.15723,2.5957-3.91455,2.5957-2.34375,0-4.25-1.90625-4.25-4.25,0-1.75708,1.07178-3.26831,2.5957-3.91455Z"/><path d="M64,43.25h-8v1.5h8c2.89453,0,5.25,2.35547,5.25,5.25v12h1.5v-12c0-3.72168-3.02832-6.75-6.75-6.75Z"/></svg>