<?xml version="1.0" encoding="UTF-8"?><svg id="a" xmlns="http://www.w3.org/2000/svg" viewBox="0 0 80 80"><path d="M28.76367,65c0-2.06787-1.68262-3.75-3.75-3.75s-3.75,1.68213-3.75,3.75,1.68262,3.75,3.75,3.75,3.75-1.68213,3.75-3.75Zm-6,0c0-1.24072,1.00977-2.25,2.25-2.25s2.25,1.00928,2.25,2.25-1.00977,2.25-2.25,2.25-2.25-1.00928-2.25-2.25Z"/><path d="M62.76367,65c0-2.06787-1.68262-3.75-3.75-3.75s-3.75,1.68213-3.75,3.75,1.68262,3.75,3.75,3.75,3.75-1.68213,3.75-3.75Zm-6,0c0-1.24072,1.00977-2.25,2.25-2.25s2.25,1.00928,2.25,2.25-1.00977,2.25-2.25,2.25-2.25-1.00928-2.25-2.25Z"/><path d="M23.28418,58.17383c.08008,.33789,.38184,.57617,.72949,.57617h40v-1.5H24.60645l-1.10596-4.64496,38.5874-3.85895c.30078-.02979,.55371-.23682,.64258-.52539l8-26c.07031-.22754,.02832-.47461-.11328-.6665-.1416-.19141-.36523-.3042-.60352-.3042h-28.01367c-.41406,0-.75,.33594-.75,.75v16.18945l-4.71973-4.71973-1.06055,1.06055,6,6c.14648,.14648,.33789,.21973,.53027,.21973s.38379-.07324,.53027-.21973l6-6-1.06055-1.06055-4.71973,4.71973v-15.43945h26.24805l-7.55469,24.55322-38.29346,3.82983-6.75806-28.38306h21.60815v-1.5H16.03467l-1.2915-5.42383c-.08008-.33789-.38184-.57617-.72949-.57617h-6v1.5h5.40723l9.86328,41.42383Z"/></svg>