<?xml version="1.0" encoding="UTF-8"?><svg id="a" xmlns="http://www.w3.org/2000/svg" viewBox="0 0 80 80"><path d="M12,62.75h56c1.5166,0,2.75-1.2334,2.75-2.75V24c0-1.5166-1.2334-2.75-2.75-2.75h-17.68945l-3.78027-3.78027c-.14062-.14062-.33154-.21973-.53027-.21973h-12c-.19873,0-.38965,.0791-.53027,.21973l-3.78027,3.78027h-2.93945v-3.25c0-.41406-.33594-.75-.75-.75h-10c-.41406,0-.75,.33594-.75,.75v3.25h-3.25c-1.5166,0-2.75,1.2334-2.75,2.75V60c0,1.5166,1.2334,2.75,2.75,2.75Zm4.75-44h8.5v2.5h-8.5v-2.5Zm-6,5.25c0-.68945,.56055-1.25,1.25-1.25H30c.19873,0,.38965-.0791,.53027-.21973l3.78027-3.78027h11.37891l3.78027,3.78027c.14062,.14062,.33154,.21973,.53027,.21973h18c.68945,0,1.25,.56055,1.25,1.25V60c0,.68945-.56055,1.25-1.25,1.25H12c-.68945,0-1.25-.56055-1.25-1.25V24Z"/><path d="M40,56.75c8.1333,0,14.75-6.6167,14.75-14.75s-6.6167-14.75-14.75-14.75-14.75,6.6167-14.75,14.75,6.6167,14.75,14.75,14.75Zm0-28c7.30615,0,13.25,5.94385,13.25,13.25s-5.94385,13.25-13.25,13.25-13.25-5.94385-13.25-13.25,5.94385-13.25,13.25-13.25Z"/><path d="M58,32.75h8c.41406,0,.75-.33594,.75-.75v-6c0-.41406-.33594-.75-.75-.75h-8c-.41406,0-.75,.33594-.75,.75v6c0,.41406,.33594,.75,.75,.75Zm.75-6h6.5v4.5h-6.5v-4.5Z"/></svg>