<?xml version="1.0" encoding="UTF-8"?><svg id="a" xmlns="http://www.w3.org/2000/svg" viewBox="0 0 80 80"><path d="M53.72705,26.69287c.09277,.03857,.19043,.05713,.28711,.05713,.19482,0,.38672-.07617,.53027-.21973l3.78027-3.78027h5.68945c1.5166,0,2.75-1.2334,2.75-2.75V12c0-1.5166-1.2334-2.75-2.75-2.75h-16c-1.5166,0-2.75,1.2334-2.75,2.75v8c0,1.5166,1.2334,2.75,2.75,2.75h5.25v3.25c0,.30322,.18262,.57666,.46289,.69287Zm-5.71289-5.44287c-.68945,0-1.25-.56055-1.25-1.25V12c0-.68945,.56055-1.25,1.25-1.25h16c.68945,0,1.25,.56055,1.25,1.25v8c0,.68945-.56055,1.25-1.25,1.25h-6c-.19873,0-.38965,.0791-.53027,.21973l-2.71973,2.71973v-2.18945c0-.41406-.33594-.75-.75-.75h-6Z"/><path d="M23.25,38v4c0,1.5166,1.2334,2.75,2.75,2.75h2c.41406,0,.75-.33594,.75-.75v-8c0-.41406-.33594-.75-.75-.75h-.95386c1.2804-6.0412,6.69507-10.5,12.95386-10.5s11.67346,4.4588,12.95386,10.5h-.95386c-.41406,0-.75,.33594-.75,.75v8c0,.22241,.10132,.41681,.25513,.5542-1.3999,2.45837-3.54578,4.39429-6.15125,5.5506-.64563-.526-1.45801-.8548-2.35388-.8548-2.06787,0-3.75,1.68213-3.75,3.75s1.68213,3.75,3.75,3.75,3.75-1.68213,3.75-3.75c0-.61237-.16162-1.18237-.42285-1.69342,2.92163-1.39148,5.28967-3.68152,6.77209-6.55658h.90076c1.5166,0,2.75-1.2334,2.75-2.75v-4c0-1.34912-.97778-2.46851-2.26099-2.70056-1.28418-6.90796-7.39941-12.04944-14.48901-12.04944s-13.20483,5.14148-14.48901,12.04944c-1.2832,.23206-2.26099,1.35144-2.26099,2.70056Zm19.75,17.25c-1.24072,0-2.25-1.00928-2.25-2.25s1.00928-2.25,2.25-2.25,2.25,1.00928,2.25,2.25-1.00928,2.25-2.25,2.25Zm12.25-17.25v4c0,.68945-.56055,1.25-1.25,1.25h-1.25v-6.5h1.25c.68945,0,1.25,.56055,1.25,1.25Zm-30.5,0c0-.68945,.56055-1.25,1.25-1.25h1.25v6.5h-1.25c-.68945,0-1.25-.56055-1.25-1.25v-4Z"/><path d="M68.01416,66.75c1.5166,0,2.75-1.2334,2.75-2.75V30c0-1.5166-1.2334-2.75-2.75-2.75h-10.01416v1.5h10.01416c.68945,0,1.25,.56055,1.25,1.25v29.25H10.76416V30c0-.68945,.56055-1.25,1.25-1.25h11.98584v-1.5H12.01416c-1.5166,0-2.75,1.2334-2.75,2.75v34c0,1.5166,1.2334,2.75,2.75,2.75h27.25v2.5h-13.25v1.5h28v-1.5h-13.25v-2.5h27.25Zm-56-1.5c-.68945,0-1.25-.56055-1.25-1.25v-3.25h58.5v3.25c0,.68945-.56055,1.25-1.25,1.25H12.01416Z"/></svg>