<?xml version="1.0" encoding="UTF-8"?><svg id="a" xmlns="http://www.w3.org/2000/svg" viewBox="0 0 80 80"><path d="M22,40.75h3.12109l.03711,13.25244c.00098,.46387,.37793,.83936,.8418,.83936h29.94214c.01978,.00049,.03809,.00586,.05786,.00586,1.57031,0,2.84766-1.27734,2.84766-2.84766v-11.29297c6.63477-.43945,11.90234-5.96289,11.90234-12.70703,0-7.03027-5.71973-12.75-12.75-12.75H22.70581c-.08838-.79541-.31958-1.54663-.66064-2.23462l3.01538-3.01538-1.06055-1.06055-2.7832,2.7832c-1.23877-1.50854-3.11719-2.47266-5.2168-2.47266-3.72168,0-6.75,3.02783-6.75,6.75s3.02832,6.75,6.75,6.75c3.46802,0,6.33105-2.62988,6.70581-6H58c6.20312,0,11.25,5.04688,11.25,11.25,0,5.91699-4.59497,10.771-10.40234,11.20703v-13.20703c0-.46826-.37891-.84766-.84766-.84766H28.29883c-.46875,0-.84766,.37939-.84766,.84766v3.0957l-1.5166-.00342h-.00195c-.22363,0-.4375,.08887-.5957,.24658-.1582,.15869-.24707,.37354-.24609,.59766l.02612,9.31348h-3.11694c-7.03027,0-12.75,5.71973-12.75,12.75s5.71973,12.75,12.75,12.75H57.29419c.37476,3.37012,3.23779,6,6.70581,6,3.72168,0,6.75-3.02783,6.75-6.75s-3.02832-6.75-6.75-6.75c-3.46802,0-6.33105,2.62988-6.70581,6H22c-6.20312,0-11.25-5.04688-11.25-11.25s5.04688-11.25,11.25-11.25Zm-6-19.5c-2.89453,0-5.25-2.35498-5.25-5.25s2.35547-5.25,5.25-5.25c1.68701,0,3.17407,.81372,4.13525,2.0542l-4.13525,4.13525-2-2-1.06055,1.06055,2.53027,2.53027c.14648,.14648,.33789,.21973,.53027,.21973s.38379-.07324,.53027-.21973l4.36938-4.36938c.21655,.57446,.35034,1.1897,.35034,1.83911,0,2.89502-2.35547,5.25-5.25,5.25Zm13.14648,5.59766h28.00586v25.15234c0,.63525-.5166,1.15234-1.15234,1.15234s-1.15234-.51709-1.15234-1.15234v-2h-.00586V30c0-.46387-.37598-.84082-.83984-.8418l-24.85547-.05835v-2.2522Zm24.01172,3.99219v19.16016h-.00586v2c0,.41309,.09277,.80347,.25171,1.1582H26.83984l-.06348-22.38037,26.38184,.06201Zm10.8418,27.91016c2.89453,0,5.25,2.35498,5.25,5.25s-2.35547,5.25-5.25,5.25-5.25-2.35498-5.25-5.25,2.35547-5.25,5.25-5.25Z"/><rect x="30" y="35.15234" width="20" height="1.69531"/><rect x="30" y="41.15234" width="20" height="1.69531"/><rect x="30" y="47.15234" width="14" height="1.69531"/></svg>