<?xml version="1.0" encoding="UTF-8"?><svg id="a" xmlns="http://www.w3.org/2000/svg" viewBox="0 0 80 80"><path d="M39.25,14v1.57593c-1.9165,.35449-3.375,2.03149-3.375,4.04907,0,2.27441,1.85059,4.125,4.125,4.125,1.44727,0,2.625,1.17773,2.625,2.625s-1.17773,2.625-2.625,2.625-2.625-1.17773-2.625-2.625h-1.5c0,2.01758,1.4585,3.69458,3.375,4.04907v1.57593h1.5v-1.57593c1.9165-.35449,3.375-2.03149,3.375-4.04907,0-2.27441-1.85059-4.125-4.125-4.125-1.44727,0-2.625-1.17773-2.625-2.625s1.17773-2.625,2.625-2.625,2.625,1.17773,2.625,2.625h1.5c0-2.01758-1.4585-3.69458-3.375-4.04907v-1.57593h-1.5Z"/><path d="M70.76367,32c0-1.5166-1.2334-2.75-2.75-2.75h-12.01367v1.5h12.01367c.68945,0,1.25,.56055,1.25,1.25v27.25H10.76367v-27.25c0-.68945,.56055-1.25,1.25-1.25h11.98633v-1.5H12.01367c-1.5166,0-2.75,1.2334-2.75,2.75v32c0,1.5166,1.2334,2.75,2.75,2.75h27.23633v2.5h-13.23633v1.5h28v-1.5h-13.26367v-2.5h27.26367c1.5166,0,2.75-1.2334,2.75-2.75V32Zm-1.5,32c0,.68945-.56055,1.25-1.25,1.25H12.01367c-.68945,0-1.25-.56055-1.25-1.25v-3.25h58.5v3.25Z"/><path d="M26.24512,23c0,7.58154,6.16797,13.75,13.75,13.75s13.75-6.16846,13.75-13.75-6.16797-13.75-13.75-13.75-13.75,6.16846-13.75,13.75Zm26,0c0,6.75488-5.49512,12.25-12.25,12.25s-12.25-5.49512-12.25-12.25,5.49512-12.25,12.25-12.25,12.25,5.49512,12.25,12.25Z"/></svg>