<?xml version="1.0" encoding="UTF-8"?>
<svg id="art" xmlns="http://www.w3.org/2000/svg" viewBox="0 0 80 80">
  <defs>
    <style>
      .cls-1, .cls-2, .cls-3 {
        fill: none;
        stroke: currentColor;
        stroke-linejoin: round;
      }

      .cls-1, .cls-3 {
        stroke-width: 1.5px;
      }

      .cls-2 {
        stroke-width: 1.5px;
      }

      .cls-3 {
        stroke-linecap: round;
      }
    </style>
  </defs>
  <g>
    <circle class="cls-3" cx="40" cy="42" r="8"/>
    <path class="cls-1" d="m28,72v-12c0-3.31,2.69-6,6-6h12c3.31,0,6,2.69,6,6v12"/>
    <circle class="cls-3" cx="19" cy="51" r="5"/>
    <path class="cls-1" d="m24,60h-9c-2.76,0-5,2.24-5,5v7"/>
    <circle class="cls-3" cx="61" cy="51" r="5"/>
    <path class="cls-1" d="m70,72v-7c0-2.76-2.24-5-5-5h-9"/>
  </g>
  <g>
    <path class="cls-2" d="m38.36,66.39c0,.91.73,1.64,1.64,1.64s1.64-.73,1.64-1.64-.73-1.64-1.64-1.64-1.64-.73-1.64-1.64.73-1.64,1.64-1.64,1.64.73,1.64,1.64"/>
    <line class="cls-2" x1="40" y1="68.03" x2="40" y2="70"/>
    <line class="cls-2" x1="40" y1="61.47" x2="40" y2="59.5"/>
  </g>
  <polyline class="cls-1" points="10 30 40 10 70 30"/>
  <polyline class="cls-1" points="22 30 40 18 58 30"/>
  <polyline class="cls-1" points="34 30 40 26 46 30"/>
  <polyline class="cls-1" points="52 18 52 12 60 12 60 23.33"/>
</svg>