<?xml version="1.0" encoding="UTF-8"?><svg id="a" xmlns="http://www.w3.org/2000/svg" viewBox="0 0 80 80"><path d="M53.37598,20.04443h.99756c.16113,0,.29199-.1308,.29199-.29218v-5.22028l1.89014,5.40826c.02197,.06238,.08057,.10419,.14697,.10419h1.30371c.06641,0,.12549-.04236,.14697-.10529l1.84668-5.4187v5.36853c0,.08588,.06934,.15546,.15527,.15546h1.38232c.08545,0,.15527-.06958,.15527-.15546v-7.70746c0-.08582-.06982-.1554-.15527-.1554h-1.92676c-.06689,0-.12598,.0426-.14697,.10583l-1.92529,5.72144c-.04736,.14044-.24561,.14136-.29395,.0014l-1.98633-5.72418c-.02197-.06256-.08057-.10449-.14697-.10449h-1.87207c-.08594,0-.15527,.06958-.15527,.1554v7.57074c0,.16138,.13086,.29218,.29199,.29218Z"/><path d="M65.90137,18.83789c-.59082,0-.9541-.31055-1.09082-.93066h-1.72656c.09863,.65137,.37109,1.17383,.81836,1.56738,.5,.43164,1.1543,.64746,1.96484,.64746s1.49609-.22363,2.05566-.6709c.66699-.53711,1-1.27148,1-2.20312,0-.75-.2041-1.35547-.61328-1.81738-.4541-.51465-1.0791-.77246-1.87402-.77246-.49219,0-.93945,.125-1.34082,.375l.09375-1.63379c.00488-.08386,.07422-.14941,.1582-.14941h3.00781v-1.25h-4.59717c-.08447,0-.1543,.06647-.1582,.151l-.19678,4.15466h1.39746c.14355-.14453,.31348-.26172,.51074-.35254s.38672-.13672,.56836-.13672c.80957,0,1.21484,.5,1.21484,1.5,0,.46191-.10156,.8291-.30664,1.10156-.21191,.28027-.50684,.41992-.88574,.41992Z"/><path d="M38,49.77051H12c-.41406,0-.75,.33594-.75,.75v16c0,.41406,.33594,.75,.75,.75h26c.41406,0,.75-.33594,.75-.75v-16c0-.41406-.33594-.75-.75-.75Zm-.75,16H12.75v-14.5h24.5v14.5Z"/><path d="M70,27.77051h-25.25V12.52051c0-.41406-.33594-.75-.75-.75H18c-.41406,0-.75,.33594-.75,.75V44.52051c0,.41406,.33594,.75,.75,.75h25.25v15.25c0,.41406,.33594,.75,.75,.75h26c.41406,0,.75-.33594,.75-.75V28.52051c0-.41406-.33594-.75-.75-.75Zm-.75,16h-24.5v-14.5h24.5v14.5ZM18.75,13.27051h24.5v14.5H18.75V13.27051Zm0,16h24.5v14.5H18.75v-14.5Zm50.5,30.5h-24.5v-14.5h24.5v14.5Z"/><circle cx="24" cy="20.52045" r="1"/><circle cx="24" cy="36.52045" r="1"/><circle cx="50" cy="36.52045" r="1"/><circle cx="50" cy="52.52045" r="1"/><circle cx="18" cy="58.52045" r="1"/></svg>