<?xml version="1.0" encoding="UTF-8"?><svg id="a" xmlns="http://www.w3.org/2000/svg" viewBox="0 0 80 80"><path d="M70.75,64v-6c0-.41406-.33594-.75-.75-.75h-25.25v-2.5h25.25v-1.5h-1.26904c-.3938-15.25635-12.72473-27.58716-27.98096-27.98096v-2.51904h4.28711v-1.5h-10.07422v1.5h4.28711v2.51904c-15.25623,.3938-27.58716,12.72461-27.98096,27.98096h-1.26904v1.5h25.25v2.5H10c-.41406,0-.75,.33594-.75,.75v6c0,.41406,.33594,.75,.75,.75h60c.41406,0,.75-.33594,.75-.75ZM12.75977,53.25c.39844-14.68066,12.46484-26.5,27.24023-26.5s26.8418,11.81934,27.24023,26.5H12.75977Zm30.49023,1.5v2.5h-6.5v-2.5h6.5Zm26,8.5H10.75v-4.5h58.5v4.5Z"/><rect x="39.25" y="8" width="1.5" height="10"/><rect x="13.25008" y="20.34315" width="1.49984" height="11.31371" transform="translate(-14.28427 17.51472) rotate(-45)"/><rect x="60.34315" y="25.25008" width="11.31371" height="1.49984" transform="translate(.94618 54.28427) rotate(-45)"/></svg>