<svg xmlns="http://www.w3.org/2000/svg" viewBox="0 0 80 80"><path d="M52,23.25H48a.7502.7502,0,0,0-.75.75v4a.74942.74942,0,0,0,.21973.53027l2,2a.74971.74971,0,0,0,1.06054,0l2-2A.74942.74942,0,0,0,52.75,28V24A.7502.7502,0,0,0,52,23.25Zm-.75,4.43945-1.25,1.25-1.25-1.25V24.75h2.5Z"/><path d="M70.47241,31.40283,58.14062,17.5293A12.76017,12.76017,0,0,0,48.61133,13.25H48l-.002.00049a.66588.66588,0,0,0-.40772.13647.70723.70723,0,0,0-.08349.04761C46.49805,14.31445,43.5127,15.25,39.96777,15.25c-3.49218,0-6.459-.93652-7.47754-1.81738a.6808.6808,0,0,0-.09814-.05518A1.26508,1.26508,0,0,0,32,13.25h-.61133a12.76017,12.76017,0,0,0-9.52929,4.2793L9.43945,31.502a.73962.73962,0,0,0-.11621.196c-.00512.01147-.01465.021-.01928.03271a.73768.73768,0,0,0-.04078.20874c-.00219.02564-.012.04981-.01172.07569a.74361.74361,0,0,0,.02295.11816.73119.73119,0,0,0,.19532.40479l7.99609,7.99609a.74972.74972,0,0,0,1.06055,0l.00146-.00244.00244-.00147L23.25,35.81055V70a.7502.7502,0,0,0,.75.75H56a.7502.7502,0,0,0,.75-.75V35.81055l4.71973,4.71972a.74326.74326,0,0,0,.55.21582c.01342.00074.02612.00782.03979.00782a.74675.74675,0,0,0,.53027-.21973L70.585,32.53809a.74973.74973,0,0,0,0-1.06055A.709.709,0,0,0,70.47241,31.40283ZM39.96777,16.75a20.86343,20.86343,0,0,0,4.76831-.55054l-4.738,4.738L35.2627,16.20215A20.48517,20.48517,0,0,0,39.96777,16.75ZM18,38.93945l-6.96973-6.96972,1.65992-1.86744,7.07348,7.07349Zm38.53027-5.46972A.74965.74965,0,0,0,55.25,34V69.25H24.75V34a.74965.74965,0,0,0-1.28027-.53027l-2.64551,2.6455-7.136-7.136,9.29224-10.45386A11.25971,11.25971,0,0,1,31.38867,14.75h.30078l7.78028,7.78027a.74972.74972,0,0,0,1.06054,0L48.31055,14.75h.30078a11.25971,11.25971,0,0,1,8.4082,3.77539L66.3374,29.0083l-7.13428,7.13428ZM62,38.93945l-1.73633-1.73633,7.07178-7.07177,1.63428,1.83838Z"/><path d="M40,27.25A4.7554,4.7554,0,0,0,35.25,32v8a4.75,4.75,0,0,0,9.5,0V32A4.7554,4.7554,0,0,0,40,27.25ZM43.25,40a3.25,3.25,0,0,1-6.5,0V32a3.25,3.25,0,0,1,6.5,0Z"/></svg>