<?xml version="1.0" encoding="UTF-8"?><svg id="a" xmlns="http://www.w3.org/2000/svg" viewBox="0 0 80 80"><path d="M62.76367,16c0-1.5166-1.2334-2.75-2.75-2.75h-11.25v-3.25c0-.41406-.33594-.75-.75-.75h-16c-.41406,0-.75,.33594-.75,.75v3.25h-11.25c-1.5166,0-2.75,1.2334-2.75,2.75v52c0,1.5166,1.2334,2.75,2.75,2.75H60.01367c1.5166,0,2.75-1.2334,2.75-2.75V16Zm-30-5.25h14.5v4.5h-14.5v-4.5Zm28.5,57.25c0,.68945-.56055,1.25-1.25,1.25H20.01367c-.68945,0-1.25-.56055-1.25-1.25V16c0-.68945,.56055-1.25,1.25-1.25h11.25v1.25c0,.41406,.33594,.75,.75,.75h16c.41406,0,.75-.33594,.75-.75v-1.25h11.25c.68945,0,1.25,.56055,1.25,1.25v52Z"/><rect x="32" y="21.25" width="24" height="1.5"/><rect x="32" y="25.25" width="18" height="1.5"/><path d="M28,33.25h-3.98633c-.41406,0-.75,.33594-.75,.75v3.98584c0,.41406,.33594,.75,.75,.75h3.98633c.41406,0,.75-.33594,.75-.75v-3.98584c0-.41406-.33594-.75-.75-.75Zm-.75,3.98584h-2.48633v-2.48584h2.48633v2.48584Z"/><rect x="32" y="33.25" width="24" height="1.5"/><rect x="32" y="37.25" width="18" height="1.5"/><path d="M28,45.25h-3.98633c-.41406,0-.75,.33594-.75,.75v3.98584c0,.41406,.33594,.75,.75,.75h3.98633c.41406,0,.75-.33594,.75-.75v-3.98584c0-.41406-.33594-.75-.75-.75Zm-.75,3.98584h-2.48633v-2.48584h2.48633v2.48584Z"/><rect x="32" y="45.25" width="24" height="1.5"/><rect x="32" y="49.25" width="18" height="1.5"/><path d="M28,57.25h-3.98633c-.41406,0-.75,.33594-.75,.75v3.98584c0,.41406,.33594,.75,.75,.75h3.98633c.41406,0,.75-.33594,.75-.75v-3.98584c0-.41406-.33594-.75-.75-.75Zm-.75,3.98584h-2.48633v-2.48584h2.48633v2.48584Z"/><rect x="32" y="57.25" width="24" height="1.5"/><rect x="32" y="61.25" width="18" height="1.5"/><polygon points="24.53027 26.53027 26 25.06055 27.46973 26.53027 28.53027 25.46973 27.06055 24 28.53027 22.53027 27.46973 21.46973 26 22.93945 24.53027 21.46973 23.46973 22.53027 24.93945 24 23.46973 25.46973 24.53027 26.53027"/></svg>