<?xml version="1.0" encoding="UTF-8"?><svg id="a" xmlns="http://www.w3.org/2000/svg" viewBox="0 0 80 80"><path d="M70,23.25h-19.16992l2.69238-4.84619c.39941-.71875,.48535-1.54639,.24219-2.33154-.24316-.78467-.78125-1.41895-1.5166-1.78662-1.43164-.71582-3.16406-.18066-3.94238,1.21973l-4.30566,7.75049v-.00586H10c-.41406,0-.75,.33594-.75,.75V62c0,.41406,.33594,.75,.75,.75h60c.41406,0,.75-.33594,.75-.75V24c0-.41406-.33594-.75-.75-.75Zm-20.38379-7.01611c.3877-.6958,1.24805-.96338,1.96191-.60645,.36523,.18262,.63281,.49805,.75391,.88867,.12012,.39014,.07812,.80225-.12012,1.15918l-8.75488,15.75732-2.70703,1.35352v-2.5918l8.86621-15.96045Zm-10.27148,15.40186c-.0625,.11133-.09473,.23633-.09473,.36426v3.25h-5.25v1.5h3.88818c-1.65918,1.62793-2.63818,3.87549-2.63818,6.25,0,4.8252,3.9248,8.75,8.75,8.75s8.75-3.9248,8.75-8.75c0-3.11426-1.67578-6.01855-4.375-7.5791l-.75,1.29883c2.23535,1.29297,3.625,3.69922,3.625,6.28027,0,3.99805-3.25195,7.25-7.25,7.25s-7.25-3.25195-7.25-7.25c0-2.11011,.9397-4.09229,2.5-5.45605v4.45605h1.5v-5.53662l3.58496-1.79248c.13574-.06738,.24707-.1748,.32031-.30664l2.00806-3.61426h18.58667v24.5H22.75V30.75h17.08691l-.49219,.88574Zm29.90527,29.61426H10.75V24.75H43.16992l-2.49976,4.5H22c-.41406,0-.75,.33594-.75,.75v26c0,.41406,.33594,.75,.75,.75h44c.41406,0,.75-.33594,.75-.75V30c0-.41406-.33594-.75-.75-.75h-18.50342l2.50342-4.50586v.00586h19.25V61.25Z"/><path d="M18,49.25h-4c-.41406,0-.75,.33594-.75,.75v4c0,.41406,.33594,.75,.75,.75h4c.41406,0,.75-.33594,.75-.75v-4c0-.41406-.33594-.75-.75-.75Zm-.75,4h-2.5v-2.5h2.5v2.5Z"/><path d="M16,39.25c-1.5166,0-2.75,1.2334-2.75,2.75v2c0,1.5166,1.2334,2.75,2.75,2.75s2.75-1.2334,2.75-2.75v-2c0-1.5166-1.2334-2.75-2.75-2.75Zm1.25,4.75c0,.68945-.56055,1.25-1.25,1.25s-1.25-.56055-1.25-1.25v-2c0-.68945,.56055-1.25,1.25-1.25s1.25,.56055,1.25,1.25v2Z"/><path d="M18,31.25h-4c-.41406,0-.75,.33594-.75,.75v4c0,.41406,.33594,.75,.75,.75h4c.41406,0,.75-.33594,.75-.75v-4c0-.41406-.33594-.75-.75-.75Zm-.75,4h-2.5v-2.5h2.5v2.5Z"/></svg>