<?xml version="1.0" encoding="UTF-8"?><svg id="a" xmlns="http://www.w3.org/2000/svg" viewBox="0 0 80 80"><path d="M34.25,15c0,3.1709,2.5791,5.75,5.75,5.75s5.75-2.5791,5.75-5.75-2.5791-5.75-5.75-5.75-5.75,2.5791-5.75,5.75Zm10,0c0,2.34375-1.90625,4.25-4.25,4.25s-4.25-1.90625-4.25-4.25,1.90625-4.25,4.25-4.25,4.25,1.90625,4.25,4.25Z"/><path d="M54,61.25c-2.61914,0-4.75,2.13086-4.75,4.75s2.13086,4.75,4.75,4.75,4.75-2.13086,4.75-4.75-2.13086-4.75-4.75-4.75Zm0,8c-1.79199,0-3.25-1.45801-3.25-3.25s1.45801-3.25,3.25-3.25,3.25,1.45801,3.25,3.25-1.45801,3.25-3.25,3.25Z"/><path d="M50.75,44V28c0-2.61914-2.13086-4.75-4.75-4.75h-12c-2.61914,0-4.75,2.13086-4.75,4.75v16c0,1.5166,1.2334,2.75,2.75,2.75,.45239,0,.87329-.12012,1.25-.31445v23.56445c0,.41406,.33594,.75,.75,.75h12c.41406,0,.75-.33594,.75-.75v-23.56445c.37671,.19434,.79761,.31445,1.25,.31445,1.5166,0,2.75-1.2334,2.75-2.75Zm-8.56055-19.25l-2.18945,2.18945-2.18945-2.18945h4.37891Zm-8.93945,19.25c0,.68945-.56055,1.25-1.25,1.25s-1.25-.56055-1.25-1.25v-7.25h2.5v7.25Zm6,25.25h-4.5v-.25c0-1.24023,1.00977-2.25,2.25-2.25s2.25,1.00977,2.25,2.25v.25Zm0-3.23071c-.62866-.47583-1.40259-.76929-2.25-.76929s-1.62134,.29346-2.25,.76929v-9.26929h4.5v9.26929Zm6,3.23071h-4.5v-.25c0-1.24023,1.00977-2.25,2.25-2.25s2.25,1.00977,2.25,2.25v.25Zm0-3.23071c-.62866-.47583-1.40259-.76929-2.25-.76929s-1.62134,.29346-2.25,.76929v-9.26929h4.5v9.26929Zm0-18.01929v7.25h-4.5v-5.25c0-.41406-.33594-.75-.75-.75s-.75,.33594-.75,.75v5.25h-4.5v-10.5h10.5v3.25Zm4-4c0,.68945-.56055,1.25-1.25,1.25s-1.25-.56055-1.25-1.25v-7.25h2.5v7.25Zm0-8.75h-2.5v-3.25h-1.5v11.25h-10.5v-11.25h-1.5v3.25h-2.5v-7.25c0-1.79199,1.45801-3.25,3.25-3.25h1.68945l3.78027,3.78027c.14648,.14648,.33789,.21973,.53027,.21973s.38379-.07324,.53027-.21973l3.78027-3.78027h1.68945c1.79199,0,3.25,1.45801,3.25,3.25v7.25Z"/><path d="M40,31.25c-1.5166,0-2.75,1.2334-2.75,2.75v4c0,1.5166,1.2334,2.75,2.75,2.75s2.75-1.2334,2.75-2.75v-4c0-1.5166-1.2334-2.75-2.75-2.75Zm1.25,6.75c0,.68945-.56055,1.25-1.25,1.25s-1.25-.56055-1.25-1.25v-4c0-.68945,.56055-1.25,1.25-1.25s1.25,.56055,1.25,1.25v4Z"/></svg>