<?xml version="1.0" encoding="UTF-8"?><svg id="a" xmlns="http://www.w3.org/2000/svg" viewBox="0 0 80 80"><path d="M50,70.75c.41406,0,.75-.33594,.75-.75v-25.70068c4.49316-4.96729,7.54053-23.06934-4.21973-34.82959-.21436-.21436-.5376-.27832-.81738-.1626-.28027,.11621-.46289,.38965-.46289,.69287v60c0,.41406,.33594,.75,.75,.75h4Zm-3.25-58.84863c10.31396,11.84229,6.18555,28.10205,2.71973,31.56836-.14062,.14062-.21973,.33154-.21973,.53027v25.25h-2.5V11.90137Z"/><path d="M23.26416,10V26c0,2.74231,1.64612,5.10315,4,6.15845v37.84155c0,.41406,.33594,.75,.75,.75h4c.41406,0,.75-.33594,.75-.75V32.15845c2.35388-1.0553,4-3.41614,4-6.15845V10h-1.5V26c0,2.89502-2.35498,5.25-5.25,5.25s-5.25-2.35498-5.25-5.25V10h-1.5Zm5.5,22.62927c.40564,.07629,.82251,.12073,1.25,.12073s.84436-.04443,1.25-.12073v36.62073h-2.5V32.62927Z"/><rect x="27.26416" y="10" width="1.5" height="16"/><rect x="31.26416" y="10" width="1.5" height="16"/></svg>