<?xml version="1.0" encoding="utf-8"?>
<!-- Generator: Adobe Illustrator 27.2.0, SVG Export Plug-In . SVG Version: 6.00 Build 0)  -->
<svg version="1.1" id="Layer_1" xmlns="http://www.w3.org/2000/svg" xmlns:xlink="http://www.w3.org/1999/xlink" x="0px" y="0px"
	 viewBox="0 0 80 80" style="enable-background:new 0 0 80 80;" xml:space="preserve">
<style type="text/css">
	.st0{fill:none;}
</style>
<g id="DO_NOT_TOUCH_Outlines_">
	<g>
		<path d="M70,15.2H10c-0.4,0-0.8,0.3-0.8,0.8v44c0,0.4,0.3,0.8,0.8,0.8h36.5v3c0,0.2,0.1,0.5,0.3,0.6c0.2,0.1,0.5,0.2,0.7,0.1
			l2.8-0.9l2.8,0.9c0.1,0,0.2,0,0.2,0c0.2,0,0.3-0.1,0.4-0.1c0.2-0.1,0.3-0.4,0.3-0.6v-3h0h16c0.4,0,0.8-0.3,0.8-0.8V16
			C70.8,15.6,70.4,15.2,70,15.2z M39.2,56.2H13.8V19.8h25.5V56.2z M10.8,16.8h28.5v1.5H13c-0.4,0-0.8,0.3-0.8,0.8v38
			c0,0.4,0.3,0.8,0.8,0.8h26.2v1.5H10.8V16.8z M46.5,59.2h-5.7v-1.5h5.7V59.2z M52.5,62.7l-2-0.7c-0.1,0-0.2,0-0.2,0s-0.2,0-0.2,0
			l-2,0.7v-5h4.5V62.7z M45.8,56.2h-5V19.8h25.5L66,56.2H45.8z M69.2,59.2H54h0v-1.5h13c0.4,0,0.8-0.3,0.8-0.8V19
			c0-0.4-0.3-0.8-0.8-0.8H40.8v-1.5h28.5V59.2z"/>
		<rect x="18" y="25.2" width="18" height="1.5"/>
		<rect x="18" y="31.2" width="18" height="1.5"/>
		<rect x="18" y="37.2" width="18" height="1.5"/>
		<rect x="18" y="43.2" width="18" height="1.5"/>
		<rect x="44" y="25.2" width="18" height="1.5"/>
		<rect x="44" y="31.2" width="18" height="1.5"/>
		<rect x="44" y="37.2" width="9" height="1.5"/>
	</g>
</g>
<g id="export_frame">
	<rect class="st0" width="80" height="80"/>
	<rect class="st0" width="80" height="80"/>
</g>
</svg>
