<?xml version="1.0" encoding="UTF-8"?><svg id="a" xmlns="http://www.w3.org/2000/svg" viewBox="0 0 80 80"><path d="M70.53027,17.46973c-.14062-.14062-.33105-.21973-.53027-.21973h-.00098l-14.04395,.01367c-.2002,0-.3916,.08008-.53223,.22266s-.21875,.33496-.2168,.53516l.03516,3.22852h-8.49121v-3.25c0-.41406-.33594-.75-.75-.75H10c-.41406,0-.75,.33594-.75,.75V62c0,.41406,.33594,.75,.75,.75H46c.41406,0,.75-.33594,.75-.75v-3.25h8.5v3.25c0,.41406,.33594,.75,.75,.75h14c.41406,0,.75-.33594,.75-.75V18c0-.19922-.0791-.38965-.21973-.53027Zm-1.28027,23.78027h-4.5v-2.5h4.5v2.5Zm0-12h-4.5v-2.5h4.5v2.5Zm-30,32H16.60156v-2.5h22.64844v2.5Zm17.5,0v-3.25c0-.41406-.33594-.75-.75-.75h-10c-.41406,0-.75,.33594-.75,.75v3.25h-4.5v-3.25c0-.41406-.33594-.75-.75-.75H15.85156c-.41406,0-.75,.33594-.75,.75v3.25h-4.35156V18.75H45.25v3.25c0,.41406,.33594,.75,.75,.75h10c.2002,0,.39258-.08008,.5332-.22266s.21875-.33496,.2168-.53516l-.03516-3.22949,12.53516-.01172v2.49902h-5.25v1.5h5.25v2.5h-5.25c-.41406,0-.75,.33594-.75,.75v4c0,.41406,.33594,.75,.75,.75h5.25v2.5h-5.25v1.5h5.25v2.5h-5.25c-.41406,0-.75,.33594-.75,.75v4c0,.41406,.33594,.75,.75,.75h5.25v2.5h-5.25c-.41406,0-.75,.33594-.75,.75v10c0,.41406,.33594,.75,.75,.75h5.25v4.5h-12.5Zm12.5-6h-4.5v-8.5h4.5v8.5Z"/><path d="M36.75,32c0-.41406-.33594-.75-.75-.75h-1.25v-3.25h-1.5v3.25h-2.5v-3.25h-1.5v3.25h-2.5v-3.25h-1.5v3.25h-2.5v-3.25h-1.5v3.25h-1.25c-.41406,0-.75,.33594-.75,.75v1.25h-3.25v1.5h3.25v2.5h-3.25v1.5h3.25v2.5h-3.25v1.5h3.25v2.5h-3.25v1.5h3.25v1.25c0,.41406,.33594,.75,.75,.75h1.25v3.25h1.5v-3.25h2.5v3.25h1.5v-3.25h2.5v3.25h1.5v-3.25h2.5v3.25h1.5v-3.25h1.25c.41406,0,.75-.33594,.75-.75v-1.25h3.25v-1.5h-3.25v-2.5h3.25v-1.5h-3.25v-2.5h3.25v-1.5h-3.25v-2.5h3.25v-1.5h-3.25v-1.25Zm-1.5,15.25h-14.5v-14.5h14.5v14.5Z"/><path d="M23.81543,44.75h8.18457c.41406,0,.75-.33594,.75-.75v-8c0-.41406-.33594-.75-.75-.75h-8.18457c-.41406,0-.75,.33594-.75,.75v8c0,.41406,.33594,.75,.75,.75Zm.75-8h6.68457v6.5h-6.68457v-6.5Z"/><path d="M48,30.52344c1.5166,0,2.75-1.2334,2.75-2.75,0-1.51562-1.2334-2.74902-2.75-2.74902s-2.75,1.2334-2.75,2.74902c0,1.5166,1.2334,2.75,2.75,2.75Zm0-3.99902c.68945,0,1.25,.56055,1.25,1.24902,0,.68945-.56055,1.25-1.25,1.25s-1.25-.56055-1.25-1.25c0-.68848,.56055-1.24902,1.25-1.24902Z"/><path d="M48.11426,33.02441c-1.5791,0-2.86426,1.28418-2.86426,2.8623,0,1.5791,1.28516,2.86328,2.86426,2.86328,1.57812,0,2.8623-1.28418,2.8623-2.86328,0-1.57812-1.28418-2.8623-2.8623-2.8623Zm0,4.22559c-.75195,0-1.36426-.61133-1.36426-1.36328,0-.75098,.6123-1.3623,1.36426-1.3623,.75098,0,1.3623,.61133,1.3623,1.3623,0,.75195-.61133,1.36328-1.3623,1.36328Z"/><path d="M48.11426,41.02441c-1.5791,0-2.86426,1.28418-2.86426,2.8623,0,1.5791,1.28516,2.86328,2.86426,2.86328,1.57812,0,2.8623-1.28418,2.8623-2.86328,0-1.57812-1.28418-2.8623-2.8623-2.8623Zm0,4.22559c-.75195,0-1.36426-.61133-1.36426-1.36328,0-.75098,.6123-1.3623,1.36426-1.3623,.75098,0,1.3623,.61133,1.3623,1.3623,0,.75195-.61133,1.36328-1.3623,1.36328Z"/><path d="M48.11426,49.02441c-1.5791,0-2.86426,1.28418-2.86426,2.8623,0,1.5791,1.28516,2.86328,2.86426,2.86328,1.57812,0,2.8623-1.28418,2.8623-2.86328,0-1.57812-1.28418-2.8623-2.8623-2.8623Zm0,4.22559c-.75195,0-1.36426-.61133-1.36426-1.36328,0-.75098,.6123-1.3623,1.36426-1.3623,.75098,0,1.3623,.61133,1.3623,1.3623,0,.75195-.61133,1.36328-1.3623,1.36328Z"/><path d="M55.25,42v10h1.5v-9.25h3.25v-1.5h-4c-.41406,0-.75,.33594-.75,.75Z"/><path d="M59.25,35.25h-3.25v1.5h4c.41406,0,.75-.33594,.75-.75v-10h-1.5v9.25Z"/></svg>