<?xml version="1.0" encoding="UTF-8"?><svg id="a" xmlns="http://www.w3.org/2000/svg" viewBox="0 0 80 80"><path d="M40,9.25c-16.95605,0-30.75,13.79395-30.75,30.75s13.79395,30.75,30.75,30.75,30.75-13.79395,30.75-30.75-13.79395-30.75-30.75-30.75Zm0,1.5c2.71216,0,5.33618,.37891,7.83008,1.07275l-8.01099,2.64453-7.96216-2.55542c2.58691-.75122,5.31714-1.16187,8.14307-1.16187Zm10.66846,25.68945l-1.98926,6.17261-2.1626,6.65552h-13.47852l-3.97925-12.24658-.18506-.57056,10.90796-7.9209,10.88672,7.90991ZM17.00806,21.95117c3.22485-4.09937,7.51782-7.31689,12.4585-9.23145l9.60376,3.08301-.03125,11.40674-11.17798,8.12158-10.87939-3.57446,.02637-9.80542Zm-1.50586,2.09546l-.02197,8.073-4.69531,6.50488c.24951-5.36108,1.95215-10.34619,4.71729-14.57788Zm-4.72192,17.14697l5.72314-7.92847,10.89429,3.49707,.0437,.13379,4.21411,13.00342-6.56982,9.10498-.11597,.16064-9.38623-3.08496c-2.84521-4.30591-4.58179-9.40332-4.80322-14.88647Zm6.31152,16.96216l7.70459,2.53174,4.99072,6.71924c-5.0332-1.88184-9.40942-5.11377-12.69531-9.25098Zm22.9082,11.09424c-2.68506,0-5.28369-.37109-7.75537-1.05151l-6.05762-8.15601,6.69507-9.2749,13.80225,.01562,6.70532,9.25586-6.08179,8.28662c-2.33667,.60327-4.7854,.92432-7.30786,.92432Zm9.71021-1.66357l5.06616-6.90259,8.2998-2.74219c-3.41113,4.37769-8.03491,7.7627-13.36597,9.64478Zm19.52075-28.33521l-5.19189-7.16821-.03809-8.77246c3.17041,4.54492,5.08032,10.02637,5.22998,15.94067Zm-.03833,2.50513c-.30884,5.18384-1.9751,10.00537-4.64551,14.12012l-9.90259,3.27173-6.73853-9.24731,2.22217-6.89551,2.03223-6.25366,4.40454-1.45532,6.4436-2.07959,6.18408,8.53955Zm-6.65479-10.01294l-6.37378,2.10571-4.4873,1.44775-11.1377-8.08203,.03174-11.4165,9.67285-3.19287c4.80884,1.80396,9.02051,4.8374,12.24878,8.71851l.04541,10.41943Z"/></svg>