<?xml version="1.0" encoding="UTF-8"?><svg id="a" xmlns="http://www.w3.org/2000/svg" viewBox="0 0 80 80"><path d="M54.04492,24.6084c-3.74805-3.74805-8.73047-5.81201-14.03125-5.81201-5.2998,0-10.28223,2.06396-14.03027,5.81201l1.06055,1.06055c3.46484-3.46436,8.07031-5.37256,12.96973-5.37256s9.50586,1.9082,12.9707,5.37256l1.06055-1.06055Z"/><path d="M60.54395,17.46973c-5.37695-5.37744-12.47656-8.21973-20.53027-8.21973-8.05273,0-15.15234,2.84229-20.53027,8.21973l1.06055,1.06055c5.09082-5.08984,11.82324-7.78027,19.46973-7.78027,7.64746,0,14.37988,2.69043,19.46973,7.78027l1.06055-1.06055Z"/><path d="M47.29785,32.11816c-1.94434-1.94482-4.53027-3.01562-7.28125-3.01562-2.75,0-5.33594,1.0708-7.28027,3.01562l1.06055,1.06055c1.66113-1.66113,3.87012-2.57617,6.21973-2.57617,2.35059,0,4.55957,.91504,6.2207,2.57617l1.06055-1.06055Z"/><path d="M15.41406,21.54346c-9.13867,12.1499-7.91113,29.43262,2.85645,40.2002,5.99512,5.99463,13.86914,8.9917,21.74316,8.9917,7.875,0,15.74902-2.99707,21.74414-8.9917,10.76758-10.76758,11.99512-28.05029,2.85645-40.2002l-1.19922,.90137c8.69238,11.55664,7.52441,27.99561-2.71777,38.23828-11.4043,11.40234-29.95996,11.4043-41.36621,0-10.24219-10.24268-11.41016-26.68164-2.71777-38.23828l-1.19922-.90137Z"/><path d="M40.01367,60.75c11.44141,0,20.75-9.30859,20.75-20.75,0-4.53174-1.43457-8.83789-4.14941-12.45215l-1.19922,.90039c2.51758,3.35303,3.84863,7.34717,3.84863,11.55176,0,10.61426-8.63574,19.25-19.25,19.25s-19.25-8.63574-19.25-19.25c0-4.20459,1.33105-8.19922,3.84961-11.55127l-1.19922-.90137c-2.71484,3.61426-4.15039,7.92041-4.15039,12.45264,0,11.44141,9.30859,20.75,20.75,20.75Z"/><path d="M30.1582,35.7002c-1.77832,4.08105-.89355,8.75244,2.25488,11.90137,2.0957,2.09521,4.84863,3.14307,7.60059,3.14307,2.75293,0,5.50586-1.04785,7.60156-3.14307,3.13086-3.13135,4.02051-7.94971,2.21484-11.99023l-1.36914,.6123c1.55371,3.47656,.78809,7.62256-1.90625,10.31738-3.60645,3.60547-9.47461,3.60645-13.08105,0-2.70898-2.70947-3.4707-6.72949-1.94043-10.24121l-1.375-.59961Z"/><path d="M37.26367,40c0,1.5166,1.2334,2.75,2.75,2.75s2.75-1.2334,2.75-2.75-1.2334-2.75-2.75-2.75-2.75,1.2334-2.75,2.75Zm4,0c0,.68945-.56055,1.25-1.25,1.25s-1.25-.56055-1.25-1.25,.56055-1.25,1.25-1.25,1.25,.56055,1.25,1.25Z"/></svg>