<?xml version="1.0" encoding="UTF-8"?><svg id="a" xmlns="http://www.w3.org/2000/svg" viewBox="0 0 80 80"><path d="M25.63184,48.52881l14,7.875c.11426,.06396,.24121,.09619,.36816,.09619s.25391-.03223,.36816-.09619l14-7.875c.23535-.13281,.38184-.38281,.38184-.65381v-7.125h3.25c7.03027,0,12.75-5.71973,12.75-12.75s-5.71973-12.75-12.75-12.75H22.70581c-.08838-.79541-.31958-1.54663-.66064-2.23462l3.01538-3.01538-1.06055-1.06055-2.7832,2.7832c-1.23877-1.50854-3.11719-2.47266-5.2168-2.47266-3.72168,0-6.75,3.02783-6.75,6.75s3.02832,6.75,6.75,6.75c3.46802,0,6.33105-2.62988,6.70581-6H58c6.20312,0,11.25,5.04688,11.25,11.25s-5.04688,11.25-11.25,11.25h-3.25v-7.125c0-.271-.14648-.521-.38184-.65381l-14-7.875c-.22852-.12793-.50781-.12793-.73633,0l-14,7.875c-.23535,.13281-.38184,.38281-.38184,.65381v7.125h-3.25c-7.03027,0-12.75,5.71973-12.75,12.75s5.71973,12.75,12.75,12.75H57.29419c.37476,3.37012,3.23779,6,6.70581,6,3.72168,0,6.75-3.02783,6.75-6.75s-3.02832-6.75-6.75-6.75c-3.46802,0-6.33105,2.62988-6.70581,6H22c-6.20312,0-11.25-5.04688-11.25-11.25s5.04688-11.25,11.25-11.25h3.25v7.125c0,.271,.14648,.521,.38184,.65381Zm-9.63184-27.27881c-2.89453,0-5.25-2.35498-5.25-5.25s2.35547-5.25,5.25-5.25c1.68701,0,3.17407,.81372,4.13525,2.0542l-4.13525,4.13525-2-2-1.06055,1.06055,2.53027,2.53027c.14648,.14648,.33789,.21973,.53027,.21973s.38379-.07324,.53027-.21973l4.36938-4.36938c.21655,.57446,.35034,1.1897,.35034,1.83911,0,2.89502-2.35547,5.25-5.25,5.25Zm10.75,11.31348l13.25-7.45312,13.25,7.45312v14.87305l-13.25,7.45312-13.25-7.45312v-14.87305Zm37.25,26.18652c2.89453,0,5.25,2.35498,5.25,5.25s-2.35547,5.25-5.25,5.25-5.25-2.35498-5.25-5.25,2.35547-5.25,5.25-5.25Z"/><path d="M45.25,46h1.5c0-2.7373-1.64062-5.09399-3.9873-6.1521,1.19824-.86328,1.9873-2.26147,1.9873-3.8479,0-2.61914-2.13086-4.75-4.75-4.75s-4.75,2.13086-4.75,4.75c0,1.58643,.78906,2.98462,1.9873,3.8479-2.34668,1.05811-3.9873,3.41479-3.9873,6.1521h1.5c0-2.89502,2.35547-5.25,5.25-5.25s5.25,2.35498,5.25,5.25Zm-8.5-10c0-1.79199,1.45801-3.25,3.25-3.25s3.25,1.45801,3.25,3.25-1.45801,3.25-3.25,3.25-3.25-1.45801-3.25-3.25Z"/></svg>