<?xml version="1.0" encoding="UTF-8"?><svg id="a" xmlns="http://www.w3.org/2000/svg" viewBox="0 0 80 80"><path d="M67.01416,19.25H13.01416c-2.06787,0-3.75,1.68213-3.75,3.75v18c0,2.06738,1.68213,3.75,3.75,3.75h2.32593c.36255,2.26172,2.31177,4,4.67407,4s4.31152-1.73828,4.67407-4h2.05127c-.04297,.14355-.09692,.28223-.12671,.43164l-1.33398,6.6709c-.00439,.02246,.00391,.04443,.00159,.06714-.00305,.02759-.01624,.05176-.01624,.08032v6c0,2.38599,1.77405,4.34741,4.06885,4.68115,.33374,2.29492,2.29517,4.06885,4.68115,4.06885,2.3623,0,4.31152-1.73828,4.67407-4h17.19336c.36255,2.26172,2.31177,4,4.67407,4s4.31152-1.73828,4.67407-4h4.78442c.41406,0,.75-.33594,.75-.75v-4.54199c0-3.42285-2.78516-6.20801-6.2085-6.20801h-3.57544l-1.52466-2.54102c.1803,.02075,.36084,.04102,.54443,.04102,2.3623,0,4.31152-1.73828,4.67407-4h2.34009c2.06787,0,3.75-1.68262,3.75-3.75V23c0-2.06787-1.68213-3.75-3.75-3.75Zm-16.25,1.5h8.5v8.88135c-1.05127-.24048-2.13635-.38135-3.25-.38135h-5.25v-8.5Zm0,10h5.25c1.11731,0,2.20459,.1521,3.25,.41992v8.15454c-1.87341,.29468-3.37524,1.67847-3.84558,3.48828-1.21741-.98657-2.74939-1.56274-4.35217-1.56274h-.30225v-10.5Zm4.94385,14.62793l3.52295,5.87207h-10.4668v-8.5h2.30225c1.89062,0,3.66895,1.00684,4.6416,2.62793Zm-14.94385-24.62793h8.5v8.5h-8.5v-8.5Zm-10,0h8.5v8.5h-8.5v-8.5Zm-10,0h8.5v8.5h-8.5v-8.5Zm-10,2.25c0-1.24023,1.00928-2.25,2.25-2.25h6.25v8.5H10.76416v-6.25Zm9.25,24.25c-1.79199,0-3.25-1.45801-3.25-3.25s1.45801-3.25,3.25-3.25,3.25,1.45801,3.25,3.25-1.45801,3.25-3.25,3.25Zm4.67407-4c-.36255-2.26172-2.31177-4-4.67407-4s-4.31152,1.73828-4.67407,4h-2.32593c-1.24072,0-2.25-1.00977-2.25-2.25v-10.25H49.26416v10.5H31.40967c-1.58838,0-3.02002,.78345-3.92114,2h-2.80029Zm22.57593-.5v8.5h-8.5v-8.5h8.5Zm-10,0v8.5h-10.33496l1.1543-5.77344c.31592-1.58008,1.71484-2.72656,3.32617-2.72656h5.85449Zm-3.25,22.5c-1.79199,0-3.25-1.45801-3.25-3.25s1.45801-3.25,3.25-3.25,3.25,1.45801,3.25,3.25-1.45801,3.25-3.25,3.25Zm26.5415,0c-1.79199,0-3.25-1.45801-3.25-3.25s1.45801-3.25,3.25-3.25,3.25,1.45801,3.25,3.25-1.45801,3.25-3.25,3.25Zm0-12.5h4c2.59619,0,4.7085,2.1123,4.7085,4.70801v3.79199h-4.03442c-.36255-2.26172-2.31177-4-4.67407-4s-4.31152,1.73828-4.67407,4h-17.19336c-.36255-2.26172-2.31177-4-4.67407-4-2.33826,0-4.27588,1.7019-4.66699,3.92969-1.4729-.30859-2.58301-1.61646-2.58301-3.17969v-5.25H60.55566Zm-.55566-5.5c-.61475,0-1.20557-.1792-1.72351-.50635l-1.28235-2.13721c-.06763-.11279-.14966-.21387-.22339-.32202-.0105-.09351-.02075-.18628-.02075-.28442,0-1.79199,1.45801-3.25,3.25-3.25s3.25,1.45801,3.25,3.25-1.45801,3.25-3.25,3.25Zm7.01416-4h-2.34009c-.32239-2.01123-1.90063-3.59424-3.90991-3.92285v-7.68408c4.28882,1.66431,7.5592,5.50928,8.3219,10.23364-.34253,.80615-1.14221,1.37329-2.0719,1.37329Zm2.25-5.69141c-1.72363-3.51562-4.79919-6.22607-8.5-7.5v-9.30859h6.25c1.24072,0,2.25,1.00977,2.25,2.25v14.55859Z"/></svg>