<svg id="DO_NOT_TOUCH_Outlines_" data-name="DO NOT TOUCH (Outlines)" xmlns="http://www.w3.org/2000/svg" viewBox="0 0 80 80"><path d="M38,67.24H12a.75.75,0,0,1-.75-.75v-16a.76.76,0,0,1,.75-.75H38a.76.76,0,0,1,.75.75v16A.75.75,0,0,1,38,67.24Zm-25.25-1.5h24.5V51.24H12.75Z"/><path d="M44,45.24H18a.75.75,0,0,1-.75-.75v-16a.76.76,0,0,1,.75-.75H44a.76.76,0,0,1,.75.75v16A.75.75,0,0,1,44,45.24Zm-25.25-1.5h24.5V29.24H18.75Z"/><path d="M44,29.24H18a.75.75,0,0,1-.75-.75v-16a.76.76,0,0,1,.75-.75H44a.76.76,0,0,1,.75.75v16A.75.75,0,0,1,44,29.24Zm-25.25-1.5h24.5V13.24H18.75Z"/><path d="M70,45.24H44a.75.75,0,0,1-.75-.75v-16a.76.76,0,0,1,.75-.75H70a.76.76,0,0,1,.75.75v16A.75.75,0,0,1,70,45.24Zm-25.25-1.5h24.5V29.24H44.75Z"/><path d="M70,61.24H44a.75.75,0,0,1-.75-.75v-16a.76.76,0,0,1,.75-.75H70a.76.76,0,0,1,.75.75v16A.75.75,0,0,1,70,61.24Zm-25.25-1.5h24.5V45.24H44.75Z"/><circle cx="24" cy="20.49" r="1"/><circle cx="24" cy="36.49" r="1"/><circle cx="50" cy="36.49" r="1"/><circle cx="50" cy="52.49" r="1"/><circle cx="18" cy="58.49" r="1"/></svg>