<?xml version="1.0" encoding="UTF-8"?><svg id="a" xmlns="http://www.w3.org/2000/svg" viewBox="0 0 80 80"><path d="M68,21.25h-16v1.5h16c.68945,0,1.25,.56055,1.25,1.25v29.25H10.75V24c0-.68945,.56055-1.25,1.25-1.25H28v-1.5H12c-1.5166,0-2.75,1.2334-2.75,2.75V58c0,1.5166,1.2334,2.75,2.75,2.75h27.25v2.5h-13.25v1.5h28v-1.5h-13.25v-2.5h27.25c1.5166,0,2.75-1.2334,2.75-2.75V24c0-1.5166-1.2334-2.75-2.75-2.75Zm0,38H12c-.68945,0-1.25-.56055-1.25-1.25v-3.25h58.5v3.25c0,.68945-.56055,1.25-1.25,1.25Z"/><path d="M37.25,28.23682v17.76318c0,1.5166,1.2334,2.75,2.75,2.75s2.75-1.2334,2.75-2.75V28.23682c2.91797-1.11279,5-3.93262,5-7.23682,0-3.40137-2.27637-6.45508-5.53613-7.4248-.22656-.06836-.47266-.02441-.66211,.11719s-.30176,.36523-.30176,.60156v6.95605h-2.5v-6.95605c0-.23633-.1123-.45996-.30176-.60156-.18848-.14062-.43262-.18359-.66211-.11719-3.25977,.96973-5.53613,4.02344-5.53613,7.4248,0,3.3042,2.08203,6.12402,5,7.23682Zm4,17.76318c0,.68945-.56055,1.25-1.25,1.25s-1.25-.56055-1.25-1.25V28.63965c.4082,.06665,.82324,.11035,1.25,.11035s.8418-.0437,1.25-.11035v17.36035Zm-4-30.60938v6.60938c0,.41406,.33594,.75,.75,.75h4c.41406,0,.75-.33594,.75-.75v-6.60938c2.10254,1.03613,3.5,3.21582,3.5,5.60938,0,3.44629-2.80371,6.25-6.25,6.25s-6.25-2.80371-6.25-6.25c0-2.39355,1.39746-4.57324,3.5-5.60938Z"/></svg>