<svg id="DO_NOT_TOUCH_Outlines_" data-name="DO NOT TOUCH (Outlines)" xmlns="http://www.w3.org/2000/svg" viewBox="0 0 80 80"><path d="M44,35.25H37.21l3.46-6.91-1.34-.68-4,8a.76.76,0,0,0,0,.73.74.74,0,0,0,.64.36h6.79l-3.46,6.91,1.34.68,4-8a.76.76,0,0,0,0-.73A.74.74,0,0,0,44,35.25Z"/><path d="M70,21.25H68.75V16h-1.5v5.25h-2.5V16h-1.5v5.25H62a.76.76,0,0,0-.75.75v4a4.74,4.74,0,0,0,4,4.67V51a4.25,4.25,0,0,1-8.5,0V16A6.76,6.76,0,0,0,50,9.25H30A6.76,6.76,0,0,0,23.25,16V69.25H12v1.5H68v-1.5H56.75V54.86a5.74,5.74,0,0,0,10-3.86V30.67a4.74,4.74,0,0,0,4-4.67V22A.76.76,0,0,0,70,21.25Zm-14.75,48H24.75V16A5.26,5.26,0,0,1,30,10.75H50A5.26,5.26,0,0,1,55.25,16V69.25ZM69.25,26a3.25,3.25,0,0,1-6.5,0V22.75h6.5Z"/><path d="M47,15.25H33a3.72,3.72,0,0,0-3.75,3.68V53.07A3.72,3.72,0,0,0,33,56.75H47a3.72,3.72,0,0,0,3.75-3.68V18.93A3.72,3.72,0,0,0,47,15.25Zm2.25,37.82A2.22,2.22,0,0,1,47,55.25H33a2.22,2.22,0,0,1-2.25-2.18V18.93A2.22,2.22,0,0,1,33,16.75H47a2.22,2.22,0,0,1,2.25,2.18Z"/></svg>