<?xml version="1.0" encoding="UTF-8"?><svg id="a" xmlns="http://www.w3.org/2000/svg" viewBox="0 0 80 80"><path d="M69.97656,31.3623c-.22363-.13867-.49805-.15039-.72949-.0332l-8,4c-.10254,.05078-.19141,.125-.26074,.21582l-7.41113,9.70508h-7.81738c-.24512,0-.47559,.12012-.61523,.32129l-3.95215,5.67871h-9.6084c-.25098,0-.48535,.125-.62402,.33398l-12,18c-.15332,.23047-.16797,.52637-.03711,.76953,.13086,.24414,.38477,.39648,.66113,.39648h50c.41406,0,.75-.33594,.75-.75V32c0-.25977-.13477-.50098-.35547-.6377Zm-1.14453,37.8877H20.9834l11-16.5h9.59863c.24512,0,.47559-.12012,.61523-.32129l3.95215-5.67871h7.79688c.2334,0,.4541-.10938,.5957-.29492l7.53027-9.8623,6.75977-3.37891v36.03613Z"/><path d="M35.58203,59.25c-1.5166,0-2.75,1.2334-2.75,2.75s1.2334,2.75,2.75,2.75,2.75-1.2334,2.75-2.75-1.2334-2.75-2.75-2.75Zm0,4c-.68945,0-1.25-.56055-1.25-1.25s.56055-1.25,1.25-1.25,1.25,.56055,1.25,1.25-.56055,1.25-1.25,1.25Z"/><path d="M60.5791,46.12598c0,1.58594,1.29102,2.87598,2.87695,2.87598s2.87598-1.29004,2.87598-2.87598-1.29004-2.87598-2.87598-2.87598-2.87695,1.29004-2.87695,2.87598Zm2.87695-1.37598c.75879,0,1.37598,.61719,1.37598,1.37598s-.61719,1.37598-1.37598,1.37598-1.37695-.61719-1.37695-1.37598,.61816-1.37598,1.37695-1.37598Z"/><rect x="53.33992" y="30.30866" width="6.44808" height="1.50085" transform="translate(9.21164 74.89863) rotate(-71.56505)"/><rect x="35.58203" y="43.25" width="6" height="1.5"/><rect x="40.83211" y="35.17157" width="1.49984" height="5.65685" transform="translate(-14.69096 40.53288) rotate(-45)"/><path d="M59.05176,51.46973l-2.25293,2.25293c-1.23926-1.5083-3.11719-2.47266-5.2168-2.47266-3.72168,0-6.75,3.02832-6.75,6.75s3.02832,6.75,6.75,6.75,6.75-3.02832,6.75-6.75c0-1.07227-.25781-2.08325-.70508-2.98462l2.48535-2.48511-1.06055-1.06055Zm-2.21973,6.53027c0,2.89453-2.35547,5.25-5.25,5.25s-5.25-2.35547-5.25-5.25,2.35547-5.25,5.25-5.25c1.68701,0,3.17383,.81372,4.13525,2.0542l-4.13525,4.13525-1.46973-1.46973-1.06055,1.06055,2,2c.14648,.14648,.33789,.21973,.53027,.21973s.38379-.07324,.53027-.21973l4.36914-4.36938c.2168,.57446,.35059,1.1897,.35059,1.83911Z"/><path d="M21.73828,42.75c.18164,0,.3623-.06543,.50684-.19727l18.0752-16.55737,.7373,.78687c.14746,.15723,.34668,.2373,.54688,.2373,.18359,0,.36816-.06738,.5127-.20215l.84912-.79541c3.14502,3.73804,4.17578,6.71167,5.0083,9.12256,.29883,.86523,.58105,1.68262,.92676,2.43164,.1123,.24512,.34863,.41016,.61719,.43262,.02148,.00195,.04297,.00293,.06348,.00293,.24609,0,.47852-.12109,.61816-.32617,2.20898-3.22119,2.85352-9.36206-2.29785-16.2876l.86523-.81055c.30273-.2832,.31738-.75781,.03418-1.06006l-5.88574-6.28271c-.28223-.30225-.75781-.31836-1.05957-.03467l-.84033,.78711c-7.83545-6.8291-13.65088-4.66479-15.81689-3.37988-.23242,.1377-.37207,.38965-.36719,.65918,.00488,.27002,.15527,.51611,.39258,.64502,.70703,.38428,1.44727,.7041,2.23047,1.04248,2.23193,.96436,4.98633,2.15869,8.60889,5.67188l-.85791,.80371c-.30273,.2832-.31738,.75781-.03418,1.06006l.38525,.41113-18.06396,16.53662c-.14746,.13477-.23438,.32324-.24219,.52344s.06445,.39551,.20117,.54102l3.73828,4c.14746,.1582,.34766,.23828,.54785,.23828Zm27.94629-7.25684c-.09473-.26758-.19141-.5459-.29199-.83789-.87842-2.54468-1.96826-5.68604-5.33057-9.65967l2.74365-2.57007c3.92383,5.34692,4.11328,10.07129,2.87891,13.06763Zm-7.34961-20.67578l4.86035,5.18799-5.55664,5.20459-4.86035-5.18848,5.55664-5.2041Zm-14.28516-3.23047c-.24805-.10742-.49121-.2124-.72949-.31787,2.44971-.88867,6.86084-1.19336,12.59912,3.75537l-2.75977,2.58521c-3.84131-3.74097-6.75293-5.00439-9.10986-6.02271Zm8.53271,10.41846l2.7124,2.89551-17.51562,16.04443-2.71387-2.90332,17.51709-16.03662Z"/></svg>