<?xml version="1.0" encoding="UTF-8"?><svg id="a" xmlns="http://www.w3.org/2000/svg" viewBox="0 0 80 80"><path d="M14.53027,70.53027l14.24316-14.24219c.99072-.99219,2.30908-1.53809,3.71191-1.53809h14.51465c1.24072,0,2.25,1.00977,2.25,2.25,0,.47998-.29346,1.02295-.70312,1.45532l-.0542,.05444,.00122,.00122c-.42261,.42529-.95667,.73022-1.42798,.73022l-11.06641,.00879,.00098,1.5,11.06592-.00879c.91382,0,1.85095-.50391,2.55298-1.23633l12.93091-12.99512c.79883-.79883,2.09961-.79883,2.89941,0,.82129,.82129,.82129,2.15918,0,2.98047l-14.22314,14.22168c-.99072,.99219-2.30908,1.53809-3.71191,1.53809h-14.68604c-.73486,0-1.42529,.28613-1.94482,.80566l-3.41406,3.41406,1.06055,1.06055,3.41406-3.41406c.23633-.23633,.55029-.36621,.88428-.36621h14.68604c1.80371,0,3.49902-.70215,4.77295-1.97754l14.22266-14.22168c1.40625-1.40625,1.40625-3.69531,0-5.10156-1.38379-1.38281-3.63623-1.38379-5.02197,.00098l-1.41699,1.42407-.59961-.56763c-1.39062-1.31641-3.55273-1.2998-4.92969,.04785l-6.91626,6.95874c-.20459-.03467-.4115-.06323-.62573-.06323h-14.51465c-1.80371,0-3.49902,.70215-4.77295,1.97754l-14.24268,14.24219,1.06055,1.06055Zm41.06787-23.11133c.78955-.77344,2.03809-.78418,2.84229-.02246l.57214,.5415-8.33215,8.37329c-.18433-.98608-.75269-1.83594-1.54688-2.38843l6.4646-6.50391Z"/><path d="M40,44.75c.2002,0,.39209-.08008,.53271-.22168l16.55713-16.70605c2.06738-2.05566,3.20557-4.78809,3.20557-7.69531-.00049-2.90527-1.13867-5.6377-3.20557-7.69238-4.26514-4.23926-11.20312-4.24023-15.43408-.03027l-1.65576,1.46191-1.62305-1.43164c-4.26367-4.24023-11.20215-4.23828-15.4668,0-2.06689,2.05469-3.20508,4.78711-3.20557,7.69238,0,2.90723,1.13818,5.63965,3.20166,7.69141l16.56104,16.70996c.14062,.1416,.33252,.22168,.53271,.22168ZM21.20459,20.12793c.00049-2.50391,.98145-4.8584,2.76318-6.62891,1.83691-1.82715,4.24805-2.74121,6.66504-2.74121,2.42627,0,4.8584,.92285,6.71924,2.77148l2.15186,1.89941c.2832,.25,.70898,.25,.99219,0l2.18457-1.92969c3.68066-3.66016,9.6709-3.66016,13.35156,0,1.78174,1.77051,2.7627,4.125,2.76318,6.62891,0,2.50391-.98145,4.8584-2.76709,6.63379l-16.02832,16.17285L23.96777,26.75781c-1.78174-1.77148-2.76318-4.12598-2.76318-6.62988Z"/><polygon points="40.75 32 40.75 26.75 46 26.75 46 25.25 40.75 25.25 40.75 20 39.25 20 39.25 25.25 34 25.25 34 26.75 39.25 26.75 39.25 32 40.75 32"/></svg>