<?xml version="1.0" encoding="UTF-8"?>
<svg id="art" xmlns="http://www.w3.org/2000/svg" viewBox="0 0 80 80">
  <defs>
    <style>
      .cls-1 {
        fill: #fff;
      }
    </style>
  </defs>
  <path class="cls-1" d="M28.8,40.66v1.5c2.67,0,4.84,2.25,4.84,5.02h1.5c0-3.59-2.84-6.52-6.34-6.52Z"/>
  <path class="cls-1" d="M33.27,31.78h-1.5c0,3.6,2.85,6.53,6.35,6.53v-1.5c-2.67,0-4.85-2.26-4.85-5.03Z"/>
  <path class="cls-1" d="M57.57,43.33h-1.5c0,3.6,2.85,6.53,6.35,6.53v-1.5c-2.67,0-4.85-2.26-4.85-5.03Z"/>
  <path class="cls-1" d="M64.45,41.01c0-.08,0-.16.01-.23h0c.02-.22.03-.45.03-.68,0-4.13-3.27-7.49-7.28-7.49-.94,0-1.88.19-2.75.56,0,0,0-.02-.01-.03-.14-.39-.31-.77-.51-1.12-.01-.02-.02-.04-.04-.06-.17-.31-.37-.61-.58-.9-.04-.06-.08-.12-.13-.18-.22-.28-.45-.54-.7-.79-.07-.07-.14-.13-.21-.19-.22-.2-.44-.39-.67-.57-.06-.05-.12-.1-.19-.14-.28-.2-.58-.38-.89-.54-.08-.04-.17-.08-.25-.13-.3-.14-.6-.27-.91-.38-.03-.01-.07-.03-.1-.04-.34-.11-.7-.19-1.06-.26-.09-.02-.17-.03-.26-.04-.37-.05-.75-.09-1.13-.09-.34,0-.68.03-1.02.07-.06,0-.12.01-.18.02-.33.05-.65.12-.96.21-.05.01-.1.03-.15.05-.32.1-.63.21-.93.34-.01,0-.02,0-.03.01-.3.13-.58.29-.86.46-.04.02-.08.04-.13.07h0c-.26.17-.52.35-.76.54-.24-.34-.5-.66-.77-.97h0c-.25-.27-.51-.53-.78-.77-.14-.12-.29-.23-.43-.35-.13-.1-.25-.21-.39-.3-.2-.15-.42-.28-.63-.41-.08-.05-.16-.1-.25-.15-.23-.13-.47-.25-.71-.36-.08-.04-.16-.07-.24-.11-.24-.1-.48-.2-.72-.28-.1-.04-.21-.07-.31-.1-.23-.07-.45-.13-.68-.18-.16-.04-.33-.06-.49-.09-.18-.03-.36-.07-.55-.09-.36-.04-.73-.07-1.09-.07-.31,0-.61.02-.91.05-.09,0-.19.02-.28.03-.21.03-.42.06-.63.1-.1.02-.19.03-.29.06-.28.06-.55.13-.82.22-.07.02-.14.05-.21.07-.21.07-.41.15-.61.23-.1.04-.2.09-.3.13-.18.08-.35.17-.52.26-.09.05-.17.09-.26.14-.24.14-.48.29-.72.45-.05.03-.09.07-.13.1-.19.14-.38.28-.56.43-.07.06-.14.12-.21.18-.16.14-.31.28-.46.43-.06.06-.12.12-.18.18-.2.21-.39.42-.57.64-.04.05-.08.11-.12.16-.13.17-.26.34-.38.52-.07.11-.14.22-.21.33-.08.13-.15.25-.23.38-.08.14-.15.27-.22.41-.05.09-.09.19-.13.28-.07.15-.15.31-.22.46-.51-.1-1.01-.15-1.51-.15-4.51,0-8.17,3.77-8.17,8.41,0,.36.03.71.07,1.06,0,0,0,0,0,0h0c.02.13.04.26.06.38-2.28,1.04-3.78,3.34-3.78,5.95,0,3.6,2.85,6.52,6.34,6.53h0s44.81,0,44.81,0h0c3.5,0,6.34-2.93,6.34-6.53,0-2.79-1.77-5.29-4.3-6.18ZM62.4,52.21h-21.65v-6.65c0-3.1,1.78-5.9,4.54-7.13l-.61-1.37c-3.3,1.47-5.43,4.8-5.43,8.5v6.65h-21.65c-2.67,0-4.85-2.26-4.85-5.03,0-1.93,1.04-3.64,2.66-4.49,1.15,3.21,4.15,5.5,7.66,5.5v-1.5c-3.39,0-6.19-2.63-6.61-6.03-.04-.29-.06-.58-.06-.88,0-3.81,2.99-6.91,6.67-6.91.35,0,.7.04,1.05.1-.2.81-.32,1.65-.32,2.52,0,1.38.26,2.72.78,3.98l1.39-.57c-.44-1.08-.67-2.23-.67-3.41,0-1,.17-1.97.48-2.86.28-.84.69-1.62,1.18-2.31.04-.05.07-.1.11-.15.24-.32.5-.63.78-.91.03-.03.06-.05.09-.08.26-.26.54-.5.83-.72.05-.04.1-.08.15-.12.31-.23.64-.43.99-.62.06-.03.11-.06.17-.08.33-.17.68-.32,1.03-.44.03,0,.05-.02.08-.03.37-.12.75-.21,1.14-.28.08-.01.16-.03.25-.04.39-.06.79-.1,1.2-.1.34,0,.68.03,1.01.07.09.01.19.03.28.04.25.04.49.09.73.15.09.02.19.05.28.08.25.07.5.16.75.26.06.03.13.05.19.07.31.13.62.29.91.46,0,0,0,0,0,0,.28.17.56.36.82.56.07.05.13.11.2.16.2.17.4.34.59.53.06.06.12.11.17.17.49.5.92,1.07,1.29,1.71.12.2.32.34.55.37.23.03.46-.05.63-.21.41-.41.86-.75,1.33-1.03.17-.1.34-.19.52-.28.07-.03.14-.07.21-.1.24-.11.49-.2.75-.27.05-.01.1-.02.15-.04.22-.06.44-.11.66-.14.07-.01.14-.02.21-.03.27-.03.54-.06.82-.06.34,0,.68.04,1.01.09.06,0,.12.02.18.03.32.06.63.14.93.25.06.02.11.04.17.06.31.12.61.25.89.41,0,0,.01,0,.02.01.28.16.54.34.79.54.05.04.1.07.15.11.24.2.47.42.69.65.04.04.08.09.12.13.71.81,1.24,1.8,1.51,2.91h0c.14.55.21,1.12.21,1.71,0,2.13-.93,4.12-2.56,5.44l.95,1.16c1.98-1.61,3.11-4.01,3.11-6.6,0-.5-.05-1-.13-1.48.74-.34,1.54-.53,2.35-.53,3.19,0,5.78,2.69,5.78,5.99,0,.43-.05.87-.13,1.29-.08.4.17.8.57.89,2.21.5,3.81,2.57,3.81,4.91,0,2.77-2.18,5.03-4.85,5.03Z"/>
  <path class="cls-1" d="M59.25,16h1.5c0-1.79,1.46-3.25,3.25-3.25v-1.5c-1.79,0-3.25-1.46-3.25-3.25h-1.5c0,1.79-1.46,3.25-3.25,3.25v1.5c1.79,0,3.25,1.46,3.25,3.25ZM60,10.54c.38.59.87,1.09,1.46,1.46-.59.37-1.09.87-1.46,1.46-.38-.59-.87-1.09-1.46-1.46.59-.37,1.09-.87,1.46-1.46Z"/>
  <path class="cls-1" d="M66.97,12.44h-1.5c0,2.77-2.26,5.03-5.03,5.03v1.5c2.77,0,5.03,2.26,5.03,5.03h1.5c0-2.77,2.25-5.03,5.03-5.03v-1.5c-2.77,0-5.03-2.26-5.03-5.03ZM66.22,20.97c-.62-1.17-1.58-2.13-2.75-2.75,1.17-.62,2.13-1.58,2.75-2.75.62,1.17,1.58,2.13,2.75,2.75-1.17.62-2.13,1.58-2.75,2.75Z"/>
</svg>