<svg xmlns="http://www.w3.org/2000/svg" viewBox="0 0 80 80"><path d="M20,54.56445h4v-1.5H20a9.25,9.25,0,0,1,0-18.5,9.15437,9.15437,0,0,1,4.01562.92774.74912.74912,0,0,0,1.03126-.41992,15.9031,15.9031,0,0,1,30.79394,3.91455.75047.75047,0,0,0,1.207.52343A7.48772,7.48772,0,0,1,61.667,37.898a7.58325,7.58325,0,0,1,0,15.1665H56v1.5h5.667a9.07954,9.07954,0,0,0,5.78272-16.08227,9.08618,9.08618,0,0,0-5.77-16.092A8.85256,8.85256,0,0,0,57.18652,23.605a17.40568,17.40568,0,0,0-33.2539-3.79A10.72927,10.72927,0,0,0,9.25,29.81006a10.5825,10.5825,0,0,0,2.61646,6.99573A10.73512,10.73512,0,0,0,20,54.56445ZM10.75,29.81006a9.26032,9.26032,0,0,1,9.25-9.25,9.4245,9.4245,0,0,1,4.03027.92871.75033.75033,0,0,0,1.02442-.42236,15.906,15.906,0,0,1,30.79785,3.91406.74991.74991,0,0,0,1.21.51953,7.413,7.413,0,0,1,4.61719-1.60986,7.57955,7.57955,0,0,1,4.46484,13.69775A9.01874,9.01874,0,0,0,61.667,36.398a8.88472,8.88472,0,0,0-4.49023,1.21875,17.404,17.404,0,0,0-33.251-3.80127,10.67087,10.67087,0,0,0-11.001,1.926A9.09529,9.09529,0,0,1,10.75,29.81006Z"/><path d="M40,49.25A4.75,4.75,0,1,0,44.75,54,4.7554,4.7554,0,0,0,40,49.25Zm0,8A3.25,3.25,0,1,1,43.25,54,3.25377,3.25377,0,0,1,40,57.25Z"/><path d="M51.52246,57.69141a1.5404,1.5404,0,0,0,1.68848-1.22266,13.39864,13.39864,0,0,0,.00879-4.88867,1.573,1.573,0,0,0-1.69825-1.27344A2.81367,2.81367,0,0,1,48.958,45.86816a1.56115,1.56115,0,0,0-.248-2.09961,12.85457,12.85457,0,0,0-4.20605-2.42822l-.001-.00049a1.55731,1.55731,0,0,0-1.94043.83643,2.81485,2.81485,0,0,1-5.127-.00147,1.55891,1.55891,0,0,0-1.9502-.833,13.37869,13.37869,0,0,0-4.23144,2.45361A1.53921,1.53921,0,0,0,31.04,45.86768a2.81405,2.81405,0,0,1-2.56348,4.44043,1.52944,1.52944,0,0,0-1.6875,1.22314,13.39864,13.39864,0,0,0-.00879,4.88867,1.5669,1.5669,0,0,0,1.69825,1.27344A2.81367,2.81367,0,0,1,31.042,62.13184,1.56115,1.56115,0,0,0,31.29,64.23145a12.85852,12.85852,0,0,0,4.207,2.42871,1.55657,1.55657,0,0,0,1.94043-.83643,2.81485,2.81485,0,0,1,5.127.00147,1.55582,1.55582,0,0,0,1.9502.833,13.37238,13.37238,0,0,0,4.23144-2.45361A1.53921,1.53921,0,0,0,48.96,62.13232a2.81438,2.81438,0,0,1,2.5625-4.44091Zm-4.01172.644a4.38934,4.38934,0,0,0,.25781,4.731,10.61192,10.61192,0,0,1-3.83984,2.13476A4.33005,4.33005,0,0,0,40.001,62.67236a4.50485,4.50485,0,0,0-4.00879,2.57227,11.67245,11.67245,0,0,1-1.96485-.89746A8.03619,8.03619,0,0,1,32.26465,63.001a4.33125,4.33125,0,0,0,.22558-4.66455,4.48273,4.48273,0,0,0-3.92285-2.19581c-.10351,0-.207.00293-.31152.00977a10.58326,10.58326,0,0,1,.07715-4.34912,4.33419,4.33419,0,0,0,4.15625-2.13672,4.38934,4.38934,0,0,0-.25781-4.731,10.61832,10.61832,0,0,1,3.83984-2.13476,4.31485,4.31485,0,0,0,7.85547.00049.06262.06262,0,0,1,.082-.04346,11.69548,11.69548,0,0,1,1.96387.897A8.03619,8.03619,0,0,1,47.73535,44.999a4.33125,4.33125,0,0,0-.22558,4.66455,4.5063,4.5063,0,0,0,4.23437,2.186,10.56425,10.56425,0,0,1-.07812,4.34863A4.326,4.326,0,0,0,47.51074,58.33545Z"/></svg>