<?xml version="1.0" encoding="UTF-8"?><svg id="a" xmlns="http://www.w3.org/2000/svg" viewBox="0 0 80 80"><path d="M54,26.75h16c.41406,0,.75-.33594,.75-.75V12c0-.41406-.33594-.75-.75-.75h-3.25098v-1.24951h-1.5v1.24951h-6.49902v-1.25h-1.5v1.25h-3.25c-.41406,0-.75,.33594-.75,.75v14c0,.41406,.33594,.75,.75,.75Zm.75-14h2.5v1.24951h1.5v-1.24951h6.49902v1.25049h1.5v-1.25049h2.50098v2.5h-14.5v-2.5Zm0,4h14.5v8.5h-14.5v-8.5Z"/><path d="M31.25,26.25c0,4.82471,3.9248,8.75,8.75,8.75s8.75-3.92529,8.75-8.75-3.9248-8.75-8.75-8.75-8.75,3.92529-8.75,8.75Zm16,0c0,3.99756-3.25195,7.25-7.25,7.25s-7.25-3.25244-7.25-7.25,3.25195-7.25,7.25-7.25,7.25,3.25244,7.25,7.25Z"/><path d="M9.25,54.25v12c0,.41406,.33594,.75,.75,.75h8c.32275,0,.60938-.20654,.71143-.5127l2.49927-7.4873H58.78931l2.49976,7.4873c.10156,.30615,.38867,.5127,.71094,.5127h8c.41406,0,.75-.33594,.75-.75V30h-1.5v19.45654h-16.5v-4.74512c0-3.97656-3.02832-7.21143-6.75-7.21143h-12c-3.72168,0-6.75,3.23486-6.75,7.21143v4.74512H10.75V13.92725c0-.64893,.56055-1.17725,1.25-1.17725H50v-1.5H12c-1.5166,0-2.75,1.20117-2.75,2.67725V54.25Zm60,11.25h-6.70996l-2.16943-6.5h7.62939c.45239,0,.87329-.117,1.25-.30621v6.80621ZM28.75,44.71143c0-3.14941,2.35547-5.71143,5.25-5.71143h12c2.89453,0,5.25,2.56201,5.25,5.71143v4.74512H28.75v-4.74512Zm-18,9.53857v-3.29346h58.5v5.36621c0,.64893-.56055,1.17725-1.25,1.17725H12c-.68945,0-1.25-.52832-1.25-1.17725v-2.07275Zm0,4.44379c.37671,.18921,.79761,.30621,1.25,.30621h7.62891l-2.16943,6.5h-6.70947v-6.80621Z"/></svg>