<?xml version="1.0" encoding="UTF-8"?><svg id="a" xmlns="http://www.w3.org/2000/svg" viewBox="0 0 80 80"><path d="M10,70.75h62v-1.5H10.75V8h-1.5v62c0,.41406,.33594,.75,.75,.75Z"/><path d="M68,26.75c1.5166,0,2.75-1.2334,2.75-2.75s-1.2334-2.75-2.75-2.75-2.75,1.2334-2.75,2.75,1.2334,2.75,2.75,2.75Zm0-4c.68945,0,1.25,.56055,1.25,1.25s-.56055,1.25-1.25,1.25-1.25-.56055-1.25-1.25,.56055-1.25,1.25-1.25Z"/><path d="M58,44.75c1.5166,0,2.75-1.2334,2.75-2.75s-1.2334-2.75-2.75-2.75-2.75,1.2334-2.75,2.75,1.2334,2.75,2.75,2.75Zm0-4c.68945,0,1.25,.56055,1.25,1.25s-.56055,1.25-1.25,1.25-1.25-.56055-1.25-1.25,.56055-1.25,1.25-1.25Z"/><path d="M48,52.75c1.5166,0,2.75-1.2334,2.75-2.75s-1.2334-2.75-2.75-2.75-2.75,1.2334-2.75,2.75,1.2334,2.75,2.75,2.75Zm0-4c.68945,0,1.25,.56055,1.25,1.25s-.56055,1.25-1.25,1.25-1.25-.56055-1.25-1.25,.56055-1.25,1.25-1.25Z"/><path d="M18,64.75c1.5166,0,2.75-1.2334,2.75-2.75s-1.2334-2.75-2.75-2.75-2.75,1.2334-2.75,2.75,1.2334,2.75,2.75,2.75Zm0-4c.68945,0,1.25,.56055,1.25,1.25s-.56055,1.25-1.25,1.25-1.25-.56055-1.25-1.25,.56055-1.25,1.25-1.25Z"/><path d="M28,62.75c1.5166,0,2.75-1.2334,2.75-2.75s-1.2334-2.75-2.75-2.75-2.75,1.2334-2.75,2.75,1.2334,2.75,2.75,2.75Zm0-4c.68945,0,1.25,.56055,1.25,1.25s-.56055,1.25-1.25,1.25-1.25-.56055-1.25-1.25,.56055-1.25,1.25-1.25Z"/><path d="M38,58.75c1.5166,0,2.75-1.2334,2.75-2.75s-1.2334-2.75-2.75-2.75-2.75,1.2334-2.75,2.75,1.2334,2.75,2.75,2.75Zm0-4c.68945,0,1.25,.56055,1.25,1.25s-.56055,1.25-1.25,1.25-1.25-.56055-1.25-1.25,.56055-1.25,1.25-1.25Z"/></svg>