<?xml version="1.0" encoding="UTF-8"?>
<svg id="art" xmlns="http://www.w3.org/2000/svg" viewBox="0 0 80 80">
  <defs>
    <style>
      .cls-1 {
        fill: #fff;
      }
    </style>
  </defs>
  <path class="cls-1" d="M60.75,16c0-1.79,1.46-3.25,3.25-3.25v-1.5c-1.79,0-3.25-1.46-3.25-3.25h-1.5c0,1.79-1.46,3.25-3.25,3.25v1.5c1.79,0,3.25,1.46,3.25,3.25h1.5ZM60,10.54c.38.59.87,1.09,1.46,1.46-.59.37-1.09.87-1.46,1.46-.38-.59-.87-1.09-1.46-1.46.59-.37,1.09-.87,1.46-1.46Z"/>
  <path class="cls-1" d="M66.97,12.44h-1.5c0,2.77-2.26,5.03-5.03,5.03v1.5c2.77,0,5.03,2.26,5.03,5.03h1.5c0-2.77,2.25-5.03,5.03-5.03v-1.5c-2.77,0-5.03-2.26-5.03-5.03ZM66.22,20.97c-.62-1.17-1.58-2.13-2.75-2.75,1.17-.62,2.13-1.58,2.75-2.75.62,1.17,1.58,2.13,2.75,2.75-1.17.62-2.13,1.58-2.75,2.75Z"/>
  <path class="cls-1" d="M46.77,37.25c-.12-.23-.18-.5-.19-.79-.16-4.81-2.22-9.24-5.78-12.48-3.56-3.24-8.18-4.85-13.01-4.55-8.81.55-15.91,7.61-16.5,16.42-.51,7.57,3.85,14.62,10.83,17.53l.58-1.38c-6.39-2.67-10.38-9.12-9.91-16.05.54-8.06,7.03-14.52,15.09-15.02,4.42-.28,8.65,1.2,11.91,4.16,3.27,2.97,5.14,7.02,5.29,11.42.02.51.14.99.35,1.41l1.76,3.52c.14.27.03.6-.25.74l-1.44.72c-.25.13-.42.39-.42.67v5.21c0,3.17-2.58,5.76-5.76,5.76h-3.9v1.5h2.51v3.96h1.5v-3.97c3.95-.06,7.16-3.28,7.16-7.25v-4.74l1.02-.51c1.01-.51,1.42-1.74.92-2.75l-1.76-3.52Z"/>
  <rect class="cls-1" x="51.25" y="44" width="1.5" height="8"/>
  <rect class="cls-1" x="55.25" y="40" width="1.5" height="16"/>
  <rect class="cls-1" x="59.25" y="36" width="1.5" height="24"/>
  <rect class="cls-1" x="63.25" y="40" width="1.5" height="16"/>
  <rect class="cls-1" x="67.25" y="44" width="1.5" height="8"/>
</svg>