<?xml version="1.0" encoding="UTF-8"?>
<svg id="DO_NOT_TOUCH_Outlines_" data-name="DO NOT TOUCH (Outlines)" xmlns="http://www.w3.org/2000/svg" viewBox="0 0 80 80">
  <rect x="39.26" y="59.71" width="1.5" height="4.3"/>
  <g>
    <path d="m68.01,60.75H12.01c-1.52,0-2.75-1.23-2.75-2.75v-4h1.5v4c0,.69.56,1.25,1.25,1.25h56c.69,0,1.25-.56,1.25-1.25v-4h1.5v4c0,1.52-1.23,2.75-2.75,2.75Z"/>
    <rect x="26.01" y="63.25" width="28" height="1.5"/>
    <rect x="10.01" y="53.25" width="60" height="1.5"/>
  </g>
  <path d="m55,38.75c-3.17,0-5.75-2.58-5.75-5.75s2.58-5.75,5.75-5.75,5.75,2.58,5.75,5.75-2.58,5.75-5.75,5.75Zm0-10c-2.34,0-4.25,1.91-4.25,4.25s1.91,4.25,4.25,4.25,4.25-1.91,4.25-4.25-1.91-4.25-4.25-4.25Z"/>
  <path d="m62.75,54h-1.5v-8.37c0-1.59-1.39-2.88-3.1-2.88h-6.31c-1.71,0-3.1,1.29-3.1,2.88v8.37h-1.5v-8.37c0-2.41,2.06-4.38,4.6-4.38h6.31c2.53,0,4.6,1.96,4.6,4.38v8.37Z"/>
  <path d="m70.75,54h-1.5V20.5c0-.96-.79-1.75-1.75-1.75H12.5c-.96,0-1.75.79-1.75,1.75v33.5h-1.5V20.5c0-1.79,1.46-3.25,3.25-3.25h55c1.79,0,3.25,1.46,3.25,3.25v33.5Z"/>
  <rect x="28" y="25.25" width="14" height="1.5"/>
  <path d="m24,32.75h-6c-.41,0-.75-.34-.75-.75v-6c0-.41.34-.75.75-.75h6c.41,0,.75.34.75.75v6c0,.41-.34.75-.75.75Zm-5.25-1.5h4.5v-4.5h-4.5v4.5Z"/>
  <rect x="28" y="29.25" width="10.5" height="1.5"/>
  <rect x="28" y="37.25" width="14" height="1.5"/>
  <path d="m24,44.75h-6c-.41,0-.75-.34-.75-.75v-6c0-.41.34-.75.75-.75h6c.41,0,.75.34.75.75v6c0,.41-.34.75-.75.75Zm-5.25-1.5h4.5v-4.5h-4.5v4.5Z"/>
  <rect x="28" y="41.25" width="10.5" height="1.5"/>
</svg>