<?xml version="1.0" encoding="UTF-8"?><svg id="a" xmlns="http://www.w3.org/2000/svg" viewBox="0 0 80 80"><path d="M52,52.75c.41406,0,.75-.33594,.75-.75V28c0-.41406-.33594-.75-.75-.75H28c-.41406,0-.75,.33594-.75,.75v24c0,.41406,.33594,.75,.75,.75h24Zm-13.25-24h2.5v10.5h-2.5v-10.5Zm-10,0h8.5v11.25c0,.41406,.33594,.75,.75,.75h4c.41406,0,.75-.33594,.75-.75v-11.25h8.5v22.5H28.75V28.75Z"/><path d="M40,70.75c16.95605,0,30.75-13.79443,30.75-30.75s-13.79395-30.75-30.75-30.75c-8.0083,0-15.50366,3.02386-21.25,8.53192v-5.78192h-1.5v8c0,.41406,.33594,.75,.75,.75h8v-1.5h-6.60278c5.51392-5.48163,12.802-8.5,20.60278-8.5,16.12891,0,29.25,13.12158,29.25,29.25s-13.12109,29.25-29.25,29.25-29.25-13.12158-29.25-29.25c0-4.74219,1.09961-9.26611,3.26758-13.44678l-1.33203-.69043c-2.24707,4.33398-3.43555,9.22266-3.43555,14.13721,0,16.95557,13.79395,30.75,30.75,30.75Z"/></svg>