<?xml version="1.0" encoding="UTF-8"?>
<svg id="DO_NOT_TOUCH_Outlines_" data-name="DO NOT TOUCH (Outlines)" xmlns="http://www.w3.org/2000/svg" viewBox="0 0 80 80">
  <path d="m68,25.25h-8v1.5h8c.69,0,1.25.56,1.25,1.25v27.25H10.75v-27.25c0-.69.56-1.25,1.25-1.25h8v-1.5h-8c-1.52,0-2.75,1.23-2.75,2.75v32c0,1.52,1.23,2.75,2.75,2.75h27.24v2.5h-13.24v1.5h28v-1.5h-13.26v-2.5h27.26c1.52,0,2.75-1.23,2.75-2.75V28c0-1.52-1.23-2.75-2.75-2.75Zm0,36H12c-.69,0-1.25-.56-1.25-1.25v-3.25h58.5v3.25c0,.69-.56,1.25-1.25,1.25Z"/>
  <path d="m26.62,29.59l-1.2,4.2c-.05.2-.03.41.07.59.11.17.27.3.47.35l4.24,1.07,1.07,4.24c.05.2.18.36.35.47.18.1.39.12.59.07l4.2-1.2,3.05,3.14c.14.15.34.23.54.23s.4-.08.54-.23l3.05-3.14,4.2,1.2c.2.05.41.03.59-.07.17-.11.3-.27.35-.47l1.07-4.24,4.24-1.07c.2-.05.36-.18.47-.35.1-.18.12-.39.07-.59l-1.2-4.2,3.14-3.05c.15-.14.23-.34.23-.54s-.08-.4-.23-.54l-3.14-3.05,1.2-4.2c.05-.2.03-.41-.07-.59-.11-.17-.27-.3-.47-.35l-4.24-1.07-1.07-4.24c-.05-.2-.18-.36-.35-.47-.18-.1-.39-.12-.59-.07l-4.2,1.2-3.05-3.14c-.29-.29-.79-.29-1.08,0l-3.05,3.14-4.2-1.2c-.2-.05-.41-.03-.59.07-.17.11-.3.27-.35.47l-1.07,4.24-4.24,1.07c-.2.05-.36.18-.47.35-.1.18-.12.39-.07.59l1.2,4.2-3.14,3.05c-.15.14-.23.34-.23.54s.08.4.23.54l3.14,3.05Zm1.36-6.41c.2-.19.28-.48.2-.75l-1.1-3.89,3.92-.99c.27-.07.48-.28.55-.55l.99-3.92,3.89,1.1c.27.07.56,0,.75-.2l2.82-2.9,2.82,2.9c.19.2.48.27.75.2l3.89-1.1.99,3.92c.07.27.28.48.55.55l3.92.99-1.1,3.89c-.08.27,0,.56.2.75l2.9,2.82-2.9,2.82c-.2.19-.28.48-.2.75l1.1,3.89-3.92.99c-.27.07-.48.28-.55.55l-.99,3.92-3.89-1.1c-.27-.07-.56,0-.75.2l-2.82,2.9-2.82-2.9c-.15-.15-.34-.23-.54-.23-.07,0-.14.01-.21.03l-3.89,1.1-.99-3.92c-.07-.27-.28-.48-.55-.55l-3.92-.99,1.1-3.89c.08-.27,0-.56-.2-.75l-2.9-2.82,2.9-2.82Z"/>
  <rect x="31.99" y="24.77" width="16.97" height="1.5" transform="translate(-6.19 36.1) rotate(-45)"/>
  <path d="m44.48,26.77c-1.52,0-2.75,1.23-2.75,2.75s1.23,2.75,2.75,2.75,2.75-1.23,2.75-2.75-1.23-2.75-2.75-2.75Zm0,4c-.69,0-1.25-.56-1.25-1.25s.56-1.25,1.25-1.25,1.25.56,1.25,1.25-.56,1.25-1.25,1.25Z"/>
  <path d="m36.48,24.27c1.52,0,2.75-1.23,2.75-2.75s-1.23-2.75-2.75-2.75-2.75,1.23-2.75,2.75,1.23,2.75,2.75,2.75Zm0-4c.69,0,1.25.56,1.25,1.25s-.56,1.25-1.25,1.25-1.25-.56-1.25-1.25.56-1.25,1.25-1.25Z"/>
</svg>