<?xml version="1.0" encoding="UTF-8"?><svg id="a" xmlns="http://www.w3.org/2000/svg" viewBox="0 0 80 80"><path d="M66.28418,61.47314l-7.40918-3.69629-10.19434-22.09131c-.12207-.26562-.3877-.43555-.68066-.43555h-6v1.5h5.52051l10.10352,21.89502c.07129,.15479,.19336,.28076,.3457,.35645l7.79688,3.88965c.10449,.05225,.21875,.0791,.33496,.0791,2.1748,0,3.14844,1.57715,3.14844,3.14014,0,1.5625-.97363,3.13965-3.14844,3.13965h-11.69531c-1.12988,0-3.2207-1.96729-5.43457-4.05029-4.46191-4.19775-10.57129-9.94629-18.21094-9.94629h-.00586c-1.85156-.17334-2.00488-2.58398-2.00488-5.25342h-1.5c0,2.40527,0,6.43164,3.43457,6.75,7.11719,0,12.97949,5.51514,17.25977,9.54248,2.75,2.58789,4.7373,4.45752,6.46191,4.45752h11.69531c3.05176,0,4.64844-2.33398,4.64844-4.63965,0-2.25977-1.5332-4.54639-4.46582-4.63721Z"/><path d="M33.62012,47.1626c.07617,1.06104,.60547,2.36182,1.44824,3.45654,1.2666,1.646,3.01855,2.55225,4.93164,2.55225,4.24609,0,7.21191-2.77344,7.21191-6.74414,0-3.72949-3.38965-7.12891-7.13184-7.17676-.46484-.10693-.84863-.40674-1.17285-.91504-1.70703-2.67773-1.11719-9.96973,.34863-15.78955,.71777-2.85254-1.0293-5.79492-3.89453-6.55908L10.19336,9.27539c-.21582-.05713-.44531-.01611-.62793,.11328-.18164,.12891-.29688,.33252-.31348,.55518-1.06836,14.18311,1.10645,24.03906,6.64844,30.13135,4.08008,4.48438,10.03613,6.86816,17.71973,7.0874Zm6.37988-6.4126c2.93555,0,5.71191,2.75928,5.71191,5.67725,0,3.18555-2.24219,5.24414-5.71191,5.24414-1.8418,0-3.05273-1.06982-3.74316-1.96729-.93848-1.21875-1.25098-2.57471-1.13379-3.02588,.08301-.22998,.0498-.48633-.09082-.68652-.14062-.20068-.36914-.31982-.61426-.31982h-.40332c-6.36255-.12177-11.46313-1.78308-15.22412-4.92188h21.20947ZM10.68359,10.9585l24.29102,6.47754c2.07812,.5542,3.3457,2.68213,2.82617,4.74365-.19214,.76343-.38818,1.64893-.57227,2.59985l-26.63623-4.44104c-.1626-2.86804-.13354-5.98938,.09131-9.38Zm.01904,10.91888l26.25879,4.37817c-.31421,1.90631-.55127,3.99274-.59351,5.97595l-24.17651-2.10529c-.73389-2.44806-1.23145-5.19153-1.48877-8.24884Zm25.67896,11.8609c.07544,2.16486,.43433,4.10712,1.26099,5.40381,.02539,.03992,.05615,.0694,.08252,.10791H17.19897c-.0603-.06445-.12964-.11914-.18921-.18457-1.823-2.00385-3.2522-4.46564-4.30811-7.38922l23.67993,2.06207Z"/></svg>