<?xml version="1.0" encoding="UTF-8"?><svg id="a" xmlns="http://www.w3.org/2000/svg" viewBox="0 0 80 80"><path d="M40.01416,11.25c-13.64697,0-24.75,11.10303-24.75,24.75,0,6.62061,2.58545,12.84668,7.27881,17.5293l16.93994,17c.14062,.14111,.33203,.2207,.53125,.2207s.39062-.07959,.53125-.2207l16.93945-16.99951c4.69434-4.68408,7.2793-10.90967,7.2793-17.52979,0-13.64697-11.10303-24.75-24.75-24.75Zm0,57.6875l-13.21704-13.26379c.17224-2.7406,2.43384-4.92371,5.21704-4.92371h16c2.7832,0,5.0448,2.18311,5.21704,4.92371l-13.21704,13.26379Zm16.41016-16.46826l-.00146,.00146-1.87146,1.87805c-.7395-2.92493-3.38562-5.09875-6.53723-5.09875h-16c-3.15161,0-5.79773,2.17383-6.53723,5.09888l-1.87292-1.87964c-4.41064-4.40088-6.83984-10.25-6.83984-16.46924,0-12.82031,10.42969-23.25,23.25-23.25s23.25,10.42969,23.25,23.25c0,6.21924-2.4292,12.06836-6.83984,16.46924Z"/><path d="M40.01416,25.25c-5.92773,0-10.75,4.82227-10.75,10.75s4.82227,10.75,10.75,10.75,10.75-4.82227,10.75-10.75-4.82227-10.75-10.75-10.75Zm0,20c-5.10059,0-9.25-4.14941-9.25-9.25s4.14941-9.25,9.25-9.25,9.25,4.14941,9.25,9.25-4.14941,9.25-9.25,9.25Z"/></svg>