<?xml version="1.0" encoding="UTF-8"?>
<svg xmlns="http://www.w3.org/2000/svg" viewBox="0 0 80 80">
  <defs>
    <style>
      .cls-1 {
        fill: none;
      }
    </style>
  </defs>
  <g id="DO_NOT_TOUCH_Outlines_" data-name="DO NOT TOUCH (Outlines)">
    <g>
      <rect x="52.01" y="29.25" width="11.99" height="1.5"/>
      <rect x="52.01" y="37.25" width="11.99" height="1.5"/>
      <rect x="52.01" y="45.25" width="11.99" height="1.5"/>
      <path d="m68.01,19.25H12.01c-1.52,0-2.75,1.23-2.75,2.75v34c0,1.52,1.23,2.75,2.75,2.75h27.25v2.5h-13.25v1.5h28v-1.5h-13.25v-2.5h27.25c1.52,0,2.75-1.23,2.75-2.75V22c0-1.52-1.23-2.75-2.75-2.75Zm1.25,36.75c0,.69-.56,1.25-1.25,1.25H12.01c-.69,0-1.25-.56-1.25-1.25V22c0-.69.56-1.25,1.25-1.25h56c.69,0,1.25.56,1.25,1.25v34Z"/>
      <path d="m46,38.94l-1.47-1.47-1.06,1.06,2,2c.15.15.34.22.53.22s.38-.07.53-.22l4-4-1.06-1.06-3.47,3.47Z"/>
      <path d="m46,46.94l-1.47-1.47-1.06,1.06,2,2c.15.15.34.22.53.22s.38-.07.53-.22l4-4-1.06-1.06-3.47,3.47Z"/>
      <path d="m46,30.94l-1.47-1.47-1.06,1.06,2,2c.15.15.34.22.53.22s.38-.07.53-.22l4-4-1.06-1.06-3.47,3.47Z"/>
      <path d="m38,25.25H14c-.41,0-.75.34-.75.75v24c0,.41.34.75.75.75h24c.41,0,.75-.34.75-.75v-24c0-.41-.34-.75-.75-.75Zm-3.54,16l-1.79-3.58c-.13-.25-.39-.42-.67-.42h-12.5c-.31,0-.59.19-.7.49l-1.32,3.51h-2.73v-6.5h22.5v6.5h-2.79Zm-1.68,0h-13.7l.94-2.5h11.52l1.25,2.5Zm-13.57-8l1.25-2.5h11.07l1.25,2.5h-13.57Zm-4.46-6.5h22.5v6.5h-2.79l-1.79-3.58c-.13-.25-.39-.42-.67-.42h-12c-.28,0-.54.16-.67.42l-1.79,3.58h-2.79v-6.5Zm4.46,22.5l1.25-2.5h11.07l1.25,2.5h-13.57Zm18.04,0h-2.79l-1.79-3.58c-.13-.25-.39-.42-.67-.42h-12c-.28,0-.54.16-.67.42l-1.79,3.58h-2.79v-6.5h22.5v6.5Z"/>
    </g>
  </g>
  <g id="export_frame" data-name="export frame">
    <rect class="cls-1" width="80" height="80"/>
    <rect class="cls-1" width="80" height="80"/>
  </g>
</svg>