<?xml version="1.0" encoding="UTF-8"?><svg id="a" xmlns="http://www.w3.org/2000/svg" viewBox="0 0 80 80"><path d="M55,63.25c-3.10254,0-5.50098,3.16699-5.60156,3.30176-.19824,.26562-.19824,.63086,0,.89648,.10059,.13477,2.49902,3.30176,5.60156,3.30176s5.50098-3.16699,5.60156-3.30176c.19824-.26562,.19824-.63086,0-.89648-.10059-.13477-2.49902-3.30176-5.60156-3.30176Zm0,6c-1.75,0-3.32617-1.4873-4.02246-2.25391,.80273-.88477,2.38672-2.24609,4.02246-2.24609,1.75,0,3.32617,1.4873,4.02246,2.25391-.80273,.88477-2.38672,2.24609-4.02246,2.24609Z"/><path d="M29.25,38v6c0,1.5166,1.2334,2.75,2.75,2.75,.45239,0,.87329-.12012,1.25-.31445v4.91797c-1.15332,.32812-2,1.38965-2,2.64648v2c0,1.25684,.84668,2.31836,2,2.64648v11.35352c0,.41406,.33594,.75,.75,.75h12c.41406,0,.75-.33594,.75-.75v-11.35352c1.15332-.32812,2-1.38965,2-2.64648v-2c0-1.25684-.84668-2.31836-2-2.64648v-4.91797c.37671,.19434,.79761,.31445,1.25,.31445,1.5166,0,2.75-1.2334,2.75-2.75v-9.25h1.25c.41406,0,.75-.33594,.75-.75v-4c0-2.61914-2.13086-4.75-4.75-4.75h-16c-2.61914,0-4.75,2.13086-4.75,4.75v4c0,.41406,.33594,.75,.75,.75h1.25v3.25Zm2.75,7.25c-.68945,0-1.25-.56055-1.25-1.25v-5.25h2.5v5.25c0,.68945-.56055,1.25-1.25,1.25Zm-1.25-8v-2.5h2.5v2.5h-2.5Zm8.5,32h-4.5v-.25c0-1.24023,1.00977-2.25,2.25-2.25s2.25,1.00977,2.25,2.25v.25Zm0-3.23071c-.62866-.47583-1.40259-.76929-2.25-.76929s-1.62134,.29346-2.25,.76929v-3.26929h4.5v3.26929Zm6,3.23071h-4.5v-.25c0-1.24023,1.00977-2.25,2.25-2.25s2.25,1.00977,2.25,2.25v.25Zm0-3.23071c-.62866-.47583-1.40259-.76929-2.25-.76929s-1.62134,.29346-2.25,.76929v-3.26929h4.5v3.26929Zm2-12.01929v2c0,.68945-.56055,1.25-1.25,1.25-.41406,0-.75,.33594-.75,.75v3.25h-4.5v-11.25h-1.5v11.25h-4.5v-3.25c0-.41406-.33594-.75-.75-.75-.68945,0-1.25-.56055-1.25-1.25v-2c0-.68945,.56055-1.25,1.25-1.25,.41406,0,.75-.33594,.75-.75v-5.25h10.5v5.25c0,.41406,.33594,.75,.75,.75,.68945,0,1.25,.56055,1.25,1.25Zm2-10c0,.68945-.56055,1.25-1.25,1.25s-1.25-.56055-1.25-1.25v-5.25h2.5v5.25Zm0-6.75h-2.5v-2.5h2.5v2.5Zm-6.09595-10.5c-.34058,1.43018-1.62134,2.5-3.15405,2.5s-2.81348-1.06982-3.15405-2.5h6.30811Zm-14.40405,6.5v-3.25c0-1.79199,1.45801-3.25,3.25-3.25h3.32593c.36255,2.26172,2.31177,4,4.67407,4s4.31152-1.73828,4.67407-4h3.32593c1.79199,0,3.25,1.45801,3.25,3.25v3.25h-5.25c-.41406,0-.75,.33594-.75,.75v11.25h-10.5v-11.25c0-.41406-.33594-.75-.75-.75h-5.25Z"/><path d="M46.75,22v-6c0-3.72168-3.02832-6.75-6.75-6.75s-6.75,3.02832-6.75,6.75v2c0,2.61914,2.13086,4.75,4.75,4.75,1.68359,0,3.15625-.88623,4-2.21069v.21069h3.25v1.25h1.5Zm-5.5-6v2c0,1.79199-1.45801,3.25-3.25,3.25s-3.25-1.45801-3.25-3.25v-2c0-2.89453,2.35547-5.25,5.25-5.25,2.64062,0,4.83203,1.95898,5.19629,4.5h-3.19629c-.41406,0-.75,.33594-.75,.75Zm1.31201,3.25c.11011-.40088,.18799-.81445,.18799-1.25v-1.25h2.5v2.5h-2.68799Z"/><path d="M40,42.75c1.5166,0,2.75-1.2334,2.75-2.75v-4c0-1.5166-1.2334-2.75-2.75-2.75s-2.75,1.2334-2.75,2.75v4c0,1.5166,1.2334,2.75,2.75,2.75Zm-1.25-6.75c0-.68945,.56055-1.25,1.25-1.25s1.25,.56055,1.25,1.25v4c0,.68945-.56055,1.25-1.25,1.25s-1.25-.56055-1.25-1.25v-4Z"/></svg>