<?xml version="1.0" encoding="UTF-8"?>
<svg id="art" xmlns="http://www.w3.org/2000/svg" viewBox="0 0 80 80">
  <defs>
    <style>
      .cls-1 {
        fill: #fff;
      }
    </style>
  </defs>
  <path class="cls-1" d="M56.75,19h1.5c0-1.52,1.23-2.75,2.75-2.75v-1.5c-1.52,0-2.75-1.23-2.75-2.75h-1.5c0,1.52-1.23,2.75-2.75,2.75v1.5c1.52,0,2.75,1.23,2.75,2.75ZM57.5,14.4c.3.43.67.8,1.1,1.1-.43.3-.8.67-1.1,1.1-.3-.43-.67-.8-1.1-1.1.43-.3.8-.67,1.1-1.1Z"/>
  <path class="cls-1" d="M57.89,20.19v1.5c2.37,0,4.31,1.93,4.31,4.31h1.5c0-2.37,1.93-4.31,4.31-4.31v-1.5c-2.37,0-4.31-1.93-4.31-4.31h-1.5c0,2.37-1.93,4.31-4.31,4.31ZM62.94,18.73c.52.92,1.29,1.69,2.21,2.21-.92.52-1.69,1.29-2.21,2.21-.52-.92-1.29-1.69-2.21-2.21.92-.52,1.69-1.29,2.21-2.21Z"/>
  <path class="cls-1" d="M63.37,48.75c.33,1.15,1.38,2,2.63,2,1.52,0,2.75-1.23,2.75-2.75s-1.23-2.75-2.75-2.75c-1.25,0-2.3.85-2.63,2h-3.37c-3.74,0-6.83-2.85-7.21-6.5h7.21c3.5,0,6.39-2.69,6.72-6.11,1.17-.32,2.03-1.38,2.03-2.64,0-1.52-1.23-2.75-2.75-2.75-1.25,0-2.3.85-2.63,1.99h-11.37s-17.7,0-17.7,0c-.26-.92-.99-1.64-1.92-1.89-.33-3.42-3.21-6.11-6.72-6.11h-1.21c.38-3.65,3.47-6.5,7.21-6.5h1.7c.33,1.15,1.38,2,2.63,2s2.3-.85,2.63-2h9.37v-1.5h-9.37c-.33-1.15-1.38-2-2.63-2s-2.3.85-2.63,2h-16.73c-.33-1.15-1.38-2-2.63-2-1.52,0-2.75,1.23-2.75,2.75s1.23,2.75,2.75,2.75c1.25,0,2.3-.85,2.63-2h10.14c-2.32,1.57-3.86,4.24-3.86,7.25,0,3.68-2.75,6.72-6.31,7.18-.35-1.12-1.38-1.93-2.61-1.93-1.52,0-2.75,1.23-2.75,2.75s1.23,2.75,2.75,2.75c1.25,0,2.3-.85,2.63-2h12.4c.33,1.15,1.38,2,2.63,2s2.3-.85,2.63-2h9.7c3.74,0,6.83,2.85,7.21,6.5h-8.58c-.33-1.15-1.38-2-2.63-2-1.52,0-2.75,1.23-2.75,2.75,0,1.23.82,2.26,1.94,2.61-.31,2.6-2.5,4.64-5.19,4.64h-17.37c-.33-1.15-1.38-2-2.63-2-1.52,0-2.75,1.23-2.75,2.75s1.23,2.75,2.75,2.75c1.25,0,2.29-.84,2.63-1.98,3.84.18,6.9,3.35,6.9,7.23,0,3.03,1.55,5.71,3.9,7.28h-10.79c-.32-1.17-1.38-2.03-2.64-2.03-1.52,0-2.75,1.23-2.75,2.75s1.23,2.75,2.75,2.75c1.24,0,2.28-.83,2.62-1.97h15.03c.34,1.14,1.38,1.97,2.62,1.97s2.3-.85,2.63-2h26.45c.33,1.15,1.38,2,2.63,2,1.52,0,2.75-1.23,2.75-2.75,0-1.27-.87-2.33-2.03-2.64-.33-3.42-3.21-6.11-6.72-6.11h-9.37c-.33-1.15-1.38-2-2.63-2-1.52,0-2.75,1.23-2.75,2.75,0,1.23.82,2.26,1.94,2.61-.31,2.6-2.5,4.64-5.19,4.64h-5.09c-.33-1.15-1.38-2-2.63-2s-2.28.83-2.62,1.97c-3.71-.32-6.63-3.43-6.63-7.22,0-3.01-1.53-5.68-3.86-7.25h42.19ZM66,46.75c.69,0,1.25.56,1.25,1.25s-.56,1.25-1.25,1.25-1.25-.56-1.25-1.25.56-1.25,1.25-1.25ZM36,14.75c.69,0,1.25.56,1.25,1.25s-.56,1.25-1.25,1.25-1.25-.56-1.25-1.25.56-1.25,1.25-1.25ZM14,17.25c-.69,0-1.25-.56-1.25-1.25s.56-1.25,1.25-1.25,1.25.56,1.25,1.25-.56,1.25-1.25,1.25ZM14,33.25c-.69,0-1.25-.56-1.25-1.25s.56-1.25,1.25-1.25,1.25.56,1.25,1.25-.56,1.25-1.25,1.25ZM29.04,31.25h-8.47c2.13-1.44,3.59-3.8,3.82-6.5h1.29c2.68,0,4.88,2.03,5.19,4.64-.88.27-1.57.97-1.82,1.86ZM31.67,33.25c-.69,0-1.25-.56-1.25-1.25s.56-1.25,1.25-1.25,1.25.56,1.25,1.25-.56,1.25-1.25,1.25ZM14,49.25c-.69,0-1.25-.56-1.25-1.25s.56-1.25,1.25-1.25,1.25.56,1.25,1.25-.56,1.25-1.25,1.25ZM14,65.25c-.69,0-1.25-.56-1.25-1.25s.56-1.25,1.25-1.25,1.25.56,1.25,1.25-.56,1.25-1.25,1.25ZM67.25,64c0,.69-.56,1.25-1.25,1.25s-1.25-.56-1.25-1.25.56-1.25,1.25-1.25,1.25.56,1.25,1.25ZM46.75,56c0-.69.56-1.25,1.25-1.25s1.25.56,1.25,1.25-.56,1.25-1.25,1.25-1.25-.56-1.25-1.25ZM48.72,58.64c.93-.25,1.65-.97,1.92-1.89h9.37c2.68,0,4.88,2.03,5.19,4.64-.88.27-1.57.97-1.82,1.86h-17.13c1.38-1.11,2.31-2.75,2.48-4.61ZM34.28,62.75c.69,0,1.25.56,1.25,1.25s-.56,1.25-1.25,1.25-1.25-.56-1.25-1.25.56-1.25,1.25-1.25ZM66,30.75c.69,0,1.25.56,1.25,1.25s-.56,1.25-1.25,1.25-1.25-.56-1.25-1.25.56-1.25,1.25-1.25ZM48.89,32.75h5.11s9.36,0,9.36,0c.25.89.94,1.6,1.82,1.87-.31,2.6-2.5,4.64-5.19,4.64h-7.29c-.23-2.7-1.69-5.06-3.82-6.5ZM38.75,40c0-.69.56-1.25,1.25-1.25s1.25.56,1.25,1.25-.56,1.25-1.25,1.25-1.25-.56-1.25-1.25ZM40.72,42.64c.93-.25,1.65-.97,1.92-1.89h8.66c.23,2.7,1.69,5.06,3.82,6.5h-16.87c1.38-1.11,2.31-2.75,2.48-4.61Z"/>
</svg>