<?xml version="1.0" encoding="UTF-8"?><svg id="a" xmlns="http://www.w3.org/2000/svg" viewBox="0 0 80 80"><path d="M65.98242,26.55322c2.16797,4.18066,3.26758,8.70459,3.26758,13.44678,0,16.12842-13.12109,29.25-29.25,29.25-7.80078,0-15.08887-3.01831-20.60278-8.5h6.60278v-1.5h-8c-.41406,0-.75,.33594-.75,.75v8h1.5v-5.78198c5.74634,5.50806,13.2417,8.53198,21.25,8.53198,16.95605,0,30.75-13.79443,30.75-30.75,0-4.91455-1.18848-9.80322-3.43555-14.13721l-1.33203,.69043Z"/><path d="M62.75,20V12h-1.5v5.78198c-5.74634-5.50806-13.2417-8.53198-21.25-8.53198-16.95605,0-30.75,13.79443-30.75,30.75,0,4.91455,1.18848,9.80322,3.43555,14.13721l1.33203-.69043c-2.16797-4.18066-3.26758-8.70459-3.26758-13.44678,0-16.12842,13.12109-29.25,29.25-29.25,7.80078,0,15.08887,3.01831,20.60278,8.5h-6.60278v1.5h8c.41406,0,.75-.33594,.75-.75Z"/><path d="M23.25,40.73242v1.4917c0,.41406,.33594,.75,.75,.75s.75-.33594,.75-.75v-1.4917c0-.41406-.33594-.75-.75-.75s-.75,.33594-.75,.75Z"/><path d="M27.25,38.75391v3.47021c0,.41406,.33594,.75,.75,.75s.75-.33594,.75-.75v-3.47021c0-.41406-.33594-.75-.75-.75s-.75,.33594-.75,.75Z"/><path d="M31.25,36v7.65527c0,.41406,.33594,.75,.75,.75s.75-.33594,.75-.75v-7.65527c0-.41406-.33594-.75-.75-.75s-.75,.33594-.75,.75Z"/><path d="M35.25,38.75391v3.47021c0,.41406,.33594,.75,.75,.75s.75-.33594,.75-.75v-3.47021c0-.41406-.33594-.75-.75-.75s-.75,.33594-.75,.75Z"/><path d="M39.25,40.73682v1.4873c0,.41406,.33594,.75,.75,.75s.75-.33594,.75-.75v-1.4873c0-.41406-.33594-.75-.75-.75s-.75,.33594-.75,.75Z"/><path d="M43.25,38.75391v3.47021c0,.41406,.33594,.75,.75,.75s.75-.33594,.75-.75v-3.47021c0-.41406-.33594-.75-.75-.75s-.75,.33594-.75,.75Z"/><path d="M47.25,36v7.65527c0,.41406,.33594,.75,.75,.75s.75-.33594,.75-.75v-7.65527c0-.41406-.33594-.75-.75-.75s-.75,.33594-.75,.75Z"/><path d="M51.25,38.75391v3.47021c0,.41406,.33594,.75,.75,.75s.75-.33594,.75-.75v-3.47021c0-.41406-.33594-.75-.75-.75s-.75,.33594-.75,.75Z"/><path d="M55.25,40.73242v1.4917c0,.41406,.33594,.75,.75,.75s.75-.33594,.75-.75v-1.4917c0-.41406-.33594-.75-.75-.75s-.75,.33594-.75,.75Z"/></svg>