<?xml version="1.0" encoding="UTF-8"?><svg id="a" xmlns="http://www.w3.org/2000/svg" viewBox="0 0 80 80"><path d="M38,49.74414H12c-.41406,0-.75,.33594-.75,.75v16c0,.41406,.33594,.75,.75,.75h26c.41406,0,.75-.33594,.75-.75v-16c0-.41406-.33594-.75-.75-.75Zm-.75,16H12.75v-14.5h24.5v14.5Z"/><path d="M70,27.74414h-25.25V12.49414c0-.41406-.33594-.75-.75-.75H18c-.41406,0-.75,.33594-.75,.75V44.49414c0,.41406,.33594,.75,.75,.75h25.25v15.25c0,.41406,.33594,.75,.75,.75h26c.41406,0,.75-.33594,.75-.75V28.49414c0-.41406-.33594-.75-.75-.75Zm-.75,16h-24.5v-14.5h24.5v14.5ZM18.75,13.24414h24.5v14.5H18.75V13.24414Zm0,16h24.5v14.5H18.75v-14.5Zm50.5,30.5h-24.5v-14.5h24.5v14.5Z"/><path d="M53.37598,20.01831h.99756c.16113,0,.29199-.1308,.29199-.29218v-5.22028l1.89014,5.40833c.02197,.06238,.08057,.10413,.14697,.10413h1.30371c.06641,0,.12549-.04236,.14697-.10529l1.84668-5.4187v5.36853c0,.08588,.06934,.15546,.15527,.15546h1.38232c.08545,0,.15527-.06958,.15527-.15546v-7.7074c0-.08588-.06982-.15546-.15527-.15546h-1.92676c-.06689,0-.12598,.0426-.14697,.1059l-1.92529,5.72137c-.04736,.14044-.24561,.14142-.29395,.0014l-1.98633-5.72418c-.02197-.06256-.08057-.10449-.14697-.10449h-1.87207c-.08594,0-.15527,.06958-.15527,.15546v7.57068c0,.16138,.13086,.29218,.29199,.29218Z"/><path d="M66.04199,20.01831c.79639,0,1.4541-.23743,1.97314-.71228,.57666-.53326,.86572-1.24176,.86572-2.12555,0-.75281-.19043-1.35577-.56982-1.80896-.42383-.50409-1.02686-.75562-1.80811-.75562-.33643,0-.65381,.0744-.95361,.22424-.29932,.14978-.54443,.35986-.73389,.63031,.13086-1.53387,.57275-2.30078,1.32568-2.30078,.40869,0,.67188,.17523,.78857,.5257h1.85254c-.16113-.49652-.44189-.88751-.84424-1.17297-.46729-.33545-1.06299-.50409-1.78564-.50409-.81836,0-1.47607,.23743-1.97266,.71228-.73145,.6944-1.0957,1.87396-1.0957,3.53973,0,1.13251,.22949,2.0238,.69043,2.67389,.51807,.71606,1.2749,1.0741,2.26758,1.0741Zm-.88721-3.70367c.21924-.32886,.52588-.49371,.92041-.49371,.72363,0,1.08545,.48993,1.08545,1.46887,0,.41644-.09521,.76312-.28564,1.04108-.21875,.32129-.51172,.48242-.87598,.48242-.36572,0-.64746-.16113-.84424-.48242-.17529-.27795-.26318-.61334-.26318-1.00812,0-.40137,.08789-.73773,.26318-1.00812Z"/><circle cx="24" cy="20.49432" r="1"/><circle cx="24" cy="36.49432" r="1"/><circle cx="50" cy="36.49432" r="1"/><circle cx="50" cy="52.49432" r="1"/><circle cx="18" cy="58.49432" r="1"/></svg>