<?xml version="1.0" encoding="UTF-8"?><svg id="a" xmlns="http://www.w3.org/2000/svg" viewBox="0 0 80 80"><path d="M39.46875,70.5293c.14062,.14111,.33203,.2207,.53125,.2207s.39062-.07959,.53125-.2207l17.52344-17.58594c4.85156-4.84033,7.52295-11.27344,7.52295-18.11572,0-14.10352-11.47412-25.57764-25.57764-25.57764S14.42236,20.72412,14.42236,34.82764c0,6.84229,2.67188,13.27637,7.52246,18.11523l17.52393,17.58643Zm.53125-59.7793c13.27637,0,24.07764,10.80127,24.07764,24.07764,0,6.44092-2.51562,12.49805-7.0835,17.05518l-.00146,.00146-16.99268,17.05323-16.99414-17.0547c-4.56787-4.55713-7.0835-10.61426-7.0835-17.05518,0-13.27637,10.80127-24.07764,24.07764-24.07764Z"/><path d="M40,44.75c5.92773,0,10.75-4.82227,10.75-10.75s-4.82227-10.75-10.75-10.75-10.75,4.82227-10.75,10.75,4.82227,10.75,10.75,10.75Zm0-20c5.10059,0,9.25,4.14941,9.25,9.25s-4.14941,9.25-9.25,9.25-9.25-4.14941-9.25-9.25,4.14941-9.25,9.25-9.25Z"/></svg>