<?xml version="1.0" encoding="UTF-8"?><svg id="a" xmlns="http://www.w3.org/2000/svg" viewBox="0 0 80 80"><path d="M22.53027,9.46973c-.29102-.2915-.7627-.29346-1.05762-.00293l-12,11.86572c-.1416,.14014-.22168,.33057-.22266,.52979s.07715,.39062,.21777,.53174l18,18.13428c.14062,.1416,.33105,.22119,.53125,.22168h.00098c.19922,0,.38965-.0791,.53027-.21973l12-12c.29297-.29297,.29297-.76758,0-1.06055L22.53027,9.46973Zm5.47168,29.46777L11.06152,21.87061l10.93555-10.81299,16.94238,16.94238-10.9375,10.9375Z"/><path d="M52.53027,39.46973c-.29199-.2915-.76367-.29346-1.05762-.00293l-12,11.86572c-.1416,.14014-.22168,.33057-.22266,.52979s.07715,.39062,.21777,.53174l18,18.13428c.14062,.1416,.33105,.22119,.53125,.22168h.00098c.19922,0,.38965-.0791,.53027-.21973l12-12c.29297-.29297,.29297-.76758,0-1.06055l-18-18Zm5.47168,29.46777l-16.94043-17.06689,10.93555-10.81299,16.94238,16.94238-10.9375,10.9375Z"/><path d="M50.75,36.00049c0-.19873-.0791-.38965-.21973-.53027l-6-6c-.29297-.29297-.76758-.29297-1.06055,0l-12.81445,12.81445c-1.23291-.31641-2.54199-.4165-3.89453-.2583-2.72559,.31641-5.45117,1.60352-7.29102,3.44336-.29297,.29297-.29297,.76758,0,1.06055l6.5166,6.5166-.59424,.59473c-.41016-.24268-.88232-.3916-1.39209-.3916-1.5166,0-2.75,1.2334-2.75,2.75s1.2334,2.75,2.75,2.75,2.75-1.2334,2.75-2.75c0-.46045-.12451-.88818-.3252-1.27002l.62207-.62256,6.42285,6.42285c.14648,.14648,.33789,.21973,.53027,.21973s.38379-.07324,.53027-.21973c1.84668-1.84668,3.15137-4.55225,3.48926-7.23682,.14355-1.14136,.15039-2.54321-.2373-4.01538l12.74805-12.74731c.14062-.14062,.21973-.33154,.21973-.53027Zm-26.75,21.24951c-.68945,0-1.25-.56055-1.25-1.25s.56055-1.25,1.25-1.25,1.25,.56055,1.25,1.25-.56055,1.25-1.25,1.25Zm12.53125-4.14355c-.26562,2.10889-1.2041,4.229-2.55273,5.81152l-12.89453-12.89502c3.16016-2.66797,9.06348-4.08936,13.07031-.08301,2.40723,2.40771,2.62109,5.22607,2.37695,7.1665Zm.68799-5.38623c-.4458-.96216-1.08936-1.92578-2.00439-2.84082-.87988-.87988-1.88867-1.56152-2.98242-2.05078l11.76758-11.76758,4.93945,4.93945-11.72021,11.71973Z"/><path d="M22,61.25c-1.79199,0-3.25-1.45801-3.25-3.25h-1.5c0,2.61914,2.13086,4.75,4.75,4.75v-1.5Z"/><path d="M14.75,58h-1.5c0,4.82471,3.9248,8.75,8.75,8.75v-1.5c-3.99805,0-7.25-3.25244-7.25-7.25Z"/><path d="M22,70.75v-1.5c-6.20312,0-11.25-5.04688-11.25-11.25h-1.5c0,7.03027,5.71973,12.75,12.75,12.75Z"/></svg>