<?xml version="1.0" encoding="UTF-8"?><svg id="a" xmlns="http://www.w3.org/2000/svg" viewBox="0 0 80 80"><path d="M64.75,34c0-13.64746-11.10254-24.75-24.75-24.75S15.25,20.35254,15.25,34c0,10.66675,6.78247,19.77856,16.26123,23.25h-1.51123c-.41406,0-.75,.33594-.75,.75v4c0,.41406,.33594,.75,.75,.75h6c.68945,0,1.25,.56055,1.25,1.25v8h1.5v-8c0-1.5166-1.2334-2.75-2.75-2.75h-5.25v-2.5h18.5v2.5h-5.25c-1.5166,0-2.75,1.2334-2.75,2.75v8h1.5v-8c0-.68945,.56055-1.25,1.25-1.25h6c.41406,0,.75-.33594,.75-.75v-4c0-.41406-.33594-.75-.75-.75h-1.51123c9.47876-3.47144,16.26123-12.58325,16.26123-23.25Zm-24.75,23.25c-12.82031,0-23.25-10.42969-23.25-23.25S27.17969,10.75,40,10.75s23.25,10.42969,23.25,23.25-10.42969,23.25-23.25,23.25Z"/><path d="M49.25,48h1.5c0-1.79199,1.45801-3.25,3.25-3.25v-1.5c-2.61914,0-4.75,2.13086-4.75,4.75Z"/><path d="M43.25,42h1.5c0-1.79199,1.45801-3.25,3.25-3.25v-1.5c-2.61914,0-4.75,2.13086-4.75,4.75Z"/><path d="M53.25,38h1.5c0-1.79199,1.45801-3.25,3.25-3.25v-1.5c-2.61914,0-4.75,2.13086-4.75,4.75Z"/><path d="M39.25,52h1.5c0-1.79199,1.45801-3.25,3.25-3.25v-1.5c-2.61914,0-4.75,2.13086-4.75,4.75Z"/><path d="M52,28.75v-1.5c-2.61914,0-4.75,2.13086-4.75,4.75h1.5c0-1.79199,1.45801-3.25,3.25-3.25Z"/><path d="M33.25,46h1.5c0-1.79199,1.45801-3.25,3.25-3.25v-1.5c-2.61914,0-4.75,2.13086-4.75,4.75Z"/></svg>