<?xml version="1.0" encoding="UTF-8"?><svg id="a" xmlns="http://www.w3.org/2000/svg" viewBox="0 0 80 80"><path d="M70,19.25H10c-.41406,0-.75,.33594-.75,.75V60c0,.41406,.33594,.75,.75,.75h60c.41406,0,.75-.33594,.75-.75V20c0-.41406-.33594-.75-.75-.75Zm-.75,40H10.75v-26.5h58.5v26.5Zm0-28H10.75v-4.5h58.5v4.5Zm0-6H10.75v-4.5h58.5v4.5Z"/><path d="M16,48.75h12c.41406,0,.75-.33594,.75-.75v-8c0-.41406-.33594-.75-.75-.75h-12c-.41406,0-.75,.33594-.75,.75v8c0,.41406,.33594,.75,.75,.75Zm8.75-8h2.5v2.5h-2.5v-2.5Zm0,4h2.5v2.5h-2.5v-2.5Zm-8-4h2.5v2.5h-2.5v-2.5Zm0,4h3.25c.41406,0,.75-.33594,.75-.75v-3.25h2.5v6.5h-6.5v-2.5Z"/><rect x="36" y="41.25" width="28" height="1.5"/><rect x="48" y="45.25" width="16" height="1.5"/></svg>