<?xml version="1.0" encoding="UTF-8"?><svg id="a" xmlns="http://www.w3.org/2000/svg" viewBox="0 0 80 80"><path d="M64.75,16c0-1.5166-1.2334-2.75-2.75-2.75-.79004,0-1.49805,.33936-2,.87445-.50195-.5351-1.20996-.87445-2-.87445s-1.49805,.33936-2,.87445c-.50195-.5351-1.20996-.87445-2-.87445s-1.49805,.33936-2,.87445c-.50195-.5351-1.20996-.87445-2-.87445-1.5166,0-2.75,1.2334-2.75,2.75v3.25h-2.93945l-6.02246-6.02344c-1.27637-1.27441-2.97168-1.97656-4.77344-1.97656h-.76465v-3.25h-1.5v7.25h-10.5v-7.25h-1.5v7.25h-3.25c-1.5166,0-2.75,1.2334-2.75,2.75,0,.79004,.33936,1.49799,.87451,2-.53516,.50201-.87451,1.20996-.87451,2s.33936,1.49799,.87451,2c-.53516,.50201-.87451,1.20996-.87451,2s.33936,1.49799,.87451,2c-.53516,.50201-.87451,1.20996-.87451,2,0,1.5166,1.2334,2.75,2.75,2.75h3.25v2.93945l-6.02295,6.02295c-1.2749,1.2749-1.97705,2.96973-1.97705,4.77295v.76465h-3.25v1.5h7.25v10.5h-7.25v1.5h7.25v3.25c0,1.5166,1.2334,2.75,2.75,2.75,.79004,0,1.49805-.33936,2-.87445,.50195,.5351,1.20996,.87445,2,.87445s1.49805-.33936,2-.87445c.50195,.5351,1.20996,.87445,2,.87445s1.49805-.33936,2-.87445c.50195,.5351,1.20996,.87445,2,.87445,1.5166,0,2.75-1.2334,2.75-2.75v-3.25h2.93945l6.02246,6.02344c1.27637,1.27441,2.97168,1.97656,4.77344,1.97656h.76465v3.25h1.5v-7.25h10.5v7.25h1.5v-7.25h3.25c1.5166,0,2.75-1.2334,2.75-2.75,0-.79004-.33936-1.49799-.87451-2,.53516-.50201,.87451-1.20996,.87451-2s-.33936-1.49799-.87451-2c.53516-.50201,.87451-1.20996,.87451-2s-.33936-1.49799-.87451-2c.53516-.50201,.87451-1.20996,.87451-2,0-1.5166-1.2334-2.75-2.75-2.75h-3.25v-2.93945l6.02246-6.02246c1.27539-1.27441,1.97754-2.96973,1.97754-4.77344v-.76465h3.25v-1.5h-7.25v-10.5h7.25v-1.5h-7.25v-3.25ZM31.25,64c0,.68945-.56055,1.25-1.25,1.25s-1.25-.56055-1.25-1.25v-8h-1.5v8c0,.68945-.56055,1.25-1.25,1.25s-1.25-.56055-1.25-1.25v-8h-1.5v8c0,.68945-.56055,1.25-1.25,1.25s-1.25-.56055-1.25-1.25v-8h-1.5v8c0,.68945-.56055,1.25-1.25,1.25s-1.25-.56055-1.25-1.25v-16c0-.41406-.33594-.75-.75-.75h-3.25v-.76465c0-1.40234,.5459-2.7207,1.5376-3.7124l6.24268-6.24268c.14062-.14062,.21973-.33154,.21973-.53027v-3.25h10.5v31.25ZM16,31.25c-.68945,0-1.25-.56055-1.25-1.25s.56055-1.25,1.25-1.25h8v-1.5h-8c-.68945,0-1.25-.56055-1.25-1.25s.56055-1.25,1.25-1.25h8v-1.5h-8c-.68945,0-1.25-.56055-1.25-1.25s.56055-1.25,1.25-1.25h8v-1.5h-8c-.68945,0-1.25-.56055-1.25-1.25s.56055-1.25,1.25-1.25h16c.41406,0,.75-.33594,.75-.75v-3.25h.76465c1.40137,0,2.7207,.54639,3.71289,1.5376l6.24219,6.24268c.14062,.14062,.33105,.21973,.53027,.21973h3.25v10.5H16Zm31.25,1.5v14.5h-14.5v-14.5h14.5Zm16.75,16c.68945,0,1.25,.56055,1.25,1.25s-.56055,1.25-1.25,1.25h-8v1.5h8c.68945,0,1.25,.56055,1.25,1.25s-.56055,1.25-1.25,1.25h-8v1.5h8c.68945,0,1.25,.56055,1.25,1.25s-.56055,1.25-1.25,1.25h-8v1.5h8c.68945,0,1.25,.56055,1.25,1.25s-.56055,1.25-1.25,1.25h-16c-.41406,0-.75,.33594-.75,.75v3.25h-.76465c-1.40137,0-2.7207-.54639-3.71289-1.5376l-6.24219-6.24268c-.14062-.14062-.33105-.21973-.53027-.21973h-3.25v-10.5h31.25Zm3.25-16v.76465c0,1.40283-.5459,2.72119-1.53809,3.7124l-6.24219,6.24268c-.14062,.14062-.21973,.33154-.21973,.53027v3.25h-10.5V16c0-.68945,.56055-1.25,1.25-1.25s1.25,.56055,1.25,1.25v8h1.5v-8c0-.68945,.56055-1.25,1.25-1.25s1.25,.56055,1.25,1.25v8h1.5v-8c0-.68945,.56055-1.25,1.25-1.25s1.25,.56055,1.25,1.25v8h1.5v-8c0-.68945,.56055-1.25,1.25-1.25s1.25,.56055,1.25,1.25v16c0,.41406,.33594,.75,.75,.75h3.25Z"/></svg>