<?xml version="1.0" encoding="UTF-8"?><svg id="a" xmlns="http://www.w3.org/2000/svg" viewBox="0 0 80 80"><path d="M44.79004,22.85889l-.59766-1.375c-2.10938,.91748-3.47168,3.00684-3.47168,5.32324h1.5c0-1.71924,1.00879-3.26855,2.56934-3.94824Z"/><path d="M40.74048,15.1748c-.06396-.06653-.13098-.12866-.19751-.19214-.08838-.0835-.177-.16602-.26978-.2439-.09961-.08472-.20239-.16418-.30664-.24219-.06299-.04663-.12598-.09253-.19043-.13672-.13135-.09058-.26538-.17578-.40295-.25586-.04187-.02417-.08411-.04736-.12659-.07068-.15479-.08533-.31213-.16516-.47388-.23694-.03247-.01453-.06567-.02734-.09851-.04126-.16736-.07104-.33643-.13696-.51001-.19312-.04102-.01343-.08289-.02368-.12427-.03613-.16443-.04956-.32935-.09644-.49841-.13257-.07898-.01709-.15955-.02686-.23926-.04102-.13501-.02319-.26892-.04956-.40625-.06421-.22388-.02441-.44946-.03809-.67627-.03809-.27954,0-.55286,.02466-.82288,.0603-.06836,.00903-.13562,.02014-.20337,.03137-.23547,.03894-.4668,.08948-.69275,.15393-.03394,.00977-.06848,.01636-.10205,.02661-.25916,.07874-.51001,.17554-.75415,.28564-.05127,.02319-.10059,.04932-.15112,.07373-.20227,.0979-.39832,.20581-.58813,.32422-.04614,.02881-.09351,.0553-.13904,.08521-.21936,.14478-.42944,.30225-.62903,.47266-.04028,.03442-.07751,.07178-.11694,.10718-.16626,.14941-.32422,.30737-.47424,.47351-.03979,.04419-.08057,.08679-.11914,.1322-.17688,.20703-.34192,.42407-.49158,.65283-.0105,.01611-.01953,.0332-.02979,.04932-.14673,.22876-.27686,.46826-.39404,.71582-.00781,.01636-.01855,.03076-.02612,.04736-3.15137-.46777-5.96973,2.04785-5.99512,5.19678-1.89062,.49414-3.24023,2.19873-3.24023,4.2251,0,2.40967,1.93774,4.36938,4.32422,4.38367v.00256h28.85156v-.00256c2.38647-.01428,4.32422-1.974,4.32422-4.38367,0-2.16455-1.5625-3.96826-3.61035-4.32324-.00781-.11719-.03979-.22681-.05591-.34155-.01978-.14124-.03674-.28198-.0686-.41895-.03833-.16443-.09277-.32056-.14746-.47803-.04517-.12939-.08545-.25964-.14099-.38354-.06848-.15295-.15283-.29492-.23645-.43872-.06677-.11499-.12769-.23218-.20349-.34082-.09619-.1377-.20752-.26123-.31726-.3877-.08521-.0979-.16357-.20056-.25635-.29126-.12207-.11938-.25842-.22119-.39258-.3269-.09924-.078-.19141-.16333-.29675-.23328-.1488-.099-.31067-.17615-.47058-.25793-.1062-.05432-.20569-.1189-.31641-.16528-.18469-.07715-.3811-.12769-.57678-.18091-.09802-.02661-.18994-.06677-.29016-.08716-.30078-.06091-.61108-.09473-.92944-.09473-.51074,0-1.01855,.08496-1.50098,.24854-.11646-.26733-.2583-.51807-.41406-.7583-.04297-.06604-.09204-.12598-.1377-.18994-.13892-.19482-.28882-.37866-.45142-.55151-.0564-.05981-.11206-.1189-.17114-.17603-.19897-.19263-.40991-.37085-.63623-.52954-.02466-.01746-.04651-.03833-.07153-.0553-.25488-.17224-.52637-.31799-.80884-.44324-.07056-.03149-.1438-.0553-.21582-.08362-.22131-.08667-.44824-.15796-.68201-.21399-.08752-.021-.17346-.04297-.26257-.05957-.30957-.05737-.62463-.09668-.94849-.09668-.25525,0-.50842,.02124-.75879,.05786-.09192,.01343-.18042,.03882-.271,.05701-.15649,.03162-.31262,.06287-.46533,.10852-.10034,.03015-.19666,.07007-.29492,.10608-.14026,.05139-.27954,.10364-.41528,.16711-.09265,.04346-.18164,.09375-.27197,.14282-.08582,.04639-.17554,.08447-.25903,.13599l.00793,.01282c-.08447,.05237-.17419,.09448-.25598,.15173-.10034-.12732-.21094-.24353-.31958-.36182l.00806-.00732c-.03284-.0354-.06982-.06592-.10327-.10059Zm.16577,2.31348c.22754,.0293,.45801-.04785,.62305-.20898,.34412-.33862,.74268-.60034,1.17334-.78198,.03723-.01562,.07617-.02649,.11377-.04089,.16406-.06287,.33252-.11316,.50439-.1521,.05835-.01331,.1167-.02649,.17578-.03699,.21094-.03711,.42505-.06274,.64307-.06274,.23926,0,.47168,.02795,.69873,.07153,.07422,.01428,.14526,.03809,.21814,.05676,.15076,.0387,.29919,.08264,.44214,.13928,.078,.03076,.15332,.06653,.22888,.10254,.13257,.06323,.26099,.13354,.38477,.21167,.0686,.04321,.13708,.08679,.20288,.13452,.12378,.08984,.2395,.18945,.35144,.29358,.05396,.05029,.11096,.09705,.16199,.15051,.12073,.12622,.22864,.26404,.3313,.40613,.03125,.04358,.0686,.08167,.09814,.12659,.12024,.18213,.2229,.37671,.31104,.57922,.04358,.10095,.07275,.20984,.10791,.31555,.12769,.38147,.21265,.78296,.21265,1.20752,0,1.17139-.52246,2.25977-1.43359,2.98535l.93555,1.17285c1.26953-1.01172,1.99805-2.52734,1.99805-4.1582,0-.22424-.0387-.43799-.06567-.65491,.35889-.13647,.73193-.23132,1.11646-.23132,1.76953,0,3.20996,1.45801,3.20996,3.25,0,.6958-.21387,1.35889-.61816,1.91748l1.21484,.87988c.35596-.49194,.59741-1.04248,.74377-1.62097,1.2887,.27649,2.25916,1.43713,2.25916,2.82361,0,1.59131-1.27832,2.88623-2.84961,2.88623H25.59961c-1.57129,0-2.84961-1.29492-2.84961-2.88623,0-1.27295,.81396-2.34619,1.96899-2.72119,.63354,2.20679,2.63245,3.83447,5.02124,3.83447,.82324,0,1.61133-.18701,2.34277-.55518l-.67578-1.33984c-.51953,.26221-1.08008,.39502-1.66699,.39502-2.06738,0-3.75-1.70264-3.75-3.79541,0-2.18164,1.86511-3.94482,4.02026-3.77759-.07776,.39893-.12085,.81055-.12085,1.23218,0,.86035,.16699,1.69629,.49707,2.4834l1.38281-.5791c-.25195-.60303-.37988-1.24365-.37988-1.9043,0-.61169,.12451-1.19153,.32837-1.73169,.04639-.12317,.09937-.24219,.15454-.35986,.07227-.15271,.15186-.30054,.23877-.44409,.05908-.09802,.11694-.1969,.18237-.28992,.12317-.17456,.25952-.33826,.40381-.49487,.04614-.05017,.08618-.10657,.1344-.15466,.19788-.19739,.4137-.37573,.6427-.53662,.06824-.04785,.14246-.08618,.21313-.13049,.17041-.10706,.34595-.20593,.52954-.29114,.09351-.04333,.18909-.08167,.28528-.1189,.18176-.07056,.36902-.12842,.56067-.17651,.09229-.02319,.18335-.0498,.27734-.06763,.28589-.05347,.57812-.08984,.87915-.08984,.29919,0,.59106,.03699,.87817,.08984,.06714,.01245,.1344,.02441,.20068,.03979,.27441,.06274,.54248,.14551,.7998,.25537,.04797,.02051,.09302,.04688,.14014,.06885,.22583,.10547,.44287,.22937,.651,.37012,.0498,.03369,.10168,.06409,.15027,.09973,.22266,.16333,.43127,.3501,.62781,.55371,.25818,.26965,.49329,.56726,.6908,.90002,.11719,.19824,.31934,.33154,.54785,.36084Z"/><path d="M33.21191,22.39307v1.5c1.45508,0,2.63867,1.19922,2.63867,2.67334h1.5c0-2.30127-1.85645-4.17334-4.13867-4.17334Z"/><path d="M36.2168,17.42871h-1.5c0,2.30469,1.85938,4.17969,4.14551,4.17969v-1.5c-1.45898,0-2.64551-1.20215-2.64551-2.67969Z"/><path d="M53.58789,28.46484v-1.5c-1.45898,0-2.64551-1.20166-2.64551-2.6792h-1.5c0,2.3042,1.85938,4.1792,4.14551,4.1792Z"/><path d="M66.12109,58.75c1.44922,0,2.62891-1.15479,2.62891-2.57373V23.82373c0-1.41895-1.17969-2.57373-2.62891-2.57373h-4.12109v1.5h4.12109c.62207,0,1.12891,.48145,1.12891,1.07373v27.42627H12.38672V23.82373c0-.59229,.50684-1.07373,1.12891-1.07373h4.48438v-1.5h-4.48438c-1.44922,0-2.62891,1.15479-2.62891,2.57373V56.17627c0,1.41895,1.17969,2.57373,2.62891,2.57373h25.73438v4.5h-13.25v1.5h28v-1.5h-13.25v-4.5h25.37109Zm-52.60547-1.5c-.62207,0-1.12891-.48145-1.12891-1.07373v-3.42627h54.86328v3.42627c0,.59229-.50684,1.07373-1.12891,1.07373H13.51562Z"/></svg>