<svg id="DO_NOT_TOUCH_Outlines_" data-name="DO NOT TOUCH (Outlines)" xmlns="http://www.w3.org/2000/svg" viewBox="0 0 80 80"><path d="M40.7,69.25V60.72a24.36,24.36,0,0,0,5.71-.81L46,58.46a23.15,23.15,0,0,1-5.32.76V40.53a4.64,4.64,0,0,0,1.12-.31L59.41,50.37a2.71,2.71,0,0,0,1.37.37,2.75,2.75,0,0,0,1.38-5.13L44.55,35.45a4.58,4.58,0,0,0-1.8-3.13V12a2.75,2.75,0,0,0-5.5,0V32.32a4.58,4.58,0,0,0-1.8,3.13L17.84,45.61a2.75,2.75,0,0,0,1.38,5.13,2.71,2.71,0,0,0,1.37-.37L38.18,40.22a4.44,4.44,0,0,0,1,.3V59.23a23.3,23.3,0,0,1-16.49-7.69l-1.11,1a24.81,24.81,0,0,0,17.6,8.18v8.52H8v1.5H72v-1.5Zm3.75-32.13,17,9.79a1.25,1.25,0,0,1-1.25,2.17L43.21,39.29A4.54,4.54,0,0,0,44.45,37.12ZM38.75,12a1.25,1.25,0,0,1,2.5,0V31.58a4.21,4.21,0,0,0-2.5,0ZM40,32.89A3.11,3.11,0,1,1,36.89,36,3.11,3.11,0,0,1,40,32.89ZM19.84,49.08a1.25,1.25,0,0,1-1.25-2.17l17-9.79a4.54,4.54,0,0,0,1.24,2.17Z"/><path d="M62.12,43.16l1.43.46a24.76,24.76,0,0,0-6-25.12l-1.06,1.06a23.25,23.25,0,0,1,5.68,23.6Z"/><path d="M35.16,13.25l-.32-1.46A24.84,24.84,0,0,0,15.25,36h1.5A23.35,23.35,0,0,1,35.16,13.25Z"/><path d="M23.27,27.52l1.34.68a17.25,17.25,0,0,1,9.57-8.45l-.51-1.41A18.73,18.73,0,0,0,23.27,27.52Z"/></svg>