<?xml version="1.0" encoding="UTF-8"?><svg id="a" xmlns="http://www.w3.org/2000/svg" viewBox="0 0 80 80"><path d="M27.25,22c0,7.03027,5.71973,12.75,12.75,12.75s12.75-5.71973,12.75-12.75-5.71973-12.75-12.75-12.75-12.75,5.71973-12.75,12.75Zm1.57373,1.25024l2.53235,1.26611,1.55017,6.20483c-2.22852-1.81592-3.74841-4.46631-4.08252-7.47095Zm16.41821,8.6958c-1.56689,.82935-3.34924,1.30396-5.24194,1.30396s-3.67505-.47461-5.24194-1.30396l-1.80786-7.23608c1.58301-.1377,2.53223-.6123,3.38477-1.03906,.94727-.47363,1.8418-.9209,3.66504-.9209s2.71777,.44727,3.66504,.9209c.85254,.42676,1.80176,.90137,3.38477,1.03906l-1.80786,7.23608Zm1.85181-1.22485l1.55017-6.20483,2.53235-1.26611c-.33411,3.00464-1.854,5.65503-4.08252,7.47095Zm4.1333-9.1731l-3.39331,1.69678c-1.70703-.02759-2.58228-.45752-3.49878-.91577-1.01172-.50586-2.1582-1.0791-4.33496-1.0791s-3.32324,.57324-4.33496,1.0791c-.9165,.45825-1.79175,.88818-3.49878,.91577l-3.39331-1.69678c.23975-5.99292,5.17651-10.7981,11.22705-10.7981s10.9873,4.80518,11.22705,10.7981Z"/><path d="M64.75,72v-20c0-7.03027-5.71973-12.75-12.75-12.75H28c-7.03027,0-12.75,5.71973-12.75,12.75v20h1.5v-20c0-6.20312,5.04688-11.25,11.25-11.25h24c6.20312,0,11.25,5.04688,11.25,11.25v20h1.5Z"/><path d="M48,60.75c.20117,0,.39355-.08105,.53418-.22363l6.77441-6.87695c1.91797-1.91797,1.91797-5.04004,0-6.95801-.92969-.92969-2.16504-1.44141-3.47852-1.44141h-.00098c-1.31348,0-2.54883,.51172-3.44629,1.41113l-.38379,.33984-.34961-.30957c-.92969-.92969-2.16504-1.44141-3.47949-1.44141-1.31348,0-2.54883,.51172-3.47852,1.44141-1.91797,1.91797-1.91797,5.04004-.00391,6.9541l6.77832,6.88086c.14062,.14258,.33301,.22363,.53418,.22363Zm-7.25-10.5791c0-.91406,.35547-1.77246,1.00195-2.41895,.66309-.66309,1.5332-.99609,2.40723-.99609,.88477,0,1.77539,.34082,2.46191,1.02637l.88086,.78223c.2832,.25195,.71289,.25195,.99609,0l.91309-.8125c1.33301-1.33398,3.50195-1.33594,4.83691,0,.64648,.64648,1.00195,1.50488,1.00195,2.41895,0,.91309-.35547,1.77148-1.00586,2.42188l-6.24414,6.33887-6.24805-6.34277c-.64648-.64648-1.00195-1.50488-1.00195-2.41797Z"/></svg>