<?xml version="1.0" encoding="UTF-8"?><svg id="a" xmlns="http://www.w3.org/2000/svg" viewBox="0 0 80 80"><path d="M40,70.75c16.95605,0,30.75-13.79443,30.75-30.75,0-6.60156-2.09814-12.71863-5.65259-17.73425l5.44751-5.75012-1.08984-1.03125-5.26855,5.56116c-5.63428-7.17383-14.37793-11.79553-24.18652-11.79553-16.95605,0-30.75,13.79443-30.75,30.75s13.79395,30.75,30.75,30.75Zm0-60c9.41016,0,17.79053,4.47119,23.14453,11.39545l-29.15918,30.77936-13.45508-13.45508-1.06055,1.06055,14,14c.14062,.14062,.33105,.21973,.53027,.21973h.00977c.20312-.00293,.39551-.0874,.53516-.23438l29.50195-31.14081c3.27637,4.72467,5.20312,10.45282,5.20312,16.62518,0,16.12842-13.12109,29.25-29.25,29.25s-29.25-13.12158-29.25-29.25S23.87109,10.75,40,10.75Z"/></svg>