<?xml version="1.0" encoding="UTF-8"?><svg id="a" xmlns="http://www.w3.org/2000/svg" viewBox="0 0 80 80"><path d="M51.22705,63.7124c-.9917,.9917-2.31006,1.5376-3.7124,1.5376h-14.68604c-.73486,0-1.42529,.28613-1.94482,.80566l-3.41406,3.41406,1.06055,1.06055,3.41406-3.41406c.23633-.23633,.55029-.36621,.88428-.36621h14.68604c1.80322,0,3.49805-.70215,4.77295-1.97705l14.22266-14.22266c1.40625-1.40625,1.40625-3.69434,0-5.10059-1.38379-1.38379-3.63623-1.38428-5.02197,.00146l-1.41687,1.42377-.59973-.5683c-1.39062-1.31543-3.55273-1.29932-4.92969,.04736l-6.91675,6.95917c-.20435-.03461-.41113-.06317-.62524-.06317h-14.51465c-1.80322,0-3.49805,.70215-4.77295,1.97705l-14.24268,14.24268,1.06055,1.06055,14.24268-14.24268c.9917-.9917,2.31006-1.5376,3.7124-1.5376h14.51465c1.24072,0,2.25,1.00928,2.25,2.25,0,.48041-.2937,1.0238-.70349,1.45618l-.05383,.05408,.00122,.00116c-.42261,.42529-.95667,.73029-1.42798,.73029l-11.06641,.0083,.00098,1.5,11.06592-.0083c.91553,0,1.85425-.50635,2.55688-1.24121l12.927-12.99023c.7998-.79883,2.09961-.79883,2.89941,0,.82129,.82129,.82129,2.1582,0,2.97949l-14.22266,14.22266Zm-.54663-7.40057c-.1842-.98621-.75244-1.83618-1.54663-2.38873l6.46436-6.50366c.78955-.77393,2.03906-.7832,2.84229-.02344l.57275,.54242-8.33276,8.37341Z"/><path d="M40,42.75c9.23584,0,16.75-7.51416,16.75-16.75s-7.51416-16.75-16.75-16.75-16.75,7.51416-16.75,16.75,7.51416,16.75,16.75,16.75Zm10.01318-25.1709v-3.05286c3.20142,2.79767,5.23682,6.89832,5.23682,11.47375s-2.0354,8.67609-5.23682,11.47375v-3.05286c0-2.73535-2.2251-4.96045-4.96045-4.96045-1.9082,0-3.46045-1.55225-3.46045-3.46045s1.55225-3.46045,3.46045-3.46045c2.73535,0,4.96045-2.2251,4.96045-4.96045Zm-10.01318-6.8291c.03113,0,.06116,.00452,.09229,.0047v4.29803c0,1.44385-1.1748,2.61816-2.61865,2.61816h-1.68408c-2.271,0-4.11865,1.84766-4.11865,4.11865,0,1.44385-1.17432,2.61816-2.61816,2.61816h-4.21851c.79907-7.66296,7.29492-13.65771,15.16577-13.65771Zm-15.25,15.25c0-.03113,.00452-.06116,.00464-.09229h4.2981c2.271,0,4.11816-1.84717,4.11816-4.11816,0-1.44385,1.1748-2.61865,2.61865-2.61865h1.68408c2.271,0,4.11865-1.84717,4.11865-4.11816v-4.21844c2.54346,.2652,4.90332,1.15674,6.9209,2.51935v4.22546c0,1.9082-1.55225,3.46045-3.46045,3.46045-2.73535,0-4.96045,2.2251-4.96045,4.96045s2.2251,4.96045,4.96045,4.96045c1.9082,0,3.46045,1.55225,3.46045,3.46045v4.22546c-2.43286,1.64313-5.36304,2.60364-8.51318,2.60364-.60181,0-1.19263-.04425-1.77637-.11243v-5.0321c0-2.73535-2.2251-4.96094-4.96045-4.96094h-7.60107c-.57959-1.61011-.91211-3.33722-.91211-5.14453Zm8.51318,6.64453c1.9082,0,3.46045,1.55273,3.46045,3.46094v4.78082c-4.59973-1.01208-8.41553-4.10718-10.42871-8.24176h6.96826Z"/></svg>