<?xml version="1.0" encoding="UTF-8"?><svg id="a" xmlns="http://www.w3.org/2000/svg" viewBox="0 0 80 80"><path d="M14.51904,24.16748c.12695,.08301,.26953,.12256,.41064,.12256,.24414,0,.48389-.11914,.62793-.33887,3.61084-5.50977,9.02881-9.67188,15.25684-11.71875,.39355-.12939,.60742-.55322,.47803-.94678-.12939-.39307-.5498-.60742-.94678-.47803-6.54883,2.15234-12.24658,6.52832-16.04297,12.32129-.22705,.34668-.12988,.81152,.21631,1.03857Z"/><path d="M23.95117,64.44238c-5.50977-3.61084-9.67188-9.02881-11.71875-15.25684-.12842-.39307-.5498-.60742-.94678-.47803-.39355,.12939-.60742,.55322-.47803,.94678,2.15234,6.54883,6.52832,12.24658,12.32129,16.04297,.12695,.08301,.26953,.12256,.41064,.12256,.24414,0,.48389-.11914,.62793-.33887,.22705-.34668,.12988-.81152-.21631-1.03857Z"/><path d="M11.354,45.92627c-.40088-1.91553-.604-3.90967-.604-5.92627,0-4.62451,1.04932-9.04248,3.11914-13.13135,.1875-.36963,.03955-.8208-.33008-1.00781-.37012-.18799-.8208-.04004-1.00781,.33008-2.17725,4.30078-3.28125,8.94678-3.28125,13.80908,0,2.11963,.21387,4.2168,.63623,6.23389,.07373,.35352,.38574,.59619,.73291,.59619,.05127,0,.10303-.00488,.15479-.01611,.40527-.08447,.66504-.48193,.58008-.8877Z"/><path d="M70.11377,33.76611c-.08447-.40576-.48389-.66699-.8877-.58008-.40527,.08447-.66504,.48193-.58008,.8877,.40088,1.91553,.604,3.90967,.604,5.92627,0,4.62451-1.04932,9.04248-3.11914,13.13135-.1875,.36963-.03955,.8208,.33008,1.00781,.10889,.05518,.22412,.08105,.33838,.08105,.27344,0,.5376-.15039,.66943-.41113,2.17725-4.30078,3.28125-8.94678,3.28125-13.80908,0-2.11963-.21387-4.2168-.63623-6.23389Z"/><path d="M56.04883,15.55762c5.50977,3.61084,9.67188,9.02881,11.71875,15.25684,.10352,.31543,.39697,.51562,.7124,.51562,.07764,0,.15625-.01172,.23438-.0376,.39355-.12939,.60742-.55322,.47803-.94678-2.15234-6.54883-6.52832-12.24658-12.32129-16.04297-.34668-.22656-.81104-.12988-1.03857,.21631-.22705,.34668-.12988,.81152,.21631,1.03857Z"/><path d="M45.92627,68.646c-1.91553,.40088-3.90967,.604-5.92627,.604-4.62451,0-9.04248-1.04932-13.13135-3.11914-.36914-.1875-.8208-.03955-1.00781,.33008-.1875,.36963-.03955,.8208,.33008,1.00781,4.30078,2.17725,8.94678,3.28125,13.80908,3.28125,2.11963,0,4.2168-.21387,6.23389-.63623,.40527-.08447,.66504-.48193,.58008-.8877-.08447-.40625-.48682-.66602-.8877-.58008Z"/><path d="M65.48096,55.83252c-.34619-.22607-.81055-.13037-1.03857,.21631-3.61084,5.50977-9.02881,9.67188-15.25684,11.71875-.39355,.12939-.60742,.55322-.47803,.94678,.10352,.31543,.39697,.51562,.7124,.51562,.07764,0,.15625-.01172,.23438-.0376,6.54883-2.15234,12.24658-6.52832,16.04297-12.32129,.22705-.34668,.12988-.81152-.21631-1.03857Z"/><path d="M34.07373,11.354c1.91553-.40088,3.90967-.604,5.92627-.604,4.62451,0,9.04248,1.04932,13.13135,3.11914,.10889,.05518,.22412,.08105,.33838,.08105,.27344,0,.5376-.15039,.66943-.41113,.1875-.36963,.03955-.8208-.33008-1.00781-4.30078-2.17725-8.94678-3.28125-13.80908-3.28125-2.11963,0-4.2168,.21387-6.23389,.63623-.40527,.08447-.66504,.48193-.58008,.8877,.08447,.40527,.48584,.66553,.8877,.58008Z"/><path d="M61.69043,30.49023c.10693,0,.21582-.02295,.31934-.07178,.37451-.17627,.53516-.62354,.3584-.99805-2.29053-4.85889-6.17676-8.89551-10.94287-11.36621-.36768-.18896-.82031-.04688-1.01123,.3208-.19043,.36768-.04688,.82031,.3208,1.01123,4.47607,2.31982,8.12549,6.11084,10.27686,10.67383,.12793,.27148,.39746,.43018,.67871,.43018Z"/><path d="M28.57471,61.9458c.11035,.05713,.22852,.08398,.34473,.08398,.271,0,.53271-.14746,.6665-.40479,.19043-.36768,.04688-.82031-.3208-1.01123-4.47607-2.31982-8.12549-6.11084-10.27686-10.67383-.17676-.37451-.62207-.53564-.99805-.3584-.37451,.17627-.53516,.62354-.3584,.99805,2.29053,4.85889,6.17676,8.89551,10.94287,11.36621Z"/><path d="M17.65381,31.21436c-.39014-.14111-.81934,.0625-.95947,.45166-.9585,2.66553-1.44434,5.46973-1.44434,8.33398,0,2.53418,.38525,5.03955,1.14453,7.4458,.10107,.31982,.39648,.52441,.71533,.52441,.07471,0,.15088-.01123,.22559-.03467,.39502-.125,.61426-.5459,.48975-.94092-.71338-2.26025-1.0752-4.61377-1.0752-6.99463,0-2.69092,.45605-5.32422,1.35547-7.82617,.14014-.39014-.06201-.81934-.45166-.95947Z"/><path d="M50.26025,62.43994c.10693,0,.21582-.02295,.31934-.07178,4.85889-2.29053,8.89551-6.17676,11.36621-10.94287,.19043-.36768,.04688-.82031-.3208-1.01123-.3667-.18945-.81982-.0459-1.01123,.3208-2.31982,4.47607-6.11084,8.12549-10.67383,10.27686-.37451,.17627-.53516,.62354-.3584,.99805,.12793,.27148,.39746,.43018,.67871,.43018Z"/><path d="M29.42041,17.63184c-4.85889,2.29053-8.89551,6.17676-11.36621,10.94287-.19043,.36768-.04688,.82031,.3208,1.01123,.11035,.05713,.22852,.08398,.34473,.08398,.271,0,.53271-.14746,.6665-.40479,2.31982-4.47607,6.11084-8.12549,10.67383-10.27686,.37451-.17627,.53516-.62354,.3584-.99805s-.62305-.53564-.99805-.3584Z"/><path d="M33.00537,17.8252c4.81445-1.51953,10.10547-1.41504,14.8208,.28027,.08398,.03027,.16943,.04443,.25391,.04443,.30762,0,.5957-.19043,.70557-.49609,.14014-.39014-.06201-.81934-.45166-.95947-5.02393-1.80615-10.65332-1.91699-15.77979-.2998-.39502,.125-.61426,.5459-.48975,.94092,.12451,.39453,.54834,.6123,.94092,.48975Z"/><path d="M46.99463,62.1748c-4.81445,1.51953-10.10547,1.41504-14.8208-.28027-.38916-.14062-.81982,.0625-.95947,.45166-.14014,.39014,.06201,.81934,.45166,.95947,2.66553,.9585,5.46973,1.44434,8.33398,1.44434,2.53418,0,5.03955-.38525,7.4458-1.14453,.39502-.125,.61426-.5459,.48975-.94092-.12451-.39453-.54785-.61279-.94092-.48975Z"/><path d="M62.34619,48.78564c.08398,.03027,.16943,.04443,.25391,.04443,.30762,0,.5957-.19043,.70557-.49609,.9585-2.66553,1.44434-5.46973,1.44434-8.33398,0-2.53418-.38525-5.03955-1.14453-7.4458-.125-.39502-.54785-.61328-.94092-.48975-.39502,.125-.61426,.5459-.48975,.94092,.71338,2.26025,1.0752,4.61377,1.0752,6.99463,0,2.69092-.45605,5.32422-1.35547,7.82617-.14014,.39014,.06201,.81934,.45166,.95947Z"/><path d="M54.52686,30.72168c.14258,.2251,.38574,.34814,.63379,.34814,.1377,0,.27686-.0376,.40137-.1167,.34961-.22168,.45312-.68506,.23145-1.03516-2.07422-3.27002-5.05811-5.77441-8.62842-7.2417-.3833-.15625-.82129,.02637-.979,.40869-.15723,.3833,.02588,.82129,.40869,.979,3.23486,1.3291,6.05225,3.69385,7.93213,6.65771Z"/><path d="M30.95312,24.43799c-.22119-.3501-.68604-.45264-1.03516-.23145-3.27002,2.07422-5.77441,5.05811-7.2417,8.62842-.15723,.3833,.02588,.82129,.40869,.979,.09326,.03809,.18994,.05615,.28467,.05615,.29541,0,.5752-.17529,.69434-.46484,1.3291-3.23486,3.69385-6.05225,6.65771-7.93213,.34961-.22168,.45312-.68506,.23145-1.03516Z"/><path d="M57.40039,44.60059c.05713,.01318,.11377,.01953,.16992,.01953,.34131,0,.6499-.23389,.72998-.58057,.29834-1.28564,.44971-2.64453,.44971-4.03955,0-2.47656-.47998-4.89453-1.42676-7.18604-.1582-.38281-.5957-.56348-.97949-.40723-.3833,.1582-.56543,.59668-.40723,.97949,.87158,2.10986,1.31348,4.33496,1.31348,6.61377,0,1.28076-.13818,2.52588-.41064,3.70068-.09375,.40332,.15723,.80664,.56104,.8999Z"/><path d="M35.96045,58.30029c1.28564,.29834,2.64453,.44971,4.03955,.44971,2.47656,0,4.89453-.47998,7.18604-1.42676,.3833-.1582,.56543-.59668,.40723-.97949-.15771-.38232-.59717-.56494-.97949-.40723-2.10986,.87158-4.33496,1.31348-6.61377,1.31348-1.28076,0-2.52588-.13818-3.70068-.41064-.40527-.0957-.80713,.15723-.8999,.56104-.09375,.40332,.15723,.80664,.56104,.8999Z"/><path d="M22.59961,35.39941c-.40576-.09424-.80664,.15674-.8999,.56104-.29834,1.28564-.44971,2.64453-.44971,4.03955,0,2.47656,.47998,4.89453,1.42676,7.18604,.11963,.28955,.39893,.46387,.69385,.46387,.09521,0,.19238-.01807,.28564-.05664,.3833-.1582,.56543-.59668,.40723-.97949-.87158-2.10986-1.31348-4.33496-1.31348-6.61377,0-1.28076,.13818-2.52588,.41064-3.70068,.09375-.40332-.15723-.80664-.56104-.8999Z"/><path d="M33.11963,57.37988c.29541,0,.5752-.17529,.69434-.46484,.15723-.3833-.02588-.82129-.40869-.979-3.23486-1.3291-6.05225-3.69385-7.93213-6.65771-.22217-.34961-.68604-.45361-1.03516-.23145-.34961,.22168-.45312,.68506-.23145,1.03516,2.07422,3.27002,5.05811,5.77441,8.62842,7.2417,.09326,.03809,.18994,.05615,.28467,.05615Z"/><path d="M49.04688,55.56201c.14258,.2251,.38574,.34814,.63379,.34814,.1377,0,.27686-.0376,.40137-.1167,3.27002-2.07422,5.77441-5.05811,7.2417-8.62842,.15723-.3833-.02588-.82129-.40869-.979-.38428-.15527-.82129,.02637-.979,.40869-1.3291,3.23486-3.69385,6.05225-6.65771,7.93213-.34961,.22168-.45312,.68506-.23145,1.03516Z"/><path d="M44.60059,22.59961c.09375-.40332-.15723-.80664-.56104-.8999-1.28564-.29834-2.64453-.44971-4.03955-.44971-2.47656,0-4.89453,.47998-7.18604,1.42676-.3833,.1582-.56543,.59668-.40723,.97949,.11963,.28955,.39893,.46387,.69385,.46387,.09521,0,.19238-.01807,.28564-.05664,2.10986-.87158,4.33496-1.31348,6.61377-1.31348,1.28076,0,2.52588,.13818,3.70068,.41064,.40186,.09277,.80664-.15771,.8999-.56104Z"/><path d="M41.60547,28.12061c.04443-.41162-.25293-.78174-.66504-.82617-.30615-.0332-.62305-.04443-.94043-.04443-1.98047,0-3.87549,.43994-5.63184,1.30762-.37158,.18311-.52393,.6333-.34033,1.00439,.13037,.26465,.39648,.41797,.67285,.41797,.11182,0,.2251-.0249,.33154-.07764,1.54834-.76465,3.21973-1.15234,4.96777-1.15234,.2627,0,.52588,.0083,.7793,.03564,.41309,.04053,.78174-.25342,.82617-.66504Z"/><path d="M52.07031,44.11035c.13281-.39209-.07764-.81787-.47021-.95068-.39307-.13184-.81836,.07764-.95068,.47021-.63477,1.87744-1.77295,3.56641-3.29102,4.88379-.3125,.27148-.34619,.74512-.07471,1.05811,.14844,.1709,.35693,.2583,.56689,.2583,.17432,0,.34912-.06055,.49121-.18359,1.71875-1.49219,3.0083-3.40625,3.72852-5.53613Z"/><path d="M36.12988,52.10986c.31299,0,.60449-.19678,.71045-.50977,.13281-.39258-.07764-.81787-.47021-.95068-1.87744-.63477-3.56641-1.77295-4.88379-3.29102-.27197-.31299-.74512-.34619-1.05811-.07471-.3125,.27148-.34619,.74512-.07471,1.05811,1.49219,1.71875,3.40625,3.0083,5.53613,3.72852,.07959,.02686,.16064,.03955,.24023,.03955Z"/><path d="M28.12061,38.39453c-.41162-.04492-.78223,.25342-.82617,.66504-.0332,.30615-.04443,.62305-.04443,.94043,0,1.98047,.43994,3.87549,1.30762,5.63184,.13037,.26465,.39648,.41797,.67285,.41797,.11182,0,.2251-.0249,.33154-.07764,.37158-.18311,.52393-.6333,.34033-1.00439-.76465-1.54834-1.15234-3.21973-1.15234-4.96777,0-.2627,.0083-.52588,.03564-.7793,.04443-.41162-.25293-.78174-.66504-.82617Z"/><path d="M39.05957,52.70557c.30615,.0332,.62305,.04443,.94043,.04443,1.98047,0,3.87549-.43994,5.63184-1.30762,.37158-.18311,.52393-.6333,.34033-1.00439-.18359-.37207-.63477-.52393-1.00439-.34033-1.54834,.76465-3.21973,1.15234-4.96777,1.15234-.2627,0-.52588-.0083-.7793-.03564-.41309-.04395-.78174,.25342-.82617,.66504s.25293,.78174,.66504,.82617Z"/><path d="M51.87939,41.60547c.02734,.00293,.05469,.00439,.08154,.00439,.37793,0,.70312-.28516,.74463-.66943,.0332-.30615,.04443-.62305,.04443-.94043,0-1.98047-.43994-3.87549-1.30762-5.63184-.18359-.37207-.63525-.52393-1.00439-.34033-.37158,.18311-.52393,.6333-.34033,1.00439,.76465,1.54834,1.15234,3.21973,1.15234,4.96777,0,.2627-.0083,.52588-.03564,.7793-.04443,.41162,.25293,.78174,.66504,.82617Z"/><path d="M27.92969,35.88965c-.13281,.39209,.07764,.81787,.47021,.95068,.07959,.02686,.16064,.03955,.24023,.03955,.31299,0,.60449-.19678,.71045-.50977,.63477-1.87744,1.77295-3.56641,3.29102-4.88379,.3125-.27148,.34619-.74512,.07471-1.05811-.27246-.31299-.74561-.34619-1.05811-.07471-1.71875,1.49219-3.0083,3.40625-3.72852,5.53613Z"/><path d="M48.51367,32.6416c.14844,.1709,.35693,.2583,.56689,.2583,.17432,0,.34912-.06055,.49121-.18359,.3125-.27148,.34619-.74512,.07471-1.05811-1.49219-1.71875-3.40625-3.0083-5.53613-3.72852-.39355-.1333-.81787,.07764-.95068,.47021s.07764,.81787,.47021,.95068c1.87744,.63477,3.56641,1.77295,4.88379,3.29102Z"/><path d="M42.31299,33.66406c-.39062-.13965-.81982,.0625-.95898,.45312-.13965,.38965,.06299,.81934,.45312,.95898,.45996,.16504,.89014,.39307,1.27881,.67822,.13379,.09814,.28906,.14551,.44336,.14551,.23047,0,.45801-.10596,.60498-.30615,.24512-.33398,.17334-.80322-.16064-1.04834-.50537-.37109-1.06396-.66748-1.66064-.88135Z"/><path d="M35.59375,35.86572c-.33398-.24414-.80273-.17334-1.04834,.16064-.37109,.50537-.66748,1.06396-.88135,1.66064-.13965,.38965,.06299,.81934,.45312,.95898,.0835,.02979,.16895,.04395,.25293,.04395,.30762,0,.59619-.19043,.70605-.49707,.16504-.45996,.39307-.89014,.67822-1.27881,.24512-.33398,.17334-.80322-.16064-1.04834Z"/><path d="M37.68701,46.33594c.0835,.02979,.16895,.04395,.25293,.04395,.30762,0,.59619-.19043,.70605-.49707,.13965-.38965-.06299-.81934-.45312-.95898-.45996-.16504-.89014-.39307-1.27881-.67822-.33301-.24463-.80273-.17285-1.04834,.16064-.24512,.33398-.17334,.80322,.16064,1.04834,.50537,.37109,1.06396,.66748,1.66064,.88135Z"/><path d="M45.91895,39.81006c.03516,0,.07129-.00244,.10693-.00732,.41016-.05908,.69531-.43896,.63672-.84863-.08838-.61572-.271-1.22217-.54395-1.80273-.17578-.37549-.62305-.53564-.99756-.35986-.375,.17578-.53613,.62256-.35986,.99756,.20947,.4458,.34912,.90918,.41602,1.37695,.05371,.37402,.37451,.64404,.7417,.64404Z"/><path d="M40.19727,46.02588c.05371,.37402,.37451,.64404,.7417,.64404,.03516,0,.07129-.00244,.10693-.00732,.61572-.08838,1.22217-.271,1.80273-.54395,.375-.17578,.53613-.62256,.35986-.99756-.17578-.375-.62354-.53467-.99756-.35986-.4458,.20947-.90918,.34912-1.37695,.41602-.41016,.05908-.69531,.43896-.63672,.84863Z"/><path d="M44.40625,44.13428c.13379,.09814,.28906,.14551,.44336,.14551,.23047,0,.45801-.10596,.60498-.30615,.37109-.50537,.66748-1.06396,.88135-1.66064,.13965-.38965-.06299-.81934-.45312-.95898-.39062-.14062-.81934,.0625-.95898,.45312-.16504,.45996-.39307,.89014-.67822,1.27881-.24512,.33398-.17334,.80322,.16064,1.04834Z"/><path d="M33.97412,40.19727c-.41016,.05908-.69531,.43896-.63672,.84863,.08838,.61572,.271,1.22217,.54395,1.80273,.12744,.27197,.39746,.43115,.6792,.43115,.10693,0,.21533-.02295,.31836-.07129,.375-.17578,.53613-.62256,.35986-.99756-.20947-.4458-.34912-.90918-.41602-1.37695-.05859-.40967-.44434-.6958-.84863-.63672Z"/><path d="M37.15137,33.88135c-.375,.17578-.53613,.62256-.35986,.99756,.12744,.27197,.39746,.43115,.6792,.43115,.10693,0,.21533-.02295,.31836-.07129,.4458-.20947,.90918-.34912,1.37695-.41602,.41016-.05908,.69531-.43896,.63672-.84863-.05908-.41016-.44531-.69238-.84863-.63672-.61572,.08838-1.22217,.271-1.80273,.54395Z"/></svg>