<?xml version="1.0" encoding="utf-8"?>
<!-- Generator: Adobe Illustrator 27.2.0, SVG Export Plug-In . SVG Version: 6.00 Build 0)  -->
<svg version="1.1" id="Layer_1" xmlns="http://www.w3.org/2000/svg" xmlns:xlink="http://www.w3.org/1999/xlink" x="0px" y="0px"
	 viewBox="0 0 80 80" style="enable-background:new 0 0 80 80;" xml:space="preserve">
<g id="DO_NOT_TOUCH_Outlines_">
	<path d="M36.1,70.8c-0.5,0-1-0.2-1.5-0.4c-0.7-0.4-1.2-1.1-1.4-2.1l-4.6-8.8c-1.9-3.6-1.5-6.3-0.8-7.8c0.9-2.1,2.7-3.2,4.1-3.5
		c0.8-0.2,3.5-0.4,5,4.9c0.5,1.7,0.5,3.4,0.5,5.2c0,2.4,0,5.1,1.2,8.5c0,0,0,0,0,0.1c0.2,0.9,0.2,1.8-0.2,2.5
		c-0.3,0.7-1,1.2-1.7,1.3C36.5,70.7,36.3,70.7,36.1,70.8L36.1,70.8z M32.6,49.5c-0.1,0-0.2,0-0.3,0c-1,0.3-2.4,1.1-3.1,2.7
		c-0.8,1.8-0.5,4,0.7,6.5l4.6,8.9c0,0,0,0.1,0.1,0.2c0.2,0.6,0.4,1,0.8,1.3c0.3,0.2,0.6,0.2,1,0.2c0.3-0.1,0.6-0.3,0.7-0.6
		c0.2-0.4,0.2-0.9,0.1-1.4c-1.2-3.6-1.2-6.4-1.3-8.9c0-1.8,0-3.3-0.5-4.8C34.8,50.9,33.7,49.5,32.6,49.5z"/>
	<path d="M43.9,59.7c-0.2,0-0.5,0-0.7-0.1c-0.7-0.2-1.3-0.7-1.7-1.3c-0.4-0.7-0.4-1.6-0.2-2.5c0,0,0,0,0,0c1.1-3.4,1.2-6.1,1.2-8.5
		c0-1.8,0-3.5,0.5-5.2c1.5-5.4,4.2-5.1,5-4.9c1.4,0.3,3.2,1.5,4.1,3.5c0.7,1.5,1.1,4.2-0.8,7.8l-4.6,8.8
		C46.3,58.9,45.1,59.7,43.9,59.7z M42.8,56.1c-0.2,0.6-0.1,1.1,0.1,1.4c0.2,0.3,0.4,0.5,0.7,0.6c0.3,0.1,0.7,0,1-0.2
		c0.4-0.2,0.7-0.7,0.8-1.3c0,0,0-0.1,0.1-0.2l4.6-8.9c1.3-2.5,1.5-4.7,0.7-6.5c-0.7-1.6-2-2.4-3.1-2.7c-1.2-0.3-2.4,1.1-3.2,3.9
		c-0.4,1.5-0.4,3-0.5,4.8C44.1,49.7,44,52.6,42.8,56.1L42.8,56.1z"/>
	<path d="M36.1,43c-1.2,0-2.4-0.8-2.9-2.5l-4.6-8.8c-1.9-3.6-1.5-6.3-0.8-7.8c0.9-2.1,2.7-3.2,4.1-3.5c0.8-0.2,3.5-0.4,5,4.9
		c0.5,1.7,0.5,3.4,0.5,5.2c0,2.4,0,5.1,1.2,8.5c0,0,0,0,0,0c0.5,2.1-0.5,3.5-1.9,3.9C36.5,43,36.3,43,36.1,43L36.1,43z M32.6,21.8
		c-0.1,0-0.2,0-0.3,0c-1,0.3-2.4,1.1-3.1,2.7c-0.8,1.8-0.5,4,0.7,6.5l4.6,8.9c0,0,0,0.1,0.1,0.2c0.2,0.6,0.4,1,0.8,1.3
		c0.3,0.2,0.6,0.2,1,0.2c0.3-0.1,0.6-0.3,0.7-0.6c0.2-0.4,0.2-0.9,0.1-1.4C36,35.9,36,33,35.9,30.5c0-1.8,0-3.3-0.5-4.8
		C34.8,23.2,33.7,21.8,32.6,21.8z"/>
	<path d="M43.9,32c-0.2,0-0.5,0-0.7-0.1c-0.7-0.2-1.3-0.7-1.7-1.4c-0.4-0.7-0.4-1.6-0.2-2.5c0,0,0,0,0,0c1.1-3.4,1.2-6.1,1.2-8.5
		c0-1.8,0-3.5,0.5-5.2c1.5-5.4,4.2-5.1,5-4.9c1.4,0.4,3.2,1.5,4.1,3.5c0.7,1.6,1.1,4.2-0.8,7.8l-4.6,8.8c-0.3,0.9-0.8,1.6-1.4,2
		C44.9,31.9,44.4,32,43.9,32L43.9,32z M42.8,28.4c-0.2,0.6-0.1,1.1,0.1,1.4c0.2,0.3,0.4,0.5,0.7,0.6c0.6,0.2,1.4-0.2,1.8-1.4
		c0,0,0-0.1,0.1-0.1l4.6-8.9c1.3-2.5,1.5-4.7,0.7-6.5c-0.7-1.6-2-2.4-3.1-2.7c-1.2-0.3-2.4,1.1-3.2,3.9c-0.4,1.5-0.4,3-0.5,4.8
		C44.1,22,44,24.9,42.8,28.4L42.8,28.4z"/>
</g>
</svg>
