<?xml version="1.0" encoding="UTF-8"?>
<svg id="DO_NOT_TOUCH_Outlines_" data-name="DO NOT TOUCH (Outlines)" xmlns="http://www.w3.org/2000/svg" viewBox="0 0 80 80">
  <path d="m48.54,41.25h-2.54v1.5h1.56c-.22,1.19-.31,2.79-.31,3.25,0,1.41,1.36,2.97,2.36,4-1,1.03-2.36,2.59-2.36,4,0,.46.09,2.06.31,3.25h-1.56v1.5h12v-1.5h-1.56c.22-1.19.31-2.79.31-3.25,0-1.41-1.36-2.97-2.36-4,1-1.03,2.36-2.59,2.36-4,0-.46-.09-2.06-.31-3.25h1.56v-1.5h-9.46Zm6.71,4.75c0,1.02-1.72,2.74-2.36,3.38l-.09.09c-.29.29-.29.77,0,1.06l.09.09c.65.65,2.36,2.37,2.36,3.38,0,.8-.15,2.43-.33,3.25h-5.83c-.18-.82-.33-2.45-.33-3.25,0-1.02,1.72-2.74,2.36-3.38l.09-.09c.29-.29.29-.77,0-1.06l-.09-.09c-.65-.65-2.36-2.37-2.36-3.38,0-.8.15-2.43.33-3.25h5.83c.18.82.33,2.45.33,3.25Z"/>
  <path d="m42.75,40c0-.49-.13-.95-.35-1.35l6.13-6.12-1.06-1.06-6.13,6.13c-.39-.22-.85-.35-1.34-.35-1.52,0-2.75,1.23-2.75,2.75s1.23,2.75,2.75,2.75,2.75-1.23,2.75-2.75Zm-2.75-1.25c.06,0,.11,0,.16.02.56.06,1,.5,1.07,1.05.02.06.02.12.02.18,0,.69-.56,1.25-1.25,1.25s-1.25-.56-1.25-1.25.56-1.25,1.25-1.25Z"/>
  <path d="m39.07,49.21l-.15,1.49c.35.04.71.05,1.07.05h4v-1.5h-4c-.31,0-.62-.02-.93-.04Z"/>
  <path d="m32.83,45.85l-1.16.95c.44.54.94,1.05,1.49,1.5l.96-1.16c-.47-.39-.9-.82-1.28-1.29Z"/>
  <path d="m31.14,42.66l-1.44.43c.2.67.47,1.33.8,1.95l1.32-.7c-.28-.54-.52-1.1-.69-1.68Z"/>
  <path d="m30.75,40c0-.32.02-.63.05-.94l-1.49-.15c-.04.36-.05.72-.05,1.09,0,.34.02.68.05,1.02l1.49-.14c-.03-.29-.04-.58-.04-.88Z"/>
  <path d="m31.86,35.61l-1.32-.71c-.33.62-.61,1.27-.81,1.95l1.43.44c.18-.58.41-1.14.7-1.67Z"/>
  <path d="m31.72,33.15l1.16.96c.38-.46.82-.9,1.29-1.28l-.95-1.16c-.55.45-1.05.95-1.5,1.49Z"/>
  <path d="m40.95,30.8l.15-1.49c-.69-.07-1.42-.07-2.11,0l.14,1.49c.6-.06,1.22-.05,1.82,0Z"/>
  <path d="m43.17,29.73l-.44,1.43c.58.18,1.14.42,1.67.7l.71-1.32c-.62-.34-1.27-.61-1.94-.82Z"/>
  <path d="m37.35,31.13l-.43-1.44c-.67.2-1.33.47-1.95.8l.7,1.32c.53-.28,1.1-.51,1.68-.69Z"/>
  <path d="m34.91,49.47c.62.33,1.27.61,1.95.81l.44-1.43c-.58-.18-1.14-.41-1.67-.7l-.71,1.32Z"/>
  <path d="m61.67,32.58c-1.58,0-3.11.42-4.49,1.22-1.37-8.38-8.55-14.55-17.18-14.55-7.03,0-13.39,4.29-16.07,10.75-1.26-.5-2.57-.75-3.93-.75-5.93,0-10.75,4.82-10.75,10.75s4.82,10.75,10.75,10.75h8v-1.5h-8c-5.1,0-9.25-4.15-9.25-9.25s4.15-9.25,9.25-9.25c1.39,0,2.74.31,4.02.93.19.09.41.1.61.02.2-.08.35-.24.42-.44,2.27-6.28,8.28-10.51,14.95-10.51,8.26,0,15.08,6.2,15.84,14.42.03.27.2.51.45.62.25.11.54.07.76-.1,1.36-1.05,2.96-1.61,4.62-1.61,4.18,0,7.58,3.4,7.58,7.58s-3.4,7.58-7.58,7.58h-1.67v1.5h1.67c5.01,0,9.08-4.07,9.08-9.08s-4.07-9.08-9.08-9.08Z"/>
</svg>