<?xml version="1.0" encoding="UTF-8"?>
<svg id="DO_NOT_TOUCH_Outlines_" data-name="DO NOT TOUCH (Outlines)" xmlns="http://www.w3.org/2000/svg" viewBox="0 0 80 80">
  <rect x="56.01" y="29.25" width="7.99" height="1.5"/>
  <rect x="56.01" y="37.25" width="7.99" height="1.5"/>
  <rect x="56.01" y="45.25" width="7.99" height="1.5"/>
  <path d="m68.01,19.25H12.01c-1.52,0-2.75,1.23-2.75,2.75v34c0,1.52,1.23,2.75,2.75,2.75h27.25v2.5h-13.25v1.5h28v-1.5h-13.25v-2.5h27.25c1.52,0,2.75-1.23,2.75-2.75V22c0-1.52-1.23-2.75-2.75-2.75Zm1.25,36.75c0,.69-.56,1.25-1.25,1.25H12.01c-.69,0-1.25-.56-1.25-1.25V22c0-.69.56-1.25,1.25-1.25h56c.69,0,1.25.56,1.25,1.25v34Z"/>
  <path d="m50,38.94l-1.47-1.47-1.06,1.06,2,2c.15.15.34.22.53.22s.38-.07.53-.22l4-4-1.06-1.06-3.47,3.47Z"/>
  <path d="m50,46.94l-1.47-1.47-1.06,1.06,2,2c.15.15.34.22.53.22s.38-.07.53-.22l4-4-1.06-1.06-3.47,3.47Z"/>
  <path d="m50,30.94l-1.47-1.47-1.06,1.06,2,2c.15.15.34.22.53.22s.38-.07.53-.22l4-4-1.06-1.06-3.47,3.47Z"/>
  <path d="m26.9,40c0,.61.49,1.1,1.1,1.1s1.1-.49,1.1-1.1c0,0,0-.01,0-.02l2.6-2.53.92-.92-1.06-1.06-3.51,3.44s-.03,0-.04,0c-.61,0-1.1.49-1.1,1.1Z"/>
  <path d="m29.13,36.95l.53-1.4c-.53-.2-1.09-.3-1.66-.3-.22.01-.45.02-.67.05l.21,1.48c.15-.02.3-.03.46-.03.39,0,.77.07,1.13.2Z"/>
  <path d="m25.15,36.2c-.63.47-1.14,1.1-1.47,1.83l1.36.62c.23-.49.58-.93,1.01-1.25l-.9-1.2Z"/>
  <path d="m23.26,40.34c.06.79.31,1.56.74,2.23l1.27-.81c-.3-.46-.47-.99-.51-1.53l-1.5.11Z"/>
  <path d="m38.11,35.47c-.62,0-1.23.13-1.8.38-.88-3.83-4.27-6.6-8.31-6.6-3.32,0-6.33,1.95-7.72,4.92-.52-.17-1.06-.25-1.61-.25-2.99,0-5.42,2.43-5.42,5.41s2.43,5.42,5.42,5.42h1.33v-1.5h-1.33c-2.16,0-3.92-1.76-3.92-3.92s1.76-3.91,3.92-3.91c.59,0,1.16.13,1.7.39.19.09.41.1.6.02.2-.08.36-.24.43-.44,1-2.78,3.66-4.64,6.6-4.64,3.65,0,6.66,2.74,6.99,6.37.03.27.2.51.45.62.26.1.54.07.76-.1.56-.44,1.22-.67,1.91-.67,1.73,0,3.14,1.41,3.14,3.14s-1.41,3.14-3.14,3.14h-10.11c-.54,0-1.08-.14-1.56-.4l-.72,1.32c.7.38,1.48.58,2.28.58h10.11c2.56,0,4.64-2.08,4.64-4.64s-2.08-4.64-4.64-4.64Z"/>
</svg>