<?xml version="1.0" encoding="utf-8"?>
<!-- Generator: Adobe Illustrator 28.3.0, SVG Export Plug-In . SVG Version: 6.00 Build 0)  -->
<svg version="1.1" xmlns="http://www.w3.org/2000/svg" xmlns:xlink="http://www.w3.org/1999/xlink" x="0px" y="0px"
	 viewBox="0 0 80 80" style="enable-background:new 0 0 80 80;" xml:space="preserve">
<style type="text/css">
	.st0{display:none;}
	.st1{display:inline;opacity:0.75;}
	.st2{fill:#FFFFFF;}
	.st3{display:inline;}
	.st4{fill:none;stroke:#00FFFF;stroke-width:5.000000e-02;stroke-linecap:round;stroke-miterlimit:10;}
	.st5{fill:none;}
	.st6{opacity:0.22;fill:none;stroke:#FF0000;stroke-width:5.000000e-02;stroke-linecap:round;stroke-miterlimit:10;}
	.st7{opacity:0.22;}
	.st8{fill:none;stroke:#FF0000;stroke-width:5.000000e-02;stroke-linecap:round;stroke-miterlimit:10;}
	.st9{fill:none;stroke:#000000;stroke-width:1.5;stroke-linejoin:round;stroke-miterlimit:10;}
</style>
<g id="border" class="st0">
	<g class="st1">
		<path class="st2" d="M72,8v64H8V8H72 M80,0H0v80h80V0L80,0z"/>
	</g>
</g>
<g id="_x38__grid" class="st0">
	<g class="st3">
		<rect x="8" y="8" class="st4" width="8" height="64"/>
		<rect x="16" y="8" class="st4" width="8" height="64"/>
		<rect x="24" y="8" class="st4" width="8" height="64"/>
		<rect x="32" y="8" class="st4" width="8" height="64"/>
		<rect x="40" y="8" class="st4" width="8" height="64"/>
		<rect x="48" y="8" class="st4" width="8" height="64"/>
		<rect x="56" y="8" class="st4" width="8" height="64"/>
		<rect x="64" y="8" class="st4" width="8" height="64"/>
	</g>
	<g class="st3">
		<rect x="36" y="36" transform="matrix(6.123234e-17 -1 1 6.123234e-17 -28 108)" class="st4" width="8" height="64"/>
		<rect x="36" y="28" transform="matrix(6.123234e-17 -1 1 6.123234e-17 -20 100)" class="st4" width="8" height="64"/>
		<rect x="36" y="20" transform="matrix(6.123234e-17 -1 1 6.123234e-17 -12 92)" class="st4" width="8" height="64"/>
		<rect x="36" y="12" transform="matrix(6.123234e-17 -1 1 6.123234e-17 -4 84)" class="st4" width="8" height="64"/>
		<rect x="36" y="4" transform="matrix(6.123234e-17 -1 1 6.123234e-17 4 76)" class="st4" width="8" height="64"/>
		<rect x="36" y="-4" transform="matrix(6.123234e-17 -1 1 6.123234e-17 12 68)" class="st4" width="8" height="64"/>
		<rect x="36" y="-12" transform="matrix(6.123234e-17 -1 1 6.123234e-17 20 60)" class="st4" width="8" height="64"/>
		<rect x="36" y="-20" transform="matrix(6.123234e-17 -1 1 6.123234e-17 28 52)" class="st4" width="8" height="64"/>
	</g>
</g>
<g id="export_frame" class="st0">
	<g class="st3">
		<rect class="st5" width="80" height="80"/>
	</g>
</g>
<g id="guide_shapes" class="st0">
	<g class="st3">
		<line class="st6" x1="8" y1="8" x2="72" y2="72"/>
		<line class="st6" x1="72" y1="8" x2="8" y2="72"/>
		<line class="st6" x1="8" y1="40" x2="72" y2="40"/>
		<line class="st6" x1="40" y1="8" x2="40" y2="72"/>
		<rect x="8" y="8" class="st6" width="64" height="64"/>
		<circle class="st6" cx="40" cy="40" r="16"/>
		<circle class="st6" cx="40" cy="40" r="24"/>
		<rect x="24" y="24" class="st6" width="32" height="32"/>
		<circle class="st6" cx="40" cy="40" r="30"/>
		<rect x="12" y="12" class="st6" width="56" height="56"/>
		<line class="st6" x1="40" y1="40" x2="71.9" y2="31.5"/>
		<line class="st6" x1="8.1" y1="48.5" x2="40" y2="40"/>
		<g class="st7">
			<line class="st8" x1="40" y1="40" x2="71.9" y2="48.5"/>
			<line class="st8" x1="8.1" y1="31.5" x2="40" y2="40"/>
		</g>
		<line class="st6" x1="40" y1="40" x2="48.5" y2="71.9"/>
		<line class="st6" x1="31.5" y1="8.1" x2="40" y2="40"/>
		<line class="st6" x1="40" y1="40" x2="31.5" y2="71.9"/>
		<line class="st6" x1="48.5" y1="8.1" x2="40" y2="40"/>
		<g class="st7">
			<line class="st8" x1="40" y1="40" x2="71.9" y2="48.5"/>
			<line class="st8" x1="8.1" y1="31.5" x2="40" y2="40"/>
		</g>
	</g>
</g>
<g id="art">
	<g>
		<path d="M18,42.8h-4c-0.4,0-0.8-0.3-0.8-0.8V24c0-0.4,0.3-0.8,0.8-0.8h4c0.4,0,0.8,0.3,0.8,0.8v18C18.8,42.4,18.4,42.8,18,42.8z
			 M14.8,41.2h2.5V24.8h-2.5V41.2z"/>
	</g>
	<g>
		<path d="M22,42.8h-4c-0.4,0-0.8-0.3-0.8-0.8V26c0-0.4,0.3-0.8,0.8-0.8h4c0.4,0,0.8,0.3,0.8,0.8v16C22.8,42.4,22.4,42.8,22,42.8z
			 M18.8,41.2h2.5V26.8h-2.5V41.2z"/>
	</g>
	<g>
		<path d="M26,42.8h-4c-0.4,0-0.8-0.3-0.8-0.8V24c0-0.4,0.3-0.8,0.8-0.8h4c0.4,0,0.8,0.3,0.8,0.8v18C26.8,42.4,26.4,42.8,26,42.8z
			 M22.8,41.2h2.5V24.8h-2.5V41.2z"/>
	</g>
	<g>
		<path d="M30,42.8h-4c-0.4,0-0.8-0.3-0.8-0.8V26c0-0.4,0.3-0.8,0.8-0.8h4c0.4,0,0.8,0.3,0.8,0.8v16C30.8,42.4,30.4,42.8,30,42.8z
			 M26.8,41.2h2.5V26.8h-2.5V41.2z"/>
	</g>
	<g>
		<path d="M34,42.8h-4c-0.4,0-0.8-0.3-0.8-0.8V24c0-0.4,0.3-0.8,0.8-0.8h4c0.4,0,0.8,0.3,0.8,0.8v18C34.8,42.4,34.4,42.8,34,42.8z
			 M30.8,41.2h2.5V24.8h-2.5V41.2z"/>
	</g>
	<g>
		<path d="M38,42.8h-4c-0.4,0-0.8-0.3-0.8-0.8V26c0-0.4,0.3-0.8,0.8-0.8h4c0.4,0,0.8,0.3,0.8,0.8v16C38.8,42.4,38.4,42.8,38,42.8z
			 M34.8,41.2h2.5V26.8h-2.5V41.2z"/>
	</g>
	<g>
		<path d="M42,42.8h-4c-0.4,0-0.8-0.3-0.8-0.8V24c0-0.4,0.3-0.8,0.8-0.8h4c0.4,0,0.8,0.3,0.8,0.8v18C42.8,42.4,42.4,42.8,42,42.8z
			 M38.8,41.2h2.5V24.8h-2.5V41.2z"/>
	</g>
	<g>
		<path d="M46,42.8h-4c-0.4,0-0.8-0.3-0.8-0.8V26c0-0.4,0.3-0.8,0.8-0.8h4c0.4,0,0.8,0.3,0.8,0.8v16C46.8,42.4,46.4,42.8,46,42.8z
			 M42.8,41.2h2.5V26.8h-2.5V41.2z"/>
	</g>
	<g>
		<path d="M50,42.8h-4c-0.4,0-0.8-0.3-0.8-0.8V24c0-0.4,0.3-0.8,0.8-0.8h4c0.4,0,0.8,0.3,0.8,0.8v18C50.8,42.4,50.4,42.8,50,42.8z
			 M46.8,41.2h2.5V24.8h-2.5V41.2z"/>
	</g>
	<g>
		<path d="M54,42.8h-4c-0.4,0-0.8-0.3-0.8-0.8V26c0-0.4,0.3-0.8,0.8-0.8h4c0.4,0,0.8,0.3,0.8,0.8v16C54.8,42.4,54.4,42.8,54,42.8z
			 M50.8,41.2h2.5V26.8h-2.5V41.2z"/>
	</g>
	<g>
		<path d="M58,42.8h-4c-0.4,0-0.8-0.3-0.8-0.8V24c0-0.4,0.3-0.8,0.8-0.8h4c0.4,0,0.8,0.3,0.8,0.8v18C58.8,42.4,58.4,42.8,58,42.8z
			 M54.8,41.2h2.5V24.8h-2.5V41.2z"/>
	</g>
	<g>
		<path d="M62,42.8h-4c-0.4,0-0.8-0.3-0.8-0.8V26c0-0.4,0.3-0.8,0.8-0.8h4c0.4,0,0.8,0.3,0.8,0.8v16C62.8,42.4,62.4,42.8,62,42.8z
			 M58.8,41.2h2.5V26.8h-2.5V41.2z"/>
	</g>
	<g>
		<path d="M66,42.8h-4c-0.4,0-0.8-0.3-0.8-0.8V24c0-0.4,0.3-0.8,0.8-0.8h4c0.4,0,0.8,0.3,0.8,0.8v18C66.8,42.4,66.4,42.8,66,42.8z
			 M62.8,41.2h2.5V24.8h-2.5V41.2z"/>
	</g>
	<g>
		<path d="M14,56.8h-4c-0.4,0-0.8-0.3-0.8-0.8V24c0-0.4,0.3-0.8,0.8-0.8h4c0.4,0,0.8,0.3,0.8,0.8v32C14.8,56.4,14.4,56.8,14,56.8z
			 M10.8,55.2h2.5V24.8h-2.5V55.2z"/>
	</g>
	<g>
		<path d="M70,56.8h-4c-0.4,0-0.8-0.3-0.8-0.8V24c0-0.4,0.3-0.8,0.8-0.8h4c0.4,0,0.8,0.3,0.8,0.8v32C70.8,56.4,70.4,56.8,70,56.8z
			 M66.8,55.2h2.5V24.8h-2.5V55.2z"/>
	</g>
	<g>
		<path d="M66,56.8H14c-0.4,0-0.8-0.3-0.8-0.8V42c0-0.4,0.3-0.8,0.8-0.8h52c0.4,0,0.8,0.3,0.8,0.8v14C66.8,56.4,66.4,56.8,66,56.8z
			 M14.8,55.2h50.5V42.8H14.8V55.2z"/>
	</g>
	<g>
		<path d="M26,52.8h-8c-0.4,0-0.8-0.3-0.8-0.8v-6c0-0.4,0.3-0.8,0.8-0.8h8c0.4,0,0.8,0.3,0.8,0.8v6C26.8,52.4,26.4,52.8,26,52.8z
			 M18.8,51.2h6.5v-4.5h-6.5V51.2z"/>
	</g>
	<g>
		<path d="M62,52.8h-8c-0.4,0-0.8-0.3-0.8-0.8v-6c0-0.4,0.3-0.8,0.8-0.8h8c0.4,0,0.8,0.3,0.8,0.8v6C62.8,52.4,62.4,52.8,62,52.8z
			 M54.8,51.2h6.5v-4.5h-6.5V51.2z"/>
	</g>
</g>
</svg>
