<?xml version="1.0" encoding="UTF-8"?><svg id="a" xmlns="http://www.w3.org/2000/svg" viewBox="0 0 80 80"><path d="M70,17.25H22c-.41406,0-.75,.33594-.75,.75v9.25h-5.25c-.41406,0-.75,.33594-.75,.75v9.25h-5.25c-.41406,0-.75,.33594-.75,.75v22c0,.41406,.33594,.75,.75,.75h29.68945l3.78027,3.78027c.14648,.14648,.33789,.21973,.53027,.21973s.38379-.07324,.53027-.21973l3.78027-3.78027h9.68945c.41406,0,.75-.33594,.75-.75v-9.25h5.25c.41406,0,.75-.33594,.75-.75v-9.25h5.25c.41406,0,.75-.33594,.75-.75V18c0-.41406-.33594-.75-.75-.75Zm-12.75,42h-9.25c-.19922,0-.38965,.0791-.53027,.21973l-3.46973,3.46973-3.46973-3.46973c-.14062-.14062-.33105-.21973-.53027-.21973H10.75v-20.5h4.5v11.25c0,.41406,.33594,.75,.75,.75h29.68945l3.78027,3.78027c.14648,.14648,.33789,.21973,.53027,.21973s.38379-.07324,.53027-.21973l3.78027-3.78027h2.93945v8.5Zm6-10h-9.25c-.19922,0-.38965,.0791-.53027,.21973l-3.46973,3.46973-3.46973-3.46973c-.14062-.14062-.33105-.21973-.53027-.21973H16.75V28.75h4.5v11.25c0,.41406,.33594,.75,.75,.75h29.68945l3.78027,3.78027c.14648,.14648,.33789,.21973,.53027,.21973s.38379-.07324,.53027-.21973l3.78027-3.78027h2.93945v8.5Zm6-10h-9.25c-.19922,0-.38965,.0791-.53027,.21973l-3.46973,3.46973-3.46973-3.46973c-.14062-.14062-.33105-.21973-.53027-.21973H22.75V18.75h46.5v20.5Z"/><path d="M46,33.5c-1.03418,0-1.875-.84131-1.875-1.875h-1.5c0,1.60229,1.125,2.94141,2.625,3.28418v1.09082h1.5v-1.09082c1.5-.34277,2.625-1.68188,2.625-3.28418,0-1.86084-1.51367-3.375-3.375-3.375-1.03418,0-1.875-.84131-1.875-1.875s.84082-1.875,1.875-1.875,1.875,.84131,1.875,1.875h1.5c0-1.60229-1.125-2.94141-2.625-3.28418v-1.09082h-1.5v1.09082c-1.5,.34277-2.625,1.68188-2.625,3.28418,0,1.86084,1.51367,3.375,3.375,3.375,1.03418,0,1.875,.84131,1.875,1.875s-.84082,1.875-1.875,1.875Z"/></svg>