<?xml version="1.0" encoding="UTF-8"?><svg id="a" xmlns="http://www.w3.org/2000/svg" viewBox="0 0 80 80"><path d="M26,9.25c-1.5166,0-2.75,1.2334-2.75,2.75v56c0,1.5166,1.2334,2.75,2.75,2.75h28c1.5166,0,2.75-1.2334,2.75-2.75V12c0-1.5166-1.2334-2.75-2.75-2.75H26Zm29.25,2.75v56c0,.68945-.56055,1.25-1.25,1.25H26c-.68945,0-1.25-.56055-1.25-1.25V12c0-.68945,.56055-1.25,1.25-1.25h28c.68945,0,1.25,.56055,1.25,1.25Z"/><rect x="36" y="15.25" width="8" height="1.5"/><path d="M40,59.25c-1.5166,0-2.75,1.2334-2.75,2.75s1.2334,2.75,2.75,2.75,2.75-1.2334,2.75-2.75-1.2334-2.75-2.75-2.75Zm0,4c-.68945,0-1.25-.56055-1.25-1.25s.56055-1.25,1.25-1.25,1.25,.56055,1.25,1.25-.56055,1.25-1.25,1.25Z"/><path d="M31.36914,36.8252l1.06055,1.06055c2.02197-2.02197,4.71094-3.13574,7.57031-3.13574s5.54834,1.11377,7.57031,3.13574l1.06055-1.06055c-2.30518-2.30566-5.37061-3.5752-8.63086-3.5752s-6.32568,1.26953-8.63086,3.5752Z"/><path d="M34.06934,39.52539l1.06055,1.06055c1.30078-1.30078,3.03027-2.01709,4.87012-2.01709s3.56934,.71631,4.87012,2.01709l1.06055-1.06055c-1.58398-1.58398-3.69043-2.45654-5.93066-2.45654s-4.34668,.87256-5.93066,2.45654Z"/><path d="M36.76953,42.22559l1.06055,1.06055c1.15918-1.15918,3.18066-1.15918,4.33984,0l1.06055-1.06055c-.8623-.86279-2.00977-1.33838-3.23047-1.33838s-2.36816,.47559-3.23047,1.33838Z"/><circle cx="40" cy="46" r="1"/></svg>