<?xml version="1.0" encoding="UTF-8"?><svg id="a" xmlns="http://www.w3.org/2000/svg" viewBox="0 0 80 80"><path d="M50.1377,28.75h15.83203c2.31738,0,4.20215-1.88867,4.20215-4.20996s-1.88477-4.20996-4.20215-4.20996c-.40039,0-.79688,.05859-1.17773,.17236-.46582-1.55908-1.42676-2.91211-2.76855-3.87402-1.59863-1.14697-3.54688-1.60059-5.49023-1.27734-2.29883,.38232-4.2373,1.79639-5.30566,3.83447-.35547-.0835-.71973-.12549-1.08984-.12549-2.66602,0-4.83496,2.17334-4.83496,4.84521s2.16895,4.84473,4.83496,4.84473Zm0-8.18994c.41797,0,.82617,.07812,1.21289,.23291,.38281,.15137,.81543-.03125,.97168-.41064,.7793-1.88916,2.44531-3.2168,4.45703-3.55176,1.54492-.25732,3.09668,.10352,4.37012,1.01709,1.27441,.91309,2.11719,2.26953,2.37402,3.81934,.04102,.24316,.19824,.45117,.42188,.55664,.22559,.10449,.48438,.09277,.69824-.0332,.40234-.23535,.86035-.36035,1.32617-.36035,1.49023,0,2.70215,1.21582,2.70215,2.70996s-1.21191,2.70996-2.70215,2.70996h-15.83203c-1.83887,0-3.33496-1.5-3.33496-3.34473s1.49609-3.34521,3.33496-3.34521Z"/><path d="M58.75,59.69238c5.54565-.46851,8.41357-5.04175,8.55762-5.2793,1.93359-3.60254,1.56836-6.97656,.9209-9.17285-.50195-1.70312-1.45801-3.2998-2.75195-4.60645l-6.69141-7.08105c-.12598-.13379-.29688-.2168-.47949-.23242l-.13477-.01172c-.23145-.01953-.44043,.06055-.59766,.21875l-7.03906,7.09375c-1.30566,1.31934-2.26172,2.91602-2.76367,4.61914-.64648,2.19727-1.01172,5.57129,.94141,9.20898,.12427,.20264,2.98438,4.76392,8.53809,5.2417v3.55908h-14.73755l.23755-49.24658c.00098-.19922-.07812-.39111-.21875-.53223-.14062-.1416-.33203-.22119-.53125-.22119H14c-.41406,0-.75,.33594-.75,.75V63.25h-3.25v1.5h60v-1.5h-11.25v-3.55762Zm-8.73633-5.98828c-1.69238-3.15332-1.37109-6.11328-.80371-8.04004,.43164-1.46582,1.25781-2.84473,2.38965-3.9873l6.55566-6.60645,6.24316,6.60547c1.13281,1.14355,1.95898,2.52246,2.39062,3.98828,.56836,1.92676,.88965,4.88574-.78223,8.00293-.02588,.04272-2.56299,4.05957-7.25684,4.52393v-2.97998l4.38184-4.38086-1.06055-1.06055-3.32129,3.32056v-4.05591l2.8125-2.81348-1.06055-1.06055-1.75195,1.75269v-5.36987h-1.5v5.36987l-1.7207-1.72144-1.06055,1.06055,2.78125,2.78223v4.05566l-3.28906-3.28906-1.06055,1.06055,4.34961,4.34961v2.97852c-4.70215-.47339-7.23071-4.47803-7.23633-4.48535ZM14.75,14.75h26.49609l-.23364,48.5H14.75V14.75Z"/><rect x="19.25" y="22" width="1.5" height="6"/><rect x="19.25" y="34" width="1.5" height="6"/><rect x="19.25" y="46" width="1.5" height="6"/><rect x="27.25" y="22" width="1.5" height="6"/><rect x="27.25" y="34" width="1.5" height="6"/><rect x="27.25" y="46" width="1.5" height="6"/><rect x="35.25" y="22" width="1.5" height="6"/><rect x="35.25" y="34" width="1.5" height="6"/><rect x="35.25" y="46" width="1.5" height="6"/></svg>