<?xml version="1.0" encoding="UTF-8"?><svg id="a" xmlns="http://www.w3.org/2000/svg" viewBox="0 0 80 80"><path d="M42.75,18c0-1.5166-1.2334-2.75-2.75-2.75s-2.75,1.2334-2.75,2.75,1.2334,2.75,2.75,2.75,2.75-1.2334,2.75-2.75Zm-4,0c0-.68945,.56055-1.25,1.25-1.25s1.25,.56055,1.25,1.25-.56055,1.25-1.25,1.25-1.25-.56055-1.25-1.25Z"/><path d="M62.3208,24.75h.6792c4.27344,0,7.75-3.47656,7.75-7.75s-3.47656-7.75-7.75-7.75c-2.11035,0-4.15674,.87549-5.61377,2.40186l-13.04224,13.66333c-.62329-1.22534-1.89868-2.06519-3.34399-2.06519h-2c-2.06787,0-3.75,1.68213-3.75,3.75v7.84229l-11.84351,12.40771H8v1.5h13.97461l-4.29541,4.5h-.6792c-4.27344,0-7.75,3.47656-7.75,7.75s3.47656,7.75,7.75,7.75c2.11035,0,4.15674-.87549,5.61377-2.40186l16.7981-17.59814h32.58813v-1.5h-31.15625l21.47705-22.5Zm-25.5708,2.25c0-1.24072,1.00928-2.25,2.25-2.25h2c1.06421,0,1.96875,.75952,2.19055,1.77368l-6.44055,6.74731v-6.271Zm-15.22119,38.31201c-1.17578,1.23193-2.82617,1.93799-4.52881,1.93799-3.44629,0-6.25-2.80371-6.25-6.25s2.80371-6.25,6.25-6.25h1c.20508,0,.40088-.08398,.54248-.23193L58.47119,12.68799c1.17578-1.23193,2.82617-1.93799,4.52881-1.93799,3.44629,0,6.25,2.80371,6.25,6.25s-2.80371,6.25-6.25,6.25h-1c-.20508,0-.40088,.08398-.54248,.23193L21.52881,65.31201Z"/></svg>