<?xml version="1.0" encoding="UTF-8"?><svg id="a" xmlns="http://www.w3.org/2000/svg" viewBox="0 0 80 80"><path d="M40,34.75c7.03027,0,12.75-5.71973,12.75-12.75s-5.71973-12.75-12.75-12.75-12.75,5.71973-12.75,12.75,5.71973,12.75,12.75,12.75Zm0-24c6.20312,0,11.25,5.04688,11.25,11.25s-5.04688,11.25-11.25,11.25-11.25-5.04688-11.25-11.25,5.04688-11.25,11.25-11.25Z"/><path d="M64.75,72v-20c0-7.03027-5.71973-12.75-12.75-12.75H28c-7.03027,0-12.75,5.71973-12.75,12.75v20h1.5v-20c0-6.20312,5.04688-11.25,11.25-11.25h24c6.20312,0,11.25,5.04688,11.25,11.25v20h1.5Z"/></svg>