<?xml version="1.0" encoding="utf-8"?>
<!-- Generator: Adobe Illustrator 27.2.0, SVG Export Plug-In . SVG Version: 6.00 Build 0)  -->
<svg version="1.1" id="Layer_1" xmlns="http://www.w3.org/2000/svg" xmlns:xlink="http://www.w3.org/1999/xlink" x="0px" y="0px"
	 viewBox="0 0 80 80" style="enable-background:new 0 0 80 80;" xml:space="preserve">
<style type="text/css">
	.st0{fill:none;}
</style>
<g id="DO_NOT_TOUCH_Outlines_">
	<path d="M61.6,34.8h7v-1.5h-3.2V22.8h2.8v-1.5h-6.8V10.8h2.8V9.2h-48c-0.2,0-0.5,0.1-0.6,0.3c-3.1,4.3-3.1,8.6,0,12.9
		c0.1,0.2,0.4,0.3,0.6,0.3h2.6c-2.1,3.5-2.1,7,0,10.5h-2.6c-0.2,0-0.5,0.1-0.6,0.3c-2.8,3.9-3.1,7.8-0.8,11.7h-0.6
		c-0.2,0-0.5,0.1-0.6,0.3c-3.1,4.3-3.1,8.6,0,12.9c0.1,0.2,0.4,0.3,0.6,0.3h3.6c-2.3,3.9-2.1,7.8,0.8,11.7c0.1,0.2,0.4,0.3,0.6,0.3
		h48v-1.5h-2.8V58.8h2.8v-1.5h-7.8V46.8h5.2v-1.5h-3.2V34.8L61.6,34.8L61.6,34.8z M16.6,10.8h43.3v10.5H16.6
		C14.1,17.7,14.1,14.3,16.6,10.8z M20.6,22.8h43.3v10.5H20.6C18.1,29.7,18.1,26.3,20.6,22.8z M62.6,58.8h0.2v10.5H19.6
		c-2.5-3.5-2.5-7,0-10.5H62.6z M57.8,57.2H14.6c-2.4-3.5-2.4-7,0-10.5h43.3L57.8,57.2L57.8,57.2z M59.8,45.2H16.6
		c-2.4-3.5-2.4-7,0-10.5h43.3L59.8,45.2L59.8,45.2z"/>
</g>
<g id="export_frame">
	<rect class="st0" width="80" height="80"/>
	<rect class="st0" width="80" height="80"/>
</g>
</svg>
