<svg xmlns="http://www.w3.org/2000/svg" viewBox="0 0 80 80"><path d="M46,66.75A2.7528,2.7528,0,0,0,48.75,64V40A2.7528,2.7528,0,0,0,46,37.25H34A2.7528,2.7528,0,0,0,31.25,40V64A2.7528,2.7528,0,0,0,34,66.75ZM32.75,64V40A1.25116,1.25116,0,0,1,34,38.75H46A1.25116,1.25116,0,0,1,47.25,40V64A1.25116,1.25116,0,0,1,46,65.25H34A1.25116,1.25116,0,0,1,32.75,64Z"/><rect x="38" y="41.2998" width="4" height="1.5"/><circle cx="40" cy="62" r="1"/><path d="M61.667,32.5835a8.87972,8.87972,0,0,0-4.49023,1.21875,17.404,17.404,0,0,0-33.251-3.80127A10.58906,10.58906,0,0,0,20,29.25a10.75,10.75,0,0,0,0,21.5h8v-1.5H20a9.25,9.25,0,0,1,0-18.5,9.1545,9.1545,0,0,1,4.01562.92773.7491.7491,0,0,0,1.03126-.41992,15.9031,15.9031,0,0,1,30.79394,3.91455.75083.75083,0,0,0,1.207.52344A7.48562,7.48562,0,0,1,61.667,34.0835a7.58325,7.58325,0,0,1,0,15.1665H52v1.5h9.667a9.08325,9.08325,0,0,0,0-18.1665Z"/></svg>