<?xml version="1.0" encoding="UTF-8"?><svg id="a" xmlns="http://www.w3.org/2000/svg" viewBox="0 0 80 80"><rect x="26" y="45.13184" width="4" height="1.5"/><rect x="18" y="45.25" width="4" height="1.5"/><path d="M10.75,46.75h3.25v-1.5h-4c-.41406,0-.75,.33594-.75,.75v5.88184h1.5v-5.13184Z"/><path d="M10.75,24.75h31.25v-1.5H10c-.41406,0-.75,.33594-.75,.75v8h1.5v-7.25Z"/><rect x="34" y="53.13184" width="30" height="1.5"/><path d="M45.62354,35.31445l-10.15088,10.03418,1.05469,1.06641,10.15674-10.03979,2.09521,2.09546,.00195,.00195c.19727,.19629,.45801,.29297,.72168,.29297,.27539,0,.55371-.10645,.76758-.31836l2.60352-2.60352c.41309-.41602,.42383-1.08301,.02148-1.48926l-.68066-.68066,1.76758-1.76758,.88379,.88379c.14648,.14648,.33789,.21973,.53027,.21973s.38379-.07324,.53027-.21973l14.01758-14.01709c.51953-.51953,.80566-1.20996,.80566-1.94482,0-.73438-.28613-1.4248-.80566-1.94434l-2.82812-2.82812c-1.04004-1.04053-2.85352-1.03857-3.88867,0l-14.01758,14.01758c-.29297,.29297-.29297,.76758,0,1.06055l.88379,.88379-1.76807,1.76807-.68115-.68115c-.40039-.40137-1.07031-.39355-1.49023,.02344l-2.60156,2.60156c-.41699,.41699-.42773,1.08594-.02344,1.49023l2.09424,2.09473Zm18.66455-22.19873c.47266-.47168,1.29492-.47217,1.76758,.00049l2.82812,2.82812c.4873,.4873,.4873,1.28076,0,1.76807l-13.4873,13.48682-4.5957-4.5957,13.4873-13.48779Zm-13.13379,15.9624l1.76758,1.76758-1.76782,1.76782-1.76758-1.76758,1.76782-1.76782Zm-4.24316,1.41406l4.59668,4.59668-1.99414,1.99414-4.59668-4.59668,1.99414-1.99414Z"/><path d="M26.53027,29.46973c-.29297-.29297-.76758-.29297-1.06055,0l-4,4,1.06055,1.06055,2.71973-2.71973v8.18945h1.5v-8.18945l2.71973,2.71973,1.06055-1.06055-4-4Z"/><path d="M70,45.13184h-26v1.5h25.25v14.5H10.75v-5.25h-1.5v6c0,.41406,.33594,.75,.75,.75h60c.41406,0,.75-.33594,.75-.75v-16c0-.41406-.33594-.75-.75-.75Z"/><circle cx="16" cy="53.88232" r="1"/><circle cx="22" cy="53.88232" r="1"/><circle cx="28" cy="53.88232" r="1"/></svg>