<svg xmlns="http://www.w3.org/2000/svg" viewBox="0 0 80 80"><path d="M40,9.25A30.78457,30.78457,0,0,0,9.25,40h1.5a29.25,29.25,0,0,1,58.5,0h1.5A30.78457,30.78457,0,0,0,40,9.25Z"/><path d="M55,43.25c-.04688,0-.09082.01221-.13721.01392l-3.77148-9.15308a3.75538,3.75538,0,1,0-5.56006-1.69678l-5.61768,3.743L34.458,32.44775a3.75224,3.75224,0,1,0-5.44629,1.719L25.583,43.309a3.74618,3.74618,0,1,0,2.88574,2.277l7.18408-4.78687L37.55664,44.179a3.75,3.75,0,1,0,4.88672-.00013l1.82812-3.245,7.187,4.88672A3.70655,3.70655,0,0,0,51.25,47,3.75,3.75,0,1,0,55,43.25Zm-6-14.5A2.25,2.25,0,1,1,46.75,31,2.25278,2.25278,0,0,1,49,28.75ZM28.75,31A2.25,2.25,0,1,1,31,33.25,2.25278,2.25278,0,0,1,28.75,31ZM25,49.25A2.25,2.25,0,1,1,27.25,47,2.25278,2.25278,0,0,1,25,49.25Zm2.63574-4.91223a3.74753,3.74753,0,0,0-.64746-.50452L30.417,34.691a3.22412,3.22412,0,0,0,1.71875-.13586l2.77832,4.9331ZM33.44336,33.821c.0542-.04687.11426-.08679.166-.13671l4.957,3.3706L36.166,38.6543ZM40,49.25A2.25,2.25,0,1,1,42.25,47,2.25278,2.25278,0,0,1,40,49.25Zm1.13574-5.80518a3.40792,3.40792,0,0,0-2.27148,0l-1.96-3.47973,3.001-1.99976,3.12159,2.12232Zm2.62988-4.6687L41.25293,37.0675,46.36377,33.662c.05908.05859.12939.10437.19287.15905Zm8.44483,5.742-7.2002-4.89588,2.854-5.067A3.69548,3.69548,0,0,0,49,34.75a3.75268,3.75268,0,0,0,.70312-.071l3.6875,8.94848A3.74885,3.74885,0,0,0,52.21045,44.51807ZM55,49.25A2.25,2.25,0,1,1,57.25,47,2.25278,2.25278,0,0,1,55,49.25Z"/><path d="M40,15.25A24.75,24.75,0,1,0,56.94971,58.01038l10.52,10.51989,1.06054-1.06054-10.52-10.5199A24.73108,24.73108,0,0,0,40,15.25Zm0,48A23.25,23.25,0,1,1,63.25,40,23.27605,23.27605,0,0,1,40,63.25Z"/></svg>