<?xml version="1.0" encoding="UTF-8"?><svg id="a" xmlns="http://www.w3.org/2000/svg" viewBox="0 0 80 80"><path d="M70,17.25H10c-.41406,0-.75,.33594-.75,.75V62c0,.41406,.33594,.75,.75,.75h60c.41406,0,.75-.33594,.75-.75V18c0-.41406-.33594-.75-.75-.75Zm-29.22656,17.57593c2.5376,.36792,4.5,2.53638,4.5,5.17407s-1.9624,4.80615-4.5,5.17407v-10.34814Zm-30.02344-4.07593h6.5v18.5h-6.5V30.75Zm28.52344,14.42407c-2.5376-.36792-4.5-2.53638-4.5-5.17407s1.9624-4.80615,4.5-5.17407v10.34814Zm0-11.87988c-3.36963,.37476-6,3.23779-6,6.70581s2.63037,6.33105,6,6.70581v14.54419H10.75v-10.5h7.25c.41406,0,.75-.33594,.75-.75v-3.29419c3.36963-.37476,6-3.23779,6-6.70581s-2.63037-6.33105-6-6.70581v-3.29419c0-.41406-.33594-.75-.75-.75h-7.25v-10.5h28.52344v14.54419Zm-20.52344,11.9021v-10.39258c2.54102,.36426,4.5,2.55566,4.5,5.19629s-1.95898,4.83203-4.5,5.19629Zm50.5,4.05371h-6.5V30.75h6.5v18.5Zm0-20h-7.25c-.41406,0-.75,.33594-.75,.75v3.29419c-3.36963,.37476-6,3.23779-6,6.70581s2.63037,6.33105,6,6.70581v3.29419c0,.41406,.33594,.75,.75,.75h7.25v10.5h-28.47656v-14.54419c3.36963-.37476,6-3.23779,6-6.70581s-2.63037-6.33105-6-6.70581v-14.54419h28.47656v10.5Zm-8,5.55371v10.39258c-2.54102-.36426-4.5-2.55566-4.5-5.19629s1.95898-4.83203,4.5-5.19629Z"/><circle cx="14" cy="40" r="1"/><circle cx="28" cy="38" r="1"/><circle cx="30" cy="44" r="1"/><circle cx="36" cy="48" r="1"/><circle cx="32" cy="48" r="1"/><circle cx="34" cy="52" r="1"/><circle cx="26" cy="52" r="1"/><circle cx="28" cy="56" r="1"/><circle cx="44" cy="56" r="1"/><circle cx="48" cy="52" r="1"/><circle cx="52" cy="50" r="1"/><circle cx="48.01147" cy="46" r="1"/><circle cx="50" cy="38" r="1"/><circle cx="56" cy="32" r="1"/><circle cx="66" cy="40" r="1"/><circle cx="52" cy="30" r="1"/><circle cx="48.01147" cy="30" r="1"/><circle cx="48.01147" cy="26" r="1"/><circle cx="30" cy="34" r="1"/><circle cx="32" cy="30" r="1"/><circle cx="26" cy="30" r="1"/></svg>