<?xml version="1.0" encoding="UTF-8"?>
<svg id="art" xmlns="http://www.w3.org/2000/svg" viewBox="0 0 80 80">
  <defs>
    <style>
      .cls-1 {
        fill: #07182d;
      }
    </style>
  </defs>
  <path class="cls-1" d="M53.32,37.52c2.28,0,4.14-1.86,4.14-4.14s-1.86-4.14-4.14-4.14-4.14,1.86-4.14,4.14,1.86,4.14,4.14,4.14ZM53.32,30.74c1.46,0,2.64,1.18,2.64,2.64s-1.18,2.64-2.64,2.64-2.64-1.18-2.64-2.64,1.18-2.64,2.64-2.64Z"/>
  <path class="cls-1" d="M43.78,31.46c.75.34,1.24,1.09,1.24,1.92s-.49,1.57-1.24,1.92c-.67.31-.99,1.05-.75,1.74.22.64.5,1.24.82,1.8.32.56.71,1.1,1.15,1.61.47.55,1.28.65,1.88.22.67-.48,1.57-.52,2.28-.11.71.41,1.12,1.21,1.04,2.03-.07.73.42,1.39,1.14,1.52.65.12,1.31.18,1.96.18s1.34-.06,2.01-.19c.7-.13,1.17-.78,1.1-1.51-.08-.82.33-1.62,1.04-2.03.71-.41,1.61-.37,2.28.11.6.43,1.4.34,1.86-.2.87-1.02,1.54-2.17,1.99-3.44.25-.69-.07-1.44-.75-1.75-.75-.34-1.24-1.09-1.24-1.92s.49-1.57,1.24-1.92c.67-.31.99-1.05.75-1.74-.22-.64-.5-1.24-.82-1.8-.32-.56-.71-1.1-1.15-1.61-.47-.55-1.28-.65-1.88-.22-.67.48-1.56.52-2.28.11-.71-.41-1.12-1.21-1.04-2.03.07-.73-.42-1.39-1.14-1.52-1.32-.24-2.66-.24-3.97,0-.7.13-1.17.78-1.1,1.51.08.82-.33,1.62-1.04,2.03s-1.61.37-2.28-.11c-.6-.43-1.4-.34-1.86.2-.87,1.02-1.54,2.17-1.99,3.44-.25.69.07,1.44.75,1.75ZM46.08,27.35c1.14.77,2.64.83,3.83.14,1.2-.69,1.89-2.01,1.79-3.39,1.07-.19,2.15-.19,3.21,0-.1,1.38.6,2.7,1.79,3.39,1.19.69,2.69.63,3.83-.14.35.42.67.86.93,1.32.26.45.49.95.68,1.46-1.24.6-2.04,1.87-2.04,3.25s.8,2.65,2.04,3.25c-.37,1.02-.91,1.95-1.61,2.78-1.14-.77-2.64-.83-3.83-.14-1.2.69-1.89,2.01-1.79,3.39-1.06.19-2.15.19-3.21,0,.1-1.38-.6-2.7-1.79-3.39-1.2-.69-2.69-.63-3.83.14-.35-.42-.67-.86-.93-1.32-.26-.45-.49-.95-.68-1.46,1.24-.6,2.04-1.87,2.04-3.25s-.8-2.65-2.04-3.25c.37-1.02.91-1.95,1.61-2.78Z"/>
  <path class="cls-1" d="M40,68.67c-12.82,0-23.25-10.37-23.25-23.11,0-12.04,9.32-21.96,21.16-23.02l-2.92,2.92,1.06,1.06,4.48-4.48c.29-.29.29-.77,0-1.06l-4.48-4.48-1.06,1.06,3.44,3.44c-12.92.81-23.19,11.51-23.19,24.56s11.1,24.61,24.75,24.61,24.75-11.04,24.75-24.61h-1.5c0,12.74-10.43,23.11-23.25,23.11Z"/>
  <path class="cls-1" d="M35.38,49.23c1.77,0,3.22-1.44,3.22-3.22s-1.44-3.22-3.22-3.22-3.22,1.44-3.22,3.22,1.44,3.22,3.22,3.22ZM35.38,44.29c.95,0,1.72.77,1.72,1.72s-.77,1.72-1.72,1.72-1.72-.77-1.72-1.72.77-1.72,1.72-1.72Z"/>
  <path class="cls-1" d="M41.06,62.02v-7.82c0-1.77-1.44-3.22-3.22-3.22h-4.93c-1.77,0-3.22,1.44-3.22,3.22v7.82h1.5v-7.82c0-.95.77-1.72,1.72-1.72h4.93c.95,0,1.72.77,1.72,1.72v7.82h1.5Z"/>
  <path class="cls-1" d="M59.25,16h1.5c0-1.79,1.46-3.25,3.25-3.25v-1.5c-1.79,0-3.25-1.46-3.25-3.25h-1.5c0,1.79-1.46,3.25-3.25,3.25v1.5c1.79,0,3.25,1.46,3.25,3.25ZM60,10.54c.38.59.87,1.09,1.46,1.46-.59.38-1.09.87-1.46,1.46-.38-.59-.87-1.09-1.46-1.46.59-.38,1.09-.87,1.46-1.46Z"/>
  <path class="cls-1" d="M66.97,12.44h-1.5c0,2.77-2.26,5.03-5.03,5.03v1.5c2.77,0,5.03,2.26,5.03,5.03h1.5c0-2.77,2.25-5.03,5.03-5.03v-1.5c-2.77,0-5.03-2.26-5.03-5.03ZM66.22,20.97c-.62-1.17-1.58-2.13-2.75-2.75,1.17-.62,2.13-1.58,2.75-2.75.62,1.17,1.58,2.13,2.75,2.75-1.17.62-2.13,1.58-2.75,2.75Z"/>
</svg>