<?xml version="1.0" encoding="UTF-8"?><svg id="a" xmlns="http://www.w3.org/2000/svg" viewBox="0 0 80 80"><path d="M40.01367,23.25c-4.8252,0-8.75,3.92529-8.75,8.75s3.9248,8.75,8.75,8.75,8.75-3.92529,8.75-8.75-3.9248-8.75-8.75-8.75Zm0,16c-3.99805,0-7.25-3.25244-7.25-7.25s3.25195-7.25,7.25-7.25,7.25,3.25244,7.25,7.25-3.25195,7.25-7.25,7.25Z"/><path d="M53.72656,26.69287c.09277,.03857,.19043,.05713,.28711,.05713,.19531,0,.38672-.07617,.53027-.21973l3.78027-3.78027h5.68945c1.5166,0,2.75-1.2334,2.75-2.75V12c0-1.5166-1.2334-2.75-2.75-2.75h-16c-1.5166,0-2.75,1.2334-2.75,2.75v8c0,1.5166,1.2334,2.75,2.75,2.75h5.25v3.25c0,.30322,.18262,.57666,.46289,.69287Zm-5.71289-5.44287c-.68945,0-1.25-.56055-1.25-1.25V12c0-.68945,.56055-1.25,1.25-1.25h16c.68945,0,1.25,.56055,1.25,1.25v8c0,.68945-.56055,1.25-1.25,1.25h-6c-.19922,0-.38965,.0791-.53027,.21973l-2.71973,2.71973v-2.18945c0-.41406-.33594-.75-.75-.75h-6Z"/><path d="M68.01367,29.25h-16.01367v1.5h16.01367c.68945,0,1.25,.56055,1.25,1.25v27.25h-16.5v-7.25c0-3.72217-3.02832-6.75-6.75-6.75h-12c-3.72168,0-6.75,3.02783-6.75,6.75v7.25H10.76416v-27.25c0-.68945,.56055-1.25,1.25-1.25h15.98584v-1.5H12.01416c-1.5166,0-2.75,1.2334-2.75,2.75v32c0,1.5166,1.2334,2.75,2.75,2.75h27.24951v2.5h-13.25v1.5h28v-1.5h-13.25v-2.5h27.25c1.5166,0,2.75-1.2334,2.75-2.75V32c0-1.5166-1.2334-2.75-2.75-2.75ZM28.76367,52c0-2.89502,2.35547-5.25,5.25-5.25h12c2.89453,0,5.25,2.35498,5.25,5.25v7.25H28.76367v-7.25Zm40.5,12c0,.68945-.56055,1.25-1.25,1.25H12.01416c-.68945,0-1.25-.56055-1.25-1.25v-3.25h58.49951v3.25Z"/></svg>