<svg xmlns="http://www.w3.org/2000/svg" viewBox="0 0 80 80"><path d="M40,10.75A29.28292,29.28292,0,0,1,69.25,40h1.5a30.75,30.75,0,0,0-61.5,0h1.5A29.28292,29.28292,0,0,1,40,10.75Z"/><rect x="39.25" y="22" width="1.5" height="36"/><path d="M20,40.75H34.18945l-2.71972,2.71973,1.06054,1.06054,4-4a.74972.74972,0,0,0,0-1.06054l-4-4-1.06054,1.06054L34.18945,39.25H20Z"/><path d="M44,40.75H58.18945l-2.71972,2.71973,1.06054,1.06054,4-4a.74972.74972,0,0,0,0-1.06054l-4-4-1.06054,1.06054L58.18945,39.25H44Z"/><path d="M44,35.25v1.5A8.75967,8.75967,0,0,0,52.75,28v-.18945l2.71973,2.71972,1.06054-1.06054-4-4a.74972.74972,0,0,0-1.06054,0l-4,4,1.06054,1.06054L51.25,27.81055V28A7.258,7.258,0,0,1,44,35.25Z"/><path d="M44,44.75A7.258,7.258,0,0,1,51.25,52v.18945l-2.71973-2.71972-1.06054,1.06054,4,4a.74971.74971,0,0,0,1.06054,0l4-4-1.06054-1.06054L52.75,52.18945V52A8.75967,8.75967,0,0,0,44,43.25Z"/></svg>