<svg id="a" xmlns="http://www.w3.org/2000/svg" viewBox="0 0 256 256"><rect width="256" height="256" fill="none"/><path fill="currentColor" d="M12.19043,64.75h55.61914c1.62109,0,2.94043-1.31934,2.94043-2.94092V20.19092c0-1.62158-1.31934-2.94092-2.94043-2.94092h-11.05957v-3.25h-1.5v3.25H24.75v-3.25h-1.5v3.25H12.19043c-1.62109,0-2.94043,1.31934-2.94043,2.94092V61.80908c0,1.62158,1.31934,2.94092,2.94043,2.94092Zm-1.44043-44.55908c0-.79443,.64648-1.44092,1.44043-1.44092h11.05957v3.25h1.5v-3.25h30.5v3.25h1.5v-3.25h11.05957c.79395,0,1.44043,.64648,1.44043,1.44092v6.86816H10.75v-6.86816Zm0,8.36816h58.5V61.80908c0,.79443-.64648,1.44092-1.44043,1.44092H12.19043c-.79395,0-1.44043-.64648-1.44043-1.44092V28.55908Z"/><path d="M40,55.25c-2.34375,0-4.25-1.90674-4.25-4.25h-1.5c0,2.91565,2.18311,5.32599,5,5.69537v3.30463h1.5v-3.30463c2.81689-.36938,5-2.77972,5-5.69537,0-3.17041-2.5791-5.75-5.75-5.75-2.34375,0-4.25-1.90674-4.25-4.25s1.90625-4.25,4.25-4.25,4.25,1.90674,4.25,4.25h1.5c0-2.91565-2.18311-5.32599-5-5.69537v-3.30463h-1.5v3.30463c-2.81689,.36938-5,2.77972-5,5.69537,0,3.17041,2.5791,5.75,5.75,5.75,2.34375,0,4.25,1.90674,4.25,4.25s-1.90625,4.25-4.25,4.25Z"/></svg>