<?xml version="1.0" encoding="UTF-8"?><svg id="a" xmlns="http://www.w3.org/2000/svg" viewBox="0 0 80 80"><path d="M39.71191,69.69238c.0918,.03857,.19043,.05762,.28809,.05762s.19629-.01904,.28809-.05762l16.73926-6.9668c4.69141-1.95264,7.72266-6.49805,7.72266-11.5791V10c0-.41406-.33594-.75-.75-.75H16c-.41406,0-.75,.33594-.75,.75V51.14648c0,5.08105,3.03125,9.62646,7.72266,11.5791l16.73926,6.9668Zm-22.96191-18.5459V10.75H63.25V51.14648c0,4.47363-2.66895,8.4751-6.79883,10.19434l-16.45117,6.84668-16.45117-6.84668c-4.12988-1.71924-6.79883-5.7207-6.79883-10.19434Z"/><path d="M28,52.75h24c.41406,0,.75-.33594,.75-.75v-6c0-.28418-.16016-.54395-.41504-.6709l-3.58496-1.79248v-7.22607l3.78027-3.78027c.14062-.14062,.21973-.33154,.21973-.53027v-10c0-.41406-.33594-.75-.75-.75h-4c-.41406,0-.75,.33594-.75,.75v3.25h-2.5v-3.25c0-.41406-.33594-.75-.75-.75h-8c-.41406,0-.75,.33594-.75,.75v3.25h-2.5v-3.25c0-.41406-.33594-.75-.75-.75h-4c-.41406,0-.75,.33594-.75,.75v10c0,.19873,.0791,.38965,.21973,.53027l3.78027,3.78027v7.22607l-3.58496,1.79248c-.25488,.12695-.41504,.38672-.41504,.6709v6c0,.41406,.33594,.75,.75,.75Zm.75-6.28662l3.58496-1.79248c.25488-.12695,.41504-.38672,.41504-.6709v-8c0-.19873-.0791-.38965-.21973-.53027l-3.78027-3.78027v-8.93945h2.5v3.25c0,.41406,.33594,.75,.75,.75h4c.41406,0,.75-.33594,.75-.75v-3.25h6.5v3.25c0,.41406,.33594,.75,.75,.75h4c.41406,0,.75-.33594,.75-.75v-3.25h2.5v8.93945l-3.78027,3.78027c-.14062,.14062-.21973,.33154-.21973,.53027v8c0,.28418,.16016,.54395,.41504,.6709l3.58496,1.79248v4.78662H28.75v-4.78662Z"/></svg>