<?xml version="1.0" encoding="UTF-8"?><svg id="a" xmlns="http://www.w3.org/2000/svg" viewBox="0 0 80 80"><path d="M56.75,40c0-9.23584-7.51416-16.75-16.75-16.75s-16.75,7.51416-16.75,16.75,7.51416,16.75,16.75,16.75,16.75-7.51416,16.75-16.75Zm-32,0c0-8.40869,6.84131-15.25,15.25-15.25s15.25,6.84131,15.25,15.25-6.84131,15.25-15.25,15.25-15.25-6.84131-15.25-15.25Z"/><path d="M44.53027,43.46973l-3.78027-3.78027v-11.68945h-1.5v12c0,.19873,.0791,.38965,.21973,.53027l4,4,1.06055-1.06055Z"/><path d="M40,70.75c16.95557,0,30.75-13.79443,30.75-30.75s-13.79443-30.75-30.75-30.75c-8.0083,0-15.50366,3.02386-21.25,8.53192v-5.78192h-1.5v8c0,.41406,.33594,.75,.75,.75h8v-1.5h-6.60278c5.5144-5.48163,12.802-8.5,20.60278-8.5,16.12842,0,29.25,13.12158,29.25,29.25s-13.12158,29.25-29.25,29.25-29.25-13.12158-29.25-29.25c0-4.7417,1.09912-9.26611,3.26709-13.44678l-1.33203-.69043c-2.24707,4.33447-3.43506,9.22266-3.43506,14.13721,0,16.95557,13.79443,30.75,30.75,30.75Z"/></svg>