<svg id="DO_NOT_TOUCH_Outlines_" data-name="DO NOT TOUCH (Outlines)" xmlns="http://www.w3.org/2000/svg" viewBox="0 0 80 80"><rect x="37.25" y="14" width="1.5" height="2"/><rect x="33.25" y="14" width="1.5" height="2"/><rect x="37.25" y="18" width="1.5" height="2"/><rect x="41.25" y="14" width="1.5" height="2"/><rect x="41.25" y="18" width="1.5" height="2"/><rect x="45.25" y="14" width="1.5" height="2"/><rect x="45.25" y="18" width="1.5" height="2"/><rect x="33.25" y="18" width="1.5" height="2"/><path d="M30,26.75H50a.76.76,0,0,0,.75-.75V10A.76.76,0,0,0,50,9.25H30a.76.76,0,0,0-.75.75V26A.76.76,0,0,0,30,26.75Zm.75-16h18.5v14.5H30.75Z"/><path d="M18.74,53.31a2.44,2.44,0,0,0,0-.27,3.75,3.75,0,1,0-7.5,0,3.91,3.91,0,0,0,.06.68A3.78,3.78,0,0,0,13,60.87h2.25V66h1.5V60.87H19a3.78,3.78,0,1,0-.26-7.56ZM19,59.37H13a2.28,2.28,0,0,1-.58-4.48.76.76,0,0,0,.47-.39.72.72,0,0,0,0-.61,2.34,2.34,0,0,1-.17-.85A2.25,2.25,0,1,1,17,54a.75.75,0,0,0,1,1,2.18,2.18,0,0,1,1-.24,2.29,2.29,0,0,1,0,4.57Z"/><circle cx="57.29" cy="22.5" r="1"/><circle cx="63.29" cy="30.5" r="1"/><circle cx="65.29" cy="40.5" r="1"/><circle cx="39.29" cy="66.5" r="1"/><circle cx="29.29" cy="64.5" r="1"/><circle cx="13.29" cy="40.5" r="1"/><circle cx="49.29" cy="64.5" r="1"/><circle cx="15.29" cy="30.5" r="1"/><circle cx="21.29" cy="22.5" r="1"/><path d="M70.42,57.38l-6-4a.76.76,0,0,0-.84,0l-6,4a.76.76,0,0,0-.33.62v8a.76.76,0,0,0,.75.75H70a.76.76,0,0,0,.75-.75V58A.76.76,0,0,0,70.42,57.38Zm-1.17,7.87h-4.5V62h-1.5v3.25h-4.5V58.4L64,54.9l5.25,3.5Z"/><path d="M51.3,33.25H28.7a1.45,1.45,0,0,0-1.45,1.45V49.3a1.45,1.45,0,0,0,1.45,1.45H51.3a1.45,1.45,0,0,0,1.45-1.45V34.7A1.45,1.45,0,0,0,51.3,33.25Zm-14.55,16V47A1.25,1.25,0,0,1,38,45.75h4A1.25,1.25,0,0,1,43.25,47v2.25Zm8,0V47A2.75,2.75,0,0,0,42,44.25H38A2.75,2.75,0,0,0,35.25,47v2.28l-6.5,0L28.7,34.75H51.25l0,14.5Z"/><rect x="27.25" y="53.25" width="25.5" height="1.5"/><path d="M40,37.25A2.75,2.75,0,1,0,42.69,40,2.72,2.72,0,0,0,40,37.25Zm0,4A1.25,1.25,0,1,1,41.19,40,1.22,1.22,0,0,1,40,41.25Z"/></svg>