<svg xmlns="http://www.w3.org/2000/svg" viewBox="0 0 80 80"><path d="M56,33.25H24a.7502.7502,0,0,0-.75.75V70a.7502.7502,0,0,0,.75.75H56a.7502.7502,0,0,0,.75-.75V34A.7502.7502,0,0,0,56,33.25Zm-.75,36H24.75V58.75h30.5Zm0-12H24.75V46.75h30.5Zm0-12H24.75V34.75h30.5Z"/><rect x="40" y="63.25" width="12" height="1.5"/><rect x="40" y="51.25" width="12" height="1.5"/><rect x="40" y="39.25" width="12" height="1.5"/><path d="M20,40.75v-1.5a9.25,9.25,0,0,1,0-18.5,9.1545,9.1545,0,0,1,4.01562.92773.7491.7491,0,0,0,1.03126-.41992,15.9031,15.9031,0,0,1,30.79394,3.91455.75047.75047,0,0,0,1.207.52344A7.48766,7.48766,0,0,1,61.667,24.0835a7.59145,7.59145,0,0,1,7.583,7.583A7.34332,7.34332,0,0,1,62,39.25H60v1.5h2a8.82652,8.82652,0,0,0,8.75-9.0835,9.09309,9.09309,0,0,0-9.083-9.083,8.88462,8.88462,0,0,0-4.49023,1.21875,17.404,17.404,0,0,0-33.251-3.80127A10.58906,10.58906,0,0,0,20,19.25a10.75,10.75,0,0,0,0,21.5Z"/><circle cx="28" cy="40" r="1"/><circle cx="32" cy="40" r="1"/><circle cx="36" cy="40" r="1"/><circle cx="28" cy="52" r="1"/><circle cx="32" cy="52" r="1"/><circle cx="36" cy="52" r="1"/><circle cx="28" cy="64" r="1"/><circle cx="32" cy="64" r="1"/><circle cx="36" cy="64" r="1"/></svg>