<?xml version="1.0" encoding="UTF-8"?><svg id="a" xmlns="http://www.w3.org/2000/svg" viewBox="0 0 80 80"><path d="M24,35.25c-2.61914,0-4.75,2.13086-4.75,4.75s2.13086,4.75,4.75,4.75,4.75-2.13086,4.75-4.75-2.13086-4.75-4.75-4.75Zm0,8c-1.79199,0-3.25-1.45801-3.25-3.25s1.45801-3.25,3.25-3.25,3.25,1.45801,3.25,3.25-1.45801,3.25-3.25,3.25Z"/><path d="M51.25,40c0,2.61914,2.13086,4.75,4.75,4.75s4.75-2.13086,4.75-4.75-2.13086-4.75-4.75-4.75-4.75,2.13086-4.75,4.75Zm4.75-3.25c1.79199,0,3.25,1.45801,3.25,3.25s-1.45801,3.25-3.25,3.25-3.25-1.45801-3.25-3.25,1.45801-3.25,3.25-3.25Z"/><path d="M40,51.25c-2.61914,0-4.75,2.13086-4.75,4.75s2.13086,4.75,4.75,4.75,4.75-2.13086,4.75-4.75-2.13086-4.75-4.75-4.75Zm0,8c-1.79199,0-3.25-1.45801-3.25-3.25s1.45801-3.25,3.25-3.25,3.25,1.45801,3.25,3.25-1.45801,3.25-3.25,3.25Z"/><path d="M40,19.25c-2.61914,0-4.75,2.13086-4.75,4.75s2.13086,4.75,4.75,4.75,4.75-2.13086,4.75-4.75-2.13086-4.75-4.75-4.75Zm0,8c-1.79199,0-3.25-1.45801-3.25-3.25s1.45801-3.25,3.25-3.25,3.25,1.45801,3.25,3.25-1.45801,3.25-3.25,3.25Z"/><path d="M54.67285,54.67236c1.85156-1.85205,1.85156-4.86523,0-6.71729s-4.86621-1.85059-6.71777,0c-.89746,.89697-1.3916,2.08984-1.3916,3.3584,0,1.26904,.49414,2.46191,1.3916,3.35889,.92578,.92578,2.14258,1.38867,3.3584,1.38867,1.2168,0,2.43359-.46289,3.35938-1.38867Zm-5.65723-1.06055c-.61426-.61377-.95215-1.43018-.95215-2.29834,0-.86768,.33789-1.68408,.95215-2.29785,.63379-.6333,1.46582-.9502,2.29883-.9502,.83203,0,1.66406,.31689,2.29785,.9502,1.2666,1.26709,1.2666,3.3291,0,4.59619-1.26855,1.26758-3.33008,1.26562-4.59668,0Z"/><path d="M33.43652,28.68652c0-1.26904-.49414-2.46191-1.3916-3.35889-1.85254-1.85205-4.86719-1.85059-6.71777,0-1.85156,1.85205-1.85156,4.86523,0,6.71729,.92578,.92578,2.14258,1.38867,3.3584,1.38867,1.2168,0,2.43359-.46289,3.35938-1.38867,.89746-.89697,1.3916-2.08984,1.3916-3.3584Zm-2.45215,2.29785c-1.2666,1.26611-3.32812,1.26709-4.59668,0-1.2666-1.26709-1.2666-3.3291,0-4.59619,.63379-.6333,1.46582-.9502,2.29785-.9502,.83301,0,1.66504,.31689,2.29883,.9502,.61426,.61377,.95215,1.43018,.95215,2.29834,0,.86768-.33789,1.68408-.95215,2.29785Z"/><path d="M32.04492,54.67236c.89746-.89697,1.3916-2.08984,1.3916-3.35889,0-1.26855-.49414-2.46143-1.3916-3.3584-1.85254-1.85205-4.86719-1.85059-6.71777,0-1.85156,1.85205-1.85156,4.86523,0,6.71729,.92578,.92578,2.14258,1.38867,3.3584,1.38867,1.2168,0,2.43359-.46289,3.35938-1.38867Zm-5.65723-5.65674c.63379-.6333,1.46582-.9502,2.29785-.9502,.83301,0,1.66504,.31689,2.29883,.9502,.61426,.61377,.95215,1.43018,.95215,2.29785,0,.86816-.33789,1.68457-.95215,2.29834-1.2666,1.26562-3.32812,1.26758-4.59668,0-1.2666-1.26709-1.2666-3.3291,0-4.59619Z"/><path d="M47.95508,25.32764c-.89746,.89697-1.3916,2.08984-1.3916,3.35889,0,1.26855,.49414,2.46143,1.3916,3.3584,.92578,.92578,2.14258,1.38867,3.3584,1.38867,1.2168,0,2.43359-.46289,3.35938-1.38867,1.85156-1.85205,1.85156-4.86523,0-6.71729s-4.86621-1.85059-6.71777,0Zm5.65723,5.65674c-1.26855,1.26709-3.33008,1.26611-4.59668,0-.61426-.61377-.95215-1.43018-.95215-2.29785,0-.86816,.33789-1.68457,.95215-2.29834,.63379-.6333,1.46582-.9502,2.29883-.9502,.83203,0,1.66406,.31689,2.29785,.9502,1.2666,1.26709,1.2666,3.3291,0,4.59619Z"/><path d="M63.25,38v4c0,3.72217,3.02832,6.75,6.75,6.75h2v-1.5h-2c-2.89453,0-5.25-2.35498-5.25-5.25v-4c0-2.89502,2.35547-5.25,5.25-5.25h2v-1.5h-2c-3.72168,0-6.75,3.02783-6.75,6.75Z"/><path d="M16.75,42v-4c0-3.72217-3.02783-6.75-6.75-6.75h-2v1.5h2c2.89502,0,5.25,2.35498,5.25,5.25v4c0,2.89502-2.35498,5.25-5.25,5.25h-2v1.5h2c3.72217,0,6.75-3.02783,6.75-6.75Z"/><path d="M48.75,72v-2c0-3.72217-3.02832-6.75-6.75-6.75h-4c-3.72168,0-6.75,3.02783-6.75,6.75v2h1.5v-2c0-2.89502,2.35547-5.25,5.25-5.25h4c2.89453,0,5.25,2.35498,5.25,5.25v2h1.5Z"/><path d="M48.75,10v-2h-1.5v2c0,2.89502-2.35547,5.25-5.25,5.25h-4c-2.89453,0-5.25-2.35498-5.25-5.25v-2h-1.5v2c0,3.72217,3.02832,6.75,6.75,6.75h4c3.72168,0,6.75-3.02783,6.75-6.75Z"/><path d="M12.24609,22.49902l-1.06055,1.06055,1.41406,1.41455c1.31592,1.31592,3.04443,1.97363,4.77295,1.97363s3.45703-.65771,4.77295-1.97363l2.82812-2.82861c1.27539-1.2749,1.97754-2.96973,1.97754-4.77295s-.70215-3.49805-1.97754-4.77295l-1.41406-1.41406-1.06055,1.06055,1.41406,1.41406c.99219,.9917,1.53809,2.31006,1.53809,3.7124s-.5459,2.7207-1.53809,3.7124l-2.82812,2.82861c-2.04688,2.0459-5.37793,2.0459-7.4248,0l-1.41406-1.41455Z"/><path d="M58.91504,56.08643c2.04785-2.04785,5.37891-2.0459,7.4248,0l1.41406,1.41455,1.06055-1.06055-1.41406-1.41455c-2.63086-2.63281-6.91504-2.63086-9.5459,0l-2.82812,2.82861c-1.27539,1.2749-1.97754,2.96973-1.97754,4.77295s.70215,3.49805,1.97754,4.77295l1.41406,1.41406,1.06055-1.06055-1.41406-1.41406c-.99219-.9917-1.53809-2.31006-1.53809-3.7124s.5459-2.7207,1.53809-3.7124l2.82812-2.82861Z"/><path d="M22.49902,67.75391l1.06055,1.06055,1.41406-1.41406c1.27539-1.2749,1.97754-2.96973,1.97754-4.77295s-.70215-3.49805-1.97754-4.77295l-2.82812-2.82861c-2.63184-2.63184-6.91406-2.63086-9.5459,0l-1.41406,1.41455,1.06055,1.06055,1.41406-1.41455c2.04639-2.04639,5.37744-2.04639,7.4248,0l2.82812,2.82861c.99219,.9917,1.53809,2.31006,1.53809,3.7124s-.5459,2.7207-1.53809,3.7124l-1.41406,1.41406Z"/><path d="M68.81445,23.55957l-1.06055-1.06055-1.41406,1.41455c-.99121,.99121-2.30957,1.5376-3.71289,1.5376-1.40234,0-2.7207-.54639-3.71191-1.5376l-2.82812-2.82861c-.99219-.9917-1.53809-2.31006-1.53809-3.7124s.5459-2.7207,1.53809-3.7124l1.41406-1.41406-1.06055-1.06055-1.41406,1.41406c-1.27539,1.2749-1.97754,2.96973-1.97754,4.77295s.70215,3.49805,1.97754,4.77295l2.82812,2.82861c1.31543,1.31592,3.04395,1.97412,4.77246,1.97412,1.72949,0,3.45801-.6582,4.77344-1.97412l1.41406-1.41455Z"/></svg>