<?xml version="1.0" encoding="UTF-8"?><svg id="a" xmlns="http://www.w3.org/2000/svg" viewBox="0 0 80 80"><path d="M40,66.75c16.95605,0,30.75-13.79443,30.75-30.75h-1.5c0,16.12842-13.12109,29.25-29.25,29.25s-29.25-13.12158-29.25-29.25h-1.5c0,16.95557,13.79395,30.75,30.75,30.75Z"/><path d="M64.75,24c0-4.82471-3.9248-8.75-8.75-8.75s-8.75,3.92529-8.75,8.75,3.9248,8.75,8.75,8.75,8.75-3.92529,8.75-8.75Zm-8.75,7.25c-3.99805,0-7.25-3.25244-7.25-7.25s3.25195-7.25,7.25-7.25,7.25,3.25244,7.25,7.25-3.25195,7.25-7.25,7.25Z"/><path d="M40,51.25v1.5c9.23633,0,16.75-7.51416,16.75-16.75h-1.5c0,8.40869-6.84082,15.25-15.25,15.25Z"/></svg>