<?xml version="1.0" encoding="UTF-8"?><svg id="a" xmlns="http://www.w3.org/2000/svg" viewBox="0 0 80 80"><path d="M68.75,68V12c0-1.5166-1.2334-2.75-2.75-2.75H26c-1.5166,0-2.75,1.2334-2.75,2.75v56c0,1.5166,1.2334,2.75,2.75,2.75h40c1.5166,0,2.75-1.2334,2.75-2.75Zm-1.5,0c0,.68945-.56055,1.25-1.25,1.25H26c-.68945,0-1.25-.56055-1.25-1.25V12c0-.68945,.56055-1.25,1.25-1.25h40c.68945,0,1.25,.56055,1.25,1.25v56Z"/><rect x="42" y="15.25" width="6" height="1.5"/><path d="M46,61.25c-1.5166,0-2.75,1.2334-2.75,2.75s1.2334,2.75,2.75,2.75,2.75-1.2334,2.75-2.75-1.2334-2.75-2.75-2.75Zm0,4c-.68945,0-1.25-.56055-1.25-1.25s.56055-1.25,1.25-1.25,1.25,.56055,1.25,1.25-.56055,1.25-1.25,1.25Z"/><path d="M14,9.25c-.32275,0-.60938,.20654-.71143,.5127l-2,6c-.02539,.07666-.03857,.15674-.03857,.2373v52c0,1.5166,1.2334,2.75,2.75,2.75s2.75-1.2334,2.75-2.75V16c0-.08057-.01318-.16064-.03857-.2373l-2-6c-.10205-.30615-.38867-.5127-.71143-.5127Zm1.25,58.75c0,.68945-.56055,1.25-1.25,1.25s-1.25-.56055-1.25-1.25V16.12158l1.25-3.75,1.25,3.75v51.87842Z"/></svg>