<?xml version="1.0" encoding="UTF-8"?><svg id="a" xmlns="http://www.w3.org/2000/svg" viewBox="0 0 80 80"><path d="M68,23.32178h-12.25v-5.32178c0-1.51611-1.2334-2.75-2.75-2.75H27c-1.5166,0-2.75,1.23389-2.75,2.75v5.32178H12c-1.5166,0-2.75,1.23389-2.75,2.75V62c0,1.51611,1.2334,2.75,2.75,2.75h56c1.5166,0,2.75-1.23389,2.75-2.75V26.07178c0-1.51611-1.2334-2.75-2.75-2.75Zm-42.25-5.32178c0-.68945,.56055-1.25,1.25-1.25h26c.68945,0,1.25,.56055,1.25,1.25v5.32178H25.75v-5.32178Zm43.5,44c0,.68945-.56055,1.25-1.25,1.25H12c-.68945,0-1.25-.56055-1.25-1.25v-21.6062c.4165,.21997,.88867,.3562,1.39844,.3562h24.84961v3.24756c0,.41406,.33594,.75,.75,.75h4.58594c.41406,0,.75-.33594,.75-.75v-3.37988l24.76758,.13232c.50977,0,.98193-.13623,1.39844-.3562v21.6062Zm-30.75195-18.75244v-6.76807h3.08594v6.76807h-3.08594Zm30.75195-5.24756c0,.68945-.62695,1.25-1.39453,1.25l-24.77148-.13232v-3.38818c0-.41406-.33594-.75-.75-.75h-4.58594c-.41406,0-.75,.33594-.75,.75v3.52051H12.14844c-.77148,0-1.39844-.56055-1.39844-1.25v-11.92822c0-.14404,.03711-.27734,.08203-.40625,.03491-.0896,.07837-.17529,.13403-.25439,.0105-.01636,.02124-.03223,.03247-.0481,.19751-.25537,.49854-.44116,.84863-.5105,.01123-.00146,.02148-.00537,.03296-.00659,.08691-.01514,.17651-.02417,.26831-.02417h55.70312c.0918,0,.1814,.00903,.26831,.02417,.01147,.00122,.02173,.00513,.03296,.00659,.35034,.06934,.65112,.25513,.84888,.51074,.01099,.01562,.02173,.03125,.03198,.04736,.05566,.07935,.09937,.16528,.13428,.25513,.04492,.12866,.08203,.26196,.08203,.40601v11.92822Z"/></svg>