<?xml version="1.0" encoding="UTF-8"?><svg id="a" xmlns="http://www.w3.org/2000/svg" viewBox="0 0 80 80"><path d="M36.12109,32.22266h-1.4082c-.0791,0-.14453,.06152-.14941,.14062-.03418,.51074-.20215,.92676-.5,1.23633-.35059,.36133-.80762,.53711-1.39844,.53711-.57324,0-1.02246-.19531-1.37305-.59766-.44238-.50488-.66602-1.27832-.66602-2.2998,0-.90234,.17676-1.60938,.52539-2.10352,.36328-.52637,.87988-.78125,1.57812-.78125,.45703,0,.8457,.11523,1.15625,.34375,.36035,.27051,.57617,.65625,.65723,1.17871,.01172,.07227,.07422,.12695,.14844,.12695h1.39746c.04297,0,.08301-.01855,.11133-.0498,.02832-.03223,.04199-.07422,.03809-.11621-.08301-.78223-.41309-1.43945-.97949-1.95312-.66113-.60352-1.51172-.90918-2.5293-.90918-1.08301,0-1.9707,.3252-2.63965,.96582-.79297,.75098-1.19531,1.86133-1.19531,3.29785,0,1.26172,.30664,2.28125,.91113,3.03125,.66992,.83301,1.62402,1.25586,2.83691,1.25586,.95605,0,1.76855-.26367,2.41309-.78125,.72363-.58203,1.13281-1.37598,1.21484-2.35938,.00391-.04199-.01074-.08301-.03906-.11426s-.06836-.04883-.11035-.04883Z"/><path d="M40.81348,26.97559c-1.03027,0-1.90234,.30859-2.59277,.91797-.87402,.77441-1.31836,1.9043-1.31836,3.35742,0,1.28613,.33789,2.31934,1.00293,3.06934,.71387,.7998,1.68848,1.20605,2.89746,1.20605,1.03027,0,1.90234-.31348,2.5918-.92969,.86719-.7666,1.30762-1.8916,1.30762-3.3457,0-1.30176-.3457-2.3418-1.02539-3.09277-.70508-.78418-1.66895-1.18262-2.86328-1.18262Zm-.01074,7.18262c-.60547,0-1.08398-.19336-1.46289-.59082-.4834-.50391-.72754-1.2793-.72754-2.30566,0-.90918,.19043-1.62598,.56641-2.13379,.38574-.52832,.91699-.78516,1.62402-.78516,.60449,0,1.08301,.19336,1.46289,.5918,.4834,.50391,.72754,1.2832,.72754,2.31641,0,.9082-.19043,1.62598-.56738,2.13281-.38379,.52148-.91504,.77441-1.62305,.77441Z"/><path d="M50.4375,31.1709c.3418-.49316,.51562-1.04004,.51562-1.625,0-.65527-.23145-1.20703-.68652-1.6377-.49609-.47266-1.16895-.71289-2-.71289-.70898,0-1.3291,.19141-1.84277,.56738-.61035,.43457-.9707,1.03516-1.06934,1.78516-.00586,.04297,.00684,.08594,.03613,.11816,.02832,.0332,.06934,.05176,.1123,.05176h1.36523c.07422,0,.1377-.05469,.14844-.12891,.0459-.3125,.16602-.55762,.36523-.74707,.21973-.20312,.49902-.30078,.85254-.30078,.31641,0,.57617,.08105,.76855,.23828,.21289,.18457,.31641,.43555,.31641,.7666,0,.30566-.0918,.59961-.27246,.87402-.19238,.29102-.61035,.74805-1.24316,1.3623l-2.21094,2.17773c-.02832,.02734-.04492,.06641-.04492,.10645v1.14453c0,.08301,.06738,.15039,.15039,.15039h5.06055c.08301,0,.15039-.06738,.15039-.15039v-1.14453c0-.08301-.06738-.15039-.15039-.15039h-2.95703l1.19824-1.16113c.71582-.69727,1.18652-1.21484,1.4375-1.58398Z"/><path d="M19,16.75c2.06738,0,3.75-1.68213,3.75-3.75s-1.68262-3.75-3.75-3.75-3.75,1.68213-3.75,3.75,1.68262,3.75,3.75,3.75Zm0-6c1.24023,0,2.25,1.00928,2.25,2.25s-1.00977,2.25-2.25,2.25-2.25-1.00928-2.25-2.25,1.00977-2.25,2.25-2.25Z"/><path d="M64,39.25c-1.5166,0-2.75,1.2334-2.75,2.75s1.2334,2.75,2.75,2.75,2.75-1.2334,2.75-2.75-1.2334-2.75-2.75-2.75Zm0,4c-.68945,0-1.25-.56055-1.25-1.25s.56055-1.25,1.25-1.25,1.25,.56055,1.25,1.25-.56055,1.25-1.25,1.25Z"/><path d="M68.75,27.89453c0-3.6543-2.79004-6.66992-6.35156-7.02979-.35938-3.56152-3.375-6.35156-7.03027-6.35156-1.54297,0-3.0127,.49268-4.22754,1.40381-2.39258-4.13623-6.74023-6.66699-11.56152-6.66699-7.06934,0-12.875,5.50928-13.35059,12.45996-1.05664-.30566-2.13867-.45996-3.22852-.45996-6.47852,0-11.75,5.27148-11.75,11.75s5.27148,11.75,11.75,11.75c.15332,0,.30566-.00391,.45605-.01074,1.13477,3.56934,4.43262,6.01074,8.22852,6.01074,.53369,0,1.05518-.06714,1.56836-.16333v17.60571l-4.72266-4.72266-1.06055,1.06055,6,6c.14648,.14648,.33789,.21973,.53027,.21973s.38379-.07324,.53027-.21973l6-6-1.06055-1.06055-4.7168,4.7168v-18.02734c2.00977-.77319,3.70679-2.26611,4.67969-4.24023,1.97949,1.09668,4.19629,1.67285,6.46191,1.67285,.45654,0,.90771-.02319,1.35254-.06812v10.1687l-2.71973-2.71973-1.06055,1.06055,4,4c.14062,.14062,.33105,.21973,.53027,.21973h.00586c.20117-.00195,.39355-.08398,.5332-.22852l4.00293-4.13574-1.07812-1.04297-2.71387,2.80396v-10.37231c5.91064-1.28979,10.37671-6.48877,10.52539-12.74512,.77246,.28223,1.58887,.42871,2.41211,.42871,3.89551,0,7.06543-3.16992,7.06543-7.06641Zm-9.88672,4.79199c-.23926-.1416-.53711-.13867-.77441,.00684-.23633,.14648-.37305,.41113-.35449,.68848l.00977,.14648c.01562,.22559,.03223,.45215,.03223,.68262,0,6.07251-4.58276,11.08789-10.47046,11.78906h-.05884v.00903c-.44458,.05054-.89453,.08276-1.35254,.08276-2.27051,0-4.48633-.65234-6.40625-1.88574-.19043-.12402-.42676-.15332-.64355-.08008-.21484,.07227-.38672,.23828-.46484,.45117-1.03223,2.79492-3.72363,4.67285-6.69531,4.67285-3.31445,0-6.16797-2.25195-6.94043-5.47559-.08203-.33984-.38574-.5752-.72852-.5752-.02344,0-.0459,.00098-.06836,.00293-.3125,.02832-.62695,.04785-.94727,.04785-5.65234,0-10.25-4.59766-10.25-10.25s4.59766-10.25,10.25-10.25c1.25,0,2.48926,.2334,3.68359,.69434,.22949,.08887,.49023,.05762,.69434-.08203,.20312-.13965,.3252-.37109,.3252-.61816l-.00586-.1123c0-6.55176,5.33008-11.88184,11.88184-11.88184,4.56641,0,8.65332,2.55811,10.66699,6.67627,.10645,.2168,.31055,.36963,.54883,.41016,.24121,.0376,.48145-.0376,.65332-.20752,1.0498-1.04199,2.44238-1.61572,3.91992-1.61572,3.06934,0,5.56641,2.49707,5.56641,5.56592,0,.41406,.33594,.75,.75,.75,3.06836,0,5.56543,2.49707,5.56543,5.56543,0,3.06934-2.49707,5.56641-5.56543,5.56641-.9873,0-1.96289-.26758-2.82129-.77441Z"/></svg>