<?xml version="1.0" encoding="UTF-8"?><svg id="a" xmlns="http://www.w3.org/2000/svg" viewBox="0 0 80 80"><path d="M68.01367,58.75c1.5166,0,2.75-1.2334,2.75-2.75V22c0-1.5166-1.2334-2.75-2.75-2.75H12.01367c-1.5166,0-2.75,1.2334-2.75,2.75V56c0,1.5166,1.2334,2.75,2.75,2.75h27.25v2.5h-13.25v1.5h28v-1.5h-13.25v-2.5h27.25Zm-56-1.5c-.68945,0-1.25-.56055-1.25-1.25V22c0-.68945,.56055-1.25,1.25-1.25h56c.68945,0,1.25,.56055,1.25,1.25V56c0,.68945-.56055,1.25-1.25,1.25H12.01367Z"/><path d="M47.74316,36.41943l-.89648-1.20312c-2.66211,1.9834-5.60449,5.8584-7.72656,8.96826,1.02539-3.42773,2.6123-7.14307,2.63477-7.19629l-1.37891-.59131c-.07629,.17871-1.12903,2.64551-2.07788,5.43848-2.3186,2.27234-4.94214,4.08142-5.57837,3.79688-.17773-.07861-.19824-.15479-.21094-.20068-.24316-.90771,1.75-3.63184,2.60156-4.79541,.21973-.30029,.18555-.7168-.08008-.97754-.26562-.26221-.68359-.2876-.97852-.06299-6.10156,4.62891-13.60449,8.74268-15.26562,7.43799-.30469-1.28125,3.24512-7.89355,5.37598-11.86279,1.84766-3.44189,3.44434-6.41504,3.79883-7.78076l-1.45117-.37695c-.31055,1.19141-1.94141,4.23096-3.66895,7.44824-4.91602,9.15674-6.35059,12.40527-5.14062,13.61426,.19824,.1875,.75391,.57422,1.9541,.57422,1.92969,0,5.52441-1.00146,11.97559-5.4458-.51562,1.00293-.76465,1.88916-.56934,2.61621,.09961,.37256,.36426,.88086,1.05566,1.18506,1.32642,.58362,3.53979-.87134,5.3103-2.34814-.32922,1.20996-.57275,2.35999-.64038,3.28857-.02539,.34424,.18848,.66113,.5166,.76758,.07617,.0249,.1543,.03662,.23145,.03662,.25488,0,.49805-.12988,.6377-.35547,1.67188-2.70215,5.9502-9.27783,9.57129-11.9751Z"/><path d="M51.1582,42.75098c-1.25781,1.10938-4.59766,4.06543-5.48438,3.29102-.56348-.57422-.72168-1.30078-.47363-2.16895,1.81543,.4834,3.80762-1.19971,4.38379-1.73828,.4707-.44043,1.98438-1.97607,1.66895-3.22607-.11816-.46973-.47559-.81592-.98145-.94971-1.69434-.44922-4.60156,1.85742-5.88379,4.06348-1.125,1.93555-1.04688,3.78369,.25684,5.10938,.40527,.35449,.86816,.50635,1.37012,.50635,1.87305,0,4.27539-2.12061,6.13672-3.7627,.4707-.41602,.87012-.77002,1.1543-.98291l-.90039-1.2002c-.30664,.22998-.73828,.60938-1.24707,1.05859Zm-1.38281-3.35059c-.1123,.38721-.67285,1.24219-1.68457,2.04248-.81641,.64502-1.62305,1.00977-2.20898,1.01416,1.17871-1.7959,3.14258-3.04883,3.89355-3.05664Z"/><path d="M56.45312,43.52148l1.46484,.31836c.79199-3.6416,6.65332-12.13818,6.71191-12.22363l-1.23242-.85352c-.24902,.3584-6.08984,8.82812-6.94434,12.75879Z"/><circle cx="36.86816" cy="34.81299" r="1"/><circle cx="56.01416" cy="48" r="1"/></svg>