<?xml version="1.0" encoding="UTF-8"?><svg id="a" xmlns="http://www.w3.org/2000/svg" viewBox="0 0 80 80"><path d="M16.61133,38.93262c-.27466,.25714-.5332,.52881-.7771,.81171-.11157,.12817-.20752,.26715-.3125,.40009-.12402,.15875-.25244,.31415-.36719,.47931-.151,.21576-.28516,.44122-.41943,.66736-.05408,.09192-.11157,.18158-.16284,.27496-.13379,.24207-.25354,.49048-.36768,.74261-.04102,.09052-.08179,.18054-.12036,.27216-.104,.24835-.19873,.49982-.28357,.75641-.0387,.11603-.07263,.23315-.1073,.35052-.06885,.23553-.13501,.47119-.1875,.7124-.03955,.17798-.06665,.35828-.09692,.53839-.03137,.19092-.0686,.37964-.08972,.5733-.04333,.38721-.06921,.77722-.06921,1.1698,0,.32526,.01978,.64679,.04895,.96619,.00916,.10132,.02209,.20129,.03406,.30176,.0271,.22467,.06128,.44714,.10229,.66791,.01904,.10303,.0365,.20636,.05859,.30835,.06384,.29456,.1366,.5863,.22473,.87231,.02234,.07269,.0509,.1424,.07471,.21442,.07385,.22235,.15344,.44214,.24133,.65826,.04419,.10822,.09131,.21442,.13879,.32086,.08362,.18738,.17297,.37158,.26697,.55347,.04834,.09326,.0946,.18732,.14563,.27899,.14526,.26129,.29895,.51752,.46545,.76532,.02832,.04199,.05994,.08118,.08875,.12274,.14734,.21265,.30225,.41962,.46472,.62103,.06042,.07489,.12292,.14764,.1853,.22089,.14478,.16974,.2948,.33453,.45007,.49506,.06409,.06628,.12659,.13361,.19238,.19818,.21448,.21051,.43542,.41479,.66785,.60712,.04321,.03571,.0896,.0672,.1333,.10223,.18884,.15112,.3822,.29681,.58179,.43536,.1123,.07825,.22803,.15137,.34326,.22528,.13232,.08423,.26587,.16602,.40234,.24469,.14136,.08191,.28296,.16223,.42822,.23773,.09985,.05164,.20288,.09833,.30469,.14697,.16113,.07733,.31934,.15961,.48486,.22894-.10986,.55402-.16528,1.11041-.16528,1.66052,0,4.7998,3.90479,8.70459,8.70459,8.70459,.21777,0,.44629-.01398,.68494-.03473,.13367-.0105,.26624-.02362,.39832-.0401l.02319-.00232-.00024-.00122c.13745-.01752,.27344-.03864,.40869-.0625,1.06604,2.44189,3.45508,4.05005,6.16675,4.05005,3.72217,0,6.75-3.02783,6.75-6.75v-7.25h11.43945l-2.71973,2.71973,1.06055,1.06055,4-4c.29297-.29297,.29297-.76758,0-1.06055l-4-4-1.06055,1.06055,2.71973,2.71973h-11.43945v-14.5h21.43945l-2.71973,2.71973,1.06055,1.06055,4-4c.29297-.29297,.29297-.76758,0-1.06055l-4-4-1.06055,1.06055,2.71973,2.71973h-21.43945v-14.5h11.43945l-2.71973,2.71973,1.06055,1.06055,4-4c.29297-.29297,.29297-.76758,0-1.06055l-4-4-1.06055,1.06055,2.71973,2.71973h-11.43945v-7.25c0-3.72217-3.02783-6.75-6.75-6.75-2.9043,0-5.49072,1.89844-6.40137,4.60449-.08472-.01038-.1709-.00806-.2561-.01575l.00073-.00818c-.23291-.021-.46777-.03516-.70703-.03516-4.27344,0-7.75,3.47656-7.75,7.75,0,1.02148,.20508,2.03564,.59814,2.97852-.01062,.00391-.0199,.01001-.03052,.01398-.40881,.1535-.80542,.33105-1.18262,.54169l-.01965,.01202c-.33875,.19031-.66003,.40631-.96887,.63873-.06201,.04657-.125,.09106-.18579,.13916-.29297,.23279-.57092,.48254-.83142,.75043-.06531,.06708-.12512,.138-.18835,.20715-.21143,.23175-.41028,.47406-.59595,.7276-.04968,.06781-.10303,.13214-.15063,.20135-.20947,.30377-.39648,.62305-.56653,.95294-.04407,.08551-.08386,.17236-.12512,.2594-.15015,.31659-.28467,.64136-.39648,.97742-.01245,.03796-.02905,.07391-.04102,.11212-.11694,.36871-.20251,.75018-.26965,1.13824-.01599,.09198-.02942,.18396-.04236,.27686-.05542,.39612-.09399,.79749-.09399,1.20862,0,.36279,.02979,.72089,.07373,1.07587,.0083,.06671,.01526,.13312,.02515,.19958,.05078,.34564,.12085,.6864,.2124,1.021,.01514,.05573,.03369,.11011,.04993,.16547,.09351,.31708,.20276,.62866,.33191,.93256,.01501,.03546,.02686,.07184,.04248,.10706,.1355,.3075,.29395,.60455,.46533,.89532,.02588,.04419,.04382,.0921,.07056,.13586l.00854-.00525c.18225,.29736,.37646,.58844,.59546,.86462-.37329,.2674-.72217,.55884-1.05298,.86597l-.00659-.00708Zm.61816,1.51617c.0592-.06274,.1189-.125,.18018-.18634,.52661-.52484,1.11841-.99615,1.77881-1.39233,.19678-.11768,.32861-.31885,.35791-.54639,.02979-.22705-.04639-.45557-.20605-.61963-.42456-.43622-.78052-.92053-1.07764-1.43463-.10669-.18506-.20544-.3739-.29468-.56696-.03394-.07288-.07031-.14459-.10156-.21857-.11182-.26471-.20947-.53491-.28857-.81091-.01501-.052-.02515-.10541-.03882-.15778-.06226-.23651-.11182-.47626-.14954-.71851-.01196-.0766-.02405-.15308-.03357-.23022-.03613-.29272-.06055-.58759-.06055-.88489,0-.37201,.03711-.73627,.09229-1.09503,.01001-.06494,.01807-.13037,.02979-.1947,.06213-.34161,.14819-.67548,.25732-.99988,.021-.06244,.04517-.12335,.06775-.18506,.12085-.32935,.25793-.65155,.42419-.95746,.00708-.01312,.01599-.02515,.02319-.03815,.16211-.29395,.34961-.57196,.55054-.83978,.04187-.05573,.08179-.11285,.12524-.1673,.20776-.26086,.43408-.50677,.67676-.73694,.04773-.04541,.09717-.08887,.14624-.133,.26343-.23645,.53967-.46008,.83765-.65668l.00732-.00439c.65771-.4328,1.39465-.76343,2.19189-.96576l.00098-.00055c.5686-.14471,1.16052-.22992,1.77344-.22992,2.22119,0,4.28467,1.00195,5.66162,2.74854l1.17773-.92871c-1.66309-2.10986-4.15576-3.31982-6.83936-3.31982-.52698,0-1.04053,.05487-1.54199,.14502-.36853-.81012-.57178-1.68781-.57178-2.57666,0-3.44629,2.80371-6.25,6.25-6.25,.45361,0,.90527,.04834,1.34326,.14453,.40527,.09033,.80469-.16797,.89258-.57178,.52441-2.38623,2.68066-4.11816,5.12793-4.11816,2.89502,0,5.25,2.35498,5.25,5.25v23.25h-6.93311c-3.23145,0-6.14551-1.91748-7.42334-4.88574l-1.37793,.59375c1.51562,3.51855,4.97021,5.79199,8.80127,5.79199h6.93311v23.25c0,2.89502-2.35498,5.25-5.25,5.25-2.03345,0-3.84058-1.15833-4.71094-2.94232,3.33911-1.21808,5.73389-4.41608,5.73389-8.17145h-1.5c0,3.66162-2.7478,6.68738-6.28857,7.13971v-.00055c-.30078,.03857-.60498,.06543-.91602,.06543-3.97266,0-7.20459-3.23193-7.20459-7.20459,0-.39197,.04602-.78845,.11414-1.18555,.8446,.21704,1.72449,.34473,2.63586,.34473,1.43262,0,2.82227-.28076,4.13135-.83398l-.58398-1.38184c-1.12305,.4751-2.31689,.71582-3.54736,.71582-1.05908,0-2.07227-.19092-3.01855-.5246-.5896-.20721-1.14514-.47382-1.66675-.78656-.09058-.05469-.18262-.10736-.27136-.16504-.1156-.07495-.22717-.15479-.33875-.23456-.11243-.08069-.22363-.16296-.33215-.24854-.09436-.07416-.18787-.14917-.27893-.22681-.12842-.10956-.25232-.22394-.37439-.34033-.06775-.06451-.13806-.12689-.20374-.19342-.1814-.18396-.35571-.37463-.52112-.5733-.04529-.05438-.08594-.11243-.12988-.16785-.12085-.15222-.2384-.30713-.34949-.46698-.05908-.08533-.11499-.17285-.17126-.26013-.08899-.13782-.17444-.27814-.25598-.42096-.0542-.09491-.10815-.19-.15894-.28687-.08057-.15363-.15479-.31104-.22668-.46967-.03906-.08618-.08179-.17047-.11829-.258-.0979-.23529-.18591-.47571-.26416-.72046-.02905-.0907-.05164-.1839-.07788-.2757-.04907-.17175-.09521-.3446-.13403-.52032-.02295-.10291-.04285-.20673-.06226-.31067-.03345-.18042-.06104-.36279-.08362-.54675-.01135-.09229-.02454-.1842-.03308-.27722-.02539-.27667-.04248-.55585-.04248-.83905,0-.36975,.02759-.73419,.07031-1.09454,.01221-.10205,.03113-.20227,.04663-.30341,.04053-.26489,.09058-.52692,.15369-.78479,.0249-.10229,.05103-.20416,.07947-.3053,.07715-.27344,.16748-.54181,.26953-.8053,.02686-.06964,.04968-.14093,.07837-.20984,.27722-.66626,.63501-1.29486,1.06384-1.87653,.05383-.07306,.11267-.14307,.16882-.21472,.17297-.22015,.35498-.4339,.54883-.63843Z"/><path d="M35.99121,46.75879v-1.5c-3.71729,0-6.74121,3.02393-6.74121,6.74121h1.5c0-2.89014,2.35107-5.24121,5.24121-5.24121Z"/><path d="M26.75195,42.01074h-1.5c0,2.896-2.35596,5.25195-5.25195,5.25195v1.5c3.72314,0,6.75195-3.02881,6.75195-6.75195Z"/><path d="M38.75098,15.98145h-1.5c0,2.89551-2.35547,5.25098-5.25098,5.25098v1.5c3.72266,0,6.75098-3.02832,6.75098-6.75098Z"/></svg>