<?xml version="1.0" encoding="UTF-8"?>
<svg id="art" xmlns="http://www.w3.org/2000/svg" viewBox="0 0 80 80">
  <defs>
    <style>
      .cls-1 {
        fill: #fff;
      }
    </style>
  </defs>
  <path class="cls-1" d="M53.58,37.04v-1.5c-1.68,0-3.04-1.36-3.04-3.04h-1.5c0,1.68-1.36,3.04-3.04,3.04v1.5c1.68,0,3.04,1.36,3.04,3.04h1.5c0-1.68,1.36-3.04,3.04-3.04ZM48.49,36.29c.52-.34.96-.78,1.3-1.3.34.52.78.96,1.3,1.3-.52.34-.96.78-1.3,1.3-.34-.52-.78-.96-1.3-1.3Z"/>
  <path class="cls-1" d="M56.44,36.71h-1.5c0,2.61-2.12,4.73-4.73,4.73v1.5c2.61,0,4.73,2.12,4.73,4.73h1.5c0-2.61,2.12-4.73,4.73-4.73v-1.5c-2.61,0-4.73-2.12-4.73-4.73ZM55.69,44.71c-.58-1.06-1.45-1.94-2.52-2.52,1.06-.58,1.94-1.45,2.52-2.52.58,1.06,1.45,1.94,2.52,2.52-1.06.58-1.94,1.45-2.52,2.52Z"/>
  <path class="cls-1" d="M23.88,40.08h1.5c0-1.68,1.36-3.04,3.04-3.04v-1.5c-1.68,0-3.04-1.36-3.04-3.04h-1.5c0,1.68-1.36,3.04-3.04,3.04v1.5c1.68,0,3.04,1.36,3.04,3.04ZM24.62,34.99c.34.52.78.96,1.3,1.3-.52.34-.96.78-1.3,1.3-.34-.52-.78-.96-1.3-1.3.52-.34.96-.78,1.3-1.3Z"/>
  <path class="cls-1" d="M36,41.44c-2.61,0-4.73-2.12-4.73-4.73h-1.5c0,2.61-2.12,4.73-4.73,4.73v1.5c2.61,0,4.73,2.12,4.73,4.73h1.5c0-2.61,2.12-4.73,4.73-4.73v-1.5ZM30.52,44.71c-.58-1.06-1.45-1.94-2.52-2.52,1.06-.58,1.94-1.45,2.52-2.52.58,1.06,1.45,1.94,2.52,2.52-1.06.58-1.94,1.45-2.52,2.52Z"/>
  <path class="cls-1" d="M25.12,48c-3.94,0-7.14-3.2-7.14-7.14,0-.41-.34-.75-.75-.75s-.75.34-.75.75c0,4.77,3.88,8.64,8.64,8.64.41,0,.75-.34.75-.75s-.34-.75-.75-.75Z"/>
  <path class="cls-1" d="M70.33,30.58h-3.82v-4.58c0-.41-.34-.75-.75-.75H13.98c-.41,0-.75.34-.75.75v4.58h-3.56c-.41,0-.75.34-.75.75v8.67c0,.41.34.75.75.75h3.56v.22c0,6.5,5.29,11.78,11.78,11.78h8.48c.08,0,.16-.01.24-.04l2.04-.68c2.73-.91,5.73-.91,8.46,0l2.04.68c.08.03.16.04.24.04h8.23c6.5,0,11.78-5.29,11.78-11.78v-.22h3.82c.41,0,.75-.34.75-.75v-8.67c0-.41-.34-.75-.75-.75ZM65.01,28.96H14.73v-2.21h50.28v2.21ZM10.42,39.25v-7.17h2.81v7.17h-2.81ZM65.01,40.97c0,5.67-4.61,10.28-10.28,10.28h-8.11l-1.92-.64c-3.03-1.01-6.37-1.01-9.4,0l-1.92.64h-8.36c-5.67,0-10.28-4.61-10.28-10.28v-.87s.02-.06.02-.09-.01-.06-.02-.09v-8.48s.02-.06.02-.09-.01-.06-.02-.09v-.78h50.28v10.5ZM69.58,39.25h-3.07v-7.17h3.07v7.17Z"/>
  <path class="cls-1" d="M44.7,47.68c-3.03-1.01-6.37-1.01-9.4,0-.39.13-.61.56-.47.95s.55.6.95.47c2.73-.91,5.73-.91,8.46,0,.08.03.16.04.24.04.31,0,.61-.2.71-.51.13-.39-.08-.82-.47-.95Z"/>
</svg>