<?xml version="1.0" encoding="UTF-8"?><svg id="a" xmlns="http://www.w3.org/2000/svg" viewBox="0 0 80 80"><polygon points="33.25 38.06543 33.25 42 34.75 42 34.75 40.7832 55.25 40.7832 55.25 42 56.75 42 56.75 38.06543 55.25 38.06543 55.25 39.2832 34.75 39.2832 34.75 38.06543 33.25 38.06543"/><path d="M25.75,19c0-3.1709-2.57959-5.75-5.75-5.75s-5.75,2.5791-5.75,5.75,2.57959,5.75,5.75,5.75,5.75-2.5791,5.75-5.75Zm-10,0c0-2.34375,1.90674-4.25,4.25-4.25s4.25,1.90625,4.25,4.25-1.90674,4.25-4.25,4.25-4.25-1.90625-4.25-4.25Z"/><rect x="19.25" y="52" width="1.5" height="18"/><path d="M9.25,32v16c0,1.5166,1.2334,2.75,2.75,2.75h1.25v19.25h1.5v-20c0-.41406-.33594-.75-.75-.75h-2c-.68945,0-1.25-.56055-1.25-1.25v-16c0-1.79199,1.45801-3.25,3.25-3.25h12c1.79199,0,3.25,1.45801,3.25,3.25v16c0,.68945-.56055,1.25-1.25,1.25h-2c-.41406,0-.75,.33594-.75,.75v20h1.5v-19.25h1.25c1.5166,0,2.75-1.2334,2.75-2.75v-16c0-2.61914-2.13086-4.75-4.75-4.75H14c-2.61914,0-4.75,2.13086-4.75,4.75Z"/><path d="M67.75,28c0-1.5166-1.2334-2.75-2.75-2.75s-2.75,1.2334-2.75,2.75,1.2334,2.75,2.75,2.75,2.75-1.2334,2.75-2.75Zm-4,0c0-.68945,.56055-1.25,1.25-1.25s1.25,.56055,1.25,1.25-.56055,1.25-1.25,1.25-1.25-.56055-1.25-1.25Z"/><path d="M68,33.25h-6c-1.5166,0-2.75,1.2334-2.75,2.75v7c0,.96484,.78516,1.75,1.75,1.75h.25v9.25h1.5v-10c0-.41406-.33594-.75-.75-.75h-1c-.1377,0-.25-.1123-.25-.25v-7c0-.68945,.56055-1.25,1.25-1.25h6c.68945,0,1.25,.56055,1.25,1.25v7c0,.1377-.1123,.25-.25,.25h-1c-.41406,0-.75,.33594-.75,.75v10h1.5v-9.25h.25c.96484,0,1.75-.78516,1.75-1.75v-7c0-1.5166-1.2334-2.75-2.75-2.75Z"/></svg>