<svg id="DO_NOT_TOUCH_Outlines_" data-name="DO NOT TOUCH (Outlines)" xmlns="http://www.w3.org/2000/svg" viewBox="0 0 80 80"><path d="M28.75,38A5.26,5.26,0,0,1,34,32.75H46A5.26,5.26,0,0,1,51.25,38V48h1.5V38A6.76,6.76,0,0,0,46,31.25H34A6.76,6.76,0,0,0,27.25,38V48h1.5Z"/><path d="M39.42,28.73l.59,0a8.65,8.65,0,0,0,6-2.37,8.75,8.75,0,0,0,2.73-5.63H54v-1.5H48.71a8.75,8.75,0,0,0-17.46.48V20h0A8.91,8.91,0,0,0,39.42,28.73ZM45,25.29a7.17,7.17,0,0,1-5.44,1.94,7.35,7.35,0,0,1-6.7-6.48H47.21A7.14,7.14,0,0,1,45,25.29ZM40,12.75a7.26,7.26,0,0,1,7.21,6.5H32.79A7.26,7.26,0,0,1,40,12.75Z"/><path d="M66.75,65.25V60.63a2.75,2.75,0,1,0-1.5,0v4.62h-4.5V60a.76.76,0,0,0-.75-.75H52.75V52a.76.76,0,0,0-.75-.75H44a.76.76,0,0,0-.75.75V65.25h-6.5V58.67a4.75,4.75,0,1,0-1.5,0v6.58h-4.5V60a.75.75,0,0,0-.42-.67l-4-2a.7.7,0,0,0-.66,0l-4,2a.75.75,0,0,0-.42.67v5.25h-2.5V60a.75.75,0,0,0-.42-.67l-4-2a.7.7,0,0,0-.66,0l-4,2a.75.75,0,0,0-.42.67v6h1.5V60.46L14,58.84l3.25,1.62V66a.76.76,0,0,0,.75.75h4a.76.76,0,0,0,.75-.75V60.46L26,58.84l3.25,1.62V66a.76.76,0,0,0,.75.75H44a.76.76,0,0,0,.75-.75V52.75h6.5V60a.76.76,0,0,0,.75.75h7.25V66a.76.76,0,0,0,.75.75H72v-1.5ZM32.75,54A3.25,3.25,0,1,1,36,57.25,3.26,3.26,0,0,1,32.75,54Zm32,4A1.25,1.25,0,1,1,66,59.25,1.25,1.25,0,0,1,64.75,58Z"/><path d="M10.75,43A4.26,4.26,0,0,1,15,38.75h9v-1.5H15A5.76,5.76,0,0,0,9.25,43v5h1.5Z"/><path d="M56,37.25v1.5h9A4.26,4.26,0,0,1,69.25,43v5h1.5V43A5.76,5.76,0,0,0,65,37.25Z"/><path d="M64.38,43.08a1,1,0,0,0-1.09.21A1.05,1.05,0,0,0,63,44a1.36,1.36,0,0,0,0,.2.64.64,0,0,0,.06.18.76.76,0,0,0,.09.18,1.58,1.58,0,0,0,.12.15A1.05,1.05,0,0,0,64,45a1,1,0,0,0,.38-.08,1.15,1.15,0,0,0,.33-.21A1,1,0,0,0,65,44a1,1,0,0,0-.08-.38.93.93,0,0,0-.21-.33A1.15,1.15,0,0,0,64.38,43.08Z"/><path d="M54,34.75a2.76,2.76,0,0,0,2.64-2,5.73,5.73,0,0,0,8.72,0,2.76,2.76,0,0,0,2.64,2v-1.5A1.25,1.25,0,0,1,66.75,32V29a5.77,5.77,0,0,0-.47-2.28,2.74,2.74,0,1,0-3-3,5.75,5.75,0,0,0-8,5.28v3A1.25,1.25,0,0,1,54,33.25Zm12-12A1.25,1.25,0,1,1,64.75,24,1.25,1.25,0,0,1,66,22.75Zm-5,2A4.25,4.25,0,1,1,56.75,29,4.26,4.26,0,0,1,61,24.75Z"/><path d="M13,28.75h.25V29a5.75,5.75,0,0,0,11.5,0v-.25H25a.75.75,0,0,0,.75-.75V26a6.75,6.75,0,0,0-13.5,0v2A.76.76,0,0,0,13,28.75ZM23.25,29a4.25,4.25,0,0,1-8.5,0v-.25h8.5Zm-9.5-3a5.23,5.23,0,0,1,4.5-5.17v2.92h1.5V20.83A5.23,5.23,0,0,1,24.25,26v1.25H13.75Z"/></svg>