<?xml version="1.0" encoding="UTF-8"?><svg id="a" xmlns="http://www.w3.org/2000/svg" viewBox="0 0 80 80"><path d="M60.80664,45.23413V26.78613c5.23926-.27637,8-3.2998,8-8.78613,0-.4458-.36133-.80664-.80664-.80664-5.76172,0-8.80664,3.04541-8.80664,8.80664v2.18115c-1.45215-1.9668-3.86694-2.98779-7.19336-2.98779-.44531,0-.80664,.36084-.80664,.80664,0,5.48413,2.76465,8.50122,8,8.7793v10.45483c-4.21313,.38501-7.57422,3.74634-7.95923,7.95923h-10.42749v-13.19336c0-1.76074,1.43262-3.19336,3.19336-3.19336v-1.61328c-2.65039,0-4.80664,2.15625-4.80664,4.80664v2.43457c-.85107-.76318-1.96313-1.24121-3.19336-1.24121v1.61328c1.76074,0,3.19336,1.43262,3.19336,3.19336v7.19336h-11.19336c-.44531,0-.80664,.36084-.80664,.80664,0,3.96631-3.22656,7.19336-7.19336,7.19336s-7.19336-3.22705-7.19336-7.19336c0-.4458-.36133-.80664-.80664-.80664h-4v1.61328h3.22949c.40918,4.47949,4.18652,8,8.77051,8s8.36133-3.52051,8.77051-8h43.22949v-1.61328h-3.23413c-.38501-4.21289-3.74609-7.57422-7.95923-7.95923Zm6.36328-26.40405c-.23633,4.06787-2.27148,6.104-6.33984,6.33984,.23633-4.06787,2.27148-6.104,6.33984-6.33984Zm-14.33984,8c4.06836,.23584,6.10352,2.27197,6.33984,6.33984-4.06836-.23584-6.10352-2.27197-6.33984-6.33984Zm.0249,26.36328c.40259-3.58765,3.45117-6.38672,7.14502-6.38672s6.74243,2.79907,7.14502,6.38672h-14.29004Z"/><path d="M21.19336,54c0,.4458,.36133,.80664,.80664,.80664,3.09961,0,4.80664-1.70703,4.80664-4.80664,0-.4458-.36133-.80664-.80664-.80664-3.09961,0-4.80664,1.70703-4.80664,4.80664Zm1.67383-.86719c.20312-1.33594,.92969-2.06201,2.26562-2.26562-.20312,1.33594-.92969,2.06201-2.26562,2.26562Z"/><path d="M16,53.19336c-.44531,0-.80664,.36084-.80664,.80664,0,3.09961,1.70703,4.80664,4.80664,4.80664,.44531,0,.80664-.36084,.80664-.80664,0-3.09961-1.70703-4.80664-4.80664-4.80664Zm.86719,1.67383c1.33594,.20361,2.0625,.92969,2.26562,2.26562-1.33594-.20361-2.0625-.92969-2.26562-2.26562Z"/><path d="M16,45.19336c-.44531,0-.80664,.36084-.80664,.80664,0,3.09961,1.70703,4.80664,4.80664,4.80664,.44531,0,.80664-.36084,.80664-.80664,0-3.09961-1.70703-4.80664-4.80664-4.80664Zm.86719,1.67383c1.33594,.20361,2.0625,.92969,2.26562,2.26562-1.33594-.20361-2.0625-.92969-2.26562-2.26562Z"/></svg>