<?xml version="1.0" encoding="UTF-8"?>
<svg id="DO_NOT_TOUCH_Outlines_" data-name="DO NOT TOUCH (Outlines)" xmlns="http://www.w3.org/2000/svg" viewBox="0 0 80 80">
  <path d="m29.51,51.09c-3.07-2.91-4.76-6.84-4.76-11.07,0-8.42,6.85-15.26,15.26-15.26s15.26,6.85,15.26,15.26c0,4.24-1.69,8.17-4.77,11.08l1.03,1.09c3.38-3.2,5.24-7.52,5.24-12.17,0-9.24-7.52-16.76-16.76-16.76s-16.76,7.52-16.76,16.76c0,4.64,1.86,8.96,5.22,12.16l1.03-1.09Z"/>
  <path d="m68.01,29.25h-10.01v1.5h10.01c.69,0,1.25.56,1.25,1.25v27.25H10.76v-27.25c0-.69.56-1.25,1.25-1.25h9.99v-1.5h-9.99c-1.52,0-2.75,1.23-2.75,2.75v32c0,1.52,1.23,2.75,2.75,2.75h27.25v2.5h-13.25v1.5h28v-1.5h-13.25v-2.5h27.25c1.52,0,2.75-1.23,2.75-2.75v-32c0-1.52-1.23-2.75-2.75-2.75Zm1.25,34.75c0,.69-.56,1.25-1.25,1.25H12.01c-.69,0-1.25-.56-1.25-1.25v-3.25h58.5v3.25Z"/>
  <path d="m42.75,36c0-1.52-1.23-2.75-2.75-2.75s-2.75,1.23-2.75,2.75,1.23,2.75,2.75,2.75,2.75-1.23,2.75-2.75Zm-2.75,1.25c-.69,0-1.25-.56-1.25-1.25s.56-1.25,1.25-1.25,1.25.56,1.25,1.25-.56,1.25-1.25,1.25Z"/>
  <rect x="39.25" y="42" width="1.5" height="14"/>
  <path d="m50,22.75h5.25v3.25c0,.3.18.58.46.69.09.04.19.06.29.06.2,0,.39-.08.53-.22l3.78-3.78h5.69c1.52,0,2.75-1.23,2.75-2.75v-8c0-1.52-1.23-2.75-2.75-2.75h-16c-1.52,0-2.75,1.23-2.75,2.75v8c0,1.52,1.23,2.75,2.75,2.75Zm-1.25-10.75c0-.69.56-1.25,1.25-1.25h16c.69,0,1.25.56,1.25,1.25v8c0,.69-.56,1.25-1.25,1.25h-6c-.2,0-.39.08-.53.22l-2.72,2.72v-2.19c0-.41-.34-.75-.75-.75h-6c-.69,0-1.25-.56-1.25-1.25v-8Z"/>
</svg>