<?xml version="1.0" encoding="UTF-8"?><svg id="a" xmlns="http://www.w3.org/2000/svg" viewBox="0 0 80 80"><path d="M26.53027,54.09717c-.29297-.29297-.76758-.29297-1.06055,0s-.29297,.76758,0,1.06055l1.05469,1.05469c.14648,.14648,.33838,.21973,.53027,.21973s.38379-.07324,.53027-.21973c.29297-.29297,.29297-.76758,0-1.06055l-1.05469-1.05469Z"/><path d="M27.95947,49.86963c-.29297-.29297-.76758-.29297-1.06055,0s-.29297,.76758,0,1.06055l2.4541,2.4541c.14648,.14648,.33838,.21973,.53027,.21973s.38379-.07324,.53027-.21973c.29297-.29297,.29297-.76758,0-1.06055l-2.4541-2.4541Z"/><path d="M28.84082,45.09375c-.29297-.29297-.76758-.29297-1.06055,0s-.29297,.76758,0,1.06055l5.41309,5.41309c.14648,.14648,.33838,.21973,.53027,.21973s.38379-.07324,.53027-.21973c.29297-.29297,.29297-.76758,0-1.06055l-5.41309-5.41309Z"/><path d="M33.61621,44.21289c-.29297-.29297-.76758-.29297-1.06055,0s-.29297,.76758,0,1.06055l2.4541,2.45361c.14648,.14648,.33838,.21973,.53027,.21973s.38379-.07324,.53027-.21973c.29297-.29297,.29297-.76758,0-1.06055l-2.4541-2.45361Z"/><path d="M37.84717,42.78662c-.29297-.29297-.76758-.29297-1.06055,0s-.29297,.76758,0,1.06055l1.05176,1.05176c.14648,.14648,.33838,.21973,.53027,.21973s.38379-.07324,.53027-.21973c.29297-.29297,.29297-.76758,0-1.06055l-1.05176-1.05176Z"/><path d="M39.27344,38.55566c-.29297-.29297-.76758-.29297-1.06055,0s-.29297,.76758,0,1.06055l2.45361,2.4541c.14648,.14648,.33838,.21973,.53027,.21973s.38379-.07324,.53027-.21973c.29297-.29297,.29297-.76758,0-1.06055l-2.45361-2.4541Z"/><path d="M40.1543,33.78027c-.29297-.29297-.76758-.29297-1.06055,0s-.29297,.76758,0,1.06055l5.41309,5.41309c.14648,.14648,.33838,.21973,.53027,.21973s.38379-.07324,.53027-.21973c.29297-.29297,.29297-.76758,0-1.06055l-5.41309-5.41309Z"/><path d="M44.93018,32.89893c-.29297-.29297-.76758-.29297-1.06055,0s-.29297,.76758,0,1.06055l2.4541,2.4541c.14648,.14648,.33838,.21973,.53027,.21973s.38379-.07324,.53027-.21973c.29297-.29297,.29297-.76758,0-1.06055l-2.4541-2.4541Z"/><path d="M49.15771,31.46973c-.29297-.29297-.76758-.29297-1.06055,0s-.29297,.76758,0,1.06055l1.05469,1.05469c.14648,.14648,.33838,.21973,.53027,.21973s.38379-.07324,.53027-.21973c.29297-.29297,.29297-.76758,0-1.06055l-1.05469-1.05469Z"/><path d="M54.05566,22.05566c-.51953,.51904-.80566,1.20947-.80566,1.94434s.28613,1.42529,.80566,1.94434c.51904,.51953,1.20947,.80566,1.94434,.80566s1.42529-.28613,1.94434-.80566c.51953-.51904,.80566-1.20947,.80566-1.94434,0-.73438-.28613-1.4248-.80566-1.94434-1.03906-1.03955-2.85059-1.03857-3.88867,0Zm2.82812,2.82812c-.47266,.47266-1.29492,.47266-1.76758,0-.23633-.23633-.36621-.5498-.36621-.88379s.12988-.64746,.36621-.88379,.5498-.36621,.88379-.36621,.64746,.12988,.88379,.36621,.36621,.5498,.36621,.88379-.12988,.64746-.36621,.88379Z"/><path d="M67.76611,24.70557l-12.47168-12.47168c-1.81641-1.81641-4.77246-1.81641-6.58887,0L12.23389,48.70557c-1.81641,1.81641-1.81641,4.77246,0,6.58887l12.47168,12.47168c.9082,.9082,2.10156,1.3623,3.29443,1.3623s2.38623-.4541,3.29443-1.3623L67.76611,31.29443c1.81641-1.81641,1.81641-4.77246,0-6.58887Zm-1.06055,5.52832L30.23389,66.70557c-1.19336,1.19336-3.27441,1.19336-4.46777,0l-12.47168-12.47168c-.59668-.59668-.92529-1.39014-.92529-2.23389s.32861-1.63721,.92529-2.23389L49.76611,13.29443c.59668-.59668,1.39014-.92529,2.23389-.92529s1.63721,.32861,2.23389,.92529l12.47168,12.47168c.59668,.59668,.92529,1.39014,.92529,2.23389s-.32861,1.63721-.92529,2.23389Z"/></svg>