<?xml version="1.0" encoding="UTF-8"?><svg id="a" xmlns="http://www.w3.org/2000/svg" viewBox="0 0 80 80"><path d="M40,10.75c7.72046,0,15.15161,3.08252,20.61108,8.5h-6.61108v1.5h8c.41406,0,.75-.33594,.75-.75V12h-1.5v5.78711c-5.69775-5.44434-13.32666-8.53711-21.25-8.53711-16.95605,0-30.75,13.79395-30.75,30.75,0,4.91504,1.18848,9.80371,3.43555,14.1377l1.33203-.69141c-2.1377-4.12109-3.26758-8.77051-3.26758-13.44629,0-16.12891,13.12109-29.25,29.25-29.25Z"/><path d="M67.31445,25.8623l-1.33203,.69141c2.1377,4.12109,3.26758,8.77051,3.26758,13.44629,0,16.12891-13.12109,29.25-29.25,29.25-7.71069,0-15.14844-3.08569-20.60645-8.5h6.60645v-1.5h-8c-.41406,0-.75,.33594-.75,.75v8h1.5v-5.78271c5.69775,5.44092,13.3374,8.53271,21.25,8.53271,16.95605,0,30.75-13.79395,30.75-30.75,0-4.91504-1.18848-9.80371-3.43555-14.1377Z"/></svg>