<?xml version="1.0" encoding="UTF-8"?><svg id="a" xmlns="http://www.w3.org/2000/svg" viewBox="0 0 80 80"><path d="M70.75,39.33301v-12c0-1.5166-1.2334-2.75-2.75-2.75-.45239,0-.87329,.12012-1.25,.31445v-7.56396c0-1.51611-1.2334-2.75-2.75-2.75-.53101,0-1.02295,.1582-1.44385,.41992-.40063-1.02368-1.39209-1.75342-2.55615-1.75342s-2.15552,.72974-2.55615,1.75342c-.4209-.26172-.91284-.41992-1.44385-.41992-1.5166,0-2.75,1.23389-2.75,2.75v1.56445c-.37671-.19434-.79761-.31445-1.25-.31445-1.5166,0-2.75,1.2334-2.75,2.74951v18c0,2.36426,1.73633,4.33008,4,4.69043v5.22656h-5.25c-.79004,0-1.49805,.33936-2,.87451-.50195-.53516-1.20996-.87451-2-.87451h-1.25v-1.25c0-.79004-.33936-1.49805-.87451-2,.53516-.50195,.87451-1.20996,.87451-2v-2c0-.79004-.33936-1.49805-.87451-2,.53516-.50195,.87451-1.20996,.87451-2v-2c0-.79004-.33936-1.49805-.87451-2,.53516-.50195,.87451-1.20996,.87451-2v-2c0-.79004-.33936-1.49805-.87451-2,.53516-.50195,.87451-1.20996,.87451-2v-2c0-1.2876-.89258-2.36279-2.08936-2.66064-.29785-1.19678-1.37305-2.08936-2.66064-2.08936h-2c-.79004,0-1.49805,.33936-2,.87451-.50195-.53516-1.20996-.87451-2-.87451h-2c-.79004,0-1.49805,.33936-2,.87451-.50195-.53516-1.20996-.87451-2-.87451h-2c-1.2876,0-2.36279,.89258-2.66064,2.08936-1.19678,.29785-2.08936,1.37305-2.08936,2.66064v2c0,.79004,.33936,1.49805,.87451,2-.53516,.50195-.87451,1.20996-.87451,2v2c0,.79004,.33936,1.49805,.87451,2-.53516,.50195-.87451,1.20996-.87451,2v1.25h-1.25c-.41406,0-.75,.33594-.75,.75v4.17725c-4.68262,1.88843-8,6.47192-8,11.82275,0,7.03027,5.71973,12.75,12.75,12.75s12.75-5.71973,12.75-12.75c0-5.35083-3.31738-9.93433-8-11.82275v-4.17725c0-.41406-.33594-.75-.75-.75h-1.25v-1.25c0-.79004-.33936-1.49805-.87451-2,.53516-.50195,.87451-1.20996,.87451-2v-2c0-.79004-.33936-1.49805-.87451-2,.53516-.50195,.87451-1.20996,.87451-2v-1.25h1.25c.79004,0,1.49805-.33936,2-.87451,.50195,.53516,1.20996,.87451,2,.87451h2c.79004,0,1.49805-.33936,2-.87451,.50195,.53516,1.20996,.87451,2,.87451h1.25v1.25c0,.79004,.33936,1.49805,.87451,2-.53516,.50195-.87451,1.20996-.87451,2v2c0,.79004,.33936,1.49805,.87451,2-.53516,.50195-.87451,1.20996-.87451,2v2c0,.79004,.33936,1.49805,.87451,2-.53516,.50195-.87451,1.20996-.87451,2v2c0,.79004,.33936,1.49805,.87451,2-.53516,.50195-.87451,1.20996-.87451,2v2c0,1.2876,.89258,2.36279,2.08936,2.66064,.29785,1.19678,1.37305,2.08936,2.66064,2.08936h2c.79004,0,1.49805-.33936,2-.87451,.50195,.53516,1.20996,.87451,2,.87451h1.25v3.25c0,.41406,.33594,.75,.75,.75h3.25v7.25h1.5v-7.25h10.5v7.25h1.5v-7.25h3.25c.41406,0,.75-.33594,.75-.75v-8c0-.41406-.33594-.75-.75-.75h-3.25v-5.22656c2.26367-.36035,4-2.32617,4-4.69043Zm-37.5,14.66699c0,6.20312-5.04688,11.25-11.25,11.25s-11.25-5.04688-11.25-11.25,5.04688-11.25,11.25-11.25,11.25,5.04688,11.25,11.25Zm-8-12.31421c-1.03955-.2749-2.12524-.43579-3.25-.43579s-2.21045,.16089-3.25,.43579v-2.93579h6.5v2.93579Zm-2-5.68579v1.25h-2.5v-1.25c0-.68945,.56055-1.25,1.25-1.25s1.25,.56055,1.25,1.25Zm0-6v2c0,.68945-.56055,1.25-1.25,1.25s-1.25-.56055-1.25-1.25v-2c0-.68945,.56055-1.25,1.25-1.25s1.25,.56055,1.25,1.25Zm-2.5-4v-2c0-.68945,.56055-1.25,1.25-1.25s1.25,.56055,1.25,1.25v2c0,.68945-.56055,1.25-1.25,1.25s-1.25-.56055-1.25-1.25Zm5.25-2.75h-1.36719c-.24438-.85571-.88672-1.53662-1.71973-1.83228,.21143-.3916,.61133-.66772,1.08691-.66772h2c.68945,0,1.25,.56055,1.25,1.25s-.56055,1.25-1.25,1.25Zm6,0h-2c-.68945,0-1.25-.56055-1.25-1.25s.56055-1.25,1.25-1.25h2c.68945,0,1.25,.56055,1.25,1.25s-.56055,1.25-1.25,1.25Zm2.75-1.25c0-.68945,.56055-1.25,1.25-1.25h2c.68945,0,1.25,.56055,1.25,1.25s-.56055,1.25-1.25,1.25h-2c-.68945,0-1.25-.56055-1.25-1.25Zm4,4v-1.36719c.85571-.24438,1.53662-.88672,1.83228-1.71973,.3916,.21143,.66772,.61133,.66772,1.08691v2c0,.68945-.56055,1.25-1.25,1.25s-1.25-.56055-1.25-1.25Zm0,6v-2c0-.68945,.56055-1.25,1.25-1.25s1.25,.56055,1.25,1.25v2c0,.68945-.56055,1.25-1.25,1.25s-1.25-.56055-1.25-1.25Zm0,6v-2c0-.68945,.56055-1.25,1.25-1.25s1.25,.56055,1.25,1.25v2c0,.68945-.56055,1.25-1.25,1.25s-1.25-.56055-1.25-1.25Zm0,6v-2c0-.68945,.56055-1.25,1.25-1.25s1.25,.56055,1.25,1.25v2c0,.68945-.56055,1.25-1.25,1.25s-1.25-.56055-1.25-1.25Zm0,6v-2c0-.68945,.56055-1.25,1.25-1.25s1.25,.56055,1.25,1.25v2c0,.68945-.56055,1.25-1.25,1.25s-1.25-.56055-1.25-1.25Zm5.25,3.25h-2c-.47534,0-.87549-.27637-1.08691-.66772,.83301-.29565,1.47534-.97656,1.71973-1.83228h1.36719c.68945,0,1.25,.56055,1.25,1.25s-.56055,1.25-1.25,1.25Zm4,0c-.68945,0-1.25-.56055-1.25-1.25s.56055-1.25,1.25-1.25h1.25v2.5h-1.25Zm21.25,4h-18.5v-6.5h18.5v6.5Zm-14.5-8v-5.91699c0-.41406-.33594-.75-.75-.75-1.79199,0-3.25-1.45801-3.25-3.25V21.33301c0-.68896,.56055-1.24951,1.25-1.24951s1.25,.56055,1.25,1.24951v7.33398h1.5v-11.3335c0-.68945,.56055-1.25,1.25-1.25s1.25,.56055,1.25,1.25v11.3335h1.5v-12.66699c0-.68945,.56055-1.25,1.25-1.25s1.25,.56055,1.25,1.25v12.66699h1.5v-11.3335c0-.68945,.56055-1.25,1.25-1.25s1.25,.56055,1.25,1.25v15.99951h1.5v-6c0-.68945,.56055-1.25,1.25-1.25s1.25,.56055,1.25,1.25v12c0,1.79199-1.45801,3.25-3.25,3.25-.41406,0-.75,.33594-.75,.75v5.91699h-10.5Z"/><path d="M21.25,46v1.32593c-1.70947,.34863-3,1.86353-3,3.67407,0,2.06738,1.68262,3.75,3.75,3.75,1.24023,0,2.25,1.00977,2.25,2.25s-1.00977,2.25-2.25,2.25-2.25-1.00977-2.25-2.25h-1.5c0,1.81055,1.29053,3.32544,3,3.67407v1.32593h1.5v-1.32593c1.70947-.34863,3-1.86353,3-3.67407,0-2.06738-1.68262-3.75-3.75-3.75-1.24023,0-2.25-1.00977-2.25-2.25s1.00977-2.25,2.25-2.25,2.25,1.00977,2.25,2.25h1.5c0-1.81055-1.29053-3.32544-3-3.67407v-1.32593h-1.5Z"/></svg>