<svg xmlns="http://www.w3.org/2000/svg" viewBox="0 0 80 80"><polygon points="68.75 8 67.25 8 67.25 11.25 64 11.25 64 12.75 67.25 12.75 67.25 16 68.75 16 68.75 12.75 72 12.75 72 11.25 68.75 11.25 68.75 8"/><path d="M54.44434,29.25H50v1.5h4.44434a6.30567,6.30567,0,0,0,0-12.61133,6.14621,6.14621,0,0,0-2.80762.67676,11.85329,11.85329,0,0,0-22.48828-2.4668A7.30371,7.30371,0,0,0,26.667,15.9165a7.41559,7.41559,0,0,0-.64453,14.80323l3.97168.03027.01172-1.5-3.90625-.02686a5.91626,5.91626,0,1,1,3.13574-11.21289.74908.74908,0,0,0,1.03125-.41992,10.35182,10.35182,0,0,1,20.04492,2.54785.75052.75052,0,0,0,1.207.523,4.74342,4.74342,0,0,1,2.92579-1.02246,4.80567,4.80567,0,0,1,0,9.61133Z"/><path d="M32,69.25H28.75v-8.5H34A4.7554,4.7554,0,0,0,38.75,56V40.75h2.5V56A4.7554,4.7554,0,0,0,46,60.75h5.25V65A1.75213,1.75213,0,0,0,53,66.75H69A1.75213,1.75213,0,0,0,70.75,65V55A1.75213,1.75213,0,0,0,69,53.25H53A1.75213,1.75213,0,0,0,51.25,55v4.25H46A3.25377,3.25377,0,0,1,42.75,56V40.75H46a.7502.7502,0,0,0,.75-.75V30a.7502.7502,0,0,0-.75-.75H44.75V28a4.75,4.75,0,0,0-9.5,0v1.25H34a.7502.7502,0,0,0-.75.75V40a.7502.7502,0,0,0,.75.75h3.25V56A3.25377,3.25377,0,0,1,34,59.25H28.75v-6.5H30v-1.5H10v1.5h1.25v16.5H8v1.5H32ZM52.75,55a.25048.25048,0,0,1,.25-.25H69a.25048.25048,0,0,1,.25.25V65a.25048.25048,0,0,1-.25.25H53a.25048.25048,0,0,1-.25-.25Zm-16-27a3.25,3.25,0,0,1,6.5,0v1.25h-6.5Zm-2,11.25v-8.5h10.5v8.5Zm-13.5,30h-2.5v-4.5h2.5Zm6,0h-4.5V64a.7502.7502,0,0,0-.75-.75H18a.7502.7502,0,0,0-.75.75v5.25h-4.5V52.75h14.5Z"/><rect x="50" y="68.25" width="22" height="1.5"/></svg>