<?xml version="1.0" encoding="UTF-8"?><svg id="a" xmlns="http://www.w3.org/2000/svg" viewBox="0 0 80 80"><path d="M40,56.75c9.23633,0,16.75-7.51416,16.75-16.75s-7.51367-16.75-16.75-16.75-16.75,7.51416-16.75,16.75,7.51367,16.75,16.75,16.75Zm.47388-16.1817c.16504-.13757,.27612-.33679,.27612-.5683v-15.21204c8.05981,.39484,14.5,7.05646,14.5,15.21204,0,8.40869-6.84082,15.25-15.25,15.25-4.43079,0-8.4137-1.91095-11.20239-4.93811l11.68286-9.73572-.00659-.00787Zm-1.22388-15.78033v14.46204h-14.46204c.38257-7.80914,6.65247-14.07947,14.46204-14.46204Zm-14.46204,15.96204h13.14014l-10.09167,8.40979c-1.78638-2.36603-2.89429-5.26117-3.04846-8.40979Z"/><path d="M61.25,17.78192c-5.74634-5.50806-13.2417-8.53192-21.25-8.53192-16.95605,0-30.75,13.79443-30.75,30.75,0,4.91455,1.18799,9.80273,3.43506,14.13721l1.33203-.69043c-2.16797-4.18066-3.26709-8.70508-3.26709-13.44678,0-16.12842,13.12109-29.25,29.25-29.25,7.80078,0,15.08887,3.01837,20.60278,8.5h-6.60278v1.5h8c.41406,0,.75-.33594,.75-.75V12h-1.5v5.78192Z"/><path d="M40,69.25c-7.80078,0-15.08887-3.01837-20.60278-8.5h6.60278v-1.5h-8c-.41406,0-.75,.33594-.75,.75v8h1.5v-5.78192c5.74634,5.50806,13.2417,8.53192,21.25,8.53192,16.95605,0,30.75-13.79443,30.75-30.75,0-4.91455-1.18848-9.80322-3.43555-14.13721l-1.33203,.69043c2.16797,4.18066,3.26758,8.70459,3.26758,13.44678,0,16.12842-13.12109,29.25-29.25,29.25Z"/></svg>