<svg id="DO_NOT_TOUCH_Outlines_" data-name="DO NOT TOUCH (Outlines)" xmlns="http://www.w3.org/2000/svg" viewBox="0 0 80 80"><path d="M70.64,59.61l-18-30a.75.75,0,0,0-.64-.36H10a.75.75,0,0,0-.65.38.74.74,0,0,0,0,.76l18,30a.75.75,0,0,0,.64.36H41.25V70a.75.75,0,0,0,1.5,0V60.75H70a.75.75,0,0,0,.65-.38A.74.74,0,0,0,70.64,59.61Zm-28.22-.36-5.09-8.5H49.58l5.09,8.5Zm-6-10-5.09-8.5H43.58l5.09,8.5Zm-19.1-8.5H29.58l5.09,8.5H22.42Zm13.1-1.5-5.09-8.5H37.58l5.09,8.5Zm14.91,1.5H57.58l5.1,8.5H50.42Zm11.35-1.5H44.42l-5.09-8.5H51.58Zm-33.1-8.5,5.09,8.5H16.42l-5.1-8.5Zm-.26,20H35.58l5.09,8.5H28.42Zm33.1,8.5-5.09-8.5H63.58l5.1,8.5Z"/><path d="M45.53,26.19,47,25.81A7.36,7.36,0,0,1,46.75,24a7.25,7.25,0,1,1,10.87,6.28l.76,1.3A8.75,8.75,0,1,0,45.25,24,8.54,8.54,0,0,0,45.53,26.19Z"/><rect x="53.25" y="8" width="1.5" height="6"/><rect x="44.06" y="11.81" width="1.5" height="6" transform="translate(2.65 36.02) rotate(-45)"/><rect x="62.44" y="30.19" width="1.5" height="6" transform="translate(-4.96 54.41) rotate(-45)"/><rect x="38" y="23.25" width="6" height="1.5"/><rect x="64" y="23.25" width="6" height="1.5"/><rect x="60.19" y="14.06" width="6" height="1.5" transform="translate(8.04 49.02) rotate(-45)"/><rect x="28" y="69.25" width="28" height="1.5"/></svg>