<?xml version="1.0" encoding="UTF-8"?><svg id="a" xmlns="http://www.w3.org/2000/svg" viewBox="0 0 80 80"><path d="M51.37207,59.9375c2.55762-1.49707,5.76953-1.33691,8.18164,.40527,1.1377,.82227,2.64453,.6748,3.50293-.3418,2.42383-2.86328,4.28711-6.11963,5.53809-9.67725,.46289-1.31299-.14648-2.74609-1.41699-3.3335-2.69922-1.24756-4.44336-3.99219-4.44336-6.9917,0-2.99805,1.74219-5.7417,4.43945-6.99023,1.26172-.58447,1.87305-2.01123,1.4209-3.31836-.62109-1.79053-1.39062-3.49707-2.28809-5.07178-.89746-1.5752-1.97168-3.10352-3.19238-4.54297-.89746-1.05859-2.43066-1.23877-3.56836-.41846-2.41211,1.74072-5.62207,1.89795-8.17578,.4043-2.5625-1.49805-4.03516-4.40283-3.75195-7.39941,.13184-1.40527-.79297-2.65576-2.15234-2.9082-3.66895-.68066-7.38574-.67383-11.04883,.02197-1.29492,.24609-2.1709,1.48633-2.03906,2.88574,.28516,2.99658-1.1875,5.90186-3.75,7.40137-2.55664,1.49658-5.76953,1.33691-8.18066-.40527-1.13867-.82129-2.64453-.67578-3.50391,.34131-2.4248,2.86426-4.28809,6.12061-5.53809,9.67773-.46289,1.31299,.14648,2.74609,1.41699,3.3335,2.69922,1.24756,4.44336,3.99219,4.44336,6.9917,0,2.99805-1.74219,5.7417-4.43945,6.99023-1.26172,.58447-1.87305,2.01123-1.4209,3.31836,.62109,1.79053,1.39062,3.49707,2.28809,5.07227,.89746,1.57471,1.97168,3.10303,3.19238,4.54248,.89746,1.05908,2.43164,1.23877,3.56836,.41846,2.41113-1.74072,5.62305-1.89795,8.17578-.4043,1.04883,.61328,1.91211,1.44287,2.56543,2.46484l1.26367-.80762c-.78223-1.22412-1.81543-2.21729-3.07129-2.95215-3.06738-1.79395-6.91797-1.60352-9.81055,.48291-.50488,.36328-1.15527,.2915-1.54688-.17236-1.16211-1.36865-2.18262-2.8208-3.03418-4.31494-.85156-1.49512-1.58301-3.11719-2.17285-4.82031-.20312-.58594,.06348-1.20264,.63379-1.46631,3.22461-1.49316,5.30859-4.77148,5.30859-8.35156,0-3.58252-2.08594-6.86133-5.31445-8.35303-.57324-.26514-.83887-.88525-.63086-1.47461,1.18945-3.38428,2.96191-6.48193,5.26758-9.20654,.34766-.41162,.98535-.45215,1.48047-.09424,2.89355,2.09033,6.74609,2.27979,9.81738,.48438,3.06445-1.79346,4.8252-5.2627,4.48633-8.83789-.05957-.62354,.29492-1.16992,.82422-1.27051,3.47852-.66016,7.00977-.66748,10.49609-.021,.60059,.11182,.99219,.65527,.93164,1.29297-.33691,3.5752,1.4248,7.04297,4.48828,8.83496,3.06934,1.79443,6.91797,1.604,9.81055-.48291,.50488-.36328,1.15625-.2915,1.54688,.17236,1.16211,1.36865,2.18262,2.8208,3.03418,4.31494,.85156,1.49512,1.58301,3.11719,2.17285,4.82031,.20312,.58594-.06348,1.20264-.63379,1.46631-3.22461,1.49316-5.30859,4.77148-5.30859,8.35156,0,3.58252,2.08594,6.86133,5.31445,8.35303,.57324,.26514,.83887,.88525,.63086,1.47412-1.18945,3.38525-2.96191,6.48291-5.26758,9.20654-.34863,.41162-.98633,.45166-1.47949,.09473-2.89551-2.08984-6.74707-2.2793-9.81836-.48438-1.25586,.73535-2.28906,1.729-3.07129,2.95361l1.26367,.80762c.65332-1.02246,1.5166-1.85254,2.56543-2.46631Z"/><path d="M44.75,72v-20.17725c4.68262-1.88849,8-6.47198,8-11.82275,0-5.39844-3.41602-10.22803-8.50098-12.01758-.23047-.08057-.4834-.04541-.68262,.09521-.19824,.14062-.31641,.36914-.31641,.6123v10.56006h-6.5v-10.56006c0-.24316-.11816-.47168-.31641-.6123-.2002-.14062-.4541-.17578-.68262-.09521-5.08496,1.78955-8.50098,6.61914-8.50098,12.01758,0,5.35077,3.31738,9.93427,8,11.82275v20.17725h1.5v-19.68573c1.03955,.27478,2.12524,.43573,3.25,.43573s2.21045-.16095,3.25-.43573v19.68573h1.5Zm-4.75-20.75c-6.20312,0-11.25-5.04688-11.25-11.25,0-4.40039,2.57129-8.37158,6.5-10.1958v10.1958c0,.41406,.33594,.75,.75,.75h8c.41406,0,.75-.33594,.75-.75v-10.1958c3.92871,1.82422,6.5,5.79541,6.5,10.1958,0,6.20312-5.04688,11.25-11.25,11.25Z"/></svg>