<?xml version="1.0" encoding="UTF-8"?><svg id="a" xmlns="http://www.w3.org/2000/svg" viewBox="0 0 80 80"><path d="M52,14.75c1.5166,0,2.75-1.2334,2.75-2.75s-1.2334-2.75-2.75-2.75h-4c-.41406,0-.75,.33594-.75,.75v15.25h-8.5v-4.5h3.25c1.5166,0,2.75-1.2334,2.75-2.75s-1.2334-2.75-2.75-2.75h-4c-.41406,0-.75,.33594-.75,.75v9.25h-4.5V10c0-.41406-.33594-.75-.75-.75h-4c-1.5166,0-2.75,1.2334-2.75,2.75s1.2334,2.75,2.75,2.75h3.25v10.5h-1.25c-.41406,0-.75,.33594-.75,.75v1.25h-3.25c-1.5166,0-2.75,1.2334-2.75,2.75v1.25h-.16309c-1.0127,0-1.83691,.82422-1.83691,1.83691v23.82617c0,1.0127,.82422,1.83691,1.83691,1.83691h.16309v1.25c0,1.5166,1.2334,2.75,2.75,2.75h3.25v5.25c0,1.5166,1.2334,2.75,2.75,2.75h16c1.5166,0,2.75-1.2334,2.75-2.75v-13.36719c1.15063-.32861,2-1.37793,2-2.63281v-12c0-1.25488-.84937-2.3042-2-2.63281v-11.36719c0-.41406-.33594-.75-.75-.75h-1.25V14.75h3.25Zm-3.25-4h3.25c.68945,0,1.25,.56055,1.25,1.25s-.56055,1.25-1.25,1.25h-3.25v-2.5Zm-10,6h3.25c.68945,0,1.25,.56055,1.25,1.25s-.56055,1.25-1.25,1.25h-3.25v-2.5Zm-15.66309,40.5c-.18555,0-.33691-.15137-.33691-.33691v-23.82617c0-.18555,.15137-.33691,.33691-.33691h1.82617c.18555,0,.33691,.15137,.33691,.33691v23.82617c0,.18555-.15137,.33691-.33691,.33691h-1.82617Zm6.16309-25.25v29.25h-3.25c-.68945,0-1.25-.56055-1.25-1.25v-1.25h.16309c1.0127,0,1.83691-.82422,1.83691-1.83691v-23.82617c0-1.0127-.82422-1.83691-1.83691-1.83691h-.16309v-1.25c0-.68945,.56055-1.25,1.25-1.25h3.25v3.25Zm-1.25-18.75c-.68945,0-1.25-.56055-1.25-1.25s.56055-1.25,1.25-1.25h3.25v2.5h-3.25Zm21.25,54.75c0,.68945-.56055,1.25-1.25,1.25h-16c-.68945,0-1.25-.56055-1.25-1.25v-3.25h18.5v3.25Zm0-4.75H30.75v-30.5h18.5v4.5h-5.25c-.41406,0-.75,.33594-.75,.75v16c0,.41406,.33594,.75,.75,.75h5.25v8.5Zm2-11.25c0,.68945-.56055,1.25-1.25,1.25h-5.25v-10.5h6.5v9.25Zm0-12v1.25h-6.5v-2.5h5.25c.68945,0,1.25,.56055,1.25,1.25Zm-2-13.25v4.5H30.75v-4.5h18.5Z"/></svg>