<?xml version="1.0" encoding="UTF-8"?><svg id="a" xmlns="http://www.w3.org/2000/svg" viewBox="0 0 80 80"><path d="M60,39.25H20c-4.8252,0-8.75,3.9248-8.75,8.75v12c0,.41406,.33594,.75,.75,.75h3.25v11.25h1.5v-7.25h6.5v7.25h1.5v-12.75H12.75v-11.25c0-3.99805,3.25195-7.25,7.25-7.25h10.3667c1.80518,3.65894,5.52979,6,9.6333,6s7.82812-2.34106,9.6333-6h10.3667c3.99805,0,7.25,3.25195,7.25,7.25v11.25h-12v12.75h1.5v-7.25h6.5v7.25h1.5v-11.25h3.25c.41406,0,.75-.33594,.75-.75v-12c0-4.8252-3.9248-8.75-8.75-8.75ZM16.75,60.75h6.5v2.5h-6.5v-2.5Zm23.25-15.5c-3.27734,0-6.27832-1.7334-7.93359-4.5h15.86719c-1.65527,2.7666-4.65625,4.5-7.93359,4.5Zm23.25,18h-6.5v-2.5h6.5v2.5Z"/><path d="M54.75,22c0-7.03027-5.71973-12.75-12.75-12.75h-4c-7.03027,0-12.75,5.71973-12.75,12.75v5c0,4.27344,3.47656,7.75,7.75,7.75,.04785,0,.09424-.00635,.14209-.00732,2.04932,1.31006,4.4126,2.00732,6.85791,2.00732h16c.41406,0,.75-.33594,.75-.75v-8c0-.41406-.33594-.75-.75-.75h-3.68555c.27441-1.03955,.43555-2.12524,.43555-3.25,0-.41821-.02637-.83521-.06738-1.25h1.31738c.41406,0,.75-.33594,.75-.75Zm-13.5,13.17627c-.41113,.0459-.82715,.07373-1.25,.07373-1.55371,0-3.06934-.32324-4.47217-.93188,.99023-.34302,1.88721-.88062,2.6499-1.56812h3.07227v2.42627Zm8.93359-6.42627c-.42383,.9043-.95703,1.74585-1.59521,2.5h-9.11523c.49561-.75244,.86035-1.59644,1.07031-2.5h9.64014Zm-9.44629-1.5c.00293-.08374,.0127-.16553,.0127-.25v-4.25h10.42285c.04541,.41406,.07715,.83105,.07715,1.25,0,1.13013-.17139,2.22021-.48291,3.25h-10.02979Zm2.0127,5.5h4.30518c-1.24414,1.00537-2.70801,1.74219-4.30518,2.14575v-2.14575Zm12.5,2.5h-9.2627c1.2207-.65259,2.31738-1.50244,3.26172-2.5h6.00098v2.5Zm0-6.5v2.5h-4.7749c.53809-.77539,.98975-1.61328,1.34766-2.5h3.42725Zm-15.25-7.5c-.41406,0-.75,.33594-.75,.75v5c0,3.44629-2.80371,6.25-6.25,6.25s-6.25-2.80371-6.25-6.25v-5c0-6.20312,5.04688-11.25,11.25-11.25h4c5.95117,0,10.83789,4.64551,11.22559,10.5h-13.22559Z"/><path d="M33.12207,25.25c-1.5166,0-2.75,1.2334-2.75,2.75s1.2334,2.75,2.75,2.75,2.75-1.2334,2.75-2.75-1.2334-2.75-2.75-2.75Zm0,4c-.68945,0-1.25-.56055-1.25-1.25s.56055-1.25,1.25-1.25,1.25,.56055,1.25,1.25-.56055,1.25-1.25,1.25Z"/><path d="M40,66.75c2.61914,0,4.75-2.13086,4.75-4.75v-6c0-2.61914-2.13086-4.75-4.75-4.75s-4.75,2.13086-4.75,4.75v6c0,2.61914,2.13086,4.75,4.75,4.75Zm-3.25-10.75c0-1.79199,1.45801-3.25,3.25-3.25s3.25,1.45801,3.25,3.25v6c0,1.79199-1.45801,3.25-3.25,3.25s-3.25-1.45801-3.25-3.25v-6Z"/></svg>