<?xml version="1.0" encoding="UTF-8"?><svg id="a" xmlns="http://www.w3.org/2000/svg" viewBox="0 0 80 80"><path d="M60.76416,40V10c0-.25977-.13477-.50146-.35547-.63818-.22266-.13623-.49805-.14893-.72998-.03271l-19.66455,9.83252L20.34961,9.3291c-.23291-.11572-.5083-.10352-.72998,.03271-.2207,.13672-.35547,.37842-.35547,.63818v30c0,.28418,.16064,.54395,.41455,.6709l8,4,.6709-1.3418-7.58545-3.79248v-8.323l18.91455,9.45728c.10547,.05273,.2207,.0791,.33545,.0791s.22998-.02637,.33545-.0791l18.91455-9.45728v8.323l-7.58545,3.79248,.6709,1.3418,8-4c.25391-.12695,.41455-.38672,.41455-.6709Zm-1.5-10.46362l-19.25,9.62524-19.25-9.62524v-8.32275l18.91455,9.45728c.10547,.05273,.2207,.0791,.33545,.0791s.22998-.02637,.33545-.0791l18.91455-9.45728v8.32275Zm0-10l-19.25,9.62524-19.25-9.62524V11.21338l18.91455,9.45752c.21094,.10547,.45996,.10547,.6709,0l18.91455-9.45752v8.323Z"/><path d="M31.3833,52.8252l1.06055,1.06055c2.02197-2.02197,4.71094-3.13574,7.57031-3.13574s5.54834,1.11377,7.57031,3.13574l1.06055-1.06055c-2.30518-2.30566-5.37061-3.5752-8.63086-3.5752s-6.32568,1.26953-8.63086,3.5752Z"/><path d="M34.0835,55.52539l1.06055,1.06055c1.30029-1.30078,3.02979-2.01709,4.87012-2.01709,1.83984,0,3.56934,.71631,4.87012,2.01709l1.06055-1.06055c-1.58398-1.58398-3.69043-2.45654-5.93066-2.45654-2.24072,0-4.34717,.87256-5.93066,2.45654Z"/><path d="M36.78369,58.22559l1.06055,1.06055c1.15918-1.15918,3.18066-1.15918,4.33984,0l1.06055-1.06055c-.8623-.86279-2.00977-1.33838-3.23047-1.33838s-2.36816,.47559-3.23047,1.33838Z"/><path d="M40.01416,43.25c-7.03027,0-12.75,5.71973-12.75,12.75s5.71973,12.75,12.75,12.75,12.75-5.71973,12.75-12.75-5.71973-12.75-12.75-12.75Zm0,24c-6.20312,0-11.25-5.04688-11.25-11.25s5.04688-11.25,11.25-11.25,11.25,5.04688,11.25,11.25-5.04688,11.25-11.25,11.25Z"/><circle cx="40.01416" cy="62" r="1"/></svg>