<?xml version="1.0" encoding="UTF-8"?><svg id="a" xmlns="http://www.w3.org/2000/svg" viewBox="0 0 80 80"><path d="M40,70.75c16.95557,0,30.75-13.79443,30.75-30.75s-13.79443-30.75-30.75-30.75S9.25,23.04443,9.25,40s13.79443,30.75,30.75,30.75Zm.53027-30.21973c.13574-.13574,.21973-.32324,.21973-.53027V10.76904c15.78223,.40051,28.5,13.35406,28.5,29.23096,0,16.12842-13.12158,29.25-29.25,29.25-7.79492,0-14.88184-3.07104-20.13025-8.0592l20.66052-20.66052Zm-1.28027-29.76123v28.48096H10.76904c.39417-15.53217,12.94873-28.08679,28.48096-28.48096Zm-1.06055,29.98096l-19.38025,19.38025c-4.82727-5.07904-7.84985-11.88177-8.04016-19.38025h27.42041Z"/></svg>