<svg xmlns="http://www.w3.org/2000/svg" viewBox="0 0 80 80"><polygon points="68.75 8 67.25 8 67.25 11.25 64 11.25 64 12.75 67.25 12.75 67.25 16 68.75 16 68.75 12.75 72 12.75 72 11.25 68.75 11.25 68.75 8"/><path d="M9.25,44a6.74637,6.74637,0,0,0,9.98364,5.92255l6.30933,9.0216A6.745,6.745,0,1,0,36.70581,64.75H57.29419A6.74887,6.74887,0,1,0,64,57.25c-.19678,0-.39038.01294-.583.02954L58.054,30.4281A6.749,6.749,0,1,0,49.572,21.94574l-26.85156-5.3623c.0166-.19269.02954-.38648.02954-.58344a6.75,6.75,0,1,0-7.5,6.70575v14.5885A6.75791,6.75791,0,0,0,9.25,44Zm11.207,5.05585a6.69328,6.69328,0,0,0,1.8728-7.37769L34.519,35.57953l7.915,7.915L33.023,57.97333a6.70622,6.70622,0,0,0-6.25659.10412Zm1.20386-8.72A6.75244,6.75244,0,0,0,16.75,37.29425V22.70575a6.71377,6.71377,0,0,0,3.45825-1.437L33.40112,34.46161ZM30,69.25A5.25,5.25,0,1,1,35.25,64,5.25605,5.25605,0,0,1,30,69.25Zm27.29419-6H36.70581A6.74593,6.74593,0,0,0,34.283,58.78723l9.23535-14.20837,15.21289,15.213A6.71407,6.71407,0,0,0,57.29419,63.25ZM64,58.75A5.25,5.25,0,1,1,58.75,64,5.25605,5.25605,0,0,1,64,58.75Zm-2.054-1.1781a6.73937,6.73937,0,0,0-2.15429,1.15936L44.354,43.29333l8.623-13.26666A6.69812,6.69812,0,0,0,56,30.75c.19678,0,.39038-.01294.583-.02954ZM56,18.75A5.25,5.25,0,1,1,50.75,24,5.25605,5.25605,0,0,1,56,18.75ZM51.717,29.21277,43.26953,42.20905l-7.33691-7.33692,14.40649-7.208A6.8034,6.8034,0,0,0,51.717,29.21277ZM22.428,18.05426l26.85156,5.3623c-.0166.19269-.02954.38648-.02954.58344a6.70375,6.70375,0,0,0,.41992,2.32147l-14.855,7.4328L21.2688,20.20819A6.73751,6.73751,0,0,0,22.428,18.05426ZM10.75,16A5.25,5.25,0,1,1,16,21.25,5.25605,5.25605,0,0,1,10.75,16ZM16,38.75A5.25,5.25,0,1,1,10.75,44,5.25605,5.25605,0,0,1,16,38.75Z"/></svg>