<?xml version="1.0" encoding="UTF-8"?><svg id="a" xmlns="http://www.w3.org/2000/svg" viewBox="0 0 80 80"><path d="M26.18848,40.5293c.24512-.27197,.44727-.53516,.60059-.78174,.15625-.25293,.27148-.5083,.3418-.75928,.06934-.24854,.10449-.521,.10449-.81104,0-.37695-.07422-.72656-.22168-1.03906-.14551-.30762-.34863-.57227-.60449-.78564-.24902-.20898-.54688-.37305-.88672-.48828-.6875-.23096-1.56055-.22559-2.23047,.01221-.34473,.12207-.65234,.29492-.91309,.51465-.26172,.2207-.47559,.48291-.63477,.77832-.15918,.29395-.26465,.61621-.31348,.95654l-.02051,.14209c-.00586,.04395,.00684,.08838,.03613,.12158,.0293,.03369,.07129,.05273,.11523,.05273h1.37402c.07812,0,.14355-.05859,.15137-.13623l.01172-.11035c.03613-.33301,.16504-.5835,.39258-.76709,.2334-.1875,.54199-.28271,.91797-.28271,.38965,0,.68945,.09619,.89062,.28467,.19922,.1875,.2959,.43506,.2959,.75732,0,.16162-.02246,.31494-.06543,.45508-.04492,.1416-.11914,.29102-.2207,.44385-.11133,.1665-.25391,.34863-.4248,.54053-.1748,.1958-.39551,.41992-.65625,.6665l-2.52344,2.4248-.03906,.03564c-.03223,.02881-.0498,.06982-.0498,.11279v1.15283c0,.08398,.06836,.15234,.15234,.15234h5.28027c.08398,0,.15234-.06836,.15234-.15234v-1.22363c0-.08398-.06836-.15234-.15234-.15234h-3.02148l1.27148-1.2085c.34277-.32812,.64258-.63281,.88965-.90625Z"/><path d="M32.34863,35.86133h-1.30176c-.05273,0-.10156,.02686-.12891,.07129l-3.37988,5.39697c-.01562,.02441-.02344,.05225-.02344,.08105v1.146c0,.08398,.06836,.15234,.15234,.15234h3.25v1.31104c0,.08398,.06836,.15234,.15234,.15234h1.2793c.08398,0,.15234-.06836,.15234-.15234v-1.31104h1.10059c.08398,0,.15234-.06836,.15234-.15234v-1.15625c0-.08398-.06836-.15234-.15234-.15234h-1.10059v-5.23438c0-.08398-.06836-.15234-.15234-.15234Zm-1.43164,5.38672h-1.44922l1.44922-2.39893v2.39893Z"/><path d="M33.68555,44.08984c.02637,.05078,.07812,.08252,.13574,.08252h1.56055c.0498,0,.09766-.02441,.12598-.06592l1.33984-1.95215,1.37207,1.9541c.02832,.04004,.07422,.06396,.12402,.06396h1.60742c.05762,0,.11035-.03223,.13574-.0835,.02637-.05127,.02148-.11279-.0127-.15918l-2.28809-3.10693,1.95215-2.72559c.0332-.04639,.03809-.10791,.01172-.15869s-.07812-.08252-.13574-.08252h-1.52734c-.05078,0-.09766,.0249-.12695,.06738l-1.11914,1.66211-1.18164-1.66553c-.02832-.04004-.07422-.06396-.12402-.06396h-1.58203c-.05762,0-.11035,.03223-.13574,.08301-.02637,.05127-.02148,.11279,.0127,.15918l2.04199,2.80518-2.1748,3.02783c-.0332,.04639-.03809,.10742-.01172,.15869Z"/><path d="M45.70312,35.86133h-5.18066c-.08398,0-.15234,.06836-.15234,.15234v1.20117c0,.08398,.06836,.15234,.15234,.15234h3.4873l-3.14355,6.58691c-.02246,.04736-.01953,.10303,.00879,.14746,.02832,.04395,.07617,.0708,.12891,.0708h1.48438c.05957,0,.11328-.03418,.13867-.08789l3.20312-6.87695c.00879-.01953,.01367-.04102,.01367-.06299l.01172-1.12939c.00098-.04053-.01562-.07959-.04395-.10889-.02832-.02881-.06738-.04492-.1084-.04492Z"/><path d="M45.75684,44.08984c.02637,.05078,.07812,.08252,.13574,.08252h1.56055c.0498,0,.09766-.02441,.12598-.06592l1.33984-1.95215,1.37207,1.9541c.02832,.04004,.07422,.06396,.12402,.06396h1.60742c.05762,0,.11035-.03223,.13574-.0835,.02637-.05127,.02148-.11279-.0127-.15918l-2.28809-3.10693,1.95215-2.72559c.0332-.04639,.03809-.10791,.01172-.15869s-.07812-.08252-.13574-.08252h-1.52637c-.05078,0-.09766,.0249-.12598,.06689l-1.12109,1.6626-1.18164-1.66553c-.02832-.04004-.07422-.06396-.12402-.06396h-1.58203c-.05762,0-.11035,.03223-.13574,.08301-.02637,.05127-.02148,.11279,.0127,.15918l2.04199,2.80615-2.1748,3.02686c-.0332,.04639-.03809,.10742-.01172,.15869Z"/><path d="M57.12598,35.86133h-1.30176c-.05273,0-.10156,.02686-.12891,.07129l-3.38086,5.39697c-.01562,.02441-.02344,.05225-.02344,.08105v1.146c0,.08398,.06836,.15234,.15234,.15234h3.25v1.31104c0,.08398,.06836,.15234,.15234,.15234h1.28027c.08398,0,.15234-.06836,.15234-.15234v-1.31104h1.10059c.08398,0,.15234-.06836,.15234-.15234v-1.15625c0-.08398-.06836-.15234-.15234-.15234h-1.10059v-5.23438c0-.08398-.06836-.15234-.15234-.15234Zm-1.43262,5.38672h-1.44824l1.44824-2.39893v2.39893Z"/><path d="M70.75,36c0-2.50684-1.95801-4.54468-4.42188-4.7168-2.24854-12.60278-13.45508-22.0332-26.32812-22.0332S15.92041,18.68042,13.67188,31.2832c-2.46387,.17212-4.42188,2.20996-4.42188,4.7168v8c0,2.61914,2.13086,4.75,4.75,4.75h4c.41406,0,.75-.33594,.75-.75v-16c0-.41406-.33594-.75-.75-.75h-2.77832c2.24658-11.74268,12.73047-20.5,24.77832-20.5s22.53174,8.75732,24.77832,20.5h-2.77832c-.41406,0-.75,.33594-.75,.75v16c0,.41406,.33594,.75,.75,.75h3.21191c-.39673,9.1626-7.95337,16.5-17.21191,16.5h-3.32593c-.36255-2.26172-2.31177-4-4.67407-4-2.61914,0-4.75,2.13086-4.75,4.75s2.13086,4.75,4.75,4.75c2.3623,0,4.31152-1.73828,4.67407-4h3.32593c10.11011,0,18.35498-8.04883,18.71582-18.07227,2.27808-.34863,4.03418-2.30371,4.03418-4.67773v-8Zm-53.5-3.25v14.5h-3.25c-1.79199,0-3.25-1.45801-3.25-3.25v-8c0-1.79199,1.45801-3.25,3.25-3.25h3.25Zm22.75,36.5c-1.79199,0-3.25-1.45801-3.25-3.25s1.45801-3.25,3.25-3.25,3.25,1.45801,3.25,3.25-1.45801,3.25-3.25,3.25Zm29.25-25.25c0,1.79199-1.45801,3.25-3.25,3.25h-3.25v-14.5h3.25c1.79199,0,3.25,1.45801,3.25,3.25v8Z"/></svg>