<?xml version="1.0" encoding="UTF-8"?><svg id="a" xmlns="http://www.w3.org/2000/svg" viewBox="0 0 80 80"><path d="M66.75,53.32593v-8.52612c0-.63184-.34277-1.2168-.89355-1.52734-.35059-.19678-.73682-.25049-1.10645-.19482v-9.07764c0-.41406-.33594-.75-.75-.75h-3.25v-3.25c0-.41406-.33594-.75-.75-.75h-4c-.41406,0-.75,.33594-.75,.75v3.25h-2.5v-1.25c0-.41406-.33594-.75-.75-.75h-4c-.41406,0-.75,.33594-.75,.75v5.25h-3.25c-.41406,0-.75,.33594-.75,.75v5.08081c-.37305-.05737-.75879-.00415-1.10645,.19165-.55078,.31055-.89355,.89551-.89355,1.52734v8.4502h-2.10449l1.56201-26.5h1.29248v-1.5h-9.25V10.55371c0-.09473,.05469-.14941,.08691-.17383,.03223-.02344,.09766-.05859,.1582-.04297l6.75684,2.37109,.49609-1.41602-6.78809-2.38086c-.5293-.15918-1.0791-.0625-1.51758,.26562-.44043,.32617-.69238,.82812-.69238,1.37695v14.69629H12v1.5h1.29248l1.56201,26.5h-.85449c-1.25781,0-2.44922,.49219-3.36426,1.39355-.89355,.90723-1.38574,2.09863-1.38574,3.35645,0,1.54028,.75928,2.97607,2,3.85913v.14087c0,4.8252,3.9248,8.75,8.75,8.75H60c4.8252,0,8.75-3.9248,8.75-8.75v-.13916c.20605-.14648,.41064-.30859,.61426-.50439,.89355-.90723,1.38574-2.09863,1.38574-3.35645,0-2.3623-1.73828-4.31152-4-4.67407Zm-6-9.32593v-9.25h2.5v8.97778c-.45166,.19653-.93359,.38013-1.47266,.53687-.32056,.09937-.66626,.18896-1.02734,.27271v-.53735Zm-4,0v-13.25h2.5v14.07227c-.35229,.05981-.70068,.12402-1.06152,.17188l-.28027,.03125c-.40039,.04907-.78198,.08521-1.1582,.11475v-1.14014Zm-4-9.25h2.5v10.46558c-.34521,.01367-.6853,.03442-1.04004,.03442h-.20996c-.42358,0-.83521-.02148-1.25-.03735v-10.46265Zm-4,9.25v-11.25h2.5v12.38184c-.64771-.05103-1.2832-.11475-1.8877-.20508-.20679-.02881-.40747-.06787-.6123-.10181v-.82495Zm-4-5.25h2.5v5.77393c-.67236-.15674-1.31958-.33301-1.90527-.54932-.21362-.07739-.4043-.16016-.59473-.24316v-4.98145Zm-2,6.0498c0-.13281,.09082-.19824,.12988-.21973,.05273-.03125,.13867-.05371,.22852,0,.48145,.29492,1.0625,.56543,1.72168,.80273,.91602,.33887,1.9375,.61328,3.02246,.8125,.41504,.08301,.85938,.15625,1.29688,.2168,.8877,.13184,1.83301,.22559,2.80469,.27734,.66504,.04004,1.35059,.06055,2.0459,.06055h.20996c.62793,0,1.24512-.02051,1.82324-.06055,.65918-.02832,1.33203-.08594,2.04785-.17383l.28711-.03223c.61816-.08203,1.21387-.1748,1.76465-.28516,.75195-.13574,1.45508-.30469,2.07617-.49707,.77539-.22559,1.48926-.49707,2.12598-.81055,.1377-.06836,.26465-.1416,.38867-.21387l.16504-.09473c.09277-.05762,.17676-.0332,.23145-.00195,.03906,.02148,.12988,.08691,.12988,.21973v8.4502h-22.5v-8.4502ZM14.7959,26.75h24.4082l-1.56201,26.5H16.35791l-1.56201-26.5Zm52.4541,35.25c0,3.99805-3.25195,7.25-7.25,7.25H20c-3.99805,0-7.25-3.25195-7.25-7.25v-2c0-.68945,.56055-1.25,1.25-1.25h52c.68945,0,1.25,.56055,1.25,1.25v2Zm1.47632-2.23413c-.12085-1.40552-1.28979-2.51587-2.72632-2.51587H14c-1.43066,0-2.61035,1.09863-2.73828,2.49609-.32812-.51367-.51172-1.11816-.51172-1.74609,0-.86133,.33887-1.67969,.94629-2.2959,.62402-.61523,1.44238-.9541,2.30371-.9541h52c1.79199,0,3.25,1.45801,3.25,3.25,0,.63452-.18652,1.24438-.52368,1.76587Z"/></svg>