<svg xmlns="http://www.w3.org/2000/svg" viewBox="0 0 80 80"><path d="M19.86816,22.89209a4.75,4.75,0,1,0-3.13769,8.79346V48.32483a4.74154,4.74154,0,0,0-.48633,9.26062,4.77977,4.77977,0,0,0,1.24707.1665A4.67906,4.67906,0,0,0,21.1604,55.9873l14.41528,8.322A4.70628,4.70628,0,0,0,35.25,65.98926,4.75584,4.75584,0,0,0,39.98828,70.75H39.999a4.71989,4.71989,0,0,0,4.42774-6.43652l14.41357-8.321a4.749,4.749,0,1,0,4.4292-7.67431V31.68286A4.75337,4.75337,0,1,0,58.8396,24.0127L44.42432,15.6908A4.70754,4.70754,0,0,0,44.75,14.01074,4.75584,4.75584,0,0,0,40.01172,9.25H40.001a4.71989,4.71989,0,0,0-4.42774,6.43652L21.15967,24.00757A4.7371,4.7371,0,0,0,19.86816,22.89209Zm-4.0166,6.91846a3.24952,3.24952,0,1,1,2.46582.33056A3.23047,3.23047,0,0,1,15.85156,29.81055Zm3.251,26.00781a3.24947,3.24947,0,1,1,1.19922-4.437A3.23586,3.23586,0,0,1,19.10254,55.81836ZM42.293,68.30322A3.229,3.229,0,0,1,39.999,69.25h-.00683a3.25,3.25,0,0,1,.00879-6.5h.00683A3.25,3.25,0,0,1,42.293,68.30322ZM64.14844,50.18945a3.24952,3.24952,0,1,1-2.46582-.33056,3.274,3.274,0,0,1,.83984-.11035A3.22867,3.22867,0,0,1,64.14844,50.18945Zm-3.251-26.00781a3.23785,3.23785,0,0,1,1.61426-.4331,3.27682,3.27682,0,0,1,.85351.11425,3.24979,3.24979,0,1,1-2.46777.31885ZM37.707,11.69678A3.229,3.229,0,0,1,40.001,10.75h.00683a3.25,3.25,0,0,1-.00879,6.5h-.00683A3.25,3.25,0,0,1,37.707,11.69678ZM22.07422,25.78125a4.77093,4.77093,0,0,0-.17481-.469L36.332,16.98035A4.7222,4.7222,0,0,0,39.98828,18.75H39.999a4.72431,4.72431,0,0,0,3.666-1.76575l14.4353,8.3335a4.70493,4.70493,0,0,0,3.66919,6.36389V48.332a4.55967,4.55967,0,0,0-3.66894,6.35571L43.668,63.01965A4.7222,4.7222,0,0,0,40.01172,61.25H40.001a4.72431,4.72431,0,0,0-3.666,1.76575l-14.4353-8.3335a4.68541,4.68541,0,0,0-3.66919-6.349V31.68408a4.80757,4.80757,0,0,0,.47168-.09326,4.75119,4.75119,0,0,0,3.37207-5.80957Z"/><path d="M32,48.75H48.667a4.06986,4.06986,0,0,0,2.76074-7.07227,4.08749,4.08749,0,0,0-2.75781-7.09765,3.97282,3.97282,0,0,0-1.47168.28027,7.41257,7.41257,0,0,0-13.86719-1.417A4.702,4.702,0,0,0,32,33.25,4.72267,4.72267,0,0,0,28.3479,41,4.7042,4.7042,0,0,0,27.25,44,4.7554,4.7554,0,0,0,32,48.75Zm0-14a3.31187,3.31187,0,0,1,1.41992.32812.75.75,0,0,0,1.02539-.42236,5.91193,5.91193,0,0,1,11.44727,1.45459.75032.75032,0,0,0,1.21.51953,2.52174,2.52174,0,0,1,1.56738-.5498,2.57078,2.57078,0,0,1,1.36353,4.756A4.03492,4.03492,0,0,0,48.667,40.5835a3.98079,3.98079,0,0,0-1.47168.28076,7.41271,7.41271,0,0,0-13.86719-1.42334,4.68863,4.68863,0,0,0-3.87182.56152A3.23484,3.23484,0,0,1,32,34.75Zm0,6a3.21449,3.21449,0,0,1,1.40918.32568.74984.74984,0,0,0,1.03223-.41943,5.91121,5.91121,0,0,1,11.44629,1.4541.75028.75028,0,0,0,1.206.52393A2.55661,2.55661,0,0,1,48.667,42.0835a2.58325,2.58325,0,0,1,0,5.1665H32a3.25,3.25,0,0,1,0-6.5Z"/></svg>