<?xml version="1.0" encoding="UTF-8"?><svg id="a" xmlns="http://www.w3.org/2000/svg" viewBox="0 0 80 80"><path d="M40,25.25c-8.1333,0-14.75,6.6167-14.75,14.75s6.6167,14.75,14.75,14.75,14.75-6.6167,14.75-14.75-6.6167-14.75-14.75-14.75Zm0,28c-7.30615,0-13.25-5.94385-13.25-13.25s5.94385-13.25,13.25-13.25,13.25,5.94385,13.25,13.25-5.94385,13.25-13.25,13.25Z"/><path d="M38,44.93945l-5.46973-5.46973-1.06055,1.06055,6,6c.14648,.14648,.33838,.21973,.53027,.21973s.38379-.07324,.53027-.21973l10-10-1.06055-1.06055-9.46973,9.46973Z"/><path d="M40,70.75c16.95557,0,30.75-13.79443,30.75-30.75,0-4.91455-1.18799-9.80273-3.43506-14.13721l-1.33203,.69043c2.16797,4.18066,3.26709,8.70508,3.26709,13.44678,0,16.12842-13.12158,29.25-29.25,29.25s-29.25-13.12158-29.25-29.25S23.87158,10.75,40,10.75c7.80078,0,15.08838,3.01837,20.60278,8.5h-6.60278v1.5h8c.41406,0,.75-.33594,.75-.75V12h-1.5v5.78192c-5.74634-5.50806-13.2417-8.53192-21.25-8.53192-16.95557,0-30.75,13.79443-30.75,30.75s13.79443,30.75,30.75,30.75Z"/></svg>