<?xml version="1.0" encoding="UTF-8"?><svg id="a" xmlns="http://www.w3.org/2000/svg" viewBox="0 0 80 80"><path d="M39.46875,66.5293c.14062,.14111,.33203,.2207,.53125,.2207s.39062-.07959,.53125-.2207l25.4834-25.57617c6.29004-6.3125,6.31543-16.61035,.05762-22.95605-3.00879-3.05029-7.00977-4.73633-11.26562-4.74707h-.04102c-4.24023,0-8.23242,1.66406-11.24609,4.68896l-3.51953,3.53223-3.51953-3.53223c-3.01367-3.0249-7.00586-4.68896-11.24609-4.68896h-.04102c-4.25586,.01074-8.25684,1.69678-11.26562,4.74707-6.25781,6.3457-6.23242,16.64355,.05762,22.95605l25.4834,25.57617ZM14.99609,19.05078c2.72559-2.76367,6.34863-4.29102,10.20117-4.30078h.03711c3.83789,0,7.4541,1.50781,10.18359,4.24756l4.05078,4.06543c.28125,.28223,.78125,.28223,1.0625,0l4.05078-4.06543c2.72949-2.74023,6.34473-4.24756,10.18359-4.24756h.03711c3.85254,.00977,7.47559,1.53711,10.20117,4.30078,5.68164,5.76173,5.6582,15.1123-.05176,20.84375l-24.95215,25.04298L15.04785,39.89453c-5.71094-5.73193-5.73438-15.08252-.05176-20.84375Z"/></svg>