<svg xmlns="http://www.w3.org/2000/svg" viewBox="0 0 80 80"><polygon points="72 11.25 68.75 11.25 68.75 8 67.25 8 67.25 11.25 64 11.25 64 12.75 67.25 12.75 67.25 16 68.75 16 68.75 12.75 72 12.75 72 11.25"/><path d="M70.75,46V38a.7502.7502,0,0,0-.75-.75H54a.7502.7502,0,0,0-.75.75v5.25H48A3.25377,3.25377,0,0,1,44.75,40V30.75H53a5.75,5.75,0,0,0,0-11.5,5.6049,5.6049,0,0,0-2.47266.57324,10.74275,10.74275,0,0,0-20.334-2.20312A6.636,6.636,0,0,0,28,17.25a6.75,6.75,0,0,0,0,13.5h7.25V40A3.25377,3.25377,0,0,1,32,43.25H26.75V38a.7502.7502,0,0,0-.75-.75H10a.7502.7502,0,0,0-.75.75V50a.7502.7502,0,0,0,.75.75H26a.7502.7502,0,0,0,.75-.75V44.75H32A4.7554,4.7554,0,0,0,36.75,40V30.75h2.5v22.5H32a.7502.7502,0,0,0-.75.75V66a.7502.7502,0,0,0,.75.75H48a.7502.7502,0,0,0,.75-.75V54a.7502.7502,0,0,0-.75-.75H40.75V30.75h2.5V40A4.7554,4.7554,0,0,0,48,44.75h5.25V50a.7502.7502,0,0,0,.75.75H70a.7502.7502,0,0,0,.75-.75Zm-45.5,3.25H10.75v-2.5h14.5Zm0-4H10.75v-2.5h14.5Zm0-4H10.75v-2.5h14.5Zm22,24H32.75v-2.5h14.5Zm0-4H32.75v-2.5h14.5Zm0-6.5v2.5H32.75v-2.5ZM28,29.25a5.25,5.25,0,0,1,0-10.5,5.1865,5.1865,0,0,1,2.27832.52686.75049.75049,0,0,0,1.03223-.41993,9.24178,9.24178,0,0,1,17.8955,2.27442.75053.75053,0,0,0,1.207.52295A4.19329,4.19329,0,0,1,53,20.75a4.25,4.25,0,0,1,0,8.5Zm41.25,20H54.75v-2.5h14.5Zm0-4H54.75v-2.5h14.5Zm0-4H54.75v-2.5h14.5Z"/></svg>