<?xml version="1.0" encoding="UTF-8"?><svg id="a" xmlns="http://www.w3.org/2000/svg" viewBox="0 0 80 80"><path d="M62,70.75c.41406,0,.75-.33594,.75-.75V22c0-.41406-.33594-.75-.75-.75h-9.28809c-.3916-6.68066-5.93481-12-12.71191-12s-12.32031,5.31934-12.71191,12h-9.28809c-.41406,0-.75,.33594-.75,.75v48c0,.41406,.33594,.75,.75,.75H62ZM40,10.75c5.95117,0,10.83789,4.64502,11.22559,10.5H28.77441c.3877-5.85498,5.27441-10.5,11.22559-10.5Zm-21.25,12H61.25v46.5H18.75V22.75Z"/><path d="M40,34.75c2.89453,0,5.25,2.35498,5.25,5.25h1.5c0-3.46826-2.63037-6.33105-6-6.70581v-3.29419h-1.5v3.29419c-3.36963,.37476-6,3.23755-6,6.70581,0,3.72217,3.02832,6.75,6.75,6.75,2.89453,0,5.25,2.35498,5.25,5.25s-2.35547,5.25-5.25,5.25-5.25-2.35498-5.25-5.25h-1.5c0,3.46826,2.63037,6.33105,6,6.70581v3.29419h1.5v-3.29419c3.36963-.37476,6-3.23755,6-6.70581,0-3.72217-3.02832-6.75-6.75-6.75-2.89453,0-5.25-2.35498-5.25-5.25s2.35547-5.25,5.25-5.25Z"/></svg>