<?xml version="1.0" encoding="UTF-8"?><svg id="a" xmlns="http://www.w3.org/2000/svg" viewBox="0 0 80 80"><path d="M40,34.75c7.03027,0,12.75-5.71973,12.75-12.75s-5.71973-12.75-12.75-12.75-12.75,5.71973-12.75,12.75,5.71973,12.75,12.75,12.75Zm0-24c6.20312,0,11.25,5.04688,11.25,11.25s-5.04688,11.25-11.25,11.25-11.25-5.04688-11.25-11.25,5.04688-11.25,11.25-11.25Z"/><path d="M15.25,52v20h1.5v-20c0-6.10327,4.88867-11.07629,10.95435-11.23511l10.48511,10.48511h-4.18945c-.41406,0-.75,.33594-.75,.75v12c0,.41406,.33594,.75,.75,.75h12c.41406,0,.75-.33594,.75-.75v-12c0-.41406-.33594-.75-.75-.75h-4.18945l10.48511-10.48511c6.06567,.15881,10.95435,5.13184,10.95435,11.23511v20h1.5v-20c0-7.03027-5.71973-12.75-12.75-12.75H28c-7.03027,0-12.75,5.71973-12.75,12.75Zm30,11.25h-10.5v-6.5h10.5v6.5Zm0-10.5v2.5h-10.5v-2.5h10.5Zm4.93945-12l-10.18945,10.18945-10.18945-10.18945h20.37891Z"/></svg>